%TF.GenerationSoftware,KiCad,Pcbnew,8.0.3*%
%TF.CreationDate,2024-07-25T19:58:27+01:00*%
%TF.ProjectId,Pack Board,5061636b-2042-46f6-9172-642e6b696361,rev?*%
%TF.SameCoordinates,Original*%
%TF.FileFunction,Soldermask,Bot*%
%TF.FilePolarity,Negative*%
%FSLAX46Y46*%
G04 Gerber Fmt 4.6, Leading zero omitted, Abs format (unit mm)*
G04 Created by KiCad (PCBNEW 8.0.3) date 2024-07-25 19:58:27*
%MOMM*%
%LPD*%
G01*
G04 APERTURE LIST*
G04 Aperture macros list*
%AMRoundRect*
0 Rectangle with rounded corners*
0 $1 Rounding radius*
0 $2 $3 $4 $5 $6 $7 $8 $9 X,Y pos of 4 corners*
0 Add a 4 corners polygon primitive as box body*
4,1,4,$2,$3,$4,$5,$6,$7,$8,$9,$2,$3,0*
0 Add four circle primitives for the rounded corners*
1,1,$1+$1,$2,$3*
1,1,$1+$1,$4,$5*
1,1,$1+$1,$6,$7*
1,1,$1+$1,$8,$9*
0 Add four rect primitives between the rounded corners*
20,1,$1+$1,$2,$3,$4,$5,0*
20,1,$1+$1,$4,$5,$6,$7,0*
20,1,$1+$1,$6,$7,$8,$9,0*
20,1,$1+$1,$8,$9,$2,$3,0*%
G04 Aperture macros list end*
%ADD10O,1.524000X1.524000*%
%ADD11C,1.524000*%
%ADD12C,5.600000*%
%ADD13RoundRect,0.250000X-0.725000X0.600000X-0.725000X-0.600000X0.725000X-0.600000X0.725000X0.600000X0*%
%ADD14O,1.950000X1.700000*%
%ADD15C,1.600000*%
%ADD16O,1.600000X1.600000*%
%ADD17RoundRect,0.250000X-0.600000X-0.725000X0.600000X-0.725000X0.600000X0.725000X-0.600000X0.725000X0*%
%ADD18O,1.700000X1.950000*%
%ADD19RoundRect,0.250000X-0.600000X-0.750000X0.600000X-0.750000X0.600000X0.750000X-0.600000X0.750000X0*%
%ADD20O,1.700000X2.000000*%
%ADD21RoundRect,0.250000X-0.750000X0.600000X-0.750000X-0.600000X0.750000X-0.600000X0.750000X0.600000X0*%
%ADD22O,2.000000X1.700000*%
%ADD23R,2.600000X2.600000*%
%ADD24C,2.600000*%
%ADD25R,1.600000X1.600000*%
G04 APERTURE END LIST*
D10*
%TO.C,U1*%
X138100000Y-105400000D03*
X138100000Y-107940000D03*
X138100000Y-110480000D03*
X138100000Y-113020000D03*
X138100000Y-115560000D03*
X138100000Y-118100000D03*
X138100000Y-120640000D03*
X138100000Y-123180000D03*
X138100000Y-125720000D03*
X138100000Y-128260000D03*
X138100000Y-130800000D03*
X138100000Y-133340000D03*
X138100000Y-135880000D03*
X138100000Y-138420000D03*
X153340000Y-138420000D03*
X153340000Y-135880000D03*
X153340000Y-133340000D03*
X153340000Y-130800000D03*
X153340000Y-128260000D03*
X153340000Y-125720000D03*
X153340000Y-123180000D03*
X153340000Y-120640000D03*
X153340000Y-118100000D03*
X153340000Y-115560000D03*
X153340000Y-113020000D03*
X153340000Y-110480000D03*
X153340000Y-107940000D03*
X153340000Y-105400000D03*
D11*
X157150000Y-126990000D03*
X157150000Y-124450000D03*
X157150000Y-121910000D03*
X157150000Y-119370000D03*
X157150000Y-116830000D03*
X159690000Y-119370000D03*
X159690000Y-116830000D03*
X159690000Y-121910000D03*
X159690000Y-126990000D03*
%TD*%
D12*
%TO.C,REF\u002A\u002A*%
X104445000Y-145405000D03*
%TD*%
D13*
%TO.C,J18*%
X169215000Y-92820000D03*
D14*
X169215000Y-95320000D03*
X169215000Y-97820000D03*
X169215000Y-100320000D03*
%TD*%
D15*
%TO.C,R5*%
X140005000Y-100320000D03*
D16*
X147625000Y-100320000D03*
%TD*%
D17*
%TO.C,J1*%
X116590000Y-84445000D03*
D18*
X119090000Y-84445000D03*
X121590000Y-84445000D03*
%TD*%
D19*
%TO.C,J5*%
X117820000Y-108575000D03*
D20*
X120320000Y-108575000D03*
%TD*%
D17*
%TO.C,J3*%
X154610000Y-84445000D03*
D18*
X157110000Y-84445000D03*
X159610000Y-84445000D03*
%TD*%
D19*
%TO.C,J16*%
X105500000Y-92065000D03*
D20*
X108000000Y-92065000D03*
%TD*%
D12*
%TO.C,REF\u002A\u002A*%
X171755000Y-84445000D03*
%TD*%
D15*
%TO.C,R2*%
X120320000Y-139055000D03*
D16*
X112700000Y-139055000D03*
%TD*%
D19*
%TO.C,J17*%
X112740000Y-144135000D03*
D20*
X115240000Y-144135000D03*
%TD*%
D21*
%TO.C,J12*%
X169850000Y-124490000D03*
D22*
X169850000Y-126990000D03*
%TD*%
D21*
%TO.C,J11*%
X169740000Y-134630000D03*
D22*
X169740000Y-137130000D03*
%TD*%
D12*
%TO.C,REF\u002A\u002A*%
X171755000Y-145405000D03*
%TD*%
D13*
%TO.C,J9*%
X157785000Y-92820000D03*
D14*
X157785000Y-95320000D03*
X157785000Y-97820000D03*
X157785000Y-100320000D03*
%TD*%
D21*
%TO.C,J10*%
X169850000Y-114330000D03*
D22*
X169850000Y-116830000D03*
%TD*%
D23*
%TO.C,J6*%
X134845000Y-86350000D03*
D24*
X129845000Y-86350000D03*
%TD*%
D25*
%TO.C,U2*%
X115240000Y-117465000D03*
D16*
X115240000Y-120005000D03*
X115240000Y-122545000D03*
X115240000Y-125085000D03*
X115240000Y-127625000D03*
X115240000Y-130165000D03*
X115240000Y-132705000D03*
X122860000Y-132705000D03*
X122860000Y-130165000D03*
X122860000Y-127625000D03*
X122860000Y-125085000D03*
X122860000Y-122545000D03*
X122860000Y-120005000D03*
X122860000Y-117465000D03*
%TD*%
D12*
%TO.C,REF\u002A\u002A*%
X104445000Y-84445000D03*
%TD*%
D25*
%TO.C,C1*%
X105620000Y-135880000D03*
D15*
X107620000Y-135880000D03*
%TD*%
D17*
%TO.C,J4*%
X122860000Y-144135000D03*
D18*
X125360000Y-144135000D03*
X127860000Y-144135000D03*
X130360000Y-144135000D03*
%TD*%
D17*
%TO.C,J13*%
X104250000Y-112500000D03*
D18*
X106750000Y-112500000D03*
X109250000Y-112500000D03*
%TD*%
D23*
%TO.C,J8*%
X146910000Y-86350000D03*
D24*
X141910000Y-86350000D03*
%TD*%
D23*
%TO.C,J7*%
X106750000Y-122000000D03*
D24*
X106750000Y-127000000D03*
%TD*%
D17*
%TO.C,J15*%
X104250000Y-102225000D03*
D18*
X106750000Y-102225000D03*
X109250000Y-102225000D03*
%TD*%
D15*
%TO.C,R4*%
X140005000Y-95240000D03*
D16*
X147625000Y-95240000D03*
%TD*%
D17*
%TO.C,J14*%
X116590000Y-95820000D03*
D18*
X119090000Y-95820000D03*
X121590000Y-95820000D03*
%TD*%
M02*
