%TF.GenerationSoftware,KiCad,Pcbnew,8.0.3*%
%TF.CreationDate,2024-07-03T15:18:10+01:00*%
%TF.ProjectId,Pack Board,5061636b-2042-46f6-9172-642e6b696361,rev?*%
%TF.SameCoordinates,Original*%
%TF.FileFunction,Copper,L1,Top*%
%TF.FilePolarity,Positive*%
%FSLAX46Y46*%
G04 Gerber Fmt 4.6, Leading zero omitted, Abs format (unit mm)*
G04 Created by KiCad (PCBNEW 8.0.3) date 2024-07-03 15:18:10*
%MOMM*%
%LPD*%
G01*
G04 APERTURE LIST*
G04 Aperture macros list*
%AMRoundRect*
0 Rectangle with rounded corners*
0 $1 Rounding radius*
0 $2 $3 $4 $5 $6 $7 $8 $9 X,Y pos of 4 corners*
0 Add a 4 corners polygon primitive as box body*
4,1,4,$2,$3,$4,$5,$6,$7,$8,$9,$2,$3,0*
0 Add four circle primitives for the rounded corners*
1,1,$1+$1,$2,$3*
1,1,$1+$1,$4,$5*
1,1,$1+$1,$6,$7*
1,1,$1+$1,$8,$9*
0 Add four rect primitives between the rounded corners*
20,1,$1+$1,$2,$3,$4,$5,0*
20,1,$1+$1,$4,$5,$6,$7,0*
20,1,$1+$1,$6,$7,$8,$9,0*
20,1,$1+$1,$8,$9,$2,$3,0*%
G04 Aperture macros list end*
%TA.AperFunction,ComponentPad*%
%ADD10O,1.524000X1.524000*%
%TD*%
%TA.AperFunction,ComponentPad*%
%ADD11C,1.524000*%
%TD*%
%TA.AperFunction,ComponentPad*%
%ADD12C,5.600000*%
%TD*%
%TA.AperFunction,ComponentPad*%
%ADD13RoundRect,0.250000X-0.725000X0.600000X-0.725000X-0.600000X0.725000X-0.600000X0.725000X0.600000X0*%
%TD*%
%TA.AperFunction,ComponentPad*%
%ADD14O,1.950000X1.700000*%
%TD*%
%TA.AperFunction,ComponentPad*%
%ADD15C,1.600000*%
%TD*%
%TA.AperFunction,ComponentPad*%
%ADD16O,1.600000X1.600000*%
%TD*%
%TA.AperFunction,ComponentPad*%
%ADD17RoundRect,0.250000X-0.600000X-0.725000X0.600000X-0.725000X0.600000X0.725000X-0.600000X0.725000X0*%
%TD*%
%TA.AperFunction,ComponentPad*%
%ADD18O,1.700000X1.950000*%
%TD*%
%TA.AperFunction,ComponentPad*%
%ADD19RoundRect,0.250000X-0.600000X-0.750000X0.600000X-0.750000X0.600000X0.750000X-0.600000X0.750000X0*%
%TD*%
%TA.AperFunction,ComponentPad*%
%ADD20O,1.700000X2.000000*%
%TD*%
%TA.AperFunction,ComponentPad*%
%ADD21RoundRect,0.250000X0.600000X0.750000X-0.600000X0.750000X-0.600000X-0.750000X0.600000X-0.750000X0*%
%TD*%
%TA.AperFunction,ComponentPad*%
%ADD22RoundRect,0.250000X0.750000X-0.600000X0.750000X0.600000X-0.750000X0.600000X-0.750000X-0.600000X0*%
%TD*%
%TA.AperFunction,ComponentPad*%
%ADD23O,2.000000X1.700000*%
%TD*%
%TA.AperFunction,ComponentPad*%
%ADD24R,2.600000X2.600000*%
%TD*%
%TA.AperFunction,ComponentPad*%
%ADD25C,2.600000*%
%TD*%
%TA.AperFunction,ComponentPad*%
%ADD26R,1.600000X1.600000*%
%TD*%
%TA.AperFunction,ComponentPad*%
%ADD27RoundRect,0.250000X0.600000X0.725000X-0.600000X0.725000X-0.600000X-0.725000X0.600000X-0.725000X0*%
%TD*%
%TA.AperFunction,Conductor*%
%ADD28C,0.250000*%
%TD*%
%TA.AperFunction,Conductor*%
%ADD29C,0.600000*%
%TD*%
%TA.AperFunction,Conductor*%
%ADD30C,0.500000*%
%TD*%
G04 APERTURE END LIST*
D10*
%TO.P,U1,1,GND*%
%TO.N,GND*%
X138760000Y-105820000D03*
%TO.P,U1,2,0_RX1_CRX2_CS1*%
%TO.N,/RX*%
X138760000Y-108360000D03*
%TO.P,U1,3,1_TX1_CTX2_MISO1*%
%TO.N,/TX*%
X138760000Y-110900000D03*
%TO.P,U1,4,2_OUT2*%
%TO.N,Net-(J16-Pin_2)*%
X138760000Y-113440000D03*
%TO.P,U1,5,3_LRCLK2*%
%TO.N,Net-(J15-Pin_3)*%
X138760000Y-115980000D03*
%TO.P,U1,6,4_BCLK2*%
%TO.N,Net-(J15-Pin_1)*%
X138760000Y-118520000D03*
%TO.P,U1,7,5_IN2*%
%TO.N,Net-(J14-Pin_3)*%
X138760000Y-121060000D03*
%TO.P,U1,8,6_OUT1D*%
%TO.N,unconnected-(U1-6_OUT1D-Pad8)*%
X138760000Y-123600000D03*
%TO.P,U1,9,7_RX2_OUT1A*%
%TO.N,unconnected-(U1-7_RX2_OUT1A-Pad9)*%
X138760000Y-126140000D03*
%TO.P,U1,10,8_TX2_IN1*%
%TO.N,unconnected-(U1-8_TX2_IN1-Pad10)*%
X138760000Y-128680000D03*
%TO.P,U1,11,9_OUT1C*%
%TO.N,Net-(J13-Pin_3)*%
X138760000Y-131220000D03*
%TO.P,U1,12,10_CS_MQSR*%
%TO.N,unconnected-(U1-10_CS_MQSR-Pad12)*%
X138760000Y-133760000D03*
%TO.P,U1,13,11_MOSI_CTX1*%
%TO.N,unconnected-(U1-11_MOSI_CTX1-Pad13)*%
X138760000Y-136300000D03*
%TO.P,U1,14,12_MISO_MQSL*%
%TO.N,unconnected-(U1-12_MISO_MQSL-Pad14)*%
X138760000Y-138840000D03*
%TO.P,U1,17,13_SCK_CRX1_LED*%
%TO.N,unconnected-(U1-13_SCK_CRX1_LED-Pad17)*%
X154000000Y-138840000D03*
%TO.P,U1,18,14_A0_TX3_SPDIF_OUT*%
%TO.N,Net-(U1-14_A0_TX3_SPDIF_OUT)*%
X154000000Y-136300000D03*
%TO.P,U1,19,15_A1_RX3_SPDIF_IN_VOL*%
%TO.N,unconnected-(U1-15_A1_RX3_SPDIF_IN_VOL-Pad19)*%
X154000000Y-133760000D03*
%TO.P,U1,20,16_A2_RX4_SCL1*%
%TO.N,Net-(U1-16_A2_RX4_SCL1)*%
X154000000Y-131220000D03*
%TO.P,U1,21,17_A3_TX4_SDA1*%
%TO.N,Net-(U1-17_A3_TX4_SDA1)*%
X154000000Y-128680000D03*
%TO.P,U1,22,18_A4_SDA0*%
%TO.N,/SDA*%
X154000000Y-126140000D03*
%TO.P,U1,23,19_A5_SCL0*%
%TO.N,Net-(J18-Pin_4)*%
X154000000Y-123600000D03*
%TO.P,U1,24,20_A6_TX5_LRCLK1*%
%TO.N,unconnected-(U1-20_A6_TX5_LRCLK1-Pad24)*%
X154000000Y-121060000D03*
%TO.P,U1,25,21_A7_RX5_BCLK1*%
%TO.N,unconnected-(U1-21_A7_RX5_BCLK1-Pad25)*%
X154000000Y-118520000D03*
%TO.P,U1,26,22_A8_CTX1*%
%TO.N,Net-(J17-Pin_2)*%
X154000000Y-115980000D03*
%TO.P,U1,27,23_A9_CRX1_MCLK1*%
%TO.N,unconnected-(U1-23_A9_CRX1_MCLK1-Pad27)*%
X154000000Y-113440000D03*
%TO.P,U1,28,3V*%
%TO.N,+3.3V*%
X154000000Y-110900000D03*
%TO.P,U1,29,GND*%
%TO.N,GND*%
X154000000Y-108360000D03*
%TO.P,U1,30,5V*%
%TO.N,+5V*%
X154000000Y-105820000D03*
D11*
%TO.P,U1,31,LINE_OUT_L*%
%TO.N,/LINE_OUT_L*%
X157810000Y-127410000D03*
%TO.P,U1,32,LINE_OUT_GND*%
%TO.N,/LINE_OUT_GND*%
X157810000Y-124870000D03*
%TO.P,U1,33,LINE_OUT_R*%
%TO.N,unconnected-(U1-LINE_OUT_R-Pad33)*%
X157810000Y-122330000D03*
%TO.P,U1,34,LINE_IN_R*%
%TO.N,/LINE_IN_R*%
X157810000Y-119790000D03*
%TO.P,U1,35,LINE_IN_L*%
%TO.N,/LINE_IN_L*%
X157810000Y-117250000D03*
%TO.P,U1,36,LINE_IN_R_GND*%
%TO.N,/LINE_IN_R_GND*%
X160350000Y-119790000D03*
%TO.P,U1,37,LINE_IN_L_GND*%
%TO.N,/LINE_IN_L_GND*%
X160350000Y-117250000D03*
%TO.P,U1,45,NCB*%
%TO.N,unconnected-(U1-NCB-Pad45)*%
X160350000Y-122330000D03*
%TO.P,U1,46,NCA*%
%TO.N,/LINE_OUT_L*%
X160350000Y-127410000D03*
%TD*%
D12*
%TO.P,REF\u002A\u002A,1*%
%TO.N,N/C*%
X105000000Y-145000000D03*
%TD*%
D13*
%TO.P,J18,1,Pin_1*%
%TO.N,GND*%
X167000000Y-93500000D03*
D14*
%TO.P,J18,2,Pin_2*%
%TO.N,+3.3V*%
X167000000Y-96000000D03*
%TO.P,J18,3,Pin_3*%
%TO.N,/SDA*%
X167000000Y-98500000D03*
%TO.P,J18,4,Pin_4*%
%TO.N,Net-(J18-Pin_4)*%
X167000000Y-101000000D03*
%TD*%
D15*
%TO.P,R5,1*%
%TO.N,Net-(J18-Pin_4)*%
X151120000Y-101750000D03*
D16*
%TO.P,R5,2*%
%TO.N,+3.3V*%
X143500000Y-101750000D03*
%TD*%
D17*
%TO.P,J1,1,Pin_1*%
%TO.N,GND*%
X120250000Y-84500000D03*
D18*
%TO.P,J1,2,Pin_2*%
%TO.N,+5V*%
X122750000Y-84500000D03*
%TO.P,J1,3,Pin_3*%
%TO.N,Net-(J1-Pin_3)*%
X125250000Y-84500000D03*
%TD*%
D17*
%TO.P,J3,1,Pin_1*%
%TO.N,GND*%
X120250000Y-94250000D03*
D18*
%TO.P,J3,2,Pin_2*%
%TO.N,+5V*%
X122750000Y-94250000D03*
%TO.P,J3,3,Pin_3*%
%TO.N,Net-(J3-Pin_3)*%
X125250000Y-94250000D03*
%TD*%
D19*
%TO.P,J16,1,Pin_1*%
%TO.N,GND*%
X105500000Y-93250000D03*
D20*
%TO.P,J16,2,Pin_2*%
%TO.N,Net-(J16-Pin_2)*%
X108000000Y-93250000D03*
%TD*%
D12*
%TO.P,REF\u002A\u002A,1*%
%TO.N,N/C*%
X170000000Y-85000000D03*
%TD*%
D15*
%TO.P,R2,1*%
%TO.N,Net-(J2-Pin_3)*%
X121500000Y-127870000D03*
D16*
%TO.P,R2,2*%
%TO.N,Net-(U2-3Y)*%
X121500000Y-120250000D03*
%TD*%
D21*
%TO.P,J17,1,Pin_1*%
%TO.N,GND*%
X121500000Y-145500000D03*
D20*
%TO.P,J17,2,Pin_2*%
%TO.N,Net-(J17-Pin_2)*%
X119000000Y-145500000D03*
%TD*%
D22*
%TO.P,J12,1,Pin_1*%
%TO.N,/LINE_IN_L_GND*%
X168475000Y-117000000D03*
D23*
%TO.P,J12,2,Pin_2*%
%TO.N,/LINE_IN_L*%
X168475000Y-114500000D03*
%TD*%
D22*
%TO.P,J11,1,Pin_1*%
%TO.N,/LINE_IN_R_GND*%
X168500000Y-126000000D03*
D23*
%TO.P,J11,2,Pin_2*%
%TO.N,/LINE_IN_R*%
X168500000Y-123500000D03*
%TD*%
D12*
%TO.P,REF\u002A\u002A,1*%
%TO.N,N/C*%
X170000000Y-145000000D03*
%TD*%
D13*
%TO.P,J9,1,Pin_1*%
%TO.N,GND*%
X157500000Y-93500000D03*
D14*
%TO.P,J9,2,Pin_2*%
%TO.N,+3.3V*%
X157500000Y-96000000D03*
%TO.P,J9,3,Pin_3*%
%TO.N,/SDA*%
X157500000Y-98500000D03*
%TO.P,J9,4,Pin_4*%
%TO.N,Net-(J18-Pin_4)*%
X157500000Y-101000000D03*
%TD*%
D22*
%TO.P,J10,1,Pin_1*%
%TO.N,/LINE_OUT_GND*%
X168500000Y-135000000D03*
D23*
%TO.P,J10,2,Pin_2*%
%TO.N,/LINE_OUT_L*%
X168500000Y-132500000D03*
%TD*%
D24*
%TO.P,J6,1,Pin_1*%
%TO.N,/TX*%
X137500000Y-86750000D03*
D25*
%TO.P,J6,2,Pin_2*%
%TO.N,/RX*%
X132500000Y-86750000D03*
%TD*%
D26*
%TO.P,U2,1,1OE*%
%TO.N,unconnected-(U2-1OE-Pad1)*%
X114750000Y-101460000D03*
D16*
%TO.P,U2,2,1A*%
%TO.N,unconnected-(U2-1A-Pad2)*%
X114750000Y-104000000D03*
%TO.P,U2,3,1Y*%
%TO.N,unconnected-(U2-1Y-Pad3)*%
X114750000Y-106540000D03*
%TO.P,U2,4,2OE*%
%TO.N,GND*%
X114750000Y-109080000D03*
%TO.P,U2,5,2A*%
%TO.N,Net-(U1-14_A0_TX3_SPDIF_OUT)*%
X114750000Y-111620000D03*
%TO.P,U2,6,2Y*%
%TO.N,Net-(U2-2Y)*%
X114750000Y-114160000D03*
%TO.P,U2,7,GND*%
%TO.N,GND*%
X114750000Y-116700000D03*
%TO.P,U2,8,3Y*%
%TO.N,Net-(U2-3Y)*%
X122370000Y-116700000D03*
%TO.P,U2,9,3A*%
%TO.N,Net-(U1-16_A2_RX4_SCL1)*%
X122370000Y-114160000D03*
%TO.P,U2,10,3OE*%
%TO.N,GND*%
X122370000Y-111620000D03*
%TO.P,U2,11,4Y*%
%TO.N,Net-(U2-4Y)*%
X122370000Y-109080000D03*
%TO.P,U2,12,4A*%
%TO.N,Net-(U1-17_A3_TX4_SDA1)*%
X122370000Y-106540000D03*
%TO.P,U2,13,4OE*%
%TO.N,GND*%
X122370000Y-104000000D03*
%TO.P,U2,14,VCC*%
%TO.N,+5V*%
X122370000Y-101460000D03*
%TD*%
D12*
%TO.P,REF\u002A\u002A,1*%
%TO.N,N/C*%
X105000000Y-85000000D03*
%TD*%
D26*
%TO.P,C1,1*%
%TO.N,+5V*%
X106000000Y-135750000D03*
D15*
%TO.P,C1,2*%
%TO.N,GND*%
X108000000Y-135750000D03*
%TD*%
%TO.P,R1,1*%
%TO.N,Net-(J1-Pin_3)*%
X115000000Y-127870000D03*
D16*
%TO.P,R1,2*%
%TO.N,Net-(U2-2Y)*%
X115000000Y-120250000D03*
%TD*%
D17*
%TO.P,J13,1,Pin_1*%
%TO.N,GND*%
X104250000Y-112500000D03*
D18*
%TO.P,J13,2,Pin_2*%
%TO.N,+3.3V*%
X106750000Y-112500000D03*
%TO.P,J13,3,Pin_3*%
%TO.N,Net-(J13-Pin_3)*%
X109250000Y-112500000D03*
%TD*%
D24*
%TO.P,J8,1,Pin_1*%
%TO.N,GND*%
X149000000Y-86750000D03*
D25*
%TO.P,J8,2,Pin_2*%
%TO.N,+5V*%
X144000000Y-86750000D03*
%TD*%
D24*
%TO.P,J7,1,Pin_1*%
%TO.N,GND*%
X106750000Y-122000000D03*
D25*
%TO.P,J7,2,Pin_2*%
%TO.N,+5V*%
X106750000Y-127000000D03*
%TD*%
D17*
%TO.P,J15,1,Pin_1*%
%TO.N,Net-(J15-Pin_1)*%
X104250000Y-102750000D03*
D18*
%TO.P,J15,2,Pin_2*%
%TO.N,GND*%
X106750000Y-102750000D03*
%TO.P,J15,3,Pin_3*%
%TO.N,Net-(J15-Pin_3)*%
X109250000Y-102750000D03*
%TD*%
D15*
%TO.P,R4,1*%
%TO.N,/SDA*%
X151120000Y-97750000D03*
D16*
%TO.P,R4,2*%
%TO.N,+3.3V*%
X143500000Y-97750000D03*
%TD*%
D17*
%TO.P,J14,1,Pin_1*%
%TO.N,GND*%
X156500000Y-84500000D03*
D18*
%TO.P,J14,2,Pin_2*%
%TO.N,+3.3V*%
X159000000Y-84500000D03*
%TO.P,J14,3,Pin_3*%
%TO.N,Net-(J14-Pin_3)*%
X161500000Y-84500000D03*
%TD*%
D27*
%TO.P,J2,1,Pin_1*%
%TO.N,GND*%
X160960000Y-145500000D03*
D18*
%TO.P,J2,2,Pin_2*%
%TO.N,+5V*%
X158460000Y-145500000D03*
%TO.P,J2,3,Pin_3*%
%TO.N,Net-(J2-Pin_3)*%
X155960000Y-145500000D03*
%TD*%
D15*
%TO.P,R3,1*%
%TO.N,Net-(J3-Pin_3)*%
X118250000Y-127870000D03*
D16*
%TO.P,R3,2*%
%TO.N,Net-(U2-4Y)*%
X118250000Y-120250000D03*
%TD*%
D28*
%TO.N,Net-(J2-Pin_3)*%
X139130000Y-145500000D02*
X155960000Y-145500000D01*
X121500000Y-127870000D02*
X139130000Y-145500000D01*
D29*
%TO.N,+5V*%
X106000000Y-127750000D02*
X106750000Y-127000000D01*
D30*
X122750000Y-101080000D02*
X122370000Y-101460000D01*
D29*
%TO.N,GND*%
X107800000Y-101700000D02*
X106750000Y-102750000D01*
X154000000Y-107900000D02*
X154700000Y-107200000D01*
X106750000Y-102750000D02*
X105900000Y-101900000D01*
X154000000Y-108360000D02*
X153060000Y-108360000D01*
X154700000Y-107200000D02*
X155200000Y-107200000D01*
X105900000Y-100900000D02*
X107800000Y-100900000D01*
X105500000Y-92500000D02*
X106400000Y-91600000D01*
X138760000Y-105820000D02*
X137820000Y-105820000D01*
X104850000Y-93250000D02*
X104000000Y-94100000D01*
X105500000Y-93250000D02*
X104850000Y-93250000D01*
X105900000Y-101900000D02*
X105900000Y-100900000D01*
X154000000Y-107900000D02*
X153200000Y-107100000D01*
X137820000Y-105820000D02*
X137550000Y-105550000D01*
X107800000Y-100900000D02*
X107800000Y-101700000D01*
X153200000Y-107100000D02*
X153100000Y-107100000D01*
X138760000Y-105820000D02*
X139400000Y-105180000D01*
X154000000Y-108360000D02*
X154000000Y-107900000D01*
X139400000Y-105180000D02*
X139400000Y-104200000D01*
X105500000Y-93250000D02*
X105500000Y-92500000D01*
X138760000Y-105820000D02*
X137800000Y-104860000D01*
X153060000Y-108360000D02*
X152600000Y-107900000D01*
%TO.N,+3.3V*%
X147000000Y-103900000D02*
X154000000Y-110900000D01*
X115000000Y-81250000D02*
X161750000Y-81250000D01*
X157500000Y-96000000D02*
X167000000Y-96000000D01*
X145000000Y-101750000D02*
X147000000Y-99750000D01*
X164250000Y-83750000D02*
X164250000Y-89250000D01*
X147000000Y-100000000D02*
X147000000Y-96500000D01*
X143500000Y-97750000D02*
X145000000Y-97750000D01*
X115000000Y-81339340D02*
X115000000Y-81250000D01*
X157500000Y-96000000D02*
X147500000Y-96000000D01*
X147000000Y-99750000D02*
X147000000Y-103900000D01*
X147000000Y-96500000D02*
X147500000Y-96000000D01*
X145000000Y-97750000D02*
X147000000Y-99750000D01*
X106750000Y-112500000D02*
X101500000Y-107250000D01*
X161750000Y-81250000D02*
X164250000Y-83750000D01*
X147500000Y-96000000D02*
X159000000Y-84500000D01*
X164250000Y-89250000D02*
X157500000Y-96000000D01*
X143500000Y-101750000D02*
X145000000Y-101750000D01*
X101500000Y-107250000D02*
X101500000Y-94839340D01*
X101500000Y-94839340D02*
X115000000Y-81339340D01*
%TO.N,Net-(J18-Pin_4)*%
X157500000Y-101000000D02*
X167000000Y-101000000D01*
X151120000Y-101750000D02*
X156750000Y-101750000D01*
X156750000Y-101750000D02*
X157500000Y-101000000D01*
%TO.N,/SDA*%
X167000000Y-98500000D02*
X157500000Y-98500000D01*
X151120000Y-97750000D02*
X156750000Y-97750000D01*
X156750000Y-97750000D02*
X157500000Y-98500000D01*
%TO.N,/TX*%
X140500000Y-89750000D02*
X140500000Y-109160000D01*
X137500000Y-86750000D02*
X140500000Y-89750000D01*
X140500000Y-109160000D02*
X138760000Y-110900000D01*
D28*
%TO.N,Net-(U2-2Y)*%
X115000000Y-120250000D02*
X115875000Y-119375000D01*
X115875000Y-115285000D02*
X114750000Y-114160000D01*
X115875000Y-119375000D02*
X115875000Y-115285000D01*
%TO.N,Net-(U2-3Y)*%
X121500000Y-117570000D02*
X122370000Y-116700000D01*
X121500000Y-120250000D02*
X121500000Y-117570000D01*
X121740000Y-116700000D02*
X122370000Y-116700000D01*
%TO.N,Net-(U2-4Y)*%
X118250000Y-113200000D02*
X122370000Y-109080000D01*
X118250000Y-120250000D02*
X118250000Y-113200000D01*
D29*
%TO.N,/RX*%
X132500000Y-102100000D02*
X132500000Y-86750000D01*
X138760000Y-108360000D02*
X132500000Y-102100000D01*
D28*
%TO.N,Net-(J16-Pin_2)*%
X112500000Y-123000000D02*
X114000000Y-124500000D01*
X127700000Y-124500000D02*
X138760000Y-113440000D01*
X114000000Y-124500000D02*
X127700000Y-124500000D01*
X112500000Y-97750000D02*
X112500000Y-123000000D01*
X108000000Y-93250000D02*
X112500000Y-97750000D01*
%TO.N,Net-(J15-Pin_1)*%
X111000000Y-123750000D02*
X113250000Y-126000000D01*
X136980000Y-118520000D02*
X138760000Y-118520000D01*
X129500000Y-126000000D02*
X136980000Y-118520000D01*
X104250000Y-102750000D02*
X111000000Y-109500000D01*
X111000000Y-109500000D02*
X111000000Y-123750000D01*
X113250000Y-126000000D02*
X129500000Y-126000000D01*
%TO.N,Net-(J13-Pin_3)*%
X134040000Y-126500000D02*
X138760000Y-131220000D01*
X112500000Y-126500000D02*
X134040000Y-126500000D01*
X109250000Y-112500000D02*
X109250000Y-123250000D01*
X109250000Y-123250000D02*
X112500000Y-126500000D01*
%TO.N,Net-(J15-Pin_3)*%
X129490000Y-125250000D02*
X138760000Y-115980000D01*
X111750000Y-105250000D02*
X111750000Y-123500000D01*
X111750000Y-123500000D02*
X113500000Y-125250000D01*
X113500000Y-125250000D02*
X129490000Y-125250000D01*
X109250000Y-102750000D02*
X111750000Y-105250000D01*
%TO.N,Net-(J14-Pin_3)*%
X141125000Y-118695000D02*
X138760000Y-121060000D01*
X160200000Y-83200000D02*
X155661827Y-83200000D01*
X161500000Y-84500000D02*
X160200000Y-83200000D01*
X155661827Y-83200000D02*
X141125000Y-97736827D01*
X141125000Y-97736827D02*
X141125000Y-118695000D01*
%TD*%
%TA.AperFunction,Conductor*%
%TO.N,GND*%
G36*
X170015677Y-81269685D02*
G01*
X170036319Y-81286319D01*
X170237819Y-81487819D01*
X170271304Y-81549142D01*
X170266320Y-81618834D01*
X170224448Y-81674767D01*
X170158984Y-81699184D01*
X170150138Y-81699500D01*
X169821050Y-81699500D01*
X169465255Y-81738194D01*
X169115726Y-81815131D01*
X168859970Y-81901306D01*
X168776565Y-81929409D01*
X168776563Y-81929410D01*
X168776552Y-81929414D01*
X168451755Y-82079680D01*
X168451751Y-82079682D01*
X168223367Y-82217096D01*
X168145081Y-82264200D01*
X168056768Y-82331333D01*
X167860172Y-82480781D01*
X167860163Y-82480789D01*
X167600331Y-82726914D01*
X167368641Y-82999680D01*
X167368634Y-82999690D01*
X167167790Y-83295913D01*
X167167784Y-83295922D01*
X167000151Y-83612111D01*
X167000142Y-83612129D01*
X166867674Y-83944600D01*
X166867672Y-83944607D01*
X166771932Y-84289434D01*
X166771926Y-84289460D01*
X166714029Y-84642614D01*
X166714028Y-84642631D01*
X166697043Y-84955909D01*
X166694652Y-85000000D01*
X166709560Y-85274971D01*
X166714028Y-85357368D01*
X166714029Y-85357385D01*
X166771926Y-85710539D01*
X166771932Y-85710565D01*
X166867672Y-86055392D01*
X166867674Y-86055399D01*
X167000142Y-86387870D01*
X167000151Y-86387888D01*
X167167784Y-86704077D01*
X167167790Y-86704086D01*
X167368634Y-87000309D01*
X167368641Y-87000319D01*
X167584874Y-87254888D01*
X167600332Y-87273086D01*
X167860163Y-87519211D01*
X168145081Y-87735800D01*
X168451747Y-87920315D01*
X168451749Y-87920316D01*
X168451751Y-87920317D01*
X168451755Y-87920319D01*
X168576615Y-87978085D01*
X168776565Y-88070591D01*
X169115726Y-88184868D01*
X169465254Y-88261805D01*
X169821052Y-88300500D01*
X169821058Y-88300500D01*
X170178942Y-88300500D01*
X170178948Y-88300500D01*
X170534746Y-88261805D01*
X170884274Y-88184868D01*
X171223435Y-88070591D01*
X171548253Y-87920315D01*
X171854919Y-87735800D01*
X172139837Y-87519211D01*
X172399668Y-87273086D01*
X172631365Y-87000311D01*
X172832211Y-86704085D01*
X172999853Y-86387880D01*
X173132324Y-86055403D01*
X173228071Y-85710552D01*
X173245891Y-85601848D01*
X173285970Y-85357385D01*
X173285970Y-85357382D01*
X173285972Y-85357371D01*
X173305348Y-85000000D01*
X173297393Y-84853285D01*
X173313419Y-84785280D01*
X173363668Y-84736733D01*
X173432187Y-84723060D01*
X173497221Y-84748601D01*
X173508892Y-84758892D01*
X173713681Y-84963681D01*
X173747166Y-85025004D01*
X173750000Y-85051362D01*
X173750000Y-144948637D01*
X173730315Y-145015676D01*
X173713681Y-145036318D01*
X173508892Y-145241106D01*
X173447569Y-145274591D01*
X173377877Y-145269607D01*
X173321944Y-145227735D01*
X173297527Y-145162271D01*
X173297393Y-145146713D01*
X173305348Y-145000000D01*
X173285972Y-144642629D01*
X173285899Y-144642184D01*
X173228073Y-144289460D01*
X173228072Y-144289459D01*
X173228071Y-144289448D01*
X173163742Y-144057754D01*
X173132327Y-143944607D01*
X173132325Y-143944600D01*
X172999857Y-143612129D01*
X172999848Y-143612111D01*
X172832215Y-143295922D01*
X172832213Y-143295919D01*
X172832211Y-143295915D01*
X172631365Y-142999689D01*
X172631361Y-142999684D01*
X172631358Y-142999680D01*
X172399668Y-142726914D01*
X172139837Y-142480789D01*
X172139830Y-142480783D01*
X172139827Y-142480781D01*
X172072245Y-142429407D01*
X171854919Y-142264200D01*
X171548253Y-142079685D01*
X171548252Y-142079684D01*
X171548248Y-142079682D01*
X171548244Y-142079680D01*
X171223447Y-141929414D01*
X171223441Y-141929411D01*
X171223435Y-141929409D01*
X171053854Y-141872270D01*
X170884273Y-141815131D01*
X170534744Y-141738194D01*
X170178949Y-141699500D01*
X170178948Y-141699500D01*
X169821052Y-141699500D01*
X169821050Y-141699500D01*
X169465255Y-141738194D01*
X169115726Y-141815131D01*
X168859970Y-141901306D01*
X168776565Y-141929409D01*
X168776563Y-141929410D01*
X168776552Y-141929414D01*
X168451755Y-142079680D01*
X168451751Y-142079682D01*
X168223367Y-142217096D01*
X168145081Y-142264200D01*
X168056768Y-142331333D01*
X167860172Y-142480781D01*
X167860163Y-142480789D01*
X167600331Y-142726914D01*
X167368641Y-142999680D01*
X167368634Y-142999690D01*
X167167790Y-143295913D01*
X167167784Y-143295922D01*
X167000151Y-143612111D01*
X167000142Y-143612129D01*
X166867674Y-143944600D01*
X166867672Y-143944607D01*
X166771932Y-144289434D01*
X166771926Y-144289460D01*
X166714029Y-144642614D01*
X166714028Y-144642627D01*
X166714028Y-144642629D01*
X166706277Y-144785577D01*
X166694652Y-144999997D01*
X166694652Y-145000002D01*
X166714028Y-145357368D01*
X166714029Y-145357385D01*
X166771926Y-145710539D01*
X166771932Y-145710565D01*
X166867672Y-146055392D01*
X166867674Y-146055399D01*
X167000142Y-146387870D01*
X167000151Y-146387888D01*
X167167784Y-146704077D01*
X167167787Y-146704082D01*
X167167789Y-146704085D01*
X167368423Y-146999999D01*
X167368634Y-147000309D01*
X167368641Y-147000319D01*
X167600331Y-147273085D01*
X167600332Y-147273086D01*
X167860163Y-147519211D01*
X168145081Y-147735800D01*
X168451747Y-147920315D01*
X168451749Y-147920316D01*
X168451751Y-147920317D01*
X168451755Y-147920319D01*
X168776552Y-148070585D01*
X168776565Y-148070591D01*
X169115726Y-148184868D01*
X169465254Y-148261805D01*
X169821052Y-148300500D01*
X169821058Y-148300500D01*
X170150138Y-148300500D01*
X170217177Y-148320185D01*
X170262932Y-148372989D01*
X170272876Y-148442147D01*
X170243851Y-148505703D01*
X170237819Y-148512181D01*
X170036319Y-148713681D01*
X169974996Y-148747166D01*
X169948638Y-148750000D01*
X105051362Y-148750000D01*
X104984323Y-148730315D01*
X104963681Y-148713681D01*
X104762181Y-148512181D01*
X104728696Y-148450858D01*
X104733680Y-148381166D01*
X104775552Y-148325233D01*
X104841016Y-148300816D01*
X104849862Y-148300500D01*
X105178942Y-148300500D01*
X105178948Y-148300500D01*
X105534746Y-148261805D01*
X105884274Y-148184868D01*
X106223435Y-148070591D01*
X106548253Y-147920315D01*
X106854919Y-147735800D01*
X107139837Y-147519211D01*
X107399668Y-147273086D01*
X107631365Y-147000311D01*
X107832211Y-146704085D01*
X107999853Y-146387880D01*
X108132324Y-146055403D01*
X108228071Y-145710552D01*
X108285972Y-145357371D01*
X108292134Y-145243713D01*
X117649500Y-145243713D01*
X117649500Y-145756286D01*
X117682703Y-145965925D01*
X117682754Y-145966243D01*
X117722202Y-146087652D01*
X117748444Y-146168414D01*
X117844951Y-146357820D01*
X117969890Y-146529786D01*
X118120213Y-146680109D01*
X118292179Y-146805048D01*
X118292181Y-146805049D01*
X118292184Y-146805051D01*
X118481588Y-146901557D01*
X118683757Y-146967246D01*
X118893713Y-147000500D01*
X118893714Y-147000500D01*
X119106286Y-147000500D01*
X119106287Y-147000500D01*
X119316243Y-146967246D01*
X119518412Y-146901557D01*
X119707816Y-146805051D01*
X119765141Y-146763402D01*
X119879784Y-146680110D01*
X119879784Y-146680109D01*
X119879792Y-146680104D01*
X120018967Y-146540928D01*
X120080286Y-146507446D01*
X120149978Y-146512430D01*
X120205912Y-146554301D01*
X120212184Y-146563515D01*
X120307684Y-146718345D01*
X120431654Y-146842315D01*
X120580875Y-146934356D01*
X120580880Y-146934358D01*
X120747302Y-146989505D01*
X120747309Y-146989506D01*
X120850019Y-146999999D01*
X121199999Y-146999999D01*
X121200000Y-146999998D01*
X121200000Y-145904144D01*
X121307007Y-145965925D01*
X121434174Y-146000000D01*
X121565826Y-146000000D01*
X121692993Y-145965925D01*
X121800000Y-145904144D01*
X121800000Y-146999999D01*
X122149972Y-146999999D01*
X122149986Y-146999998D01*
X122252697Y-146989505D01*
X122419119Y-146934358D01*
X122419124Y-146934356D01*
X122568345Y-146842315D01*
X122692315Y-146718345D01*
X122784356Y-146569124D01*
X122784358Y-146569119D01*
X122839505Y-146402697D01*
X122839506Y-146402690D01*
X122849999Y-146299986D01*
X122850000Y-146299973D01*
X122850000Y-145800000D01*
X121904144Y-145800000D01*
X121965925Y-145692993D01*
X122000000Y-145565826D01*
X122000000Y-145434174D01*
X121965925Y-145307007D01*
X121904144Y-145200000D01*
X122849999Y-145200000D01*
X122849999Y-144700028D01*
X122849998Y-144700013D01*
X122839505Y-144597302D01*
X122784358Y-144430880D01*
X122784356Y-144430875D01*
X122692315Y-144281654D01*
X122568345Y-144157684D01*
X122419124Y-144065643D01*
X122419119Y-144065641D01*
X122252697Y-144010494D01*
X122252690Y-144010493D01*
X122149986Y-144000000D01*
X121800000Y-144000000D01*
X121800000Y-145095855D01*
X121692993Y-145034075D01*
X121565826Y-145000000D01*
X121434174Y-145000000D01*
X121307007Y-145034075D01*
X121200000Y-145095855D01*
X121200000Y-144000000D01*
X120850028Y-144000000D01*
X120850012Y-144000001D01*
X120747302Y-144010494D01*
X120580880Y-144065641D01*
X120580875Y-144065643D01*
X120431654Y-144157684D01*
X120307683Y-144281655D01*
X120307680Y-144281659D01*
X120212183Y-144436484D01*
X120160235Y-144483209D01*
X120091273Y-144494430D01*
X120027191Y-144466587D01*
X120018964Y-144459068D01*
X119879786Y-144319890D01*
X119707820Y-144194951D01*
X119518414Y-144098444D01*
X119518413Y-144098443D01*
X119518412Y-144098443D01*
X119316243Y-144032754D01*
X119316241Y-144032753D01*
X119316240Y-144032753D01*
X119154957Y-144007208D01*
X119106287Y-143999500D01*
X118893713Y-143999500D01*
X118845042Y-144007208D01*
X118683760Y-144032753D01*
X118481585Y-144098444D01*
X118292179Y-144194951D01*
X118120213Y-144319890D01*
X117969890Y-144470213D01*
X117844951Y-144642179D01*
X117748444Y-144831585D01*
X117682753Y-145033760D01*
X117649500Y-145243713D01*
X108292134Y-145243713D01*
X108305348Y-145000000D01*
X108285972Y-144642629D01*
X108285899Y-144642184D01*
X108228073Y-144289460D01*
X108228072Y-144289459D01*
X108228071Y-144289448D01*
X108163742Y-144057754D01*
X108132327Y-143944607D01*
X108132325Y-143944600D01*
X107999857Y-143612129D01*
X107999848Y-143612111D01*
X107832215Y-143295922D01*
X107832213Y-143295919D01*
X107832211Y-143295915D01*
X107631365Y-142999689D01*
X107631361Y-142999684D01*
X107631358Y-142999680D01*
X107399668Y-142726914D01*
X107139837Y-142480789D01*
X107139830Y-142480783D01*
X107139827Y-142480781D01*
X107072245Y-142429407D01*
X106854919Y-142264200D01*
X106548253Y-142079685D01*
X106548252Y-142079684D01*
X106548248Y-142079682D01*
X106548244Y-142079680D01*
X106223447Y-141929414D01*
X106223441Y-141929411D01*
X106223435Y-141929409D01*
X106053854Y-141872270D01*
X105884273Y-141815131D01*
X105534744Y-141738194D01*
X105178949Y-141699500D01*
X105178948Y-141699500D01*
X104821052Y-141699500D01*
X104821050Y-141699500D01*
X104465255Y-141738194D01*
X104115726Y-141815131D01*
X103859970Y-141901306D01*
X103776565Y-141929409D01*
X103776563Y-141929410D01*
X103776552Y-141929414D01*
X103451755Y-142079680D01*
X103451751Y-142079682D01*
X103223367Y-142217096D01*
X103145081Y-142264200D01*
X103056768Y-142331333D01*
X102860172Y-142480781D01*
X102860163Y-142480789D01*
X102600331Y-142726914D01*
X102368641Y-142999680D01*
X102368634Y-142999690D01*
X102167790Y-143295913D01*
X102167784Y-143295922D01*
X102000151Y-143612111D01*
X102000142Y-143612129D01*
X101867674Y-143944600D01*
X101867672Y-143944607D01*
X101771932Y-144289434D01*
X101771926Y-144289460D01*
X101714029Y-144642614D01*
X101714028Y-144642627D01*
X101714028Y-144642629D01*
X101706277Y-144785577D01*
X101694652Y-144999997D01*
X101694652Y-145000002D01*
X101702606Y-145146713D01*
X101686580Y-145214720D01*
X101636330Y-145263266D01*
X101567811Y-145276939D01*
X101502778Y-145251398D01*
X101491107Y-145241107D01*
X101286319Y-145036319D01*
X101252834Y-144974996D01*
X101250000Y-144948638D01*
X101250000Y-134902135D01*
X104699500Y-134902135D01*
X104699500Y-136597870D01*
X104699501Y-136597876D01*
X104705908Y-136657483D01*
X104756202Y-136792328D01*
X104756206Y-136792335D01*
X104842452Y-136907544D01*
X104842455Y-136907547D01*
X104957664Y-136993793D01*
X104957671Y-136993797D01*
X105092517Y-137044091D01*
X105092516Y-137044091D01*
X105099444Y-137044835D01*
X105152127Y-137050500D01*
X106847872Y-137050499D01*
X106907483Y-137044091D01*
X107042331Y-136993796D01*
X107157546Y-136907546D01*
X107164350Y-136898455D01*
X107220280Y-136856584D01*
X107289971Y-136851597D01*
X107334740Y-136871188D01*
X107347512Y-136880130D01*
X107347518Y-136880134D01*
X107553673Y-136976265D01*
X107553682Y-136976269D01*
X107773389Y-137035139D01*
X107773400Y-137035141D01*
X107999998Y-137054966D01*
X108000002Y-137054966D01*
X108226599Y-137035141D01*
X108226610Y-137035139D01*
X108446317Y-136976269D01*
X108446331Y-136976264D01*
X108652478Y-136880136D01*
X108652480Y-136880135D01*
X108683882Y-136858146D01*
X107975736Y-136150000D01*
X108052661Y-136150000D01*
X108154394Y-136122741D01*
X108245606Y-136070080D01*
X108320080Y-135995606D01*
X108372741Y-135904394D01*
X108400000Y-135802661D01*
X108400000Y-135749999D01*
X108424264Y-135749999D01*
X108424264Y-135750000D01*
X109108146Y-136433882D01*
X109130135Y-136402480D01*
X109130136Y-136402478D01*
X109226264Y-136196331D01*
X109226269Y-136196317D01*
X109285139Y-135976610D01*
X109285141Y-135976599D01*
X109304966Y-135750002D01*
X109304966Y-135749997D01*
X109285141Y-135523400D01*
X109285139Y-135523389D01*
X109226269Y-135303682D01*
X109226265Y-135303673D01*
X109130134Y-135097518D01*
X109130133Y-135097516D01*
X109108146Y-135066116D01*
X109108146Y-135066115D01*
X108424264Y-135749999D01*
X108400000Y-135749999D01*
X108400000Y-135697339D01*
X108372741Y-135595606D01*
X108320080Y-135504394D01*
X108245606Y-135429920D01*
X108154394Y-135377259D01*
X108052661Y-135350000D01*
X107975736Y-135350000D01*
X108000000Y-135325736D01*
X108683883Y-134641852D01*
X108683883Y-134641851D01*
X108652485Y-134619867D01*
X108446326Y-134523734D01*
X108446317Y-134523730D01*
X108226610Y-134464860D01*
X108226599Y-134464858D01*
X108000002Y-134445034D01*
X107999998Y-134445034D01*
X107773400Y-134464858D01*
X107773389Y-134464860D01*
X107553682Y-134523730D01*
X107553673Y-134523734D01*
X107347512Y-134619868D01*
X107347507Y-134619871D01*
X107334736Y-134628813D01*
X107268529Y-134651138D01*
X107200763Y-134634124D01*
X107164352Y-134601546D01*
X107157546Y-134592454D01*
X107157544Y-134592453D01*
X107157544Y-134592452D01*
X107042335Y-134506206D01*
X107042328Y-134506202D01*
X106907482Y-134455908D01*
X106907483Y-134455908D01*
X106847883Y-134449501D01*
X106847881Y-134449500D01*
X106847873Y-134449500D01*
X106847864Y-134449500D01*
X105152129Y-134449500D01*
X105152123Y-134449501D01*
X105092516Y-134455908D01*
X104957671Y-134506202D01*
X104957664Y-134506206D01*
X104842455Y-134592452D01*
X104842452Y-134592455D01*
X104756206Y-134707664D01*
X104756202Y-134707671D01*
X104705908Y-134842517D01*
X104699501Y-134902116D01*
X104699500Y-134902135D01*
X101250000Y-134902135D01*
X101250000Y-126999995D01*
X104944451Y-126999995D01*
X104944451Y-127000004D01*
X104964616Y-127269101D01*
X105014831Y-127489106D01*
X105024666Y-127532195D01*
X105123257Y-127783398D01*
X105199127Y-127914811D01*
X105215548Y-127943252D01*
X105229777Y-127981053D01*
X105230263Y-127983497D01*
X105230264Y-127983501D01*
X105290602Y-128129172D01*
X105290609Y-128129185D01*
X105378210Y-128260288D01*
X105378213Y-128260292D01*
X105489707Y-128371786D01*
X105489711Y-128371789D01*
X105620814Y-128459390D01*
X105620823Y-128459395D01*
X105766503Y-128519737D01*
X105772325Y-128521503D01*
X105772038Y-128522448D01*
X105810411Y-128538551D01*
X105847226Y-128563651D01*
X106090359Y-128680738D01*
X106348228Y-128760280D01*
X106348229Y-128760280D01*
X106348232Y-128760281D01*
X106615063Y-128800499D01*
X106615068Y-128800499D01*
X106615071Y-128800500D01*
X106615072Y-128800500D01*
X106884928Y-128800500D01*
X106884929Y-128800500D01*
X106884936Y-128800499D01*
X107151767Y-128760281D01*
X107151768Y-128760280D01*
X107151772Y-128760280D01*
X107409641Y-128680738D01*
X107652775Y-128563651D01*
X107875741Y-128411635D01*
X108053656Y-128246554D01*
X108073557Y-128228089D01*
X108073557Y-128228087D01*
X108073561Y-128228085D01*
X108241815Y-128017102D01*
X108376743Y-127783398D01*
X108475334Y-127532195D01*
X108535383Y-127269103D01*
X108547946Y-127101460D01*
X108555549Y-127000004D01*
X108555549Y-126999995D01*
X108535383Y-126730898D01*
X108516921Y-126650009D01*
X108475334Y-126467805D01*
X108376743Y-126216602D01*
X108241815Y-125982898D01*
X108073561Y-125771915D01*
X108073560Y-125771914D01*
X108073557Y-125771910D01*
X107875741Y-125588365D01*
X107652775Y-125436349D01*
X107652769Y-125436346D01*
X107652768Y-125436345D01*
X107652767Y-125436344D01*
X107409643Y-125319263D01*
X107409645Y-125319263D01*
X107151773Y-125239720D01*
X107151767Y-125239718D01*
X106884936Y-125199500D01*
X106884929Y-125199500D01*
X106615071Y-125199500D01*
X106615063Y-125199500D01*
X106348232Y-125239718D01*
X106348226Y-125239720D01*
X106090358Y-125319262D01*
X105847230Y-125436346D01*
X105624258Y-125588365D01*
X105426442Y-125771910D01*
X105258185Y-125982898D01*
X105123258Y-126216599D01*
X105123256Y-126216603D01*
X105024666Y-126467804D01*
X105024664Y-126467811D01*
X104964616Y-126730898D01*
X104944451Y-126999995D01*
X101250000Y-126999995D01*
X101250000Y-108431440D01*
X101269685Y-108364401D01*
X101322489Y-108318646D01*
X101391647Y-108308702D01*
X101455203Y-108337727D01*
X101461681Y-108343759D01*
X103931241Y-110813319D01*
X103964726Y-110874642D01*
X103959742Y-110944334D01*
X103917870Y-111000267D01*
X103852406Y-111024684D01*
X103843561Y-111025000D01*
X103600029Y-111025000D01*
X103600012Y-111025001D01*
X103497302Y-111035494D01*
X103330880Y-111090641D01*
X103330875Y-111090643D01*
X103181654Y-111182684D01*
X103057684Y-111306654D01*
X102965643Y-111455875D01*
X102965641Y-111455880D01*
X102910494Y-111622302D01*
X102910493Y-111622309D01*
X102900000Y-111725013D01*
X102900000Y-112200000D01*
X103878248Y-112200000D01*
X103869905Y-112208343D01*
X103807370Y-112316657D01*
X103775000Y-112437465D01*
X103775000Y-112562535D01*
X103807370Y-112683343D01*
X103869905Y-112791657D01*
X103878248Y-112800000D01*
X102900001Y-112800000D01*
X102900001Y-113274986D01*
X102910494Y-113377697D01*
X102965641Y-113544119D01*
X102965643Y-113544124D01*
X103057684Y-113693345D01*
X103181654Y-113817315D01*
X103330875Y-113909356D01*
X103330880Y-113909358D01*
X103497302Y-113964505D01*
X103497309Y-113964506D01*
X103600019Y-113974999D01*
X103949999Y-113974999D01*
X103950000Y-113974998D01*
X103950000Y-112871752D01*
X103958343Y-112880095D01*
X104066657Y-112942630D01*
X104187465Y-112975000D01*
X104312535Y-112975000D01*
X104433343Y-112942630D01*
X104541657Y-112880095D01*
X104550000Y-112871752D01*
X104550000Y-113974999D01*
X104899972Y-113974999D01*
X104899986Y-113974998D01*
X105002697Y-113964505D01*
X105169119Y-113909358D01*
X105169124Y-113909356D01*
X105318345Y-113817315D01*
X105442317Y-113693343D01*
X105537815Y-113538516D01*
X105589763Y-113491791D01*
X105658725Y-113480568D01*
X105722808Y-113508412D01*
X105731035Y-113515931D01*
X105870213Y-113655109D01*
X106042179Y-113780048D01*
X106042181Y-113780049D01*
X106042184Y-113780051D01*
X106231588Y-113876557D01*
X106433757Y-113942246D01*
X106643713Y-113975500D01*
X106643714Y-113975500D01*
X106856286Y-113975500D01*
X106856287Y-113975500D01*
X107066243Y-113942246D01*
X107268412Y-113876557D01*
X107457816Y-113780051D01*
X107479789Y-113764086D01*
X107629786Y-113655109D01*
X107629788Y-113655106D01*
X107629792Y-113655104D01*
X107780104Y-113504792D01*
X107899683Y-113340204D01*
X107955011Y-113297540D01*
X108024624Y-113291561D01*
X108086420Y-113324166D01*
X108100313Y-113340199D01*
X108194543Y-113469896D01*
X108219896Y-113504792D01*
X108370213Y-113655109D01*
X108542181Y-113780050D01*
X108556792Y-113787494D01*
X108607589Y-113835467D01*
X108624500Y-113897980D01*
X108624500Y-120260760D01*
X108604815Y-120327799D01*
X108552011Y-120373554D01*
X108482853Y-120383498D01*
X108419297Y-120354473D01*
X108412819Y-120348441D01*
X108407187Y-120342809D01*
X108292093Y-120256649D01*
X108292086Y-120256645D01*
X108157379Y-120206403D01*
X108157372Y-120206401D01*
X108097844Y-120200000D01*
X107050000Y-120200000D01*
X107050000Y-121420709D01*
X106939598Y-121374979D01*
X106814019Y-121350000D01*
X106685981Y-121350000D01*
X106560402Y-121374979D01*
X106450000Y-121420709D01*
X106450000Y-120200000D01*
X105402155Y-120200000D01*
X105342627Y-120206401D01*
X105342620Y-120206403D01*
X105207913Y-120256645D01*
X105207906Y-120256649D01*
X105092812Y-120342809D01*
X105092809Y-120342812D01*
X105006649Y-120457906D01*
X105006645Y-120457913D01*
X104956403Y-120592620D01*
X104956401Y-120592627D01*
X104950000Y-120652155D01*
X104950000Y-121700000D01*
X106170710Y-121700000D01*
X106124979Y-121810402D01*
X106100000Y-121935981D01*
X106100000Y-122064019D01*
X106124979Y-122189598D01*
X106170710Y-122300000D01*
X104950000Y-122300000D01*
X104950000Y-123347844D01*
X104956401Y-123407372D01*
X104956403Y-123407379D01*
X105006645Y-123542086D01*
X105006649Y-123542093D01*
X105092809Y-123657187D01*
X105092812Y-123657190D01*
X105207906Y-123743350D01*
X105207913Y-123743354D01*
X105342620Y-123793596D01*
X105342627Y-123793598D01*
X105402155Y-123799999D01*
X105402172Y-123800000D01*
X106450000Y-123800000D01*
X106450000Y-122579290D01*
X106560402Y-122625021D01*
X106685981Y-122650000D01*
X106814019Y-122650000D01*
X106939598Y-122625021D01*
X107050000Y-122579290D01*
X107050000Y-123800000D01*
X108097828Y-123800000D01*
X108097844Y-123799999D01*
X108157372Y-123793598D01*
X108157379Y-123793596D01*
X108292086Y-123743354D01*
X108292093Y-123743350D01*
X108407186Y-123657191D01*
X108493766Y-123541535D01*
X108549700Y-123499664D01*
X108619391Y-123494680D01*
X108680714Y-123528165D01*
X108696133Y-123546952D01*
X108716924Y-123578067D01*
X108716925Y-123578070D01*
X108716926Y-123578070D01*
X108764141Y-123648732D01*
X108764144Y-123648736D01*
X108855586Y-123740178D01*
X108855608Y-123740198D01*
X112011016Y-126895606D01*
X112011045Y-126895637D01*
X112101264Y-126985856D01*
X112101267Y-126985858D01*
X112152490Y-127020084D01*
X112203714Y-127054312D01*
X112284207Y-127087652D01*
X112317548Y-127101463D01*
X112377971Y-127113481D01*
X112438393Y-127125500D01*
X112438394Y-127125500D01*
X113717582Y-127125500D01*
X113784621Y-127145185D01*
X113830376Y-127197989D01*
X113840320Y-127267147D01*
X113829964Y-127301904D01*
X113779558Y-127410000D01*
X113773262Y-127423502D01*
X113773258Y-127423511D01*
X113714366Y-127643302D01*
X113714364Y-127643313D01*
X113694532Y-127869998D01*
X113694532Y-127870001D01*
X113714364Y-128096686D01*
X113714366Y-128096697D01*
X113773258Y-128316488D01*
X113773261Y-128316497D01*
X113869431Y-128522732D01*
X113869432Y-128522734D01*
X113999954Y-128709141D01*
X114160858Y-128870045D01*
X114160861Y-128870047D01*
X114347266Y-129000568D01*
X114553504Y-129096739D01*
X114773308Y-129155635D01*
X114930780Y-129169412D01*
X114999998Y-129175468D01*
X115000000Y-129175468D01*
X115000002Y-129175468D01*
X115069220Y-129169412D01*
X115226692Y-129155635D01*
X115446496Y-129096739D01*
X115652734Y-129000568D01*
X115839139Y-128870047D01*
X116000047Y-128709139D01*
X116130568Y-128522734D01*
X116226739Y-128316496D01*
X116285635Y-128096692D01*
X116305468Y-127870000D01*
X116285635Y-127643308D01*
X116226739Y-127423504D01*
X116170035Y-127301904D01*
X116159544Y-127232827D01*
X116188064Y-127169043D01*
X116246540Y-127130804D01*
X116282418Y-127125500D01*
X116967582Y-127125500D01*
X117034621Y-127145185D01*
X117080376Y-127197989D01*
X117090320Y-127267147D01*
X117079964Y-127301904D01*
X117029558Y-127410000D01*
X117023262Y-127423502D01*
X117023258Y-127423511D01*
X116964366Y-127643302D01*
X116964364Y-127643313D01*
X116944532Y-127869998D01*
X116944532Y-127870001D01*
X116964364Y-128096686D01*
X116964366Y-128096697D01*
X117023258Y-128316488D01*
X117023261Y-128316497D01*
X117119431Y-128522732D01*
X117119432Y-128522734D01*
X117249954Y-128709141D01*
X117410858Y-128870045D01*
X117410861Y-128870047D01*
X117597266Y-129000568D01*
X117803504Y-129096739D01*
X118023308Y-129155635D01*
X118180780Y-129169412D01*
X118249998Y-129175468D01*
X118250000Y-129175468D01*
X118250002Y-129175468D01*
X118319220Y-129169412D01*
X118476692Y-129155635D01*
X118696496Y-129096739D01*
X118902734Y-129000568D01*
X119089139Y-128870047D01*
X119250047Y-128709139D01*
X119380568Y-128522734D01*
X119476739Y-128316496D01*
X119535635Y-128096692D01*
X119555468Y-127870000D01*
X119535635Y-127643308D01*
X119476739Y-127423504D01*
X119420035Y-127301904D01*
X119409544Y-127232827D01*
X119438064Y-127169043D01*
X119496540Y-127130804D01*
X119532418Y-127125500D01*
X120217582Y-127125500D01*
X120284621Y-127145185D01*
X120330376Y-127197989D01*
X120340320Y-127267147D01*
X120329964Y-127301904D01*
X120279558Y-127410000D01*
X120273262Y-127423502D01*
X120273258Y-127423511D01*
X120214366Y-127643302D01*
X120214364Y-127643313D01*
X120194532Y-127869998D01*
X120194532Y-127870001D01*
X120214364Y-128096686D01*
X120214366Y-128096697D01*
X120273258Y-128316488D01*
X120273261Y-128316497D01*
X120369431Y-128522732D01*
X120369432Y-128522734D01*
X120499954Y-128709141D01*
X120660858Y-128870045D01*
X120660861Y-128870047D01*
X120847266Y-129000568D01*
X121053504Y-129096739D01*
X121273308Y-129155635D01*
X121430780Y-129169412D01*
X121499998Y-129175468D01*
X121500000Y-129175468D01*
X121500002Y-129175468D01*
X121569220Y-129169412D01*
X121726692Y-129155635D01*
X121795048Y-129137319D01*
X121864896Y-129138980D01*
X121914822Y-129169412D01*
X138641016Y-145895606D01*
X138641045Y-145895637D01*
X138731264Y-145985856D01*
X138731267Y-145985858D01*
X138782490Y-146020084D01*
X138833714Y-146054312D01*
X138914207Y-146087652D01*
X138947548Y-146101463D01*
X139007971Y-146113481D01*
X139068393Y-146125500D01*
X139068394Y-146125500D01*
X154623329Y-146125500D01*
X154690368Y-146145185D01*
X154733814Y-146193205D01*
X154804951Y-146332820D01*
X154929890Y-146504786D01*
X155080213Y-146655109D01*
X155252179Y-146780048D01*
X155252181Y-146780049D01*
X155252184Y-146780051D01*
X155441588Y-146876557D01*
X155643757Y-146942246D01*
X155853713Y-146975500D01*
X155853714Y-146975500D01*
X156066286Y-146975500D01*
X156066287Y-146975500D01*
X156276243Y-146942246D01*
X156478412Y-146876557D01*
X156667816Y-146780051D01*
X156772386Y-146704077D01*
X156839786Y-146655109D01*
X156839788Y-146655106D01*
X156839792Y-146655104D01*
X156990104Y-146504792D01*
X157109683Y-146340204D01*
X157165011Y-146297540D01*
X157234624Y-146291561D01*
X157296420Y-146324166D01*
X157310313Y-146340199D01*
X157413661Y-146482446D01*
X157429896Y-146504792D01*
X157580213Y-146655109D01*
X157752179Y-146780048D01*
X157752181Y-146780049D01*
X157752184Y-146780051D01*
X157941588Y-146876557D01*
X158143757Y-146942246D01*
X158353713Y-146975500D01*
X158353714Y-146975500D01*
X158566286Y-146975500D01*
X158566287Y-146975500D01*
X158776243Y-146942246D01*
X158978412Y-146876557D01*
X159167816Y-146780051D01*
X159272386Y-146704077D01*
X159339784Y-146655110D01*
X159339784Y-146655109D01*
X159339792Y-146655104D01*
X159478967Y-146515928D01*
X159540286Y-146482446D01*
X159609978Y-146487430D01*
X159665912Y-146529301D01*
X159672184Y-146538515D01*
X159767684Y-146693345D01*
X159891654Y-146817315D01*
X160040875Y-146909356D01*
X160040880Y-146909358D01*
X160207302Y-146964505D01*
X160207309Y-146964506D01*
X160310019Y-146974999D01*
X160659999Y-146974999D01*
X160660000Y-146974998D01*
X160660000Y-145871752D01*
X160668343Y-145880095D01*
X160776657Y-145942630D01*
X160897465Y-145975000D01*
X161022535Y-145975000D01*
X161143343Y-145942630D01*
X161251657Y-145880095D01*
X161260000Y-145871752D01*
X161260000Y-146974999D01*
X161609972Y-146974999D01*
X161609986Y-146974998D01*
X161712697Y-146964505D01*
X161879119Y-146909358D01*
X161879124Y-146909356D01*
X162028345Y-146817315D01*
X162152315Y-146693345D01*
X162244356Y-146544124D01*
X162244358Y-146544119D01*
X162299505Y-146377697D01*
X162299506Y-146377690D01*
X162309999Y-146274986D01*
X162310000Y-146274973D01*
X162310000Y-145800000D01*
X161331752Y-145800000D01*
X161340095Y-145791657D01*
X161402630Y-145683343D01*
X161435000Y-145562535D01*
X161435000Y-145437465D01*
X161402630Y-145316657D01*
X161340095Y-145208343D01*
X161331752Y-145200000D01*
X162309999Y-145200000D01*
X162309999Y-144725028D01*
X162309998Y-144725013D01*
X162299505Y-144622302D01*
X162244358Y-144455880D01*
X162244356Y-144455875D01*
X162152315Y-144306654D01*
X162028345Y-144182684D01*
X161879124Y-144090643D01*
X161879119Y-144090641D01*
X161712697Y-144035494D01*
X161712690Y-144035493D01*
X161609986Y-144025000D01*
X161260000Y-144025000D01*
X161260000Y-145128248D01*
X161251657Y-145119905D01*
X161143343Y-145057370D01*
X161022535Y-145025000D01*
X160897465Y-145025000D01*
X160776657Y-145057370D01*
X160668343Y-145119905D01*
X160660000Y-145128248D01*
X160660000Y-144025000D01*
X160310028Y-144025000D01*
X160310012Y-144025001D01*
X160207302Y-144035494D01*
X160040880Y-144090641D01*
X160040875Y-144090643D01*
X159891654Y-144182684D01*
X159767683Y-144306655D01*
X159767680Y-144306659D01*
X159672183Y-144461484D01*
X159620235Y-144508209D01*
X159551273Y-144519430D01*
X159487191Y-144491587D01*
X159478964Y-144484068D01*
X159339786Y-144344890D01*
X159167820Y-144219951D01*
X158978414Y-144123444D01*
X158978413Y-144123443D01*
X158978412Y-144123443D01*
X158776243Y-144057754D01*
X158776241Y-144057753D01*
X158776240Y-144057753D01*
X158614957Y-144032208D01*
X158566287Y-144024500D01*
X158353713Y-144024500D01*
X158305042Y-144032208D01*
X158143760Y-144057753D01*
X157941585Y-144123444D01*
X157752179Y-144219951D01*
X157580213Y-144344890D01*
X157429894Y-144495209D01*
X157429890Y-144495214D01*
X157310318Y-144659793D01*
X157254989Y-144702459D01*
X157185375Y-144708438D01*
X157123580Y-144675833D01*
X157109682Y-144659793D01*
X156990109Y-144495214D01*
X156990105Y-144495209D01*
X156839786Y-144344890D01*
X156667820Y-144219951D01*
X156478414Y-144123444D01*
X156478413Y-144123443D01*
X156478412Y-144123443D01*
X156276243Y-144057754D01*
X156276241Y-144057753D01*
X156276240Y-144057753D01*
X156114957Y-144032208D01*
X156066287Y-144024500D01*
X155853713Y-144024500D01*
X155805042Y-144032208D01*
X155643760Y-144057753D01*
X155441585Y-144123444D01*
X155252179Y-144219951D01*
X155080213Y-144344890D01*
X154929890Y-144495213D01*
X154804951Y-144667179D01*
X154733814Y-144806795D01*
X154685840Y-144857591D01*
X154623329Y-144874500D01*
X139440452Y-144874500D01*
X139373413Y-144854815D01*
X139352771Y-144838181D01*
X122799412Y-128284822D01*
X122765927Y-128223499D01*
X122767318Y-128165048D01*
X122785635Y-128096692D01*
X122805468Y-127870000D01*
X122785635Y-127643308D01*
X122726739Y-127423504D01*
X122670035Y-127301904D01*
X122659544Y-127232827D01*
X122688064Y-127169043D01*
X122746540Y-127130804D01*
X122782418Y-127125500D01*
X133729548Y-127125500D01*
X133796587Y-127145185D01*
X133817229Y-127161819D01*
X137491613Y-130836203D01*
X137525098Y-130897526D01*
X137523707Y-130955976D01*
X137511931Y-130999926D01*
X137511930Y-130999933D01*
X137492677Y-131219997D01*
X137492677Y-131220002D01*
X137511929Y-131440062D01*
X137511930Y-131440070D01*
X137569104Y-131653445D01*
X137569105Y-131653447D01*
X137569106Y-131653450D01*
X137662466Y-131853662D01*
X137662468Y-131853666D01*
X137789170Y-132034615D01*
X137789175Y-132034621D01*
X137945378Y-132190824D01*
X137945384Y-132190829D01*
X138126333Y-132317531D01*
X138126335Y-132317532D01*
X138126338Y-132317534D01*
X138245748Y-132373215D01*
X138255189Y-132377618D01*
X138307628Y-132423790D01*
X138326780Y-132490984D01*
X138306564Y-132557865D01*
X138255189Y-132602382D01*
X138126340Y-132662465D01*
X138126338Y-132662466D01*
X137945377Y-132789175D01*
X137789175Y-132945377D01*
X137662466Y-133126338D01*
X137662465Y-133126340D01*
X137569107Y-133326548D01*
X137569104Y-133326554D01*
X137511930Y-133539929D01*
X137511929Y-133539937D01*
X137492677Y-133759997D01*
X137492677Y-133760002D01*
X137511929Y-133980062D01*
X137511930Y-133980070D01*
X137569104Y-134193445D01*
X137569105Y-134193447D01*
X137569106Y-134193450D01*
X137642105Y-134349998D01*
X137662466Y-134393662D01*
X137662468Y-134393666D01*
X137789170Y-134574615D01*
X137789175Y-134574621D01*
X137945378Y-134730824D01*
X137945384Y-134730829D01*
X138126333Y-134857531D01*
X138126335Y-134857532D01*
X138126338Y-134857534D01*
X138221971Y-134902128D01*
X138255189Y-134917618D01*
X138307628Y-134963790D01*
X138326780Y-135030984D01*
X138306564Y-135097865D01*
X138255189Y-135142382D01*
X138126340Y-135202465D01*
X138126338Y-135202466D01*
X137945377Y-135329175D01*
X137789175Y-135485377D01*
X137662466Y-135666338D01*
X137662465Y-135666340D01*
X137569107Y-135866548D01*
X137569104Y-135866554D01*
X137511930Y-136079929D01*
X137511929Y-136079937D01*
X137492677Y-136299997D01*
X137492677Y-136300002D01*
X137511929Y-136520062D01*
X137511930Y-136520070D01*
X137569104Y-136733445D01*
X137569105Y-136733447D01*
X137569106Y-136733450D01*
X137633334Y-136871188D01*
X137662466Y-136933662D01*
X137662468Y-136933666D01*
X137789170Y-137114615D01*
X137789175Y-137114621D01*
X137945378Y-137270824D01*
X137945384Y-137270829D01*
X138126333Y-137397531D01*
X138126335Y-137397532D01*
X138126338Y-137397534D01*
X138245748Y-137453215D01*
X138255189Y-137457618D01*
X138307628Y-137503790D01*
X138326780Y-137570984D01*
X138306564Y-137637865D01*
X138255189Y-137682382D01*
X138126340Y-137742465D01*
X138126338Y-137742466D01*
X137945377Y-137869175D01*
X137789175Y-138025377D01*
X137662466Y-138206338D01*
X137662465Y-138206340D01*
X137569107Y-138406548D01*
X137569104Y-138406554D01*
X137511930Y-138619929D01*
X137511929Y-138619937D01*
X137492677Y-138839997D01*
X137492677Y-138840002D01*
X137511929Y-139060062D01*
X137511930Y-139060070D01*
X137569104Y-139273445D01*
X137569105Y-139273447D01*
X137569106Y-139273450D01*
X137662466Y-139473662D01*
X137662468Y-139473666D01*
X137789170Y-139654615D01*
X137789175Y-139654621D01*
X137945378Y-139810824D01*
X137945384Y-139810829D01*
X138126333Y-139937531D01*
X138126335Y-139937532D01*
X138126338Y-139937534D01*
X138326550Y-140030894D01*
X138539932Y-140088070D01*
X138697123Y-140101822D01*
X138759998Y-140107323D01*
X138760000Y-140107323D01*
X138760002Y-140107323D01*
X138815017Y-140102509D01*
X138980068Y-140088070D01*
X139193450Y-140030894D01*
X139393662Y-139937534D01*
X139574620Y-139810826D01*
X139730826Y-139654620D01*
X139857534Y-139473662D01*
X139950894Y-139273450D01*
X140008070Y-139060068D01*
X140027323Y-138840000D01*
X140008070Y-138619932D01*
X139950894Y-138406550D01*
X139857534Y-138206339D01*
X139730826Y-138025380D01*
X139574620Y-137869174D01*
X139574616Y-137869171D01*
X139574615Y-137869170D01*
X139393666Y-137742468D01*
X139393658Y-137742464D01*
X139264811Y-137682382D01*
X139212371Y-137636210D01*
X139193219Y-137569017D01*
X139213435Y-137502135D01*
X139264811Y-137457618D01*
X139270802Y-137454824D01*
X139393662Y-137397534D01*
X139574620Y-137270826D01*
X139730826Y-137114620D01*
X139857534Y-136933662D01*
X139950894Y-136733450D01*
X140008070Y-136520068D01*
X140027323Y-136300000D01*
X140025994Y-136284814D01*
X140017937Y-136192712D01*
X140008070Y-136079932D01*
X139950894Y-135866550D01*
X139857534Y-135666339D01*
X139730826Y-135485380D01*
X139574620Y-135329174D01*
X139574616Y-135329171D01*
X139574615Y-135329170D01*
X139393666Y-135202468D01*
X139393658Y-135202464D01*
X139264811Y-135142382D01*
X139212371Y-135096210D01*
X139193219Y-135029017D01*
X139213435Y-134962135D01*
X139264811Y-134917618D01*
X139298029Y-134902128D01*
X139393662Y-134857534D01*
X139574620Y-134730826D01*
X139730826Y-134574620D01*
X139857534Y-134393662D01*
X139950894Y-134193450D01*
X140008070Y-133980068D01*
X140027323Y-133760000D01*
X140008070Y-133539932D01*
X139950894Y-133326550D01*
X139857534Y-133126339D01*
X139730826Y-132945380D01*
X139574620Y-132789174D01*
X139574616Y-132789171D01*
X139574615Y-132789170D01*
X139393666Y-132662468D01*
X139393658Y-132662464D01*
X139264811Y-132602382D01*
X139212371Y-132556210D01*
X139193219Y-132489017D01*
X139213435Y-132422135D01*
X139264811Y-132377618D01*
X139270802Y-132374824D01*
X139393662Y-132317534D01*
X139574620Y-132190826D01*
X139730826Y-132034620D01*
X139857534Y-131853662D01*
X139950894Y-131653450D01*
X140008070Y-131440068D01*
X140027323Y-131220000D01*
X140024064Y-131182754D01*
X140008070Y-130999937D01*
X140008070Y-130999933D01*
X140008070Y-130999932D01*
X139950894Y-130786550D01*
X139857534Y-130586339D01*
X139730826Y-130405380D01*
X139574620Y-130249174D01*
X139574616Y-130249171D01*
X139574615Y-130249170D01*
X139393666Y-130122468D01*
X139393658Y-130122464D01*
X139264811Y-130062382D01*
X139212371Y-130016210D01*
X139193219Y-129949017D01*
X139213435Y-129882135D01*
X139264811Y-129837618D01*
X139270802Y-129834824D01*
X139393662Y-129777534D01*
X139574620Y-129650826D01*
X139730826Y-129494620D01*
X139857534Y-129313662D01*
X139950894Y-129113450D01*
X140008070Y-128900068D01*
X140024774Y-128709139D01*
X140027323Y-128680002D01*
X140027323Y-128679997D01*
X140013539Y-128522448D01*
X140008070Y-128459932D01*
X139950894Y-128246550D01*
X139857534Y-128046339D01*
X139730826Y-127865380D01*
X139574620Y-127709174D01*
X139574616Y-127709171D01*
X139574615Y-127709170D01*
X139393666Y-127582468D01*
X139393658Y-127582464D01*
X139264811Y-127522382D01*
X139212371Y-127476210D01*
X139193219Y-127409017D01*
X139213435Y-127342135D01*
X139264811Y-127297618D01*
X139292269Y-127284814D01*
X139393662Y-127237534D01*
X139574620Y-127110826D01*
X139730826Y-126954620D01*
X139857534Y-126773662D01*
X139950894Y-126573450D01*
X140008070Y-126360068D01*
X140022509Y-126195017D01*
X140027323Y-126140002D01*
X140027323Y-126139997D01*
X140016312Y-126014141D01*
X140008070Y-125919932D01*
X139950894Y-125706550D01*
X139857534Y-125506339D01*
X139748064Y-125349998D01*
X139730827Y-125325381D01*
X139708891Y-125303445D01*
X139574620Y-125169174D01*
X139574616Y-125169171D01*
X139574615Y-125169170D01*
X139393666Y-125042468D01*
X139393658Y-125042464D01*
X139264811Y-124982382D01*
X139212371Y-124936210D01*
X139193219Y-124869017D01*
X139213435Y-124802135D01*
X139264811Y-124757618D01*
X139270802Y-124754824D01*
X139393662Y-124697534D01*
X139574620Y-124570826D01*
X139730826Y-124414620D01*
X139857534Y-124233662D01*
X139950894Y-124033450D01*
X140008070Y-123820068D01*
X140023060Y-123648732D01*
X140027323Y-123600002D01*
X140027323Y-123599997D01*
X140017491Y-123487618D01*
X140008070Y-123379932D01*
X139950894Y-123166550D01*
X139857534Y-122966339D01*
X139730826Y-122785380D01*
X139574620Y-122629174D01*
X139574616Y-122629171D01*
X139574615Y-122629170D01*
X139393666Y-122502468D01*
X139393658Y-122502464D01*
X139264811Y-122442382D01*
X139212371Y-122396210D01*
X139193219Y-122329017D01*
X139213435Y-122262135D01*
X139264811Y-122217618D01*
X139270802Y-122214824D01*
X139393662Y-122157534D01*
X139574620Y-122030826D01*
X139730826Y-121874620D01*
X139857534Y-121693662D01*
X139950894Y-121493450D01*
X140008070Y-121280068D01*
X140024774Y-121089139D01*
X140027323Y-121060002D01*
X140027323Y-121059997D01*
X140013564Y-120902732D01*
X140008070Y-120839932D01*
X139996292Y-120795976D01*
X139997955Y-120726126D01*
X140028384Y-120676204D01*
X141523729Y-119180860D01*
X141523733Y-119180858D01*
X141610858Y-119093733D01*
X141634402Y-119058497D01*
X141657945Y-119023263D01*
X141657946Y-119023261D01*
X141657948Y-119023258D01*
X141679312Y-118991286D01*
X141712652Y-118910792D01*
X141712653Y-118910791D01*
X141726460Y-118877460D01*
X141726460Y-118877457D01*
X141726463Y-118877452D01*
X141739050Y-118814169D01*
X141750500Y-118756607D01*
X141750500Y-118633393D01*
X141750500Y-98047278D01*
X141770185Y-97980239D01*
X141786815Y-97959601D01*
X141990563Y-97755853D01*
X142051883Y-97722370D01*
X142121574Y-97727354D01*
X142177508Y-97769225D01*
X142201769Y-97832728D01*
X142214364Y-97976687D01*
X142214366Y-97976697D01*
X142273258Y-98196488D01*
X142273261Y-98196497D01*
X142369431Y-98402732D01*
X142369432Y-98402734D01*
X142499954Y-98589141D01*
X142660858Y-98750045D01*
X142660861Y-98750047D01*
X142847266Y-98880568D01*
X143053504Y-98976739D01*
X143273308Y-99035635D01*
X143435230Y-99049801D01*
X143499998Y-99055468D01*
X143500000Y-99055468D01*
X143500002Y-99055468D01*
X143556673Y-99050509D01*
X143726692Y-99035635D01*
X143946496Y-98976739D01*
X144152734Y-98880568D01*
X144339139Y-98750047D01*
X144339141Y-98750045D01*
X144502368Y-98586819D01*
X144563691Y-98553334D01*
X144590049Y-98550500D01*
X144617060Y-98550500D01*
X144684099Y-98570185D01*
X144704741Y-98586819D01*
X145780241Y-99662319D01*
X145813726Y-99723642D01*
X145808742Y-99793334D01*
X145780241Y-99837681D01*
X144704741Y-100913181D01*
X144643418Y-100946666D01*
X144617060Y-100949500D01*
X144590049Y-100949500D01*
X144523010Y-100929815D01*
X144502368Y-100913181D01*
X144339141Y-100749954D01*
X144152734Y-100619432D01*
X144152732Y-100619431D01*
X143946497Y-100523261D01*
X143946488Y-100523258D01*
X143726697Y-100464366D01*
X143726693Y-100464365D01*
X143726692Y-100464365D01*
X143726691Y-100464364D01*
X143726686Y-100464364D01*
X143500002Y-100444532D01*
X143499998Y-100444532D01*
X143273313Y-100464364D01*
X143273302Y-100464366D01*
X143053511Y-100523258D01*
X143053502Y-100523261D01*
X142847267Y-100619431D01*
X142847265Y-100619432D01*
X142660858Y-100749954D01*
X142499954Y-100910858D01*
X142369432Y-101097265D01*
X142369431Y-101097267D01*
X142273261Y-101303502D01*
X142273258Y-101303511D01*
X142214366Y-101523302D01*
X142214364Y-101523313D01*
X142194532Y-101749998D01*
X142194532Y-101750001D01*
X142214364Y-101976686D01*
X142214366Y-101976697D01*
X142273258Y-102196488D01*
X142273261Y-102196497D01*
X142369431Y-102402732D01*
X142369432Y-102402734D01*
X142499954Y-102589141D01*
X142660858Y-102750045D01*
X142676335Y-102760882D01*
X142847266Y-102880568D01*
X143053504Y-102976739D01*
X143273308Y-103035635D01*
X143435230Y-103049801D01*
X143499998Y-103055468D01*
X143500000Y-103055468D01*
X143500002Y-103055468D01*
X143562499Y-103050000D01*
X143726692Y-103035635D01*
X143946496Y-102976739D01*
X144152734Y-102880568D01*
X144339139Y-102750047D01*
X144402447Y-102686739D01*
X144502368Y-102586819D01*
X144563691Y-102553334D01*
X144590049Y-102550500D01*
X145078844Y-102550500D01*
X145078845Y-102550499D01*
X145233497Y-102519737D01*
X145377603Y-102460047D01*
X145379172Y-102459397D01*
X145379172Y-102459396D01*
X145379179Y-102459394D01*
X145510289Y-102371789D01*
X145987819Y-101894259D01*
X146049142Y-101860774D01*
X146118833Y-101865758D01*
X146174767Y-101907629D01*
X146199184Y-101973094D01*
X146199500Y-101981940D01*
X146199500Y-103978846D01*
X146230261Y-104133489D01*
X146230264Y-104133501D01*
X146290602Y-104279172D01*
X146290609Y-104279185D01*
X146378210Y-104410288D01*
X146378213Y-104410292D01*
X152702670Y-110734748D01*
X152736155Y-110796071D01*
X152738517Y-110833235D01*
X152732677Y-110899996D01*
X152732677Y-110900002D01*
X152751929Y-111120062D01*
X152751930Y-111120070D01*
X152809104Y-111333445D01*
X152809105Y-111333447D01*
X152809106Y-111333450D01*
X152902466Y-111533662D01*
X152902468Y-111533666D01*
X153029170Y-111714615D01*
X153029175Y-111714621D01*
X153185378Y-111870824D01*
X153185384Y-111870829D01*
X153366333Y-111997531D01*
X153366335Y-111997532D01*
X153366338Y-111997534D01*
X153485748Y-112053215D01*
X153495189Y-112057618D01*
X153547628Y-112103790D01*
X153566780Y-112170984D01*
X153546564Y-112237865D01*
X153495189Y-112282382D01*
X153366340Y-112342465D01*
X153366338Y-112342466D01*
X153185377Y-112469175D01*
X153029175Y-112625377D01*
X152902466Y-112806338D01*
X152902465Y-112806340D01*
X152809107Y-113006548D01*
X152809104Y-113006554D01*
X152751930Y-113219929D01*
X152751929Y-113219937D01*
X152732677Y-113439997D01*
X152732677Y-113440002D01*
X152751929Y-113660062D01*
X152751930Y-113660070D01*
X152809104Y-113873445D01*
X152809105Y-113873447D01*
X152809106Y-113873450D01*
X152902466Y-114073662D01*
X152902468Y-114073666D01*
X153029170Y-114254615D01*
X153029175Y-114254621D01*
X153185378Y-114410824D01*
X153185384Y-114410829D01*
X153366333Y-114537531D01*
X153366335Y-114537532D01*
X153366338Y-114537534D01*
X153446303Y-114574822D01*
X153495189Y-114597618D01*
X153547628Y-114643790D01*
X153566780Y-114710984D01*
X153546564Y-114777865D01*
X153495189Y-114822382D01*
X153366340Y-114882465D01*
X153366338Y-114882466D01*
X153185377Y-115009175D01*
X153029175Y-115165377D01*
X152902466Y-115346338D01*
X152902465Y-115346340D01*
X152809107Y-115546548D01*
X152809104Y-115546554D01*
X152751930Y-115759929D01*
X152751929Y-115759937D01*
X152732677Y-115979997D01*
X152732677Y-115980002D01*
X152751929Y-116200062D01*
X152751930Y-116200070D01*
X152809104Y-116413445D01*
X152809105Y-116413447D01*
X152809106Y-116413450D01*
X152860656Y-116524000D01*
X152902466Y-116613662D01*
X152902468Y-116613666D01*
X153029170Y-116794615D01*
X153029175Y-116794621D01*
X153185378Y-116950824D01*
X153185384Y-116950829D01*
X153366333Y-117077531D01*
X153366335Y-117077532D01*
X153366338Y-117077534D01*
X153414517Y-117100000D01*
X153495189Y-117137618D01*
X153547628Y-117183790D01*
X153566780Y-117250984D01*
X153546564Y-117317865D01*
X153495189Y-117362382D01*
X153366340Y-117422465D01*
X153366338Y-117422466D01*
X153185377Y-117549175D01*
X153029175Y-117705377D01*
X152902466Y-117886338D01*
X152902465Y-117886340D01*
X152809107Y-118086548D01*
X152809104Y-118086554D01*
X152751930Y-118299929D01*
X152751929Y-118299937D01*
X152732677Y-118519997D01*
X152732677Y-118520002D01*
X152751929Y-118740062D01*
X152751930Y-118740070D01*
X152809104Y-118953445D01*
X152809105Y-118953447D01*
X152809106Y-118953450D01*
X152869427Y-119082809D01*
X152902466Y-119153662D01*
X152902468Y-119153666D01*
X153029170Y-119334615D01*
X153029175Y-119334621D01*
X153185378Y-119490824D01*
X153185384Y-119490829D01*
X153366333Y-119617531D01*
X153366335Y-119617532D01*
X153366338Y-119617534D01*
X153481604Y-119671283D01*
X153495189Y-119677618D01*
X153547628Y-119723790D01*
X153566780Y-119790984D01*
X153546564Y-119857865D01*
X153495189Y-119902382D01*
X153366340Y-119962465D01*
X153366338Y-119962466D01*
X153185377Y-120089175D01*
X153029175Y-120245377D01*
X152902466Y-120426338D01*
X152902465Y-120426340D01*
X152809107Y-120626548D01*
X152809104Y-120626554D01*
X152751930Y-120839929D01*
X152751929Y-120839937D01*
X152732677Y-121059997D01*
X152732677Y-121060002D01*
X152751929Y-121280062D01*
X152751930Y-121280070D01*
X152809104Y-121493445D01*
X152809105Y-121493447D01*
X152809106Y-121493450D01*
X152852099Y-121585649D01*
X152902466Y-121693662D01*
X152902468Y-121693666D01*
X153029170Y-121874615D01*
X153029175Y-121874621D01*
X153185378Y-122030824D01*
X153185384Y-122030829D01*
X153366333Y-122157531D01*
X153366335Y-122157532D01*
X153366338Y-122157534D01*
X153420421Y-122182753D01*
X153495189Y-122217618D01*
X153547628Y-122263790D01*
X153566780Y-122330984D01*
X153546564Y-122397865D01*
X153495189Y-122442382D01*
X153366340Y-122502465D01*
X153366338Y-122502466D01*
X153185377Y-122629175D01*
X153029175Y-122785377D01*
X152902466Y-122966338D01*
X152902465Y-122966340D01*
X152809107Y-123166548D01*
X152809104Y-123166554D01*
X152751930Y-123379929D01*
X152751929Y-123379937D01*
X152732677Y-123599997D01*
X152732677Y-123600002D01*
X152751929Y-123820062D01*
X152751930Y-123820070D01*
X152809104Y-124033445D01*
X152809105Y-124033447D01*
X152809106Y-124033450D01*
X152819333Y-124055381D01*
X152902466Y-124233662D01*
X152902468Y-124233666D01*
X153029170Y-124414615D01*
X153029175Y-124414621D01*
X153185378Y-124570824D01*
X153185384Y-124570829D01*
X153366333Y-124697531D01*
X153366335Y-124697532D01*
X153366338Y-124697534D01*
X153485748Y-124753215D01*
X153495189Y-124757618D01*
X153547628Y-124803790D01*
X153566780Y-124870984D01*
X153546564Y-124937865D01*
X153495189Y-124982382D01*
X153366340Y-125042465D01*
X153366338Y-125042466D01*
X153185377Y-125169175D01*
X153029175Y-125325377D01*
X152902466Y-125506338D01*
X152902465Y-125506340D01*
X152809107Y-125706548D01*
X152809104Y-125706554D01*
X152751930Y-125919929D01*
X152751929Y-125919937D01*
X152732677Y-126139997D01*
X152732677Y-126140002D01*
X152751929Y-126360062D01*
X152751930Y-126360070D01*
X152809104Y-126573445D01*
X152809105Y-126573447D01*
X152809106Y-126573450D01*
X152902466Y-126773662D01*
X152902468Y-126773666D01*
X153029170Y-126954615D01*
X153029175Y-126954621D01*
X153185378Y-127110824D01*
X153185384Y-127110829D01*
X153366333Y-127237531D01*
X153366335Y-127237532D01*
X153366338Y-127237534D01*
X153467731Y-127284814D01*
X153495189Y-127297618D01*
X153547628Y-127343790D01*
X153566780Y-127410984D01*
X153546564Y-127477865D01*
X153495189Y-127522382D01*
X153366340Y-127582465D01*
X153366338Y-127582466D01*
X153185377Y-127709175D01*
X153029175Y-127865377D01*
X152902466Y-128046338D01*
X152902465Y-128046340D01*
X152809107Y-128246548D01*
X152809104Y-128246554D01*
X152751930Y-128459929D01*
X152751929Y-128459937D01*
X152732677Y-128679997D01*
X152732677Y-128680002D01*
X152751929Y-128900062D01*
X152751930Y-128900070D01*
X152809104Y-129113445D01*
X152809105Y-129113447D01*
X152809106Y-129113450D01*
X152902466Y-129313662D01*
X152902468Y-129313666D01*
X153029170Y-129494615D01*
X153029175Y-129494621D01*
X153185378Y-129650824D01*
X153185384Y-129650829D01*
X153366333Y-129777531D01*
X153366335Y-129777532D01*
X153366338Y-129777534D01*
X153485748Y-129833215D01*
X153495189Y-129837618D01*
X153547628Y-129883790D01*
X153566780Y-129950984D01*
X153546564Y-130017865D01*
X153495189Y-130062382D01*
X153366340Y-130122465D01*
X153366338Y-130122466D01*
X153185377Y-130249175D01*
X153029175Y-130405377D01*
X152902466Y-130586338D01*
X152902465Y-130586340D01*
X152809107Y-130786548D01*
X152809104Y-130786554D01*
X152751930Y-130999929D01*
X152751929Y-130999937D01*
X152732677Y-131219997D01*
X152732677Y-131220002D01*
X152751929Y-131440062D01*
X152751930Y-131440070D01*
X152809104Y-131653445D01*
X152809105Y-131653447D01*
X152809106Y-131653450D01*
X152902466Y-131853662D01*
X152902468Y-131853666D01*
X153029170Y-132034615D01*
X153029175Y-132034621D01*
X153185378Y-132190824D01*
X153185384Y-132190829D01*
X153366333Y-132317531D01*
X153366335Y-132317532D01*
X153366338Y-132317534D01*
X153485748Y-132373215D01*
X153495189Y-132377618D01*
X153547628Y-132423790D01*
X153566780Y-132490984D01*
X153546564Y-132557865D01*
X153495189Y-132602382D01*
X153366340Y-132662465D01*
X153366338Y-132662466D01*
X153185377Y-132789175D01*
X153029175Y-132945377D01*
X152902466Y-133126338D01*
X152902465Y-133126340D01*
X152809107Y-133326548D01*
X152809104Y-133326554D01*
X152751930Y-133539929D01*
X152751929Y-133539937D01*
X152732677Y-133759997D01*
X152732677Y-133760002D01*
X152751929Y-133980062D01*
X152751930Y-133980070D01*
X152809104Y-134193445D01*
X152809105Y-134193447D01*
X152809106Y-134193450D01*
X152882105Y-134349998D01*
X152902466Y-134393662D01*
X152902468Y-134393666D01*
X153029170Y-134574615D01*
X153029175Y-134574621D01*
X153185378Y-134730824D01*
X153185384Y-134730829D01*
X153366333Y-134857531D01*
X153366335Y-134857532D01*
X153366338Y-134857534D01*
X153461971Y-134902128D01*
X153495189Y-134917618D01*
X153547628Y-134963790D01*
X153566780Y-135030984D01*
X153546564Y-135097865D01*
X153495189Y-135142382D01*
X153366340Y-135202465D01*
X153366338Y-135202466D01*
X153185377Y-135329175D01*
X153029175Y-135485377D01*
X152902466Y-135666338D01*
X152902465Y-135666340D01*
X152809107Y-135866548D01*
X152809104Y-135866554D01*
X152751930Y-136079929D01*
X152751929Y-136079937D01*
X152732677Y-136299997D01*
X152732677Y-136300002D01*
X152751929Y-136520062D01*
X152751930Y-136520070D01*
X152809104Y-136733445D01*
X152809105Y-136733447D01*
X152809106Y-136733450D01*
X152873334Y-136871188D01*
X152902466Y-136933662D01*
X152902468Y-136933666D01*
X153029170Y-137114615D01*
X153029175Y-137114621D01*
X153185378Y-137270824D01*
X153185384Y-137270829D01*
X153366333Y-137397531D01*
X153366335Y-137397532D01*
X153366338Y-137397534D01*
X153485748Y-137453215D01*
X153495189Y-137457618D01*
X153547628Y-137503790D01*
X153566780Y-137570984D01*
X153546564Y-137637865D01*
X153495189Y-137682382D01*
X153366340Y-137742465D01*
X153366338Y-137742466D01*
X153185377Y-137869175D01*
X153029175Y-138025377D01*
X152902466Y-138206338D01*
X152902465Y-138206340D01*
X152809107Y-138406548D01*
X152809104Y-138406554D01*
X152751930Y-138619929D01*
X152751929Y-138619937D01*
X152732677Y-138839997D01*
X152732677Y-138840002D01*
X152751929Y-139060062D01*
X152751930Y-139060070D01*
X152809104Y-139273445D01*
X152809105Y-139273447D01*
X152809106Y-139273450D01*
X152902466Y-139473662D01*
X152902468Y-139473666D01*
X153029170Y-139654615D01*
X153029175Y-139654621D01*
X153185378Y-139810824D01*
X153185384Y-139810829D01*
X153366333Y-139937531D01*
X153366335Y-139937532D01*
X153366338Y-139937534D01*
X153566550Y-140030894D01*
X153779932Y-140088070D01*
X153937123Y-140101822D01*
X153999998Y-140107323D01*
X154000000Y-140107323D01*
X154000002Y-140107323D01*
X154055017Y-140102509D01*
X154220068Y-140088070D01*
X154433450Y-140030894D01*
X154633662Y-139937534D01*
X154814620Y-139810826D01*
X154970826Y-139654620D01*
X155097534Y-139473662D01*
X155190894Y-139273450D01*
X155248070Y-139060068D01*
X155267323Y-138840000D01*
X155248070Y-138619932D01*
X155190894Y-138406550D01*
X155097534Y-138206339D01*
X154970826Y-138025380D01*
X154814620Y-137869174D01*
X154814616Y-137869171D01*
X154814615Y-137869170D01*
X154633666Y-137742468D01*
X154633658Y-137742464D01*
X154504811Y-137682382D01*
X154452371Y-137636210D01*
X154433219Y-137569017D01*
X154453435Y-137502135D01*
X154504811Y-137457618D01*
X154510802Y-137454824D01*
X154633662Y-137397534D01*
X154814620Y-137270826D01*
X154970826Y-137114620D01*
X155097534Y-136933662D01*
X155190894Y-136733450D01*
X155248070Y-136520068D01*
X155267323Y-136300000D01*
X155265994Y-136284814D01*
X155257937Y-136192712D01*
X155248070Y-136079932D01*
X155190894Y-135866550D01*
X155097534Y-135666339D01*
X154970826Y-135485380D01*
X154814620Y-135329174D01*
X154814616Y-135329171D01*
X154814615Y-135329170D01*
X154633666Y-135202468D01*
X154633658Y-135202464D01*
X154504811Y-135142382D01*
X154452371Y-135096210D01*
X154433219Y-135029017D01*
X154453435Y-134962135D01*
X154504811Y-134917618D01*
X154538029Y-134902128D01*
X154633662Y-134857534D01*
X154814620Y-134730826D01*
X154970826Y-134574620D01*
X155097534Y-134393662D01*
X155190894Y-134193450D01*
X155248070Y-133980068D01*
X155267323Y-133760000D01*
X155248070Y-133539932D01*
X155190894Y-133326550D01*
X155097534Y-133126339D01*
X154970826Y-132945380D01*
X154814620Y-132789174D01*
X154814616Y-132789171D01*
X154814615Y-132789170D01*
X154633666Y-132662468D01*
X154633658Y-132662464D01*
X154504811Y-132602382D01*
X154452371Y-132556210D01*
X154433219Y-132489017D01*
X154453435Y-132422135D01*
X154486236Y-132393713D01*
X166999500Y-132393713D01*
X166999500Y-132606286D01*
X167028466Y-132789174D01*
X167032754Y-132816243D01*
X167074713Y-132945380D01*
X167098444Y-133018414D01*
X167194951Y-133207820D01*
X167319890Y-133379786D01*
X167458705Y-133518601D01*
X167492190Y-133579924D01*
X167487206Y-133649616D01*
X167445334Y-133705549D01*
X167436121Y-133711821D01*
X167281342Y-133807289D01*
X167157289Y-133931342D01*
X167065187Y-134080663D01*
X167065186Y-134080666D01*
X167010001Y-134247203D01*
X167010001Y-134247204D01*
X167010000Y-134247204D01*
X166999500Y-134349983D01*
X166999500Y-135650001D01*
X166999501Y-135650018D01*
X167010000Y-135752796D01*
X167010001Y-135752799D01*
X167047694Y-135866548D01*
X167065186Y-135919334D01*
X167157288Y-136068656D01*
X167281344Y-136192712D01*
X167430666Y-136284814D01*
X167597203Y-136339999D01*
X167699991Y-136350500D01*
X169300008Y-136350499D01*
X169402797Y-136339999D01*
X169569334Y-136284814D01*
X169718656Y-136192712D01*
X169842712Y-136068656D01*
X169934814Y-135919334D01*
X169989999Y-135752797D01*
X170000500Y-135650009D01*
X170000499Y-134349992D01*
X169989999Y-134247203D01*
X169934814Y-134080666D01*
X169842712Y-133931344D01*
X169718656Y-133807288D01*
X169569334Y-133715186D01*
X169569333Y-133715185D01*
X169563878Y-133711821D01*
X169517154Y-133659873D01*
X169505931Y-133590910D01*
X169533775Y-133526828D01*
X169541272Y-133518623D01*
X169680104Y-133379792D01*
X169805051Y-133207816D01*
X169901557Y-133018412D01*
X169967246Y-132816243D01*
X170000500Y-132606287D01*
X170000500Y-132393713D01*
X169967246Y-132183757D01*
X169901557Y-131981588D01*
X169805051Y-131792184D01*
X169805049Y-131792181D01*
X169805048Y-131792179D01*
X169680109Y-131620213D01*
X169529786Y-131469890D01*
X169357820Y-131344951D01*
X169168414Y-131248444D01*
X169168413Y-131248443D01*
X169168412Y-131248443D01*
X168966243Y-131182754D01*
X168966241Y-131182753D01*
X168966240Y-131182753D01*
X168804957Y-131157208D01*
X168756287Y-131149500D01*
X168243713Y-131149500D01*
X168195042Y-131157208D01*
X168033760Y-131182753D01*
X167831585Y-131248444D01*
X167642179Y-131344951D01*
X167470213Y-131469890D01*
X167319890Y-131620213D01*
X167194951Y-131792179D01*
X167098444Y-131981585D01*
X167032753Y-132183760D01*
X166999500Y-132393713D01*
X154486236Y-132393713D01*
X154504811Y-132377618D01*
X154510802Y-132374824D01*
X154633662Y-132317534D01*
X154814620Y-132190826D01*
X154970826Y-132034620D01*
X155097534Y-131853662D01*
X155190894Y-131653450D01*
X155248070Y-131440068D01*
X155267323Y-131220000D01*
X155264064Y-131182754D01*
X155248070Y-130999937D01*
X155248070Y-130999933D01*
X155248070Y-130999932D01*
X155190894Y-130786550D01*
X155097534Y-130586339D01*
X154970826Y-130405380D01*
X154814620Y-130249174D01*
X154814616Y-130249171D01*
X154814615Y-130249170D01*
X154633666Y-130122468D01*
X154633658Y-130122464D01*
X154504811Y-130062382D01*
X154452371Y-130016210D01*
X154433219Y-129949017D01*
X154453435Y-129882135D01*
X154504811Y-129837618D01*
X154510802Y-129834824D01*
X154633662Y-129777534D01*
X154814620Y-129650826D01*
X154970826Y-129494620D01*
X155097534Y-129313662D01*
X155190894Y-129113450D01*
X155248070Y-128900068D01*
X155264774Y-128709139D01*
X155267323Y-128680002D01*
X155267323Y-128679997D01*
X155253539Y-128522448D01*
X155248070Y-128459932D01*
X155190894Y-128246550D01*
X155097534Y-128046339D01*
X154970826Y-127865380D01*
X154814620Y-127709174D01*
X154814616Y-127709171D01*
X154814615Y-127709170D01*
X154633666Y-127582468D01*
X154633658Y-127582464D01*
X154504811Y-127522382D01*
X154452371Y-127476210D01*
X154433219Y-127409017D01*
X154453435Y-127342135D01*
X154504811Y-127297618D01*
X154532269Y-127284814D01*
X154633662Y-127237534D01*
X154814620Y-127110826D01*
X154970826Y-126954620D01*
X155097534Y-126773662D01*
X155190894Y-126573450D01*
X155248070Y-126360068D01*
X155262509Y-126195017D01*
X155267323Y-126140002D01*
X155267323Y-126139997D01*
X155256312Y-126014141D01*
X155248070Y-125919932D01*
X155190894Y-125706550D01*
X155097534Y-125506339D01*
X154988064Y-125349998D01*
X154970827Y-125325381D01*
X154948891Y-125303445D01*
X154814620Y-125169174D01*
X154814616Y-125169171D01*
X154814615Y-125169170D01*
X154633666Y-125042468D01*
X154633658Y-125042464D01*
X154504811Y-124982382D01*
X154452371Y-124936210D01*
X154433219Y-124869017D01*
X154453435Y-124802135D01*
X154504811Y-124757618D01*
X154510802Y-124754824D01*
X154633662Y-124697534D01*
X154814620Y-124570826D01*
X154970826Y-124414620D01*
X155097534Y-124233662D01*
X155190894Y-124033450D01*
X155248070Y-123820068D01*
X155263060Y-123648732D01*
X155267323Y-123600002D01*
X155267323Y-123599997D01*
X155257491Y-123487618D01*
X155248070Y-123379932D01*
X155190894Y-123166550D01*
X155097534Y-122966339D01*
X154970826Y-122785380D01*
X154814620Y-122629174D01*
X154814616Y-122629171D01*
X154814615Y-122629170D01*
X154633666Y-122502468D01*
X154633658Y-122502464D01*
X154504811Y-122442382D01*
X154452371Y-122396210D01*
X154433219Y-122329017D01*
X154453435Y-122262135D01*
X154504811Y-122217618D01*
X154510802Y-122214824D01*
X154633662Y-122157534D01*
X154814620Y-122030826D01*
X154970826Y-121874620D01*
X155097534Y-121693662D01*
X155190894Y-121493450D01*
X155248070Y-121280068D01*
X155264774Y-121089139D01*
X155267323Y-121060002D01*
X155267323Y-121059997D01*
X155253564Y-120902732D01*
X155248070Y-120839932D01*
X155190894Y-120626550D01*
X155097534Y-120426339D01*
X154970826Y-120245380D01*
X154814620Y-120089174D01*
X154814616Y-120089171D01*
X154814615Y-120089170D01*
X154633666Y-119962468D01*
X154633658Y-119962464D01*
X154504811Y-119902382D01*
X154452371Y-119856210D01*
X154433219Y-119789017D01*
X154453435Y-119722135D01*
X154504811Y-119677618D01*
X154518396Y-119671283D01*
X154633662Y-119617534D01*
X154814620Y-119490826D01*
X154970826Y-119334620D01*
X155097534Y-119153662D01*
X155190894Y-118953450D01*
X155248070Y-118740068D01*
X155262509Y-118575017D01*
X155267323Y-118520002D01*
X155267323Y-118519997D01*
X155252494Y-118350498D01*
X155248070Y-118299932D01*
X155190894Y-118086550D01*
X155097534Y-117886339D01*
X154970826Y-117705380D01*
X154814620Y-117549174D01*
X154814616Y-117549171D01*
X154814615Y-117549170D01*
X154633666Y-117422468D01*
X154633658Y-117422464D01*
X154504811Y-117362382D01*
X154452371Y-117316210D01*
X154433498Y-117249997D01*
X156542677Y-117249997D01*
X156542677Y-117250002D01*
X156561929Y-117470062D01*
X156561930Y-117470070D01*
X156619104Y-117683445D01*
X156619105Y-117683447D01*
X156619106Y-117683450D01*
X156687708Y-117830568D01*
X156712466Y-117883662D01*
X156712468Y-117883666D01*
X156839170Y-118064615D01*
X156839175Y-118064621D01*
X156995378Y-118220824D01*
X156995384Y-118220829D01*
X157176333Y-118347531D01*
X157176335Y-118347532D01*
X157176338Y-118347534D01*
X157255713Y-118384547D01*
X157305189Y-118407618D01*
X157357628Y-118453790D01*
X157376780Y-118520984D01*
X157356564Y-118587865D01*
X157305189Y-118632382D01*
X157176340Y-118692465D01*
X157176338Y-118692466D01*
X156995377Y-118819175D01*
X156839175Y-118975377D01*
X156712466Y-119156338D01*
X156712465Y-119156340D01*
X156619107Y-119356548D01*
X156619104Y-119356554D01*
X156561930Y-119569929D01*
X156561929Y-119569937D01*
X156542677Y-119789997D01*
X156542677Y-119790002D01*
X156561929Y-120010062D01*
X156561930Y-120010070D01*
X156619104Y-120223445D01*
X156619105Y-120223447D01*
X156619106Y-120223450D01*
X156631487Y-120250001D01*
X156712466Y-120423662D01*
X156712468Y-120423666D01*
X156839170Y-120604615D01*
X156839175Y-120604621D01*
X156995378Y-120760824D01*
X156995384Y-120760829D01*
X157176333Y-120887531D01*
X157176335Y-120887532D01*
X157176338Y-120887534D01*
X157208935Y-120902734D01*
X157305189Y-120947618D01*
X157357628Y-120993790D01*
X157376780Y-121060984D01*
X157356564Y-121127865D01*
X157305189Y-121172382D01*
X157176340Y-121232465D01*
X157176338Y-121232466D01*
X156995377Y-121359175D01*
X156839175Y-121515377D01*
X156712466Y-121696338D01*
X156712465Y-121696340D01*
X156619107Y-121896548D01*
X156619104Y-121896554D01*
X156561930Y-122109929D01*
X156561929Y-122109937D01*
X156542677Y-122329997D01*
X156542677Y-122330002D01*
X156561929Y-122550062D01*
X156561930Y-122550070D01*
X156619104Y-122763445D01*
X156619105Y-122763447D01*
X156619106Y-122763450D01*
X156632505Y-122792184D01*
X156712466Y-122963662D01*
X156712468Y-122963666D01*
X156839170Y-123144615D01*
X156839175Y-123144621D01*
X156995378Y-123300824D01*
X156995384Y-123300829D01*
X157176333Y-123427531D01*
X157176335Y-123427532D01*
X157176338Y-123427534D01*
X157295748Y-123483215D01*
X157305189Y-123487618D01*
X157357628Y-123533790D01*
X157376780Y-123600984D01*
X157356564Y-123667865D01*
X157305189Y-123712382D01*
X157176340Y-123772465D01*
X157176338Y-123772466D01*
X156995377Y-123899175D01*
X156839175Y-124055377D01*
X156712466Y-124236338D01*
X156712465Y-124236340D01*
X156619107Y-124436548D01*
X156619104Y-124436554D01*
X156561930Y-124649929D01*
X156561929Y-124649937D01*
X156542677Y-124869997D01*
X156542677Y-124870002D01*
X156561929Y-125090062D01*
X156561930Y-125090070D01*
X156619104Y-125303445D01*
X156619105Y-125303447D01*
X156619106Y-125303450D01*
X156640809Y-125349992D01*
X156712466Y-125503662D01*
X156712468Y-125503666D01*
X156839170Y-125684615D01*
X156839175Y-125684621D01*
X156995378Y-125840824D01*
X156995384Y-125840829D01*
X157176333Y-125967531D01*
X157176335Y-125967532D01*
X157176338Y-125967534D01*
X157276290Y-126014142D01*
X157305189Y-126027618D01*
X157357628Y-126073790D01*
X157376780Y-126140984D01*
X157356564Y-126207865D01*
X157305189Y-126252382D01*
X157176340Y-126312465D01*
X157176338Y-126312466D01*
X156995377Y-126439175D01*
X156839175Y-126595377D01*
X156712466Y-126776338D01*
X156712465Y-126776340D01*
X156619107Y-126976548D01*
X156619104Y-126976554D01*
X156561930Y-127189929D01*
X156561929Y-127189937D01*
X156542677Y-127409997D01*
X156542677Y-127410002D01*
X156561929Y-127630062D01*
X156561930Y-127630070D01*
X156619104Y-127843445D01*
X156619105Y-127843447D01*
X156619106Y-127843450D01*
X156700081Y-128017102D01*
X156712466Y-128043662D01*
X156712468Y-128043666D01*
X156839170Y-128224615D01*
X156839175Y-128224621D01*
X156995378Y-128380824D01*
X156995384Y-128380829D01*
X157176333Y-128507531D01*
X157176335Y-128507532D01*
X157176338Y-128507534D01*
X157376550Y-128600894D01*
X157589932Y-128658070D01*
X157747123Y-128671822D01*
X157809998Y-128677323D01*
X157810000Y-128677323D01*
X157810002Y-128677323D01*
X157865017Y-128672509D01*
X158030068Y-128658070D01*
X158243450Y-128600894D01*
X158443662Y-128507534D01*
X158624620Y-128380826D01*
X158780826Y-128224620D01*
X158907534Y-128043662D01*
X158967618Y-127914811D01*
X159013790Y-127862371D01*
X159080983Y-127843219D01*
X159147865Y-127863435D01*
X159192382Y-127914811D01*
X159252464Y-128043658D01*
X159252468Y-128043666D01*
X159379170Y-128224615D01*
X159379175Y-128224621D01*
X159535378Y-128380824D01*
X159535384Y-128380829D01*
X159716333Y-128507531D01*
X159716335Y-128507532D01*
X159716338Y-128507534D01*
X159916550Y-128600894D01*
X160129932Y-128658070D01*
X160287123Y-128671822D01*
X160349998Y-128677323D01*
X160350000Y-128677323D01*
X160350002Y-128677323D01*
X160405017Y-128672509D01*
X160570068Y-128658070D01*
X160783450Y-128600894D01*
X160983662Y-128507534D01*
X161164620Y-128380826D01*
X161320826Y-128224620D01*
X161447534Y-128043662D01*
X161540894Y-127843450D01*
X161598070Y-127630068D01*
X161612509Y-127465017D01*
X161617323Y-127410002D01*
X161617323Y-127409997D01*
X161604825Y-127267147D01*
X161598070Y-127189932D01*
X161540894Y-126976550D01*
X161447534Y-126776339D01*
X161320826Y-126595380D01*
X161164620Y-126439174D01*
X161164616Y-126439171D01*
X161164615Y-126439170D01*
X160983666Y-126312468D01*
X160983662Y-126312466D01*
X160983658Y-126312464D01*
X160783450Y-126219106D01*
X160783447Y-126219105D01*
X160783445Y-126219104D01*
X160570070Y-126161930D01*
X160570062Y-126161929D01*
X160350002Y-126142677D01*
X160349998Y-126142677D01*
X160129937Y-126161929D01*
X160129929Y-126161930D01*
X159916554Y-126219104D01*
X159916548Y-126219107D01*
X159716340Y-126312465D01*
X159716338Y-126312466D01*
X159535377Y-126439175D01*
X159379175Y-126595377D01*
X159252466Y-126776338D01*
X159252465Y-126776340D01*
X159192382Y-126905189D01*
X159146209Y-126957628D01*
X159079016Y-126976780D01*
X159012135Y-126956564D01*
X158967618Y-126905189D01*
X158907534Y-126776340D01*
X158907533Y-126776338D01*
X158905659Y-126773662D01*
X158780826Y-126595380D01*
X158624620Y-126439174D01*
X158624616Y-126439171D01*
X158624615Y-126439170D01*
X158443666Y-126312468D01*
X158443658Y-126312464D01*
X158314811Y-126252382D01*
X158262371Y-126206210D01*
X158243219Y-126139017D01*
X158263435Y-126072135D01*
X158314811Y-126027618D01*
X158343710Y-126014142D01*
X158443662Y-125967534D01*
X158624620Y-125840826D01*
X158780826Y-125684620D01*
X158907534Y-125503662D01*
X159000894Y-125303450D01*
X159058070Y-125090068D01*
X159072509Y-124925017D01*
X159077323Y-124870002D01*
X159077323Y-124869997D01*
X159063484Y-124711821D01*
X159058070Y-124649932D01*
X159000894Y-124436550D01*
X158907534Y-124236339D01*
X158780826Y-124055380D01*
X158624620Y-123899174D01*
X158624616Y-123899171D01*
X158624615Y-123899170D01*
X158443666Y-123772468D01*
X158443658Y-123772464D01*
X158314811Y-123712382D01*
X158262371Y-123666210D01*
X158243219Y-123599017D01*
X158263435Y-123532135D01*
X158314811Y-123487618D01*
X158320802Y-123484824D01*
X158443662Y-123427534D01*
X158624620Y-123300826D01*
X158780826Y-123144620D01*
X158907534Y-122963662D01*
X158967618Y-122834811D01*
X159013790Y-122782371D01*
X159080983Y-122763219D01*
X159147865Y-122783435D01*
X159192382Y-122834811D01*
X159252464Y-122963658D01*
X159252468Y-122963666D01*
X159379170Y-123144615D01*
X159379175Y-123144621D01*
X159535378Y-123300824D01*
X159535384Y-123300829D01*
X159716333Y-123427531D01*
X159716335Y-123427532D01*
X159716338Y-123427534D01*
X159916550Y-123520894D01*
X160129932Y-123578070D01*
X160287123Y-123591822D01*
X160349998Y-123597323D01*
X160350000Y-123597323D01*
X160350002Y-123597323D01*
X160405017Y-123592509D01*
X160570068Y-123578070D01*
X160783450Y-123520894D01*
X160983662Y-123427534D01*
X161031963Y-123393713D01*
X166999500Y-123393713D01*
X166999500Y-123606286D01*
X167025820Y-123772468D01*
X167032754Y-123816243D01*
X167059700Y-123899175D01*
X167098444Y-124018414D01*
X167194951Y-124207820D01*
X167319890Y-124379786D01*
X167458705Y-124518601D01*
X167492190Y-124579924D01*
X167487206Y-124649616D01*
X167445334Y-124705549D01*
X167436121Y-124711821D01*
X167281342Y-124807289D01*
X167157289Y-124931342D01*
X167065187Y-125080663D01*
X167065186Y-125080666D01*
X167010001Y-125247203D01*
X167010001Y-125247204D01*
X167010000Y-125247204D01*
X166999500Y-125349983D01*
X166999500Y-126650001D01*
X166999501Y-126650018D01*
X167010000Y-126752796D01*
X167010001Y-126752799D01*
X167065185Y-126919331D01*
X167065187Y-126919336D01*
X167088806Y-126957628D01*
X167157288Y-127068656D01*
X167281344Y-127192712D01*
X167430666Y-127284814D01*
X167597203Y-127339999D01*
X167699991Y-127350500D01*
X169300008Y-127350499D01*
X169402797Y-127339999D01*
X169569334Y-127284814D01*
X169718656Y-127192712D01*
X169842712Y-127068656D01*
X169934814Y-126919334D01*
X169989999Y-126752797D01*
X170000500Y-126650009D01*
X170000499Y-125349992D01*
X169989999Y-125247203D01*
X169934814Y-125080666D01*
X169842712Y-124931344D01*
X169718656Y-124807288D01*
X169569334Y-124715186D01*
X169569333Y-124715185D01*
X169563878Y-124711821D01*
X169517154Y-124659873D01*
X169505931Y-124590910D01*
X169533775Y-124526828D01*
X169541272Y-124518623D01*
X169680104Y-124379792D01*
X169805051Y-124207816D01*
X169901557Y-124018412D01*
X169967246Y-123816243D01*
X170000500Y-123606287D01*
X170000500Y-123393713D01*
X169967246Y-123183757D01*
X169901557Y-122981588D01*
X169805051Y-122792184D01*
X169805049Y-122792181D01*
X169805048Y-122792179D01*
X169680109Y-122620213D01*
X169529786Y-122469890D01*
X169357820Y-122344951D01*
X169168414Y-122248444D01*
X169168413Y-122248443D01*
X169168412Y-122248443D01*
X168966243Y-122182754D01*
X168966241Y-122182753D01*
X168966240Y-122182753D01*
X168804957Y-122157208D01*
X168756287Y-122149500D01*
X168243713Y-122149500D01*
X168195042Y-122157208D01*
X168033760Y-122182753D01*
X167831585Y-122248444D01*
X167642179Y-122344951D01*
X167470213Y-122469890D01*
X167319890Y-122620213D01*
X167194951Y-122792179D01*
X167098444Y-122981585D01*
X167032753Y-123183760D01*
X166999500Y-123393713D01*
X161031963Y-123393713D01*
X161164620Y-123300826D01*
X161320826Y-123144620D01*
X161447534Y-122963662D01*
X161540894Y-122763450D01*
X161598070Y-122550068D01*
X161612509Y-122385017D01*
X161617323Y-122330002D01*
X161617323Y-122329997D01*
X161604441Y-122182753D01*
X161598070Y-122109932D01*
X161540894Y-121896550D01*
X161447534Y-121696339D01*
X161320826Y-121515380D01*
X161164620Y-121359174D01*
X161164616Y-121359171D01*
X161164615Y-121359170D01*
X160983666Y-121232468D01*
X160983658Y-121232464D01*
X160854811Y-121172382D01*
X160802371Y-121126210D01*
X160783219Y-121059017D01*
X160803435Y-120992135D01*
X160854811Y-120947618D01*
X160860802Y-120944824D01*
X160983662Y-120887534D01*
X161164620Y-120760826D01*
X161320826Y-120604620D01*
X161447534Y-120423662D01*
X161540894Y-120223450D01*
X161598070Y-120010068D01*
X161613371Y-119835177D01*
X161617323Y-119790002D01*
X161617323Y-119789997D01*
X161610103Y-119707474D01*
X161598070Y-119569932D01*
X161540894Y-119356550D01*
X161447534Y-119156339D01*
X161354354Y-119023263D01*
X161320827Y-118975381D01*
X161243523Y-118898077D01*
X161164620Y-118819174D01*
X161164616Y-118819171D01*
X161164615Y-118819170D01*
X160983666Y-118692468D01*
X160983658Y-118692464D01*
X160854811Y-118632382D01*
X160802371Y-118586210D01*
X160783219Y-118519017D01*
X160803435Y-118452135D01*
X160854811Y-118407618D01*
X160860802Y-118404824D01*
X160983662Y-118347534D01*
X161164620Y-118220826D01*
X161320826Y-118064620D01*
X161447534Y-117883662D01*
X161540894Y-117683450D01*
X161598070Y-117470068D01*
X161615249Y-117273712D01*
X161617323Y-117250002D01*
X161617323Y-117249997D01*
X161604200Y-117100000D01*
X161598070Y-117029932D01*
X161540894Y-116816550D01*
X161447534Y-116616339D01*
X161320826Y-116435380D01*
X161164620Y-116279174D01*
X161164616Y-116279171D01*
X161164615Y-116279170D01*
X160983666Y-116152468D01*
X160983662Y-116152466D01*
X160983660Y-116152465D01*
X160783450Y-116059106D01*
X160783447Y-116059105D01*
X160783445Y-116059104D01*
X160570070Y-116001930D01*
X160570062Y-116001929D01*
X160350002Y-115982677D01*
X160349998Y-115982677D01*
X160129937Y-116001929D01*
X160129929Y-116001930D01*
X159916554Y-116059104D01*
X159916548Y-116059107D01*
X159716340Y-116152465D01*
X159716338Y-116152466D01*
X159535377Y-116279175D01*
X159379175Y-116435377D01*
X159252466Y-116616338D01*
X159252465Y-116616340D01*
X159192382Y-116745189D01*
X159146209Y-116797628D01*
X159079016Y-116816780D01*
X159012135Y-116796564D01*
X158967618Y-116745189D01*
X158946545Y-116699998D01*
X158907534Y-116616339D01*
X158780826Y-116435380D01*
X158624620Y-116279174D01*
X158624616Y-116279171D01*
X158624615Y-116279170D01*
X158443666Y-116152468D01*
X158443662Y-116152466D01*
X158443660Y-116152465D01*
X158243450Y-116059106D01*
X158243447Y-116059105D01*
X158243445Y-116059104D01*
X158030070Y-116001930D01*
X158030062Y-116001929D01*
X157810002Y-115982677D01*
X157809998Y-115982677D01*
X157589937Y-116001929D01*
X157589929Y-116001930D01*
X157376554Y-116059104D01*
X157376548Y-116059107D01*
X157176340Y-116152465D01*
X157176338Y-116152466D01*
X156995377Y-116279175D01*
X156839175Y-116435377D01*
X156712466Y-116616338D01*
X156712465Y-116616340D01*
X156619107Y-116816548D01*
X156619104Y-116816554D01*
X156561930Y-117029929D01*
X156561929Y-117029937D01*
X156542677Y-117249997D01*
X154433498Y-117249997D01*
X154433219Y-117249017D01*
X154453435Y-117182135D01*
X154504811Y-117137618D01*
X154553697Y-117114822D01*
X154633662Y-117077534D01*
X154814620Y-116950826D01*
X154970826Y-116794620D01*
X155097534Y-116613662D01*
X155190894Y-116413450D01*
X155248070Y-116200068D01*
X155262509Y-116035017D01*
X155267323Y-115980002D01*
X155267323Y-115979997D01*
X155256900Y-115860858D01*
X155248070Y-115759932D01*
X155190894Y-115546550D01*
X155097534Y-115346339D01*
X154970826Y-115165380D01*
X154814620Y-115009174D01*
X154814616Y-115009171D01*
X154814615Y-115009170D01*
X154633666Y-114882468D01*
X154633658Y-114882464D01*
X154504811Y-114822382D01*
X154452371Y-114776210D01*
X154433219Y-114709017D01*
X154453435Y-114642135D01*
X154504811Y-114597618D01*
X154553697Y-114574822D01*
X154633662Y-114537534D01*
X154814620Y-114410826D01*
X154831733Y-114393713D01*
X166974500Y-114393713D01*
X166974500Y-114606287D01*
X167007754Y-114816243D01*
X167070441Y-115009174D01*
X167073444Y-115018414D01*
X167169951Y-115207820D01*
X167294890Y-115379786D01*
X167433705Y-115518601D01*
X167467190Y-115579924D01*
X167462206Y-115649616D01*
X167420334Y-115705549D01*
X167411121Y-115711821D01*
X167256342Y-115807289D01*
X167132289Y-115931342D01*
X167040187Y-116080663D01*
X167040186Y-116080666D01*
X166985001Y-116247203D01*
X166985001Y-116247204D01*
X166985000Y-116247204D01*
X166974500Y-116349983D01*
X166974500Y-117650001D01*
X166974501Y-117650018D01*
X166985000Y-117752796D01*
X166985001Y-117752799D01*
X167040185Y-117919331D01*
X167040187Y-117919336D01*
X167061471Y-117953843D01*
X167132288Y-118068656D01*
X167256344Y-118192712D01*
X167405666Y-118284814D01*
X167572203Y-118339999D01*
X167674991Y-118350500D01*
X169275008Y-118350499D01*
X169377797Y-118339999D01*
X169544334Y-118284814D01*
X169693656Y-118192712D01*
X169817712Y-118068656D01*
X169909814Y-117919334D01*
X169964999Y-117752797D01*
X169975500Y-117650009D01*
X169975499Y-116349992D01*
X169964999Y-116247203D01*
X169909814Y-116080666D01*
X169817712Y-115931344D01*
X169693656Y-115807288D01*
X169544334Y-115715186D01*
X169544333Y-115715185D01*
X169538878Y-115711821D01*
X169492154Y-115659873D01*
X169480931Y-115590910D01*
X169508775Y-115526828D01*
X169516272Y-115518623D01*
X169655104Y-115379792D01*
X169667933Y-115362135D01*
X169780048Y-115207820D01*
X169780050Y-115207817D01*
X169780051Y-115207816D01*
X169876557Y-115018412D01*
X169942246Y-114816243D01*
X169975500Y-114606287D01*
X169975500Y-114393713D01*
X169942246Y-114183757D01*
X169876557Y-113981588D01*
X169780051Y-113792184D01*
X169780049Y-113792181D01*
X169780048Y-113792179D01*
X169655109Y-113620213D01*
X169504786Y-113469890D01*
X169332820Y-113344951D01*
X169143414Y-113248444D01*
X169143413Y-113248443D01*
X169143412Y-113248443D01*
X168941243Y-113182754D01*
X168941241Y-113182753D01*
X168941240Y-113182753D01*
X168779957Y-113157208D01*
X168731287Y-113149500D01*
X168218713Y-113149500D01*
X168170042Y-113157208D01*
X168008760Y-113182753D01*
X167806585Y-113248444D01*
X167617179Y-113344951D01*
X167445213Y-113469890D01*
X167294890Y-113620213D01*
X167169951Y-113792179D01*
X167073444Y-113981585D01*
X167007753Y-114183760D01*
X166996531Y-114254615D01*
X166974500Y-114393713D01*
X154831733Y-114393713D01*
X154970826Y-114254620D01*
X155097534Y-114073662D01*
X155190894Y-113873450D01*
X155248070Y-113660068D01*
X155265653Y-113459090D01*
X155267323Y-113440002D01*
X155267323Y-113439997D01*
X155256900Y-113320858D01*
X155248070Y-113219932D01*
X155190894Y-113006550D01*
X155097534Y-112806339D01*
X154970826Y-112625380D01*
X154814620Y-112469174D01*
X154814616Y-112469171D01*
X154814615Y-112469170D01*
X154633666Y-112342468D01*
X154633658Y-112342464D01*
X154504811Y-112282382D01*
X154452371Y-112236210D01*
X154433219Y-112169017D01*
X154453435Y-112102135D01*
X154504811Y-112057618D01*
X154510802Y-112054824D01*
X154633662Y-111997534D01*
X154814620Y-111870826D01*
X154970826Y-111714620D01*
X155097534Y-111533662D01*
X155190894Y-111333450D01*
X155248070Y-111120068D01*
X155267323Y-110900000D01*
X155248070Y-110679932D01*
X155190894Y-110466550D01*
X155097534Y-110266339D01*
X154970826Y-110085380D01*
X154814620Y-109929174D01*
X154814616Y-109929171D01*
X154814615Y-109929170D01*
X154633666Y-109802468D01*
X154633662Y-109802466D01*
X154504218Y-109742105D01*
X154451779Y-109695932D01*
X154432627Y-109628739D01*
X154452843Y-109561858D01*
X154504219Y-109517340D01*
X154633412Y-109457097D01*
X154814301Y-109330436D01*
X154970436Y-109174301D01*
X155097099Y-108993409D01*
X155097100Y-108993407D01*
X155190419Y-108793284D01*
X155190423Y-108793273D01*
X155226134Y-108660000D01*
X154413384Y-108660000D01*
X154473381Y-108556081D01*
X154508000Y-108426880D01*
X154508000Y-108293120D01*
X154473381Y-108163919D01*
X154413384Y-108060000D01*
X155226134Y-108060000D01*
X155226133Y-108059999D01*
X155190423Y-107926726D01*
X155190420Y-107926720D01*
X155097099Y-107726591D01*
X155097098Y-107726589D01*
X154970442Y-107545704D01*
X154814297Y-107389560D01*
X154633409Y-107262900D01*
X154633407Y-107262899D01*
X154504219Y-107202658D01*
X154451779Y-107156486D01*
X154432627Y-107089293D01*
X154452843Y-107022411D01*
X154504219Y-106977894D01*
X154505407Y-106977340D01*
X154633662Y-106917534D01*
X154814620Y-106790826D01*
X154970826Y-106634620D01*
X155097534Y-106453662D01*
X155190894Y-106253450D01*
X155248070Y-106040068D01*
X155267323Y-105820000D01*
X155265115Y-105794767D01*
X155256900Y-105700858D01*
X155248070Y-105599932D01*
X155190894Y-105386550D01*
X155097534Y-105186339D01*
X154970826Y-105005380D01*
X154814620Y-104849174D01*
X154814616Y-104849171D01*
X154814615Y-104849170D01*
X154633666Y-104722468D01*
X154633662Y-104722466D01*
X154583392Y-104699025D01*
X154433450Y-104629106D01*
X154433447Y-104629105D01*
X154433445Y-104629104D01*
X154220070Y-104571930D01*
X154220062Y-104571929D01*
X154000002Y-104552677D01*
X153999998Y-104552677D01*
X153779937Y-104571929D01*
X153779929Y-104571930D01*
X153566554Y-104629104D01*
X153566548Y-104629107D01*
X153366340Y-104722465D01*
X153366338Y-104722466D01*
X153185377Y-104849175D01*
X153029175Y-105005377D01*
X152902466Y-105186338D01*
X152902465Y-105186340D01*
X152809107Y-105386548D01*
X152809104Y-105386554D01*
X152751930Y-105599929D01*
X152751929Y-105599937D01*
X152732677Y-105819997D01*
X152732677Y-105820002D01*
X152751929Y-106040062D01*
X152751930Y-106040070D01*
X152809104Y-106253445D01*
X152809105Y-106253447D01*
X152809106Y-106253450D01*
X152843869Y-106328000D01*
X152902466Y-106453662D01*
X152902468Y-106453666D01*
X153029170Y-106634615D01*
X153029175Y-106634621D01*
X153185378Y-106790824D01*
X153185384Y-106790829D01*
X153366333Y-106917531D01*
X153366335Y-106917532D01*
X153366338Y-106917534D01*
X153446129Y-106954741D01*
X153495781Y-106977894D01*
X153548220Y-107024066D01*
X153567372Y-107091260D01*
X153547156Y-107158141D01*
X153495781Y-107202658D01*
X153366591Y-107262900D01*
X153366589Y-107262901D01*
X153185700Y-107389560D01*
X153029560Y-107545700D01*
X152902901Y-107726589D01*
X152902900Y-107726591D01*
X152809579Y-107926720D01*
X152809575Y-107926729D01*
X152752426Y-108140013D01*
X152752424Y-108140023D01*
X152745003Y-108224844D01*
X152719550Y-108289912D01*
X152662958Y-108330890D01*
X152593196Y-108334767D01*
X152533794Y-108301716D01*
X147836819Y-103604741D01*
X147803334Y-103543418D01*
X147800500Y-103517060D01*
X147800500Y-96924500D01*
X147820185Y-96857461D01*
X147872989Y-96811706D01*
X147924500Y-96800500D01*
X149959028Y-96800500D01*
X150026067Y-96820185D01*
X150071822Y-96872989D01*
X150081766Y-96942147D01*
X150060603Y-96995623D01*
X149989432Y-97097265D01*
X149989431Y-97097267D01*
X149893261Y-97303502D01*
X149893258Y-97303511D01*
X149834366Y-97523302D01*
X149834366Y-97523305D01*
X149834365Y-97523308D01*
X149830494Y-97567549D01*
X149814532Y-97749998D01*
X149814532Y-97750001D01*
X149834364Y-97976686D01*
X149834366Y-97976697D01*
X149893258Y-98196488D01*
X149893261Y-98196497D01*
X149989431Y-98402732D01*
X149989432Y-98402734D01*
X150119954Y-98589141D01*
X150280858Y-98750045D01*
X150280861Y-98750047D01*
X150467266Y-98880568D01*
X150673504Y-98976739D01*
X150893308Y-99035635D01*
X151055230Y-99049801D01*
X151119998Y-99055468D01*
X151120000Y-99055468D01*
X151120002Y-99055468D01*
X151176673Y-99050509D01*
X151346692Y-99035635D01*
X151566496Y-98976739D01*
X151772734Y-98880568D01*
X151959139Y-98750047D01*
X151959141Y-98750045D01*
X152122368Y-98586819D01*
X152183691Y-98553334D01*
X152210049Y-98550500D01*
X155909759Y-98550500D01*
X155976798Y-98570185D01*
X156022553Y-98622989D01*
X156032232Y-98655102D01*
X156057753Y-98816240D01*
X156057754Y-98816243D01*
X156109902Y-98976738D01*
X156123444Y-99018414D01*
X156219951Y-99207820D01*
X156344890Y-99379786D01*
X156495209Y-99530105D01*
X156495214Y-99530109D01*
X156659793Y-99649682D01*
X156702459Y-99705011D01*
X156708438Y-99774625D01*
X156675833Y-99836420D01*
X156659793Y-99850318D01*
X156495214Y-99969890D01*
X156495209Y-99969894D01*
X156344890Y-100120213D01*
X156219951Y-100292179D01*
X156123444Y-100481585D01*
X156057753Y-100683759D01*
X156032232Y-100844898D01*
X156002303Y-100908032D01*
X155942992Y-100944964D01*
X155909759Y-100949500D01*
X152210049Y-100949500D01*
X152143010Y-100929815D01*
X152122368Y-100913181D01*
X151959141Y-100749954D01*
X151772734Y-100619432D01*
X151772732Y-100619431D01*
X151566497Y-100523261D01*
X151566488Y-100523258D01*
X151346697Y-100464366D01*
X151346693Y-100464365D01*
X151346692Y-100464365D01*
X151346691Y-100464364D01*
X151346686Y-100464364D01*
X151120002Y-100444532D01*
X151119998Y-100444532D01*
X150893313Y-100464364D01*
X150893302Y-100464366D01*
X150673511Y-100523258D01*
X150673502Y-100523261D01*
X150467267Y-100619431D01*
X150467265Y-100619432D01*
X150280858Y-100749954D01*
X150119954Y-100910858D01*
X149989432Y-101097265D01*
X149989431Y-101097267D01*
X149893261Y-101303502D01*
X149893258Y-101303511D01*
X149834366Y-101523302D01*
X149834364Y-101523313D01*
X149814532Y-101749998D01*
X149814532Y-101750001D01*
X149834364Y-101976686D01*
X149834366Y-101976697D01*
X149893258Y-102196488D01*
X149893261Y-102196497D01*
X149989431Y-102402732D01*
X149989432Y-102402734D01*
X150119954Y-102589141D01*
X150280858Y-102750045D01*
X150296335Y-102760882D01*
X150467266Y-102880568D01*
X150673504Y-102976739D01*
X150893308Y-103035635D01*
X151055230Y-103049801D01*
X151119998Y-103055468D01*
X151120000Y-103055468D01*
X151120002Y-103055468D01*
X151182499Y-103050000D01*
X151346692Y-103035635D01*
X151566496Y-102976739D01*
X151772734Y-102880568D01*
X151959139Y-102750047D01*
X152022447Y-102686739D01*
X152122368Y-102586819D01*
X152183691Y-102553334D01*
X152210049Y-102550500D01*
X156828844Y-102550500D01*
X156828845Y-102550499D01*
X156983497Y-102519737D01*
X157127603Y-102460047D01*
X157129172Y-102459397D01*
X157129172Y-102459396D01*
X157129179Y-102459394D01*
X157213980Y-102402732D01*
X157260875Y-102371398D01*
X157327553Y-102350520D01*
X157329766Y-102350500D01*
X157731286Y-102350500D01*
X157731287Y-102350500D01*
X157941243Y-102317246D01*
X158143412Y-102251557D01*
X158332816Y-102155051D01*
X158399524Y-102106585D01*
X158504786Y-102030109D01*
X158504788Y-102030106D01*
X158504792Y-102030104D01*
X158655104Y-101879792D01*
X158675577Y-101851613D01*
X158730906Y-101808949D01*
X158775894Y-101800500D01*
X165724106Y-101800500D01*
X165791145Y-101820185D01*
X165824422Y-101851612D01*
X165844896Y-101879792D01*
X165844898Y-101879794D01*
X165995213Y-102030109D01*
X166167179Y-102155048D01*
X166167181Y-102155049D01*
X166167184Y-102155051D01*
X166356588Y-102251557D01*
X166558757Y-102317246D01*
X166768713Y-102350500D01*
X166768714Y-102350500D01*
X167231286Y-102350500D01*
X167231287Y-102350500D01*
X167441243Y-102317246D01*
X167643412Y-102251557D01*
X167832816Y-102155051D01*
X167899524Y-102106585D01*
X168004786Y-102030109D01*
X168004788Y-102030106D01*
X168004792Y-102030104D01*
X168155104Y-101879792D01*
X168155106Y-101879788D01*
X168155109Y-101879786D01*
X168280048Y-101707820D01*
X168280047Y-101707820D01*
X168280051Y-101707816D01*
X168376557Y-101518412D01*
X168442246Y-101316243D01*
X168475500Y-101106287D01*
X168475500Y-100893713D01*
X168442246Y-100683757D01*
X168376557Y-100481588D01*
X168280051Y-100292184D01*
X168280049Y-100292181D01*
X168280048Y-100292179D01*
X168155109Y-100120213D01*
X168004792Y-99969896D01*
X168004784Y-99969890D01*
X167840204Y-99850316D01*
X167797540Y-99794989D01*
X167791561Y-99725376D01*
X167824166Y-99663580D01*
X167840199Y-99649686D01*
X168004792Y-99530104D01*
X168155104Y-99379792D01*
X168155106Y-99379788D01*
X168155109Y-99379786D01*
X168280048Y-99207820D01*
X168280047Y-99207820D01*
X168280051Y-99207816D01*
X168376557Y-99018412D01*
X168442246Y-98816243D01*
X168475500Y-98606287D01*
X168475500Y-98393713D01*
X168442246Y-98183757D01*
X168376557Y-97981588D01*
X168280051Y-97792184D01*
X168280049Y-97792181D01*
X168280048Y-97792179D01*
X168155109Y-97620213D01*
X168004792Y-97469896D01*
X167912016Y-97402491D01*
X167840204Y-97350316D01*
X167797540Y-97294989D01*
X167791561Y-97225376D01*
X167824166Y-97163580D01*
X167840199Y-97149686D01*
X168004792Y-97030104D01*
X168155104Y-96879792D01*
X168155106Y-96879788D01*
X168155109Y-96879786D01*
X168280048Y-96707820D01*
X168280047Y-96707820D01*
X168280051Y-96707816D01*
X168376557Y-96518412D01*
X168442246Y-96316243D01*
X168475500Y-96106287D01*
X168475500Y-95893713D01*
X168442246Y-95683757D01*
X168376557Y-95481588D01*
X168280051Y-95292184D01*
X168280049Y-95292181D01*
X168280048Y-95292179D01*
X168155109Y-95120213D01*
X168015931Y-94981035D01*
X167982446Y-94919712D01*
X167987430Y-94850020D01*
X168029302Y-94794087D01*
X168038516Y-94787815D01*
X168193343Y-94692317D01*
X168317315Y-94568345D01*
X168409356Y-94419124D01*
X168409358Y-94419119D01*
X168464505Y-94252697D01*
X168464506Y-94252690D01*
X168474999Y-94149986D01*
X168475000Y-94149973D01*
X168475000Y-93800000D01*
X167371752Y-93800000D01*
X167380095Y-93791657D01*
X167442630Y-93683343D01*
X167475000Y-93562535D01*
X167475000Y-93437465D01*
X167442630Y-93316657D01*
X167380095Y-93208343D01*
X167371752Y-93200000D01*
X168474999Y-93200000D01*
X168474999Y-92850028D01*
X168474998Y-92850013D01*
X168464505Y-92747302D01*
X168409358Y-92580880D01*
X168409356Y-92580875D01*
X168317315Y-92431654D01*
X168193345Y-92307684D01*
X168044124Y-92215643D01*
X168044119Y-92215641D01*
X167877697Y-92160494D01*
X167877690Y-92160493D01*
X167774986Y-92150000D01*
X167300000Y-92150000D01*
X167300000Y-93128248D01*
X167291657Y-93119905D01*
X167183343Y-93057370D01*
X167062535Y-93025000D01*
X166937465Y-93025000D01*
X166816657Y-93057370D01*
X166708343Y-93119905D01*
X166700000Y-93128248D01*
X166700000Y-92150000D01*
X166225028Y-92150000D01*
X166225012Y-92150001D01*
X166122302Y-92160494D01*
X165955880Y-92215641D01*
X165955875Y-92215643D01*
X165806654Y-92307684D01*
X165682684Y-92431654D01*
X165590643Y-92580875D01*
X165590641Y-92580880D01*
X165535494Y-92747302D01*
X165535493Y-92747309D01*
X165525000Y-92850013D01*
X165525000Y-93200000D01*
X166628248Y-93200000D01*
X166619905Y-93208343D01*
X166557370Y-93316657D01*
X166525000Y-93437465D01*
X166525000Y-93562535D01*
X166557370Y-93683343D01*
X166619905Y-93791657D01*
X166628248Y-93800000D01*
X165525001Y-93800000D01*
X165525001Y-94149986D01*
X165535494Y-94252697D01*
X165590641Y-94419119D01*
X165590643Y-94419124D01*
X165682684Y-94568345D01*
X165806654Y-94692315D01*
X165961484Y-94787815D01*
X166008208Y-94839763D01*
X166019431Y-94908726D01*
X165991587Y-94972808D01*
X165984069Y-94981035D01*
X165844896Y-95120208D01*
X165824422Y-95148386D01*
X165769094Y-95191051D01*
X165724106Y-95199500D01*
X159731940Y-95199500D01*
X159664901Y-95179815D01*
X159619146Y-95127011D01*
X159609202Y-95057853D01*
X159638227Y-94994297D01*
X159644259Y-94987819D01*
X164871786Y-89760292D01*
X164871789Y-89760289D01*
X164959394Y-89629179D01*
X165019738Y-89483497D01*
X165050500Y-89328842D01*
X165050500Y-89171157D01*
X165050500Y-83671158D01*
X165050500Y-83671155D01*
X165050499Y-83671153D01*
X165038758Y-83612129D01*
X165019737Y-83516503D01*
X165019735Y-83516498D01*
X164959397Y-83370827D01*
X164959390Y-83370814D01*
X164871790Y-83239712D01*
X164852027Y-83219949D01*
X164760289Y-83128211D01*
X163093759Y-81461681D01*
X163060274Y-81400358D01*
X163065258Y-81330666D01*
X163107130Y-81274733D01*
X163172594Y-81250316D01*
X163181440Y-81250000D01*
X169948638Y-81250000D01*
X170015677Y-81269685D01*
G37*
%TD.AperFunction*%
%TA.AperFunction,Conductor*%
G36*
X161434099Y-82070185D02*
G01*
X161454741Y-82086819D01*
X162483531Y-83115609D01*
X162517016Y-83176932D01*
X162512032Y-83246624D01*
X162470160Y-83302557D01*
X162404696Y-83326974D01*
X162336423Y-83312122D01*
X162322965Y-83303608D01*
X162207820Y-83219951D01*
X162018414Y-83123444D01*
X162018413Y-83123443D01*
X162018412Y-83123443D01*
X161816243Y-83057754D01*
X161816241Y-83057753D01*
X161816240Y-83057753D01*
X161654957Y-83032208D01*
X161606287Y-83024500D01*
X161393713Y-83024500D01*
X161351721Y-83031150D01*
X161183753Y-83057754D01*
X161073813Y-83093475D01*
X161003972Y-83095470D01*
X160947815Y-83063225D01*
X160692928Y-82808338D01*
X160692925Y-82808334D01*
X160692925Y-82808335D01*
X160685858Y-82801268D01*
X160685858Y-82801267D01*
X160598733Y-82714142D01*
X160598732Y-82714141D01*
X160598731Y-82714140D01*
X160547509Y-82679915D01*
X160496287Y-82645689D01*
X160496286Y-82645688D01*
X160496283Y-82645686D01*
X160496280Y-82645685D01*
X160415792Y-82612347D01*
X160382453Y-82598537D01*
X160372427Y-82596543D01*
X160322029Y-82586518D01*
X160261610Y-82574500D01*
X160261607Y-82574500D01*
X160261606Y-82574500D01*
X155723434Y-82574500D01*
X155600220Y-82574500D01*
X155600216Y-82574500D01*
X155539798Y-82586518D01*
X155479375Y-82598537D01*
X155479370Y-82598538D01*
X155446034Y-82612347D01*
X155432224Y-82618067D01*
X155409996Y-82627274D01*
X155365540Y-82645688D01*
X155355384Y-82652475D01*
X155355276Y-82652547D01*
X155263095Y-82714140D01*
X155219532Y-82757703D01*
X155175969Y-82801267D01*
X150951299Y-87025937D01*
X150889976Y-87059422D01*
X150820284Y-87054438D01*
X150813379Y-87050000D01*
X149579290Y-87050000D01*
X149625021Y-86939598D01*
X149650000Y-86814019D01*
X149650000Y-86685981D01*
X149625021Y-86560402D01*
X149579290Y-86450000D01*
X150800000Y-86450000D01*
X150800000Y-85402172D01*
X150799999Y-85402155D01*
X150793598Y-85342627D01*
X150793596Y-85342620D01*
X150743354Y-85207913D01*
X150743350Y-85207906D01*
X150657190Y-85092812D01*
X150657187Y-85092809D01*
X150542093Y-85006649D01*
X150542086Y-85006645D01*
X150407379Y-84956403D01*
X150407372Y-84956401D01*
X150347844Y-84950000D01*
X149300000Y-84950000D01*
X149300000Y-86170709D01*
X149189598Y-86124979D01*
X149064019Y-86100000D01*
X148935981Y-86100000D01*
X148810402Y-86124979D01*
X148700000Y-86170709D01*
X148700000Y-84950000D01*
X147652155Y-84950000D01*
X147592627Y-84956401D01*
X147592620Y-84956403D01*
X147457913Y-85006645D01*
X147457906Y-85006649D01*
X147342812Y-85092809D01*
X147342809Y-85092812D01*
X147256649Y-85207906D01*
X147256645Y-85207913D01*
X147206403Y-85342620D01*
X147206401Y-85342627D01*
X147200000Y-85402155D01*
X147200000Y-86450000D01*
X148420710Y-86450000D01*
X148374979Y-86560402D01*
X148350000Y-86685981D01*
X148350000Y-86814019D01*
X148374979Y-86939598D01*
X148420710Y-87050000D01*
X147200000Y-87050000D01*
X147200000Y-88097844D01*
X147206401Y-88157372D01*
X147206403Y-88157379D01*
X147256645Y-88292086D01*
X147256649Y-88292093D01*
X147342809Y-88407187D01*
X147342812Y-88407190D01*
X147457906Y-88493350D01*
X147457913Y-88493354D01*
X147592620Y-88543596D01*
X147592627Y-88543598D01*
X147652155Y-88549999D01*
X147652172Y-88550000D01*
X148700000Y-88550000D01*
X148700000Y-87329290D01*
X148810402Y-87375021D01*
X148935981Y-87400000D01*
X149064019Y-87400000D01*
X149189598Y-87375021D01*
X149300000Y-87329290D01*
X149300000Y-88570004D01*
X149309422Y-88587260D01*
X149304438Y-88656952D01*
X149275937Y-88701299D01*
X141512181Y-96465055D01*
X141450858Y-96498540D01*
X141381166Y-96493556D01*
X141325233Y-96451684D01*
X141300816Y-96386220D01*
X141300500Y-96377374D01*
X141300500Y-89671157D01*
X141300499Y-89671156D01*
X141292150Y-89629179D01*
X141292150Y-89629175D01*
X141269739Y-89516510D01*
X141269738Y-89516503D01*
X141209394Y-89370821D01*
X141209392Y-89370818D01*
X141209390Y-89370814D01*
X141121789Y-89239711D01*
X141121786Y-89239707D01*
X139336818Y-87454739D01*
X139303333Y-87393416D01*
X139300499Y-87367058D01*
X139300499Y-86749995D01*
X142194451Y-86749995D01*
X142194451Y-86750004D01*
X142214616Y-87019101D01*
X142274664Y-87282188D01*
X142274666Y-87282195D01*
X142367691Y-87519218D01*
X142373257Y-87533398D01*
X142508185Y-87767102D01*
X142630369Y-87920315D01*
X142676442Y-87978089D01*
X142805543Y-88097876D01*
X142874259Y-88161635D01*
X143097226Y-88313651D01*
X143340359Y-88430738D01*
X143598228Y-88510280D01*
X143598229Y-88510280D01*
X143598232Y-88510281D01*
X143865063Y-88550499D01*
X143865068Y-88550499D01*
X143865071Y-88550500D01*
X143865072Y-88550500D01*
X144134928Y-88550500D01*
X144134929Y-88550500D01*
X144134936Y-88550499D01*
X144401767Y-88510281D01*
X144401768Y-88510280D01*
X144401772Y-88510280D01*
X144659641Y-88430738D01*
X144902775Y-88313651D01*
X145125741Y-88161635D01*
X145323561Y-87978085D01*
X145491815Y-87767102D01*
X145626743Y-87533398D01*
X145725334Y-87282195D01*
X145785383Y-87019103D01*
X145805549Y-86750000D01*
X145802108Y-86704086D01*
X145785383Y-86480898D01*
X145752231Y-86335649D01*
X145725334Y-86217805D01*
X145626743Y-85966602D01*
X145491815Y-85732898D01*
X145323561Y-85521915D01*
X145323560Y-85521914D01*
X145323557Y-85521910D01*
X145125741Y-85338365D01*
X145057092Y-85291561D01*
X144902775Y-85186349D01*
X144902769Y-85186346D01*
X144902768Y-85186345D01*
X144902767Y-85186344D01*
X144659643Y-85069263D01*
X144659645Y-85069263D01*
X144401773Y-84989720D01*
X144401767Y-84989718D01*
X144134936Y-84949500D01*
X144134929Y-84949500D01*
X143865071Y-84949500D01*
X143865063Y-84949500D01*
X143598232Y-84989718D01*
X143598226Y-84989720D01*
X143340358Y-85069262D01*
X143097230Y-85186346D01*
X142874258Y-85338365D01*
X142676442Y-85521910D01*
X142508185Y-85732898D01*
X142373258Y-85966599D01*
X142373256Y-85966603D01*
X142274666Y-86217804D01*
X142274664Y-86217811D01*
X142214616Y-86480898D01*
X142194451Y-86749995D01*
X139300499Y-86749995D01*
X139300499Y-85402129D01*
X139300498Y-85402123D01*
X139300497Y-85402116D01*
X139294091Y-85342517D01*
X139292542Y-85338365D01*
X139243797Y-85207671D01*
X139243793Y-85207664D01*
X139157547Y-85092455D01*
X139157544Y-85092452D01*
X139042335Y-85006206D01*
X139042328Y-85006202D01*
X138907482Y-84955908D01*
X138907483Y-84955908D01*
X138847883Y-84949501D01*
X138847881Y-84949500D01*
X138847873Y-84949500D01*
X138847864Y-84949500D01*
X136152129Y-84949500D01*
X136152123Y-84949501D01*
X136092516Y-84955908D01*
X135957671Y-85006202D01*
X135957664Y-85006206D01*
X135842455Y-85092452D01*
X135842452Y-85092455D01*
X135756206Y-85207664D01*
X135756202Y-85207671D01*
X135705908Y-85342517D01*
X135699501Y-85402116D01*
X135699501Y-85402123D01*
X135699500Y-85402135D01*
X135699500Y-88097870D01*
X135699501Y-88097876D01*
X135705908Y-88157483D01*
X135756202Y-88292328D01*
X135756206Y-88292335D01*
X135842452Y-88407544D01*
X135842455Y-88407547D01*
X135957664Y-88493793D01*
X135957671Y-88493797D01*
X136092517Y-88544091D01*
X136092516Y-88544091D01*
X136099444Y-88544835D01*
X136152127Y-88550500D01*
X138117059Y-88550499D01*
X138184098Y-88570184D01*
X138204740Y-88586818D01*
X139663181Y-90045259D01*
X139696666Y-90106582D01*
X139699500Y-90132940D01*
X139699500Y-104699025D01*
X139679815Y-104766064D01*
X139627011Y-104811819D01*
X139557853Y-104821763D01*
X139504376Y-104800600D01*
X139393409Y-104722900D01*
X139393407Y-104722899D01*
X139193284Y-104629580D01*
X139193273Y-104629576D01*
X139060000Y-104593866D01*
X139060000Y-105406616D01*
X138956081Y-105346619D01*
X138826880Y-105312000D01*
X138693120Y-105312000D01*
X138563919Y-105346619D01*
X138460000Y-105406616D01*
X138460000Y-104593866D01*
X138459999Y-104593866D01*
X138326726Y-104629576D01*
X138326720Y-104629579D01*
X138126591Y-104722900D01*
X138126589Y-104722901D01*
X137945700Y-104849560D01*
X137789560Y-105005700D01*
X137662901Y-105186589D01*
X137662900Y-105186591D01*
X137569579Y-105386720D01*
X137569575Y-105386729D01*
X137512426Y-105600013D01*
X137512424Y-105600023D01*
X137505003Y-105684844D01*
X137479550Y-105749912D01*
X137422958Y-105790890D01*
X137353196Y-105794767D01*
X137293794Y-105761716D01*
X133336819Y-101804741D01*
X133303334Y-101743418D01*
X133300500Y-101717060D01*
X133300500Y-88440817D01*
X133320185Y-88373778D01*
X133370699Y-88329097D01*
X133402775Y-88313651D01*
X133625741Y-88161635D01*
X133823561Y-87978085D01*
X133991815Y-87767102D01*
X134126743Y-87533398D01*
X134225334Y-87282195D01*
X134285383Y-87019103D01*
X134305549Y-86750000D01*
X134302108Y-86704086D01*
X134285383Y-86480898D01*
X134252231Y-86335649D01*
X134225334Y-86217805D01*
X134126743Y-85966602D01*
X133991815Y-85732898D01*
X133823561Y-85521915D01*
X133823560Y-85521914D01*
X133823557Y-85521910D01*
X133625741Y-85338365D01*
X133557092Y-85291561D01*
X133402775Y-85186349D01*
X133402769Y-85186346D01*
X133402768Y-85186345D01*
X133402767Y-85186344D01*
X133159643Y-85069263D01*
X133159645Y-85069263D01*
X132901773Y-84989720D01*
X132901767Y-84989718D01*
X132634936Y-84949500D01*
X132634929Y-84949500D01*
X132365071Y-84949500D01*
X132365063Y-84949500D01*
X132098232Y-84989718D01*
X132098226Y-84989720D01*
X131840358Y-85069262D01*
X131597230Y-85186346D01*
X131374258Y-85338365D01*
X131176442Y-85521910D01*
X131008185Y-85732898D01*
X130873258Y-85966599D01*
X130873256Y-85966603D01*
X130774666Y-86217804D01*
X130774664Y-86217811D01*
X130714616Y-86480898D01*
X130694451Y-86749995D01*
X130694451Y-86750004D01*
X130714616Y-87019101D01*
X130774664Y-87282188D01*
X130774666Y-87282195D01*
X130867691Y-87519218D01*
X130873257Y-87533398D01*
X131008185Y-87767102D01*
X131130369Y-87920315D01*
X131176442Y-87978089D01*
X131305543Y-88097876D01*
X131374259Y-88161635D01*
X131597226Y-88313651D01*
X131629302Y-88329097D01*
X131681161Y-88375918D01*
X131699500Y-88440817D01*
X131699500Y-102178846D01*
X131730261Y-102333489D01*
X131730264Y-102333501D01*
X131790602Y-102479172D01*
X131790609Y-102479185D01*
X131878210Y-102610288D01*
X131878213Y-102610292D01*
X137462670Y-108194748D01*
X137496155Y-108256071D01*
X137498517Y-108293235D01*
X137492677Y-108359996D01*
X137492677Y-108360002D01*
X137511929Y-108580062D01*
X137511930Y-108580070D01*
X137569104Y-108793445D01*
X137569105Y-108793447D01*
X137569106Y-108793450D01*
X137603869Y-108868000D01*
X137662466Y-108993662D01*
X137662468Y-108993666D01*
X137789170Y-109174615D01*
X137789175Y-109174621D01*
X137945378Y-109330824D01*
X137945384Y-109330829D01*
X138126333Y-109457531D01*
X138126335Y-109457532D01*
X138126338Y-109457534D01*
X138174517Y-109480000D01*
X138255189Y-109517618D01*
X138307628Y-109563790D01*
X138326780Y-109630984D01*
X138306564Y-109697865D01*
X138255189Y-109742382D01*
X138126340Y-109802465D01*
X138126338Y-109802466D01*
X137945377Y-109929175D01*
X137789175Y-110085377D01*
X137662466Y-110266338D01*
X137662465Y-110266340D01*
X137569107Y-110466548D01*
X137569104Y-110466554D01*
X137511930Y-110679929D01*
X137511929Y-110679937D01*
X137492677Y-110899997D01*
X137492677Y-110900002D01*
X137511929Y-111120062D01*
X137511930Y-111120070D01*
X137569104Y-111333445D01*
X137569105Y-111333447D01*
X137569106Y-111333450D01*
X137662466Y-111533662D01*
X137662468Y-111533666D01*
X137789170Y-111714615D01*
X137789175Y-111714621D01*
X137945378Y-111870824D01*
X137945384Y-111870829D01*
X138126333Y-111997531D01*
X138126335Y-111997532D01*
X138126338Y-111997534D01*
X138245748Y-112053215D01*
X138255189Y-112057618D01*
X138307628Y-112103790D01*
X138326780Y-112170984D01*
X138306564Y-112237865D01*
X138255189Y-112282382D01*
X138126340Y-112342465D01*
X138126338Y-112342466D01*
X137945377Y-112469175D01*
X137789175Y-112625377D01*
X137662466Y-112806338D01*
X137662465Y-112806340D01*
X137569107Y-113006548D01*
X137569104Y-113006554D01*
X137511930Y-113219929D01*
X137511929Y-113219937D01*
X137492677Y-113439997D01*
X137492677Y-113440002D01*
X137499320Y-113515931D01*
X137511929Y-113660062D01*
X137511930Y-113660066D01*
X137511930Y-113660070D01*
X137523707Y-113704021D01*
X137522044Y-113773871D01*
X137491613Y-113823795D01*
X127477229Y-123838181D01*
X127415906Y-123871666D01*
X127389548Y-123874500D01*
X114310453Y-123874500D01*
X114243414Y-123854815D01*
X114222772Y-123838181D01*
X113161819Y-122777228D01*
X113128334Y-122715905D01*
X113125500Y-122689547D01*
X113125500Y-117000000D01*
X113484525Y-117000000D01*
X113523731Y-117146320D01*
X113523734Y-117146326D01*
X113619865Y-117352482D01*
X113750342Y-117538820D01*
X113911179Y-117699657D01*
X114097517Y-117830134D01*
X114303673Y-117926265D01*
X114303682Y-117926269D01*
X114450000Y-117965473D01*
X114450000Y-117000000D01*
X113484525Y-117000000D01*
X113125500Y-117000000D01*
X113125500Y-103999998D01*
X113444532Y-103999998D01*
X113444532Y-104000001D01*
X113464364Y-104226686D01*
X113464366Y-104226697D01*
X113523258Y-104446488D01*
X113523261Y-104446497D01*
X113619431Y-104652732D01*
X113619432Y-104652734D01*
X113749954Y-104839141D01*
X113910858Y-105000045D01*
X113910861Y-105000047D01*
X114097266Y-105130568D01*
X114154681Y-105157341D01*
X114155275Y-105157618D01*
X114207714Y-105203791D01*
X114226866Y-105270984D01*
X114206650Y-105337865D01*
X114155275Y-105382381D01*
X114138272Y-105390310D01*
X114097267Y-105409431D01*
X114097265Y-105409432D01*
X113910858Y-105539954D01*
X113749954Y-105700858D01*
X113619432Y-105887265D01*
X113619431Y-105887267D01*
X113523261Y-106093502D01*
X113523258Y-106093511D01*
X113464366Y-106313302D01*
X113464364Y-106313313D01*
X113444532Y-106539998D01*
X113444532Y-106540001D01*
X113464364Y-106766686D01*
X113464366Y-106766697D01*
X113523258Y-106986488D01*
X113523261Y-106986497D01*
X113619431Y-107192732D01*
X113619432Y-107192734D01*
X113749954Y-107379141D01*
X113910858Y-107540045D01*
X113910861Y-107540047D01*
X114097266Y-107670568D01*
X114155865Y-107697893D01*
X114208305Y-107744065D01*
X114227457Y-107811258D01*
X114207242Y-107878139D01*
X114155867Y-107922657D01*
X114097515Y-107949867D01*
X113911179Y-108080342D01*
X113750342Y-108241179D01*
X113619865Y-108427517D01*
X113523734Y-108633673D01*
X113523731Y-108633679D01*
X113484525Y-108779999D01*
X113484525Y-108780000D01*
X114484314Y-108780000D01*
X114429920Y-108834394D01*
X114377259Y-108925606D01*
X114350000Y-109027339D01*
X114350000Y-109132661D01*
X114377259Y-109234394D01*
X114429920Y-109325606D01*
X114484314Y-109380000D01*
X113484525Y-109380000D01*
X113523731Y-109526320D01*
X113523734Y-109526326D01*
X113619865Y-109732482D01*
X113750342Y-109918820D01*
X113911179Y-110079657D01*
X114097518Y-110210134D01*
X114097520Y-110210135D01*
X114155865Y-110237342D01*
X114208305Y-110283514D01*
X114227457Y-110350707D01*
X114207242Y-110417589D01*
X114155867Y-110462105D01*
X114126592Y-110475757D01*
X114097264Y-110489433D01*
X113910858Y-110619954D01*
X113749954Y-110780858D01*
X113619432Y-110967265D01*
X113619431Y-110967267D01*
X113523261Y-111173502D01*
X113523258Y-111173511D01*
X113464366Y-111393302D01*
X113464364Y-111393313D01*
X113444532Y-111619998D01*
X113444532Y-111620001D01*
X113464364Y-111846686D01*
X113464366Y-111846697D01*
X113523258Y-112066488D01*
X113523261Y-112066497D01*
X113619431Y-112272732D01*
X113619432Y-112272734D01*
X113749954Y-112459141D01*
X113910858Y-112620045D01*
X113910861Y-112620047D01*
X114097266Y-112750568D01*
X114154681Y-112777341D01*
X114155275Y-112777618D01*
X114207714Y-112823791D01*
X114226866Y-112890984D01*
X114206650Y-112957865D01*
X114155275Y-113002381D01*
X114146328Y-113006554D01*
X114097267Y-113029431D01*
X114097265Y-113029432D01*
X113910858Y-113159954D01*
X113749954Y-113320858D01*
X113619432Y-113507265D01*
X113619431Y-113507267D01*
X113523261Y-113713502D01*
X113523258Y-113713511D01*
X113464366Y-113933302D01*
X113464364Y-113933313D01*
X113444532Y-114159998D01*
X113444532Y-114160001D01*
X113464364Y-114386686D01*
X113464366Y-114386697D01*
X113523258Y-114606488D01*
X113523261Y-114606497D01*
X113619431Y-114812732D01*
X113619432Y-114812734D01*
X113749954Y-114999141D01*
X113910858Y-115160045D01*
X113910861Y-115160047D01*
X114097266Y-115290568D01*
X114155865Y-115317893D01*
X114208305Y-115364065D01*
X114227457Y-115431258D01*
X114207242Y-115498139D01*
X114155867Y-115542657D01*
X114097515Y-115569867D01*
X113911179Y-115700342D01*
X113750342Y-115861179D01*
X113619865Y-116047517D01*
X113523734Y-116253673D01*
X113523731Y-116253679D01*
X113484525Y-116399999D01*
X113484525Y-116400000D01*
X114484314Y-116400000D01*
X114429920Y-116454394D01*
X114377259Y-116545606D01*
X114350000Y-116647339D01*
X114350000Y-116752661D01*
X114377259Y-116854394D01*
X114429920Y-116945606D01*
X114504394Y-117020080D01*
X114595606Y-117072741D01*
X114697339Y-117100000D01*
X114802661Y-117100000D01*
X114904394Y-117072741D01*
X114995606Y-117020080D01*
X115050000Y-116965686D01*
X115050000Y-117965472D01*
X115093407Y-117953843D01*
X115163257Y-117955506D01*
X115221119Y-117994669D01*
X115248623Y-118058897D01*
X115249500Y-118073618D01*
X115249500Y-118831038D01*
X115229815Y-118898077D01*
X115177011Y-118943832D01*
X115114693Y-118954566D01*
X115000002Y-118944532D01*
X114999998Y-118944532D01*
X114773313Y-118964364D01*
X114773302Y-118964366D01*
X114553511Y-119023258D01*
X114553502Y-119023261D01*
X114347267Y-119119431D01*
X114347265Y-119119432D01*
X114160858Y-119249954D01*
X113999954Y-119410858D01*
X113869432Y-119597265D01*
X113869431Y-119597267D01*
X113773261Y-119803502D01*
X113773258Y-119803511D01*
X113714366Y-120023302D01*
X113714364Y-120023313D01*
X113694532Y-120249998D01*
X113694532Y-120250001D01*
X113714364Y-120476686D01*
X113714366Y-120476697D01*
X113773258Y-120696488D01*
X113773261Y-120696497D01*
X113869431Y-120902732D01*
X113869432Y-120902734D01*
X113999954Y-121089141D01*
X114160858Y-121250045D01*
X114160861Y-121250047D01*
X114347266Y-121380568D01*
X114553504Y-121476739D01*
X114773308Y-121535635D01*
X114935230Y-121549801D01*
X114999998Y-121555468D01*
X115000000Y-121555468D01*
X115000002Y-121555468D01*
X115056673Y-121550509D01*
X115226692Y-121535635D01*
X115446496Y-121476739D01*
X115652734Y-121380568D01*
X115839139Y-121250047D01*
X116000047Y-121089139D01*
X116130568Y-120902734D01*
X116226739Y-120696496D01*
X116285635Y-120476692D01*
X116305468Y-120250000D01*
X116305468Y-120249998D01*
X116944532Y-120249998D01*
X116944532Y-120250001D01*
X116964364Y-120476686D01*
X116964366Y-120476697D01*
X117023258Y-120696488D01*
X117023261Y-120696497D01*
X117119431Y-120902732D01*
X117119432Y-120902734D01*
X117249954Y-121089141D01*
X117410858Y-121250045D01*
X117410861Y-121250047D01*
X117597266Y-121380568D01*
X117803504Y-121476739D01*
X118023308Y-121535635D01*
X118185230Y-121549801D01*
X118249998Y-121555468D01*
X118250000Y-121555468D01*
X118250002Y-121555468D01*
X118306673Y-121550509D01*
X118476692Y-121535635D01*
X118696496Y-121476739D01*
X118902734Y-121380568D01*
X119089139Y-121250047D01*
X119250047Y-121089139D01*
X119380568Y-120902734D01*
X119476739Y-120696496D01*
X119535635Y-120476692D01*
X119555468Y-120250000D01*
X119535635Y-120023308D01*
X119476739Y-119803504D01*
X119380568Y-119597266D01*
X119250047Y-119410861D01*
X119250045Y-119410858D01*
X119089140Y-119249953D01*
X118928377Y-119137386D01*
X118884752Y-119082809D01*
X118875500Y-119035811D01*
X118875500Y-113510451D01*
X118895185Y-113443412D01*
X118911814Y-113422775D01*
X120978270Y-111356318D01*
X121039593Y-111322834D01*
X121065951Y-111320000D01*
X122104314Y-111320000D01*
X122049920Y-111374394D01*
X121997259Y-111465606D01*
X121970000Y-111567339D01*
X121970000Y-111672661D01*
X121997259Y-111774394D01*
X122049920Y-111865606D01*
X122104314Y-111920000D01*
X121104525Y-111920000D01*
X121143731Y-112066320D01*
X121143734Y-112066326D01*
X121239865Y-112272482D01*
X121370342Y-112458820D01*
X121531179Y-112619657D01*
X121717518Y-112750134D01*
X121717520Y-112750135D01*
X121775865Y-112777342D01*
X121828305Y-112823514D01*
X121847457Y-112890707D01*
X121827242Y-112957589D01*
X121775867Y-113002105D01*
X121717268Y-113029431D01*
X121717264Y-113029433D01*
X121530858Y-113159954D01*
X121369954Y-113320858D01*
X121239432Y-113507265D01*
X121239431Y-113507267D01*
X121143261Y-113713502D01*
X121143258Y-113713511D01*
X121084366Y-113933302D01*
X121084364Y-113933313D01*
X121064532Y-114159998D01*
X121064532Y-114160001D01*
X121084364Y-114386686D01*
X121084366Y-114386697D01*
X121143258Y-114606488D01*
X121143261Y-114606497D01*
X121239431Y-114812732D01*
X121239432Y-114812734D01*
X121369954Y-114999141D01*
X121530858Y-115160045D01*
X121530861Y-115160047D01*
X121717266Y-115290568D01*
X121775275Y-115317618D01*
X121827714Y-115363791D01*
X121846866Y-115430984D01*
X121826650Y-115497865D01*
X121775275Y-115542381D01*
X121766328Y-115546554D01*
X121717267Y-115569431D01*
X121717265Y-115569432D01*
X121530858Y-115699954D01*
X121369954Y-115860858D01*
X121239432Y-116047265D01*
X121239431Y-116047267D01*
X121143261Y-116253502D01*
X121143258Y-116253511D01*
X121084366Y-116473302D01*
X121084364Y-116473313D01*
X121064532Y-116699998D01*
X121064532Y-116700000D01*
X121078039Y-116854394D01*
X121084365Y-116926692D01*
X121084367Y-116926699D01*
X121102680Y-116995049D01*
X121101016Y-117064899D01*
X121070587Y-117114822D01*
X121014141Y-117171267D01*
X121005775Y-117183790D01*
X121004393Y-117185858D01*
X121004391Y-117185861D01*
X121004390Y-117185860D01*
X120945689Y-117273712D01*
X120945685Y-117273719D01*
X120914368Y-117349328D01*
X120914368Y-117349329D01*
X120898538Y-117387545D01*
X120898535Y-117387555D01*
X120874500Y-117508389D01*
X120874500Y-119035811D01*
X120854815Y-119102850D01*
X120821623Y-119137386D01*
X120660859Y-119249953D01*
X120499954Y-119410858D01*
X120369432Y-119597265D01*
X120369431Y-119597267D01*
X120273261Y-119803502D01*
X120273258Y-119803511D01*
X120214366Y-120023302D01*
X120214364Y-120023313D01*
X120194532Y-120249998D01*
X120194532Y-120250001D01*
X120214364Y-120476686D01*
X120214366Y-120476697D01*
X120273258Y-120696488D01*
X120273261Y-120696497D01*
X120369431Y-120902732D01*
X120369432Y-120902734D01*
X120499954Y-121089141D01*
X120660858Y-121250045D01*
X120660861Y-121250047D01*
X120847266Y-121380568D01*
X121053504Y-121476739D01*
X121273308Y-121535635D01*
X121435230Y-121549801D01*
X121499998Y-121555468D01*
X121500000Y-121555468D01*
X121500002Y-121555468D01*
X121556673Y-121550509D01*
X121726692Y-121535635D01*
X121946496Y-121476739D01*
X122152734Y-121380568D01*
X122339139Y-121250047D01*
X122500047Y-121089139D01*
X122630568Y-120902734D01*
X122726739Y-120696496D01*
X122785635Y-120476692D01*
X122805468Y-120250000D01*
X122785635Y-120023308D01*
X122726739Y-119803504D01*
X122630568Y-119597266D01*
X122500047Y-119410861D01*
X122500045Y-119410858D01*
X122339140Y-119249953D01*
X122178377Y-119137386D01*
X122134752Y-119082809D01*
X122125500Y-119035811D01*
X122125500Y-118119399D01*
X122145185Y-118052360D01*
X122197989Y-118006605D01*
X122260307Y-117995871D01*
X122334637Y-118002374D01*
X122369999Y-118005468D01*
X122370000Y-118005468D01*
X122370002Y-118005468D01*
X122426673Y-118000509D01*
X122596692Y-117985635D01*
X122816496Y-117926739D01*
X123022734Y-117830568D01*
X123209139Y-117700047D01*
X123370047Y-117539139D01*
X123500568Y-117352734D01*
X123596739Y-117146496D01*
X123655635Y-116926692D01*
X123675468Y-116700000D01*
X123655635Y-116473308D01*
X123609198Y-116300000D01*
X123596741Y-116253511D01*
X123596738Y-116253502D01*
X123549623Y-116152465D01*
X123500568Y-116047266D01*
X123370047Y-115860861D01*
X123370045Y-115860858D01*
X123209141Y-115699954D01*
X123022734Y-115569432D01*
X123022728Y-115569429D01*
X122973672Y-115546554D01*
X122964724Y-115542381D01*
X122912285Y-115496210D01*
X122893133Y-115429017D01*
X122913348Y-115362135D01*
X122964725Y-115317618D01*
X123022734Y-115290568D01*
X123209139Y-115160047D01*
X123370047Y-114999139D01*
X123500568Y-114812734D01*
X123596739Y-114606496D01*
X123655635Y-114386692D01*
X123675468Y-114160000D01*
X123655635Y-113933308D01*
X123596739Y-113713504D01*
X123500568Y-113507266D01*
X123370047Y-113320861D01*
X123370045Y-113320858D01*
X123209141Y-113159954D01*
X123022734Y-113029432D01*
X123022732Y-113029431D01*
X122997266Y-113017556D01*
X122964132Y-113002105D01*
X122911694Y-112955934D01*
X122892542Y-112888740D01*
X122912758Y-112821859D01*
X122964134Y-112777341D01*
X123022484Y-112750132D01*
X123208820Y-112619657D01*
X123369657Y-112458820D01*
X123500134Y-112272482D01*
X123596265Y-112066326D01*
X123596268Y-112066320D01*
X123635475Y-111920000D01*
X122635686Y-111920000D01*
X122690080Y-111865606D01*
X122742741Y-111774394D01*
X122770000Y-111672661D01*
X122770000Y-111567339D01*
X122742741Y-111465606D01*
X122690080Y-111374394D01*
X122635686Y-111320000D01*
X123635475Y-111320000D01*
X123635474Y-111319999D01*
X123596268Y-111173679D01*
X123596265Y-111173673D01*
X123500134Y-110967517D01*
X123369657Y-110781179D01*
X123208820Y-110620342D01*
X123022482Y-110489865D01*
X122964133Y-110462657D01*
X122911694Y-110416484D01*
X122892542Y-110349291D01*
X122912758Y-110282410D01*
X122964129Y-110237895D01*
X123022734Y-110210568D01*
X123209139Y-110080047D01*
X123370047Y-109919139D01*
X123500568Y-109732734D01*
X123596739Y-109526496D01*
X123655635Y-109306692D01*
X123675468Y-109080000D01*
X123655635Y-108853308D01*
X123609198Y-108680000D01*
X123596741Y-108633511D01*
X123596738Y-108633502D01*
X123550460Y-108534260D01*
X123500568Y-108427266D01*
X123370047Y-108240861D01*
X123370045Y-108240858D01*
X123209141Y-108079954D01*
X123022734Y-107949432D01*
X123022728Y-107949429D01*
X122995038Y-107936517D01*
X122964724Y-107922381D01*
X122912285Y-107876210D01*
X122893133Y-107809017D01*
X122913348Y-107742135D01*
X122964725Y-107697618D01*
X123022734Y-107670568D01*
X123209139Y-107540047D01*
X123370047Y-107379139D01*
X123500568Y-107192734D01*
X123596739Y-106986496D01*
X123655635Y-106766692D01*
X123675468Y-106540000D01*
X123655635Y-106313308D01*
X123610916Y-106146415D01*
X123596741Y-106093511D01*
X123596738Y-106093502D01*
X123500568Y-105887267D01*
X123500567Y-105887265D01*
X123500297Y-105886880D01*
X123370047Y-105700861D01*
X123370045Y-105700858D01*
X123209141Y-105539954D01*
X123022734Y-105409432D01*
X123022732Y-105409431D01*
X123011275Y-105404088D01*
X122964132Y-105382105D01*
X122911694Y-105335934D01*
X122892542Y-105268740D01*
X122912758Y-105201859D01*
X122964134Y-105157341D01*
X123022484Y-105130132D01*
X123208820Y-104999657D01*
X123369657Y-104838820D01*
X123500134Y-104652482D01*
X123596265Y-104446326D01*
X123596268Y-104446320D01*
X123635475Y-104300000D01*
X122635686Y-104300000D01*
X122690080Y-104245606D01*
X122742741Y-104154394D01*
X122770000Y-104052661D01*
X122770000Y-103947339D01*
X122742741Y-103845606D01*
X122690080Y-103754394D01*
X122635686Y-103700000D01*
X123635475Y-103700000D01*
X123635474Y-103699999D01*
X123596268Y-103553679D01*
X123596265Y-103553673D01*
X123500134Y-103347517D01*
X123369657Y-103161179D01*
X123208820Y-103000342D01*
X123022482Y-102869865D01*
X122964133Y-102842657D01*
X122911694Y-102796484D01*
X122892542Y-102729291D01*
X122912758Y-102662410D01*
X122964129Y-102617895D01*
X123022734Y-102590568D01*
X123209139Y-102460047D01*
X123370047Y-102299139D01*
X123500568Y-102112734D01*
X123596739Y-101906496D01*
X123655635Y-101686692D01*
X123675468Y-101460000D01*
X123655635Y-101233308D01*
X123596739Y-101013504D01*
X123500568Y-100807266D01*
X123370047Y-100620861D01*
X123370045Y-100620858D01*
X123209141Y-100459954D01*
X123022734Y-100329432D01*
X123022732Y-100329431D01*
X122816497Y-100233261D01*
X122816488Y-100233258D01*
X122596697Y-100174366D01*
X122596693Y-100174365D01*
X122596692Y-100174365D01*
X122596691Y-100174364D01*
X122596686Y-100174364D01*
X122370002Y-100154532D01*
X122369998Y-100154532D01*
X122143313Y-100174364D01*
X122143302Y-100174366D01*
X121923511Y-100233258D01*
X121923502Y-100233261D01*
X121717267Y-100329431D01*
X121717265Y-100329432D01*
X121530858Y-100459954D01*
X121369954Y-100620858D01*
X121239432Y-100807265D01*
X121239431Y-100807267D01*
X121143261Y-101013502D01*
X121143258Y-101013511D01*
X121084366Y-101233302D01*
X121084364Y-101233313D01*
X121064532Y-101459998D01*
X121064532Y-101460001D01*
X121084364Y-101686686D01*
X121084366Y-101686697D01*
X121143258Y-101906488D01*
X121143261Y-101906497D01*
X121239431Y-102112732D01*
X121239432Y-102112734D01*
X121369954Y-102299141D01*
X121530858Y-102460045D01*
X121530861Y-102460047D01*
X121717266Y-102590568D01*
X121775865Y-102617893D01*
X121828305Y-102664065D01*
X121847457Y-102731258D01*
X121827242Y-102798139D01*
X121775867Y-102842657D01*
X121717515Y-102869867D01*
X121531179Y-103000342D01*
X121370342Y-103161179D01*
X121239865Y-103347517D01*
X121143734Y-103553673D01*
X121143731Y-103553679D01*
X121104525Y-103699999D01*
X121104525Y-103700000D01*
X122104314Y-103700000D01*
X122049920Y-103754394D01*
X121997259Y-103845606D01*
X121970000Y-103947339D01*
X121970000Y-104052661D01*
X121997259Y-104154394D01*
X122049920Y-104245606D01*
X122104314Y-104300000D01*
X121104525Y-104300000D01*
X121143731Y-104446320D01*
X121143734Y-104446326D01*
X121239865Y-104652482D01*
X121370342Y-104838820D01*
X121531179Y-104999657D01*
X121717518Y-105130134D01*
X121717520Y-105130135D01*
X121775865Y-105157342D01*
X121828305Y-105203514D01*
X121847457Y-105270707D01*
X121827242Y-105337589D01*
X121775867Y-105382105D01*
X121717268Y-105409431D01*
X121717264Y-105409433D01*
X121530858Y-105539954D01*
X121369954Y-105700858D01*
X121239432Y-105887265D01*
X121239431Y-105887267D01*
X121143261Y-106093502D01*
X121143258Y-106093511D01*
X121084366Y-106313302D01*
X121084364Y-106313313D01*
X121064532Y-106539998D01*
X121064532Y-106540001D01*
X121084364Y-106766686D01*
X121084366Y-106766697D01*
X121143258Y-106986488D01*
X121143261Y-106986497D01*
X121239431Y-107192732D01*
X121239432Y-107192734D01*
X121369954Y-107379141D01*
X121530858Y-107540045D01*
X121530861Y-107540047D01*
X121717266Y-107670568D01*
X121775275Y-107697618D01*
X121827714Y-107743791D01*
X121846866Y-107810984D01*
X121826650Y-107877865D01*
X121775275Y-107922381D01*
X121758272Y-107930310D01*
X121717267Y-107949431D01*
X121717265Y-107949432D01*
X121530858Y-108079954D01*
X121369954Y-108240858D01*
X121239432Y-108427265D01*
X121239431Y-108427267D01*
X121143261Y-108633502D01*
X121143258Y-108633511D01*
X121084366Y-108853302D01*
X121084364Y-108853313D01*
X121064532Y-109079998D01*
X121064532Y-109080000D01*
X121078039Y-109234394D01*
X121084365Y-109306692D01*
X121084367Y-109306699D01*
X121102680Y-109375049D01*
X121101016Y-109444899D01*
X121070586Y-109494822D01*
X119445347Y-111120062D01*
X117851270Y-112714139D01*
X117851267Y-112714142D01*
X117815277Y-112750132D01*
X117764142Y-112801266D01*
X117760753Y-112806339D01*
X117739239Y-112838537D01*
X117695687Y-112903715D01*
X117695685Y-112903718D01*
X117671423Y-112962294D01*
X117671423Y-112962296D01*
X117648537Y-113017548D01*
X117648536Y-113017552D01*
X117648536Y-113017553D01*
X117648535Y-113017556D01*
X117624500Y-113138389D01*
X117624500Y-119035811D01*
X117604815Y-119102850D01*
X117571623Y-119137386D01*
X117410859Y-119249953D01*
X117249954Y-119410858D01*
X117119432Y-119597265D01*
X117119431Y-119597267D01*
X117023261Y-119803502D01*
X117023258Y-119803511D01*
X116964366Y-120023302D01*
X116964364Y-120023313D01*
X116944532Y-120249998D01*
X116305468Y-120249998D01*
X116285635Y-120023308D01*
X116267319Y-119954951D01*
X116268982Y-119885103D01*
X116299411Y-119835179D01*
X116360858Y-119773733D01*
X116429311Y-119671286D01*
X116429312Y-119671285D01*
X116459971Y-119597266D01*
X116476463Y-119557452D01*
X116500500Y-119436606D01*
X116500500Y-115223394D01*
X116497401Y-115207816D01*
X116476463Y-115102549D01*
X116444711Y-115025894D01*
X116429311Y-114988714D01*
X116429307Y-114988708D01*
X116360858Y-114886266D01*
X116270637Y-114796045D01*
X116270606Y-114796016D01*
X116049412Y-114574822D01*
X116015927Y-114513499D01*
X116017318Y-114455048D01*
X116035635Y-114386692D01*
X116055468Y-114160000D01*
X116035635Y-113933308D01*
X115976739Y-113713504D01*
X115880568Y-113507266D01*
X115750047Y-113320861D01*
X115750045Y-113320858D01*
X115589141Y-113159954D01*
X115402734Y-113029432D01*
X115402728Y-113029429D01*
X115353672Y-113006554D01*
X115344724Y-113002381D01*
X115292285Y-112956210D01*
X115273133Y-112889017D01*
X115293348Y-112822135D01*
X115344725Y-112777618D01*
X115345319Y-112777341D01*
X115402734Y-112750568D01*
X115589139Y-112620047D01*
X115750047Y-112459139D01*
X115880568Y-112272734D01*
X115976739Y-112066496D01*
X116035635Y-111846692D01*
X116055468Y-111620000D01*
X116035635Y-111393308D01*
X115976739Y-111173504D01*
X115880568Y-110967266D01*
X115750047Y-110780861D01*
X115750045Y-110780858D01*
X115589141Y-110619954D01*
X115402734Y-110489432D01*
X115402732Y-110489431D01*
X115353672Y-110466554D01*
X115344132Y-110462105D01*
X115291694Y-110415934D01*
X115272542Y-110348740D01*
X115292758Y-110281859D01*
X115344134Y-110237341D01*
X115402484Y-110210132D01*
X115588820Y-110079657D01*
X115749657Y-109918820D01*
X115880134Y-109732482D01*
X115976265Y-109526326D01*
X115976268Y-109526320D01*
X116015475Y-109380000D01*
X115015686Y-109380000D01*
X115070080Y-109325606D01*
X115122741Y-109234394D01*
X115150000Y-109132661D01*
X115150000Y-109027339D01*
X115122741Y-108925606D01*
X115070080Y-108834394D01*
X115015686Y-108780000D01*
X116015475Y-108780000D01*
X116015474Y-108779999D01*
X115976268Y-108633679D01*
X115976265Y-108633673D01*
X115880134Y-108427517D01*
X115749657Y-108241179D01*
X115588820Y-108080342D01*
X115402482Y-107949865D01*
X115344133Y-107922657D01*
X115291694Y-107876484D01*
X115272542Y-107809291D01*
X115292758Y-107742410D01*
X115344129Y-107697895D01*
X115402734Y-107670568D01*
X115589139Y-107540047D01*
X115750047Y-107379139D01*
X115880568Y-107192734D01*
X115976739Y-106986496D01*
X116035635Y-106766692D01*
X116055468Y-106540000D01*
X116035635Y-106313308D01*
X115990916Y-106146415D01*
X115976741Y-106093511D01*
X115976738Y-106093502D01*
X115880568Y-105887267D01*
X115880567Y-105887265D01*
X115880297Y-105886880D01*
X115750047Y-105700861D01*
X115750045Y-105700858D01*
X115589141Y-105539954D01*
X115402734Y-105409432D01*
X115402728Y-105409429D01*
X115375038Y-105396517D01*
X115344724Y-105382381D01*
X115292285Y-105336210D01*
X115273133Y-105269017D01*
X115293348Y-105202135D01*
X115344725Y-105157618D01*
X115345319Y-105157341D01*
X115402734Y-105130568D01*
X115589139Y-105000047D01*
X115750047Y-104839139D01*
X115880568Y-104652734D01*
X115976739Y-104446496D01*
X116035635Y-104226692D01*
X116055468Y-104000000D01*
X116035635Y-103773308D01*
X115984593Y-103582816D01*
X115976741Y-103553511D01*
X115976738Y-103553502D01*
X115880568Y-103347267D01*
X115880567Y-103347265D01*
X115750045Y-103160858D01*
X115589143Y-102999956D01*
X115579264Y-102993039D01*
X115564535Y-102982725D01*
X115520912Y-102928149D01*
X115513719Y-102858650D01*
X115545241Y-102796296D01*
X115605471Y-102760882D01*
X115622404Y-102757861D01*
X115657483Y-102754091D01*
X115792331Y-102703796D01*
X115907546Y-102617546D01*
X115993796Y-102502331D01*
X116044091Y-102367483D01*
X116050500Y-102307873D01*
X116050499Y-100612128D01*
X116044091Y-100552517D01*
X116033179Y-100523261D01*
X115993797Y-100417671D01*
X115993793Y-100417664D01*
X115907547Y-100302455D01*
X115907544Y-100302452D01*
X115792335Y-100216206D01*
X115792328Y-100216202D01*
X115657482Y-100165908D01*
X115657483Y-100165908D01*
X115597883Y-100159501D01*
X115597881Y-100159500D01*
X115597873Y-100159500D01*
X115597864Y-100159500D01*
X113902129Y-100159500D01*
X113902123Y-100159501D01*
X113842516Y-100165908D01*
X113707671Y-100216202D01*
X113707664Y-100216206D01*
X113592455Y-100302452D01*
X113592452Y-100302455D01*
X113506206Y-100417664D01*
X113506202Y-100417671D01*
X113455908Y-100552517D01*
X113449501Y-100612116D01*
X113449501Y-100612123D01*
X113449500Y-100612135D01*
X113449500Y-102307870D01*
X113449501Y-102307876D01*
X113455908Y-102367483D01*
X113506202Y-102502328D01*
X113506206Y-102502335D01*
X113592452Y-102617544D01*
X113592455Y-102617547D01*
X113707664Y-102703793D01*
X113707671Y-102703797D01*
X113752618Y-102720561D01*
X113842517Y-102754091D01*
X113877596Y-102757862D01*
X113942144Y-102784599D01*
X113981993Y-102841991D01*
X113984488Y-102911816D01*
X113948836Y-102971905D01*
X113935464Y-102982725D01*
X113910858Y-102999954D01*
X113749954Y-103160858D01*
X113619432Y-103347265D01*
X113619431Y-103347267D01*
X113523261Y-103553502D01*
X113523258Y-103553511D01*
X113464366Y-103773302D01*
X113464364Y-103773313D01*
X113444532Y-103999998D01*
X113125500Y-103999998D01*
X113125500Y-97688393D01*
X113125499Y-97688389D01*
X113110259Y-97611772D01*
X113101463Y-97567548D01*
X113083138Y-97523308D01*
X113054312Y-97453714D01*
X113020084Y-97402490D01*
X112985858Y-97351267D01*
X112985856Y-97351264D01*
X112895637Y-97261045D01*
X112895606Y-97261016D01*
X109366513Y-93731923D01*
X109333028Y-93670600D01*
X109331721Y-93624849D01*
X109350500Y-93506287D01*
X109350500Y-93475013D01*
X118900000Y-93475013D01*
X118900000Y-93950000D01*
X119878248Y-93950000D01*
X119869905Y-93958343D01*
X119807370Y-94066657D01*
X119775000Y-94187465D01*
X119775000Y-94312535D01*
X119807370Y-94433343D01*
X119869905Y-94541657D01*
X119878248Y-94550000D01*
X118900001Y-94550000D01*
X118900001Y-95024986D01*
X118910494Y-95127697D01*
X118965641Y-95294119D01*
X118965643Y-95294124D01*
X119057684Y-95443345D01*
X119181654Y-95567315D01*
X119330875Y-95659356D01*
X119330880Y-95659358D01*
X119497302Y-95714505D01*
X119497309Y-95714506D01*
X119600019Y-95724999D01*
X119949999Y-95724999D01*
X119950000Y-95724998D01*
X119950000Y-94621752D01*
X119958343Y-94630095D01*
X120066657Y-94692630D01*
X120187465Y-94725000D01*
X120312535Y-94725000D01*
X120433343Y-94692630D01*
X120541657Y-94630095D01*
X120550000Y-94621752D01*
X120550000Y-95724999D01*
X120899972Y-95724999D01*
X120899986Y-95724998D01*
X121002697Y-95714505D01*
X121169119Y-95659358D01*
X121169124Y-95659356D01*
X121318345Y-95567315D01*
X121442317Y-95443343D01*
X121537815Y-95288516D01*
X121589763Y-95241791D01*
X121658725Y-95230568D01*
X121722808Y-95258412D01*
X121731035Y-95265931D01*
X121870213Y-95405109D01*
X122042179Y-95530048D01*
X122042181Y-95530049D01*
X122042184Y-95530051D01*
X122231588Y-95626557D01*
X122433757Y-95692246D01*
X122643713Y-95725500D01*
X122643714Y-95725500D01*
X122856286Y-95725500D01*
X122856287Y-95725500D01*
X123066243Y-95692246D01*
X123268412Y-95626557D01*
X123457816Y-95530051D01*
X123524524Y-95481585D01*
X123629786Y-95405109D01*
X123629788Y-95405106D01*
X123629792Y-95405104D01*
X123780104Y-95254792D01*
X123899683Y-95090204D01*
X123955011Y-95047540D01*
X124024624Y-95041561D01*
X124086420Y-95074166D01*
X124100313Y-95090199D01*
X124196274Y-95222279D01*
X124219896Y-95254792D01*
X124370213Y-95405109D01*
X124542179Y-95530048D01*
X124542181Y-95530049D01*
X124542184Y-95530051D01*
X124731588Y-95626557D01*
X124933757Y-95692246D01*
X125143713Y-95725500D01*
X125143714Y-95725500D01*
X125356286Y-95725500D01*
X125356287Y-95725500D01*
X125566243Y-95692246D01*
X125768412Y-95626557D01*
X125957816Y-95530051D01*
X126024524Y-95481585D01*
X126129786Y-95405109D01*
X126129788Y-95405106D01*
X126129792Y-95405104D01*
X126280104Y-95254792D01*
X126280106Y-95254788D01*
X126280109Y-95254786D01*
X126405048Y-95082820D01*
X126405047Y-95082820D01*
X126405051Y-95082816D01*
X126501557Y-94893412D01*
X126567246Y-94691243D01*
X126600500Y-94481287D01*
X126600500Y-94018713D01*
X126567246Y-93808757D01*
X126501557Y-93606588D01*
X126405051Y-93417184D01*
X126405049Y-93417181D01*
X126405048Y-93417179D01*
X126280109Y-93245213D01*
X126129786Y-93094890D01*
X125957820Y-92969951D01*
X125768414Y-92873444D01*
X125768413Y-92873443D01*
X125768412Y-92873443D01*
X125566243Y-92807754D01*
X125566241Y-92807753D01*
X125566240Y-92807753D01*
X125404957Y-92782208D01*
X125356287Y-92774500D01*
X125143713Y-92774500D01*
X125095042Y-92782208D01*
X124933760Y-92807753D01*
X124933757Y-92807754D01*
X124804043Y-92849901D01*
X124731585Y-92873444D01*
X124542179Y-92969951D01*
X124370213Y-93094890D01*
X124219894Y-93245209D01*
X124219890Y-93245214D01*
X124100318Y-93409793D01*
X124044989Y-93452459D01*
X123975375Y-93458438D01*
X123913580Y-93425833D01*
X123899682Y-93409793D01*
X123780109Y-93245214D01*
X123780105Y-93245209D01*
X123629786Y-93094890D01*
X123457820Y-92969951D01*
X123268414Y-92873444D01*
X123268413Y-92873443D01*
X123268412Y-92873443D01*
X123066243Y-92807754D01*
X123066241Y-92807753D01*
X123066240Y-92807753D01*
X122904957Y-92782208D01*
X122856287Y-92774500D01*
X122643713Y-92774500D01*
X122595042Y-92782208D01*
X122433760Y-92807753D01*
X122433757Y-92807754D01*
X122304043Y-92849901D01*
X122231585Y-92873444D01*
X122042179Y-92969951D01*
X121870215Y-93094889D01*
X121731035Y-93234069D01*
X121669712Y-93267553D01*
X121600020Y-93262569D01*
X121544087Y-93220697D01*
X121537815Y-93211484D01*
X121442315Y-93056654D01*
X121318345Y-92932684D01*
X121169124Y-92840643D01*
X121169119Y-92840641D01*
X121002697Y-92785494D01*
X121002690Y-92785493D01*
X120899986Y-92775000D01*
X120550000Y-92775000D01*
X120550000Y-93878248D01*
X120541657Y-93869905D01*
X120433343Y-93807370D01*
X120312535Y-93775000D01*
X120187465Y-93775000D01*
X120066657Y-93807370D01*
X119958343Y-93869905D01*
X119950000Y-93878248D01*
X119950000Y-92775000D01*
X119600028Y-92775000D01*
X119600012Y-92775001D01*
X119497302Y-92785494D01*
X119330880Y-92840641D01*
X119330875Y-92840643D01*
X119181654Y-92932684D01*
X119057684Y-93056654D01*
X118965643Y-93205875D01*
X118965641Y-93205880D01*
X118910494Y-93372302D01*
X118910493Y-93372309D01*
X118900000Y-93475013D01*
X109350500Y-93475013D01*
X109350500Y-92993713D01*
X109317246Y-92783757D01*
X109251557Y-92581588D01*
X109155051Y-92392184D01*
X109155049Y-92392181D01*
X109155048Y-92392179D01*
X109030109Y-92220213D01*
X108879786Y-92069890D01*
X108707820Y-91944951D01*
X108518414Y-91848444D01*
X108518413Y-91848443D01*
X108518412Y-91848443D01*
X108316243Y-91782754D01*
X108316241Y-91782753D01*
X108316240Y-91782753D01*
X108154957Y-91757208D01*
X108106287Y-91749500D01*
X107893713Y-91749500D01*
X107845042Y-91757208D01*
X107683760Y-91782753D01*
X107481585Y-91848444D01*
X107292179Y-91944951D01*
X107120215Y-92069889D01*
X106981035Y-92209069D01*
X106919712Y-92242553D01*
X106850020Y-92237569D01*
X106794087Y-92195697D01*
X106787815Y-92186484D01*
X106692315Y-92031654D01*
X106568345Y-91907684D01*
X106419124Y-91815643D01*
X106419119Y-91815641D01*
X106252697Y-91760494D01*
X106252690Y-91760493D01*
X106149986Y-91750000D01*
X106020779Y-91750000D01*
X105953740Y-91730315D01*
X105907985Y-91677511D01*
X105898041Y-91608353D01*
X105927066Y-91544797D01*
X105933084Y-91538333D01*
X113746405Y-83725013D01*
X118900000Y-83725013D01*
X118900000Y-84200000D01*
X119878248Y-84200000D01*
X119869905Y-84208343D01*
X119807370Y-84316657D01*
X119775000Y-84437465D01*
X119775000Y-84562535D01*
X119807370Y-84683343D01*
X119869905Y-84791657D01*
X119878248Y-84800000D01*
X118900001Y-84800000D01*
X118900001Y-85274986D01*
X118910494Y-85377697D01*
X118965641Y-85544119D01*
X118965643Y-85544124D01*
X119057684Y-85693345D01*
X119181654Y-85817315D01*
X119330875Y-85909356D01*
X119330880Y-85909358D01*
X119497302Y-85964505D01*
X119497309Y-85964506D01*
X119600019Y-85974999D01*
X119949999Y-85974999D01*
X119950000Y-85974998D01*
X119950000Y-84871752D01*
X119958343Y-84880095D01*
X120066657Y-84942630D01*
X120187465Y-84975000D01*
X120312535Y-84975000D01*
X120433343Y-84942630D01*
X120541657Y-84880095D01*
X120550000Y-84871752D01*
X120550000Y-85974999D01*
X120899972Y-85974999D01*
X120899986Y-85974998D01*
X121002697Y-85964505D01*
X121169119Y-85909358D01*
X121169124Y-85909356D01*
X121318345Y-85817315D01*
X121442317Y-85693343D01*
X121537815Y-85538516D01*
X121589763Y-85491791D01*
X121658725Y-85480568D01*
X121722808Y-85508412D01*
X121731035Y-85515931D01*
X121870213Y-85655109D01*
X122042179Y-85780048D01*
X122042181Y-85780049D01*
X122042184Y-85780051D01*
X122231588Y-85876557D01*
X122433757Y-85942246D01*
X122643713Y-85975500D01*
X122643714Y-85975500D01*
X122856286Y-85975500D01*
X122856287Y-85975500D01*
X123066243Y-85942246D01*
X123268412Y-85876557D01*
X123457816Y-85780051D01*
X123553492Y-85710539D01*
X123629786Y-85655109D01*
X123629788Y-85655106D01*
X123629792Y-85655104D01*
X123780104Y-85504792D01*
X123899683Y-85340204D01*
X123955011Y-85297540D01*
X124024624Y-85291561D01*
X124086420Y-85324166D01*
X124100313Y-85340199D01*
X124145339Y-85402172D01*
X124219896Y-85504792D01*
X124370213Y-85655109D01*
X124542179Y-85780048D01*
X124542181Y-85780049D01*
X124542184Y-85780051D01*
X124731588Y-85876557D01*
X124933757Y-85942246D01*
X125143713Y-85975500D01*
X125143714Y-85975500D01*
X125356286Y-85975500D01*
X125356287Y-85975500D01*
X125566243Y-85942246D01*
X125768412Y-85876557D01*
X125957816Y-85780051D01*
X126053492Y-85710539D01*
X126129786Y-85655109D01*
X126129788Y-85655106D01*
X126129792Y-85655104D01*
X126280104Y-85504792D01*
X126280106Y-85504788D01*
X126280109Y-85504786D01*
X126405048Y-85332820D01*
X126405047Y-85332820D01*
X126405051Y-85332816D01*
X126501557Y-85143412D01*
X126567246Y-84941243D01*
X126600500Y-84731287D01*
X126600500Y-84268713D01*
X126567246Y-84058757D01*
X126501557Y-83856588D01*
X126405051Y-83667184D01*
X126405049Y-83667181D01*
X126405048Y-83667179D01*
X126280109Y-83495213D01*
X126129786Y-83344890D01*
X125957820Y-83219951D01*
X125768414Y-83123444D01*
X125768413Y-83123443D01*
X125768412Y-83123443D01*
X125566243Y-83057754D01*
X125566241Y-83057753D01*
X125566240Y-83057753D01*
X125404957Y-83032208D01*
X125356287Y-83024500D01*
X125143713Y-83024500D01*
X125095042Y-83032208D01*
X124933760Y-83057753D01*
X124933757Y-83057754D01*
X124755699Y-83115609D01*
X124731585Y-83123444D01*
X124542179Y-83219951D01*
X124370213Y-83344890D01*
X124219894Y-83495209D01*
X124219890Y-83495214D01*
X124100318Y-83659793D01*
X124044989Y-83702459D01*
X123975375Y-83708438D01*
X123913580Y-83675833D01*
X123899682Y-83659793D01*
X123780109Y-83495214D01*
X123780105Y-83495209D01*
X123629786Y-83344890D01*
X123457820Y-83219951D01*
X123268414Y-83123444D01*
X123268413Y-83123443D01*
X123268412Y-83123443D01*
X123066243Y-83057754D01*
X123066241Y-83057753D01*
X123066240Y-83057753D01*
X122904957Y-83032208D01*
X122856287Y-83024500D01*
X122643713Y-83024500D01*
X122595042Y-83032208D01*
X122433760Y-83057753D01*
X122433757Y-83057754D01*
X122255699Y-83115609D01*
X122231585Y-83123444D01*
X122042179Y-83219951D01*
X121870215Y-83344889D01*
X121731035Y-83484069D01*
X121669712Y-83517553D01*
X121600020Y-83512569D01*
X121544087Y-83470697D01*
X121537815Y-83461484D01*
X121442315Y-83306654D01*
X121318345Y-83182684D01*
X121169124Y-83090643D01*
X121169119Y-83090641D01*
X121002697Y-83035494D01*
X121002690Y-83035493D01*
X120899986Y-83025000D01*
X120550000Y-83025000D01*
X120550000Y-84128248D01*
X120541657Y-84119905D01*
X120433343Y-84057370D01*
X120312535Y-84025000D01*
X120187465Y-84025000D01*
X120066657Y-84057370D01*
X119958343Y-84119905D01*
X119950000Y-84128248D01*
X119950000Y-83025000D01*
X119600028Y-83025000D01*
X119600012Y-83025001D01*
X119497302Y-83035494D01*
X119330880Y-83090641D01*
X119330875Y-83090643D01*
X119181654Y-83182684D01*
X119057684Y-83306654D01*
X118965643Y-83455875D01*
X118965641Y-83455880D01*
X118910494Y-83622302D01*
X118910493Y-83622309D01*
X118900000Y-83725013D01*
X113746405Y-83725013D01*
X115384599Y-82086819D01*
X115445922Y-82053334D01*
X115472280Y-82050500D01*
X161367060Y-82050500D01*
X161434099Y-82070185D01*
G37*
%TD.AperFunction*%
%TA.AperFunction,Conductor*%
G36*
X104069334Y-93504596D02*
G01*
X104125267Y-93546468D01*
X104149684Y-93611932D01*
X104150000Y-93620778D01*
X104150000Y-94049971D01*
X104150001Y-94049987D01*
X104160494Y-94152697D01*
X104215641Y-94319119D01*
X104215643Y-94319124D01*
X104307684Y-94468345D01*
X104431654Y-94592315D01*
X104580875Y-94684356D01*
X104580880Y-94684358D01*
X104747302Y-94739505D01*
X104747309Y-94739506D01*
X104850019Y-94749999D01*
X105199999Y-94749999D01*
X105200000Y-94749998D01*
X105200000Y-93654144D01*
X105307007Y-93715925D01*
X105434174Y-93750000D01*
X105565826Y-93750000D01*
X105692993Y-93715925D01*
X105800000Y-93654144D01*
X105800000Y-94749999D01*
X106149972Y-94749999D01*
X106149986Y-94749998D01*
X106252697Y-94739505D01*
X106419119Y-94684358D01*
X106419124Y-94684356D01*
X106568345Y-94592315D01*
X106692317Y-94468343D01*
X106787815Y-94313516D01*
X106839763Y-94266791D01*
X106908725Y-94255568D01*
X106972808Y-94283412D01*
X106981035Y-94290931D01*
X107120213Y-94430109D01*
X107292179Y-94555048D01*
X107292181Y-94555049D01*
X107292184Y-94555051D01*
X107481588Y-94651557D01*
X107683757Y-94717246D01*
X107893713Y-94750500D01*
X107893714Y-94750500D01*
X108106286Y-94750500D01*
X108106287Y-94750500D01*
X108316243Y-94717246D01*
X108445055Y-94675391D01*
X108514893Y-94673397D01*
X108571052Y-94705642D01*
X111838181Y-97972771D01*
X111871666Y-98034094D01*
X111874500Y-98060452D01*
X111874500Y-104190548D01*
X111854815Y-104257587D01*
X111802011Y-104303342D01*
X111732853Y-104313286D01*
X111669297Y-104284261D01*
X111662819Y-104278229D01*
X110613095Y-103228505D01*
X110579610Y-103167182D01*
X110578303Y-103121430D01*
X110600500Y-102981287D01*
X110600500Y-102518713D01*
X110567246Y-102308757D01*
X110501557Y-102106588D01*
X110405051Y-101917184D01*
X110405049Y-101917181D01*
X110405048Y-101917179D01*
X110280109Y-101745213D01*
X110129786Y-101594890D01*
X109957820Y-101469951D01*
X109768414Y-101373444D01*
X109768413Y-101373443D01*
X109768412Y-101373443D01*
X109566243Y-101307754D01*
X109566241Y-101307753D01*
X109566240Y-101307753D01*
X109404957Y-101282208D01*
X109356287Y-101274500D01*
X109143713Y-101274500D01*
X109095042Y-101282208D01*
X108933760Y-101307753D01*
X108731585Y-101373444D01*
X108542179Y-101469951D01*
X108370213Y-101594890D01*
X108219894Y-101745209D01*
X108219890Y-101745214D01*
X108100008Y-101910218D01*
X108044678Y-101952884D01*
X107975065Y-101958863D01*
X107913270Y-101926257D01*
X107899372Y-101910218D01*
X107779727Y-101745540D01*
X107779723Y-101745535D01*
X107629464Y-101595276D01*
X107629459Y-101595272D01*
X107457557Y-101470379D01*
X107268217Y-101373904D01*
X107066124Y-101308241D01*
X107050000Y-101305686D01*
X107050000Y-102378248D01*
X107041657Y-102369905D01*
X106933343Y-102307370D01*
X106812535Y-102275000D01*
X106687465Y-102275000D01*
X106566657Y-102307370D01*
X106458343Y-102369905D01*
X106450000Y-102378248D01*
X106450000Y-101305687D01*
X106449999Y-101305686D01*
X106433875Y-101308241D01*
X106231782Y-101373904D01*
X106042442Y-101470379D01*
X105870541Y-101595271D01*
X105731668Y-101734144D01*
X105670345Y-101767628D01*
X105600653Y-101762644D01*
X105544720Y-101720772D01*
X105538448Y-101711558D01*
X105442712Y-101556344D01*
X105318657Y-101432289D01*
X105318656Y-101432288D01*
X105169334Y-101340186D01*
X105002797Y-101285001D01*
X105002795Y-101285000D01*
X104900010Y-101274500D01*
X103599998Y-101274500D01*
X103599981Y-101274501D01*
X103497203Y-101285000D01*
X103497200Y-101285001D01*
X103330668Y-101340185D01*
X103330663Y-101340187D01*
X103181342Y-101432289D01*
X103057289Y-101556342D01*
X102965187Y-101705663D01*
X102965185Y-101705668D01*
X102961410Y-101717060D01*
X102910001Y-101872203D01*
X102910001Y-101872204D01*
X102910000Y-101872204D01*
X102899500Y-101974983D01*
X102899500Y-103525001D01*
X102899501Y-103525018D01*
X102910000Y-103627796D01*
X102910001Y-103627799D01*
X102951951Y-103754394D01*
X102965186Y-103794334D01*
X103057288Y-103943656D01*
X103181344Y-104067712D01*
X103330666Y-104159814D01*
X103497203Y-104214999D01*
X103599991Y-104225500D01*
X104789546Y-104225499D01*
X104856585Y-104245184D01*
X104877227Y-104261818D01*
X110338181Y-109722771D01*
X110371666Y-109784094D01*
X110374500Y-109810452D01*
X110374500Y-111290242D01*
X110354815Y-111357281D01*
X110302011Y-111403036D01*
X110232853Y-111412980D01*
X110169297Y-111383955D01*
X110162819Y-111377923D01*
X110129786Y-111344890D01*
X109957820Y-111219951D01*
X109768414Y-111123444D01*
X109768413Y-111123443D01*
X109768412Y-111123443D01*
X109566243Y-111057754D01*
X109566241Y-111057753D01*
X109566240Y-111057753D01*
X109404957Y-111032208D01*
X109356287Y-111024500D01*
X109143713Y-111024500D01*
X109095042Y-111032208D01*
X108933760Y-111057753D01*
X108731585Y-111123444D01*
X108542179Y-111219951D01*
X108370213Y-111344890D01*
X108219894Y-111495209D01*
X108219890Y-111495214D01*
X108100318Y-111659793D01*
X108044989Y-111702459D01*
X107975375Y-111708438D01*
X107913580Y-111675833D01*
X107899682Y-111659793D01*
X107780109Y-111495214D01*
X107780105Y-111495209D01*
X107629786Y-111344890D01*
X107457820Y-111219951D01*
X107268414Y-111123444D01*
X107268413Y-111123443D01*
X107268412Y-111123443D01*
X107066243Y-111057754D01*
X107066241Y-111057753D01*
X107066240Y-111057753D01*
X106904957Y-111032208D01*
X106856287Y-111024500D01*
X106643713Y-111024500D01*
X106643708Y-111024500D01*
X106501404Y-111047039D01*
X106432111Y-111038085D01*
X106394325Y-111012247D01*
X102336819Y-106954741D01*
X102303334Y-106893418D01*
X102300500Y-106867060D01*
X102300500Y-95222279D01*
X102320185Y-95155240D01*
X102336814Y-95134603D01*
X103938323Y-93533094D01*
X103999642Y-93499612D01*
X104069334Y-93504596D01*
G37*
%TD.AperFunction*%
%TA.AperFunction,Conductor*%
G36*
X162747430Y-83380953D02*
G01*
X162759390Y-83391468D01*
X163413181Y-84045259D01*
X163446666Y-84106582D01*
X163449500Y-84132940D01*
X163449500Y-88867059D01*
X163429815Y-88934098D01*
X163413181Y-88954740D01*
X159186680Y-93181241D01*
X159125357Y-93214726D01*
X159055665Y-93209742D01*
X158999732Y-93167870D01*
X158975315Y-93102406D01*
X158974999Y-93093560D01*
X158974999Y-92850028D01*
X158974998Y-92850013D01*
X158964505Y-92747302D01*
X158909358Y-92580880D01*
X158909356Y-92580875D01*
X158817315Y-92431654D01*
X158693345Y-92307684D01*
X158544124Y-92215643D01*
X158544119Y-92215641D01*
X158377697Y-92160494D01*
X158377690Y-92160493D01*
X158274986Y-92150000D01*
X157800000Y-92150000D01*
X157800000Y-93128248D01*
X157791657Y-93119905D01*
X157683343Y-93057370D01*
X157562535Y-93025000D01*
X157437465Y-93025000D01*
X157316657Y-93057370D01*
X157208343Y-93119905D01*
X157200000Y-93128248D01*
X157200000Y-92150000D01*
X156725028Y-92150000D01*
X156725012Y-92150001D01*
X156622302Y-92160494D01*
X156455880Y-92215641D01*
X156455875Y-92215643D01*
X156306654Y-92307684D01*
X156182684Y-92431654D01*
X156090643Y-92580875D01*
X156090641Y-92580880D01*
X156035494Y-92747302D01*
X156035493Y-92747309D01*
X156025000Y-92850013D01*
X156025000Y-93200000D01*
X157128248Y-93200000D01*
X157119905Y-93208343D01*
X157057370Y-93316657D01*
X157025000Y-93437465D01*
X157025000Y-93562535D01*
X157057370Y-93683343D01*
X157119905Y-93791657D01*
X157128248Y-93800000D01*
X156025001Y-93800000D01*
X156025001Y-94149986D01*
X156035494Y-94252697D01*
X156090641Y-94419119D01*
X156090643Y-94419124D01*
X156182684Y-94568345D01*
X156306654Y-94692315D01*
X156461484Y-94787815D01*
X156508208Y-94839763D01*
X156519431Y-94908726D01*
X156491587Y-94972808D01*
X156484069Y-94981035D01*
X156344896Y-95120208D01*
X156324422Y-95148386D01*
X156269094Y-95191051D01*
X156224106Y-95199500D01*
X149731940Y-95199500D01*
X149664901Y-95179815D01*
X149619146Y-95127011D01*
X149609202Y-95057853D01*
X149638227Y-94994297D01*
X149644259Y-94987819D01*
X151884776Y-92747302D01*
X158644327Y-85987749D01*
X158705648Y-85954266D01*
X158751399Y-85952959D01*
X158893713Y-85975500D01*
X158893715Y-85975500D01*
X159106286Y-85975500D01*
X159106287Y-85975500D01*
X159316243Y-85942246D01*
X159518412Y-85876557D01*
X159707816Y-85780051D01*
X159803492Y-85710539D01*
X159879786Y-85655109D01*
X159879788Y-85655106D01*
X159879792Y-85655104D01*
X160030104Y-85504792D01*
X160149683Y-85340204D01*
X160205011Y-85297540D01*
X160274624Y-85291561D01*
X160336420Y-85324166D01*
X160350313Y-85340199D01*
X160395339Y-85402172D01*
X160469896Y-85504792D01*
X160620213Y-85655109D01*
X160792179Y-85780048D01*
X160792181Y-85780049D01*
X160792184Y-85780051D01*
X160981588Y-85876557D01*
X161183757Y-85942246D01*
X161393713Y-85975500D01*
X161393714Y-85975500D01*
X161606286Y-85975500D01*
X161606287Y-85975500D01*
X161816243Y-85942246D01*
X162018412Y-85876557D01*
X162207816Y-85780051D01*
X162303492Y-85710539D01*
X162379786Y-85655109D01*
X162379788Y-85655106D01*
X162379792Y-85655104D01*
X162530104Y-85504792D01*
X162530106Y-85504788D01*
X162530109Y-85504786D01*
X162655048Y-85332820D01*
X162655047Y-85332820D01*
X162655051Y-85332816D01*
X162751557Y-85143412D01*
X162817246Y-84941243D01*
X162850500Y-84731287D01*
X162850500Y-84268713D01*
X162817246Y-84058757D01*
X162751557Y-83856588D01*
X162655051Y-83667184D01*
X162622443Y-83622302D01*
X162571391Y-83552034D01*
X162547911Y-83486228D01*
X162563737Y-83418174D01*
X162613843Y-83369479D01*
X162682321Y-83355604D01*
X162747430Y-83380953D01*
G37*
%TD.AperFunction*%
%TD*%
M02*
