%TF.GenerationSoftware,KiCad,Pcbnew,7.0.7*%
%TF.CreationDate,2023-12-09T17:07:56+00:00*%
%TF.ProjectId,Pack Board,5061636b-2042-46f6-9172-642e6b696361,rev?*%
%TF.SameCoordinates,Original*%
%TF.FileFunction,Legend,Bot*%
%TF.FilePolarity,Positive*%
%FSLAX46Y46*%
G04 Gerber Fmt 4.6, Leading zero omitted, Abs format (unit mm)*
G04 Created by KiCad (PCBNEW 7.0.7) date 2023-12-09 17:07:56*
%MOMM*%
%LPD*%
G01*
G04 APERTURE LIST*
G04 Aperture macros list*
%AMRoundRect*
0 Rectangle with rounded corners*
0 $1 Rounding radius*
0 $2 $3 $4 $5 $6 $7 $8 $9 X,Y pos of 4 corners*
0 Add a 4 corners polygon primitive as box body*
4,1,4,$2,$3,$4,$5,$6,$7,$8,$9,$2,$3,0*
0 Add four circle primitives for the rounded corners*
1,1,$1+$1,$2,$3*
1,1,$1+$1,$4,$5*
1,1,$1+$1,$6,$7*
1,1,$1+$1,$8,$9*
0 Add four rect primitives between the rounded corners*
20,1,$1+$1,$2,$3,$4,$5,0*
20,1,$1+$1,$4,$5,$6,$7,0*
20,1,$1+$1,$6,$7,$8,$9,0*
20,1,$1+$1,$8,$9,$2,$3,0*%
G04 Aperture macros list end*
%ADD10O,1.524000X1.524000*%
%ADD11C,1.524000*%
%ADD12C,5.600000*%
%ADD13RoundRect,0.250000X-0.725000X0.600000X-0.725000X-0.600000X0.725000X-0.600000X0.725000X0.600000X0*%
%ADD14O,1.950000X1.700000*%
%ADD15C,1.600000*%
%ADD16O,1.600000X1.600000*%
%ADD17RoundRect,0.250000X-0.600000X-0.725000X0.600000X-0.725000X0.600000X0.725000X-0.600000X0.725000X0*%
%ADD18O,1.700000X1.950000*%
%ADD19RoundRect,0.250000X-0.600000X-0.750000X0.600000X-0.750000X0.600000X0.750000X-0.600000X0.750000X0*%
%ADD20O,1.700000X2.000000*%
%ADD21RoundRect,0.250000X0.600000X0.750000X-0.600000X0.750000X-0.600000X-0.750000X0.600000X-0.750000X0*%
%ADD22RoundRect,0.250000X0.750000X-0.600000X0.750000X0.600000X-0.750000X0.600000X-0.750000X-0.600000X0*%
%ADD23O,2.000000X1.700000*%
%ADD24R,2.600000X2.600000*%
%ADD25C,2.600000*%
%ADD26R,1.600000X1.600000*%
%ADD27RoundRect,0.250000X0.600000X0.725000X-0.600000X0.725000X-0.600000X-0.725000X0.600000X-0.725000X0*%
G04 APERTURE END LIST*
%LPC*%
D10*
%TO.C,U1*%
X138760000Y-105820000D03*
X138760000Y-108360000D03*
X138760000Y-110900000D03*
X138760000Y-113440000D03*
X138760000Y-115980000D03*
X138760000Y-118520000D03*
X138760000Y-121060000D03*
X138760000Y-123600000D03*
X138760000Y-126140000D03*
X138760000Y-128680000D03*
X138760000Y-131220000D03*
X138760000Y-133760000D03*
X138760000Y-136300000D03*
X138760000Y-138840000D03*
X154000000Y-138840000D03*
X154000000Y-136300000D03*
X154000000Y-133760000D03*
X154000000Y-131220000D03*
X154000000Y-128680000D03*
X154000000Y-126140000D03*
X154000000Y-123600000D03*
X154000000Y-121060000D03*
X154000000Y-118520000D03*
X154000000Y-115980000D03*
X154000000Y-113440000D03*
X154000000Y-110900000D03*
X154000000Y-108360000D03*
X154000000Y-105820000D03*
D11*
X157810000Y-127410000D03*
X157810000Y-124870000D03*
X157810000Y-122330000D03*
X157810000Y-119790000D03*
X157810000Y-117250000D03*
X160350000Y-119790000D03*
X160350000Y-117250000D03*
X160350000Y-122330000D03*
X160350000Y-127410000D03*
%TD*%
D12*
%TO.C,REF\u002A\u002A*%
X105000000Y-145000000D03*
%TD*%
D13*
%TO.C,J18*%
X167000000Y-93500000D03*
D14*
X167000000Y-96000000D03*
X167000000Y-98500000D03*
X167000000Y-101000000D03*
%TD*%
D15*
%TO.C,R5*%
X151120000Y-101750000D03*
D16*
X143500000Y-101750000D03*
%TD*%
D17*
%TO.C,J1*%
X120250000Y-84500000D03*
D18*
X122750000Y-84500000D03*
X125250000Y-84500000D03*
%TD*%
D17*
%TO.C,J3*%
X120250000Y-94250000D03*
D18*
X122750000Y-94250000D03*
X125250000Y-94250000D03*
%TD*%
D19*
%TO.C,J16*%
X105500000Y-93250000D03*
D20*
X108000000Y-93250000D03*
%TD*%
D12*
%TO.C,REF\u002A\u002A*%
X170000000Y-85000000D03*
%TD*%
D15*
%TO.C,R2*%
X121500000Y-127870000D03*
D16*
X121500000Y-120250000D03*
%TD*%
D21*
%TO.C,J17*%
X121500000Y-145500000D03*
D20*
X119000000Y-145500000D03*
%TD*%
D22*
%TO.C,J12*%
X168475000Y-117000000D03*
D23*
X168475000Y-114500000D03*
%TD*%
D22*
%TO.C,J11*%
X168500000Y-126000000D03*
D23*
X168500000Y-123500000D03*
%TD*%
D12*
%TO.C,REF\u002A\u002A*%
X170000000Y-145000000D03*
%TD*%
D13*
%TO.C,J9*%
X157500000Y-93500000D03*
D14*
X157500000Y-96000000D03*
X157500000Y-98500000D03*
X157500000Y-101000000D03*
%TD*%
D22*
%TO.C,J10*%
X168500000Y-135000000D03*
D23*
X168500000Y-132500000D03*
%TD*%
D24*
%TO.C,J6*%
X137500000Y-86750000D03*
D25*
X132500000Y-86750000D03*
%TD*%
D26*
%TO.C,U2*%
X114750000Y-101460000D03*
D16*
X114750000Y-104000000D03*
X114750000Y-106540000D03*
X114750000Y-109080000D03*
X114750000Y-111620000D03*
X114750000Y-114160000D03*
X114750000Y-116700000D03*
X122370000Y-116700000D03*
X122370000Y-114160000D03*
X122370000Y-111620000D03*
X122370000Y-109080000D03*
X122370000Y-106540000D03*
X122370000Y-104000000D03*
X122370000Y-101460000D03*
%TD*%
D12*
%TO.C,REF\u002A\u002A*%
X105000000Y-85000000D03*
%TD*%
D26*
%TO.C,C1*%
X106000000Y-135750000D03*
D15*
X108000000Y-135750000D03*
%TD*%
%TO.C,R1*%
X115000000Y-127870000D03*
D16*
X115000000Y-120250000D03*
%TD*%
D17*
%TO.C,J13*%
X104250000Y-112500000D03*
D18*
X106750000Y-112500000D03*
X109250000Y-112500000D03*
%TD*%
D24*
%TO.C,J8*%
X149000000Y-86750000D03*
D25*
X144000000Y-86750000D03*
%TD*%
D24*
%TO.C,J7*%
X106750000Y-122000000D03*
D25*
X106750000Y-127000000D03*
%TD*%
D17*
%TO.C,J15*%
X104250000Y-102750000D03*
D18*
X106750000Y-102750000D03*
X109250000Y-102750000D03*
%TD*%
D15*
%TO.C,R4*%
X151120000Y-97750000D03*
D16*
X143500000Y-97750000D03*
%TD*%
D17*
%TO.C,J14*%
X156500000Y-84500000D03*
D18*
X159000000Y-84500000D03*
X161500000Y-84500000D03*
%TD*%
D27*
%TO.C,J2*%
X155500000Y-145500000D03*
D18*
X153000000Y-145500000D03*
X150500000Y-145500000D03*
%TD*%
D15*
%TO.C,R3*%
X118250000Y-127870000D03*
D16*
X118250000Y-120250000D03*
%TD*%
%LPD*%
M02*
