M48
; DRILL file {KiCad 8.0.3} date 2024-07-25T19:58:28+0100
; FORMAT={-:-/ absolute / metric / decimal}
; #@! TF.CreationDate,2024-07-25T19:58:28+01:00
; #@! TF.GenerationSoftware,Kicad,Pcbnew,8.0.3
; #@! TF.FileFunction,Plated,1,2,PTH
FMAT,2
METRIC
; #@! TA.AperFunction,Plated,PTH,ComponentDrill
T1C0.800
; #@! TA.AperFunction,Plated,PTH,ComponentDrill
T2C0.950
; #@! TA.AperFunction,Plated,PTH,ComponentDrill
T3C1.000
; #@! TA.AperFunction,Plated,PTH,ComponentDrill
T4C1.016
; #@! TA.AperFunction,Plated,PTH,ComponentDrill
T5C1.300
; #@! TA.AperFunction,Plated,PTH,ComponentDrill
T6C3.200
%
G90
G05
T1
X105.62Y-135.88
X107.62Y-135.88
X112.7Y-139.055
X115.24Y-117.465
X115.24Y-120.005
X115.24Y-122.545
X115.24Y-125.085
X115.24Y-127.625
X115.24Y-130.165
X115.24Y-132.705
X120.32Y-139.055
X122.86Y-117.465
X122.86Y-120.005
X122.86Y-122.545
X122.86Y-125.085
X122.86Y-127.625
X122.86Y-130.165
X122.86Y-132.705
X140.005Y-95.24
X140.005Y-100.32
X147.625Y-95.24
X147.625Y-100.32
T2
X104.25Y-102.225
X104.25Y-112.5
X106.75Y-102.225
X106.75Y-112.5
X109.25Y-102.225
X109.25Y-112.5
X116.59Y-84.445
X116.59Y-95.82
X119.09Y-84.445
X119.09Y-95.82
X121.59Y-84.445
X121.59Y-95.82
X122.86Y-144.135
X125.36Y-144.135
X127.86Y-144.135
X130.36Y-144.135
X154.61Y-84.445
X157.11Y-84.445
X157.785Y-92.82
X157.785Y-95.32
X157.785Y-97.82
X157.785Y-100.32
X159.61Y-84.445
X169.215Y-92.82
X169.215Y-95.32
X169.215Y-97.82
X169.215Y-100.32
T3
X105.5Y-92.065
X108.0Y-92.065
X112.74Y-144.135
X115.24Y-144.135
X117.82Y-108.575
X120.32Y-108.575
X169.74Y-134.63
X169.74Y-137.13
X169.85Y-114.33
X169.85Y-116.83
X169.85Y-124.49
X169.85Y-126.99
T4
X138.1Y-105.4
X138.1Y-107.94
X138.1Y-110.48
X138.1Y-113.02
X138.1Y-115.56
X138.1Y-118.1
X138.1Y-120.64
X138.1Y-123.18
X138.1Y-125.72
X138.1Y-128.26
X138.1Y-130.8
X138.1Y-133.34
X138.1Y-135.88
X138.1Y-138.42
X153.34Y-105.4
X153.34Y-107.94
X153.34Y-110.48
X153.34Y-113.02
X153.34Y-115.56
X153.34Y-118.1
X153.34Y-120.64
X153.34Y-123.18
X153.34Y-125.72
X153.34Y-128.26
X153.34Y-130.8
X153.34Y-133.34
X153.34Y-135.88
X153.34Y-138.42
X157.15Y-116.83
X157.15Y-119.37
X157.15Y-121.91
X157.15Y-124.45
X157.15Y-126.99
X159.69Y-116.83
X159.69Y-119.37
X159.69Y-121.91
X159.69Y-126.99
T5
X106.75Y-122.0
X106.75Y-127.0
X129.845Y-86.35
X134.845Y-86.35
X141.91Y-86.35
X146.91Y-86.35
T6
X104.445Y-84.445
X104.445Y-145.405
X171.755Y-84.445
X171.755Y-145.405
M30
