%TF.GenerationSoftware,KiCad,Pcbnew,8.0.3*%
%TF.CreationDate,2024-07-25T19:58:29+01:00*%
%TF.ProjectId,Pack Board,5061636b-2042-46f6-9172-642e6b696361,rev?*%
%TF.SameCoordinates,Original*%
%TF.FileFunction,Drillmap*%
%TF.FilePolarity,Positive*%
%FSLAX45Y45*%
G04 Gerber Fmt 4.5, Leading zero omitted, Abs format (unit mm)*
G04 Created by KiCad (PCBNEW 8.0.3) date 2024-07-25 19:58:29*
%MOMM*%
%LPD*%
G01*
G04 APERTURE LIST*
%ADD10C,0.100000*%
%ADD11C,0.200000*%
G04 APERTURE END LIST*
D10*
X17620000Y-14540500D02*
G75*
G02*
X17175500Y-14985000I-444500J0D01*
G01*
X17175500Y-8000000D02*
G75*
G02*
X17620000Y-8444500I0J-444500D01*
G01*
X10000000Y-14540500D02*
X10000000Y-8444500D01*
X10444500Y-14985000D02*
G75*
G02*
X10000000Y-14540500I0J444500D01*
G01*
X10444500Y-14985000D02*
X17175500Y-14985000D01*
X17620000Y-14540500D02*
X17620000Y-8444500D01*
X10444500Y-8000000D02*
X17175500Y-8000000D01*
X10000000Y-8444500D02*
G75*
G02*
X10444500Y-8000000I444500J0D01*
G01*
D11*
X10255777Y-15301484D02*
X10255777Y-15101484D01*
X10255777Y-15101484D02*
X10303396Y-15101484D01*
X10303396Y-15101484D02*
X10331967Y-15111008D01*
X10331967Y-15111008D02*
X10351015Y-15130055D01*
X10351015Y-15130055D02*
X10360539Y-15149103D01*
X10360539Y-15149103D02*
X10370063Y-15187198D01*
X10370063Y-15187198D02*
X10370063Y-15215769D01*
X10370063Y-15215769D02*
X10360539Y-15253865D01*
X10360539Y-15253865D02*
X10351015Y-15272912D01*
X10351015Y-15272912D02*
X10331967Y-15291960D01*
X10331967Y-15291960D02*
X10303396Y-15301484D01*
X10303396Y-15301484D02*
X10255777Y-15301484D01*
X10455777Y-15301484D02*
X10455777Y-15168150D01*
X10455777Y-15206246D02*
X10465301Y-15187198D01*
X10465301Y-15187198D02*
X10474824Y-15177674D01*
X10474824Y-15177674D02*
X10493872Y-15168150D01*
X10493872Y-15168150D02*
X10512920Y-15168150D01*
X10579586Y-15301484D02*
X10579586Y-15168150D01*
X10579586Y-15101484D02*
X10570063Y-15111008D01*
X10570063Y-15111008D02*
X10579586Y-15120531D01*
X10579586Y-15120531D02*
X10589110Y-15111008D01*
X10589110Y-15111008D02*
X10579586Y-15101484D01*
X10579586Y-15101484D02*
X10579586Y-15120531D01*
X10703396Y-15301484D02*
X10684348Y-15291960D01*
X10684348Y-15291960D02*
X10674824Y-15272912D01*
X10674824Y-15272912D02*
X10674824Y-15101484D01*
X10808158Y-15301484D02*
X10789110Y-15291960D01*
X10789110Y-15291960D02*
X10779586Y-15272912D01*
X10779586Y-15272912D02*
X10779586Y-15101484D01*
X11036729Y-15301484D02*
X11036729Y-15101484D01*
X11036729Y-15101484D02*
X11103396Y-15244341D01*
X11103396Y-15244341D02*
X11170063Y-15101484D01*
X11170063Y-15101484D02*
X11170063Y-15301484D01*
X11351015Y-15301484D02*
X11351015Y-15196722D01*
X11351015Y-15196722D02*
X11341491Y-15177674D01*
X11341491Y-15177674D02*
X11322443Y-15168150D01*
X11322443Y-15168150D02*
X11284348Y-15168150D01*
X11284348Y-15168150D02*
X11265301Y-15177674D01*
X11351015Y-15291960D02*
X11331967Y-15301484D01*
X11331967Y-15301484D02*
X11284348Y-15301484D01*
X11284348Y-15301484D02*
X11265301Y-15291960D01*
X11265301Y-15291960D02*
X11255777Y-15272912D01*
X11255777Y-15272912D02*
X11255777Y-15253865D01*
X11255777Y-15253865D02*
X11265301Y-15234817D01*
X11265301Y-15234817D02*
X11284348Y-15225293D01*
X11284348Y-15225293D02*
X11331967Y-15225293D01*
X11331967Y-15225293D02*
X11351015Y-15215769D01*
X11446253Y-15168150D02*
X11446253Y-15368150D01*
X11446253Y-15177674D02*
X11465301Y-15168150D01*
X11465301Y-15168150D02*
X11503396Y-15168150D01*
X11503396Y-15168150D02*
X11522443Y-15177674D01*
X11522443Y-15177674D02*
X11531967Y-15187198D01*
X11531967Y-15187198D02*
X11541491Y-15206246D01*
X11541491Y-15206246D02*
X11541491Y-15263388D01*
X11541491Y-15263388D02*
X11531967Y-15282436D01*
X11531967Y-15282436D02*
X11522443Y-15291960D01*
X11522443Y-15291960D02*
X11503396Y-15301484D01*
X11503396Y-15301484D02*
X11465301Y-15301484D01*
X11465301Y-15301484D02*
X11446253Y-15291960D01*
X11627205Y-15282436D02*
X11636729Y-15291960D01*
X11636729Y-15291960D02*
X11627205Y-15301484D01*
X11627205Y-15301484D02*
X11617682Y-15291960D01*
X11617682Y-15291960D02*
X11627205Y-15282436D01*
X11627205Y-15282436D02*
X11627205Y-15301484D01*
X11627205Y-15177674D02*
X11636729Y-15187198D01*
X11636729Y-15187198D02*
X11627205Y-15196722D01*
X11627205Y-15196722D02*
X11617682Y-15187198D01*
X11617682Y-15187198D02*
X11627205Y-15177674D01*
X11627205Y-15177674D02*
X11627205Y-15196722D01*
M02*
