M48
; DRILL file {KiCad 7.0.7} date Sat Dec  9 17:07:58 2023
; FORMAT={-:-/ absolute / metric / decimal}
; #@! TF.CreationDate,2023-12-09T17:07:58+00:00
; #@! TF.GenerationSoftware,Kicad,Pcbnew,7.0.7
; #@! TF.FileFunction,Plated,1,2,PTH
FMAT,2
METRIC
; #@! TA.AperFunction,Plated,PTH,ComponentDrill
T1C0.800
; #@! TA.AperFunction,Plated,PTH,ComponentDrill
T2C0.950
; #@! TA.AperFunction,Plated,PTH,ComponentDrill
T3C1.000
; #@! TA.AperFunction,Plated,PTH,ComponentDrill
T4C1.016
; #@! TA.AperFunction,Plated,PTH,ComponentDrill
T5C1.300
; #@! TA.AperFunction,Plated,PTH,ComponentDrill
T6C3.200
%
G90
G05
T1
X106.0Y-135.75
X108.0Y-135.75
X114.75Y-101.46
X114.75Y-104.0
X114.75Y-106.54
X114.75Y-109.08
X114.75Y-111.62
X114.75Y-114.16
X114.75Y-116.7
X115.0Y-120.25
X115.0Y-127.87
X118.25Y-120.25
X118.25Y-127.87
X121.5Y-120.25
X121.5Y-127.87
X122.37Y-101.46
X122.37Y-104.0
X122.37Y-106.54
X122.37Y-109.08
X122.37Y-111.62
X122.37Y-114.16
X122.37Y-116.7
X143.5Y-97.75
X143.5Y-101.75
X151.12Y-97.75
X151.12Y-101.75
T2
X104.25Y-102.75
X104.25Y-112.5
X106.75Y-102.75
X106.75Y-112.5
X109.25Y-102.75
X109.25Y-112.5
X120.25Y-84.5
X120.25Y-94.25
X122.75Y-84.5
X122.75Y-94.25
X125.25Y-84.5
X125.25Y-94.25
X150.5Y-145.5
X153.0Y-145.5
X155.5Y-145.5
X156.5Y-84.5
X157.5Y-93.5
X157.5Y-96.0
X157.5Y-98.5
X157.5Y-101.0
X159.0Y-84.5
X161.5Y-84.5
X167.0Y-93.5
X167.0Y-96.0
X167.0Y-98.5
X167.0Y-101.0
T3
X105.5Y-93.25
X108.0Y-93.25
X119.0Y-145.5
X121.5Y-145.5
X168.475Y-114.5
X168.475Y-117.0
X168.5Y-123.5
X168.5Y-126.0
X168.5Y-132.5
X168.5Y-135.0
T4
X138.76Y-105.82
X138.76Y-108.36
X138.76Y-110.9
X138.76Y-113.44
X138.76Y-115.98
X138.76Y-118.52
X138.76Y-121.06
X138.76Y-123.6
X138.76Y-126.14
X138.76Y-128.68
X138.76Y-131.22
X138.76Y-133.76
X138.76Y-136.3
X138.76Y-138.84
X154.0Y-105.82
X154.0Y-108.36
X154.0Y-110.9
X154.0Y-113.44
X154.0Y-115.98
X154.0Y-118.52
X154.0Y-121.06
X154.0Y-123.6
X154.0Y-126.14
X154.0Y-128.68
X154.0Y-131.22
X154.0Y-133.76
X154.0Y-136.3
X154.0Y-138.84
X157.81Y-117.25
X157.81Y-119.79
X157.81Y-122.33
X157.81Y-124.87
X157.81Y-127.41
X160.35Y-117.25
X160.35Y-119.79
X160.35Y-122.33
X160.35Y-127.41
T5
X106.75Y-122.0
X106.75Y-127.0
X132.5Y-86.75
X137.5Y-86.75
X144.0Y-86.75
X149.0Y-86.75
T6
X105.0Y-85.0
X105.0Y-145.0
X170.0Y-85.0
X170.0Y-145.0
T0
M30
