%TF.GenerationSoftware,KiCad,Pcbnew,7.0.7*%
%TF.CreationDate,2023-12-09T17:07:56+00:00*%
%TF.ProjectId,Pack Board,5061636b-2042-46f6-9172-642e6b696361,rev?*%
%TF.SameCoordinates,Original*%
%TF.FileFunction,Copper,L2,Bot*%
%TF.FilePolarity,Positive*%
%FSLAX46Y46*%
G04 Gerber Fmt 4.6, Leading zero omitted, Abs format (unit mm)*
G04 Created by KiCad (PCBNEW 7.0.7) date 2023-12-09 17:07:56*
%MOMM*%
%LPD*%
G01*
G04 APERTURE LIST*
G04 Aperture macros list*
%AMRoundRect*
0 Rectangle with rounded corners*
0 $1 Rounding radius*
0 $2 $3 $4 $5 $6 $7 $8 $9 X,Y pos of 4 corners*
0 Add a 4 corners polygon primitive as box body*
4,1,4,$2,$3,$4,$5,$6,$7,$8,$9,$2,$3,0*
0 Add four circle primitives for the rounded corners*
1,1,$1+$1,$2,$3*
1,1,$1+$1,$4,$5*
1,1,$1+$1,$6,$7*
1,1,$1+$1,$8,$9*
0 Add four rect primitives between the rounded corners*
20,1,$1+$1,$2,$3,$4,$5,0*
20,1,$1+$1,$4,$5,$6,$7,0*
20,1,$1+$1,$6,$7,$8,$9,0*
20,1,$1+$1,$8,$9,$2,$3,0*%
G04 Aperture macros list end*
%TA.AperFunction,ComponentPad*%
%ADD10O,1.524000X1.524000*%
%TD*%
%TA.AperFunction,ComponentPad*%
%ADD11C,1.524000*%
%TD*%
%TA.AperFunction,ComponentPad*%
%ADD12C,5.600000*%
%TD*%
%TA.AperFunction,ComponentPad*%
%ADD13RoundRect,0.250000X-0.725000X0.600000X-0.725000X-0.600000X0.725000X-0.600000X0.725000X0.600000X0*%
%TD*%
%TA.AperFunction,ComponentPad*%
%ADD14O,1.950000X1.700000*%
%TD*%
%TA.AperFunction,ComponentPad*%
%ADD15C,1.600000*%
%TD*%
%TA.AperFunction,ComponentPad*%
%ADD16O,1.600000X1.600000*%
%TD*%
%TA.AperFunction,ComponentPad*%
%ADD17RoundRect,0.250000X-0.600000X-0.725000X0.600000X-0.725000X0.600000X0.725000X-0.600000X0.725000X0*%
%TD*%
%TA.AperFunction,ComponentPad*%
%ADD18O,1.700000X1.950000*%
%TD*%
%TA.AperFunction,ComponentPad*%
%ADD19RoundRect,0.250000X-0.600000X-0.750000X0.600000X-0.750000X0.600000X0.750000X-0.600000X0.750000X0*%
%TD*%
%TA.AperFunction,ComponentPad*%
%ADD20O,1.700000X2.000000*%
%TD*%
%TA.AperFunction,ComponentPad*%
%ADD21RoundRect,0.250000X0.600000X0.750000X-0.600000X0.750000X-0.600000X-0.750000X0.600000X-0.750000X0*%
%TD*%
%TA.AperFunction,ComponentPad*%
%ADD22RoundRect,0.250000X0.750000X-0.600000X0.750000X0.600000X-0.750000X0.600000X-0.750000X-0.600000X0*%
%TD*%
%TA.AperFunction,ComponentPad*%
%ADD23O,2.000000X1.700000*%
%TD*%
%TA.AperFunction,ComponentPad*%
%ADD24R,2.600000X2.600000*%
%TD*%
%TA.AperFunction,ComponentPad*%
%ADD25C,2.600000*%
%TD*%
%TA.AperFunction,ComponentPad*%
%ADD26R,1.600000X1.600000*%
%TD*%
%TA.AperFunction,ComponentPad*%
%ADD27RoundRect,0.250000X0.600000X0.725000X-0.600000X0.725000X-0.600000X-0.725000X0.600000X-0.725000X0*%
%TD*%
%TA.AperFunction,Conductor*%
%ADD28C,0.600000*%
%TD*%
%TA.AperFunction,Conductor*%
%ADD29C,0.250000*%
%TD*%
%TA.AperFunction,Conductor*%
%ADD30C,0.400000*%
%TD*%
%TA.AperFunction,Conductor*%
%ADD31C,0.500000*%
%TD*%
G04 APERTURE END LIST*
D10*
%TO.P,U1,1,GND*%
%TO.N,GND*%
X138760000Y-105820000D03*
%TO.P,U1,2,0_RX1_CRX2_CS1*%
%TO.N,/RX*%
X138760000Y-108360000D03*
%TO.P,U1,3,1_TX1_CTX2_MISO1*%
%TO.N,/TX*%
X138760000Y-110900000D03*
%TO.P,U1,4,2_OUT2*%
%TO.N,Net-(J16-Pin_2)*%
X138760000Y-113440000D03*
%TO.P,U1,5,3_LRCLK2*%
%TO.N,Net-(J15-Pin_3)*%
X138760000Y-115980000D03*
%TO.P,U1,6,4_BCLK2*%
%TO.N,Net-(J15-Pin_1)*%
X138760000Y-118520000D03*
%TO.P,U1,7,5_IN2*%
%TO.N,Net-(J14-Pin_3)*%
X138760000Y-121060000D03*
%TO.P,U1,8,6_OUT1D*%
%TO.N,unconnected-(U1-6_OUT1D-Pad8)*%
X138760000Y-123600000D03*
%TO.P,U1,9,7_RX2_OUT1A*%
%TO.N,unconnected-(U1-7_RX2_OUT1A-Pad9)*%
X138760000Y-126140000D03*
%TO.P,U1,10,8_TX2_IN1*%
%TO.N,unconnected-(U1-8_TX2_IN1-Pad10)*%
X138760000Y-128680000D03*
%TO.P,U1,11,9_OUT1C*%
%TO.N,Net-(J13-Pin_3)*%
X138760000Y-131220000D03*
%TO.P,U1,12,10_CS_MQSR*%
%TO.N,unconnected-(U1-10_CS_MQSR-Pad12)*%
X138760000Y-133760000D03*
%TO.P,U1,13,11_MOSI_CTX1*%
%TO.N,unconnected-(U1-11_MOSI_CTX1-Pad13)*%
X138760000Y-136300000D03*
%TO.P,U1,14,12_MISO_MQSL*%
%TO.N,unconnected-(U1-12_MISO_MQSL-Pad14)*%
X138760000Y-138840000D03*
%TO.P,U1,17,13_SCK_CRX1_LED*%
%TO.N,unconnected-(U1-13_SCK_CRX1_LED-Pad17)*%
X154000000Y-138840000D03*
%TO.P,U1,18,14_A0_TX3_SPDIF_OUT*%
%TO.N,Net-(U1-14_A0_TX3_SPDIF_OUT)*%
X154000000Y-136300000D03*
%TO.P,U1,19,15_A1_RX3_SPDIF_IN_VOL*%
%TO.N,unconnected-(U1-15_A1_RX3_SPDIF_IN_VOL-Pad19)*%
X154000000Y-133760000D03*
%TO.P,U1,20,16_A2_RX4_SCL1*%
%TO.N,Net-(U1-16_A2_RX4_SCL1)*%
X154000000Y-131220000D03*
%TO.P,U1,21,17_A3_TX4_SDA1*%
%TO.N,Net-(U1-17_A3_TX4_SDA1)*%
X154000000Y-128680000D03*
%TO.P,U1,22,18_A4_SDA0*%
%TO.N,/SDA*%
X154000000Y-126140000D03*
%TO.P,U1,23,19_A5_SCL0*%
%TO.N,Net-(J18-Pin_4)*%
X154000000Y-123600000D03*
%TO.P,U1,24,20_A6_TX5_LRCLK1*%
%TO.N,unconnected-(U1-20_A6_TX5_LRCLK1-Pad24)*%
X154000000Y-121060000D03*
%TO.P,U1,25,21_A7_RX5_BCLK1*%
%TO.N,unconnected-(U1-21_A7_RX5_BCLK1-Pad25)*%
X154000000Y-118520000D03*
%TO.P,U1,26,22_A8_CTX1*%
%TO.N,Net-(J17-Pin_2)*%
X154000000Y-115980000D03*
%TO.P,U1,27,23_A9_CRX1_MCLK1*%
%TO.N,unconnected-(U1-23_A9_CRX1_MCLK1-Pad27)*%
X154000000Y-113440000D03*
%TO.P,U1,28,3V*%
%TO.N,+3.3V*%
X154000000Y-110900000D03*
%TO.P,U1,29,GND*%
%TO.N,GND*%
X154000000Y-108360000D03*
%TO.P,U1,30,5V*%
%TO.N,+5V*%
X154000000Y-105820000D03*
D11*
%TO.P,U1,31,LINE_OUT_L*%
%TO.N,/LINE_OUT_L*%
X157810000Y-127410000D03*
%TO.P,U1,32,LINE_OUT_GND*%
%TO.N,/LINE_OUT_GND*%
X157810000Y-124870000D03*
%TO.P,U1,33,LINE_OUT_R*%
%TO.N,unconnected-(U1-LINE_OUT_R-Pad33)*%
X157810000Y-122330000D03*
%TO.P,U1,34,LINE_IN_R*%
%TO.N,/LINE_IN_R*%
X157810000Y-119790000D03*
%TO.P,U1,35,LINE_IN_L*%
%TO.N,/LINE_IN_L*%
X157810000Y-117250000D03*
%TO.P,U1,36,LINE_IN_R_GND*%
%TO.N,/LINE_IN_R_GND*%
X160350000Y-119790000D03*
%TO.P,U1,37,LINE_IN_L_GND*%
%TO.N,/LINE_IN_L_GND*%
X160350000Y-117250000D03*
%TO.P,U1,45,NCB*%
%TO.N,unconnected-(U1-NCB-Pad45)*%
X160350000Y-122330000D03*
%TO.P,U1,46,NCA*%
%TO.N,/LINE_OUT_L*%
X160350000Y-127410000D03*
%TD*%
D12*
%TO.P,REF\u002A\u002A,1*%
%TO.N,N/C*%
X105000000Y-145000000D03*
%TD*%
D13*
%TO.P,J18,1,Pin_1*%
%TO.N,GND*%
X167000000Y-93500000D03*
D14*
%TO.P,J18,2,Pin_2*%
%TO.N,+3.3V*%
X167000000Y-96000000D03*
%TO.P,J18,3,Pin_3*%
%TO.N,/SDA*%
X167000000Y-98500000D03*
%TO.P,J18,4,Pin_4*%
%TO.N,Net-(J18-Pin_4)*%
X167000000Y-101000000D03*
%TD*%
D15*
%TO.P,R5,1*%
%TO.N,Net-(J18-Pin_4)*%
X151120000Y-101750000D03*
D16*
%TO.P,R5,2*%
%TO.N,+3.3V*%
X143500000Y-101750000D03*
%TD*%
D17*
%TO.P,J1,1,Pin_1*%
%TO.N,GND*%
X120250000Y-84500000D03*
D18*
%TO.P,J1,2,Pin_2*%
%TO.N,+5V*%
X122750000Y-84500000D03*
%TO.P,J1,3,Pin_3*%
%TO.N,Net-(J1-Pin_3)*%
X125250000Y-84500000D03*
%TD*%
D17*
%TO.P,J3,1,Pin_1*%
%TO.N,GND*%
X120250000Y-94250000D03*
D18*
%TO.P,J3,2,Pin_2*%
%TO.N,+5V*%
X122750000Y-94250000D03*
%TO.P,J3,3,Pin_3*%
%TO.N,Net-(J3-Pin_3)*%
X125250000Y-94250000D03*
%TD*%
D19*
%TO.P,J16,1,Pin_1*%
%TO.N,GND*%
X105500000Y-93250000D03*
D20*
%TO.P,J16,2,Pin_2*%
%TO.N,Net-(J16-Pin_2)*%
X108000000Y-93250000D03*
%TD*%
D12*
%TO.P,REF\u002A\u002A,1*%
%TO.N,N/C*%
X170000000Y-85000000D03*
%TD*%
D15*
%TO.P,R2,1*%
%TO.N,Net-(J2-Pin_3)*%
X121500000Y-127870000D03*
D16*
%TO.P,R2,2*%
%TO.N,Net-(U2-3Y)*%
X121500000Y-120250000D03*
%TD*%
D21*
%TO.P,J17,1,Pin_1*%
%TO.N,GND*%
X121500000Y-145500000D03*
D20*
%TO.P,J17,2,Pin_2*%
%TO.N,Net-(J17-Pin_2)*%
X119000000Y-145500000D03*
%TD*%
D22*
%TO.P,J12,1,Pin_1*%
%TO.N,/LINE_IN_L_GND*%
X168475000Y-117000000D03*
D23*
%TO.P,J12,2,Pin_2*%
%TO.N,/LINE_IN_L*%
X168475000Y-114500000D03*
%TD*%
D22*
%TO.P,J11,1,Pin_1*%
%TO.N,/LINE_IN_R_GND*%
X168500000Y-126000000D03*
D23*
%TO.P,J11,2,Pin_2*%
%TO.N,/LINE_IN_R*%
X168500000Y-123500000D03*
%TD*%
D12*
%TO.P,REF\u002A\u002A,1*%
%TO.N,N/C*%
X170000000Y-145000000D03*
%TD*%
D13*
%TO.P,J9,1,Pin_1*%
%TO.N,GND*%
X157500000Y-93500000D03*
D14*
%TO.P,J9,2,Pin_2*%
%TO.N,+3.3V*%
X157500000Y-96000000D03*
%TO.P,J9,3,Pin_3*%
%TO.N,/SDA*%
X157500000Y-98500000D03*
%TO.P,J9,4,Pin_4*%
%TO.N,Net-(J18-Pin_4)*%
X157500000Y-101000000D03*
%TD*%
D22*
%TO.P,J10,1,Pin_1*%
%TO.N,/LINE_OUT_GND*%
X168500000Y-135000000D03*
D23*
%TO.P,J10,2,Pin_2*%
%TO.N,/LINE_OUT_L*%
X168500000Y-132500000D03*
%TD*%
D24*
%TO.P,J6,1,Pin_1*%
%TO.N,/TX*%
X137500000Y-86750000D03*
D25*
%TO.P,J6,2,Pin_2*%
%TO.N,/RX*%
X132500000Y-86750000D03*
%TD*%
D26*
%TO.P,U2,1,1OE*%
%TO.N,unconnected-(U2-1OE-Pad1)*%
X114750000Y-101460000D03*
D16*
%TO.P,U2,2,1A*%
%TO.N,unconnected-(U2-1A-Pad2)*%
X114750000Y-104000000D03*
%TO.P,U2,3,1Y*%
%TO.N,unconnected-(U2-1Y-Pad3)*%
X114750000Y-106540000D03*
%TO.P,U2,4,2OE*%
%TO.N,GND*%
X114750000Y-109080000D03*
%TO.P,U2,5,2A*%
%TO.N,Net-(U1-14_A0_TX3_SPDIF_OUT)*%
X114750000Y-111620000D03*
%TO.P,U2,6,2Y*%
%TO.N,Net-(U2-2Y)*%
X114750000Y-114160000D03*
%TO.P,U2,7,GND*%
%TO.N,GND*%
X114750000Y-116700000D03*
%TO.P,U2,8,3Y*%
%TO.N,Net-(U2-3Y)*%
X122370000Y-116700000D03*
%TO.P,U2,9,3A*%
%TO.N,Net-(U1-16_A2_RX4_SCL1)*%
X122370000Y-114160000D03*
%TO.P,U2,10,3OE*%
%TO.N,GND*%
X122370000Y-111620000D03*
%TO.P,U2,11,4Y*%
%TO.N,Net-(U2-4Y)*%
X122370000Y-109080000D03*
%TO.P,U2,12,4A*%
%TO.N,Net-(U1-17_A3_TX4_SDA1)*%
X122370000Y-106540000D03*
%TO.P,U2,13,4OE*%
%TO.N,GND*%
X122370000Y-104000000D03*
%TO.P,U2,14,VCC*%
%TO.N,+5V*%
X122370000Y-101460000D03*
%TD*%
D12*
%TO.P,REF\u002A\u002A,1*%
%TO.N,N/C*%
X105000000Y-85000000D03*
%TD*%
D26*
%TO.P,C1,1*%
%TO.N,+5V*%
X106000000Y-135750000D03*
D15*
%TO.P,C1,2*%
%TO.N,GND*%
X108000000Y-135750000D03*
%TD*%
%TO.P,R1,1*%
%TO.N,Net-(J1-Pin_3)*%
X115000000Y-127870000D03*
D16*
%TO.P,R1,2*%
%TO.N,Net-(U2-2Y)*%
X115000000Y-120250000D03*
%TD*%
D17*
%TO.P,J13,1,Pin_1*%
%TO.N,GND*%
X104250000Y-112500000D03*
D18*
%TO.P,J13,2,Pin_2*%
%TO.N,+3.3V*%
X106750000Y-112500000D03*
%TO.P,J13,3,Pin_3*%
%TO.N,Net-(J13-Pin_3)*%
X109250000Y-112500000D03*
%TD*%
D24*
%TO.P,J8,1,Pin_1*%
%TO.N,GND*%
X149000000Y-86750000D03*
D25*
%TO.P,J8,2,Pin_2*%
%TO.N,+5V*%
X144000000Y-86750000D03*
%TD*%
D24*
%TO.P,J7,1,Pin_1*%
%TO.N,GND*%
X106750000Y-122000000D03*
D25*
%TO.P,J7,2,Pin_2*%
%TO.N,+5V*%
X106750000Y-127000000D03*
%TD*%
D17*
%TO.P,J15,1,Pin_1*%
%TO.N,Net-(J15-Pin_1)*%
X104250000Y-102750000D03*
D18*
%TO.P,J15,2,Pin_2*%
%TO.N,GND*%
X106750000Y-102750000D03*
%TO.P,J15,3,Pin_3*%
%TO.N,Net-(J15-Pin_3)*%
X109250000Y-102750000D03*
%TD*%
D15*
%TO.P,R4,1*%
%TO.N,/SDA*%
X151120000Y-97750000D03*
D16*
%TO.P,R4,2*%
%TO.N,+3.3V*%
X143500000Y-97750000D03*
%TD*%
D17*
%TO.P,J14,1,Pin_1*%
%TO.N,GND*%
X156500000Y-84500000D03*
D18*
%TO.P,J14,2,Pin_2*%
%TO.N,+3.3V*%
X159000000Y-84500000D03*
%TO.P,J14,3,Pin_3*%
%TO.N,Net-(J14-Pin_3)*%
X161500000Y-84500000D03*
%TD*%
D27*
%TO.P,J2,1,Pin_1*%
%TO.N,GND*%
X155500000Y-145500000D03*
D18*
%TO.P,J2,2,Pin_2*%
%TO.N,+5V*%
X153000000Y-145500000D03*
%TO.P,J2,3,Pin_3*%
%TO.N,Net-(J2-Pin_3)*%
X150500000Y-145500000D03*
%TD*%
D15*
%TO.P,R3,1*%
%TO.N,Net-(J3-Pin_3)*%
X118250000Y-127870000D03*
D16*
%TO.P,R3,2*%
%TO.N,Net-(U2-4Y)*%
X118250000Y-120250000D03*
%TD*%
D28*
%TO.N,GND*%
X107700000Y-101800000D02*
X107700000Y-101600000D01*
X106750000Y-102750000D02*
X107700000Y-101800000D01*
X105900000Y-101900000D02*
X105900000Y-101600000D01*
X106750000Y-102750000D02*
X105900000Y-101900000D01*
X154000000Y-108000000D02*
X153300000Y-107300000D01*
X154000000Y-108360000D02*
X154000000Y-108000000D01*
%TO.N,+5V*%
X106000000Y-135750000D02*
X106000000Y-127750000D01*
X144000000Y-86750000D02*
X138750000Y-81500000D01*
X138750000Y-81500000D02*
X125750000Y-81500000D01*
X112750000Y-100250000D02*
X115250000Y-97750000D01*
X156000000Y-142500000D02*
X153000000Y-145500000D01*
X112750000Y-121000000D02*
X112750000Y-100250000D01*
X144000000Y-86750000D02*
X154000000Y-96750000D01*
X122750000Y-94250000D02*
X122750000Y-97000000D01*
X156000000Y-107820000D02*
X156000000Y-142500000D01*
X115250000Y-97750000D02*
X120750000Y-97750000D01*
X120750000Y-97750000D02*
X122750000Y-99750000D01*
X122750000Y-84500000D02*
X122750000Y-94250000D01*
X106750000Y-127000000D02*
X112750000Y-121000000D01*
X122750000Y-99750000D02*
X122750000Y-101080000D01*
X154000000Y-96750000D02*
X154000000Y-105820000D01*
X154000000Y-105820000D02*
X156000000Y-107820000D01*
X122750000Y-97000000D02*
X122750000Y-99750000D01*
X125750000Y-81500000D02*
X122750000Y-84500000D01*
%TO.N,Net-(J18-Pin_4)*%
X154000000Y-123600000D02*
X151120000Y-120720000D01*
X151120000Y-120720000D02*
X151120000Y-101750000D01*
%TO.N,/SDA*%
X149250000Y-121390000D02*
X149250000Y-99620000D01*
X149250000Y-99620000D02*
X151120000Y-97750000D01*
X154000000Y-126140000D02*
X149250000Y-121390000D01*
D29*
%TO.N,Net-(J1-Pin_3)*%
X122670991Y-102750000D02*
X124075000Y-101345991D01*
X124075000Y-85675000D02*
X125250000Y-84500000D01*
X115000000Y-127870000D02*
X116500000Y-126370000D01*
X124075000Y-101345991D02*
X124075000Y-85675000D01*
X116500000Y-126370000D02*
X116500000Y-107499999D01*
X121250000Y-102750000D02*
X122670991Y-102750000D01*
X116500000Y-107499999D02*
X121250000Y-102750000D01*
%TO.N,Net-(J3-Pin_3)*%
X125250000Y-102710991D02*
X125250000Y-94250000D01*
X121875000Y-105125000D02*
X122835991Y-105125000D01*
X119750000Y-107250000D02*
X121875000Y-105125000D01*
X122835991Y-105125000D02*
X125250000Y-102710991D01*
X119750000Y-126370000D02*
X119750000Y-107250000D01*
X118250000Y-127870000D02*
X119750000Y-126370000D01*
D30*
%TO.N,/LINE_OUT_GND*%
X164370000Y-124870000D02*
X157810000Y-124870000D01*
D28*
X168500000Y-135000000D02*
X169000000Y-135000000D01*
D30*
X170750000Y-131250000D02*
X164370000Y-124870000D01*
X169000000Y-135000000D02*
X170750000Y-133250000D01*
X170750000Y-133250000D02*
X170750000Y-131250000D01*
%TO.N,/LINE_OUT_L*%
X157810000Y-127410000D02*
X160350000Y-127410000D01*
X160350000Y-127410000D02*
X163410000Y-127410000D01*
X163410000Y-127410000D02*
X168500000Y-132500000D01*
%TO.N,/LINE_IN_R_GND*%
X162290000Y-119790000D02*
X168500000Y-126000000D01*
X160350000Y-119790000D02*
X162290000Y-119790000D01*
%TO.N,/LINE_IN_R*%
X168500000Y-123500000D02*
X163500000Y-118500000D01*
X159100000Y-118500000D02*
X157810000Y-119790000D01*
X163500000Y-118500000D02*
X159100000Y-118500000D01*
D31*
%TO.N,/LINE_IN_L_GND*%
X168475000Y-117000000D02*
X168225000Y-117250000D01*
D30*
X168225000Y-117250000D02*
X160350000Y-117250000D01*
%TO.N,/LINE_IN_L*%
X160560000Y-114500000D02*
X168475000Y-114500000D01*
X157810000Y-117250000D02*
X160560000Y-114500000D01*
D29*
%TO.N,Net-(J17-Pin_2)*%
X152750000Y-142500000D02*
X122000000Y-142500000D01*
X154000000Y-115980000D02*
X155250000Y-117230000D01*
X155250000Y-140000000D02*
X152750000Y-142500000D01*
X155250000Y-117230000D02*
X155250000Y-140000000D01*
X122000000Y-142500000D02*
X119000000Y-145500000D01*
%TO.N,Net-(U1-14_A0_TX3_SPDIF_OUT)*%
X114750000Y-111620000D02*
X113375000Y-112995000D01*
X113375000Y-112995000D02*
X113375000Y-127875000D01*
X152800000Y-137500000D02*
X154000000Y-136300000D01*
X113375000Y-127875000D02*
X123000000Y-137500000D01*
X123000000Y-137500000D02*
X152800000Y-137500000D01*
%TO.N,Net-(U1-16_A2_RX4_SCL1)*%
X127960000Y-119750000D02*
X122370000Y-114160000D01*
X154000000Y-131220000D02*
X142530000Y-119750000D01*
X142530000Y-119750000D02*
X127960000Y-119750000D01*
%TO.N,Net-(U1-17_A3_TX4_SDA1)*%
X142753000Y-117433000D02*
X154000000Y-128680000D01*
X133263000Y-117433000D02*
X142753000Y-117433000D01*
X122370000Y-106540000D02*
X133263000Y-117433000D01*
%TD*%
%TA.AperFunction,Conductor*%
%TO.N,GND*%
G36*
X124635599Y-81269685D02*
G01*
X124681354Y-81322489D01*
X124691298Y-81391647D01*
X124662273Y-81455203D01*
X124656241Y-81461681D01*
X123109043Y-83008877D01*
X123047720Y-83042362D01*
X122989280Y-83040974D01*
X122985409Y-83039937D01*
X122750001Y-83019341D01*
X122749999Y-83019341D01*
X122514596Y-83039936D01*
X122514586Y-83039938D01*
X122286344Y-83101094D01*
X122286335Y-83101098D01*
X122072171Y-83200964D01*
X122072169Y-83200965D01*
X121878597Y-83336505D01*
X121731035Y-83484068D01*
X121669712Y-83517553D01*
X121600020Y-83512569D01*
X121544087Y-83470697D01*
X121537815Y-83461484D01*
X121442315Y-83306654D01*
X121318345Y-83182684D01*
X121169124Y-83090643D01*
X121169119Y-83090641D01*
X121002697Y-83035494D01*
X121002690Y-83035493D01*
X120899986Y-83025000D01*
X120549999Y-83025000D01*
X120549999Y-83922298D01*
X120530314Y-83989338D01*
X120477510Y-84035092D01*
X120408352Y-84045036D01*
X120391069Y-84041276D01*
X120385206Y-84039554D01*
X120296627Y-84026819D01*
X120283975Y-84025000D01*
X120216025Y-84025000D01*
X120114795Y-84039554D01*
X120108928Y-84041277D01*
X120039058Y-84041273D01*
X119980282Y-84003495D01*
X119951261Y-83939938D01*
X119950000Y-83922298D01*
X119950000Y-83025000D01*
X119600028Y-83025000D01*
X119600012Y-83025001D01*
X119497302Y-83035494D01*
X119330880Y-83090641D01*
X119330875Y-83090643D01*
X119181654Y-83182684D01*
X119057684Y-83306654D01*
X118965643Y-83455875D01*
X118965641Y-83455880D01*
X118910494Y-83622302D01*
X118910493Y-83622309D01*
X118900000Y-83725013D01*
X118900000Y-84200000D01*
X119677390Y-84200000D01*
X119744429Y-84219685D01*
X119790184Y-84272489D01*
X119800128Y-84341647D01*
X119796367Y-84358935D01*
X119775000Y-84431704D01*
X119775000Y-84568295D01*
X119796367Y-84641065D01*
X119796367Y-84710935D01*
X119758593Y-84769713D01*
X119695037Y-84798738D01*
X119677390Y-84800000D01*
X118900001Y-84800000D01*
X118900001Y-85274986D01*
X118910494Y-85377697D01*
X118965641Y-85544119D01*
X118965643Y-85544124D01*
X119057684Y-85693345D01*
X119181654Y-85817315D01*
X119330875Y-85909356D01*
X119330880Y-85909358D01*
X119497302Y-85964505D01*
X119497309Y-85964506D01*
X119600019Y-85974999D01*
X119949999Y-85974999D01*
X119950000Y-85974998D01*
X119950000Y-85077701D01*
X119969685Y-85010662D01*
X120022489Y-84964907D01*
X120091647Y-84954963D01*
X120108936Y-84958724D01*
X120114800Y-84960446D01*
X120114801Y-84960446D01*
X120216025Y-84975000D01*
X120216026Y-84975000D01*
X120283974Y-84975000D01*
X120283975Y-84975000D01*
X120373896Y-84962071D01*
X120385200Y-84960446D01*
X120391061Y-84958725D01*
X120460931Y-84958723D01*
X120519710Y-84996496D01*
X120548736Y-85060051D01*
X120549999Y-85077701D01*
X120549999Y-85974998D01*
X120550001Y-85974999D01*
X120899972Y-85974999D01*
X120899986Y-85974998D01*
X121002697Y-85964505D01*
X121169119Y-85909358D01*
X121169124Y-85909356D01*
X121318345Y-85817315D01*
X121442315Y-85693345D01*
X121537815Y-85538516D01*
X121589763Y-85491792D01*
X121658726Y-85480569D01*
X121722808Y-85508413D01*
X121731035Y-85515932D01*
X121878594Y-85663491D01*
X121878597Y-85663493D01*
X121878599Y-85663495D01*
X121896622Y-85676115D01*
X121940247Y-85730689D01*
X121949500Y-85777690D01*
X121949500Y-92972309D01*
X121929815Y-93039348D01*
X121896625Y-93073883D01*
X121878601Y-93086503D01*
X121731035Y-93234069D01*
X121669712Y-93267553D01*
X121600020Y-93262569D01*
X121544087Y-93220697D01*
X121537815Y-93211484D01*
X121442315Y-93056654D01*
X121318345Y-92932684D01*
X121169124Y-92840643D01*
X121169119Y-92840641D01*
X121002697Y-92785494D01*
X121002690Y-92785493D01*
X120899986Y-92775000D01*
X120549999Y-92775000D01*
X120549999Y-93672298D01*
X120530314Y-93739338D01*
X120477510Y-93785092D01*
X120408352Y-93795036D01*
X120391069Y-93791276D01*
X120385206Y-93789554D01*
X120296627Y-93776819D01*
X120283975Y-93775000D01*
X120216025Y-93775000D01*
X120114795Y-93789554D01*
X120108928Y-93791277D01*
X120039058Y-93791273D01*
X119980282Y-93753495D01*
X119951261Y-93689938D01*
X119950000Y-93672298D01*
X119950000Y-92775000D01*
X119600028Y-92775000D01*
X119600012Y-92775001D01*
X119497302Y-92785494D01*
X119330880Y-92840641D01*
X119330875Y-92840643D01*
X119181654Y-92932684D01*
X119057684Y-93056654D01*
X118965643Y-93205875D01*
X118965641Y-93205880D01*
X118910494Y-93372302D01*
X118910493Y-93372309D01*
X118900000Y-93475013D01*
X118900000Y-93950000D01*
X119677390Y-93950000D01*
X119744429Y-93969685D01*
X119790184Y-94022489D01*
X119800128Y-94091647D01*
X119796367Y-94108935D01*
X119775000Y-94181704D01*
X119775000Y-94318295D01*
X119796367Y-94391065D01*
X119796367Y-94460935D01*
X119758593Y-94519713D01*
X119695037Y-94548738D01*
X119677390Y-94550000D01*
X118900001Y-94550000D01*
X118900001Y-95024986D01*
X118910494Y-95127697D01*
X118965641Y-95294119D01*
X118965643Y-95294124D01*
X119057684Y-95443345D01*
X119181654Y-95567315D01*
X119330875Y-95659356D01*
X119330880Y-95659358D01*
X119497302Y-95714505D01*
X119497309Y-95714506D01*
X119600019Y-95724999D01*
X119949999Y-95724999D01*
X119950000Y-95724998D01*
X119950000Y-94827701D01*
X119969685Y-94760662D01*
X120022489Y-94714907D01*
X120091647Y-94704963D01*
X120108936Y-94708724D01*
X120114800Y-94710446D01*
X120114801Y-94710446D01*
X120216025Y-94725000D01*
X120216026Y-94725000D01*
X120283974Y-94725000D01*
X120283975Y-94725000D01*
X120373896Y-94712071D01*
X120385200Y-94710446D01*
X120391061Y-94708725D01*
X120460931Y-94708723D01*
X120519710Y-94746496D01*
X120548736Y-94810051D01*
X120549999Y-94827701D01*
X120549999Y-95724998D01*
X120550001Y-95724999D01*
X120899972Y-95724999D01*
X120899986Y-95724998D01*
X121002697Y-95714505D01*
X121169119Y-95659358D01*
X121169124Y-95659356D01*
X121318345Y-95567315D01*
X121442315Y-95443345D01*
X121537815Y-95288516D01*
X121589763Y-95241792D01*
X121658726Y-95230569D01*
X121722808Y-95258413D01*
X121731035Y-95265932D01*
X121878594Y-95413491D01*
X121878597Y-95413493D01*
X121878599Y-95413495D01*
X121896622Y-95426115D01*
X121940247Y-95480689D01*
X121949500Y-95527690D01*
X121949500Y-97518060D01*
X121929815Y-97585099D01*
X121877011Y-97630854D01*
X121807853Y-97640798D01*
X121744297Y-97611773D01*
X121737819Y-97605741D01*
X121252262Y-97120184D01*
X121252259Y-97120182D01*
X121216904Y-97097966D01*
X121211229Y-97093940D01*
X121178589Y-97067910D01*
X121140959Y-97049787D01*
X121134872Y-97046422D01*
X121099525Y-97024212D01*
X121060114Y-97010421D01*
X121053688Y-97007759D01*
X121016061Y-96989639D01*
X120975345Y-96980345D01*
X120968662Y-96978420D01*
X120929259Y-96964632D01*
X120887763Y-96959955D01*
X120880908Y-96958791D01*
X120840200Y-96949501D01*
X120840196Y-96949500D01*
X120840194Y-96949500D01*
X120794954Y-96949500D01*
X115340194Y-96949500D01*
X115159806Y-96949500D01*
X115153888Y-96950850D01*
X115119089Y-96958791D01*
X115112235Y-96959955D01*
X115070744Y-96964632D01*
X115031341Y-96978419D01*
X115024659Y-96980344D01*
X114983939Y-96989640D01*
X114946306Y-97007761D01*
X114939880Y-97010423D01*
X114900475Y-97024212D01*
X114865123Y-97046424D01*
X114859037Y-97049787D01*
X114821413Y-97067907D01*
X114821408Y-97067911D01*
X114788762Y-97093944D01*
X114783090Y-97097969D01*
X114747738Y-97120183D01*
X114747733Y-97120187D01*
X114698310Y-97169609D01*
X114698306Y-97169615D01*
X112189159Y-99678760D01*
X112189151Y-99678771D01*
X112120183Y-99747739D01*
X112097966Y-99783096D01*
X112093941Y-99788769D01*
X112067910Y-99821410D01*
X112049791Y-99859033D01*
X112046427Y-99865120D01*
X112024212Y-99900476D01*
X112024208Y-99900483D01*
X112010416Y-99939895D01*
X112007755Y-99946320D01*
X111989639Y-99983939D01*
X111980344Y-100024659D01*
X111978419Y-100031341D01*
X111964632Y-100070744D01*
X111959955Y-100112235D01*
X111958791Y-100119089D01*
X111949500Y-100159806D01*
X111949500Y-120617059D01*
X111929815Y-120684098D01*
X111913181Y-120704740D01*
X107377655Y-125240265D01*
X107316332Y-125273750D01*
X107253425Y-125271075D01*
X107151777Y-125239721D01*
X107151767Y-125239718D01*
X106884936Y-125199500D01*
X106884929Y-125199500D01*
X106615071Y-125199500D01*
X106615063Y-125199500D01*
X106348232Y-125239718D01*
X106348226Y-125239720D01*
X106090358Y-125319262D01*
X105847230Y-125436346D01*
X105624258Y-125588365D01*
X105426442Y-125771910D01*
X105258185Y-125982898D01*
X105123258Y-126216599D01*
X105123256Y-126216603D01*
X105024666Y-126467804D01*
X105024664Y-126467811D01*
X104964616Y-126730898D01*
X104944451Y-126999995D01*
X104944451Y-127000004D01*
X104964616Y-127269101D01*
X105024664Y-127532188D01*
X105024666Y-127532195D01*
X105123256Y-127783396D01*
X105123257Y-127783400D01*
X105170589Y-127865380D01*
X105181809Y-127884814D01*
X105182887Y-127886680D01*
X105199500Y-127948680D01*
X105199500Y-134333023D01*
X105179815Y-134400062D01*
X105127011Y-134445817D01*
X105099865Y-134453266D01*
X105100068Y-134454124D01*
X105092520Y-134455907D01*
X104957671Y-134506202D01*
X104957664Y-134506206D01*
X104842455Y-134592452D01*
X104842452Y-134592455D01*
X104756206Y-134707664D01*
X104756202Y-134707671D01*
X104705908Y-134842517D01*
X104699501Y-134902116D01*
X104699500Y-134902135D01*
X104699500Y-136597870D01*
X104699501Y-136597876D01*
X104705908Y-136657483D01*
X104756202Y-136792328D01*
X104756206Y-136792335D01*
X104842452Y-136907544D01*
X104842455Y-136907547D01*
X104957664Y-136993793D01*
X104957671Y-136993797D01*
X105092517Y-137044091D01*
X105092516Y-137044091D01*
X105099444Y-137044835D01*
X105152127Y-137050500D01*
X106847872Y-137050499D01*
X106907483Y-137044091D01*
X107042331Y-136993796D01*
X107157546Y-136907546D01*
X107164350Y-136898455D01*
X107220280Y-136856584D01*
X107289971Y-136851597D01*
X107334740Y-136871188D01*
X107347512Y-136880130D01*
X107347518Y-136880134D01*
X107553673Y-136976265D01*
X107553682Y-136976269D01*
X107773389Y-137035139D01*
X107773400Y-137035141D01*
X107999998Y-137054966D01*
X108000002Y-137054966D01*
X108226599Y-137035141D01*
X108226610Y-137035139D01*
X108446317Y-136976269D01*
X108446331Y-136976264D01*
X108652478Y-136880136D01*
X108652480Y-136880135D01*
X108683882Y-136858146D01*
X108137023Y-136311287D01*
X108103538Y-136249964D01*
X108108522Y-136180272D01*
X108150394Y-136124339D01*
X108168402Y-136113125D01*
X108238045Y-136077641D01*
X108327641Y-135988045D01*
X108363122Y-135918407D01*
X108411093Y-135867615D01*
X108478914Y-135850819D01*
X108545049Y-135873356D01*
X108561286Y-135887024D01*
X109108146Y-136433882D01*
X109130135Y-136402480D01*
X109130136Y-136402478D01*
X109226264Y-136196331D01*
X109226269Y-136196317D01*
X109285139Y-135976610D01*
X109285141Y-135976599D01*
X109304966Y-135750002D01*
X109304966Y-135749997D01*
X109285141Y-135523400D01*
X109285139Y-135523389D01*
X109226269Y-135303682D01*
X109226265Y-135303673D01*
X109130134Y-135097518D01*
X109130133Y-135097516D01*
X109108146Y-135066116D01*
X109108145Y-135066115D01*
X108561286Y-135612975D01*
X108499963Y-135646460D01*
X108430271Y-135641476D01*
X108374338Y-135599604D01*
X108363124Y-135581595D01*
X108327641Y-135511955D01*
X108327638Y-135511952D01*
X108327636Y-135511949D01*
X108238050Y-135422363D01*
X108238047Y-135422361D01*
X108238045Y-135422359D01*
X108168408Y-135386877D01*
X108117613Y-135338903D01*
X108100818Y-135271082D01*
X108123356Y-135204947D01*
X108137023Y-135188712D01*
X108683883Y-134641851D01*
X108652485Y-134619867D01*
X108446326Y-134523734D01*
X108446317Y-134523730D01*
X108226610Y-134464860D01*
X108226599Y-134464858D01*
X108000002Y-134445034D01*
X107999998Y-134445034D01*
X107773400Y-134464858D01*
X107773389Y-134464860D01*
X107553682Y-134523730D01*
X107553673Y-134523734D01*
X107347512Y-134619868D01*
X107347507Y-134619871D01*
X107334736Y-134628813D01*
X107268529Y-134651138D01*
X107200763Y-134634124D01*
X107164352Y-134601546D01*
X107157546Y-134592454D01*
X107157544Y-134592453D01*
X107157544Y-134592452D01*
X107042335Y-134506206D01*
X107042328Y-134506202D01*
X106907482Y-134455908D01*
X106899938Y-134454126D01*
X106900474Y-134451853D01*
X106846688Y-134429571D01*
X106806843Y-134372177D01*
X106800500Y-134333024D01*
X106800500Y-128919936D01*
X106820185Y-128852897D01*
X106872989Y-128807142D01*
X106906017Y-128797321D01*
X107016952Y-128780600D01*
X107151767Y-128760281D01*
X107151768Y-128760280D01*
X107151772Y-128760280D01*
X107409641Y-128680738D01*
X107652775Y-128563651D01*
X107875741Y-128411635D01*
X108053656Y-128246554D01*
X108073557Y-128228089D01*
X108073557Y-128228087D01*
X108073561Y-128228085D01*
X108241815Y-128017102D01*
X108376743Y-127783398D01*
X108475334Y-127532195D01*
X108535383Y-127269103D01*
X108550404Y-127068656D01*
X108555549Y-127000004D01*
X108555549Y-126999995D01*
X108536023Y-126739432D01*
X108535383Y-126730897D01*
X108512733Y-126631659D01*
X108479237Y-126484903D01*
X108483510Y-126415164D01*
X108512445Y-126369631D01*
X112537821Y-122344256D01*
X112599142Y-122310773D01*
X112668834Y-122315757D01*
X112724767Y-122357629D01*
X112749184Y-122423093D01*
X112749500Y-122431939D01*
X112749500Y-127792255D01*
X112747775Y-127807872D01*
X112748061Y-127807899D01*
X112747326Y-127815665D01*
X112749500Y-127884814D01*
X112749500Y-127914343D01*
X112749501Y-127914360D01*
X112750368Y-127921231D01*
X112750826Y-127927050D01*
X112752290Y-127973624D01*
X112752291Y-127973627D01*
X112757880Y-127992867D01*
X112761824Y-128011911D01*
X112764336Y-128031792D01*
X112770096Y-128046340D01*
X112781490Y-128075119D01*
X112783382Y-128080647D01*
X112796381Y-128125388D01*
X112806580Y-128142634D01*
X112815138Y-128160103D01*
X112822514Y-128178732D01*
X112849898Y-128216423D01*
X112853106Y-128221307D01*
X112876827Y-128261416D01*
X112876833Y-128261424D01*
X112890990Y-128275580D01*
X112903628Y-128290376D01*
X112915405Y-128306586D01*
X112915406Y-128306587D01*
X112951309Y-128336288D01*
X112955620Y-128340210D01*
X117741748Y-133126338D01*
X122499194Y-137883784D01*
X122509019Y-137896048D01*
X122509240Y-137895866D01*
X122514210Y-137901873D01*
X122514213Y-137901876D01*
X122514214Y-137901877D01*
X122564651Y-137949241D01*
X122585530Y-137970120D01*
X122591004Y-137974366D01*
X122595442Y-137978156D01*
X122629418Y-138010062D01*
X122629422Y-138010064D01*
X122646973Y-138019713D01*
X122663231Y-138030392D01*
X122679064Y-138042674D01*
X122701015Y-138052172D01*
X122721837Y-138061183D01*
X122727081Y-138063752D01*
X122767908Y-138086197D01*
X122787312Y-138091179D01*
X122805710Y-138097478D01*
X122824105Y-138105438D01*
X122870129Y-138112726D01*
X122875832Y-138113907D01*
X122920981Y-138125500D01*
X122941016Y-138125500D01*
X122960413Y-138127026D01*
X122980196Y-138130160D01*
X123026583Y-138125775D01*
X123032422Y-138125500D01*
X137505521Y-138125500D01*
X137572560Y-138145185D01*
X137618315Y-138197989D01*
X137628259Y-138267147D01*
X137617903Y-138301903D01*
X137569107Y-138406548D01*
X137569104Y-138406554D01*
X137511930Y-138619929D01*
X137511929Y-138619937D01*
X137492677Y-138839997D01*
X137492677Y-138840002D01*
X137511929Y-139060062D01*
X137511930Y-139060070D01*
X137569104Y-139273445D01*
X137569105Y-139273447D01*
X137569106Y-139273450D01*
X137662466Y-139473661D01*
X137662466Y-139473662D01*
X137662468Y-139473666D01*
X137789170Y-139654615D01*
X137789175Y-139654621D01*
X137945378Y-139810824D01*
X137945384Y-139810829D01*
X138126333Y-139937531D01*
X138126335Y-139937532D01*
X138126338Y-139937534D01*
X138326550Y-140030894D01*
X138539932Y-140088070D01*
X138697123Y-140101822D01*
X138759998Y-140107323D01*
X138760000Y-140107323D01*
X138760002Y-140107323D01*
X138815017Y-140102509D01*
X138980068Y-140088070D01*
X139193450Y-140030894D01*
X139393662Y-139937534D01*
X139574620Y-139810826D01*
X139730826Y-139654620D01*
X139857534Y-139473662D01*
X139950894Y-139273450D01*
X140008070Y-139060068D01*
X140027323Y-138840000D01*
X140008070Y-138619932D01*
X139950894Y-138406550D01*
X139902096Y-138301904D01*
X139891605Y-138232827D01*
X139920125Y-138169043D01*
X139978601Y-138130804D01*
X140014479Y-138125500D01*
X152717257Y-138125500D01*
X152732877Y-138127224D01*
X152732904Y-138126939D01*
X152748438Y-138128408D01*
X152748318Y-138129671D01*
X152808254Y-138145236D01*
X152855650Y-138196572D01*
X152867768Y-138265383D01*
X152856918Y-138304016D01*
X152809105Y-138406552D01*
X152809104Y-138406554D01*
X152751930Y-138619929D01*
X152751929Y-138619937D01*
X152732677Y-138839997D01*
X152732677Y-138840002D01*
X152751929Y-139060062D01*
X152751930Y-139060070D01*
X152809104Y-139273445D01*
X152809105Y-139273447D01*
X152809106Y-139273450D01*
X152902466Y-139473662D01*
X152902468Y-139473666D01*
X153029170Y-139654615D01*
X153029175Y-139654621D01*
X153185378Y-139810824D01*
X153185384Y-139810829D01*
X153366333Y-139937531D01*
X153366335Y-139937532D01*
X153366338Y-139937534D01*
X153566550Y-140030894D01*
X153779932Y-140088070D01*
X153972417Y-140104909D01*
X154037484Y-140130361D01*
X154078462Y-140186952D01*
X154082341Y-140256714D01*
X154049289Y-140316118D01*
X152527228Y-141838181D01*
X152465905Y-141871666D01*
X152439547Y-141874500D01*
X122082743Y-141874500D01*
X122067122Y-141872775D01*
X122067095Y-141873061D01*
X122059333Y-141872326D01*
X121990172Y-141874500D01*
X121960649Y-141874500D01*
X121953778Y-141875367D01*
X121947959Y-141875825D01*
X121901374Y-141877289D01*
X121901368Y-141877290D01*
X121882126Y-141882880D01*
X121863087Y-141886823D01*
X121843217Y-141889334D01*
X121843203Y-141889337D01*
X121799883Y-141906488D01*
X121794358Y-141908380D01*
X121749613Y-141921380D01*
X121749610Y-141921381D01*
X121732366Y-141931579D01*
X121714905Y-141940133D01*
X121696274Y-141947510D01*
X121696262Y-141947517D01*
X121658570Y-141974902D01*
X121653687Y-141978109D01*
X121613580Y-142001829D01*
X121599414Y-142015995D01*
X121584624Y-142028627D01*
X121568414Y-142040404D01*
X121568411Y-142040407D01*
X121538710Y-142076309D01*
X121534777Y-142080631D01*
X119573947Y-144041460D01*
X119512624Y-144074945D01*
X119454173Y-144073554D01*
X119235413Y-144014938D01*
X119235403Y-144014936D01*
X119000001Y-143994341D01*
X118999999Y-143994341D01*
X118764596Y-144014936D01*
X118764586Y-144014938D01*
X118536344Y-144076094D01*
X118536335Y-144076098D01*
X118322171Y-144175964D01*
X118322169Y-144175965D01*
X118128597Y-144311505D01*
X117961505Y-144478597D01*
X117825965Y-144672169D01*
X117825964Y-144672171D01*
X117726098Y-144886335D01*
X117726094Y-144886344D01*
X117664938Y-145114586D01*
X117664936Y-145114596D01*
X117649500Y-145291034D01*
X117649500Y-145708966D01*
X117664936Y-145885403D01*
X117664938Y-145885413D01*
X117726094Y-146113655D01*
X117726096Y-146113659D01*
X117726097Y-146113663D01*
X117738342Y-146139922D01*
X117825964Y-146327828D01*
X117825965Y-146327830D01*
X117961505Y-146521402D01*
X118063439Y-146623335D01*
X118128599Y-146688495D01*
X118225384Y-146756264D01*
X118322165Y-146824032D01*
X118322167Y-146824033D01*
X118322170Y-146824035D01*
X118536337Y-146923903D01*
X118536343Y-146923904D01*
X118536344Y-146923905D01*
X118575356Y-146934358D01*
X118764592Y-146985063D01*
X118938965Y-147000319D01*
X118999999Y-147005659D01*
X119000000Y-147005659D01*
X119000001Y-147005659D01*
X119061035Y-147000319D01*
X119235408Y-146985063D01*
X119463663Y-146923903D01*
X119677829Y-146824035D01*
X119871401Y-146688495D01*
X120018965Y-146540930D01*
X120080287Y-146507447D01*
X120149978Y-146512431D01*
X120205912Y-146554302D01*
X120212183Y-146563516D01*
X120307680Y-146718340D01*
X120307683Y-146718344D01*
X120431654Y-146842315D01*
X120580875Y-146934356D01*
X120580880Y-146934358D01*
X120747302Y-146989505D01*
X120747309Y-146989506D01*
X120850019Y-146999999D01*
X121199999Y-146999999D01*
X121200000Y-146999998D01*
X121200000Y-146104024D01*
X121219685Y-146036985D01*
X121272489Y-145991230D01*
X121341647Y-145981286D01*
X121356396Y-145984494D01*
X121357682Y-145984679D01*
X121357685Y-145984680D01*
X121464237Y-146000000D01*
X121464238Y-146000000D01*
X121535762Y-146000000D01*
X121535763Y-146000000D01*
X121639756Y-145985048D01*
X121651094Y-145983418D01*
X121651328Y-145985048D01*
X121710926Y-145985044D01*
X121769707Y-146022815D01*
X121798737Y-146086368D01*
X121800000Y-146104024D01*
X121800000Y-146999999D01*
X122149972Y-146999999D01*
X122149986Y-146999998D01*
X122252697Y-146989505D01*
X122419119Y-146934358D01*
X122419124Y-146934356D01*
X122568345Y-146842315D01*
X122692315Y-146718345D01*
X122784356Y-146569124D01*
X122784358Y-146569119D01*
X122839505Y-146402697D01*
X122839506Y-146402690D01*
X122849999Y-146299986D01*
X122850000Y-146299973D01*
X122850000Y-145800000D01*
X122098666Y-145800000D01*
X122031627Y-145780315D01*
X121985872Y-145727511D01*
X121975928Y-145658353D01*
X121979689Y-145641066D01*
X121999999Y-145571892D01*
X122000000Y-145571889D01*
X122000000Y-145428110D01*
X121999999Y-145428107D01*
X121979689Y-145358934D01*
X121979689Y-145289064D01*
X122017464Y-145230286D01*
X122081020Y-145201262D01*
X122098666Y-145200000D01*
X122849999Y-145200000D01*
X122849999Y-144700028D01*
X122849998Y-144700013D01*
X122839505Y-144597302D01*
X122784358Y-144430880D01*
X122784356Y-144430875D01*
X122692315Y-144281654D01*
X122568345Y-144157684D01*
X122419124Y-144065643D01*
X122419119Y-144065641D01*
X122252697Y-144010494D01*
X122252690Y-144010493D01*
X122149986Y-144000000D01*
X121683950Y-144000000D01*
X121616911Y-143980315D01*
X121571156Y-143927511D01*
X121561212Y-143858353D01*
X121590237Y-143794797D01*
X121596246Y-143788343D01*
X122222770Y-143161819D01*
X122284094Y-143128334D01*
X122310452Y-143125500D01*
X152667257Y-143125500D01*
X152682877Y-143127224D01*
X152682904Y-143126939D01*
X152690660Y-143127671D01*
X152690667Y-143127673D01*
X152759814Y-143125500D01*
X152789350Y-143125500D01*
X152796228Y-143124630D01*
X152802041Y-143124172D01*
X152848627Y-143122709D01*
X152867869Y-143117117D01*
X152886912Y-143113174D01*
X152906792Y-143110664D01*
X152950122Y-143093507D01*
X152955646Y-143091617D01*
X152959396Y-143090527D01*
X153000390Y-143078618D01*
X153017629Y-143068422D01*
X153035103Y-143059862D01*
X153053727Y-143052488D01*
X153053727Y-143052487D01*
X153053732Y-143052486D01*
X153091449Y-143025082D01*
X153096305Y-143021892D01*
X153136420Y-142998170D01*
X153150589Y-142983999D01*
X153165379Y-142971368D01*
X153181587Y-142959594D01*
X153211299Y-142923676D01*
X153215212Y-142919376D01*
X154987820Y-141146768D01*
X155049142Y-141113285D01*
X155118834Y-141118269D01*
X155174767Y-141160141D01*
X155199184Y-141225605D01*
X155199500Y-141234451D01*
X155199500Y-142117059D01*
X155179815Y-142184098D01*
X155163181Y-142204740D01*
X153359043Y-144008877D01*
X153297720Y-144042362D01*
X153239280Y-144040974D01*
X153235409Y-144039937D01*
X153000001Y-144019341D01*
X152999999Y-144019341D01*
X152764596Y-144039936D01*
X152764586Y-144039938D01*
X152536344Y-144101094D01*
X152536335Y-144101098D01*
X152322171Y-144200964D01*
X152322169Y-144200965D01*
X152128597Y-144336505D01*
X151961505Y-144503597D01*
X151851575Y-144660595D01*
X151796998Y-144704220D01*
X151727500Y-144711414D01*
X151665145Y-144679891D01*
X151648425Y-144660595D01*
X151538494Y-144503597D01*
X151371402Y-144336506D01*
X151371395Y-144336501D01*
X151177834Y-144200967D01*
X151177830Y-144200965D01*
X151124215Y-144175964D01*
X150963663Y-144101097D01*
X150963659Y-144101096D01*
X150963655Y-144101094D01*
X150735413Y-144039938D01*
X150735403Y-144039936D01*
X150500001Y-144019341D01*
X150499999Y-144019341D01*
X150264596Y-144039936D01*
X150264586Y-144039938D01*
X150036344Y-144101094D01*
X150036335Y-144101098D01*
X149822171Y-144200964D01*
X149822169Y-144200965D01*
X149628597Y-144336505D01*
X149461505Y-144503597D01*
X149325965Y-144697169D01*
X149325964Y-144697171D01*
X149226098Y-144911335D01*
X149226094Y-144911344D01*
X149164938Y-145139586D01*
X149164936Y-145139596D01*
X149149500Y-145316034D01*
X149149500Y-145683966D01*
X149164936Y-145860403D01*
X149164938Y-145860413D01*
X149226094Y-146088655D01*
X149226096Y-146088659D01*
X149226097Y-146088663D01*
X149250000Y-146139922D01*
X149325964Y-146302828D01*
X149325965Y-146302830D01*
X149461505Y-146496402D01*
X149588439Y-146623335D01*
X149628599Y-146663495D01*
X149706933Y-146718345D01*
X149822165Y-146799032D01*
X149822167Y-146799033D01*
X149822170Y-146799035D01*
X150036337Y-146898903D01*
X150036343Y-146898904D01*
X150036344Y-146898905D01*
X150075356Y-146909358D01*
X150264592Y-146960063D01*
X150452918Y-146976539D01*
X150499999Y-146980659D01*
X150500000Y-146980659D01*
X150500001Y-146980659D01*
X150539234Y-146977226D01*
X150735408Y-146960063D01*
X150963663Y-146898903D01*
X151177829Y-146799035D01*
X151371401Y-146663495D01*
X151538495Y-146496401D01*
X151648426Y-146339401D01*
X151703001Y-146295778D01*
X151772500Y-146288584D01*
X151834855Y-146320106D01*
X151851571Y-146339398D01*
X151878383Y-146377690D01*
X151961506Y-146496403D01*
X152088439Y-146623335D01*
X152128599Y-146663495D01*
X152206933Y-146718345D01*
X152322165Y-146799032D01*
X152322167Y-146799033D01*
X152322170Y-146799035D01*
X152536337Y-146898903D01*
X152536343Y-146898904D01*
X152536344Y-146898905D01*
X152575356Y-146909358D01*
X152764592Y-146960063D01*
X152952918Y-146976539D01*
X152999999Y-146980659D01*
X153000000Y-146980659D01*
X153000001Y-146980659D01*
X153039234Y-146977226D01*
X153235408Y-146960063D01*
X153463663Y-146898903D01*
X153677829Y-146799035D01*
X153871401Y-146663495D01*
X154018965Y-146515930D01*
X154080287Y-146482447D01*
X154149978Y-146487431D01*
X154205912Y-146529302D01*
X154212183Y-146538516D01*
X154307680Y-146693340D01*
X154307683Y-146693344D01*
X154431654Y-146817315D01*
X154580875Y-146909356D01*
X154580880Y-146909358D01*
X154747302Y-146964505D01*
X154747309Y-146964506D01*
X154850019Y-146974999D01*
X155199999Y-146974999D01*
X155200000Y-146974998D01*
X155200000Y-146077701D01*
X155219685Y-146010662D01*
X155272489Y-145964907D01*
X155341647Y-145954963D01*
X155358936Y-145958724D01*
X155364801Y-145960446D01*
X155466025Y-145975000D01*
X155466026Y-145975000D01*
X155533974Y-145975000D01*
X155533975Y-145975000D01*
X155635199Y-145960446D01*
X155635200Y-145960445D01*
X155641064Y-145958724D01*
X155710934Y-145958724D01*
X155769712Y-145996498D01*
X155798738Y-146060053D01*
X155800000Y-146077701D01*
X155800000Y-146974999D01*
X156149972Y-146974999D01*
X156149986Y-146974998D01*
X156252697Y-146964505D01*
X156419119Y-146909358D01*
X156419124Y-146909356D01*
X156568345Y-146817315D01*
X156692315Y-146693345D01*
X156784356Y-146544124D01*
X156784358Y-146544119D01*
X156839505Y-146377697D01*
X156839506Y-146377690D01*
X156849999Y-146274986D01*
X156850000Y-146274973D01*
X156850000Y-145800000D01*
X156072610Y-145800000D01*
X156005571Y-145780315D01*
X155959816Y-145727511D01*
X155949872Y-145658353D01*
X155953633Y-145641065D01*
X155975000Y-145568295D01*
X155975000Y-145431704D01*
X155953633Y-145358935D01*
X155953633Y-145289065D01*
X155991407Y-145230287D01*
X156054963Y-145201262D01*
X156072610Y-145200000D01*
X156849999Y-145200000D01*
X156849999Y-144725028D01*
X156849998Y-144725013D01*
X156839505Y-144622302D01*
X156784358Y-144455880D01*
X156784356Y-144455875D01*
X156692315Y-144306654D01*
X156568345Y-144182684D01*
X156419124Y-144090643D01*
X156419119Y-144090641D01*
X156252697Y-144035494D01*
X156252690Y-144035493D01*
X156149986Y-144025000D01*
X155906437Y-144025000D01*
X155839398Y-144005315D01*
X155793643Y-143952511D01*
X155783699Y-143883353D01*
X155812724Y-143819797D01*
X155818742Y-143813333D01*
X156502259Y-143129817D01*
X156502262Y-143129816D01*
X156629816Y-143002262D01*
X156652042Y-142966887D01*
X156656045Y-142961245D01*
X156682092Y-142928586D01*
X156700213Y-142890955D01*
X156703570Y-142884881D01*
X156725789Y-142849522D01*
X156739581Y-142810107D01*
X156742244Y-142803679D01*
X156760360Y-142766061D01*
X156769658Y-142725321D01*
X156771571Y-142718680D01*
X156785368Y-142679255D01*
X156790043Y-142637760D01*
X156791208Y-142630905D01*
X156792726Y-142624249D01*
X156800500Y-142590194D01*
X156800500Y-142409805D01*
X156800500Y-142409804D01*
X156800500Y-128482570D01*
X156820185Y-128415532D01*
X156872989Y-128369777D01*
X156942147Y-128359833D01*
X156995621Y-128380994D01*
X157176338Y-128507534D01*
X157376550Y-128600894D01*
X157589932Y-128658070D01*
X157747123Y-128671822D01*
X157809998Y-128677323D01*
X157810000Y-128677323D01*
X157810002Y-128677323D01*
X157865016Y-128672509D01*
X158030068Y-128658070D01*
X158243450Y-128600894D01*
X158443662Y-128507534D01*
X158624620Y-128380826D01*
X158780826Y-128224620D01*
X158823709Y-128163376D01*
X158878287Y-128119751D01*
X158925284Y-128110500D01*
X159234716Y-128110500D01*
X159301755Y-128130185D01*
X159336290Y-128163376D01*
X159379174Y-128224620D01*
X159535378Y-128380824D01*
X159535384Y-128380829D01*
X159716333Y-128507531D01*
X159716335Y-128507532D01*
X159716338Y-128507534D01*
X159916550Y-128600894D01*
X160129932Y-128658070D01*
X160287123Y-128671822D01*
X160349998Y-128677323D01*
X160350000Y-128677323D01*
X160350002Y-128677323D01*
X160405017Y-128672509D01*
X160570068Y-128658070D01*
X160783450Y-128600894D01*
X160983662Y-128507534D01*
X161164620Y-128380826D01*
X161320826Y-128224620D01*
X161363709Y-128163376D01*
X161418287Y-128119751D01*
X161465284Y-128110500D01*
X163068481Y-128110500D01*
X163135520Y-128130185D01*
X163156162Y-128146819D01*
X167019046Y-132009703D01*
X167052531Y-132071026D01*
X167051140Y-132129477D01*
X167014938Y-132264586D01*
X167014936Y-132264596D01*
X166994341Y-132499999D01*
X166994341Y-132500000D01*
X167014936Y-132735403D01*
X167014938Y-132735413D01*
X167076094Y-132963655D01*
X167076096Y-132963659D01*
X167076097Y-132963663D01*
X167126030Y-133070746D01*
X167175964Y-133177828D01*
X167175965Y-133177830D01*
X167311505Y-133371402D01*
X167458704Y-133518601D01*
X167492189Y-133579924D01*
X167487205Y-133649616D01*
X167445333Y-133705549D01*
X167436120Y-133711820D01*
X167281347Y-133807285D01*
X167281343Y-133807288D01*
X167157289Y-133931342D01*
X167065187Y-134080663D01*
X167065185Y-134080666D01*
X167065186Y-134080666D01*
X167010001Y-134247203D01*
X167010001Y-134247204D01*
X167010000Y-134247204D01*
X166999500Y-134349983D01*
X166999500Y-135650001D01*
X166999501Y-135650018D01*
X167010000Y-135752796D01*
X167010001Y-135752799D01*
X167064880Y-135918411D01*
X167065186Y-135919334D01*
X167157288Y-136068656D01*
X167281344Y-136192712D01*
X167430666Y-136284814D01*
X167597203Y-136339999D01*
X167699991Y-136350500D01*
X169300008Y-136350499D01*
X169402797Y-136339999D01*
X169569334Y-136284814D01*
X169718656Y-136192712D01*
X169842712Y-136068656D01*
X169934814Y-135919334D01*
X169989999Y-135752797D01*
X170000500Y-135650009D01*
X170000499Y-135041517D01*
X170020183Y-134974479D01*
X170036813Y-134953842D01*
X171229056Y-133761599D01*
X171231748Y-133759065D01*
X171278183Y-133717929D01*
X171313417Y-133666883D01*
X171315620Y-133663887D01*
X171353878Y-133615056D01*
X171358037Y-133605813D01*
X171369061Y-133586268D01*
X171374818Y-133577930D01*
X171396810Y-133519939D01*
X171398232Y-133516503D01*
X171423695Y-133459931D01*
X171425522Y-133449959D01*
X171431546Y-133428347D01*
X171435140Y-133418872D01*
X171442613Y-133357324D01*
X171443177Y-133353619D01*
X171446535Y-133335289D01*
X171454358Y-133292606D01*
X171450613Y-133230696D01*
X171450500Y-133226951D01*
X171450500Y-131273047D01*
X171450613Y-131269302D01*
X171454358Y-131207394D01*
X171443175Y-131146371D01*
X171442613Y-131142674D01*
X171439951Y-131120751D01*
X171435140Y-131081128D01*
X171431548Y-131071656D01*
X171425521Y-131050034D01*
X171423695Y-131040071D01*
X171423695Y-131040069D01*
X171398224Y-130983476D01*
X171396817Y-130980079D01*
X171374818Y-130922070D01*
X171374816Y-130922068D01*
X171374816Y-130922066D01*
X171369062Y-130913731D01*
X171358034Y-130894177D01*
X171353881Y-130884949D01*
X171353878Y-130884945D01*
X171353878Y-130884944D01*
X171315626Y-130836120D01*
X171313416Y-130833115D01*
X171281277Y-130786554D01*
X171278183Y-130782071D01*
X171231742Y-130740928D01*
X171229048Y-130738392D01*
X168052837Y-127562180D01*
X168019352Y-127500857D01*
X168024336Y-127431165D01*
X168066208Y-127375232D01*
X168131672Y-127350815D01*
X168140518Y-127350499D01*
X169300002Y-127350499D01*
X169300008Y-127350499D01*
X169402797Y-127339999D01*
X169569334Y-127284814D01*
X169718656Y-127192712D01*
X169842712Y-127068656D01*
X169934814Y-126919334D01*
X169989999Y-126752797D01*
X170000500Y-126650009D01*
X170000499Y-125349992D01*
X169989999Y-125247203D01*
X169934814Y-125080666D01*
X169842712Y-124931344D01*
X169718656Y-124807288D01*
X169637658Y-124757328D01*
X169563879Y-124711821D01*
X169517155Y-124659873D01*
X169505932Y-124590910D01*
X169533776Y-124526828D01*
X169541295Y-124518601D01*
X169541294Y-124518601D01*
X169688495Y-124371401D01*
X169824035Y-124177830D01*
X169923903Y-123963663D01*
X169985063Y-123735408D01*
X170005659Y-123500000D01*
X169985063Y-123264592D01*
X169923903Y-123036337D01*
X169824035Y-122822171D01*
X169798275Y-122785381D01*
X169688494Y-122628597D01*
X169521402Y-122461505D01*
X169327830Y-122325965D01*
X169327828Y-122325964D01*
X169220746Y-122276030D01*
X169113663Y-122226097D01*
X169113659Y-122226096D01*
X169113655Y-122226094D01*
X168885413Y-122164938D01*
X168885403Y-122164936D01*
X168708966Y-122149500D01*
X168291034Y-122149500D01*
X168291033Y-122149500D01*
X168209896Y-122156598D01*
X168141396Y-122142831D01*
X168111408Y-122120751D01*
X164152838Y-118162181D01*
X164119353Y-118100858D01*
X164124337Y-118031166D01*
X164166209Y-117975233D01*
X164231673Y-117950816D01*
X164240519Y-117950500D01*
X166990202Y-117950500D01*
X167057241Y-117970185D01*
X167095739Y-118009401D01*
X167132288Y-118068656D01*
X167256344Y-118192712D01*
X167405666Y-118284814D01*
X167572203Y-118339999D01*
X167674991Y-118350500D01*
X169275008Y-118350499D01*
X169377797Y-118339999D01*
X169544334Y-118284814D01*
X169693656Y-118192712D01*
X169817712Y-118068656D01*
X169909814Y-117919334D01*
X169964999Y-117752797D01*
X169975500Y-117650009D01*
X169975499Y-116349992D01*
X169964999Y-116247203D01*
X169909814Y-116080666D01*
X169817712Y-115931344D01*
X169693656Y-115807288D01*
X169606774Y-115753699D01*
X169538879Y-115711821D01*
X169492155Y-115659873D01*
X169480932Y-115590910D01*
X169508776Y-115526828D01*
X169516295Y-115518601D01*
X169589261Y-115445635D01*
X169663495Y-115371401D01*
X169799035Y-115177830D01*
X169898903Y-114963663D01*
X169960063Y-114735408D01*
X169980659Y-114500000D01*
X169960063Y-114264592D01*
X169898903Y-114036337D01*
X169799035Y-113822171D01*
X169788286Y-113806819D01*
X169663494Y-113628597D01*
X169496402Y-113461505D01*
X169302830Y-113325965D01*
X169302828Y-113325964D01*
X169158676Y-113258745D01*
X169088663Y-113226097D01*
X169088659Y-113226096D01*
X169088655Y-113226094D01*
X168860413Y-113164938D01*
X168860403Y-113164936D01*
X168683966Y-113149500D01*
X168266034Y-113149500D01*
X168089596Y-113164936D01*
X168089586Y-113164938D01*
X167861344Y-113226094D01*
X167861335Y-113226098D01*
X167647171Y-113325964D01*
X167647169Y-113325965D01*
X167453597Y-113461505D01*
X167286506Y-113628596D01*
X167203864Y-113746623D01*
X167149287Y-113790248D01*
X167102289Y-113799500D01*
X160583037Y-113799500D01*
X160579293Y-113799387D01*
X160517397Y-113795643D01*
X160517390Y-113795643D01*
X160456402Y-113806819D01*
X160452701Y-113807382D01*
X160391125Y-113814860D01*
X160381642Y-113818456D01*
X160360038Y-113824478D01*
X160358535Y-113824754D01*
X160350065Y-113826306D01*
X160350063Y-113826307D01*
X160293527Y-113851752D01*
X160290069Y-113853184D01*
X160232069Y-113875182D01*
X160223724Y-113880942D01*
X160204183Y-113891964D01*
X160194944Y-113896122D01*
X160194939Y-113896125D01*
X160146121Y-113934370D01*
X160143106Y-113936589D01*
X160092072Y-113971816D01*
X160092065Y-113971822D01*
X160050942Y-114018240D01*
X160048375Y-114020966D01*
X158105293Y-115964048D01*
X158043970Y-115997533D01*
X158006806Y-115999894D01*
X157901674Y-115990697D01*
X157810002Y-115982677D01*
X157809998Y-115982677D01*
X157589937Y-116001929D01*
X157589929Y-116001930D01*
X157376554Y-116059104D01*
X157376548Y-116059107D01*
X157176340Y-116152465D01*
X157176338Y-116152466D01*
X156995623Y-116279003D01*
X156929416Y-116301330D01*
X156861649Y-116284319D01*
X156813837Y-116233371D01*
X156800500Y-116177428D01*
X156800500Y-107729807D01*
X156800500Y-107729806D01*
X156791207Y-107689093D01*
X156790042Y-107682233D01*
X156788728Y-107670567D01*
X156785368Y-107640745D01*
X156785367Y-107640742D01*
X156771576Y-107601328D01*
X156769650Y-107594641D01*
X156760361Y-107553941D01*
X156742244Y-107516320D01*
X156739581Y-107509891D01*
X156725789Y-107470477D01*
X156705298Y-107437867D01*
X156703567Y-107435112D01*
X156700206Y-107429030D01*
X156682091Y-107391412D01*
X156682090Y-107391411D01*
X156656055Y-107358765D01*
X156652028Y-107353089D01*
X156633815Y-107324103D01*
X156629816Y-107317738D01*
X156502262Y-107190184D01*
X155297328Y-105985250D01*
X155263843Y-105923927D01*
X155261481Y-105886766D01*
X155267323Y-105820000D01*
X155248070Y-105599932D01*
X155190894Y-105386550D01*
X155097534Y-105186339D01*
X154970826Y-105005380D01*
X154970824Y-105005377D01*
X154836819Y-104871372D01*
X154803334Y-104810049D01*
X154800500Y-104783691D01*
X154800500Y-101000000D01*
X156019341Y-101000000D01*
X156039936Y-101235403D01*
X156039938Y-101235413D01*
X156101094Y-101463655D01*
X156101096Y-101463659D01*
X156101097Y-101463663D01*
X156144314Y-101556342D01*
X156200964Y-101677828D01*
X156200965Y-101677830D01*
X156336505Y-101871402D01*
X156503597Y-102038494D01*
X156697169Y-102174034D01*
X156697171Y-102174035D01*
X156911337Y-102273903D01*
X157139592Y-102335063D01*
X157316034Y-102350500D01*
X157683966Y-102350500D01*
X157860408Y-102335063D01*
X158088663Y-102273903D01*
X158302829Y-102174035D01*
X158496401Y-102038495D01*
X158663495Y-101871401D01*
X158799035Y-101677830D01*
X158898903Y-101463663D01*
X158960063Y-101235408D01*
X158980659Y-101000000D01*
X165519341Y-101000000D01*
X165539936Y-101235403D01*
X165539938Y-101235413D01*
X165601094Y-101463655D01*
X165601096Y-101463659D01*
X165601097Y-101463663D01*
X165644314Y-101556342D01*
X165700964Y-101677828D01*
X165700965Y-101677830D01*
X165836505Y-101871402D01*
X166003597Y-102038494D01*
X166197169Y-102174034D01*
X166197171Y-102174035D01*
X166411337Y-102273903D01*
X166639592Y-102335063D01*
X166816034Y-102350500D01*
X167183966Y-102350500D01*
X167360408Y-102335063D01*
X167588663Y-102273903D01*
X167802829Y-102174035D01*
X167996401Y-102038495D01*
X168163495Y-101871401D01*
X168299035Y-101677830D01*
X168398903Y-101463663D01*
X168460063Y-101235408D01*
X168480659Y-101000000D01*
X168460063Y-100764592D01*
X168398903Y-100536337D01*
X168299035Y-100322171D01*
X168299034Y-100322169D01*
X168163494Y-100128597D01*
X167996403Y-99961506D01*
X167858748Y-99865120D01*
X167839401Y-99851573D01*
X167795778Y-99796999D01*
X167788584Y-99727500D01*
X167820106Y-99665145D01*
X167839398Y-99648428D01*
X167996401Y-99538495D01*
X168163495Y-99371401D01*
X168299035Y-99177830D01*
X168398903Y-98963663D01*
X168460063Y-98735408D01*
X168480659Y-98500000D01*
X168460063Y-98264592D01*
X168398903Y-98036337D01*
X168299035Y-97822171D01*
X168299034Y-97822169D01*
X168163494Y-97628597D01*
X167996403Y-97461506D01*
X167940187Y-97422144D01*
X167839401Y-97351573D01*
X167795778Y-97296999D01*
X167788584Y-97227500D01*
X167820106Y-97165145D01*
X167839398Y-97148428D01*
X167996401Y-97038495D01*
X168163495Y-96871401D01*
X168299035Y-96677830D01*
X168398903Y-96463663D01*
X168460063Y-96235408D01*
X168480659Y-96000000D01*
X168460063Y-95764592D01*
X168398903Y-95536337D01*
X168299035Y-95322171D01*
X168299034Y-95322169D01*
X168163494Y-95128597D01*
X168015932Y-94981035D01*
X167982447Y-94919712D01*
X167987431Y-94850020D01*
X168029303Y-94794087D01*
X168038516Y-94787815D01*
X168193345Y-94692315D01*
X168317315Y-94568345D01*
X168409356Y-94419124D01*
X168409358Y-94419119D01*
X168464505Y-94252697D01*
X168464506Y-94252690D01*
X168474999Y-94149986D01*
X168475000Y-94149973D01*
X168475000Y-93800000D01*
X167572610Y-93800000D01*
X167505571Y-93780315D01*
X167459816Y-93727511D01*
X167449872Y-93658353D01*
X167453633Y-93641065D01*
X167455296Y-93635403D01*
X167475000Y-93568295D01*
X167475000Y-93431705D01*
X167463067Y-93391066D01*
X167453633Y-93358935D01*
X167453633Y-93289065D01*
X167491407Y-93230287D01*
X167554963Y-93201262D01*
X167572610Y-93200000D01*
X168474999Y-93200000D01*
X168474999Y-92850028D01*
X168474998Y-92850013D01*
X168464505Y-92747302D01*
X168409358Y-92580880D01*
X168409356Y-92580875D01*
X168317315Y-92431654D01*
X168193345Y-92307684D01*
X168044124Y-92215643D01*
X168044119Y-92215641D01*
X167877697Y-92160494D01*
X167877690Y-92160493D01*
X167774986Y-92150000D01*
X167300000Y-92150000D01*
X167300000Y-92922298D01*
X167280315Y-92989337D01*
X167227511Y-93035092D01*
X167158353Y-93045036D01*
X167141072Y-93041277D01*
X167135204Y-93039554D01*
X167050845Y-93027425D01*
X167033975Y-93025000D01*
X166966025Y-93025000D01*
X166864795Y-93039554D01*
X166858928Y-93041277D01*
X166789058Y-93041273D01*
X166730282Y-93003495D01*
X166701261Y-92939938D01*
X166700000Y-92922298D01*
X166700000Y-92150000D01*
X166225028Y-92150000D01*
X166225012Y-92150001D01*
X166122302Y-92160494D01*
X165955880Y-92215641D01*
X165955875Y-92215643D01*
X165806654Y-92307684D01*
X165682684Y-92431654D01*
X165590643Y-92580875D01*
X165590641Y-92580880D01*
X165535494Y-92747302D01*
X165535493Y-92747309D01*
X165525000Y-92850013D01*
X165525000Y-93200000D01*
X166427390Y-93200000D01*
X166494429Y-93219685D01*
X166540184Y-93272489D01*
X166550128Y-93341647D01*
X166546367Y-93358935D01*
X166536933Y-93391066D01*
X166525000Y-93431705D01*
X166525000Y-93568295D01*
X166544704Y-93635403D01*
X166546367Y-93641065D01*
X166546367Y-93710935D01*
X166508593Y-93769713D01*
X166445037Y-93798738D01*
X166427390Y-93800000D01*
X165525001Y-93800000D01*
X165525001Y-94149986D01*
X165535494Y-94252697D01*
X165590641Y-94419119D01*
X165590643Y-94419124D01*
X165682684Y-94568345D01*
X165806654Y-94692315D01*
X165961484Y-94787815D01*
X166008208Y-94839763D01*
X166019431Y-94908726D01*
X165991587Y-94972808D01*
X165984069Y-94981035D01*
X165836501Y-95128603D01*
X165836501Y-95128604D01*
X165700967Y-95322165D01*
X165700965Y-95322169D01*
X165601098Y-95536335D01*
X165601094Y-95536344D01*
X165539938Y-95764586D01*
X165539936Y-95764596D01*
X165519341Y-95999999D01*
X165519341Y-96000000D01*
X165539936Y-96235403D01*
X165539938Y-96235413D01*
X165601094Y-96463655D01*
X165601096Y-96463659D01*
X165601097Y-96463663D01*
X165601425Y-96464366D01*
X165700964Y-96677828D01*
X165700965Y-96677830D01*
X165836505Y-96871402D01*
X166003596Y-97038493D01*
X166003599Y-97038495D01*
X166120263Y-97120184D01*
X166160595Y-97148424D01*
X166204220Y-97203000D01*
X166211414Y-97272499D01*
X166179891Y-97334854D01*
X166160596Y-97351574D01*
X166003594Y-97461508D01*
X165836506Y-97628597D01*
X165836501Y-97628604D01*
X165700967Y-97822165D01*
X165700965Y-97822169D01*
X165601098Y-98036335D01*
X165601094Y-98036344D01*
X165539938Y-98264586D01*
X165539936Y-98264596D01*
X165519341Y-98499999D01*
X165519341Y-98500000D01*
X165539936Y-98735403D01*
X165539938Y-98735413D01*
X165601094Y-98963655D01*
X165601096Y-98963659D01*
X165601097Y-98963663D01*
X165640853Y-99048919D01*
X165700964Y-99177828D01*
X165700965Y-99177830D01*
X165836505Y-99371402D01*
X166003597Y-99538494D01*
X166160595Y-99648425D01*
X166204220Y-99703002D01*
X166211414Y-99772500D01*
X166179891Y-99834855D01*
X166160595Y-99851575D01*
X166003597Y-99961505D01*
X165836506Y-100128597D01*
X165836501Y-100128604D01*
X165700967Y-100322165D01*
X165700965Y-100322169D01*
X165601098Y-100536335D01*
X165601094Y-100536344D01*
X165539938Y-100764586D01*
X165539936Y-100764596D01*
X165519341Y-100999999D01*
X165519341Y-101000000D01*
X158980659Y-101000000D01*
X158960063Y-100764592D01*
X158898903Y-100536337D01*
X158799035Y-100322171D01*
X158799034Y-100322169D01*
X158663494Y-100128597D01*
X158496403Y-99961506D01*
X158358748Y-99865120D01*
X158339401Y-99851573D01*
X158295778Y-99796999D01*
X158288584Y-99727500D01*
X158320106Y-99665145D01*
X158339398Y-99648428D01*
X158496401Y-99538495D01*
X158663495Y-99371401D01*
X158799035Y-99177830D01*
X158898903Y-98963663D01*
X158960063Y-98735408D01*
X158980659Y-98500000D01*
X158960063Y-98264592D01*
X158898903Y-98036337D01*
X158799035Y-97822171D01*
X158799034Y-97822169D01*
X158663494Y-97628597D01*
X158496403Y-97461506D01*
X158440187Y-97422144D01*
X158339401Y-97351573D01*
X158295778Y-97296999D01*
X158288584Y-97227500D01*
X158320106Y-97165145D01*
X158339398Y-97148428D01*
X158496401Y-97038495D01*
X158663495Y-96871401D01*
X158799035Y-96677830D01*
X158898903Y-96463663D01*
X158960063Y-96235408D01*
X158980659Y-96000000D01*
X158960063Y-95764592D01*
X158898903Y-95536337D01*
X158799035Y-95322171D01*
X158799034Y-95322169D01*
X158663494Y-95128597D01*
X158515932Y-94981035D01*
X158482447Y-94919712D01*
X158487431Y-94850020D01*
X158529303Y-94794087D01*
X158538516Y-94787815D01*
X158693345Y-94692315D01*
X158817315Y-94568345D01*
X158909356Y-94419124D01*
X158909358Y-94419119D01*
X158964505Y-94252697D01*
X158964506Y-94252690D01*
X158974999Y-94149986D01*
X158975000Y-94149973D01*
X158975000Y-93800000D01*
X158072610Y-93800000D01*
X158005571Y-93780315D01*
X157959816Y-93727511D01*
X157949872Y-93658353D01*
X157953633Y-93641065D01*
X157955296Y-93635403D01*
X157975000Y-93568295D01*
X157975000Y-93431705D01*
X157963067Y-93391066D01*
X157953633Y-93358935D01*
X157953633Y-93289065D01*
X157991407Y-93230287D01*
X158054963Y-93201262D01*
X158072610Y-93200000D01*
X158974999Y-93200000D01*
X158974999Y-92850028D01*
X158974998Y-92850013D01*
X158964505Y-92747302D01*
X158909358Y-92580880D01*
X158909356Y-92580875D01*
X158817315Y-92431654D01*
X158693345Y-92307684D01*
X158544124Y-92215643D01*
X158544119Y-92215641D01*
X158377697Y-92160494D01*
X158377690Y-92160493D01*
X158274986Y-92150000D01*
X157800000Y-92150000D01*
X157800000Y-92922298D01*
X157780315Y-92989337D01*
X157727511Y-93035092D01*
X157658353Y-93045036D01*
X157641072Y-93041277D01*
X157635204Y-93039554D01*
X157550845Y-93027425D01*
X157533975Y-93025000D01*
X157466025Y-93025000D01*
X157364795Y-93039554D01*
X157358928Y-93041277D01*
X157289058Y-93041273D01*
X157230282Y-93003495D01*
X157201261Y-92939938D01*
X157200000Y-92922298D01*
X157200000Y-92150000D01*
X156725028Y-92150000D01*
X156725012Y-92150001D01*
X156622302Y-92160494D01*
X156455880Y-92215641D01*
X156455875Y-92215643D01*
X156306654Y-92307684D01*
X156182684Y-92431654D01*
X156090643Y-92580875D01*
X156090641Y-92580880D01*
X156035494Y-92747302D01*
X156035493Y-92747309D01*
X156025000Y-92850013D01*
X156025000Y-93200000D01*
X156927390Y-93200000D01*
X156994429Y-93219685D01*
X157040184Y-93272489D01*
X157050128Y-93341647D01*
X157046367Y-93358935D01*
X157036933Y-93391066D01*
X157025000Y-93431705D01*
X157025000Y-93568295D01*
X157044704Y-93635403D01*
X157046367Y-93641065D01*
X157046367Y-93710935D01*
X157008593Y-93769713D01*
X156945037Y-93798738D01*
X156927390Y-93800000D01*
X156025001Y-93800000D01*
X156025001Y-94149986D01*
X156035494Y-94252697D01*
X156090641Y-94419119D01*
X156090643Y-94419124D01*
X156182684Y-94568345D01*
X156306654Y-94692315D01*
X156461484Y-94787815D01*
X156508208Y-94839763D01*
X156519431Y-94908726D01*
X156491587Y-94972808D01*
X156484069Y-94981035D01*
X156336501Y-95128603D01*
X156336501Y-95128604D01*
X156200967Y-95322165D01*
X156200965Y-95322169D01*
X156101098Y-95536335D01*
X156101094Y-95536344D01*
X156039938Y-95764586D01*
X156039936Y-95764596D01*
X156019341Y-95999999D01*
X156019341Y-96000000D01*
X156039936Y-96235403D01*
X156039938Y-96235413D01*
X156101094Y-96463655D01*
X156101096Y-96463659D01*
X156101097Y-96463663D01*
X156101425Y-96464366D01*
X156200964Y-96677828D01*
X156200965Y-96677830D01*
X156336505Y-96871402D01*
X156503597Y-97038494D01*
X156660595Y-97148425D01*
X156704220Y-97203002D01*
X156711414Y-97272500D01*
X156679891Y-97334855D01*
X156660595Y-97351575D01*
X156503597Y-97461505D01*
X156336506Y-97628597D01*
X156336501Y-97628604D01*
X156200967Y-97822165D01*
X156200965Y-97822169D01*
X156101098Y-98036335D01*
X156101094Y-98036344D01*
X156039938Y-98264586D01*
X156039936Y-98264596D01*
X156019341Y-98499999D01*
X156019341Y-98500000D01*
X156039936Y-98735403D01*
X156039938Y-98735413D01*
X156101094Y-98963655D01*
X156101096Y-98963659D01*
X156101097Y-98963663D01*
X156140853Y-99048919D01*
X156200964Y-99177828D01*
X156200965Y-99177830D01*
X156336505Y-99371402D01*
X156503597Y-99538494D01*
X156660595Y-99648425D01*
X156704220Y-99703002D01*
X156711414Y-99772500D01*
X156679891Y-99834855D01*
X156660595Y-99851575D01*
X156503597Y-99961505D01*
X156336506Y-100128597D01*
X156336501Y-100128604D01*
X156200967Y-100322165D01*
X156200965Y-100322169D01*
X156101098Y-100536335D01*
X156101094Y-100536344D01*
X156039938Y-100764586D01*
X156039936Y-100764596D01*
X156019341Y-100999999D01*
X156019341Y-101000000D01*
X154800500Y-101000000D01*
X154800500Y-96659807D01*
X154800500Y-96659806D01*
X154791207Y-96619093D01*
X154790042Y-96612233D01*
X154785368Y-96570745D01*
X154785367Y-96570742D01*
X154771576Y-96531328D01*
X154769650Y-96524641D01*
X154760360Y-96483939D01*
X154742238Y-96446307D01*
X154739583Y-96439899D01*
X154725789Y-96400478D01*
X154703574Y-96365123D01*
X154700208Y-96359033D01*
X154682092Y-96321415D01*
X154682090Y-96321411D01*
X154656060Y-96288770D01*
X154652033Y-96283096D01*
X154629816Y-96247738D01*
X146479922Y-88097844D01*
X147200000Y-88097844D01*
X147206401Y-88157372D01*
X147206403Y-88157379D01*
X147256645Y-88292086D01*
X147256649Y-88292093D01*
X147342809Y-88407187D01*
X147342812Y-88407190D01*
X147457906Y-88493350D01*
X147457913Y-88493354D01*
X147592620Y-88543596D01*
X147592627Y-88543598D01*
X147652155Y-88549999D01*
X147652172Y-88550000D01*
X148700000Y-88550000D01*
X148700000Y-87503915D01*
X148719685Y-87436876D01*
X148772489Y-87391121D01*
X148841647Y-87381177D01*
X148854816Y-87383806D01*
X148917886Y-87400000D01*
X148917890Y-87400000D01*
X149040892Y-87400000D01*
X149040894Y-87400000D01*
X149040899Y-87399999D01*
X149040903Y-87399999D01*
X149072391Y-87396021D01*
X149160460Y-87384895D01*
X149229436Y-87396021D01*
X149281448Y-87442674D01*
X149300000Y-87507917D01*
X149300000Y-88550000D01*
X150347828Y-88550000D01*
X150347844Y-88549999D01*
X150407372Y-88543598D01*
X150407379Y-88543596D01*
X150542086Y-88493354D01*
X150542093Y-88493350D01*
X150657187Y-88407190D01*
X150657190Y-88407187D01*
X150743350Y-88292093D01*
X150743354Y-88292086D01*
X150793596Y-88157379D01*
X150793598Y-88157372D01*
X150799999Y-88097844D01*
X150800000Y-88097827D01*
X150800000Y-87050000D01*
X149754383Y-87050000D01*
X149687344Y-87030315D01*
X149641589Y-86977511D01*
X149631645Y-86908353D01*
X149632579Y-86902765D01*
X149635456Y-86887684D01*
X149653873Y-86791138D01*
X149643561Y-86627234D01*
X149638714Y-86612316D01*
X149636720Y-86542475D01*
X149672802Y-86482643D01*
X149735503Y-86451816D01*
X149756646Y-86450000D01*
X150800000Y-86450000D01*
X150800000Y-85402172D01*
X150799999Y-85402155D01*
X150793598Y-85342627D01*
X150793596Y-85342620D01*
X150743354Y-85207913D01*
X150743350Y-85207906D01*
X150657190Y-85092812D01*
X150657187Y-85092809D01*
X150542093Y-85006649D01*
X150542086Y-85006645D01*
X150407379Y-84956403D01*
X150407372Y-84956401D01*
X150347844Y-84950000D01*
X149300000Y-84950000D01*
X149300000Y-85996084D01*
X149280315Y-86063123D01*
X149227511Y-86108878D01*
X149158353Y-86118822D01*
X149145163Y-86116188D01*
X149082117Y-86100000D01*
X149082114Y-86100000D01*
X148959106Y-86100000D01*
X148959094Y-86100000D01*
X148839541Y-86115104D01*
X148770563Y-86103977D01*
X148718551Y-86057324D01*
X148700000Y-85992082D01*
X148700000Y-84950000D01*
X147652155Y-84950000D01*
X147592627Y-84956401D01*
X147592620Y-84956403D01*
X147457913Y-85006645D01*
X147457906Y-85006649D01*
X147342812Y-85092809D01*
X147342809Y-85092812D01*
X147256649Y-85207906D01*
X147256645Y-85207913D01*
X147206403Y-85342620D01*
X147206401Y-85342627D01*
X147200000Y-85402155D01*
X147200000Y-86450000D01*
X148245617Y-86450000D01*
X148312656Y-86469685D01*
X148358411Y-86522489D01*
X148368355Y-86591647D01*
X148367422Y-86597227D01*
X148346127Y-86708862D01*
X148346127Y-86708864D01*
X148346127Y-86708865D01*
X148356439Y-86872766D01*
X148361286Y-86887684D01*
X148363280Y-86957525D01*
X148327198Y-87017357D01*
X148264497Y-87048184D01*
X148243354Y-87050000D01*
X147200000Y-87050000D01*
X147200000Y-88097844D01*
X146479922Y-88097844D01*
X145762446Y-87380368D01*
X145728961Y-87319045D01*
X145729235Y-87265099D01*
X145785383Y-87019103D01*
X145805549Y-86750000D01*
X145802466Y-86708865D01*
X145785383Y-86480898D01*
X145737796Y-86272405D01*
X145725334Y-86217805D01*
X145626743Y-85966602D01*
X145491815Y-85732898D01*
X145323561Y-85521915D01*
X145323560Y-85521914D01*
X145323557Y-85521910D01*
X145125741Y-85338365D01*
X145063277Y-85295778D01*
X144902775Y-85186349D01*
X144902769Y-85186346D01*
X144902768Y-85186345D01*
X144902767Y-85186344D01*
X144659643Y-85069263D01*
X144659645Y-85069263D01*
X144401773Y-84989720D01*
X144401767Y-84989718D01*
X144134936Y-84949500D01*
X144134929Y-84949500D01*
X143865071Y-84949500D01*
X143865063Y-84949500D01*
X143598232Y-84989718D01*
X143598222Y-84989721D01*
X143496573Y-85021075D01*
X143426710Y-85022025D01*
X143372343Y-84990265D01*
X142582078Y-84200000D01*
X155150000Y-84200000D01*
X155927390Y-84200000D01*
X155994429Y-84219685D01*
X156040184Y-84272489D01*
X156050128Y-84341647D01*
X156046367Y-84358935D01*
X156025000Y-84431704D01*
X156025000Y-84568295D01*
X156046367Y-84641065D01*
X156046367Y-84710935D01*
X156008593Y-84769713D01*
X155945037Y-84798738D01*
X155927390Y-84800000D01*
X155150001Y-84800000D01*
X155150001Y-85274986D01*
X155160494Y-85377697D01*
X155215641Y-85544119D01*
X155215643Y-85544124D01*
X155307684Y-85693345D01*
X155431654Y-85817315D01*
X155580875Y-85909356D01*
X155580880Y-85909358D01*
X155747302Y-85964505D01*
X155747309Y-85964506D01*
X155850019Y-85974999D01*
X156199999Y-85974999D01*
X156200000Y-85974998D01*
X156200000Y-85077701D01*
X156219685Y-85010662D01*
X156272489Y-84964907D01*
X156341647Y-84954963D01*
X156358936Y-84958724D01*
X156364801Y-84960446D01*
X156466025Y-84975000D01*
X156466026Y-84975000D01*
X156533974Y-84975000D01*
X156533975Y-84975000D01*
X156635199Y-84960446D01*
X156635200Y-84960445D01*
X156641064Y-84958724D01*
X156710934Y-84958724D01*
X156769712Y-84996498D01*
X156798738Y-85060053D01*
X156800000Y-85077701D01*
X156800000Y-85974999D01*
X157149972Y-85974999D01*
X157149986Y-85974998D01*
X157252697Y-85964505D01*
X157419119Y-85909358D01*
X157419124Y-85909356D01*
X157568345Y-85817315D01*
X157692315Y-85693345D01*
X157787815Y-85538516D01*
X157839763Y-85491792D01*
X157908726Y-85480569D01*
X157972808Y-85508413D01*
X157981035Y-85515931D01*
X158128599Y-85663495D01*
X158128602Y-85663497D01*
X158128603Y-85663498D01*
X158322165Y-85799032D01*
X158322167Y-85799033D01*
X158322170Y-85799035D01*
X158536337Y-85898903D01*
X158536343Y-85898904D01*
X158536344Y-85898905D01*
X158575356Y-85909358D01*
X158764592Y-85960063D01*
X158952918Y-85976539D01*
X158999999Y-85980659D01*
X159000000Y-85980659D01*
X159000001Y-85980659D01*
X159039234Y-85977226D01*
X159235408Y-85960063D01*
X159463663Y-85898903D01*
X159677829Y-85799035D01*
X159871401Y-85663495D01*
X160038495Y-85496401D01*
X160148426Y-85339401D01*
X160203001Y-85295778D01*
X160272500Y-85288584D01*
X160334855Y-85320106D01*
X160351571Y-85339398D01*
X160422144Y-85440187D01*
X160461506Y-85496403D01*
X160628595Y-85663491D01*
X160628599Y-85663495D01*
X160724562Y-85730689D01*
X160822165Y-85799032D01*
X160822167Y-85799033D01*
X160822170Y-85799035D01*
X161036337Y-85898903D01*
X161036343Y-85898904D01*
X161036344Y-85898905D01*
X161075356Y-85909358D01*
X161264592Y-85960063D01*
X161452918Y-85976539D01*
X161499999Y-85980659D01*
X161500000Y-85980659D01*
X161500001Y-85980659D01*
X161539234Y-85977226D01*
X161735408Y-85960063D01*
X161963663Y-85898903D01*
X162177829Y-85799035D01*
X162371401Y-85663495D01*
X162538495Y-85496401D01*
X162674035Y-85302829D01*
X162773903Y-85088663D01*
X162835063Y-84860408D01*
X162850500Y-84683966D01*
X162850500Y-84316034D01*
X162835063Y-84139592D01*
X162773903Y-83911337D01*
X162674035Y-83697171D01*
X162661936Y-83679891D01*
X162538494Y-83503597D01*
X162371402Y-83336506D01*
X162371395Y-83336501D01*
X162177834Y-83200967D01*
X162177830Y-83200965D01*
X162134423Y-83180724D01*
X161963663Y-83101097D01*
X161963659Y-83101096D01*
X161963655Y-83101094D01*
X161735413Y-83039938D01*
X161735403Y-83039936D01*
X161500001Y-83019341D01*
X161499999Y-83019341D01*
X161264596Y-83039936D01*
X161264586Y-83039938D01*
X161036344Y-83101094D01*
X161036335Y-83101098D01*
X160822171Y-83200964D01*
X160822169Y-83200965D01*
X160628597Y-83336505D01*
X160461505Y-83503597D01*
X160351575Y-83660595D01*
X160296998Y-83704220D01*
X160227500Y-83711414D01*
X160165145Y-83679891D01*
X160148425Y-83660595D01*
X160038494Y-83503597D01*
X159871402Y-83336506D01*
X159871395Y-83336501D01*
X159677834Y-83200967D01*
X159677830Y-83200965D01*
X159634423Y-83180724D01*
X159463663Y-83101097D01*
X159463659Y-83101096D01*
X159463655Y-83101094D01*
X159235413Y-83039938D01*
X159235403Y-83039936D01*
X159000001Y-83019341D01*
X158999999Y-83019341D01*
X158764596Y-83039936D01*
X158764586Y-83039938D01*
X158536344Y-83101094D01*
X158536335Y-83101098D01*
X158322171Y-83200964D01*
X158322169Y-83200965D01*
X158128597Y-83336505D01*
X157981035Y-83484068D01*
X157919712Y-83517553D01*
X157850020Y-83512569D01*
X157794087Y-83470697D01*
X157787815Y-83461484D01*
X157692315Y-83306654D01*
X157568345Y-83182684D01*
X157419124Y-83090643D01*
X157419119Y-83090641D01*
X157252697Y-83035494D01*
X157252690Y-83035493D01*
X157149986Y-83025000D01*
X156800000Y-83025000D01*
X156800000Y-83922298D01*
X156780315Y-83989337D01*
X156727511Y-84035092D01*
X156658353Y-84045036D01*
X156641072Y-84041277D01*
X156635204Y-84039554D01*
X156550845Y-84027425D01*
X156533975Y-84025000D01*
X156466025Y-84025000D01*
X156364795Y-84039554D01*
X156358928Y-84041277D01*
X156289058Y-84041273D01*
X156230282Y-84003495D01*
X156201261Y-83939938D01*
X156200000Y-83922298D01*
X156200000Y-83025000D01*
X155850028Y-83025000D01*
X155850012Y-83025001D01*
X155747302Y-83035494D01*
X155580880Y-83090641D01*
X155580875Y-83090643D01*
X155431654Y-83182684D01*
X155307684Y-83306654D01*
X155215643Y-83455875D01*
X155215641Y-83455880D01*
X155160494Y-83622302D01*
X155160493Y-83622309D01*
X155150000Y-83725013D01*
X155150000Y-84200000D01*
X142582078Y-84200000D01*
X139843759Y-81461681D01*
X139810274Y-81400358D01*
X139815258Y-81330666D01*
X139857130Y-81274733D01*
X139922594Y-81250316D01*
X139931440Y-81250000D01*
X169948638Y-81250000D01*
X170015677Y-81269685D01*
X170036319Y-81286319D01*
X170237819Y-81487819D01*
X170271304Y-81549142D01*
X170266320Y-81618834D01*
X170224448Y-81674767D01*
X170158984Y-81699184D01*
X170150138Y-81699500D01*
X169821050Y-81699500D01*
X169465255Y-81738194D01*
X169115726Y-81815131D01*
X168859970Y-81901306D01*
X168776565Y-81929409D01*
X168776562Y-81929410D01*
X168776563Y-81929410D01*
X168776552Y-81929414D01*
X168451755Y-82079680D01*
X168451751Y-82079682D01*
X168223367Y-82217096D01*
X168145081Y-82264200D01*
X168097329Y-82300500D01*
X167860172Y-82480781D01*
X167860163Y-82480789D01*
X167600331Y-82726914D01*
X167368641Y-82999680D01*
X167368634Y-82999690D01*
X167167790Y-83295913D01*
X167167784Y-83295922D01*
X167000151Y-83612111D01*
X167000142Y-83612129D01*
X166867674Y-83944600D01*
X166867672Y-83944607D01*
X166771932Y-84289434D01*
X166771926Y-84289460D01*
X166714029Y-84642614D01*
X166714028Y-84642627D01*
X166714028Y-84642629D01*
X166707138Y-84769713D01*
X166696008Y-84974999D01*
X166694652Y-85000000D01*
X166710298Y-85288584D01*
X166714028Y-85357368D01*
X166714029Y-85357385D01*
X166771926Y-85710539D01*
X166771932Y-85710565D01*
X166867672Y-86055392D01*
X166867674Y-86055399D01*
X167000142Y-86387870D01*
X167000151Y-86387888D01*
X167167784Y-86704077D01*
X167167787Y-86704082D01*
X167167789Y-86704085D01*
X167353176Y-86977511D01*
X167368634Y-87000309D01*
X167368641Y-87000319D01*
X167600331Y-87273085D01*
X167600332Y-87273086D01*
X167860163Y-87519211D01*
X168145081Y-87735800D01*
X168451747Y-87920315D01*
X168451749Y-87920316D01*
X168451751Y-87920317D01*
X168451755Y-87920319D01*
X168576615Y-87978085D01*
X168776565Y-88070591D01*
X169115726Y-88184868D01*
X169465254Y-88261805D01*
X169821052Y-88300500D01*
X169821058Y-88300500D01*
X170178942Y-88300500D01*
X170178948Y-88300500D01*
X170534746Y-88261805D01*
X170884274Y-88184868D01*
X171223435Y-88070591D01*
X171548253Y-87920315D01*
X171854919Y-87735800D01*
X172139837Y-87519211D01*
X172399668Y-87273086D01*
X172631365Y-87000311D01*
X172832211Y-86704085D01*
X172999853Y-86387880D01*
X173132324Y-86055403D01*
X173228071Y-85710552D01*
X173245891Y-85601848D01*
X173285970Y-85357385D01*
X173285970Y-85357382D01*
X173285972Y-85357371D01*
X173305348Y-85000000D01*
X173297393Y-84853285D01*
X173313419Y-84785280D01*
X173363668Y-84736733D01*
X173432187Y-84723060D01*
X173497221Y-84748601D01*
X173508891Y-84758891D01*
X173713682Y-84963682D01*
X173747166Y-85025003D01*
X173750000Y-85051361D01*
X173750000Y-144948637D01*
X173730315Y-145015676D01*
X173713681Y-145036318D01*
X173508892Y-145241106D01*
X173447569Y-145274591D01*
X173377877Y-145269607D01*
X173321944Y-145227735D01*
X173297527Y-145162271D01*
X173297393Y-145146713D01*
X173305348Y-145000000D01*
X173285972Y-144642629D01*
X173263179Y-144503599D01*
X173228073Y-144289460D01*
X173228072Y-144289459D01*
X173228071Y-144289448D01*
X173154648Y-144025000D01*
X173132327Y-143944607D01*
X173132325Y-143944600D01*
X172999857Y-143612129D01*
X172999848Y-143612111D01*
X172832215Y-143295922D01*
X172832213Y-143295919D01*
X172832211Y-143295915D01*
X172631365Y-142999689D01*
X172631361Y-142999684D01*
X172631358Y-142999680D01*
X172399668Y-142726914D01*
X172349354Y-142679254D01*
X172139837Y-142480789D01*
X172139830Y-142480783D01*
X172139827Y-142480781D01*
X172046458Y-142409804D01*
X171854919Y-142264200D01*
X171548253Y-142079685D01*
X171548252Y-142079684D01*
X171548248Y-142079682D01*
X171548244Y-142079680D01*
X171223447Y-141929414D01*
X171223441Y-141929411D01*
X171223435Y-141929409D01*
X171052060Y-141871666D01*
X170884273Y-141815131D01*
X170534744Y-141738194D01*
X170178949Y-141699500D01*
X170178948Y-141699500D01*
X169821052Y-141699500D01*
X169821050Y-141699500D01*
X169465255Y-141738194D01*
X169115726Y-141815131D01*
X168906579Y-141885602D01*
X168776565Y-141929409D01*
X168776562Y-141929410D01*
X168776563Y-141929410D01*
X168776552Y-141929414D01*
X168451755Y-142079680D01*
X168451751Y-142079682D01*
X168304265Y-142168422D01*
X168145081Y-142264200D01*
X168056768Y-142331333D01*
X167860172Y-142480781D01*
X167860163Y-142480789D01*
X167600331Y-142726914D01*
X167368641Y-142999680D01*
X167368634Y-142999690D01*
X167167790Y-143295913D01*
X167167784Y-143295922D01*
X167000151Y-143612111D01*
X167000142Y-143612129D01*
X166867674Y-143944600D01*
X166867672Y-143944607D01*
X166771932Y-144289434D01*
X166771926Y-144289460D01*
X166714029Y-144642614D01*
X166714028Y-144642627D01*
X166714028Y-144642629D01*
X166706277Y-144785577D01*
X166694652Y-144999997D01*
X166694652Y-145000002D01*
X166714028Y-145357368D01*
X166714029Y-145357385D01*
X166771926Y-145710539D01*
X166771932Y-145710565D01*
X166867672Y-146055392D01*
X166867674Y-146055399D01*
X167000142Y-146387870D01*
X167000151Y-146387888D01*
X167167784Y-146704077D01*
X167167787Y-146704082D01*
X167167789Y-146704085D01*
X167368423Y-146999999D01*
X167368634Y-147000309D01*
X167368641Y-147000319D01*
X167536621Y-147198080D01*
X167600332Y-147273086D01*
X167860163Y-147519211D01*
X168145081Y-147735800D01*
X168451747Y-147920315D01*
X168451749Y-147920316D01*
X168451751Y-147920317D01*
X168451755Y-147920319D01*
X168776552Y-148070585D01*
X168776565Y-148070591D01*
X169115726Y-148184868D01*
X169465254Y-148261805D01*
X169821052Y-148300500D01*
X169821058Y-148300500D01*
X170150138Y-148300500D01*
X170217177Y-148320185D01*
X170262932Y-148372989D01*
X170272876Y-148442147D01*
X170243851Y-148505703D01*
X170237819Y-148512181D01*
X170036319Y-148713681D01*
X169974996Y-148747166D01*
X169948638Y-148750000D01*
X105051362Y-148750000D01*
X104984323Y-148730315D01*
X104963681Y-148713681D01*
X104762181Y-148512181D01*
X104728696Y-148450858D01*
X104733680Y-148381166D01*
X104775552Y-148325233D01*
X104841016Y-148300816D01*
X104849862Y-148300500D01*
X105178942Y-148300500D01*
X105178948Y-148300500D01*
X105534746Y-148261805D01*
X105884274Y-148184868D01*
X106223435Y-148070591D01*
X106548253Y-147920315D01*
X106854919Y-147735800D01*
X107139837Y-147519211D01*
X107399668Y-147273086D01*
X107631365Y-147000311D01*
X107832211Y-146704085D01*
X107999853Y-146387880D01*
X108132324Y-146055403D01*
X108228071Y-145710552D01*
X108274375Y-145428110D01*
X108285970Y-145357385D01*
X108285970Y-145357382D01*
X108285972Y-145357371D01*
X108305348Y-145000000D01*
X108285972Y-144642629D01*
X108263179Y-144503599D01*
X108228073Y-144289460D01*
X108228072Y-144289459D01*
X108228071Y-144289448D01*
X108154648Y-144025000D01*
X108132327Y-143944607D01*
X108132325Y-143944600D01*
X107999857Y-143612129D01*
X107999848Y-143612111D01*
X107832215Y-143295922D01*
X107832213Y-143295919D01*
X107832211Y-143295915D01*
X107631365Y-142999689D01*
X107631361Y-142999684D01*
X107631358Y-142999680D01*
X107399668Y-142726914D01*
X107349354Y-142679254D01*
X107139837Y-142480789D01*
X107139830Y-142480783D01*
X107139827Y-142480781D01*
X107046458Y-142409804D01*
X106854919Y-142264200D01*
X106548253Y-142079685D01*
X106548252Y-142079684D01*
X106548248Y-142079682D01*
X106548244Y-142079680D01*
X106223447Y-141929414D01*
X106223441Y-141929411D01*
X106223435Y-141929409D01*
X106052060Y-141871666D01*
X105884273Y-141815131D01*
X105534744Y-141738194D01*
X105178949Y-141699500D01*
X105178948Y-141699500D01*
X104821052Y-141699500D01*
X104821050Y-141699500D01*
X104465255Y-141738194D01*
X104115726Y-141815131D01*
X103906579Y-141885602D01*
X103776565Y-141929409D01*
X103776562Y-141929410D01*
X103776563Y-141929410D01*
X103776552Y-141929414D01*
X103451755Y-142079680D01*
X103451751Y-142079682D01*
X103304265Y-142168422D01*
X103145081Y-142264200D01*
X103056768Y-142331333D01*
X102860172Y-142480781D01*
X102860163Y-142480789D01*
X102600331Y-142726914D01*
X102368641Y-142999680D01*
X102368634Y-142999690D01*
X102167790Y-143295913D01*
X102167784Y-143295922D01*
X102000151Y-143612111D01*
X102000142Y-143612129D01*
X101867674Y-143944600D01*
X101867672Y-143944607D01*
X101771932Y-144289434D01*
X101771926Y-144289460D01*
X101714029Y-144642614D01*
X101714028Y-144642627D01*
X101714028Y-144642629D01*
X101706277Y-144785577D01*
X101694652Y-144999997D01*
X101694652Y-145000002D01*
X101702606Y-145146713D01*
X101686580Y-145214720D01*
X101636330Y-145263266D01*
X101567811Y-145276939D01*
X101502778Y-145251398D01*
X101491107Y-145241107D01*
X101286319Y-145036319D01*
X101252834Y-144974996D01*
X101250000Y-144948638D01*
X101250000Y-123347844D01*
X104950000Y-123347844D01*
X104956401Y-123407372D01*
X104956403Y-123407379D01*
X105006645Y-123542086D01*
X105006649Y-123542093D01*
X105092809Y-123657187D01*
X105092812Y-123657190D01*
X105207906Y-123743350D01*
X105207913Y-123743354D01*
X105342620Y-123793596D01*
X105342627Y-123793598D01*
X105402155Y-123799999D01*
X105402172Y-123800000D01*
X106450000Y-123800000D01*
X106450000Y-122753915D01*
X106469685Y-122686876D01*
X106522489Y-122641121D01*
X106591647Y-122631177D01*
X106604816Y-122633806D01*
X106667886Y-122650000D01*
X106667890Y-122650000D01*
X106790892Y-122650000D01*
X106790894Y-122650000D01*
X106790899Y-122649999D01*
X106790903Y-122649999D01*
X106822391Y-122646021D01*
X106910460Y-122634895D01*
X106979436Y-122646021D01*
X107031448Y-122692674D01*
X107050000Y-122757917D01*
X107050000Y-123800000D01*
X108097828Y-123800000D01*
X108097844Y-123799999D01*
X108157372Y-123793598D01*
X108157379Y-123793596D01*
X108292086Y-123743354D01*
X108292093Y-123743350D01*
X108407187Y-123657190D01*
X108407190Y-123657187D01*
X108493350Y-123542093D01*
X108493354Y-123542086D01*
X108543596Y-123407379D01*
X108543598Y-123407372D01*
X108549999Y-123347844D01*
X108550000Y-123347827D01*
X108550000Y-122300000D01*
X107504383Y-122300000D01*
X107437344Y-122280315D01*
X107391589Y-122227511D01*
X107381645Y-122158353D01*
X107382579Y-122152765D01*
X107386430Y-122132578D01*
X107403873Y-122041138D01*
X107393561Y-121877234D01*
X107388714Y-121862316D01*
X107386720Y-121792475D01*
X107422802Y-121732643D01*
X107485503Y-121701816D01*
X107506646Y-121700000D01*
X108550000Y-121700000D01*
X108550000Y-120652172D01*
X108549999Y-120652155D01*
X108543598Y-120592627D01*
X108543596Y-120592620D01*
X108493354Y-120457913D01*
X108493350Y-120457906D01*
X108407190Y-120342812D01*
X108407187Y-120342809D01*
X108292093Y-120256649D01*
X108292086Y-120256645D01*
X108157379Y-120206403D01*
X108157372Y-120206401D01*
X108097844Y-120200000D01*
X107050000Y-120200000D01*
X107050000Y-121246084D01*
X107030315Y-121313123D01*
X106977511Y-121358878D01*
X106908353Y-121368822D01*
X106895163Y-121366188D01*
X106832117Y-121350000D01*
X106832114Y-121350000D01*
X106709106Y-121350000D01*
X106709094Y-121350000D01*
X106589541Y-121365104D01*
X106520563Y-121353977D01*
X106468551Y-121307324D01*
X106450000Y-121242082D01*
X106450000Y-120200000D01*
X105402155Y-120200000D01*
X105342627Y-120206401D01*
X105342620Y-120206403D01*
X105207913Y-120256645D01*
X105207906Y-120256649D01*
X105092812Y-120342809D01*
X105092809Y-120342812D01*
X105006649Y-120457906D01*
X105006645Y-120457913D01*
X104956403Y-120592620D01*
X104956401Y-120592627D01*
X104950000Y-120652155D01*
X104950000Y-121700000D01*
X105995617Y-121700000D01*
X106062656Y-121719685D01*
X106108411Y-121772489D01*
X106118355Y-121841647D01*
X106117422Y-121847227D01*
X106096127Y-121958862D01*
X106096127Y-121958864D01*
X106096127Y-121958865D01*
X106106439Y-122122766D01*
X106111286Y-122137684D01*
X106113280Y-122207525D01*
X106077198Y-122267357D01*
X106014497Y-122298184D01*
X105993354Y-122300000D01*
X104950000Y-122300000D01*
X104950000Y-123347844D01*
X101250000Y-123347844D01*
X101250000Y-112200000D01*
X102900000Y-112200000D01*
X103677390Y-112200000D01*
X103744429Y-112219685D01*
X103790184Y-112272489D01*
X103800128Y-112341647D01*
X103796367Y-112358933D01*
X103775000Y-112431705D01*
X103775000Y-112568295D01*
X103791761Y-112625380D01*
X103796367Y-112641065D01*
X103796367Y-112710935D01*
X103758593Y-112769713D01*
X103695037Y-112798738D01*
X103677390Y-112800000D01*
X102900001Y-112800000D01*
X102900001Y-113274986D01*
X102910494Y-113377697D01*
X102965641Y-113544119D01*
X102965643Y-113544124D01*
X103057684Y-113693345D01*
X103181654Y-113817315D01*
X103330875Y-113909356D01*
X103330880Y-113909358D01*
X103497302Y-113964505D01*
X103497309Y-113964506D01*
X103600019Y-113974999D01*
X103949999Y-113974999D01*
X103950000Y-113974998D01*
X103950000Y-113077701D01*
X103969685Y-113010662D01*
X104022489Y-112964907D01*
X104091647Y-112954963D01*
X104108936Y-112958724D01*
X104114800Y-112960446D01*
X104114801Y-112960446D01*
X104216025Y-112975000D01*
X104216026Y-112975000D01*
X104283974Y-112975000D01*
X104283975Y-112975000D01*
X104373896Y-112962071D01*
X104385200Y-112960446D01*
X104391061Y-112958725D01*
X104460931Y-112958723D01*
X104519710Y-112996496D01*
X104548736Y-113060051D01*
X104549999Y-113077701D01*
X104549999Y-113974998D01*
X104550001Y-113974999D01*
X104899972Y-113974999D01*
X104899986Y-113974998D01*
X105002697Y-113964505D01*
X105169119Y-113909358D01*
X105169124Y-113909356D01*
X105318345Y-113817315D01*
X105442315Y-113693345D01*
X105537815Y-113538516D01*
X105589763Y-113491792D01*
X105658726Y-113480569D01*
X105722808Y-113508413D01*
X105731034Y-113515930D01*
X105878599Y-113663495D01*
X105878602Y-113663497D01*
X105878603Y-113663498D01*
X106072165Y-113799032D01*
X106072167Y-113799033D01*
X106072170Y-113799035D01*
X106286337Y-113898903D01*
X106286343Y-113898904D01*
X106286344Y-113898905D01*
X106325356Y-113909358D01*
X106514592Y-113960063D01*
X106702918Y-113976539D01*
X106749999Y-113980659D01*
X106750000Y-113980659D01*
X106750001Y-113980659D01*
X106789234Y-113977226D01*
X106985408Y-113960063D01*
X107213663Y-113898903D01*
X107427829Y-113799035D01*
X107621401Y-113663495D01*
X107788495Y-113496401D01*
X107898426Y-113339401D01*
X107953001Y-113295778D01*
X108022500Y-113288584D01*
X108084855Y-113320106D01*
X108101571Y-113339398D01*
X108128388Y-113377697D01*
X108211506Y-113496403D01*
X108343700Y-113628596D01*
X108378599Y-113663495D01*
X108450019Y-113713504D01*
X108572165Y-113799032D01*
X108572167Y-113799033D01*
X108572170Y-113799035D01*
X108786337Y-113898903D01*
X108786343Y-113898904D01*
X108786344Y-113898905D01*
X108825356Y-113909358D01*
X109014592Y-113960063D01*
X109202918Y-113976539D01*
X109249999Y-113980659D01*
X109250000Y-113980659D01*
X109250001Y-113980659D01*
X109289234Y-113977226D01*
X109485408Y-113960063D01*
X109713663Y-113898903D01*
X109927829Y-113799035D01*
X110121401Y-113663495D01*
X110288495Y-113496401D01*
X110424035Y-113302829D01*
X110523903Y-113088663D01*
X110585063Y-112860408D01*
X110600500Y-112683966D01*
X110600500Y-112316034D01*
X110585063Y-112139592D01*
X110523903Y-111911337D01*
X110424035Y-111697171D01*
X110411936Y-111679891D01*
X110288494Y-111503597D01*
X110121402Y-111336506D01*
X110121395Y-111336501D01*
X109927834Y-111200967D01*
X109927830Y-111200965D01*
X109869302Y-111173673D01*
X109713663Y-111101097D01*
X109713659Y-111101096D01*
X109713655Y-111101094D01*
X109485413Y-111039938D01*
X109485403Y-111039936D01*
X109250001Y-111019341D01*
X109249999Y-111019341D01*
X109014596Y-111039936D01*
X109014586Y-111039938D01*
X108786344Y-111101094D01*
X108786335Y-111101098D01*
X108572171Y-111200964D01*
X108572169Y-111200965D01*
X108378597Y-111336505D01*
X108211505Y-111503597D01*
X108101575Y-111660595D01*
X108046998Y-111704220D01*
X107977500Y-111711414D01*
X107915145Y-111679891D01*
X107898425Y-111660595D01*
X107788494Y-111503597D01*
X107621402Y-111336506D01*
X107621395Y-111336501D01*
X107427834Y-111200967D01*
X107427830Y-111200965D01*
X107369302Y-111173673D01*
X107213663Y-111101097D01*
X107213659Y-111101096D01*
X107213655Y-111101094D01*
X106985413Y-111039938D01*
X106985403Y-111039936D01*
X106750001Y-111019341D01*
X106749999Y-111019341D01*
X106514596Y-111039936D01*
X106514586Y-111039938D01*
X106286344Y-111101094D01*
X106286335Y-111101098D01*
X106072171Y-111200964D01*
X106072169Y-111200965D01*
X105878597Y-111336505D01*
X105731035Y-111484068D01*
X105669712Y-111517553D01*
X105600020Y-111512569D01*
X105544087Y-111470697D01*
X105537815Y-111461484D01*
X105442315Y-111306654D01*
X105318345Y-111182684D01*
X105169124Y-111090643D01*
X105169119Y-111090641D01*
X105002697Y-111035494D01*
X105002690Y-111035493D01*
X104899986Y-111025000D01*
X104549999Y-111025000D01*
X104549999Y-111922298D01*
X104530314Y-111989338D01*
X104477510Y-112035092D01*
X104408352Y-112045036D01*
X104391069Y-112041276D01*
X104385206Y-112039554D01*
X104296627Y-112026819D01*
X104283975Y-112025000D01*
X104216025Y-112025000D01*
X104114795Y-112039554D01*
X104108928Y-112041277D01*
X104039058Y-112041273D01*
X103980282Y-112003495D01*
X103951261Y-111939938D01*
X103950000Y-111922298D01*
X103950000Y-111025000D01*
X103600028Y-111025000D01*
X103600012Y-111025001D01*
X103497302Y-111035494D01*
X103330880Y-111090641D01*
X103330875Y-111090643D01*
X103181654Y-111182684D01*
X103057684Y-111306654D01*
X102965643Y-111455875D01*
X102965641Y-111455880D01*
X102910494Y-111622302D01*
X102910493Y-111622309D01*
X102900000Y-111725013D01*
X102900000Y-112200000D01*
X101250000Y-112200000D01*
X101250000Y-103525001D01*
X102899500Y-103525001D01*
X102899501Y-103525018D01*
X102910000Y-103627796D01*
X102910001Y-103627799D01*
X102949303Y-103746402D01*
X102965186Y-103794334D01*
X103057288Y-103943656D01*
X103181344Y-104067712D01*
X103330666Y-104159814D01*
X103497203Y-104214999D01*
X103599991Y-104225500D01*
X104900008Y-104225499D01*
X105002797Y-104214999D01*
X105169334Y-104159814D01*
X105318656Y-104067712D01*
X105442712Y-103943656D01*
X105534814Y-103794334D01*
X105534814Y-103794333D01*
X105538448Y-103788442D01*
X105590396Y-103741717D01*
X105659358Y-103730494D01*
X105723441Y-103758337D01*
X105731668Y-103765856D01*
X105878921Y-103913108D01*
X106072421Y-104048600D01*
X106286507Y-104148429D01*
X106286516Y-104148433D01*
X106449999Y-104192238D01*
X106449999Y-104192237D01*
X106450000Y-103327701D01*
X106469685Y-103260662D01*
X106522489Y-103214907D01*
X106591647Y-103204963D01*
X106608936Y-103208724D01*
X106614800Y-103210446D01*
X106614801Y-103210446D01*
X106716025Y-103225000D01*
X106716026Y-103225000D01*
X106783974Y-103225000D01*
X106783975Y-103225000D01*
X106885199Y-103210446D01*
X106885200Y-103210445D01*
X106891064Y-103208724D01*
X106960934Y-103208724D01*
X107019712Y-103246498D01*
X107048738Y-103310053D01*
X107050000Y-103327701D01*
X107050000Y-104192238D01*
X107213483Y-104148433D01*
X107213492Y-104148429D01*
X107427577Y-104048600D01*
X107427579Y-104048599D01*
X107621073Y-103913113D01*
X107621079Y-103913108D01*
X107788108Y-103746079D01*
X107788113Y-103746073D01*
X107898119Y-103588967D01*
X107952695Y-103545342D01*
X108022194Y-103538148D01*
X108084549Y-103569670D01*
X108101269Y-103588967D01*
X108211505Y-103746402D01*
X108339956Y-103874852D01*
X108378599Y-103913495D01*
X108421675Y-103943657D01*
X108572165Y-104049032D01*
X108572167Y-104049033D01*
X108572170Y-104049035D01*
X108786337Y-104148903D01*
X109014592Y-104210063D01*
X109191034Y-104225500D01*
X109249999Y-104230659D01*
X109250000Y-104230659D01*
X109250001Y-104230659D01*
X109295342Y-104226692D01*
X109485408Y-104210063D01*
X109713663Y-104148903D01*
X109927829Y-104049035D01*
X110121401Y-103913495D01*
X110288495Y-103746401D01*
X110424035Y-103552829D01*
X110523903Y-103338663D01*
X110585063Y-103110408D01*
X110600500Y-102933966D01*
X110600500Y-102566034D01*
X110585063Y-102389592D01*
X110533597Y-102197517D01*
X110523905Y-102161344D01*
X110523904Y-102161343D01*
X110523903Y-102161337D01*
X110424035Y-101947171D01*
X110398731Y-101911032D01*
X110288494Y-101753597D01*
X110121402Y-101586506D01*
X110121395Y-101586501D01*
X109927834Y-101450967D01*
X109927830Y-101450965D01*
X109887777Y-101432288D01*
X109713663Y-101351097D01*
X109713659Y-101351096D01*
X109713655Y-101351094D01*
X109485413Y-101289938D01*
X109485403Y-101289936D01*
X109250001Y-101269341D01*
X109249999Y-101269341D01*
X109014596Y-101289936D01*
X109014586Y-101289938D01*
X108786344Y-101351094D01*
X108786335Y-101351098D01*
X108572171Y-101450964D01*
X108572169Y-101450965D01*
X108378597Y-101586505D01*
X108211508Y-101753594D01*
X108101269Y-101911032D01*
X108046692Y-101954656D01*
X107977193Y-101961849D01*
X107914839Y-101930327D01*
X107898119Y-101911031D01*
X107788113Y-101753926D01*
X107788108Y-101753920D01*
X107621082Y-101586894D01*
X107427578Y-101451399D01*
X107213495Y-101351571D01*
X107049999Y-101307761D01*
X107050000Y-102172298D01*
X107030315Y-102239337D01*
X106977511Y-102285092D01*
X106908353Y-102295036D01*
X106891072Y-102291277D01*
X106885204Y-102289554D01*
X106800845Y-102277425D01*
X106783975Y-102275000D01*
X106716025Y-102275000D01*
X106614795Y-102289554D01*
X106608928Y-102291277D01*
X106539058Y-102291273D01*
X106480282Y-102253495D01*
X106451261Y-102189938D01*
X106450000Y-102172298D01*
X106450000Y-101307761D01*
X106286504Y-101351571D01*
X106072422Y-101451399D01*
X106072420Y-101451400D01*
X105878926Y-101586886D01*
X105731668Y-101734144D01*
X105670345Y-101767628D01*
X105600653Y-101762644D01*
X105544720Y-101720772D01*
X105538448Y-101711558D01*
X105442712Y-101556344D01*
X105318657Y-101432289D01*
X105318656Y-101432288D01*
X105187792Y-101351571D01*
X105169336Y-101340187D01*
X105169331Y-101340185D01*
X105167862Y-101339698D01*
X105002797Y-101285001D01*
X105002795Y-101285000D01*
X104900010Y-101274500D01*
X103599998Y-101274500D01*
X103599981Y-101274501D01*
X103497203Y-101285000D01*
X103497200Y-101285001D01*
X103330668Y-101340185D01*
X103330663Y-101340187D01*
X103181342Y-101432289D01*
X103057289Y-101556342D01*
X102965187Y-101705663D01*
X102965185Y-101705668D01*
X102949196Y-101753920D01*
X102910001Y-101872203D01*
X102910001Y-101872204D01*
X102910000Y-101872204D01*
X102899500Y-101974983D01*
X102899500Y-103525001D01*
X101250000Y-103525001D01*
X101250000Y-92950000D01*
X104150000Y-92950000D01*
X104901334Y-92950000D01*
X104968373Y-92969685D01*
X105014128Y-93022489D01*
X105024072Y-93091647D01*
X105020311Y-93108934D01*
X105000000Y-93178107D01*
X105000000Y-93321892D01*
X105020311Y-93391066D01*
X105020311Y-93460936D01*
X104982536Y-93519714D01*
X104918980Y-93548738D01*
X104901334Y-93550000D01*
X104150001Y-93550000D01*
X104150001Y-94049986D01*
X104160494Y-94152697D01*
X104215641Y-94319119D01*
X104215643Y-94319124D01*
X104307684Y-94468345D01*
X104431654Y-94592315D01*
X104580875Y-94684356D01*
X104580880Y-94684358D01*
X104747302Y-94739505D01*
X104747309Y-94739506D01*
X104850019Y-94749999D01*
X105199999Y-94749999D01*
X105200000Y-94749998D01*
X105200000Y-93854024D01*
X105219685Y-93786985D01*
X105272489Y-93741230D01*
X105341647Y-93731286D01*
X105356396Y-93734494D01*
X105357682Y-93734679D01*
X105357685Y-93734680D01*
X105464237Y-93750000D01*
X105464238Y-93750000D01*
X105535762Y-93750000D01*
X105535763Y-93750000D01*
X105639756Y-93735048D01*
X105651094Y-93733418D01*
X105651328Y-93735048D01*
X105710926Y-93735044D01*
X105769707Y-93772815D01*
X105798737Y-93836368D01*
X105800000Y-93854024D01*
X105800000Y-94749999D01*
X106149972Y-94749999D01*
X106149986Y-94749998D01*
X106252697Y-94739505D01*
X106419119Y-94684358D01*
X106419124Y-94684356D01*
X106568345Y-94592315D01*
X106692315Y-94468345D01*
X106787815Y-94313516D01*
X106839763Y-94266792D01*
X106908726Y-94255569D01*
X106972808Y-94283413D01*
X106981035Y-94290931D01*
X107128599Y-94438495D01*
X107128602Y-94438497D01*
X107128603Y-94438498D01*
X107322165Y-94574032D01*
X107322167Y-94574033D01*
X107322170Y-94574035D01*
X107536337Y-94673903D01*
X107536343Y-94673904D01*
X107536344Y-94673905D01*
X107575356Y-94684358D01*
X107764592Y-94735063D01*
X107952918Y-94751539D01*
X107999999Y-94755659D01*
X108000000Y-94755659D01*
X108000001Y-94755659D01*
X108039234Y-94752226D01*
X108235408Y-94735063D01*
X108463663Y-94673903D01*
X108677829Y-94574035D01*
X108871401Y-94438495D01*
X109038495Y-94271401D01*
X109174035Y-94077829D01*
X109273903Y-93863663D01*
X109335063Y-93635408D01*
X109350500Y-93458966D01*
X109350500Y-93041034D01*
X109335063Y-92864592D01*
X109281212Y-92663615D01*
X109273905Y-92636344D01*
X109273904Y-92636343D01*
X109273903Y-92636337D01*
X109174035Y-92422171D01*
X109121617Y-92347309D01*
X109038494Y-92228597D01*
X108871402Y-92061506D01*
X108871395Y-92061501D01*
X108677834Y-91925967D01*
X108677830Y-91925965D01*
X108638626Y-91907684D01*
X108463663Y-91826097D01*
X108463659Y-91826096D01*
X108463655Y-91826094D01*
X108235413Y-91764938D01*
X108235403Y-91764936D01*
X108000001Y-91744341D01*
X107999999Y-91744341D01*
X107764596Y-91764936D01*
X107764586Y-91764938D01*
X107536344Y-91826094D01*
X107536335Y-91826098D01*
X107322171Y-91925964D01*
X107322169Y-91925965D01*
X107128597Y-92061505D01*
X106981035Y-92209068D01*
X106919712Y-92242553D01*
X106850020Y-92237569D01*
X106794087Y-92195697D01*
X106787815Y-92186484D01*
X106692315Y-92031654D01*
X106568345Y-91907684D01*
X106419124Y-91815643D01*
X106419119Y-91815641D01*
X106252697Y-91760494D01*
X106252690Y-91760493D01*
X106149986Y-91750000D01*
X105800000Y-91750000D01*
X105800000Y-92645975D01*
X105780315Y-92713014D01*
X105727511Y-92758769D01*
X105658353Y-92768713D01*
X105643608Y-92765505D01*
X105550519Y-92752121D01*
X105535763Y-92750000D01*
X105464237Y-92750000D01*
X105348906Y-92766582D01*
X105348671Y-92764953D01*
X105289059Y-92764950D01*
X105230283Y-92727173D01*
X105201261Y-92663615D01*
X105200000Y-92645975D01*
X105199999Y-91750000D01*
X104850028Y-91750000D01*
X104850012Y-91750001D01*
X104747302Y-91760494D01*
X104580880Y-91815641D01*
X104580875Y-91815643D01*
X104431654Y-91907684D01*
X104307684Y-92031654D01*
X104215643Y-92180875D01*
X104215641Y-92180880D01*
X104160494Y-92347302D01*
X104160493Y-92347309D01*
X104150000Y-92450013D01*
X104150000Y-92950000D01*
X101250000Y-92950000D01*
X101250000Y-85051361D01*
X101269685Y-84984322D01*
X101286314Y-84963685D01*
X101491111Y-84758888D01*
X101552430Y-84725406D01*
X101622121Y-84730390D01*
X101678055Y-84772261D01*
X101702472Y-84837726D01*
X101702606Y-84853285D01*
X101696007Y-84975000D01*
X101694652Y-85000000D01*
X101710298Y-85288584D01*
X101714028Y-85357368D01*
X101714029Y-85357385D01*
X101771926Y-85710539D01*
X101771932Y-85710565D01*
X101867672Y-86055392D01*
X101867674Y-86055399D01*
X102000142Y-86387870D01*
X102000151Y-86387888D01*
X102167784Y-86704077D01*
X102167787Y-86704082D01*
X102167789Y-86704085D01*
X102353176Y-86977511D01*
X102368634Y-87000309D01*
X102368641Y-87000319D01*
X102600331Y-87273085D01*
X102600332Y-87273086D01*
X102860163Y-87519211D01*
X103145081Y-87735800D01*
X103451747Y-87920315D01*
X103451749Y-87920316D01*
X103451751Y-87920317D01*
X103451755Y-87920319D01*
X103576615Y-87978085D01*
X103776565Y-88070591D01*
X104115726Y-88184868D01*
X104465254Y-88261805D01*
X104821052Y-88300500D01*
X104821058Y-88300500D01*
X105178942Y-88300500D01*
X105178948Y-88300500D01*
X105534746Y-88261805D01*
X105884274Y-88184868D01*
X106223435Y-88070591D01*
X106548253Y-87920315D01*
X106854919Y-87735800D01*
X107139837Y-87519211D01*
X107399668Y-87273086D01*
X107631365Y-87000311D01*
X107832211Y-86704085D01*
X107999853Y-86387880D01*
X108132324Y-86055403D01*
X108228071Y-85710552D01*
X108245891Y-85601849D01*
X108285970Y-85357385D01*
X108285970Y-85357382D01*
X108285972Y-85357371D01*
X108305348Y-85000000D01*
X108303992Y-84974999D01*
X108297780Y-84860413D01*
X108285972Y-84642629D01*
X108228071Y-84289448D01*
X108132324Y-83944597D01*
X108044834Y-83725013D01*
X107999857Y-83612129D01*
X107999848Y-83612111D01*
X107949716Y-83517553D01*
X107853731Y-83336505D01*
X107832215Y-83295922D01*
X107832213Y-83295919D01*
X107832211Y-83295915D01*
X107631365Y-82999689D01*
X107631361Y-82999684D01*
X107631358Y-82999680D01*
X107399668Y-82726914D01*
X107287329Y-82620501D01*
X107139837Y-82480789D01*
X107139830Y-82480783D01*
X107139827Y-82480781D01*
X107072245Y-82429407D01*
X106854919Y-82264200D01*
X106548253Y-82079685D01*
X106548252Y-82079684D01*
X106548248Y-82079682D01*
X106548244Y-82079680D01*
X106223447Y-81929414D01*
X106223441Y-81929411D01*
X106223435Y-81929409D01*
X106053854Y-81872270D01*
X105884273Y-81815131D01*
X105534744Y-81738194D01*
X105178949Y-81699500D01*
X105178948Y-81699500D01*
X104849862Y-81699500D01*
X104782823Y-81679815D01*
X104737068Y-81627011D01*
X104727124Y-81557853D01*
X104756149Y-81494297D01*
X104762181Y-81487819D01*
X104963681Y-81286319D01*
X105025004Y-81252834D01*
X105051362Y-81250000D01*
X124568560Y-81250000D01*
X124635599Y-81269685D01*
G37*
%TD.AperFunction*%
%TA.AperFunction,Conductor*%
G36*
X121071221Y-106915881D02*
G01*
X121127155Y-106957752D01*
X121140235Y-106981932D01*
X121140973Y-106981589D01*
X121239431Y-107192732D01*
X121239432Y-107192734D01*
X121369954Y-107379141D01*
X121530858Y-107540045D01*
X121538473Y-107545377D01*
X121717266Y-107670568D01*
X121775275Y-107697618D01*
X121827714Y-107743791D01*
X121846866Y-107810984D01*
X121826650Y-107877865D01*
X121775275Y-107922381D01*
X121766328Y-107926554D01*
X121717267Y-107949431D01*
X121717265Y-107949432D01*
X121530858Y-108079954D01*
X121369954Y-108240858D01*
X121239432Y-108427265D01*
X121239431Y-108427267D01*
X121143261Y-108633502D01*
X121143258Y-108633511D01*
X121084366Y-108853302D01*
X121084364Y-108853313D01*
X121064532Y-109079998D01*
X121064532Y-109080001D01*
X121084364Y-109306686D01*
X121084366Y-109306697D01*
X121143258Y-109526488D01*
X121143261Y-109526497D01*
X121239431Y-109732732D01*
X121239432Y-109732734D01*
X121369954Y-109919141D01*
X121530858Y-110080045D01*
X121577059Y-110112395D01*
X121717266Y-110210568D01*
X121775865Y-110237893D01*
X121828305Y-110284065D01*
X121847457Y-110351258D01*
X121827242Y-110418139D01*
X121775867Y-110462657D01*
X121717515Y-110489867D01*
X121531179Y-110620342D01*
X121370342Y-110781179D01*
X121239865Y-110967517D01*
X121143734Y-111173673D01*
X121143731Y-111173679D01*
X121104525Y-111319999D01*
X121104525Y-111320000D01*
X121871577Y-111320000D01*
X121938616Y-111339685D01*
X121984371Y-111392489D01*
X121994315Y-111461647D01*
X121986834Y-111485244D01*
X121987850Y-111485574D01*
X121984833Y-111494856D01*
X121965014Y-111619996D01*
X121965014Y-111620003D01*
X121984833Y-111745143D01*
X121987850Y-111754426D01*
X121985002Y-111755351D01*
X121994957Y-111808389D01*
X121968672Y-111873126D01*
X121911561Y-111913377D01*
X121871577Y-111920000D01*
X121104525Y-111920000D01*
X121143731Y-112066320D01*
X121143734Y-112066326D01*
X121239865Y-112272482D01*
X121370342Y-112458820D01*
X121531179Y-112619657D01*
X121717518Y-112750134D01*
X121717520Y-112750135D01*
X121775865Y-112777342D01*
X121828305Y-112823514D01*
X121847457Y-112890707D01*
X121827242Y-112957589D01*
X121775867Y-113002105D01*
X121717268Y-113029431D01*
X121717264Y-113029433D01*
X121530858Y-113159954D01*
X121369954Y-113320858D01*
X121239432Y-113507265D01*
X121239431Y-113507267D01*
X121143261Y-113713502D01*
X121143258Y-113713511D01*
X121084366Y-113933302D01*
X121084364Y-113933313D01*
X121064532Y-114159998D01*
X121064532Y-114160001D01*
X121084364Y-114386686D01*
X121084366Y-114386697D01*
X121143258Y-114606488D01*
X121143261Y-114606497D01*
X121239431Y-114812732D01*
X121239432Y-114812734D01*
X121369954Y-114999141D01*
X121530858Y-115160045D01*
X121530861Y-115160047D01*
X121717266Y-115290568D01*
X121775275Y-115317618D01*
X121827714Y-115363791D01*
X121846866Y-115430984D01*
X121826650Y-115497865D01*
X121775275Y-115542381D01*
X121766328Y-115546554D01*
X121717267Y-115569431D01*
X121717265Y-115569432D01*
X121530858Y-115699954D01*
X121369954Y-115860858D01*
X121239432Y-116047265D01*
X121239431Y-116047267D01*
X121143261Y-116253502D01*
X121143258Y-116253511D01*
X121084366Y-116473302D01*
X121084364Y-116473313D01*
X121064532Y-116699998D01*
X121064532Y-116700001D01*
X121084364Y-116926686D01*
X121084366Y-116926697D01*
X121143258Y-117146488D01*
X121143261Y-117146497D01*
X121239431Y-117352732D01*
X121239432Y-117352734D01*
X121369954Y-117539141D01*
X121530858Y-117700045D01*
X121577693Y-117732839D01*
X121717266Y-117830568D01*
X121923504Y-117926739D01*
X122143308Y-117985635D01*
X122305230Y-117999801D01*
X122369998Y-118005468D01*
X122370000Y-118005468D01*
X122370002Y-118005468D01*
X122426673Y-118000509D01*
X122596692Y-117985635D01*
X122816496Y-117926739D01*
X123022734Y-117830568D01*
X123209139Y-117700047D01*
X123370047Y-117539139D01*
X123500568Y-117352734D01*
X123596739Y-117146496D01*
X123655635Y-116926692D01*
X123675468Y-116700000D01*
X123671609Y-116655896D01*
X123685375Y-116587398D01*
X123733990Y-116537214D01*
X123802018Y-116521280D01*
X123867862Y-116544655D01*
X123882817Y-116557407D01*
X125672942Y-118347533D01*
X127459197Y-120133788D01*
X127469022Y-120146051D01*
X127469243Y-120145869D01*
X127474214Y-120151878D01*
X127500217Y-120176295D01*
X127524635Y-120199226D01*
X127545529Y-120220120D01*
X127551011Y-120224373D01*
X127555443Y-120228157D01*
X127589418Y-120260062D01*
X127606976Y-120269714D01*
X127623233Y-120280393D01*
X127639064Y-120292673D01*
X127658737Y-120301186D01*
X127681833Y-120311182D01*
X127687077Y-120313750D01*
X127727908Y-120336197D01*
X127740523Y-120339435D01*
X127747305Y-120341177D01*
X127765719Y-120347481D01*
X127784104Y-120355438D01*
X127830157Y-120362732D01*
X127835826Y-120363906D01*
X127880981Y-120375500D01*
X127901016Y-120375500D01*
X127920413Y-120377026D01*
X127940196Y-120380160D01*
X127986583Y-120375775D01*
X127992422Y-120375500D01*
X137491532Y-120375500D01*
X137558571Y-120395185D01*
X137604326Y-120447989D01*
X137614270Y-120517147D01*
X137603914Y-120551905D01*
X137569106Y-120626548D01*
X137569104Y-120626554D01*
X137511930Y-120839929D01*
X137511929Y-120839937D01*
X137492677Y-121059997D01*
X137492677Y-121060002D01*
X137511929Y-121280062D01*
X137511930Y-121280070D01*
X137569104Y-121493445D01*
X137569105Y-121493447D01*
X137569106Y-121493450D01*
X137662466Y-121693661D01*
X137662466Y-121693662D01*
X137662468Y-121693666D01*
X137789170Y-121874615D01*
X137789175Y-121874621D01*
X137945378Y-122030824D01*
X137945384Y-122030829D01*
X138126333Y-122157531D01*
X138126335Y-122157532D01*
X138126338Y-122157534D01*
X138245748Y-122213215D01*
X138255189Y-122217618D01*
X138307628Y-122263790D01*
X138326780Y-122330984D01*
X138306564Y-122397865D01*
X138255189Y-122442382D01*
X138126340Y-122502465D01*
X138126338Y-122502466D01*
X137945377Y-122629175D01*
X137789175Y-122785377D01*
X137662466Y-122966338D01*
X137662465Y-122966340D01*
X137569107Y-123166548D01*
X137569104Y-123166554D01*
X137511930Y-123379929D01*
X137511929Y-123379937D01*
X137492677Y-123599997D01*
X137492677Y-123600002D01*
X137511929Y-123820062D01*
X137511930Y-123820070D01*
X137569104Y-124033445D01*
X137569105Y-124033447D01*
X137569106Y-124033450D01*
X137645046Y-124196304D01*
X137662466Y-124233662D01*
X137662468Y-124233666D01*
X137789170Y-124414615D01*
X137789175Y-124414621D01*
X137945378Y-124570824D01*
X137945384Y-124570829D01*
X138126333Y-124697531D01*
X138126335Y-124697532D01*
X138126338Y-124697534D01*
X138245748Y-124753215D01*
X138255189Y-124757618D01*
X138307628Y-124803790D01*
X138326780Y-124870984D01*
X138306564Y-124937865D01*
X138255189Y-124982382D01*
X138126340Y-125042465D01*
X138126338Y-125042466D01*
X137945377Y-125169175D01*
X137789175Y-125325377D01*
X137662466Y-125506338D01*
X137662465Y-125506340D01*
X137569107Y-125706548D01*
X137569104Y-125706554D01*
X137511930Y-125919929D01*
X137511929Y-125919937D01*
X137492677Y-126139997D01*
X137492677Y-126140002D01*
X137511929Y-126360062D01*
X137511930Y-126360070D01*
X137569104Y-126573445D01*
X137569105Y-126573447D01*
X137569106Y-126573450D01*
X137645046Y-126736304D01*
X137662466Y-126773662D01*
X137662468Y-126773666D01*
X137789170Y-126954615D01*
X137789175Y-126954621D01*
X137945378Y-127110824D01*
X137945384Y-127110829D01*
X138126333Y-127237531D01*
X138126335Y-127237532D01*
X138126338Y-127237534D01*
X138227731Y-127284814D01*
X138255189Y-127297618D01*
X138307628Y-127343790D01*
X138326780Y-127410984D01*
X138306564Y-127477865D01*
X138255189Y-127522382D01*
X138126340Y-127582465D01*
X138126338Y-127582466D01*
X137945377Y-127709175D01*
X137789175Y-127865377D01*
X137662466Y-128046338D01*
X137662465Y-128046340D01*
X137569107Y-128246548D01*
X137569104Y-128246554D01*
X137511930Y-128459929D01*
X137511929Y-128459937D01*
X137492677Y-128679997D01*
X137492677Y-128680002D01*
X137511929Y-128900062D01*
X137511930Y-128900070D01*
X137569104Y-129113445D01*
X137569105Y-129113447D01*
X137569106Y-129113450D01*
X137614539Y-129210882D01*
X137662466Y-129313662D01*
X137662468Y-129313666D01*
X137789170Y-129494615D01*
X137789175Y-129494621D01*
X137945378Y-129650824D01*
X137945384Y-129650829D01*
X138126333Y-129777531D01*
X138126335Y-129777532D01*
X138126338Y-129777534D01*
X138245748Y-129833215D01*
X138255189Y-129837618D01*
X138307628Y-129883790D01*
X138326780Y-129950984D01*
X138306564Y-130017865D01*
X138255189Y-130062382D01*
X138126340Y-130122465D01*
X138126338Y-130122466D01*
X137945377Y-130249175D01*
X137789175Y-130405377D01*
X137662466Y-130586338D01*
X137662465Y-130586340D01*
X137569107Y-130786548D01*
X137569104Y-130786554D01*
X137511930Y-130999929D01*
X137511929Y-130999937D01*
X137492677Y-131219997D01*
X137492677Y-131220002D01*
X137511929Y-131440062D01*
X137511930Y-131440070D01*
X137569104Y-131653445D01*
X137569105Y-131653447D01*
X137569106Y-131653450D01*
X137647708Y-131822013D01*
X137662466Y-131853662D01*
X137662468Y-131853666D01*
X137789170Y-132034615D01*
X137789175Y-132034621D01*
X137945378Y-132190824D01*
X137945384Y-132190829D01*
X138126333Y-132317531D01*
X138126335Y-132317532D01*
X138126338Y-132317534D01*
X138245748Y-132373215D01*
X138255189Y-132377618D01*
X138307628Y-132423790D01*
X138326780Y-132490984D01*
X138306564Y-132557865D01*
X138255189Y-132602382D01*
X138126340Y-132662465D01*
X138126338Y-132662466D01*
X137945377Y-132789175D01*
X137789175Y-132945377D01*
X137662466Y-133126338D01*
X137662465Y-133126340D01*
X137569107Y-133326548D01*
X137569104Y-133326554D01*
X137511930Y-133539929D01*
X137511929Y-133539937D01*
X137492677Y-133759997D01*
X137492677Y-133760002D01*
X137511929Y-133980062D01*
X137511930Y-133980070D01*
X137569104Y-134193445D01*
X137569105Y-134193447D01*
X137569106Y-134193450D01*
X137594172Y-134247204D01*
X137662466Y-134393662D01*
X137662468Y-134393666D01*
X137789170Y-134574615D01*
X137789175Y-134574621D01*
X137945378Y-134730824D01*
X137945384Y-134730829D01*
X138126333Y-134857531D01*
X138126335Y-134857532D01*
X138126338Y-134857534D01*
X138221971Y-134902128D01*
X138255189Y-134917618D01*
X138307628Y-134963790D01*
X138326780Y-135030984D01*
X138306564Y-135097865D01*
X138255189Y-135142382D01*
X138126340Y-135202465D01*
X138126338Y-135202466D01*
X137945377Y-135329175D01*
X137789175Y-135485377D01*
X137662466Y-135666338D01*
X137662465Y-135666340D01*
X137623454Y-135750000D01*
X137576442Y-135850819D01*
X137569107Y-135866548D01*
X137569104Y-135866554D01*
X137511930Y-136079929D01*
X137511929Y-136079937D01*
X137492677Y-136299997D01*
X137492677Y-136300002D01*
X137511929Y-136520062D01*
X137511930Y-136520069D01*
X137565075Y-136718406D01*
X137563412Y-136788256D01*
X137524250Y-136846119D01*
X137460021Y-136873623D01*
X137445300Y-136874500D01*
X123310452Y-136874500D01*
X123243413Y-136854815D01*
X123222771Y-136838181D01*
X115595473Y-129210882D01*
X115561988Y-129149559D01*
X115566972Y-129079867D01*
X115608844Y-129023934D01*
X115630744Y-129010821D01*
X115652734Y-129000568D01*
X115839139Y-128870047D01*
X116000047Y-128709139D01*
X116130568Y-128522734D01*
X116226739Y-128316496D01*
X116285635Y-128096692D01*
X116305468Y-127870000D01*
X116300714Y-127815667D01*
X116297891Y-127783396D01*
X116285635Y-127643308D01*
X116267318Y-127574948D01*
X116268981Y-127505103D01*
X116299410Y-127455179D01*
X116883788Y-126870801D01*
X116896042Y-126860986D01*
X116895859Y-126860764D01*
X116901866Y-126855792D01*
X116901877Y-126855786D01*
X116932775Y-126822882D01*
X116949227Y-126805364D01*
X116959671Y-126794918D01*
X116970120Y-126784471D01*
X116974379Y-126778978D01*
X116978152Y-126774561D01*
X117010062Y-126740582D01*
X117019713Y-126723024D01*
X117030396Y-126706761D01*
X117042673Y-126690936D01*
X117061185Y-126648153D01*
X117063738Y-126642941D01*
X117086197Y-126602092D01*
X117091180Y-126582680D01*
X117097481Y-126564280D01*
X117105437Y-126545896D01*
X117112729Y-126499852D01*
X117113906Y-126494171D01*
X117125500Y-126449019D01*
X117125500Y-126428983D01*
X117127027Y-126409582D01*
X117130160Y-126389803D01*
X117130160Y-126389800D01*
X117128253Y-126369629D01*
X117125772Y-126343394D01*
X117125500Y-126337599D01*
X117125500Y-121264049D01*
X117145185Y-121197010D01*
X117197989Y-121151255D01*
X117267147Y-121141311D01*
X117330703Y-121170336D01*
X117337181Y-121176368D01*
X117410858Y-121250045D01*
X117410861Y-121250047D01*
X117597266Y-121380568D01*
X117803504Y-121476739D01*
X117803509Y-121476740D01*
X117803511Y-121476741D01*
X117856415Y-121490916D01*
X118023308Y-121535635D01*
X118185230Y-121549801D01*
X118249998Y-121555468D01*
X118250000Y-121555468D01*
X118250002Y-121555468D01*
X118306673Y-121550509D01*
X118476692Y-121535635D01*
X118696496Y-121476739D01*
X118902734Y-121380568D01*
X118929378Y-121361911D01*
X118995583Y-121339585D01*
X119063350Y-121356595D01*
X119111163Y-121407543D01*
X119124500Y-121463487D01*
X119124500Y-126059546D01*
X119104815Y-126126585D01*
X119088181Y-126147227D01*
X118664821Y-126570586D01*
X118603498Y-126604071D01*
X118545048Y-126602680D01*
X118476697Y-126584366D01*
X118476693Y-126584365D01*
X118476692Y-126584365D01*
X118349476Y-126573235D01*
X118250001Y-126564532D01*
X118249998Y-126564532D01*
X118023313Y-126584364D01*
X118023302Y-126584366D01*
X117803511Y-126643258D01*
X117803502Y-126643261D01*
X117597267Y-126739431D01*
X117597265Y-126739432D01*
X117410858Y-126869954D01*
X117249954Y-127030858D01*
X117119432Y-127217265D01*
X117119431Y-127217267D01*
X117023261Y-127423502D01*
X117023258Y-127423511D01*
X116964366Y-127643302D01*
X116964364Y-127643313D01*
X116944532Y-127869998D01*
X116944532Y-127870001D01*
X116964364Y-128096686D01*
X116964366Y-128096697D01*
X117023258Y-128316488D01*
X117023261Y-128316497D01*
X117119431Y-128522732D01*
X117119432Y-128522734D01*
X117249954Y-128709141D01*
X117410858Y-128870045D01*
X117410861Y-128870047D01*
X117597266Y-129000568D01*
X117803504Y-129096739D01*
X118023308Y-129155635D01*
X118185230Y-129169801D01*
X118249998Y-129175468D01*
X118250000Y-129175468D01*
X118250002Y-129175468D01*
X118306673Y-129170509D01*
X118476692Y-129155635D01*
X118696496Y-129096739D01*
X118902734Y-129000568D01*
X119089139Y-128870047D01*
X119250047Y-128709139D01*
X119380568Y-128522734D01*
X119476739Y-128316496D01*
X119535635Y-128096692D01*
X119555468Y-127870001D01*
X120194532Y-127870001D01*
X120214364Y-128096686D01*
X120214366Y-128096697D01*
X120273258Y-128316488D01*
X120273261Y-128316497D01*
X120369431Y-128522732D01*
X120369432Y-128522734D01*
X120499954Y-128709141D01*
X120660858Y-128870045D01*
X120660861Y-128870047D01*
X120847266Y-129000568D01*
X121053504Y-129096739D01*
X121273308Y-129155635D01*
X121435230Y-129169801D01*
X121499998Y-129175468D01*
X121500000Y-129175468D01*
X121500002Y-129175468D01*
X121556672Y-129170509D01*
X121726692Y-129155635D01*
X121946496Y-129096739D01*
X122152734Y-129000568D01*
X122339139Y-128870047D01*
X122500047Y-128709139D01*
X122630568Y-128522734D01*
X122726739Y-128316496D01*
X122785635Y-128096692D01*
X122805468Y-127870000D01*
X122800714Y-127815667D01*
X122797891Y-127783396D01*
X122785635Y-127643308D01*
X122726739Y-127423504D01*
X122630568Y-127217266D01*
X122500047Y-127030861D01*
X122500045Y-127030858D01*
X122339141Y-126869954D01*
X122152734Y-126739432D01*
X122152732Y-126739431D01*
X121946497Y-126643261D01*
X121946488Y-126643258D01*
X121726697Y-126584366D01*
X121726693Y-126584365D01*
X121726692Y-126584365D01*
X121726691Y-126584364D01*
X121726686Y-126584364D01*
X121500002Y-126564532D01*
X121499998Y-126564532D01*
X121273313Y-126584364D01*
X121273302Y-126584366D01*
X121053511Y-126643258D01*
X121053502Y-126643261D01*
X120847267Y-126739431D01*
X120847265Y-126739432D01*
X120660858Y-126869954D01*
X120499954Y-127030858D01*
X120369432Y-127217265D01*
X120369431Y-127217267D01*
X120273261Y-127423502D01*
X120273258Y-127423511D01*
X120214366Y-127643302D01*
X120214364Y-127643313D01*
X120194532Y-127869998D01*
X120194532Y-127870001D01*
X119555468Y-127870001D01*
X119555468Y-127870000D01*
X119550714Y-127815667D01*
X119547891Y-127783396D01*
X119535635Y-127643308D01*
X119517318Y-127574948D01*
X119518981Y-127505103D01*
X119549410Y-127455179D01*
X120133788Y-126870801D01*
X120146042Y-126860986D01*
X120145859Y-126860764D01*
X120151866Y-126855792D01*
X120151877Y-126855786D01*
X120182775Y-126822882D01*
X120199227Y-126805364D01*
X120209671Y-126794918D01*
X120220120Y-126784471D01*
X120224379Y-126778978D01*
X120228152Y-126774561D01*
X120260062Y-126740582D01*
X120269713Y-126723024D01*
X120280396Y-126706761D01*
X120292673Y-126690936D01*
X120311185Y-126648153D01*
X120313738Y-126642941D01*
X120336197Y-126602092D01*
X120341180Y-126582680D01*
X120347481Y-126564280D01*
X120355437Y-126545896D01*
X120362729Y-126499852D01*
X120363906Y-126494171D01*
X120375500Y-126449019D01*
X120375500Y-126428983D01*
X120377027Y-126409582D01*
X120380160Y-126389804D01*
X120375775Y-126343415D01*
X120375500Y-126337577D01*
X120375500Y-121264049D01*
X120395185Y-121197010D01*
X120447989Y-121151255D01*
X120517147Y-121141311D01*
X120580703Y-121170336D01*
X120587181Y-121176368D01*
X120660858Y-121250045D01*
X120660861Y-121250047D01*
X120847266Y-121380568D01*
X121053504Y-121476739D01*
X121053509Y-121476740D01*
X121053511Y-121476741D01*
X121106415Y-121490916D01*
X121273308Y-121535635D01*
X121435230Y-121549801D01*
X121499998Y-121555468D01*
X121500000Y-121555468D01*
X121500002Y-121555468D01*
X121556673Y-121550509D01*
X121726692Y-121535635D01*
X121946496Y-121476739D01*
X122152734Y-121380568D01*
X122339139Y-121250047D01*
X122500047Y-121089139D01*
X122630568Y-120902734D01*
X122726739Y-120696496D01*
X122785635Y-120476692D01*
X122805468Y-120250000D01*
X122785635Y-120023308D01*
X122726739Y-119803504D01*
X122630568Y-119597266D01*
X122500047Y-119410861D01*
X122500045Y-119410858D01*
X122339141Y-119249954D01*
X122152734Y-119119432D01*
X122152732Y-119119431D01*
X121946497Y-119023261D01*
X121946488Y-119023258D01*
X121726697Y-118964366D01*
X121726693Y-118964365D01*
X121726692Y-118964365D01*
X121726691Y-118964364D01*
X121726686Y-118964364D01*
X121500002Y-118944532D01*
X121499998Y-118944532D01*
X121273313Y-118964364D01*
X121273302Y-118964366D01*
X121053511Y-119023258D01*
X121053502Y-119023261D01*
X120847267Y-119119431D01*
X120847265Y-119119432D01*
X120660862Y-119249951D01*
X120587181Y-119323632D01*
X120525857Y-119357116D01*
X120456166Y-119352131D01*
X120400232Y-119310260D01*
X120375816Y-119244795D01*
X120375500Y-119235950D01*
X120375500Y-107560452D01*
X120395185Y-107493413D01*
X120411819Y-107472771D01*
X120674175Y-107210415D01*
X120940209Y-106944380D01*
X121001530Y-106910897D01*
X121071221Y-106915881D01*
G37*
%TD.AperFunction*%
%TA.AperFunction,Conductor*%
G36*
X138434099Y-82320185D02*
G01*
X138454741Y-82336819D01*
X142237552Y-86119630D01*
X142271037Y-86180953D01*
X142270762Y-86234903D01*
X142214616Y-86480896D01*
X142214616Y-86480898D01*
X142194451Y-86749995D01*
X142194451Y-86750004D01*
X142214616Y-87019101D01*
X142274664Y-87282188D01*
X142274666Y-87282195D01*
X142367691Y-87519218D01*
X142373257Y-87533398D01*
X142508185Y-87767102D01*
X142630369Y-87920315D01*
X142676442Y-87978089D01*
X142863183Y-88151358D01*
X142874259Y-88161635D01*
X143097226Y-88313651D01*
X143340359Y-88430738D01*
X143598228Y-88510280D01*
X143598229Y-88510280D01*
X143598232Y-88510281D01*
X143865063Y-88550499D01*
X143865068Y-88550499D01*
X143865071Y-88550500D01*
X143865072Y-88550500D01*
X144134928Y-88550500D01*
X144134929Y-88550500D01*
X144401772Y-88510280D01*
X144503426Y-88478922D01*
X144573286Y-88477972D01*
X144627655Y-88509733D01*
X153163181Y-97045259D01*
X153196666Y-97106582D01*
X153199500Y-97132940D01*
X153199500Y-104783691D01*
X153179815Y-104850730D01*
X153163181Y-104871372D01*
X153029175Y-105005377D01*
X152902466Y-105186338D01*
X152902465Y-105186340D01*
X152809107Y-105386548D01*
X152809104Y-105386554D01*
X152751930Y-105599929D01*
X152751929Y-105599937D01*
X152732677Y-105819997D01*
X152732677Y-105820002D01*
X152751929Y-106040062D01*
X152751930Y-106040070D01*
X152809104Y-106253445D01*
X152809105Y-106253447D01*
X152809106Y-106253450D01*
X152843869Y-106328000D01*
X152902466Y-106453662D01*
X152902468Y-106453666D01*
X153029170Y-106634615D01*
X153029175Y-106634621D01*
X153185378Y-106790824D01*
X153185384Y-106790829D01*
X153366333Y-106917531D01*
X153366335Y-106917532D01*
X153366338Y-106917534D01*
X153482794Y-106971838D01*
X153495781Y-106977894D01*
X153548220Y-107024066D01*
X153567372Y-107091260D01*
X153547156Y-107158141D01*
X153495781Y-107202658D01*
X153366591Y-107262900D01*
X153366589Y-107262901D01*
X153185700Y-107389560D01*
X153029560Y-107545700D01*
X152902901Y-107726589D01*
X152902900Y-107726591D01*
X152809579Y-107926720D01*
X152809576Y-107926726D01*
X152773866Y-108059999D01*
X152773866Y-108060000D01*
X153392997Y-108060000D01*
X153460036Y-108079685D01*
X153505791Y-108132489D01*
X153515735Y-108201647D01*
X153511974Y-108218935D01*
X153492000Y-108286960D01*
X153492000Y-108433039D01*
X153511974Y-108501065D01*
X153511974Y-108570935D01*
X153474200Y-108629713D01*
X153410644Y-108658738D01*
X153392997Y-108660000D01*
X152773866Y-108660000D01*
X152809576Y-108793273D01*
X152809580Y-108793284D01*
X152902899Y-108993407D01*
X152902900Y-108993409D01*
X153029563Y-109174301D01*
X153185698Y-109330436D01*
X153366589Y-109457099D01*
X153495781Y-109517342D01*
X153548220Y-109563514D01*
X153567372Y-109630708D01*
X153547156Y-109697589D01*
X153495781Y-109742106D01*
X153366340Y-109802465D01*
X153366338Y-109802466D01*
X153185377Y-109929175D01*
X153029175Y-110085377D01*
X152902466Y-110266338D01*
X152902465Y-110266340D01*
X152809107Y-110466548D01*
X152809104Y-110466554D01*
X152751930Y-110679929D01*
X152751929Y-110679937D01*
X152732677Y-110899997D01*
X152732677Y-110900002D01*
X152751929Y-111120062D01*
X152751930Y-111120070D01*
X152809104Y-111333445D01*
X152809105Y-111333447D01*
X152809106Y-111333450D01*
X152892630Y-111512569D01*
X152902466Y-111533662D01*
X152902468Y-111533666D01*
X153029170Y-111714615D01*
X153029175Y-111714621D01*
X153185378Y-111870824D01*
X153185384Y-111870829D01*
X153366333Y-111997531D01*
X153366335Y-111997532D01*
X153366338Y-111997534D01*
X153460146Y-112041277D01*
X153495189Y-112057618D01*
X153547628Y-112103790D01*
X153566780Y-112170984D01*
X153546564Y-112237865D01*
X153495189Y-112282382D01*
X153366340Y-112342465D01*
X153366338Y-112342466D01*
X153185377Y-112469175D01*
X153029175Y-112625377D01*
X152902466Y-112806338D01*
X152902465Y-112806340D01*
X152809107Y-113006548D01*
X152809104Y-113006554D01*
X152751930Y-113219929D01*
X152751929Y-113219937D01*
X152732677Y-113439997D01*
X152732677Y-113440002D01*
X152751929Y-113660062D01*
X152751930Y-113660070D01*
X152809104Y-113873445D01*
X152809105Y-113873447D01*
X152809106Y-113873450D01*
X152902466Y-114073661D01*
X152902466Y-114073662D01*
X152902468Y-114073666D01*
X153029170Y-114254615D01*
X153029175Y-114254621D01*
X153185378Y-114410824D01*
X153185384Y-114410829D01*
X153366333Y-114537531D01*
X153366335Y-114537532D01*
X153366338Y-114537534D01*
X153446303Y-114574822D01*
X153495189Y-114597618D01*
X153547628Y-114643790D01*
X153566780Y-114710984D01*
X153546564Y-114777865D01*
X153495189Y-114822382D01*
X153366340Y-114882465D01*
X153366338Y-114882466D01*
X153185377Y-115009175D01*
X153029175Y-115165377D01*
X152902466Y-115346338D01*
X152902465Y-115346340D01*
X152809107Y-115546548D01*
X152809104Y-115546554D01*
X152751930Y-115759929D01*
X152751929Y-115759937D01*
X152732677Y-115979997D01*
X152732677Y-115980002D01*
X152751929Y-116200062D01*
X152751930Y-116200070D01*
X152809104Y-116413445D01*
X152809105Y-116413447D01*
X152809106Y-116413450D01*
X152884369Y-116574852D01*
X152902466Y-116613662D01*
X152902468Y-116613666D01*
X153029170Y-116794615D01*
X153029175Y-116794621D01*
X153185378Y-116950824D01*
X153185384Y-116950829D01*
X153366333Y-117077531D01*
X153366335Y-117077532D01*
X153366338Y-117077534D01*
X153414517Y-117100000D01*
X153495189Y-117137618D01*
X153547628Y-117183790D01*
X153566780Y-117250984D01*
X153546564Y-117317865D01*
X153495189Y-117362382D01*
X153366340Y-117422465D01*
X153366338Y-117422466D01*
X153185377Y-117549175D01*
X153029175Y-117705377D01*
X152902466Y-117886338D01*
X152902465Y-117886340D01*
X152809107Y-118086548D01*
X152809104Y-118086554D01*
X152751930Y-118299929D01*
X152751929Y-118299937D01*
X152732677Y-118519997D01*
X152732677Y-118520002D01*
X152751929Y-118740062D01*
X152751930Y-118740070D01*
X152809104Y-118953445D01*
X152809105Y-118953447D01*
X152809106Y-118953450D01*
X152879688Y-119104815D01*
X152902466Y-119153662D01*
X152902468Y-119153666D01*
X153029170Y-119334615D01*
X153029175Y-119334621D01*
X153185378Y-119490824D01*
X153185384Y-119490829D01*
X153366333Y-119617531D01*
X153366335Y-119617532D01*
X153366338Y-119617534D01*
X153485748Y-119673215D01*
X153495189Y-119677618D01*
X153547628Y-119723790D01*
X153566780Y-119790984D01*
X153546564Y-119857865D01*
X153495189Y-119902382D01*
X153366340Y-119962465D01*
X153366338Y-119962466D01*
X153185377Y-120089175D01*
X153029175Y-120245377D01*
X152902466Y-120426338D01*
X152902465Y-120426340D01*
X152809107Y-120626548D01*
X152809104Y-120626554D01*
X152751930Y-120839929D01*
X152751929Y-120839936D01*
X152744541Y-120924381D01*
X152719088Y-120989450D01*
X152662497Y-121030428D01*
X152592735Y-121034305D01*
X152533332Y-121001254D01*
X151956819Y-120424741D01*
X151923334Y-120363418D01*
X151920500Y-120337060D01*
X151920500Y-102840049D01*
X151940185Y-102773010D01*
X151956819Y-102752368D01*
X152120045Y-102589141D01*
X152120045Y-102589140D01*
X152120047Y-102589139D01*
X152250568Y-102402734D01*
X152346739Y-102196496D01*
X152405635Y-101976692D01*
X152425468Y-101750000D01*
X152421589Y-101705668D01*
X152411164Y-101586505D01*
X152405635Y-101523308D01*
X152346739Y-101303504D01*
X152250568Y-101097266D01*
X152120047Y-100910861D01*
X152120045Y-100910858D01*
X151959141Y-100749954D01*
X151772734Y-100619432D01*
X151772732Y-100619431D01*
X151566497Y-100523261D01*
X151566488Y-100523258D01*
X151346697Y-100464366D01*
X151346693Y-100464365D01*
X151346692Y-100464365D01*
X151346691Y-100464364D01*
X151346686Y-100464364D01*
X151120002Y-100444532D01*
X151119998Y-100444532D01*
X150893313Y-100464364D01*
X150893302Y-100464366D01*
X150673511Y-100523258D01*
X150673502Y-100523261D01*
X150467267Y-100619431D01*
X150467265Y-100619432D01*
X150280858Y-100749954D01*
X150262179Y-100768633D01*
X150200855Y-100802117D01*
X150131164Y-100797131D01*
X150075231Y-100755258D01*
X150050816Y-100689793D01*
X150050500Y-100680950D01*
X150050500Y-100002939D01*
X150070185Y-99935900D01*
X150086815Y-99915262D01*
X150919674Y-99082402D01*
X150980995Y-99048919D01*
X151018156Y-99046557D01*
X151120000Y-99055468D01*
X151120000Y-99055467D01*
X151120001Y-99055468D01*
X151120002Y-99055468D01*
X151194855Y-99048919D01*
X151346692Y-99035635D01*
X151566496Y-98976739D01*
X151772734Y-98880568D01*
X151959139Y-98750047D01*
X152120047Y-98589139D01*
X152250568Y-98402734D01*
X152346739Y-98196496D01*
X152405635Y-97976692D01*
X152425468Y-97750000D01*
X152405635Y-97523308D01*
X152346739Y-97303504D01*
X152250568Y-97097266D01*
X152120047Y-96910861D01*
X152120045Y-96910858D01*
X151959141Y-96749954D01*
X151772734Y-96619432D01*
X151772732Y-96619431D01*
X151566497Y-96523261D01*
X151566488Y-96523258D01*
X151346697Y-96464366D01*
X151346693Y-96464365D01*
X151346692Y-96464365D01*
X151346691Y-96464364D01*
X151346686Y-96464364D01*
X151120002Y-96444532D01*
X151119998Y-96444532D01*
X150893313Y-96464364D01*
X150893302Y-96464366D01*
X150673511Y-96523258D01*
X150673502Y-96523261D01*
X150467267Y-96619431D01*
X150467265Y-96619432D01*
X150280858Y-96749954D01*
X150119954Y-96910858D01*
X149989432Y-97097265D01*
X149989431Y-97097267D01*
X149893261Y-97303502D01*
X149893258Y-97303511D01*
X149834366Y-97523302D01*
X149834364Y-97523313D01*
X149814532Y-97749998D01*
X149814532Y-97750002D01*
X149823441Y-97851838D01*
X149809674Y-97920338D01*
X149787594Y-97950326D01*
X148730297Y-99007624D01*
X148730296Y-99007625D01*
X148620183Y-99117739D01*
X148597966Y-99153096D01*
X148593941Y-99158769D01*
X148567910Y-99191410D01*
X148549791Y-99229033D01*
X148546427Y-99235120D01*
X148524212Y-99270476D01*
X148524208Y-99270483D01*
X148510416Y-99309895D01*
X148507755Y-99316320D01*
X148489639Y-99353939D01*
X148480344Y-99394659D01*
X148478419Y-99401341D01*
X148464632Y-99440744D01*
X148459955Y-99482235D01*
X148458791Y-99489089D01*
X148449500Y-99529806D01*
X148449500Y-121480191D01*
X148449501Y-121480200D01*
X148458791Y-121520908D01*
X148459955Y-121527763D01*
X148464632Y-121569259D01*
X148478420Y-121608662D01*
X148480345Y-121615345D01*
X148489639Y-121656061D01*
X148507759Y-121693688D01*
X148510421Y-121700114D01*
X148524212Y-121739525D01*
X148546422Y-121774872D01*
X148549787Y-121780959D01*
X148567910Y-121818589D01*
X148593941Y-121851230D01*
X148597967Y-121856904D01*
X148620183Y-121892261D01*
X152702670Y-125974748D01*
X152736155Y-126036071D01*
X152738517Y-126073235D01*
X152732677Y-126139996D01*
X152732677Y-126140002D01*
X152740192Y-126225905D01*
X152726425Y-126294405D01*
X152677809Y-126344588D01*
X152609781Y-126360521D01*
X152543937Y-126337145D01*
X152528983Y-126324393D01*
X148029779Y-121825189D01*
X143253803Y-117049212D01*
X143243980Y-117036950D01*
X143243759Y-117037134D01*
X143238786Y-117031123D01*
X143235078Y-117027641D01*
X143188364Y-116983773D01*
X143177919Y-116973328D01*
X143167475Y-116962883D01*
X143161986Y-116958625D01*
X143157561Y-116954847D01*
X143123582Y-116922938D01*
X143123580Y-116922936D01*
X143123577Y-116922935D01*
X143106029Y-116913288D01*
X143089763Y-116902604D01*
X143073933Y-116890325D01*
X143031168Y-116871818D01*
X143025922Y-116869248D01*
X142985093Y-116846803D01*
X142985092Y-116846802D01*
X142965693Y-116841822D01*
X142947281Y-116835518D01*
X142928898Y-116827562D01*
X142928892Y-116827560D01*
X142882874Y-116820272D01*
X142877152Y-116819087D01*
X142832021Y-116807500D01*
X142832019Y-116807500D01*
X142811984Y-116807500D01*
X142792586Y-116805973D01*
X142785162Y-116804797D01*
X142772805Y-116802840D01*
X142772804Y-116802840D01*
X142726416Y-116807225D01*
X142720578Y-116807500D01*
X139960009Y-116807500D01*
X139892970Y-116787815D01*
X139847215Y-116735011D01*
X139837271Y-116665853D01*
X139855837Y-116618938D01*
X139854825Y-116618354D01*
X139857531Y-116613666D01*
X139857534Y-116613662D01*
X139950894Y-116413450D01*
X140008070Y-116200068D01*
X140024714Y-116009821D01*
X140027323Y-115980002D01*
X140027323Y-115979997D01*
X140014319Y-115831359D01*
X140008070Y-115759932D01*
X139950894Y-115546550D01*
X139857534Y-115346339D01*
X139763103Y-115211476D01*
X139730827Y-115165381D01*
X139664128Y-115098682D01*
X139574620Y-115009174D01*
X139574616Y-115009171D01*
X139574615Y-115009170D01*
X139393666Y-114882468D01*
X139393658Y-114882464D01*
X139264811Y-114822382D01*
X139212371Y-114776210D01*
X139193219Y-114709017D01*
X139213435Y-114642135D01*
X139264811Y-114597618D01*
X139313697Y-114574822D01*
X139393662Y-114537534D01*
X139574620Y-114410826D01*
X139730826Y-114254620D01*
X139857534Y-114073662D01*
X139950894Y-113873450D01*
X140008070Y-113660068D01*
X140027323Y-113440000D01*
X140008070Y-113219932D01*
X139950894Y-113006550D01*
X139857534Y-112806339D01*
X139730826Y-112625380D01*
X139574620Y-112469174D01*
X139574616Y-112469171D01*
X139574615Y-112469170D01*
X139393666Y-112342468D01*
X139393662Y-112342466D01*
X139264810Y-112282381D01*
X139212371Y-112236208D01*
X139193219Y-112169015D01*
X139213435Y-112102134D01*
X139264806Y-112057620D01*
X139393662Y-111997534D01*
X139574620Y-111870826D01*
X139730826Y-111714620D01*
X139857534Y-111533662D01*
X139950894Y-111333450D01*
X140008070Y-111120068D01*
X140027323Y-110900000D01*
X140008070Y-110679932D01*
X139950894Y-110466550D01*
X139857534Y-110266339D01*
X139730826Y-110085380D01*
X139574620Y-109929174D01*
X139574616Y-109929171D01*
X139574615Y-109929170D01*
X139393666Y-109802468D01*
X139393658Y-109802464D01*
X139264811Y-109742382D01*
X139212371Y-109696210D01*
X139193219Y-109629017D01*
X139213435Y-109562135D01*
X139264811Y-109517618D01*
X139270802Y-109514824D01*
X139393662Y-109457534D01*
X139574620Y-109330826D01*
X139730826Y-109174620D01*
X139857534Y-108993662D01*
X139950894Y-108793450D01*
X140008070Y-108580068D01*
X140027323Y-108360000D01*
X140008070Y-108139932D01*
X139950894Y-107926550D01*
X139857534Y-107726339D01*
X139765319Y-107594641D01*
X139730827Y-107545381D01*
X139655923Y-107470477D01*
X139574620Y-107389174D01*
X139574616Y-107389171D01*
X139574615Y-107389170D01*
X139393666Y-107262468D01*
X139393662Y-107262466D01*
X139264218Y-107202105D01*
X139211779Y-107155932D01*
X139192627Y-107088739D01*
X139212843Y-107021858D01*
X139264219Y-106977340D01*
X139393412Y-106917097D01*
X139574301Y-106790436D01*
X139730436Y-106634301D01*
X139857099Y-106453409D01*
X139857100Y-106453407D01*
X139950419Y-106253284D01*
X139950423Y-106253273D01*
X139986134Y-106120000D01*
X139367003Y-106120000D01*
X139299964Y-106100315D01*
X139254209Y-106047511D01*
X139244265Y-105978353D01*
X139248026Y-105961065D01*
X139268000Y-105893039D01*
X139268000Y-105746960D01*
X139248026Y-105678935D01*
X139248026Y-105609065D01*
X139285800Y-105550287D01*
X139349356Y-105521262D01*
X139367003Y-105520000D01*
X139986134Y-105520000D01*
X139986133Y-105519999D01*
X139950423Y-105386726D01*
X139950420Y-105386720D01*
X139857099Y-105186591D01*
X139857098Y-105186589D01*
X139730442Y-105005704D01*
X139574297Y-104849560D01*
X139393409Y-104722900D01*
X139393407Y-104722899D01*
X139193284Y-104629580D01*
X139193273Y-104629576D01*
X139060000Y-104593866D01*
X139060000Y-105207552D01*
X139040315Y-105274591D01*
X138987511Y-105320346D01*
X138918353Y-105330290D01*
X138908228Y-105328087D01*
X138796334Y-105312000D01*
X138723666Y-105312000D01*
X138723665Y-105312000D01*
X138606629Y-105328827D01*
X138606298Y-105326529D01*
X138549062Y-105326528D01*
X138490285Y-105288752D01*
X138461262Y-105225196D01*
X138460000Y-105207552D01*
X138460000Y-104593866D01*
X138459999Y-104593866D01*
X138326726Y-104629576D01*
X138326720Y-104629579D01*
X138126591Y-104722900D01*
X138126589Y-104722901D01*
X137945700Y-104849560D01*
X137789560Y-105005700D01*
X137662901Y-105186589D01*
X137662900Y-105186591D01*
X137569579Y-105386720D01*
X137569576Y-105386726D01*
X137533866Y-105519999D01*
X137533866Y-105520000D01*
X138152997Y-105520000D01*
X138220036Y-105539685D01*
X138265791Y-105592489D01*
X138275735Y-105661647D01*
X138271974Y-105678935D01*
X138252000Y-105746960D01*
X138252000Y-105893039D01*
X138271974Y-105961065D01*
X138271974Y-106030935D01*
X138234200Y-106089713D01*
X138170644Y-106118738D01*
X138152997Y-106120000D01*
X137533866Y-106120000D01*
X137569576Y-106253273D01*
X137569580Y-106253284D01*
X137662899Y-106453407D01*
X137662900Y-106453409D01*
X137789563Y-106634301D01*
X137945698Y-106790436D01*
X138126589Y-106917099D01*
X138255781Y-106977342D01*
X138308220Y-107023514D01*
X138327372Y-107090708D01*
X138307156Y-107157589D01*
X138255781Y-107202106D01*
X138126340Y-107262465D01*
X138126338Y-107262466D01*
X137945377Y-107389175D01*
X137789175Y-107545377D01*
X137662466Y-107726338D01*
X137662465Y-107726340D01*
X137569107Y-107926548D01*
X137569104Y-107926554D01*
X137511930Y-108139929D01*
X137511929Y-108139937D01*
X137492677Y-108359997D01*
X137492677Y-108360002D01*
X137511929Y-108580062D01*
X137511930Y-108580070D01*
X137569104Y-108793445D01*
X137569105Y-108793447D01*
X137569106Y-108793450D01*
X137644369Y-108954852D01*
X137662466Y-108993662D01*
X137662468Y-108993666D01*
X137789170Y-109174615D01*
X137789175Y-109174621D01*
X137945378Y-109330824D01*
X137945384Y-109330829D01*
X138126333Y-109457531D01*
X138126335Y-109457532D01*
X138126338Y-109457534D01*
X138174517Y-109480000D01*
X138255189Y-109517618D01*
X138307628Y-109563790D01*
X138326780Y-109630984D01*
X138306564Y-109697865D01*
X138255189Y-109742382D01*
X138126340Y-109802465D01*
X138126338Y-109802466D01*
X137945377Y-109929175D01*
X137789175Y-110085377D01*
X137662466Y-110266338D01*
X137662465Y-110266340D01*
X137569107Y-110466548D01*
X137569104Y-110466554D01*
X137511930Y-110679929D01*
X137511929Y-110679937D01*
X137492677Y-110899997D01*
X137492677Y-110900002D01*
X137511929Y-111120062D01*
X137511930Y-111120070D01*
X137569104Y-111333445D01*
X137569105Y-111333447D01*
X137569106Y-111333450D01*
X137652630Y-111512569D01*
X137662466Y-111533662D01*
X137662468Y-111533666D01*
X137789170Y-111714615D01*
X137789175Y-111714621D01*
X137945378Y-111870824D01*
X137945384Y-111870829D01*
X138126333Y-111997531D01*
X138126335Y-111997532D01*
X138126338Y-111997534D01*
X138220146Y-112041277D01*
X138255189Y-112057618D01*
X138307628Y-112103790D01*
X138326780Y-112170984D01*
X138306564Y-112237865D01*
X138255189Y-112282382D01*
X138126340Y-112342465D01*
X138126338Y-112342466D01*
X137945377Y-112469175D01*
X137789175Y-112625377D01*
X137662466Y-112806338D01*
X137662465Y-112806340D01*
X137569107Y-113006548D01*
X137569104Y-113006554D01*
X137511930Y-113219929D01*
X137511929Y-113219937D01*
X137492677Y-113439997D01*
X137492677Y-113440002D01*
X137511929Y-113660062D01*
X137511930Y-113660070D01*
X137569104Y-113873445D01*
X137569105Y-113873447D01*
X137569106Y-113873450D01*
X137662466Y-114073661D01*
X137662466Y-114073662D01*
X137662468Y-114073666D01*
X137789170Y-114254615D01*
X137789175Y-114254621D01*
X137945378Y-114410824D01*
X137945384Y-114410829D01*
X138126333Y-114537531D01*
X138126335Y-114537532D01*
X138126338Y-114537534D01*
X138206303Y-114574822D01*
X138255189Y-114597618D01*
X138307628Y-114643790D01*
X138326780Y-114710984D01*
X138306564Y-114777865D01*
X138255189Y-114822382D01*
X138126340Y-114882465D01*
X138126338Y-114882466D01*
X137945377Y-115009175D01*
X137789175Y-115165377D01*
X137662466Y-115346338D01*
X137662465Y-115346340D01*
X137569107Y-115546548D01*
X137569104Y-115546554D01*
X137511930Y-115759929D01*
X137511929Y-115759937D01*
X137492677Y-115979997D01*
X137492677Y-115980002D01*
X137511929Y-116200062D01*
X137511930Y-116200070D01*
X137569104Y-116413445D01*
X137569105Y-116413447D01*
X137569106Y-116413450D01*
X137644369Y-116574852D01*
X137662466Y-116613662D01*
X137665175Y-116618354D01*
X137663840Y-116619124D01*
X137683893Y-116678581D01*
X137666884Y-116746349D01*
X137615936Y-116794162D01*
X137559991Y-116807500D01*
X133573453Y-116807500D01*
X133506414Y-116787815D01*
X133485772Y-116771181D01*
X123669413Y-106954822D01*
X123635928Y-106893499D01*
X123637319Y-106835048D01*
X123642788Y-106814636D01*
X123655635Y-106766692D01*
X123675468Y-106540000D01*
X123655635Y-106313308D01*
X123596739Y-106093504D01*
X123500568Y-105887266D01*
X123370047Y-105700861D01*
X123370045Y-105700858D01*
X123345064Y-105675877D01*
X123311579Y-105614554D01*
X123316563Y-105544862D01*
X123345062Y-105500517D01*
X125633788Y-103211792D01*
X125646042Y-103201977D01*
X125645859Y-103201755D01*
X125651866Y-103196783D01*
X125651877Y-103196777D01*
X125685607Y-103160858D01*
X125699227Y-103146355D01*
X125709671Y-103135909D01*
X125720120Y-103125462D01*
X125724379Y-103119969D01*
X125728152Y-103115552D01*
X125760062Y-103081573D01*
X125769713Y-103064015D01*
X125780396Y-103047752D01*
X125792673Y-103031927D01*
X125811185Y-102989144D01*
X125813738Y-102983932D01*
X125836197Y-102943083D01*
X125841180Y-102923671D01*
X125847481Y-102905271D01*
X125855437Y-102886887D01*
X125862729Y-102840843D01*
X125863906Y-102835162D01*
X125875500Y-102790010D01*
X125875500Y-102769973D01*
X125877027Y-102750573D01*
X125877111Y-102750047D01*
X125880160Y-102730795D01*
X125875772Y-102684385D01*
X125875500Y-102678590D01*
X125875500Y-101750001D01*
X142194532Y-101750001D01*
X142214364Y-101976686D01*
X142214366Y-101976697D01*
X142273258Y-102196488D01*
X142273261Y-102196497D01*
X142369431Y-102402732D01*
X142369432Y-102402734D01*
X142499954Y-102589141D01*
X142660858Y-102750045D01*
X142676335Y-102760882D01*
X142847266Y-102880568D01*
X143053504Y-102976739D01*
X143273308Y-103035635D01*
X143435230Y-103049801D01*
X143499998Y-103055468D01*
X143500000Y-103055468D01*
X143500002Y-103055468D01*
X143556673Y-103050509D01*
X143726692Y-103035635D01*
X143946496Y-102976739D01*
X144152734Y-102880568D01*
X144339139Y-102750047D01*
X144500047Y-102589139D01*
X144630568Y-102402734D01*
X144726739Y-102196496D01*
X144785635Y-101976692D01*
X144805468Y-101750000D01*
X144801589Y-101705668D01*
X144791164Y-101586505D01*
X144785635Y-101523308D01*
X144726739Y-101303504D01*
X144630568Y-101097266D01*
X144500047Y-100910861D01*
X144500045Y-100910858D01*
X144339141Y-100749954D01*
X144152734Y-100619432D01*
X144152732Y-100619431D01*
X143946497Y-100523261D01*
X143946488Y-100523258D01*
X143726697Y-100464366D01*
X143726693Y-100464365D01*
X143726692Y-100464365D01*
X143726691Y-100464364D01*
X143726686Y-100464364D01*
X143500002Y-100444532D01*
X143499998Y-100444532D01*
X143273313Y-100464364D01*
X143273302Y-100464366D01*
X143053511Y-100523258D01*
X143053502Y-100523261D01*
X142847267Y-100619431D01*
X142847265Y-100619432D01*
X142660858Y-100749954D01*
X142499954Y-100910858D01*
X142369432Y-101097265D01*
X142369431Y-101097267D01*
X142273261Y-101303502D01*
X142273258Y-101303511D01*
X142214366Y-101523302D01*
X142214364Y-101523313D01*
X142194532Y-101749998D01*
X142194532Y-101750001D01*
X125875500Y-101750001D01*
X125875500Y-97750001D01*
X142194532Y-97750001D01*
X142214364Y-97976686D01*
X142214366Y-97976697D01*
X142273258Y-98196488D01*
X142273261Y-98196497D01*
X142369431Y-98402732D01*
X142369432Y-98402734D01*
X142499954Y-98589141D01*
X142660858Y-98750045D01*
X142660861Y-98750047D01*
X142847266Y-98880568D01*
X143053504Y-98976739D01*
X143273308Y-99035635D01*
X143425145Y-99048919D01*
X143499998Y-99055468D01*
X143500000Y-99055468D01*
X143500002Y-99055468D01*
X143574855Y-99048919D01*
X143726692Y-99035635D01*
X143946496Y-98976739D01*
X144152734Y-98880568D01*
X144339139Y-98750047D01*
X144500047Y-98589139D01*
X144630568Y-98402734D01*
X144726739Y-98196496D01*
X144785635Y-97976692D01*
X144805468Y-97750000D01*
X144785635Y-97523308D01*
X144726739Y-97303504D01*
X144630568Y-97097266D01*
X144500047Y-96910861D01*
X144500045Y-96910858D01*
X144339141Y-96749954D01*
X144152734Y-96619432D01*
X144152732Y-96619431D01*
X143946497Y-96523261D01*
X143946488Y-96523258D01*
X143726697Y-96464366D01*
X143726693Y-96464365D01*
X143726692Y-96464365D01*
X143726691Y-96464364D01*
X143726686Y-96464364D01*
X143500002Y-96444532D01*
X143499998Y-96444532D01*
X143273313Y-96464364D01*
X143273302Y-96464366D01*
X143053511Y-96523258D01*
X143053502Y-96523261D01*
X142847267Y-96619431D01*
X142847265Y-96619432D01*
X142660858Y-96749954D01*
X142499954Y-96910858D01*
X142369432Y-97097265D01*
X142369431Y-97097267D01*
X142273261Y-97303502D01*
X142273258Y-97303511D01*
X142214366Y-97523302D01*
X142214364Y-97523313D01*
X142194532Y-97749998D01*
X142194532Y-97750001D01*
X125875500Y-97750001D01*
X125875500Y-95650224D01*
X125895185Y-95583186D01*
X125928373Y-95548653D01*
X126121401Y-95413495D01*
X126288495Y-95246401D01*
X126424035Y-95052829D01*
X126523903Y-94838663D01*
X126585063Y-94610408D01*
X126600500Y-94433966D01*
X126600500Y-94066034D01*
X126585063Y-93889592D01*
X126523903Y-93661337D01*
X126424035Y-93447171D01*
X126371617Y-93372309D01*
X126288494Y-93253597D01*
X126121402Y-93086506D01*
X126121395Y-93086501D01*
X125927834Y-92950967D01*
X125927830Y-92950965D01*
X125925761Y-92950000D01*
X125713663Y-92851097D01*
X125713659Y-92851096D01*
X125713655Y-92851094D01*
X125485413Y-92789938D01*
X125485403Y-92789936D01*
X125250001Y-92769341D01*
X125249999Y-92769341D01*
X125014596Y-92789936D01*
X125014583Y-92789939D01*
X124856592Y-92832271D01*
X124786742Y-92830608D01*
X124728880Y-92791445D01*
X124701377Y-92727216D01*
X124700500Y-92712496D01*
X124700500Y-86750004D01*
X130694451Y-86750004D01*
X130714616Y-87019101D01*
X130774664Y-87282188D01*
X130774666Y-87282195D01*
X130867691Y-87519218D01*
X130873257Y-87533398D01*
X131008185Y-87767102D01*
X131130369Y-87920315D01*
X131176442Y-87978089D01*
X131363183Y-88151358D01*
X131374259Y-88161635D01*
X131597226Y-88313651D01*
X131840359Y-88430738D01*
X132098228Y-88510280D01*
X132098229Y-88510280D01*
X132098232Y-88510281D01*
X132365063Y-88550499D01*
X132365068Y-88550499D01*
X132365071Y-88550500D01*
X132365072Y-88550500D01*
X132634928Y-88550500D01*
X132634929Y-88550500D01*
X132634936Y-88550499D01*
X132901767Y-88510281D01*
X132901768Y-88510280D01*
X132901772Y-88510280D01*
X133159641Y-88430738D01*
X133402775Y-88313651D01*
X133625741Y-88161635D01*
X133694463Y-88097870D01*
X135699500Y-88097870D01*
X135699501Y-88097876D01*
X135705908Y-88157483D01*
X135756202Y-88292328D01*
X135756206Y-88292335D01*
X135842452Y-88407544D01*
X135842455Y-88407547D01*
X135957664Y-88493793D01*
X135957671Y-88493797D01*
X136092517Y-88544091D01*
X136092516Y-88544091D01*
X136099444Y-88544835D01*
X136152127Y-88550500D01*
X138847872Y-88550499D01*
X138907483Y-88544091D01*
X139042331Y-88493796D01*
X139157546Y-88407546D01*
X139243796Y-88292331D01*
X139294091Y-88157483D01*
X139300500Y-88097873D01*
X139300499Y-85402128D01*
X139294091Y-85342517D01*
X139292542Y-85338365D01*
X139243797Y-85207671D01*
X139243793Y-85207664D01*
X139157547Y-85092455D01*
X139157544Y-85092452D01*
X139042335Y-85006206D01*
X139042328Y-85006202D01*
X138907482Y-84955908D01*
X138907483Y-84955908D01*
X138847883Y-84949501D01*
X138847881Y-84949500D01*
X138847873Y-84949500D01*
X138847864Y-84949500D01*
X136152129Y-84949500D01*
X136152123Y-84949501D01*
X136092516Y-84955908D01*
X135957671Y-85006202D01*
X135957664Y-85006206D01*
X135842455Y-85092452D01*
X135842452Y-85092455D01*
X135756206Y-85207664D01*
X135756202Y-85207671D01*
X135705908Y-85342517D01*
X135699501Y-85402116D01*
X135699501Y-85402123D01*
X135699500Y-85402135D01*
X135699500Y-88097870D01*
X133694463Y-88097870D01*
X133823561Y-87978085D01*
X133991815Y-87767102D01*
X134126743Y-87533398D01*
X134225334Y-87282195D01*
X134285383Y-87019103D01*
X134305549Y-86750000D01*
X134302466Y-86708865D01*
X134285383Y-86480898D01*
X134237796Y-86272405D01*
X134225334Y-86217805D01*
X134126743Y-85966602D01*
X133991815Y-85732898D01*
X133823561Y-85521915D01*
X133823560Y-85521914D01*
X133823557Y-85521910D01*
X133625741Y-85338365D01*
X133563277Y-85295778D01*
X133402775Y-85186349D01*
X133402769Y-85186346D01*
X133402768Y-85186345D01*
X133402767Y-85186344D01*
X133159643Y-85069263D01*
X133159645Y-85069263D01*
X132901773Y-84989720D01*
X132901767Y-84989718D01*
X132634936Y-84949500D01*
X132634929Y-84949500D01*
X132365071Y-84949500D01*
X132365063Y-84949500D01*
X132098232Y-84989718D01*
X132098226Y-84989720D01*
X131840358Y-85069262D01*
X131597230Y-85186346D01*
X131374258Y-85338365D01*
X131176442Y-85521910D01*
X131008185Y-85732898D01*
X130873258Y-85966599D01*
X130873256Y-85966603D01*
X130774666Y-86217804D01*
X130774664Y-86217811D01*
X130714616Y-86480898D01*
X130694451Y-86749995D01*
X130694451Y-86750004D01*
X124700500Y-86750004D01*
X124700500Y-86037503D01*
X124720185Y-85970464D01*
X124772989Y-85924709D01*
X124842147Y-85914765D01*
X124856593Y-85917728D01*
X124882647Y-85924709D01*
X125014592Y-85960063D01*
X125202918Y-85976539D01*
X125249999Y-85980659D01*
X125250000Y-85980659D01*
X125250001Y-85980659D01*
X125289234Y-85977226D01*
X125485408Y-85960063D01*
X125713663Y-85898903D01*
X125927829Y-85799035D01*
X126121401Y-85663495D01*
X126288495Y-85496401D01*
X126424035Y-85302829D01*
X126523903Y-85088663D01*
X126585063Y-84860408D01*
X126600500Y-84683966D01*
X126600500Y-84316034D01*
X126585063Y-84139592D01*
X126523903Y-83911337D01*
X126424035Y-83697171D01*
X126411936Y-83679891D01*
X126288494Y-83503597D01*
X126121402Y-83336506D01*
X126121395Y-83336501D01*
X125927834Y-83200967D01*
X125927830Y-83200965D01*
X125884423Y-83180724D01*
X125713663Y-83101097D01*
X125713659Y-83101096D01*
X125713655Y-83101094D01*
X125579872Y-83065248D01*
X125520211Y-83028883D01*
X125489682Y-82966036D01*
X125497977Y-82896661D01*
X125524284Y-82857792D01*
X125761576Y-82620501D01*
X126045257Y-82336819D01*
X126106581Y-82303334D01*
X126132939Y-82300500D01*
X138367060Y-82300500D01*
X138434099Y-82320185D01*
G37*
%TD.AperFunction*%
%TA.AperFunction,Conductor*%
G36*
X115003103Y-117101308D02*
G01*
X115043367Y-117158409D01*
X115050000Y-117198422D01*
X115050000Y-117965473D01*
X115196317Y-117926269D01*
X115196326Y-117926265D01*
X115402482Y-117830134D01*
X115588820Y-117699657D01*
X115662819Y-117625659D01*
X115724142Y-117592174D01*
X115793834Y-117597158D01*
X115849767Y-117639030D01*
X115874184Y-117704494D01*
X115874500Y-117713340D01*
X115874499Y-119036512D01*
X115854814Y-119103552D01*
X115802010Y-119149306D01*
X115732852Y-119159250D01*
X115679376Y-119138087D01*
X115652734Y-119119432D01*
X115652732Y-119119431D01*
X115446497Y-119023261D01*
X115446488Y-119023258D01*
X115226697Y-118964366D01*
X115226693Y-118964365D01*
X115226692Y-118964365D01*
X115226691Y-118964364D01*
X115226686Y-118964364D01*
X115000002Y-118944532D01*
X114999998Y-118944532D01*
X114773313Y-118964364D01*
X114773302Y-118964366D01*
X114553511Y-119023258D01*
X114553502Y-119023261D01*
X114347267Y-119119431D01*
X114195621Y-119225613D01*
X114129415Y-119247940D01*
X114061648Y-119230928D01*
X114013835Y-119179980D01*
X114000499Y-119124040D01*
X114000499Y-117979531D01*
X114020184Y-117912495D01*
X114072988Y-117866740D01*
X114142146Y-117856796D01*
X114176904Y-117867152D01*
X114303673Y-117926266D01*
X114303682Y-117926269D01*
X114450000Y-117965473D01*
X114450000Y-117198422D01*
X114469685Y-117131383D01*
X114522489Y-117085628D01*
X114591647Y-117075684D01*
X114615243Y-117083166D01*
X114615574Y-117082150D01*
X114624855Y-117085166D01*
X114718514Y-117100000D01*
X114718519Y-117100000D01*
X114781486Y-117100000D01*
X114875144Y-117085166D01*
X114875146Y-117085165D01*
X114875148Y-117085165D01*
X114875149Y-117085164D01*
X114884426Y-117082150D01*
X114885352Y-117085000D01*
X114938359Y-117075039D01*
X115003103Y-117101308D01*
G37*
%TD.AperFunction*%
%TA.AperFunction,Conductor*%
G36*
X123867862Y-108924655D02*
G01*
X123882817Y-108937407D01*
X128323106Y-113377697D01*
X132762197Y-117816788D01*
X132772022Y-117829051D01*
X132772243Y-117828869D01*
X132777214Y-117834878D01*
X132800555Y-117856796D01*
X132827635Y-117882226D01*
X132848529Y-117903120D01*
X132854011Y-117907373D01*
X132858443Y-117911157D01*
X132892418Y-117943062D01*
X132909976Y-117952714D01*
X132926235Y-117963395D01*
X132942064Y-117975673D01*
X132984838Y-117994182D01*
X132990056Y-117996738D01*
X133030908Y-118019197D01*
X133050316Y-118024180D01*
X133068717Y-118030480D01*
X133087104Y-118038437D01*
X133130488Y-118045308D01*
X133133119Y-118045725D01*
X133138839Y-118046909D01*
X133183981Y-118058500D01*
X133204016Y-118058500D01*
X133223414Y-118060026D01*
X133243194Y-118063159D01*
X133243195Y-118063160D01*
X133243195Y-118063159D01*
X133243196Y-118063160D01*
X133289583Y-118058775D01*
X133295422Y-118058500D01*
X137415022Y-118058500D01*
X137482061Y-118078185D01*
X137527816Y-118130989D01*
X137537760Y-118200147D01*
X137534798Y-118214585D01*
X137533127Y-118220826D01*
X137511930Y-118299930D01*
X137511929Y-118299937D01*
X137492677Y-118519997D01*
X137492677Y-118520002D01*
X137511929Y-118740062D01*
X137511930Y-118740070D01*
X137569107Y-118953455D01*
X137570792Y-118958083D01*
X137575228Y-119027811D01*
X137541261Y-119088869D01*
X137479676Y-119121870D01*
X137454273Y-119124500D01*
X128270452Y-119124500D01*
X128203413Y-119104815D01*
X128182771Y-119088181D01*
X123669413Y-114574822D01*
X123635928Y-114513499D01*
X123637319Y-114455048D01*
X123649168Y-114410826D01*
X123655635Y-114386692D01*
X123675468Y-114160000D01*
X123655635Y-113933308D01*
X123596739Y-113713504D01*
X123500568Y-113507266D01*
X123370047Y-113320861D01*
X123370045Y-113320858D01*
X123209141Y-113159954D01*
X123022734Y-113029432D01*
X123022732Y-113029431D01*
X122973672Y-113006554D01*
X122964132Y-113002105D01*
X122911694Y-112955934D01*
X122892542Y-112888740D01*
X122912758Y-112821859D01*
X122964134Y-112777341D01*
X123022484Y-112750132D01*
X123208820Y-112619657D01*
X123369657Y-112458820D01*
X123500134Y-112272482D01*
X123596265Y-112066326D01*
X123596268Y-112066320D01*
X123635475Y-111920000D01*
X122868423Y-111920000D01*
X122801384Y-111900315D01*
X122755629Y-111847511D01*
X122745685Y-111778353D01*
X122753165Y-111754755D01*
X122752150Y-111754426D01*
X122755163Y-111745151D01*
X122755165Y-111745148D01*
X122760000Y-111714620D01*
X122774986Y-111620003D01*
X122774986Y-111619996D01*
X122755166Y-111494856D01*
X122752150Y-111485574D01*
X122754997Y-111484648D01*
X122745043Y-111431611D01*
X122771328Y-111366874D01*
X122828439Y-111326623D01*
X122868423Y-111320000D01*
X123635475Y-111320000D01*
X123635474Y-111319999D01*
X123596268Y-111173679D01*
X123596265Y-111173673D01*
X123500134Y-110967517D01*
X123369657Y-110781179D01*
X123208820Y-110620342D01*
X123022482Y-110489865D01*
X122964133Y-110462657D01*
X122911694Y-110416484D01*
X122892542Y-110349291D01*
X122912758Y-110282410D01*
X122964129Y-110237895D01*
X123022734Y-110210568D01*
X123209139Y-110080047D01*
X123370047Y-109919139D01*
X123500568Y-109732734D01*
X123596739Y-109526496D01*
X123655635Y-109306692D01*
X123675468Y-109080000D01*
X123671609Y-109035896D01*
X123685375Y-108967398D01*
X123733990Y-108917214D01*
X123802018Y-108901280D01*
X123867862Y-108924655D01*
G37*
%TD.AperFunction*%
%TD*%
M02*
