%TF.GenerationSoftware,KiCad,Pcbnew,8.0.3*%
%TF.CreationDate,2024-07-25T19:58:26+01:00*%
%TF.ProjectId,Pack Board,5061636b-2042-46f6-9172-642e6b696361,rev?*%
%TF.SameCoordinates,Original*%
%TF.FileFunction,Copper,L2,Bot*%
%TF.FilePolarity,Positive*%
%FSLAX46Y46*%
G04 Gerber Fmt 4.6, Leading zero omitted, Abs format (unit mm)*
G04 Created by KiCad (PCBNEW 8.0.3) date 2024-07-25 19:58:26*
%MOMM*%
%LPD*%
G01*
G04 APERTURE LIST*
G04 Aperture macros list*
%AMRoundRect*
0 Rectangle with rounded corners*
0 $1 Rounding radius*
0 $2 $3 $4 $5 $6 $7 $8 $9 X,Y pos of 4 corners*
0 Add a 4 corners polygon primitive as box body*
4,1,4,$2,$3,$4,$5,$6,$7,$8,$9,$2,$3,0*
0 Add four circle primitives for the rounded corners*
1,1,$1+$1,$2,$3*
1,1,$1+$1,$4,$5*
1,1,$1+$1,$6,$7*
1,1,$1+$1,$8,$9*
0 Add four rect primitives between the rounded corners*
20,1,$1+$1,$2,$3,$4,$5,0*
20,1,$1+$1,$4,$5,$6,$7,0*
20,1,$1+$1,$6,$7,$8,$9,0*
20,1,$1+$1,$8,$9,$2,$3,0*%
G04 Aperture macros list end*
%TA.AperFunction,ComponentPad*%
%ADD10O,1.524000X1.524000*%
%TD*%
%TA.AperFunction,ComponentPad*%
%ADD11C,1.524000*%
%TD*%
%TA.AperFunction,ComponentPad*%
%ADD12C,5.600000*%
%TD*%
%TA.AperFunction,ComponentPad*%
%ADD13RoundRect,0.250000X-0.725000X0.600000X-0.725000X-0.600000X0.725000X-0.600000X0.725000X0.600000X0*%
%TD*%
%TA.AperFunction,ComponentPad*%
%ADD14O,1.950000X1.700000*%
%TD*%
%TA.AperFunction,ComponentPad*%
%ADD15C,1.600000*%
%TD*%
%TA.AperFunction,ComponentPad*%
%ADD16O,1.600000X1.600000*%
%TD*%
%TA.AperFunction,ComponentPad*%
%ADD17RoundRect,0.250000X-0.600000X-0.725000X0.600000X-0.725000X0.600000X0.725000X-0.600000X0.725000X0*%
%TD*%
%TA.AperFunction,ComponentPad*%
%ADD18O,1.700000X1.950000*%
%TD*%
%TA.AperFunction,ComponentPad*%
%ADD19RoundRect,0.250000X-0.600000X-0.750000X0.600000X-0.750000X0.600000X0.750000X-0.600000X0.750000X0*%
%TD*%
%TA.AperFunction,ComponentPad*%
%ADD20O,1.700000X2.000000*%
%TD*%
%TA.AperFunction,ComponentPad*%
%ADD21RoundRect,0.250000X-0.750000X0.600000X-0.750000X-0.600000X0.750000X-0.600000X0.750000X0.600000X0*%
%TD*%
%TA.AperFunction,ComponentPad*%
%ADD22O,2.000000X1.700000*%
%TD*%
%TA.AperFunction,ComponentPad*%
%ADD23R,2.600000X2.600000*%
%TD*%
%TA.AperFunction,ComponentPad*%
%ADD24C,2.600000*%
%TD*%
%TA.AperFunction,ComponentPad*%
%ADD25R,1.600000X1.600000*%
%TD*%
%TA.AperFunction,Conductor*%
%ADD26C,0.600000*%
%TD*%
%TA.AperFunction,Conductor*%
%ADD27C,0.250000*%
%TD*%
G04 APERTURE END LIST*
D10*
%TO.P,U1,1,GND*%
%TO.N,GND*%
X138100000Y-105400000D03*
%TO.P,U1,2,0_RX1_CRX2_CS1*%
%TO.N,/TX*%
X138100000Y-107940000D03*
%TO.P,U1,3,1_TX1_CTX2_MISO1*%
%TO.N,/RX*%
X138100000Y-110480000D03*
%TO.P,U1,4,2_OUT2*%
%TO.N,Net-(J16-Pin_2)*%
X138100000Y-113020000D03*
%TO.P,U1,5,3_LRCLK2*%
%TO.N,Net-(J15-Pin_1)*%
X138100000Y-115560000D03*
%TO.P,U1,6,4_BCLK2*%
%TO.N,Net-(J15-Pin_3)*%
X138100000Y-118100000D03*
%TO.P,U1,7,5_IN2*%
%TO.N,Net-(U1-5_IN2)*%
X138100000Y-120640000D03*
%TO.P,U1,8,6_OUT1D*%
%TO.N,unconnected-(U1-6_OUT1D-Pad8)*%
X138100000Y-123180000D03*
%TO.P,U1,9,7_RX2_OUT1A*%
%TO.N,unconnected-(U1-7_RX2_OUT1A-Pad9)*%
X138100000Y-125720000D03*
%TO.P,U1,10,8_TX2_IN1*%
%TO.N,unconnected-(U1-8_TX2_IN1-Pad10)*%
X138100000Y-128260000D03*
%TO.P,U1,11,9_OUT1C*%
%TO.N,Net-(U1-9_OUT1C)*%
X138100000Y-130800000D03*
%TO.P,U1,12,10_CS_MQSR*%
%TO.N,unconnected-(U1-10_CS_MQSR-Pad12)*%
X138100000Y-133340000D03*
%TO.P,U1,13,11_MOSI_CTX1*%
%TO.N,unconnected-(U1-11_MOSI_CTX1-Pad13)*%
X138100000Y-135880000D03*
%TO.P,U1,14,12_MISO_MQSL*%
%TO.N,unconnected-(U1-12_MISO_MQSL-Pad14)*%
X138100000Y-138420000D03*
%TO.P,U1,17,13_SCK_CRX1_LED*%
%TO.N,unconnected-(U1-13_SCK_CRX1_LED-Pad17)*%
X153340000Y-138420000D03*
%TO.P,U1,18,14_A0_TX3_SPDIF_OUT*%
%TO.N,Net-(J17-Pin_2)*%
X153340000Y-135880000D03*
%TO.P,U1,19,15_A1_RX3_SPDIF_IN_VOL*%
%TO.N,unconnected-(U1-15_A1_RX3_SPDIF_IN_VOL-Pad19)*%
X153340000Y-133340000D03*
%TO.P,U1,20,16_A2_RX4_SCL1*%
%TO.N,Net-(U1-16_A2_RX4_SCL1)*%
X153340000Y-130800000D03*
%TO.P,U1,21,17_A3_TX4_SDA1*%
%TO.N,Net-(U1-17_A3_TX4_SDA1)*%
X153340000Y-128260000D03*
%TO.P,U1,22,18_A4_SDA0*%
%TO.N,/SDA*%
X153340000Y-125720000D03*
%TO.P,U1,23,19_A5_SCL0*%
%TO.N,/SCL*%
X153340000Y-123180000D03*
%TO.P,U1,24,20_A6_TX5_LRCLK1*%
%TO.N,unconnected-(U1-20_A6_TX5_LRCLK1-Pad24)*%
X153340000Y-120640000D03*
%TO.P,U1,25,21_A7_RX5_BCLK1*%
%TO.N,unconnected-(U1-21_A7_RX5_BCLK1-Pad25)*%
X153340000Y-118100000D03*
%TO.P,U1,26,22_A8_CTX1*%
%TO.N,Net-(J5-Pin_2)*%
X153340000Y-115560000D03*
%TO.P,U1,27,23_A9_CRX1_MCLK1*%
%TO.N,unconnected-(U1-23_A9_CRX1_MCLK1-Pad27)*%
X153340000Y-113020000D03*
%TO.P,U1,28,3V*%
%TO.N,+3.3V*%
X153340000Y-110480000D03*
%TO.P,U1,29,GND*%
%TO.N,GND*%
X153340000Y-107940000D03*
%TO.P,U1,30,5V*%
%TO.N,+5V*%
X153340000Y-105400000D03*
D11*
%TO.P,U1,31,LINE_OUT_L*%
%TO.N,/LINE_OUT_L*%
X157150000Y-126990000D03*
%TO.P,U1,32,LINE_OUT_GND*%
%TO.N,/LINE_OUT_GND*%
X157150000Y-124450000D03*
%TO.P,U1,33,LINE_OUT_R*%
%TO.N,unconnected-(U1-LINE_OUT_R-Pad33)*%
X157150000Y-121910000D03*
%TO.P,U1,34,LINE_IN_R*%
%TO.N,/LINE_IN_R*%
X157150000Y-119370000D03*
%TO.P,U1,35,LINE_IN_L*%
%TO.N,/LINE_IN_L*%
X157150000Y-116830000D03*
%TO.P,U1,36,LINE_IN_R_GND*%
%TO.N,/LINE_IN_R_GND*%
X159690000Y-119370000D03*
%TO.P,U1,37,LINE_IN_L_GND*%
%TO.N,/LINE_IN_L_GND*%
X159690000Y-116830000D03*
%TO.P,U1,45,NCB*%
%TO.N,unconnected-(U1-NCB-Pad45)*%
X159690000Y-121910000D03*
%TO.P,U1,46,NCA*%
%TO.N,/LINE_OUT_L*%
X159690000Y-126990000D03*
%TD*%
D12*
%TO.P,REF\u002A\u002A,1*%
%TO.N,N/C*%
X104445000Y-145405000D03*
%TD*%
D13*
%TO.P,J18,1,Pin_1*%
%TO.N,GND*%
X169215000Y-92820000D03*
D14*
%TO.P,J18,2,Pin_2*%
%TO.N,+3.3V*%
X169215000Y-95320000D03*
%TO.P,J18,3,Pin_3*%
%TO.N,/SDA*%
X169215000Y-97820000D03*
%TO.P,J18,4,Pin_4*%
%TO.N,/SCL*%
X169215000Y-100320000D03*
%TD*%
D15*
%TO.P,R5,1*%
%TO.N,/SCL*%
X140005000Y-100320000D03*
D16*
%TO.P,R5,2*%
%TO.N,+3.3V*%
X147625000Y-100320000D03*
%TD*%
D17*
%TO.P,J1,1,Pin_1*%
%TO.N,GND*%
X116590000Y-84445000D03*
D18*
%TO.P,J1,2,Pin_2*%
%TO.N,+5V*%
X119090000Y-84445000D03*
%TO.P,J1,3,Pin_3*%
%TO.N,Net-(J1-Pin_3)*%
X121590000Y-84445000D03*
%TD*%
D19*
%TO.P,J5,1,Pin_1*%
%TO.N,GND*%
X117820000Y-108575000D03*
D20*
%TO.P,J5,2,Pin_2*%
%TO.N,Net-(J5-Pin_2)*%
X120320000Y-108575000D03*
%TD*%
D17*
%TO.P,J3,1,Pin_1*%
%TO.N,GND*%
X154610000Y-84445000D03*
D18*
%TO.P,J3,2,Pin_2*%
%TO.N,+5V*%
X157110000Y-84445000D03*
%TO.P,J3,3,Pin_3*%
%TO.N,/CYCLO_LED_IN*%
X159610000Y-84445000D03*
%TD*%
D19*
%TO.P,J16,1,Pin_1*%
%TO.N,GND*%
X105500000Y-92065000D03*
D20*
%TO.P,J16,2,Pin_2*%
%TO.N,Net-(J16-Pin_2)*%
X108000000Y-92065000D03*
%TD*%
D12*
%TO.P,REF\u002A\u002A,1*%
%TO.N,N/C*%
X171755000Y-84445000D03*
%TD*%
D15*
%TO.P,R2,1*%
%TO.N,/PCELL_LED_IN*%
X120320000Y-139055000D03*
D16*
%TO.P,R2,2*%
%TO.N,/LED_IN*%
X112700000Y-139055000D03*
%TD*%
D19*
%TO.P,J17,1,Pin_1*%
%TO.N,GND*%
X112740000Y-144135000D03*
D20*
%TO.P,J17,2,Pin_2*%
%TO.N,Net-(J17-Pin_2)*%
X115240000Y-144135000D03*
%TD*%
D21*
%TO.P,J12,1,Pin_1*%
%TO.N,/LINE_IN_L_GND*%
X169850000Y-124490000D03*
D22*
%TO.P,J12,2,Pin_2*%
%TO.N,/LINE_IN_L*%
X169850000Y-126990000D03*
%TD*%
D21*
%TO.P,J11,1,Pin_1*%
%TO.N,/LINE_IN_R_GND*%
X169740000Y-134630000D03*
D22*
%TO.P,J11,2,Pin_2*%
%TO.N,/LINE_IN_R*%
X169740000Y-137130000D03*
%TD*%
D12*
%TO.P,REF\u002A\u002A,1*%
%TO.N,N/C*%
X171755000Y-145405000D03*
%TD*%
D13*
%TO.P,J9,1,Pin_1*%
%TO.N,GND*%
X157785000Y-92820000D03*
D14*
%TO.P,J9,2,Pin_2*%
%TO.N,+3.3V*%
X157785000Y-95320000D03*
%TO.P,J9,3,Pin_3*%
%TO.N,/SDA*%
X157785000Y-97820000D03*
%TO.P,J9,4,Pin_4*%
%TO.N,/SCL*%
X157785000Y-100320000D03*
%TD*%
D21*
%TO.P,J10,1,Pin_1*%
%TO.N,/LINE_OUT_GND*%
X169850000Y-114330000D03*
D22*
%TO.P,J10,2,Pin_2*%
%TO.N,/LINE_OUT_L*%
X169850000Y-116830000D03*
%TD*%
D23*
%TO.P,J6,1,Pin_1*%
%TO.N,/TX*%
X134845000Y-86350000D03*
D24*
%TO.P,J6,2,Pin_2*%
%TO.N,/RX*%
X129845000Y-86350000D03*
%TD*%
D25*
%TO.P,U2,1,1OE*%
%TO.N,GND*%
X115240000Y-117465000D03*
D16*
%TO.P,U2,2,1A*%
%TO.N,Net-(U1-5_IN2)*%
X115240000Y-120005000D03*
%TO.P,U2,3,1Y*%
%TO.N,Net-(J14-Pin_3)*%
X115240000Y-122545000D03*
%TO.P,U2,4,2OE*%
%TO.N,GND*%
X115240000Y-125085000D03*
%TO.P,U2,5,2A*%
%TO.N,Net-(U1-17_A3_TX4_SDA1)*%
X115240000Y-127625000D03*
%TO.P,U2,6,2Y*%
%TO.N,Net-(J13-Pin_3)*%
X115240000Y-130165000D03*
%TO.P,U2,7,GND*%
%TO.N,GND*%
X115240000Y-132705000D03*
%TO.P,U2,8,3Y*%
%TO.N,/LED_IN*%
X122860000Y-132705000D03*
%TO.P,U2,9,3A*%
%TO.N,Net-(U1-16_A2_RX4_SCL1)*%
X122860000Y-130165000D03*
%TO.P,U2,10,3OE*%
%TO.N,GND*%
X122860000Y-127625000D03*
%TO.P,U2,11,4Y*%
%TO.N,Net-(J1-Pin_3)*%
X122860000Y-125085000D03*
%TO.P,U2,12,4A*%
%TO.N,Net-(U1-9_OUT1C)*%
X122860000Y-122545000D03*
%TO.P,U2,13,4OE*%
%TO.N,GND*%
X122860000Y-120005000D03*
%TO.P,U2,14,VCC*%
%TO.N,+5V*%
X122860000Y-117465000D03*
%TD*%
D12*
%TO.P,REF\u002A\u002A,1*%
%TO.N,N/C*%
X104445000Y-84445000D03*
%TD*%
D25*
%TO.P,C1,1*%
%TO.N,+5V*%
X105620000Y-135880000D03*
D15*
%TO.P,C1,2*%
%TO.N,GND*%
X107620000Y-135880000D03*
%TD*%
D17*
%TO.P,J4,1,Pin_1*%
%TO.N,GND*%
X122860000Y-144135000D03*
D18*
%TO.P,J4,2,Pin_2*%
%TO.N,+5V*%
X125360000Y-144135000D03*
%TO.P,J4,3,Pin_3*%
%TO.N,/PCELL_LED_IN*%
X127860000Y-144135000D03*
%TO.P,J4,4,Pin_4*%
%TO.N,/CYCLO_LED_IN*%
X130360000Y-144135000D03*
%TD*%
D17*
%TO.P,J13,1,Pin_1*%
%TO.N,GND*%
X104250000Y-112500000D03*
D18*
%TO.P,J13,2,Pin_2*%
%TO.N,+5V*%
X106750000Y-112500000D03*
%TO.P,J13,3,Pin_3*%
%TO.N,Net-(J13-Pin_3)*%
X109250000Y-112500000D03*
%TD*%
D23*
%TO.P,J8,1,Pin_1*%
%TO.N,GND*%
X146910000Y-86350000D03*
D24*
%TO.P,J8,2,Pin_2*%
%TO.N,+5V*%
X141910000Y-86350000D03*
%TD*%
D23*
%TO.P,J7,1,Pin_1*%
%TO.N,GND*%
X106750000Y-122000000D03*
D24*
%TO.P,J7,2,Pin_2*%
%TO.N,+5V*%
X106750000Y-127000000D03*
%TD*%
D17*
%TO.P,J15,1,Pin_1*%
%TO.N,Net-(J15-Pin_1)*%
X104250000Y-102225000D03*
D18*
%TO.P,J15,2,Pin_2*%
%TO.N,GND*%
X106750000Y-102225000D03*
%TO.P,J15,3,Pin_3*%
%TO.N,Net-(J15-Pin_3)*%
X109250000Y-102225000D03*
%TD*%
D15*
%TO.P,R4,1*%
%TO.N,/SDA*%
X140005000Y-95240000D03*
D16*
%TO.P,R4,2*%
%TO.N,+3.3V*%
X147625000Y-95240000D03*
%TD*%
D17*
%TO.P,J14,1,Pin_1*%
%TO.N,GND*%
X116590000Y-95820000D03*
D18*
%TO.P,J14,2,Pin_2*%
%TO.N,+5V*%
X119090000Y-95820000D03*
%TO.P,J14,3,Pin_3*%
%TO.N,Net-(J14-Pin_3)*%
X121590000Y-95820000D03*
%TD*%
D26*
%TO.N,+3.3V*%
X148340000Y-95320000D02*
X157785000Y-95320000D01*
X157785000Y-95320000D02*
X157675000Y-95210000D01*
X147625000Y-95240000D02*
X148260000Y-95240000D01*
X148260000Y-95240000D02*
X148340000Y-95320000D01*
%TO.N,/SDA*%
X140005000Y-95240000D02*
X142585000Y-97820000D01*
X142585000Y-97820000D02*
X157785000Y-97820000D01*
D27*
%TO.N,Net-(J5-Pin_2)*%
X136830000Y-119370000D02*
X149530000Y-119370000D01*
X120320000Y-108575000D02*
X126035000Y-108575000D01*
X126035000Y-108575000D02*
X136830000Y-119370000D01*
X149530000Y-119370000D02*
X153340000Y-115560000D01*
%TO.N,Net-(U1-5_IN2)*%
X116636999Y-121401999D02*
X115240000Y-120005000D01*
X138100000Y-120640000D02*
X137338001Y-121401999D01*
X137338001Y-121401999D02*
X116636999Y-121401999D01*
%TO.N,Net-(J16-Pin_2)*%
X139370000Y-102860000D02*
X139370000Y-111750000D01*
X128575000Y-92065000D02*
X139370000Y-102860000D01*
X139370000Y-111750000D02*
X138100000Y-113020000D01*
X108000000Y-92065000D02*
X128575000Y-92065000D01*
%TO.N,Net-(J15-Pin_1)*%
X104250000Y-102225000D02*
X113775000Y-92700000D01*
X136195000Y-113655000D02*
X138100000Y-115560000D01*
X136195000Y-100955000D02*
X136195000Y-113655000D01*
X113775000Y-92700000D02*
X127940000Y-92700000D01*
X127940000Y-92700000D02*
X136195000Y-100955000D01*
%TO.N,Net-(J15-Pin_3)*%
X113970000Y-93970000D02*
X127305000Y-93970000D01*
X127305000Y-93970000D02*
X134925000Y-101590000D01*
X109250000Y-98690000D02*
X113970000Y-93970000D01*
X134925000Y-101590000D02*
X134925000Y-114925000D01*
X134925000Y-114925000D02*
X138100000Y-118100000D01*
X109250000Y-102225000D02*
X109250000Y-98690000D01*
%TO.N,Net-(J14-Pin_3)*%
X112700000Y-120005000D02*
X115240000Y-122545000D01*
X121590000Y-95820000D02*
X112700000Y-104710000D01*
X112700000Y-104710000D02*
X112700000Y-120005000D01*
%TO.N,Net-(U1-16_A2_RX4_SCL1)*%
X133655000Y-130165000D02*
X135560000Y-132070000D01*
X135560000Y-132070000D02*
X152070000Y-132070000D01*
X152070000Y-132070000D02*
X153340000Y-130800000D01*
X122860000Y-130165000D02*
X133655000Y-130165000D01*
%TO.N,Net-(U1-9_OUT1C)*%
X129845000Y-122545000D02*
X138100000Y-130800000D01*
X122860000Y-122545000D02*
X129845000Y-122545000D01*
D26*
%TO.N,/SCL*%
X140005000Y-100320000D02*
X141305000Y-99020000D01*
X141305000Y-99020000D02*
X156485000Y-99020000D01*
X156485000Y-99020000D02*
X157785000Y-100320000D01*
%TO.N,/CYCLO_LED_IN*%
X164135000Y-134610000D02*
X164135000Y-88970000D01*
X130360000Y-144135000D02*
X154610000Y-144135000D01*
X154610000Y-144135000D02*
X164135000Y-134610000D01*
X164135000Y-88970000D02*
X159610000Y-84445000D01*
%TO.N,/PCELL_LED_IN*%
X122780000Y-139055000D02*
X127860000Y-144135000D01*
X120320000Y-139055000D02*
X122780000Y-139055000D01*
D27*
X127860000Y-144135000D02*
X127860000Y-144055000D01*
D26*
%TO.N,/LED_IN*%
X116510000Y-139055000D02*
X122860000Y-132705000D01*
X112700000Y-139055000D02*
X116510000Y-139055000D01*
%TD*%
%TA.AperFunction,Conductor*%
%TO.N,GND*%
G36*
X127061587Y-94615185D02*
G01*
X127082229Y-94631819D01*
X134263181Y-101812771D01*
X134296666Y-101874094D01*
X134299500Y-101900452D01*
X134299500Y-114986606D01*
X134311517Y-115047026D01*
X134316911Y-115074141D01*
X134316911Y-115074143D01*
X134323534Y-115107443D01*
X134323535Y-115107445D01*
X134323536Y-115107448D01*
X134323537Y-115107451D01*
X134370688Y-115221286D01*
X134370688Y-115221287D01*
X134384813Y-115242426D01*
X134399037Y-115263712D01*
X134399038Y-115263715D01*
X134399039Y-115263715D01*
X134439140Y-115323731D01*
X134439144Y-115323736D01*
X134530586Y-115415178D01*
X134530608Y-115415198D01*
X136831613Y-117716203D01*
X136865098Y-117777526D01*
X136863707Y-117835976D01*
X136851931Y-117879926D01*
X136851931Y-117879929D01*
X136851930Y-117879932D01*
X136848809Y-117915606D01*
X136832677Y-118099997D01*
X136832677Y-118100002D01*
X136840192Y-118185904D01*
X136826425Y-118254404D01*
X136777810Y-118304587D01*
X136709781Y-118320520D01*
X136643937Y-118297144D01*
X136628983Y-118284392D01*
X126527928Y-108183338D01*
X126527925Y-108183334D01*
X126527925Y-108183335D01*
X126520859Y-108176269D01*
X126520858Y-108176267D01*
X126433733Y-108089142D01*
X126433729Y-108089139D01*
X126433728Y-108089138D01*
X126359185Y-108039330D01*
X126359184Y-108039329D01*
X126331290Y-108020690D01*
X126331286Y-108020688D01*
X126250792Y-107987347D01*
X126217453Y-107973537D01*
X126207427Y-107971543D01*
X126157029Y-107961518D01*
X126096610Y-107949500D01*
X126096607Y-107949500D01*
X126096606Y-107949500D01*
X121669409Y-107949500D01*
X121602370Y-107929815D01*
X121558924Y-107881795D01*
X121488673Y-107743919D01*
X121475051Y-107717184D01*
X121475049Y-107717181D01*
X121475048Y-107717179D01*
X121350109Y-107545213D01*
X121199786Y-107394890D01*
X121027820Y-107269951D01*
X120838414Y-107173444D01*
X120838413Y-107173443D01*
X120838412Y-107173443D01*
X120636243Y-107107754D01*
X120636241Y-107107753D01*
X120636240Y-107107753D01*
X120474957Y-107082208D01*
X120426287Y-107074500D01*
X120213713Y-107074500D01*
X120165042Y-107082208D01*
X120003760Y-107107753D01*
X120003757Y-107107754D01*
X119803152Y-107172935D01*
X119801585Y-107173444D01*
X119612179Y-107269951D01*
X119440215Y-107394889D01*
X119301035Y-107534069D01*
X119239712Y-107567553D01*
X119170020Y-107562569D01*
X119114087Y-107520697D01*
X119107815Y-107511484D01*
X119012315Y-107356654D01*
X118888345Y-107232684D01*
X118739124Y-107140643D01*
X118739119Y-107140641D01*
X118572697Y-107085494D01*
X118572690Y-107085493D01*
X118469986Y-107075000D01*
X118120000Y-107075000D01*
X118120000Y-108170855D01*
X118012993Y-108109075D01*
X117885826Y-108075000D01*
X117754174Y-108075000D01*
X117627007Y-108109075D01*
X117520000Y-108170855D01*
X117520000Y-107075000D01*
X117170028Y-107075000D01*
X117170012Y-107075001D01*
X117067302Y-107085494D01*
X116900880Y-107140641D01*
X116900875Y-107140643D01*
X116751654Y-107232684D01*
X116627684Y-107356654D01*
X116535643Y-107505875D01*
X116535641Y-107505880D01*
X116480494Y-107672302D01*
X116480493Y-107672309D01*
X116470000Y-107775013D01*
X116470000Y-108275000D01*
X117415856Y-108275000D01*
X117354075Y-108382007D01*
X117320000Y-108509174D01*
X117320000Y-108640826D01*
X117354075Y-108767993D01*
X117415856Y-108875000D01*
X116470001Y-108875000D01*
X116470001Y-109374986D01*
X116480494Y-109477697D01*
X116535641Y-109644119D01*
X116535643Y-109644124D01*
X116627684Y-109793345D01*
X116751654Y-109917315D01*
X116900875Y-110009356D01*
X116900880Y-110009358D01*
X117067302Y-110064505D01*
X117067309Y-110064506D01*
X117170019Y-110074999D01*
X117519999Y-110074999D01*
X117520000Y-110074998D01*
X117520000Y-108979144D01*
X117627007Y-109040925D01*
X117754174Y-109075000D01*
X117885826Y-109075000D01*
X118012993Y-109040925D01*
X118120000Y-108979144D01*
X118120000Y-110074999D01*
X118469972Y-110074999D01*
X118469986Y-110074998D01*
X118572697Y-110064505D01*
X118739119Y-110009358D01*
X118739124Y-110009356D01*
X118888345Y-109917315D01*
X119012317Y-109793343D01*
X119107815Y-109638516D01*
X119159763Y-109591791D01*
X119228725Y-109580568D01*
X119292808Y-109608412D01*
X119301035Y-109615931D01*
X119440213Y-109755109D01*
X119612179Y-109880048D01*
X119612181Y-109880049D01*
X119612184Y-109880051D01*
X119801588Y-109976557D01*
X120003757Y-110042246D01*
X120213713Y-110075500D01*
X120213714Y-110075500D01*
X120426286Y-110075500D01*
X120426287Y-110075500D01*
X120636243Y-110042246D01*
X120838412Y-109976557D01*
X121027816Y-109880051D01*
X121099895Y-109827683D01*
X121199786Y-109755109D01*
X121199788Y-109755106D01*
X121199792Y-109755104D01*
X121350104Y-109604792D01*
X121350106Y-109604788D01*
X121350109Y-109604786D01*
X121475048Y-109432820D01*
X121475047Y-109432820D01*
X121475051Y-109432816D01*
X121558924Y-109268204D01*
X121606898Y-109217409D01*
X121669409Y-109200500D01*
X125724548Y-109200500D01*
X125791587Y-109220185D01*
X125812229Y-109236819D01*
X136431262Y-119855854D01*
X136431265Y-119855857D01*
X136459632Y-119874811D01*
X136533714Y-119924311D01*
X136647548Y-119971463D01*
X136768388Y-119995499D01*
X136768392Y-119995500D01*
X136768393Y-119995500D01*
X136768394Y-119995500D01*
X136812879Y-119995500D01*
X136879918Y-120015185D01*
X136925673Y-120067989D01*
X136935617Y-120137147D01*
X136925262Y-120171902D01*
X136919332Y-120184620D01*
X136909105Y-120206552D01*
X136909104Y-120206554D01*
X136851930Y-120419929D01*
X136851929Y-120419937D01*
X136832677Y-120639997D01*
X136832825Y-120641689D01*
X136832677Y-120642425D01*
X136832677Y-120645414D01*
X136832076Y-120645414D01*
X136819060Y-120710189D01*
X136770445Y-120760373D01*
X136709297Y-120776499D01*
X124129277Y-120776499D01*
X124062238Y-120756814D01*
X124016483Y-120704010D01*
X124006539Y-120634852D01*
X124016895Y-120600095D01*
X124086264Y-120451331D01*
X124086269Y-120451317D01*
X124145139Y-120231610D01*
X124145141Y-120231599D01*
X124164966Y-120005002D01*
X124164966Y-120004997D01*
X124145141Y-119778400D01*
X124145139Y-119778389D01*
X124086269Y-119558682D01*
X124086265Y-119558673D01*
X123990134Y-119352518D01*
X123990133Y-119352516D01*
X123968146Y-119321116D01*
X123968146Y-119321115D01*
X123260000Y-120029261D01*
X123260000Y-119952339D01*
X123232741Y-119850606D01*
X123180080Y-119759394D01*
X123105606Y-119684920D01*
X123014394Y-119632259D01*
X122912661Y-119605000D01*
X122807339Y-119605000D01*
X122705606Y-119632259D01*
X122614394Y-119684920D01*
X122539920Y-119759394D01*
X122487259Y-119850606D01*
X122460000Y-119952339D01*
X122460000Y-120029264D01*
X121751851Y-119321115D01*
X121729867Y-119352514D01*
X121633734Y-119558673D01*
X121633730Y-119558682D01*
X121574860Y-119778389D01*
X121574858Y-119778400D01*
X121555034Y-120004997D01*
X121555034Y-120005002D01*
X121574858Y-120231599D01*
X121574860Y-120231610D01*
X121633730Y-120451317D01*
X121633735Y-120451331D01*
X121703105Y-120600095D01*
X121713597Y-120669172D01*
X121685077Y-120732956D01*
X121626600Y-120771195D01*
X121590723Y-120776499D01*
X116947451Y-120776499D01*
X116880412Y-120756814D01*
X116859770Y-120740180D01*
X116539412Y-120419822D01*
X116505927Y-120358499D01*
X116507318Y-120300048D01*
X116525635Y-120231692D01*
X116545468Y-120005000D01*
X116525635Y-119778308D01*
X116466739Y-119558504D01*
X116370568Y-119352266D01*
X116262225Y-119197535D01*
X116240045Y-119165858D01*
X116079141Y-119004954D01*
X116053911Y-118987288D01*
X116010286Y-118932712D01*
X116003092Y-118863213D01*
X116034614Y-118800858D01*
X116094844Y-118765444D01*
X116111775Y-118762424D01*
X116113026Y-118762289D01*
X115240000Y-117889264D01*
X114366973Y-118762289D01*
X114368224Y-118762424D01*
X114432774Y-118789164D01*
X114472621Y-118846557D01*
X114475112Y-118916383D01*
X114439458Y-118976470D01*
X114426089Y-118987287D01*
X114400860Y-119004952D01*
X114239954Y-119165858D01*
X114109432Y-119352265D01*
X114109431Y-119352267D01*
X114013261Y-119558502D01*
X114013258Y-119558511D01*
X113954366Y-119778302D01*
X113954364Y-119778313D01*
X113934532Y-120004998D01*
X113934532Y-120005002D01*
X113938390Y-120049102D01*
X113924623Y-120117602D01*
X113876008Y-120167785D01*
X113807979Y-120183718D01*
X113742135Y-120160342D01*
X113727181Y-120147590D01*
X113361819Y-119782228D01*
X113328334Y-119720905D01*
X113325500Y-119694547D01*
X113325500Y-116617171D01*
X113940000Y-116617171D01*
X113940000Y-118312844D01*
X113942708Y-118338025D01*
X113942709Y-118338025D01*
X114815736Y-117465000D01*
X114763075Y-117412339D01*
X114840000Y-117412339D01*
X114840000Y-117517661D01*
X114867259Y-117619394D01*
X114919920Y-117710606D01*
X114994394Y-117785080D01*
X115085606Y-117837741D01*
X115187339Y-117865000D01*
X115292661Y-117865000D01*
X115394394Y-117837741D01*
X115485606Y-117785080D01*
X115560080Y-117710606D01*
X115612741Y-117619394D01*
X115640000Y-117517661D01*
X115640000Y-117464999D01*
X115664264Y-117464999D01*
X115664264Y-117465001D01*
X116537289Y-118338026D01*
X116539999Y-118312830D01*
X116540000Y-118312823D01*
X116540000Y-117464998D01*
X121554532Y-117464998D01*
X121554532Y-117465001D01*
X121574364Y-117691686D01*
X121574366Y-117691697D01*
X121633258Y-117911488D01*
X121633261Y-117911497D01*
X121729431Y-118117732D01*
X121729432Y-118117734D01*
X121859954Y-118304141D01*
X122020858Y-118465045D01*
X122020861Y-118465047D01*
X122207266Y-118595568D01*
X122265865Y-118622893D01*
X122318305Y-118669065D01*
X122337457Y-118736258D01*
X122317242Y-118803139D01*
X122265867Y-118847657D01*
X122207513Y-118874868D01*
X122176115Y-118896851D01*
X122860000Y-119580736D01*
X122860001Y-119580736D01*
X123543883Y-118896852D01*
X123543883Y-118896851D01*
X123512485Y-118874867D01*
X123454133Y-118847657D01*
X123401694Y-118801484D01*
X123382542Y-118734291D01*
X123402758Y-118667410D01*
X123454129Y-118622895D01*
X123512734Y-118595568D01*
X123699139Y-118465047D01*
X123860047Y-118304139D01*
X123990568Y-118117734D01*
X124086739Y-117911496D01*
X124145635Y-117691692D01*
X124165468Y-117465000D01*
X124145635Y-117238308D01*
X124086739Y-117018504D01*
X123990568Y-116812266D01*
X123882225Y-116657535D01*
X123860045Y-116625858D01*
X123699141Y-116464954D01*
X123512734Y-116334432D01*
X123512732Y-116334431D01*
X123306497Y-116238261D01*
X123306488Y-116238258D01*
X123086697Y-116179366D01*
X123086693Y-116179365D01*
X123086692Y-116179365D01*
X123086691Y-116179364D01*
X123086686Y-116179364D01*
X122860002Y-116159532D01*
X122859998Y-116159532D01*
X122633313Y-116179364D01*
X122633302Y-116179366D01*
X122413511Y-116238258D01*
X122413502Y-116238261D01*
X122207267Y-116334431D01*
X122207265Y-116334432D01*
X122020858Y-116464954D01*
X121859954Y-116625858D01*
X121729432Y-116812265D01*
X121729431Y-116812267D01*
X121633261Y-117018502D01*
X121633258Y-117018511D01*
X121574366Y-117238302D01*
X121574364Y-117238313D01*
X121554532Y-117464998D01*
X116540000Y-117464998D01*
X116540000Y-116617178D01*
X116539999Y-116617170D01*
X116537289Y-116591973D01*
X115664264Y-117464999D01*
X115640000Y-117464999D01*
X115640000Y-117412339D01*
X115612741Y-117310606D01*
X115560080Y-117219394D01*
X115485606Y-117144920D01*
X115394394Y-117092259D01*
X115292661Y-117065000D01*
X115187339Y-117065000D01*
X115085606Y-117092259D01*
X114994394Y-117144920D01*
X114919920Y-117219394D01*
X114867259Y-117310606D01*
X114840000Y-117412339D01*
X114763075Y-117412339D01*
X113942709Y-116591973D01*
X113940000Y-116617171D01*
X113325500Y-116617171D01*
X113325500Y-116167709D01*
X114366973Y-116167709D01*
X115240000Y-117040736D01*
X115240001Y-117040736D01*
X116113025Y-116167709D01*
X116113025Y-116167708D01*
X116087844Y-116165000D01*
X114392172Y-116165000D01*
X114366973Y-116167709D01*
X113325500Y-116167709D01*
X113325500Y-105020452D01*
X113345185Y-104953413D01*
X113361819Y-104932771D01*
X117190449Y-101104141D01*
X121037818Y-97256771D01*
X121099139Y-97223288D01*
X121163814Y-97226522D01*
X121273757Y-97262246D01*
X121483713Y-97295500D01*
X121483714Y-97295500D01*
X121696286Y-97295500D01*
X121696287Y-97295500D01*
X121906243Y-97262246D01*
X122108412Y-97196557D01*
X122297816Y-97100051D01*
X122408686Y-97019500D01*
X122469786Y-96975109D01*
X122469788Y-96975106D01*
X122469792Y-96975104D01*
X122620104Y-96824792D01*
X122620106Y-96824788D01*
X122620109Y-96824786D01*
X122736236Y-96664949D01*
X122745051Y-96652816D01*
X122841557Y-96463412D01*
X122907246Y-96261243D01*
X122940500Y-96051287D01*
X122940500Y-95588713D01*
X122907246Y-95378757D01*
X122841557Y-95176588D01*
X122745051Y-94987184D01*
X122745049Y-94987181D01*
X122745048Y-94987179D01*
X122620109Y-94815213D01*
X122612077Y-94807181D01*
X122578592Y-94745858D01*
X122583576Y-94676166D01*
X122625448Y-94620233D01*
X122690912Y-94595816D01*
X122699758Y-94595500D01*
X126994548Y-94595500D01*
X127061587Y-94615185D01*
G37*
%TD.AperFunction*%
%TA.AperFunction,Conductor*%
G36*
X137626619Y-105596081D02*
G01*
X137693498Y-105711920D01*
X137788080Y-105806502D01*
X137903919Y-105873381D01*
X138019824Y-105904437D01*
X137443401Y-106480861D01*
X137466593Y-106497101D01*
X137595780Y-106557342D01*
X137648220Y-106603514D01*
X137667372Y-106670707D01*
X137647156Y-106737589D01*
X137595781Y-106782106D01*
X137466340Y-106842465D01*
X137466338Y-106842466D01*
X137285377Y-106969175D01*
X137129175Y-107125377D01*
X137046075Y-107244058D01*
X136991498Y-107287683D01*
X136922000Y-107294877D01*
X136859645Y-107263354D01*
X136824231Y-107203125D01*
X136820500Y-107172935D01*
X136820500Y-106166192D01*
X136840185Y-106099153D01*
X136892989Y-106053398D01*
X136962147Y-106043454D01*
X136984244Y-106053545D01*
X137019137Y-106056598D01*
X137595562Y-105480173D01*
X137626619Y-105596081D01*
G37*
%TD.AperFunction*%
%TA.AperFunction,Conductor*%
G36*
X137025703Y-101400739D02*
G01*
X137032181Y-101406771D01*
X138708181Y-103082771D01*
X138741666Y-103144094D01*
X138744500Y-103170452D01*
X138744500Y-104113431D01*
X138724815Y-104180470D01*
X138672011Y-104226225D01*
X138602853Y-104236169D01*
X138568097Y-104225814D01*
X138533279Y-104209579D01*
X138533270Y-104209575D01*
X138319986Y-104152426D01*
X138319976Y-104152424D01*
X138100001Y-104133179D01*
X138099999Y-104133179D01*
X137880023Y-104152424D01*
X137880013Y-104152426D01*
X137666729Y-104209575D01*
X137666715Y-104209580D01*
X137466591Y-104302899D01*
X137466590Y-104302900D01*
X137443401Y-104319136D01*
X137443400Y-104319137D01*
X138019825Y-104895562D01*
X137903919Y-104926619D01*
X137788080Y-104993498D01*
X137693498Y-105088080D01*
X137626619Y-105203919D01*
X137595562Y-105319825D01*
X137019137Y-104743400D01*
X136995335Y-104745483D01*
X136991499Y-104748551D01*
X136922001Y-104755745D01*
X136859646Y-104724223D01*
X136824231Y-104663993D01*
X136820500Y-104633803D01*
X136820500Y-101494452D01*
X136840185Y-101427413D01*
X136892989Y-101381658D01*
X136962147Y-101371714D01*
X137025703Y-101400739D01*
G37*
%TD.AperFunction*%
%TA.AperFunction,Conductor*%
G36*
X108543834Y-98918269D02*
G01*
X108599767Y-98960141D01*
X108624184Y-99025605D01*
X108624500Y-99034451D01*
X108624500Y-100827019D01*
X108604815Y-100894058D01*
X108556797Y-100937503D01*
X108542180Y-100944950D01*
X108370213Y-101069890D01*
X108219890Y-101220213D01*
X108094950Y-101392180D01*
X108092170Y-101397638D01*
X108044195Y-101448433D01*
X107976373Y-101465227D01*
X107962289Y-101463814D01*
X107939118Y-101460144D01*
X107225000Y-102174262D01*
X107225000Y-102162465D01*
X107192630Y-102041657D01*
X107130095Y-101933343D01*
X107041657Y-101844905D01*
X106933343Y-101782370D01*
X106812535Y-101750000D01*
X106800736Y-101750000D01*
X107543161Y-101007574D01*
X107543160Y-101007572D01*
X107457557Y-100945379D01*
X107268217Y-100848904D01*
X107066129Y-100783242D01*
X106883680Y-100754345D01*
X106820545Y-100724416D01*
X106783614Y-100665104D01*
X106784612Y-100595242D01*
X106815394Y-100544194D01*
X108412821Y-98946768D01*
X108474142Y-98913285D01*
X108543834Y-98918269D01*
G37*
%TD.AperFunction*%
%TA.AperFunction,Conductor*%
G36*
X170260941Y-81289685D02*
G01*
X170306696Y-81342489D01*
X170316640Y-81411647D01*
X170287615Y-81475203D01*
X170245969Y-81506538D01*
X170232771Y-81512644D01*
X170206745Y-81524685D01*
X169944415Y-81682524D01*
X169900081Y-81709200D01*
X169811768Y-81776333D01*
X169615172Y-81925781D01*
X169615163Y-81925789D01*
X169355331Y-82171914D01*
X169123641Y-82444680D01*
X169123634Y-82444690D01*
X168922790Y-82740913D01*
X168922784Y-82740922D01*
X168755151Y-83057111D01*
X168755142Y-83057129D01*
X168622674Y-83389600D01*
X168622672Y-83389607D01*
X168526932Y-83734434D01*
X168526926Y-83734460D01*
X168469029Y-84087614D01*
X168469028Y-84087627D01*
X168469028Y-84087629D01*
X168465465Y-84153343D01*
X168449652Y-84444997D01*
X168449652Y-84445002D01*
X168455318Y-84549500D01*
X168465917Y-84745000D01*
X168469028Y-84802368D01*
X168469029Y-84802385D01*
X168526926Y-85155539D01*
X168526932Y-85155565D01*
X168622672Y-85500392D01*
X168622674Y-85500399D01*
X168755142Y-85832870D01*
X168755151Y-85832888D01*
X168922784Y-86149077D01*
X168922787Y-86149082D01*
X168922789Y-86149085D01*
X169059015Y-86350004D01*
X169123634Y-86445309D01*
X169123641Y-86445319D01*
X169271253Y-86619101D01*
X169355332Y-86718086D01*
X169615163Y-86964211D01*
X169900081Y-87180800D01*
X170206747Y-87365315D01*
X170206749Y-87365316D01*
X170206751Y-87365317D01*
X170206755Y-87365319D01*
X170531552Y-87515585D01*
X170531565Y-87515591D01*
X170870726Y-87629868D01*
X171220254Y-87706805D01*
X171576052Y-87745500D01*
X171576058Y-87745500D01*
X171933942Y-87745500D01*
X171933948Y-87745500D01*
X172289746Y-87706805D01*
X172639274Y-87629868D01*
X172978435Y-87515591D01*
X173303253Y-87365315D01*
X173609919Y-87180800D01*
X173894837Y-86964211D01*
X174154668Y-86718086D01*
X174386365Y-86445311D01*
X174587211Y-86149085D01*
X174665651Y-86001132D01*
X174696445Y-85943049D01*
X174745238Y-85893040D01*
X174813323Y-85877348D01*
X174879083Y-85900958D01*
X174921640Y-85956372D01*
X174930000Y-86001132D01*
X174930000Y-143848867D01*
X174910315Y-143915906D01*
X174857511Y-143961661D01*
X174788353Y-143971605D01*
X174724797Y-143942580D01*
X174696445Y-143906950D01*
X174587215Y-143700922D01*
X174587213Y-143700919D01*
X174587211Y-143700915D01*
X174386365Y-143404689D01*
X174386361Y-143404684D01*
X174386358Y-143404680D01*
X174154668Y-143131914D01*
X174126475Y-143105208D01*
X173894837Y-142885789D01*
X173894830Y-142885783D01*
X173894827Y-142885781D01*
X173727317Y-142758444D01*
X173609919Y-142669200D01*
X173303253Y-142484685D01*
X173303252Y-142484684D01*
X173303248Y-142484682D01*
X173303244Y-142484680D01*
X172978447Y-142334414D01*
X172978441Y-142334411D01*
X172978435Y-142334409D01*
X172808854Y-142277270D01*
X172639273Y-142220131D01*
X172289744Y-142143194D01*
X171933949Y-142104500D01*
X171933948Y-142104500D01*
X171576052Y-142104500D01*
X171576050Y-142104500D01*
X171220255Y-142143194D01*
X170870726Y-142220131D01*
X170614970Y-142306306D01*
X170531565Y-142334409D01*
X170531563Y-142334410D01*
X170531552Y-142334414D01*
X170206755Y-142484680D01*
X170206751Y-142484682D01*
X170095422Y-142551667D01*
X169900081Y-142669200D01*
X169825830Y-142725644D01*
X169615172Y-142885781D01*
X169615163Y-142885789D01*
X169355331Y-143131914D01*
X169123641Y-143404680D01*
X169123634Y-143404690D01*
X168922790Y-143700913D01*
X168922784Y-143700922D01*
X168755151Y-144017111D01*
X168755142Y-144017129D01*
X168622674Y-144349600D01*
X168622672Y-144349607D01*
X168526932Y-144694434D01*
X168526926Y-144694460D01*
X168469029Y-145047614D01*
X168469028Y-145047627D01*
X168469028Y-145047629D01*
X168464031Y-145139790D01*
X168449652Y-145404997D01*
X168449652Y-145405002D01*
X168469028Y-145762368D01*
X168469029Y-145762385D01*
X168526926Y-146115539D01*
X168526932Y-146115565D01*
X168622672Y-146460392D01*
X168622674Y-146460399D01*
X168755142Y-146792870D01*
X168755151Y-146792888D01*
X168922784Y-147109077D01*
X168922790Y-147109086D01*
X169123634Y-147405309D01*
X169123641Y-147405319D01*
X169355331Y-147678085D01*
X169355332Y-147678086D01*
X169615163Y-147924211D01*
X169900081Y-148140800D01*
X170206747Y-148325315D01*
X170245969Y-148343460D01*
X170298546Y-148389475D01*
X170317900Y-148456610D01*
X170297886Y-148523552D01*
X170244858Y-148569046D01*
X170193902Y-148580000D01*
X106006098Y-148580000D01*
X105939059Y-148560315D01*
X105893304Y-148507511D01*
X105883360Y-148438353D01*
X105912385Y-148374797D01*
X105954030Y-148343461D01*
X105993253Y-148325315D01*
X106299919Y-148140800D01*
X106584837Y-147924211D01*
X106844668Y-147678086D01*
X107076365Y-147405311D01*
X107277211Y-147109085D01*
X107444853Y-146792880D01*
X107577324Y-146460403D01*
X107673071Y-146115552D01*
X107730972Y-145762371D01*
X107750348Y-145405000D01*
X107730972Y-145047629D01*
X107729868Y-145040897D01*
X107673073Y-144694460D01*
X107673072Y-144694459D01*
X107673071Y-144694448D01*
X107623274Y-144515095D01*
X107577327Y-144349607D01*
X107577325Y-144349600D01*
X107444857Y-144017129D01*
X107444848Y-144017111D01*
X107410146Y-143951657D01*
X107305835Y-143754905D01*
X107277215Y-143700922D01*
X107277213Y-143700919D01*
X107277211Y-143700915D01*
X107076365Y-143404689D01*
X107076361Y-143404684D01*
X107076358Y-143404680D01*
X107017182Y-143335013D01*
X111390000Y-143335013D01*
X111390000Y-143835000D01*
X112335856Y-143835000D01*
X112274075Y-143942007D01*
X112240000Y-144069174D01*
X112240000Y-144200826D01*
X112274075Y-144327993D01*
X112335856Y-144435000D01*
X111390001Y-144435000D01*
X111390001Y-144934986D01*
X111400494Y-145037697D01*
X111455641Y-145204119D01*
X111455643Y-145204124D01*
X111547684Y-145353345D01*
X111671654Y-145477315D01*
X111820875Y-145569356D01*
X111820880Y-145569358D01*
X111987302Y-145624505D01*
X111987309Y-145624506D01*
X112090019Y-145634999D01*
X112439999Y-145634999D01*
X112440000Y-145634998D01*
X112440000Y-144539144D01*
X112547007Y-144600925D01*
X112674174Y-144635000D01*
X112805826Y-144635000D01*
X112932993Y-144600925D01*
X113040000Y-144539144D01*
X113040000Y-145634999D01*
X113389972Y-145634999D01*
X113389986Y-145634998D01*
X113492697Y-145624505D01*
X113659119Y-145569358D01*
X113659124Y-145569356D01*
X113808345Y-145477315D01*
X113932317Y-145353343D01*
X114027815Y-145198516D01*
X114079763Y-145151791D01*
X114148725Y-145140568D01*
X114212808Y-145168412D01*
X114221035Y-145175931D01*
X114360213Y-145315109D01*
X114532179Y-145440048D01*
X114532181Y-145440049D01*
X114532184Y-145440051D01*
X114721588Y-145536557D01*
X114923757Y-145602246D01*
X115133713Y-145635500D01*
X115133714Y-145635500D01*
X115346286Y-145635500D01*
X115346287Y-145635500D01*
X115556243Y-145602246D01*
X115758412Y-145536557D01*
X115947816Y-145440051D01*
X115996064Y-145404997D01*
X116119786Y-145315109D01*
X116119788Y-145315106D01*
X116119792Y-145315104D01*
X116270104Y-145164792D01*
X116270106Y-145164788D01*
X116270109Y-145164786D01*
X116395048Y-144992820D01*
X116395047Y-144992820D01*
X116395051Y-144992816D01*
X116491557Y-144803412D01*
X116557246Y-144601243D01*
X116590500Y-144391287D01*
X116590500Y-143878713D01*
X116557246Y-143668757D01*
X116491557Y-143466588D01*
X116395051Y-143277184D01*
X116395049Y-143277181D01*
X116395048Y-143277179D01*
X116270109Y-143105213D01*
X116119786Y-142954890D01*
X115947820Y-142829951D01*
X115758414Y-142733444D01*
X115758413Y-142733443D01*
X115758412Y-142733443D01*
X115556243Y-142667754D01*
X115556241Y-142667753D01*
X115556240Y-142667753D01*
X115394957Y-142642208D01*
X115346287Y-142634500D01*
X115133713Y-142634500D01*
X115085042Y-142642208D01*
X114923760Y-142667753D01*
X114721585Y-142733444D01*
X114532179Y-142829951D01*
X114360215Y-142954889D01*
X114221035Y-143094069D01*
X114159712Y-143127553D01*
X114090020Y-143122569D01*
X114034087Y-143080697D01*
X114027815Y-143071484D01*
X113932315Y-142916654D01*
X113808345Y-142792684D01*
X113659124Y-142700643D01*
X113659119Y-142700641D01*
X113492697Y-142645494D01*
X113492690Y-142645493D01*
X113389986Y-142635000D01*
X113040000Y-142635000D01*
X113040000Y-143730855D01*
X112932993Y-143669075D01*
X112805826Y-143635000D01*
X112674174Y-143635000D01*
X112547007Y-143669075D01*
X112440000Y-143730855D01*
X112440000Y-142635000D01*
X112090028Y-142635000D01*
X112090012Y-142635001D01*
X111987302Y-142645494D01*
X111820880Y-142700641D01*
X111820875Y-142700643D01*
X111671654Y-142792684D01*
X111547684Y-142916654D01*
X111455643Y-143065875D01*
X111455641Y-143065880D01*
X111400494Y-143232302D01*
X111400493Y-143232309D01*
X111390000Y-143335013D01*
X107017182Y-143335013D01*
X106844668Y-143131914D01*
X106816475Y-143105208D01*
X106584837Y-142885789D01*
X106584830Y-142885783D01*
X106584827Y-142885781D01*
X106417317Y-142758444D01*
X106299919Y-142669200D01*
X105993253Y-142484685D01*
X105993252Y-142484684D01*
X105993248Y-142484682D01*
X105993244Y-142484680D01*
X105668447Y-142334414D01*
X105668441Y-142334411D01*
X105668435Y-142334409D01*
X105498854Y-142277270D01*
X105329273Y-142220131D01*
X104979744Y-142143194D01*
X104623949Y-142104500D01*
X104623948Y-142104500D01*
X104266052Y-142104500D01*
X104266050Y-142104500D01*
X103910255Y-142143194D01*
X103560726Y-142220131D01*
X103304970Y-142306306D01*
X103221565Y-142334409D01*
X103221563Y-142334410D01*
X103221552Y-142334414D01*
X102896755Y-142484680D01*
X102896751Y-142484682D01*
X102785422Y-142551667D01*
X102590081Y-142669200D01*
X102515830Y-142725644D01*
X102305172Y-142885781D01*
X102305163Y-142885789D01*
X102045331Y-143131914D01*
X101813641Y-143404680D01*
X101813634Y-143404690D01*
X101612790Y-143700913D01*
X101612784Y-143700922D01*
X101503555Y-143906950D01*
X101454762Y-143956960D01*
X101386677Y-143972651D01*
X101320917Y-143949041D01*
X101278360Y-143893627D01*
X101270000Y-143848867D01*
X101270000Y-135032135D01*
X104319500Y-135032135D01*
X104319500Y-136727870D01*
X104319501Y-136727876D01*
X104325908Y-136787483D01*
X104376202Y-136922328D01*
X104376206Y-136922335D01*
X104462452Y-137037544D01*
X104462455Y-137037547D01*
X104577664Y-137123793D01*
X104577671Y-137123797D01*
X104712517Y-137174091D01*
X104712516Y-137174091D01*
X104719444Y-137174835D01*
X104772127Y-137180500D01*
X106467872Y-137180499D01*
X106527483Y-137174091D01*
X106662331Y-137123796D01*
X106777546Y-137037546D01*
X106784350Y-137028455D01*
X106840280Y-136986584D01*
X106909971Y-136981597D01*
X106954740Y-137001188D01*
X106967512Y-137010130D01*
X106967518Y-137010134D01*
X107173673Y-137106265D01*
X107173682Y-137106269D01*
X107393389Y-137165139D01*
X107393400Y-137165141D01*
X107619998Y-137184966D01*
X107620002Y-137184966D01*
X107846599Y-137165141D01*
X107846610Y-137165139D01*
X108066317Y-137106269D01*
X108066331Y-137106264D01*
X108272478Y-137010136D01*
X108272480Y-137010135D01*
X108303882Y-136988146D01*
X107595736Y-136280000D01*
X107672661Y-136280000D01*
X107774394Y-136252741D01*
X107865606Y-136200080D01*
X107940080Y-136125606D01*
X107992741Y-136034394D01*
X108020000Y-135932661D01*
X108020000Y-135879999D01*
X108044264Y-135879999D01*
X108044264Y-135880000D01*
X108728146Y-136563882D01*
X108750135Y-136532480D01*
X108750136Y-136532478D01*
X108846264Y-136326331D01*
X108846269Y-136326317D01*
X108905139Y-136106610D01*
X108905141Y-136106599D01*
X108924966Y-135880002D01*
X108924966Y-135879997D01*
X108905141Y-135653400D01*
X108905139Y-135653389D01*
X108846269Y-135433682D01*
X108846265Y-135433673D01*
X108750134Y-135227518D01*
X108750133Y-135227516D01*
X108728146Y-135196116D01*
X108728146Y-135196115D01*
X108044264Y-135879999D01*
X108020000Y-135879999D01*
X108020000Y-135827339D01*
X107992741Y-135725606D01*
X107940080Y-135634394D01*
X107865606Y-135559920D01*
X107774394Y-135507259D01*
X107672661Y-135480000D01*
X107595736Y-135480000D01*
X107620000Y-135455736D01*
X108303883Y-134771852D01*
X108303883Y-134771851D01*
X108272485Y-134749867D01*
X108066326Y-134653734D01*
X108066317Y-134653730D01*
X107846610Y-134594860D01*
X107846599Y-134594858D01*
X107620002Y-134575034D01*
X107619998Y-134575034D01*
X107393400Y-134594858D01*
X107393389Y-134594860D01*
X107173682Y-134653730D01*
X107173673Y-134653734D01*
X106967512Y-134749868D01*
X106967507Y-134749871D01*
X106954736Y-134758813D01*
X106888529Y-134781138D01*
X106820763Y-134764124D01*
X106784352Y-134731546D01*
X106777546Y-134722454D01*
X106777544Y-134722453D01*
X106777544Y-134722452D01*
X106662335Y-134636206D01*
X106662328Y-134636202D01*
X106527482Y-134585908D01*
X106527483Y-134585908D01*
X106467883Y-134579501D01*
X106467881Y-134579500D01*
X106467873Y-134579500D01*
X106467864Y-134579500D01*
X104772129Y-134579500D01*
X104772123Y-134579501D01*
X104712516Y-134585908D01*
X104577671Y-134636202D01*
X104577664Y-134636206D01*
X104462455Y-134722452D01*
X104462452Y-134722455D01*
X104376208Y-134837662D01*
X104376202Y-134837671D01*
X104325908Y-134972517D01*
X104319501Y-135032116D01*
X104319500Y-135032135D01*
X101270000Y-135032135D01*
X101270000Y-133813146D01*
X114556115Y-133813146D01*
X114587516Y-133835133D01*
X114587518Y-133835134D01*
X114793673Y-133931265D01*
X114793682Y-133931269D01*
X115013389Y-133990139D01*
X115013400Y-133990141D01*
X115239998Y-134009966D01*
X115240002Y-134009966D01*
X115466599Y-133990141D01*
X115466610Y-133990139D01*
X115686317Y-133931269D01*
X115686331Y-133931264D01*
X115892478Y-133835136D01*
X115892480Y-133835135D01*
X115923883Y-133813146D01*
X115240001Y-133129264D01*
X115240000Y-133129264D01*
X114556115Y-133813146D01*
X101270000Y-133813146D01*
X101270000Y-132704997D01*
X113935034Y-132704997D01*
X113935034Y-132705002D01*
X113954858Y-132931599D01*
X113954860Y-132931610D01*
X114013730Y-133151317D01*
X114013734Y-133151326D01*
X114109867Y-133357485D01*
X114131851Y-133388883D01*
X114131852Y-133388883D01*
X114815736Y-132705000D01*
X114763075Y-132652339D01*
X114840000Y-132652339D01*
X114840000Y-132757661D01*
X114867259Y-132859394D01*
X114919920Y-132950606D01*
X114994394Y-133025080D01*
X115085606Y-133077741D01*
X115187339Y-133105000D01*
X115292661Y-133105000D01*
X115394394Y-133077741D01*
X115485606Y-133025080D01*
X115560080Y-132950606D01*
X115612741Y-132859394D01*
X115640000Y-132757661D01*
X115640000Y-132704999D01*
X115664264Y-132704999D01*
X115664264Y-132705000D01*
X116348146Y-133388882D01*
X116370135Y-133357480D01*
X116370136Y-133357478D01*
X116466264Y-133151331D01*
X116466269Y-133151317D01*
X116525139Y-132931610D01*
X116525141Y-132931599D01*
X116544966Y-132705002D01*
X116544966Y-132704997D01*
X116525141Y-132478400D01*
X116525139Y-132478389D01*
X116466269Y-132258682D01*
X116466265Y-132258673D01*
X116370134Y-132052518D01*
X116370133Y-132052516D01*
X116348146Y-132021116D01*
X116348146Y-132021115D01*
X115664264Y-132704999D01*
X115640000Y-132704999D01*
X115640000Y-132652339D01*
X115612741Y-132550606D01*
X115560080Y-132459394D01*
X115485606Y-132384920D01*
X115394394Y-132332259D01*
X115292661Y-132305000D01*
X115187339Y-132305000D01*
X115085606Y-132332259D01*
X114994394Y-132384920D01*
X114919920Y-132459394D01*
X114867259Y-132550606D01*
X114840000Y-132652339D01*
X114763075Y-132652339D01*
X114131851Y-132021115D01*
X114109867Y-132052514D01*
X114013734Y-132258673D01*
X114013730Y-132258682D01*
X113954860Y-132478389D01*
X113954858Y-132478400D01*
X113935034Y-132704997D01*
X101270000Y-132704997D01*
X101270000Y-126999995D01*
X104944451Y-126999995D01*
X104944451Y-127000004D01*
X104964616Y-127269101D01*
X105024664Y-127532188D01*
X105024666Y-127532195D01*
X105123256Y-127783396D01*
X105123258Y-127783400D01*
X105135509Y-127804620D01*
X105258185Y-128017102D01*
X105388804Y-128180892D01*
X105426442Y-128228089D01*
X105613183Y-128401358D01*
X105624259Y-128411635D01*
X105847226Y-128563651D01*
X106090359Y-128680738D01*
X106348228Y-128760280D01*
X106348229Y-128760280D01*
X106348232Y-128760281D01*
X106615063Y-128800499D01*
X106615068Y-128800499D01*
X106615071Y-128800500D01*
X106615072Y-128800500D01*
X106884928Y-128800500D01*
X106884929Y-128800500D01*
X106884936Y-128800499D01*
X107151767Y-128760281D01*
X107151768Y-128760280D01*
X107151772Y-128760280D01*
X107409641Y-128680738D01*
X107652775Y-128563651D01*
X107875741Y-128411635D01*
X108073561Y-128228085D01*
X108241815Y-128017102D01*
X108376743Y-127783398D01*
X108438911Y-127624998D01*
X113934532Y-127624998D01*
X113934532Y-127625001D01*
X113954364Y-127851686D01*
X113954366Y-127851697D01*
X114013258Y-128071488D01*
X114013261Y-128071497D01*
X114109431Y-128277732D01*
X114109432Y-128277734D01*
X114239954Y-128464141D01*
X114400858Y-128625045D01*
X114400861Y-128625047D01*
X114587266Y-128755568D01*
X114644681Y-128782341D01*
X114645275Y-128782618D01*
X114697714Y-128828791D01*
X114716866Y-128895984D01*
X114696650Y-128962865D01*
X114645275Y-129007382D01*
X114587267Y-129034431D01*
X114587265Y-129034432D01*
X114400858Y-129164954D01*
X114239954Y-129325858D01*
X114109432Y-129512265D01*
X114109431Y-129512267D01*
X114013261Y-129718502D01*
X114013258Y-129718511D01*
X113954366Y-129938302D01*
X113954364Y-129938313D01*
X113934532Y-130164998D01*
X113934532Y-130165001D01*
X113954364Y-130391686D01*
X113954366Y-130391697D01*
X114013258Y-130611488D01*
X114013261Y-130611497D01*
X114109431Y-130817732D01*
X114109432Y-130817734D01*
X114239954Y-131004141D01*
X114400858Y-131165045D01*
X114400861Y-131165047D01*
X114587266Y-131295568D01*
X114645865Y-131322893D01*
X114698305Y-131369065D01*
X114717457Y-131436258D01*
X114697242Y-131503139D01*
X114645867Y-131547657D01*
X114587513Y-131574868D01*
X114556115Y-131596851D01*
X115240000Y-132280736D01*
X115240001Y-132280736D01*
X115923883Y-131596852D01*
X115923883Y-131596851D01*
X115892485Y-131574867D01*
X115834133Y-131547657D01*
X115781694Y-131501484D01*
X115762542Y-131434291D01*
X115782758Y-131367410D01*
X115834129Y-131322895D01*
X115892734Y-131295568D01*
X116079139Y-131165047D01*
X116240047Y-131004139D01*
X116370568Y-130817734D01*
X116466739Y-130611496D01*
X116525635Y-130391692D01*
X116545468Y-130165000D01*
X116525635Y-129938308D01*
X116466739Y-129718504D01*
X116370568Y-129512266D01*
X116262225Y-129357535D01*
X116240045Y-129325858D01*
X116079141Y-129164954D01*
X115892734Y-129034432D01*
X115892728Y-129034429D01*
X115834725Y-129007382D01*
X115782285Y-128961210D01*
X115763133Y-128894017D01*
X115783348Y-128827135D01*
X115834725Y-128782618D01*
X115835319Y-128782341D01*
X115892734Y-128755568D01*
X116079139Y-128625047D01*
X116240047Y-128464139D01*
X116370568Y-128277734D01*
X116466739Y-128071496D01*
X116525635Y-127851692D01*
X116545468Y-127625000D01*
X116545468Y-127624997D01*
X121555034Y-127624997D01*
X121555034Y-127625002D01*
X121574858Y-127851599D01*
X121574860Y-127851610D01*
X121633730Y-128071317D01*
X121633734Y-128071326D01*
X121729867Y-128277485D01*
X121751851Y-128308883D01*
X121751852Y-128308883D01*
X122435736Y-127625000D01*
X122383075Y-127572339D01*
X122460000Y-127572339D01*
X122460000Y-127677661D01*
X122487259Y-127779394D01*
X122539920Y-127870606D01*
X122614394Y-127945080D01*
X122705606Y-127997741D01*
X122807339Y-128025000D01*
X122912661Y-128025000D01*
X123014394Y-127997741D01*
X123105606Y-127945080D01*
X123180080Y-127870606D01*
X123232741Y-127779394D01*
X123260000Y-127677661D01*
X123260000Y-127624999D01*
X123284264Y-127624999D01*
X123284264Y-127625000D01*
X123968146Y-128308882D01*
X123990135Y-128277480D01*
X123990136Y-128277478D01*
X124086264Y-128071331D01*
X124086269Y-128071317D01*
X124145139Y-127851610D01*
X124145141Y-127851599D01*
X124164966Y-127625002D01*
X124164966Y-127624997D01*
X124145141Y-127398400D01*
X124145139Y-127398389D01*
X124086269Y-127178682D01*
X124086265Y-127178673D01*
X123990134Y-126972518D01*
X123990133Y-126972516D01*
X123968146Y-126941116D01*
X123968146Y-126941115D01*
X123284264Y-127624999D01*
X123260000Y-127624999D01*
X123260000Y-127572339D01*
X123232741Y-127470606D01*
X123180080Y-127379394D01*
X123105606Y-127304920D01*
X123014394Y-127252259D01*
X122912661Y-127225000D01*
X122807339Y-127225000D01*
X122705606Y-127252259D01*
X122614394Y-127304920D01*
X122539920Y-127379394D01*
X122487259Y-127470606D01*
X122460000Y-127572339D01*
X122383075Y-127572339D01*
X121751851Y-126941115D01*
X121729867Y-126972514D01*
X121633734Y-127178673D01*
X121633730Y-127178682D01*
X121574860Y-127398389D01*
X121574858Y-127398400D01*
X121555034Y-127624997D01*
X116545468Y-127624997D01*
X116525635Y-127398308D01*
X116466739Y-127178504D01*
X116370568Y-126972266D01*
X116262225Y-126817535D01*
X116240045Y-126785858D01*
X116079141Y-126624954D01*
X115924752Y-126516851D01*
X115892734Y-126494432D01*
X115834132Y-126467105D01*
X115781694Y-126420933D01*
X115762543Y-126353739D01*
X115782759Y-126286858D01*
X115834135Y-126242341D01*
X115892483Y-126215133D01*
X115923883Y-126193146D01*
X115240001Y-125509264D01*
X115240000Y-125509264D01*
X114556115Y-126193146D01*
X114587516Y-126215133D01*
X114587522Y-126215136D01*
X114645865Y-126242342D01*
X114698305Y-126288514D01*
X114717457Y-126355707D01*
X114697242Y-126422589D01*
X114645867Y-126467105D01*
X114636255Y-126471588D01*
X114587264Y-126494433D01*
X114400858Y-126624954D01*
X114239954Y-126785858D01*
X114109432Y-126972265D01*
X114109431Y-126972267D01*
X114013261Y-127178502D01*
X114013258Y-127178511D01*
X113954366Y-127398302D01*
X113954364Y-127398313D01*
X113934532Y-127624998D01*
X108438911Y-127624998D01*
X108475334Y-127532195D01*
X108535383Y-127269103D01*
X108547877Y-127102382D01*
X108555549Y-127000004D01*
X108555549Y-126999995D01*
X108535383Y-126730898D01*
X108535383Y-126730897D01*
X108475334Y-126467805D01*
X108376743Y-126216602D01*
X108241815Y-125982898D01*
X108073561Y-125771915D01*
X108073560Y-125771914D01*
X108073557Y-125771910D01*
X107875741Y-125588365D01*
X107832166Y-125558656D01*
X107652775Y-125436349D01*
X107652769Y-125436346D01*
X107652768Y-125436345D01*
X107652767Y-125436344D01*
X107409643Y-125319263D01*
X107409645Y-125319263D01*
X107151773Y-125239720D01*
X107151767Y-125239718D01*
X106884936Y-125199500D01*
X106884929Y-125199500D01*
X106615071Y-125199500D01*
X106615063Y-125199500D01*
X106348232Y-125239718D01*
X106348226Y-125239720D01*
X106090358Y-125319262D01*
X105847230Y-125436346D01*
X105624258Y-125588365D01*
X105426442Y-125771910D01*
X105258185Y-125982898D01*
X105123258Y-126216599D01*
X105123256Y-126216603D01*
X105024666Y-126467804D01*
X105024664Y-126467811D01*
X104964616Y-126730898D01*
X104944451Y-126999995D01*
X101270000Y-126999995D01*
X101270000Y-125084997D01*
X113935034Y-125084997D01*
X113935034Y-125085002D01*
X113954858Y-125311599D01*
X113954860Y-125311610D01*
X114013730Y-125531317D01*
X114013734Y-125531326D01*
X114109867Y-125737485D01*
X114131851Y-125768883D01*
X114131852Y-125768883D01*
X114815736Y-125085000D01*
X114763075Y-125032339D01*
X114840000Y-125032339D01*
X114840000Y-125137661D01*
X114867259Y-125239394D01*
X114919920Y-125330606D01*
X114994394Y-125405080D01*
X115085606Y-125457741D01*
X115187339Y-125485000D01*
X115292661Y-125485000D01*
X115394394Y-125457741D01*
X115485606Y-125405080D01*
X115560080Y-125330606D01*
X115612741Y-125239394D01*
X115640000Y-125137661D01*
X115640000Y-125084999D01*
X115664264Y-125084999D01*
X115664264Y-125085000D01*
X116348146Y-125768882D01*
X116370135Y-125737480D01*
X116370136Y-125737478D01*
X116466264Y-125531331D01*
X116466269Y-125531317D01*
X116525139Y-125311610D01*
X116525141Y-125311599D01*
X116544966Y-125085002D01*
X116544966Y-125084997D01*
X116525141Y-124858400D01*
X116525139Y-124858389D01*
X116466269Y-124638682D01*
X116466265Y-124638673D01*
X116370134Y-124432518D01*
X116370133Y-124432516D01*
X116348146Y-124401116D01*
X116348146Y-124401115D01*
X115664264Y-125084999D01*
X115640000Y-125084999D01*
X115640000Y-125032339D01*
X115612741Y-124930606D01*
X115560080Y-124839394D01*
X115485606Y-124764920D01*
X115394394Y-124712259D01*
X115292661Y-124685000D01*
X115187339Y-124685000D01*
X115085606Y-124712259D01*
X114994394Y-124764920D01*
X114919920Y-124839394D01*
X114867259Y-124930606D01*
X114840000Y-125032339D01*
X114763075Y-125032339D01*
X114131851Y-124401115D01*
X114109867Y-124432514D01*
X114013734Y-124638673D01*
X114013730Y-124638682D01*
X113954860Y-124858389D01*
X113954858Y-124858400D01*
X113935034Y-125084997D01*
X101270000Y-125084997D01*
X101270000Y-120652155D01*
X104950000Y-120652155D01*
X104950000Y-121700000D01*
X106170710Y-121700000D01*
X106124979Y-121810402D01*
X106100000Y-121935981D01*
X106100000Y-122064019D01*
X106124979Y-122189598D01*
X106170710Y-122300000D01*
X104950000Y-122300000D01*
X104950000Y-123347844D01*
X104956401Y-123407372D01*
X104956403Y-123407379D01*
X105006645Y-123542086D01*
X105006649Y-123542093D01*
X105092809Y-123657187D01*
X105092812Y-123657190D01*
X105207906Y-123743350D01*
X105207913Y-123743354D01*
X105342620Y-123793596D01*
X105342627Y-123793598D01*
X105402155Y-123799999D01*
X105402172Y-123800000D01*
X106450000Y-123800000D01*
X106450000Y-122579290D01*
X106560402Y-122625021D01*
X106685981Y-122650000D01*
X106814019Y-122650000D01*
X106939598Y-122625021D01*
X107050000Y-122579290D01*
X107050000Y-123800000D01*
X108097828Y-123800000D01*
X108097844Y-123799999D01*
X108157372Y-123793598D01*
X108157379Y-123793596D01*
X108292086Y-123743354D01*
X108292093Y-123743350D01*
X108407187Y-123657190D01*
X108407190Y-123657187D01*
X108493350Y-123542093D01*
X108493354Y-123542086D01*
X108543596Y-123407379D01*
X108543598Y-123407372D01*
X108549999Y-123347844D01*
X108550000Y-123347827D01*
X108550000Y-122300000D01*
X107329290Y-122300000D01*
X107375021Y-122189598D01*
X107400000Y-122064019D01*
X107400000Y-121935981D01*
X107375021Y-121810402D01*
X107329290Y-121700000D01*
X108550000Y-121700000D01*
X108550000Y-120652172D01*
X108549999Y-120652155D01*
X108543598Y-120592627D01*
X108543596Y-120592620D01*
X108493354Y-120457913D01*
X108493350Y-120457906D01*
X108407190Y-120342812D01*
X108407187Y-120342809D01*
X108292093Y-120256649D01*
X108292086Y-120256645D01*
X108157379Y-120206403D01*
X108157372Y-120206401D01*
X108097844Y-120200000D01*
X107050000Y-120200000D01*
X107050000Y-121420709D01*
X106939598Y-121374979D01*
X106814019Y-121350000D01*
X106685981Y-121350000D01*
X106560402Y-121374979D01*
X106450000Y-121420709D01*
X106450000Y-120200000D01*
X105402155Y-120200000D01*
X105342627Y-120206401D01*
X105342620Y-120206403D01*
X105207913Y-120256645D01*
X105207906Y-120256649D01*
X105092812Y-120342809D01*
X105092809Y-120342812D01*
X105006649Y-120457906D01*
X105006645Y-120457913D01*
X104956403Y-120592620D01*
X104956401Y-120592627D01*
X104950000Y-120652155D01*
X101270000Y-120652155D01*
X101270000Y-111725013D01*
X102900000Y-111725013D01*
X102900000Y-112200000D01*
X103878248Y-112200000D01*
X103869905Y-112208343D01*
X103807370Y-112316657D01*
X103775000Y-112437465D01*
X103775000Y-112562535D01*
X103807370Y-112683343D01*
X103869905Y-112791657D01*
X103878248Y-112800000D01*
X102900001Y-112800000D01*
X102900001Y-113274986D01*
X102910494Y-113377697D01*
X102965641Y-113544119D01*
X102965643Y-113544124D01*
X103057684Y-113693345D01*
X103181654Y-113817315D01*
X103330875Y-113909356D01*
X103330880Y-113909358D01*
X103497302Y-113964505D01*
X103497309Y-113964506D01*
X103600019Y-113974999D01*
X103949999Y-113974999D01*
X103950000Y-113974998D01*
X103950000Y-112871752D01*
X103958343Y-112880095D01*
X104066657Y-112942630D01*
X104187465Y-112975000D01*
X104312535Y-112975000D01*
X104433343Y-112942630D01*
X104541657Y-112880095D01*
X104550000Y-112871752D01*
X104550000Y-113974999D01*
X104899972Y-113974999D01*
X104899986Y-113974998D01*
X105002697Y-113964505D01*
X105169119Y-113909358D01*
X105169124Y-113909356D01*
X105318345Y-113817315D01*
X105442317Y-113693343D01*
X105537815Y-113538516D01*
X105589763Y-113491791D01*
X105658725Y-113480568D01*
X105722808Y-113508412D01*
X105731035Y-113515931D01*
X105870213Y-113655109D01*
X106042179Y-113780048D01*
X106042181Y-113780049D01*
X106042184Y-113780051D01*
X106231588Y-113876557D01*
X106433757Y-113942246D01*
X106643713Y-113975500D01*
X106643714Y-113975500D01*
X106856286Y-113975500D01*
X106856287Y-113975500D01*
X107066243Y-113942246D01*
X107268412Y-113876557D01*
X107457816Y-113780051D01*
X107545140Y-113716607D01*
X107629786Y-113655109D01*
X107629788Y-113655106D01*
X107629792Y-113655104D01*
X107780104Y-113504792D01*
X107899683Y-113340204D01*
X107955011Y-113297540D01*
X108024624Y-113291561D01*
X108086420Y-113324166D01*
X108100313Y-113340199D01*
X108182594Y-113453450D01*
X108219896Y-113504792D01*
X108370213Y-113655109D01*
X108542179Y-113780048D01*
X108542181Y-113780049D01*
X108542184Y-113780051D01*
X108731588Y-113876557D01*
X108933757Y-113942246D01*
X109143713Y-113975500D01*
X109143714Y-113975500D01*
X109356286Y-113975500D01*
X109356287Y-113975500D01*
X109566243Y-113942246D01*
X109768412Y-113876557D01*
X109957816Y-113780051D01*
X110045140Y-113716607D01*
X110129786Y-113655109D01*
X110129788Y-113655106D01*
X110129792Y-113655104D01*
X110280104Y-113504792D01*
X110280106Y-113504788D01*
X110280109Y-113504786D01*
X110405048Y-113332820D01*
X110405047Y-113332820D01*
X110405051Y-113332816D01*
X110501557Y-113143412D01*
X110567246Y-112941243D01*
X110600500Y-112731287D01*
X110600500Y-112268713D01*
X110567246Y-112058757D01*
X110501557Y-111856588D01*
X110405051Y-111667184D01*
X110405049Y-111667181D01*
X110405048Y-111667179D01*
X110280109Y-111495213D01*
X110129786Y-111344890D01*
X109957820Y-111219951D01*
X109768414Y-111123444D01*
X109768413Y-111123443D01*
X109768412Y-111123443D01*
X109566243Y-111057754D01*
X109566241Y-111057753D01*
X109566240Y-111057753D01*
X109404957Y-111032208D01*
X109356287Y-111024500D01*
X109143713Y-111024500D01*
X109095042Y-111032208D01*
X108933760Y-111057753D01*
X108731585Y-111123444D01*
X108542179Y-111219951D01*
X108370213Y-111344890D01*
X108219894Y-111495209D01*
X108219890Y-111495214D01*
X108100318Y-111659793D01*
X108044989Y-111702459D01*
X107975375Y-111708438D01*
X107913580Y-111675833D01*
X107899682Y-111659793D01*
X107780109Y-111495214D01*
X107780105Y-111495209D01*
X107629786Y-111344890D01*
X107457820Y-111219951D01*
X107268414Y-111123444D01*
X107268413Y-111123443D01*
X107268412Y-111123443D01*
X107066243Y-111057754D01*
X107066241Y-111057753D01*
X107066240Y-111057753D01*
X106904957Y-111032208D01*
X106856287Y-111024500D01*
X106643713Y-111024500D01*
X106595042Y-111032208D01*
X106433760Y-111057753D01*
X106231585Y-111123444D01*
X106042179Y-111219951D01*
X105870215Y-111344889D01*
X105731035Y-111484069D01*
X105669712Y-111517553D01*
X105600020Y-111512569D01*
X105544087Y-111470697D01*
X105537815Y-111461484D01*
X105442315Y-111306654D01*
X105318345Y-111182684D01*
X105169124Y-111090643D01*
X105169119Y-111090641D01*
X105002697Y-111035494D01*
X105002690Y-111035493D01*
X104899986Y-111025000D01*
X104550000Y-111025000D01*
X104550000Y-112128248D01*
X104541657Y-112119905D01*
X104433343Y-112057370D01*
X104312535Y-112025000D01*
X104187465Y-112025000D01*
X104066657Y-112057370D01*
X103958343Y-112119905D01*
X103950000Y-112128248D01*
X103950000Y-111025000D01*
X103600028Y-111025000D01*
X103600012Y-111025001D01*
X103497302Y-111035494D01*
X103330880Y-111090641D01*
X103330875Y-111090643D01*
X103181654Y-111182684D01*
X103057684Y-111306654D01*
X102965643Y-111455875D01*
X102965641Y-111455880D01*
X102910494Y-111622302D01*
X102910493Y-111622309D01*
X102900000Y-111725013D01*
X101270000Y-111725013D01*
X101270000Y-101449983D01*
X102899500Y-101449983D01*
X102899500Y-103000001D01*
X102899501Y-103000018D01*
X102910000Y-103102796D01*
X102910001Y-103102799D01*
X102952081Y-103229786D01*
X102965186Y-103269334D01*
X103057288Y-103418656D01*
X103181344Y-103542712D01*
X103330666Y-103634814D01*
X103497203Y-103689999D01*
X103599991Y-103700500D01*
X104900008Y-103700499D01*
X105002797Y-103689999D01*
X105169334Y-103634814D01*
X105318656Y-103542712D01*
X105442712Y-103418656D01*
X105534814Y-103269334D01*
X105589999Y-103102797D01*
X105600500Y-103000009D01*
X105600499Y-102999994D01*
X105600660Y-102996860D01*
X105600820Y-102996868D01*
X105600821Y-102996867D01*
X105600844Y-102996869D01*
X105601891Y-102996922D01*
X105620141Y-102934624D01*
X105636818Y-102913916D01*
X106275000Y-102275735D01*
X106275000Y-102287535D01*
X106307370Y-102408343D01*
X106369905Y-102516657D01*
X106458343Y-102605095D01*
X106566657Y-102667630D01*
X106687465Y-102700000D01*
X106699264Y-102700000D01*
X105956837Y-103442424D01*
X106042445Y-103504622D01*
X106231782Y-103601095D01*
X106433870Y-103666757D01*
X106643754Y-103700000D01*
X106856246Y-103700000D01*
X107066127Y-103666757D01*
X107066130Y-103666757D01*
X107268217Y-103601095D01*
X107457546Y-103504626D01*
X107457552Y-103504622D01*
X107543160Y-103442424D01*
X107543161Y-103442424D01*
X106800736Y-102700000D01*
X106812535Y-102700000D01*
X106933343Y-102667630D01*
X107041657Y-102605095D01*
X107130095Y-102516657D01*
X107192630Y-102408343D01*
X107225000Y-102287535D01*
X107225000Y-102275736D01*
X107939117Y-102989853D01*
X107962286Y-102986184D01*
X108031580Y-102995138D01*
X108085032Y-103040134D01*
X108092169Y-103052360D01*
X108094950Y-103057819D01*
X108219890Y-103229786D01*
X108370213Y-103380109D01*
X108542179Y-103505048D01*
X108542181Y-103505049D01*
X108542184Y-103505051D01*
X108731588Y-103601557D01*
X108933757Y-103667246D01*
X109143713Y-103700500D01*
X109143714Y-103700500D01*
X109356286Y-103700500D01*
X109356287Y-103700500D01*
X109566243Y-103667246D01*
X109768412Y-103601557D01*
X109957816Y-103505051D01*
X109979789Y-103489086D01*
X110129786Y-103380109D01*
X110129788Y-103380106D01*
X110129792Y-103380104D01*
X110280104Y-103229792D01*
X110280106Y-103229788D01*
X110280109Y-103229786D01*
X110405048Y-103057820D01*
X110405049Y-103057819D01*
X110405051Y-103057816D01*
X110501557Y-102868412D01*
X110567246Y-102666243D01*
X110600500Y-102456287D01*
X110600500Y-101993713D01*
X110567246Y-101783757D01*
X110501557Y-101581588D01*
X110405051Y-101392184D01*
X110405049Y-101392181D01*
X110405048Y-101392179D01*
X110280109Y-101220213D01*
X110129786Y-101069890D01*
X109957819Y-100944950D01*
X109943203Y-100937503D01*
X109892408Y-100889527D01*
X109875500Y-100827019D01*
X109875500Y-99000452D01*
X109895185Y-98933413D01*
X109911819Y-98912771D01*
X114192771Y-94631819D01*
X114254094Y-94598334D01*
X114280452Y-94595500D01*
X115195113Y-94595500D01*
X115262152Y-94615185D01*
X115307907Y-94667989D01*
X115317851Y-94737147D01*
X115307496Y-94771904D01*
X115305641Y-94775881D01*
X115250494Y-94942302D01*
X115250493Y-94942309D01*
X115240000Y-95045013D01*
X115240000Y-95520000D01*
X116218248Y-95520000D01*
X116209905Y-95528343D01*
X116147370Y-95636657D01*
X116115000Y-95757465D01*
X116115000Y-95882535D01*
X116147370Y-96003343D01*
X116209905Y-96111657D01*
X116218248Y-96120000D01*
X115240001Y-96120000D01*
X115240001Y-96594986D01*
X115250494Y-96697697D01*
X115305641Y-96864119D01*
X115305643Y-96864124D01*
X115397684Y-97013345D01*
X115521654Y-97137315D01*
X115670875Y-97229356D01*
X115670880Y-97229358D01*
X115837302Y-97284505D01*
X115837309Y-97284506D01*
X115940019Y-97294999D01*
X116289999Y-97294999D01*
X116290000Y-97294998D01*
X116290000Y-96191752D01*
X116298343Y-96200095D01*
X116406657Y-96262630D01*
X116527465Y-96295000D01*
X116652535Y-96295000D01*
X116773343Y-96262630D01*
X116881657Y-96200095D01*
X116890000Y-96191752D01*
X116890000Y-97294999D01*
X117239972Y-97294999D01*
X117239986Y-97294998D01*
X117342697Y-97284505D01*
X117509119Y-97229358D01*
X117509124Y-97229356D01*
X117658345Y-97137315D01*
X117782317Y-97013343D01*
X117877815Y-96858516D01*
X117929763Y-96811791D01*
X117998725Y-96800568D01*
X118062808Y-96828412D01*
X118071035Y-96835931D01*
X118210213Y-96975109D01*
X118382179Y-97100048D01*
X118382181Y-97100049D01*
X118382184Y-97100051D01*
X118571588Y-97196557D01*
X118773757Y-97262246D01*
X118955880Y-97291091D01*
X119019013Y-97321020D01*
X119055945Y-97380331D01*
X119054947Y-97450194D01*
X119024162Y-97501245D01*
X112301269Y-104224140D01*
X112214144Y-104311264D01*
X112214138Y-104311272D01*
X112145692Y-104413705D01*
X112145684Y-104413719D01*
X112112347Y-104494207D01*
X112106823Y-104507543D01*
X112098537Y-104527545D01*
X112098535Y-104527553D01*
X112074500Y-104648389D01*
X112074500Y-120066611D01*
X112098535Y-120187444D01*
X112098540Y-120187461D01*
X112145685Y-120301281D01*
X112145687Y-120301285D01*
X112171386Y-120339744D01*
X112171387Y-120339746D01*
X112214140Y-120403731D01*
X112214141Y-120403732D01*
X112214142Y-120403733D01*
X112301267Y-120490858D01*
X112301268Y-120490858D01*
X112308335Y-120497925D01*
X112308334Y-120497925D01*
X112308338Y-120497928D01*
X113940586Y-122130177D01*
X113974071Y-122191500D01*
X113972680Y-122249949D01*
X113954367Y-122318296D01*
X113954364Y-122318313D01*
X113934532Y-122544999D01*
X113934532Y-122545001D01*
X113954364Y-122771686D01*
X113954366Y-122771697D01*
X114013258Y-122991488D01*
X114013261Y-122991497D01*
X114109431Y-123197732D01*
X114109432Y-123197734D01*
X114239954Y-123384141D01*
X114400858Y-123545045D01*
X114400861Y-123545047D01*
X114587266Y-123675568D01*
X114645865Y-123702893D01*
X114698305Y-123749065D01*
X114717457Y-123816258D01*
X114697242Y-123883139D01*
X114645867Y-123927657D01*
X114587513Y-123954868D01*
X114556115Y-123976851D01*
X115240000Y-124660736D01*
X115240001Y-124660736D01*
X115923883Y-123976852D01*
X115923883Y-123976851D01*
X115892485Y-123954867D01*
X115834133Y-123927657D01*
X115781694Y-123881484D01*
X115762542Y-123814291D01*
X115782758Y-123747410D01*
X115834129Y-123702895D01*
X115892734Y-123675568D01*
X116079139Y-123545047D01*
X116240047Y-123384139D01*
X116370568Y-123197734D01*
X116466739Y-122991496D01*
X116525635Y-122771692D01*
X116545468Y-122545000D01*
X116525635Y-122318308D01*
X116489538Y-122183591D01*
X116491201Y-122113743D01*
X116530364Y-122055880D01*
X116594592Y-122028376D01*
X116609313Y-122027499D01*
X121490687Y-122027499D01*
X121557726Y-122047184D01*
X121603481Y-122099988D01*
X121613425Y-122169146D01*
X121610462Y-122183592D01*
X121574366Y-122318302D01*
X121574364Y-122318313D01*
X121554532Y-122544998D01*
X121554532Y-122545001D01*
X121574364Y-122771686D01*
X121574366Y-122771697D01*
X121633258Y-122991488D01*
X121633261Y-122991497D01*
X121729431Y-123197732D01*
X121729432Y-123197734D01*
X121859954Y-123384141D01*
X122020858Y-123545045D01*
X122020861Y-123545047D01*
X122207266Y-123675568D01*
X122265275Y-123702618D01*
X122317714Y-123748791D01*
X122336866Y-123815984D01*
X122316650Y-123882865D01*
X122265275Y-123927382D01*
X122207267Y-123954431D01*
X122207265Y-123954432D01*
X122020858Y-124084954D01*
X121859954Y-124245858D01*
X121729432Y-124432265D01*
X121729431Y-124432267D01*
X121633261Y-124638502D01*
X121633258Y-124638511D01*
X121574366Y-124858302D01*
X121574364Y-124858313D01*
X121554532Y-125084998D01*
X121554532Y-125085001D01*
X121574364Y-125311686D01*
X121574366Y-125311697D01*
X121633258Y-125531488D01*
X121633261Y-125531497D01*
X121729431Y-125737732D01*
X121729432Y-125737734D01*
X121859954Y-125924141D01*
X122020858Y-126085045D01*
X122020861Y-126085047D01*
X122207266Y-126215568D01*
X122265865Y-126242893D01*
X122318305Y-126289065D01*
X122337457Y-126356258D01*
X122317242Y-126423139D01*
X122265867Y-126467657D01*
X122207513Y-126494868D01*
X122176115Y-126516851D01*
X122860000Y-127200736D01*
X122860001Y-127200736D01*
X123543883Y-126516852D01*
X123543883Y-126516851D01*
X123512485Y-126494867D01*
X123454133Y-126467657D01*
X123401694Y-126421484D01*
X123382542Y-126354291D01*
X123402758Y-126287410D01*
X123454129Y-126242895D01*
X123512734Y-126215568D01*
X123699139Y-126085047D01*
X123860047Y-125924139D01*
X123990568Y-125737734D01*
X124086739Y-125531496D01*
X124145635Y-125311692D01*
X124165468Y-125085000D01*
X124145635Y-124858308D01*
X124086739Y-124638504D01*
X123990568Y-124432266D01*
X123882225Y-124277535D01*
X123860045Y-124245858D01*
X123699141Y-124084954D01*
X123512734Y-123954432D01*
X123512728Y-123954429D01*
X123454725Y-123927382D01*
X123402285Y-123881210D01*
X123383133Y-123814017D01*
X123403348Y-123747135D01*
X123454725Y-123702618D01*
X123512734Y-123675568D01*
X123699139Y-123545047D01*
X123860047Y-123384139D01*
X123972613Y-123223377D01*
X124027189Y-123179752D01*
X124074188Y-123170500D01*
X129534548Y-123170500D01*
X129601587Y-123190185D01*
X129622229Y-123206819D01*
X136831613Y-130416203D01*
X136865098Y-130477526D01*
X136863707Y-130535976D01*
X136851931Y-130579926D01*
X136851931Y-130579929D01*
X136851930Y-130579932D01*
X136847116Y-130634949D01*
X136832677Y-130799997D01*
X136832677Y-130800002D01*
X136851929Y-131020062D01*
X136851930Y-131020070D01*
X136909104Y-131233445D01*
X136909105Y-131233447D01*
X136909106Y-131233450D01*
X136925262Y-131268096D01*
X136935753Y-131337174D01*
X136907233Y-131400958D01*
X136848756Y-131439197D01*
X136812879Y-131444500D01*
X135870452Y-131444500D01*
X135803413Y-131424815D01*
X135782771Y-131408181D01*
X134145198Y-129770608D01*
X134145178Y-129770586D01*
X134053733Y-129679141D01*
X134002509Y-129644915D01*
X133951287Y-129610689D01*
X133951286Y-129610688D01*
X133951283Y-129610686D01*
X133951280Y-129610685D01*
X133870792Y-129577347D01*
X133837453Y-129563537D01*
X133827427Y-129561543D01*
X133777029Y-129551518D01*
X133716610Y-129539500D01*
X133716607Y-129539500D01*
X133716606Y-129539500D01*
X124074188Y-129539500D01*
X124007149Y-129519815D01*
X123972613Y-129486623D01*
X123860045Y-129325858D01*
X123699141Y-129164954D01*
X123512735Y-129034433D01*
X123512736Y-129034433D01*
X123512734Y-129034432D01*
X123454132Y-129007105D01*
X123401694Y-128960933D01*
X123382543Y-128893739D01*
X123402759Y-128826858D01*
X123454135Y-128782341D01*
X123512483Y-128755133D01*
X123543883Y-128733146D01*
X122860001Y-128049264D01*
X122860000Y-128049264D01*
X122176115Y-128733146D01*
X122207516Y-128755133D01*
X122207522Y-128755136D01*
X122265865Y-128782342D01*
X122318305Y-128828514D01*
X122337457Y-128895707D01*
X122317242Y-128962589D01*
X122265867Y-129007105D01*
X122207268Y-129034431D01*
X122207264Y-129034433D01*
X122020858Y-129164954D01*
X121859954Y-129325858D01*
X121729432Y-129512265D01*
X121729431Y-129512267D01*
X121633261Y-129718502D01*
X121633258Y-129718511D01*
X121574366Y-129938302D01*
X121574364Y-129938313D01*
X121554532Y-130164998D01*
X121554532Y-130165001D01*
X121574364Y-130391686D01*
X121574366Y-130391697D01*
X121633258Y-130611488D01*
X121633261Y-130611497D01*
X121729431Y-130817732D01*
X121729432Y-130817734D01*
X121859954Y-131004141D01*
X122020858Y-131165045D01*
X122020861Y-131165047D01*
X122207266Y-131295568D01*
X122222889Y-131302853D01*
X122265275Y-131322618D01*
X122317714Y-131368791D01*
X122336866Y-131435984D01*
X122316650Y-131502865D01*
X122265275Y-131547382D01*
X122207267Y-131574431D01*
X122207265Y-131574432D01*
X122020858Y-131704954D01*
X121859954Y-131865858D01*
X121729432Y-132052265D01*
X121729431Y-132052267D01*
X121633261Y-132258502D01*
X121633258Y-132258511D01*
X121574366Y-132478302D01*
X121574364Y-132478313D01*
X121554532Y-132704998D01*
X121554532Y-132705002D01*
X121563441Y-132806838D01*
X121549674Y-132875338D01*
X121527594Y-132905326D01*
X116214741Y-138218181D01*
X116153418Y-138251666D01*
X116127060Y-138254500D01*
X113790049Y-138254500D01*
X113723010Y-138234815D01*
X113702368Y-138218181D01*
X113539141Y-138054954D01*
X113352734Y-137924432D01*
X113352732Y-137924431D01*
X113146497Y-137828261D01*
X113146488Y-137828258D01*
X112926697Y-137769366D01*
X112926693Y-137769365D01*
X112926692Y-137769365D01*
X112926691Y-137769364D01*
X112926686Y-137769364D01*
X112700002Y-137749532D01*
X112699998Y-137749532D01*
X112473313Y-137769364D01*
X112473302Y-137769366D01*
X112253511Y-137828258D01*
X112253502Y-137828261D01*
X112047267Y-137924431D01*
X112047265Y-137924432D01*
X111860858Y-138054954D01*
X111699954Y-138215858D01*
X111569432Y-138402265D01*
X111569431Y-138402267D01*
X111473261Y-138608502D01*
X111473258Y-138608511D01*
X111414366Y-138828302D01*
X111414364Y-138828313D01*
X111394532Y-139054998D01*
X111394532Y-139055001D01*
X111414364Y-139281686D01*
X111414366Y-139281697D01*
X111473258Y-139501488D01*
X111473261Y-139501497D01*
X111569431Y-139707732D01*
X111569432Y-139707734D01*
X111699954Y-139894141D01*
X111860858Y-140055045D01*
X111860861Y-140055047D01*
X112047266Y-140185568D01*
X112253504Y-140281739D01*
X112473308Y-140340635D01*
X112635230Y-140354801D01*
X112699998Y-140360468D01*
X112700000Y-140360468D01*
X112700002Y-140360468D01*
X112756673Y-140355509D01*
X112926692Y-140340635D01*
X113146496Y-140281739D01*
X113352734Y-140185568D01*
X113539139Y-140055047D01*
X113539141Y-140055045D01*
X113702368Y-139891819D01*
X113763691Y-139858334D01*
X113790049Y-139855500D01*
X116588844Y-139855500D01*
X116588845Y-139855499D01*
X116743497Y-139824737D01*
X116889179Y-139764394D01*
X117020289Y-139676789D01*
X117642080Y-139054998D01*
X119014532Y-139054998D01*
X119014532Y-139055001D01*
X119034364Y-139281686D01*
X119034366Y-139281697D01*
X119093258Y-139501488D01*
X119093261Y-139501497D01*
X119189431Y-139707732D01*
X119189432Y-139707734D01*
X119319954Y-139894141D01*
X119480858Y-140055045D01*
X119480861Y-140055047D01*
X119667266Y-140185568D01*
X119873504Y-140281739D01*
X120093308Y-140340635D01*
X120255230Y-140354801D01*
X120319998Y-140360468D01*
X120320000Y-140360468D01*
X120320002Y-140360468D01*
X120376673Y-140355509D01*
X120546692Y-140340635D01*
X120766496Y-140281739D01*
X120972734Y-140185568D01*
X121159139Y-140055047D01*
X121159141Y-140055045D01*
X121322368Y-139891819D01*
X121383691Y-139858334D01*
X121410049Y-139855500D01*
X122397060Y-139855500D01*
X122464099Y-139875185D01*
X122484741Y-139891819D01*
X125083266Y-142490344D01*
X125116751Y-142551667D01*
X125111767Y-142621359D01*
X125069895Y-142677292D01*
X125033904Y-142695955D01*
X124918530Y-142733443D01*
X124841585Y-142758444D01*
X124652179Y-142854951D01*
X124480213Y-142979890D01*
X124329894Y-143130209D01*
X124329890Y-143130214D01*
X124296620Y-143176007D01*
X124241290Y-143218673D01*
X124196764Y-143222497D01*
X123335000Y-144084262D01*
X123335000Y-144072465D01*
X123302630Y-143951657D01*
X123240095Y-143843343D01*
X123151657Y-143754905D01*
X123043343Y-143692370D01*
X122922535Y-143660000D01*
X122910737Y-143660000D01*
X123819924Y-142750811D01*
X123819924Y-142750809D01*
X123779126Y-142725644D01*
X123779120Y-142725641D01*
X123612697Y-142670494D01*
X123612690Y-142670493D01*
X123509980Y-142660000D01*
X122210028Y-142660000D01*
X122210012Y-142660001D01*
X122107302Y-142670494D01*
X121940880Y-142725641D01*
X121940875Y-142725643D01*
X121900074Y-142750810D01*
X122809264Y-143660000D01*
X122797465Y-143660000D01*
X122676657Y-143692370D01*
X122568343Y-143754905D01*
X122479905Y-143843343D01*
X122417370Y-143951657D01*
X122385000Y-144072465D01*
X122385000Y-144084263D01*
X121529838Y-143229101D01*
X121520494Y-143257304D01*
X121520493Y-143257308D01*
X121510000Y-143360013D01*
X121510000Y-144909971D01*
X121510001Y-144909987D01*
X121520494Y-145012695D01*
X121520494Y-145012698D01*
X121529837Y-145040897D01*
X122385000Y-144185735D01*
X122385000Y-144197535D01*
X122417370Y-144318343D01*
X122479905Y-144426657D01*
X122568343Y-144515095D01*
X122676657Y-144577630D01*
X122797465Y-144610000D01*
X122809264Y-144610000D01*
X121900073Y-145519188D01*
X121940879Y-145544358D01*
X122107302Y-145599505D01*
X122107309Y-145599506D01*
X122210019Y-145609999D01*
X123509971Y-145609999D01*
X123509987Y-145609998D01*
X123612697Y-145599505D01*
X123779121Y-145544358D01*
X123819924Y-145519188D01*
X122910736Y-144610000D01*
X122922535Y-144610000D01*
X123043343Y-144577630D01*
X123151657Y-144515095D01*
X123240095Y-144426657D01*
X123302630Y-144318343D01*
X123335000Y-144197535D01*
X123335000Y-144185737D01*
X124197034Y-145047771D01*
X124237476Y-145049913D01*
X124294176Y-145090742D01*
X124296619Y-145093991D01*
X124329894Y-145139790D01*
X124480213Y-145290109D01*
X124652179Y-145415048D01*
X124652181Y-145415049D01*
X124652184Y-145415051D01*
X124841588Y-145511557D01*
X125043757Y-145577246D01*
X125253713Y-145610500D01*
X125253714Y-145610500D01*
X125466286Y-145610500D01*
X125466287Y-145610500D01*
X125676243Y-145577246D01*
X125878412Y-145511557D01*
X126067816Y-145415051D01*
X126152748Y-145353345D01*
X126239786Y-145290109D01*
X126239788Y-145290106D01*
X126239792Y-145290104D01*
X126390104Y-145139792D01*
X126509683Y-144975204D01*
X126565011Y-144932540D01*
X126634624Y-144926561D01*
X126696420Y-144959166D01*
X126710313Y-144975199D01*
X126796620Y-145093991D01*
X126829896Y-145139792D01*
X126980213Y-145290109D01*
X127152179Y-145415048D01*
X127152181Y-145415049D01*
X127152184Y-145415051D01*
X127341588Y-145511557D01*
X127543757Y-145577246D01*
X127753713Y-145610500D01*
X127753714Y-145610500D01*
X127966286Y-145610500D01*
X127966287Y-145610500D01*
X128176243Y-145577246D01*
X128378412Y-145511557D01*
X128567816Y-145415051D01*
X128652748Y-145353345D01*
X128739786Y-145290109D01*
X128739788Y-145290106D01*
X128739792Y-145290104D01*
X128890104Y-145139792D01*
X129009683Y-144975204D01*
X129065011Y-144932540D01*
X129134624Y-144926561D01*
X129196420Y-144959166D01*
X129210313Y-144975199D01*
X129296620Y-145093991D01*
X129329896Y-145139792D01*
X129480213Y-145290109D01*
X129652179Y-145415048D01*
X129652181Y-145415049D01*
X129652184Y-145415051D01*
X129841588Y-145511557D01*
X130043757Y-145577246D01*
X130253713Y-145610500D01*
X130253714Y-145610500D01*
X130466286Y-145610500D01*
X130466287Y-145610500D01*
X130676243Y-145577246D01*
X130878412Y-145511557D01*
X131067816Y-145415051D01*
X131152748Y-145353345D01*
X131239786Y-145290109D01*
X131239788Y-145290106D01*
X131239792Y-145290104D01*
X131390104Y-145139792D01*
X131425741Y-145090742D01*
X131501394Y-144986615D01*
X131556724Y-144943949D01*
X131601712Y-144935500D01*
X154688844Y-144935500D01*
X154688845Y-144935499D01*
X154843497Y-144904737D01*
X154989179Y-144844394D01*
X155120289Y-144756789D01*
X164756789Y-135120289D01*
X164772586Y-135096647D01*
X164844394Y-134989179D01*
X164904737Y-134843497D01*
X164905897Y-134837669D01*
X164928814Y-134722455D01*
X164928814Y-134722452D01*
X164935448Y-134689106D01*
X164935500Y-134688843D01*
X164935500Y-134531158D01*
X164935500Y-133979983D01*
X168239500Y-133979983D01*
X168239500Y-135280001D01*
X168239501Y-135280018D01*
X168250000Y-135382796D01*
X168250001Y-135382799D01*
X168305185Y-135549331D01*
X168305187Y-135549336D01*
X168397289Y-135698657D01*
X168521344Y-135822712D01*
X168676120Y-135918178D01*
X168722845Y-135970126D01*
X168734068Y-136039088D01*
X168706224Y-136103171D01*
X168698706Y-136111398D01*
X168559889Y-136250215D01*
X168434951Y-136422179D01*
X168338444Y-136611585D01*
X168272753Y-136813760D01*
X168239500Y-137023713D01*
X168239500Y-137236286D01*
X168253149Y-137322466D01*
X168272754Y-137446243D01*
X168324461Y-137605381D01*
X168338444Y-137648414D01*
X168434951Y-137837820D01*
X168559890Y-138009786D01*
X168710213Y-138160109D01*
X168882179Y-138285048D01*
X168882181Y-138285049D01*
X168882184Y-138285051D01*
X169071588Y-138381557D01*
X169273757Y-138447246D01*
X169483713Y-138480500D01*
X169483714Y-138480500D01*
X169996286Y-138480500D01*
X169996287Y-138480500D01*
X170206243Y-138447246D01*
X170408412Y-138381557D01*
X170597816Y-138285051D01*
X170643767Y-138251666D01*
X170769786Y-138160109D01*
X170769788Y-138160106D01*
X170769792Y-138160104D01*
X170920104Y-138009792D01*
X170920106Y-138009788D01*
X170920109Y-138009786D01*
X171045048Y-137837820D01*
X171045047Y-137837820D01*
X171045051Y-137837816D01*
X171141557Y-137648412D01*
X171207246Y-137446243D01*
X171240500Y-137236287D01*
X171240500Y-137023713D01*
X171207246Y-136813757D01*
X171141557Y-136611588D01*
X171045051Y-136422184D01*
X171045049Y-136422181D01*
X171045048Y-136422179D01*
X170920109Y-136250213D01*
X170781294Y-136111398D01*
X170747809Y-136050075D01*
X170752793Y-135980383D01*
X170794665Y-135924450D01*
X170803879Y-135918178D01*
X170809331Y-135914814D01*
X170809334Y-135914814D01*
X170958656Y-135822712D01*
X171082712Y-135698656D01*
X171174814Y-135549334D01*
X171229999Y-135382797D01*
X171240500Y-135280009D01*
X171240499Y-133979992D01*
X171239852Y-133973662D01*
X171229999Y-133877203D01*
X171229998Y-133877200D01*
X171174814Y-133710666D01*
X171082712Y-133561344D01*
X170958656Y-133437288D01*
X170829678Y-133357734D01*
X170809336Y-133345187D01*
X170809331Y-133345185D01*
X170793684Y-133340000D01*
X170642797Y-133290001D01*
X170642795Y-133290000D01*
X170540010Y-133279500D01*
X168939998Y-133279500D01*
X168939981Y-133279501D01*
X168837203Y-133290000D01*
X168837200Y-133290001D01*
X168670668Y-133345185D01*
X168670663Y-133345187D01*
X168521342Y-133437289D01*
X168397289Y-133561342D01*
X168305187Y-133710663D01*
X168305186Y-133710666D01*
X168250001Y-133877203D01*
X168250001Y-133877204D01*
X168250000Y-133877204D01*
X168239500Y-133979983D01*
X164935500Y-133979983D01*
X164935500Y-123839983D01*
X168349500Y-123839983D01*
X168349500Y-125140001D01*
X168349501Y-125140018D01*
X168360000Y-125242796D01*
X168360001Y-125242799D01*
X168382832Y-125311697D01*
X168415186Y-125409334D01*
X168500427Y-125547533D01*
X168507289Y-125558657D01*
X168631344Y-125682712D01*
X168786120Y-125778178D01*
X168832845Y-125830126D01*
X168844068Y-125899088D01*
X168816224Y-125963171D01*
X168808706Y-125971398D01*
X168669889Y-126110215D01*
X168544951Y-126282179D01*
X168448444Y-126471585D01*
X168448443Y-126471587D01*
X168448443Y-126471588D01*
X168441020Y-126494433D01*
X168382753Y-126673760D01*
X168350465Y-126877618D01*
X168349500Y-126883713D01*
X168349500Y-127096287D01*
X168359534Y-127159644D01*
X168380050Y-127289175D01*
X168382754Y-127306243D01*
X168420837Y-127423451D01*
X168448444Y-127508414D01*
X168544951Y-127697820D01*
X168669890Y-127869786D01*
X168820213Y-128020109D01*
X168992179Y-128145048D01*
X168992181Y-128145049D01*
X168992184Y-128145051D01*
X169181588Y-128241557D01*
X169383757Y-128307246D01*
X169593713Y-128340500D01*
X169593714Y-128340500D01*
X170106286Y-128340500D01*
X170106287Y-128340500D01*
X170316243Y-128307246D01*
X170518412Y-128241557D01*
X170707816Y-128145051D01*
X170786982Y-128087534D01*
X170879786Y-128020109D01*
X170879788Y-128020106D01*
X170879792Y-128020104D01*
X171030104Y-127869792D01*
X171030106Y-127869788D01*
X171030109Y-127869786D01*
X171155048Y-127697820D01*
X171155047Y-127697820D01*
X171155051Y-127697816D01*
X171251557Y-127508412D01*
X171317246Y-127306243D01*
X171350500Y-127096287D01*
X171350500Y-126883713D01*
X171317246Y-126673757D01*
X171251557Y-126471588D01*
X171155051Y-126282184D01*
X171155049Y-126282181D01*
X171155048Y-126282179D01*
X171030109Y-126110213D01*
X170891294Y-125971398D01*
X170857809Y-125910075D01*
X170862793Y-125840383D01*
X170904665Y-125784450D01*
X170913879Y-125778178D01*
X170919331Y-125774814D01*
X170919334Y-125774814D01*
X171068656Y-125682712D01*
X171192712Y-125558656D01*
X171284814Y-125409334D01*
X171339999Y-125242797D01*
X171350500Y-125140009D01*
X171350499Y-123839992D01*
X171339999Y-123737203D01*
X171284814Y-123570666D01*
X171192712Y-123421344D01*
X171068656Y-123297288D01*
X170975888Y-123240069D01*
X170919336Y-123205187D01*
X170919331Y-123205185D01*
X170851406Y-123182677D01*
X170752797Y-123150001D01*
X170752795Y-123150000D01*
X170650010Y-123139500D01*
X169049998Y-123139500D01*
X169049981Y-123139501D01*
X168947203Y-123150000D01*
X168947200Y-123150001D01*
X168780668Y-123205185D01*
X168780663Y-123205187D01*
X168631342Y-123297289D01*
X168507289Y-123421342D01*
X168415187Y-123570663D01*
X168415185Y-123570668D01*
X168387349Y-123654670D01*
X168360001Y-123737203D01*
X168360001Y-123737204D01*
X168360000Y-123737204D01*
X168349500Y-123839983D01*
X164935500Y-123839983D01*
X164935500Y-113679983D01*
X168349500Y-113679983D01*
X168349500Y-114980001D01*
X168349501Y-114980018D01*
X168360000Y-115082796D01*
X168360001Y-115082799D01*
X168415185Y-115249331D01*
X168415187Y-115249336D01*
X168507289Y-115398657D01*
X168631344Y-115522712D01*
X168786120Y-115618178D01*
X168832845Y-115670126D01*
X168844068Y-115739088D01*
X168816224Y-115803171D01*
X168808706Y-115811398D01*
X168669889Y-115950215D01*
X168544951Y-116122179D01*
X168448444Y-116311585D01*
X168448443Y-116311587D01*
X168448443Y-116311588D01*
X168427964Y-116374615D01*
X168382753Y-116513760D01*
X168350465Y-116717618D01*
X168349500Y-116723713D01*
X168349500Y-116936287D01*
X168359534Y-116999644D01*
X168380050Y-117129174D01*
X168382754Y-117146243D01*
X168420837Y-117263451D01*
X168448444Y-117348414D01*
X168544951Y-117537820D01*
X168669890Y-117709786D01*
X168820213Y-117860109D01*
X168992179Y-117985048D01*
X168992181Y-117985049D01*
X168992184Y-117985051D01*
X169181588Y-118081557D01*
X169383757Y-118147246D01*
X169593713Y-118180500D01*
X169593714Y-118180500D01*
X170106286Y-118180500D01*
X170106287Y-118180500D01*
X170316243Y-118147246D01*
X170518412Y-118081557D01*
X170707816Y-117985051D01*
X170786982Y-117927534D01*
X170879786Y-117860109D01*
X170879788Y-117860106D01*
X170879792Y-117860104D01*
X171030104Y-117709792D01*
X171030106Y-117709788D01*
X171030109Y-117709786D01*
X171155048Y-117537820D01*
X171155047Y-117537820D01*
X171155051Y-117537816D01*
X171251557Y-117348412D01*
X171317246Y-117146243D01*
X171350500Y-116936287D01*
X171350500Y-116723713D01*
X171317246Y-116513757D01*
X171251557Y-116311588D01*
X171155051Y-116122184D01*
X171155049Y-116122181D01*
X171155048Y-116122179D01*
X171030109Y-115950213D01*
X170891294Y-115811398D01*
X170857809Y-115750075D01*
X170862793Y-115680383D01*
X170904665Y-115624450D01*
X170913879Y-115618178D01*
X170919331Y-115614814D01*
X170919334Y-115614814D01*
X171068656Y-115522712D01*
X171192712Y-115398656D01*
X171284814Y-115249334D01*
X171339999Y-115082797D01*
X171350500Y-114980009D01*
X171350499Y-113679992D01*
X171339999Y-113577203D01*
X171284814Y-113410666D01*
X171192712Y-113261344D01*
X171068656Y-113137288D01*
X170919334Y-113045186D01*
X170752797Y-112990001D01*
X170752795Y-112990000D01*
X170650010Y-112979500D01*
X169049998Y-112979500D01*
X169049981Y-112979501D01*
X168947203Y-112990000D01*
X168947200Y-112990001D01*
X168780668Y-113045185D01*
X168780663Y-113045187D01*
X168631342Y-113137289D01*
X168507289Y-113261342D01*
X168415187Y-113410663D01*
X168415186Y-113410666D01*
X168360001Y-113577203D01*
X168360001Y-113577204D01*
X168360000Y-113577204D01*
X168349500Y-113679983D01*
X164935500Y-113679983D01*
X164935500Y-95213713D01*
X167739500Y-95213713D01*
X167739500Y-95426286D01*
X167757460Y-95539685D01*
X167772754Y-95636243D01*
X167789082Y-95686496D01*
X167838444Y-95838414D01*
X167934951Y-96027820D01*
X168059890Y-96199786D01*
X168210209Y-96350105D01*
X168210214Y-96350109D01*
X168374793Y-96469682D01*
X168417459Y-96525011D01*
X168423438Y-96594625D01*
X168390833Y-96656420D01*
X168374793Y-96670318D01*
X168210214Y-96789890D01*
X168210209Y-96789894D01*
X168059890Y-96940213D01*
X167934951Y-97112179D01*
X167838444Y-97301585D01*
X167772753Y-97503760D01*
X167739500Y-97713713D01*
X167739500Y-97926287D01*
X167772754Y-98136243D01*
X167829409Y-98310609D01*
X167838444Y-98338414D01*
X167934951Y-98527820D01*
X168059890Y-98699786D01*
X168210209Y-98850105D01*
X168210214Y-98850109D01*
X168374793Y-98969682D01*
X168417459Y-99025011D01*
X168423438Y-99094625D01*
X168390833Y-99156420D01*
X168374793Y-99170318D01*
X168210214Y-99289890D01*
X168210209Y-99289894D01*
X168059890Y-99440213D01*
X167934951Y-99612179D01*
X167838444Y-99801585D01*
X167772753Y-100003760D01*
X167754395Y-100119671D01*
X167739500Y-100213713D01*
X167739500Y-100426287D01*
X167772754Y-100636243D01*
X167834741Y-100827019D01*
X167838444Y-100838414D01*
X167934951Y-101027820D01*
X168059890Y-101199786D01*
X168210213Y-101350109D01*
X168382179Y-101475048D01*
X168382181Y-101475049D01*
X168382184Y-101475051D01*
X168571588Y-101571557D01*
X168773757Y-101637246D01*
X168983713Y-101670500D01*
X168983714Y-101670500D01*
X169446286Y-101670500D01*
X169446287Y-101670500D01*
X169656243Y-101637246D01*
X169858412Y-101571557D01*
X170047816Y-101475051D01*
X170113385Y-101427413D01*
X170219786Y-101350109D01*
X170219788Y-101350106D01*
X170219792Y-101350104D01*
X170370104Y-101199792D01*
X170370106Y-101199788D01*
X170370109Y-101199786D01*
X170495048Y-101027820D01*
X170495047Y-101027820D01*
X170495051Y-101027816D01*
X170591557Y-100838412D01*
X170657246Y-100636243D01*
X170690500Y-100426287D01*
X170690500Y-100213713D01*
X170657246Y-100003757D01*
X170591557Y-99801588D01*
X170495051Y-99612184D01*
X170495049Y-99612181D01*
X170495048Y-99612179D01*
X170370109Y-99440213D01*
X170219792Y-99289896D01*
X170219784Y-99289890D01*
X170055204Y-99170316D01*
X170012540Y-99114989D01*
X170006561Y-99045376D01*
X170039166Y-98983580D01*
X170055199Y-98969686D01*
X170219792Y-98850104D01*
X170370104Y-98699792D01*
X170370106Y-98699788D01*
X170370109Y-98699786D01*
X170495048Y-98527820D01*
X170495047Y-98527820D01*
X170495051Y-98527816D01*
X170591557Y-98338412D01*
X170657246Y-98136243D01*
X170690500Y-97926287D01*
X170690500Y-97713713D01*
X170657246Y-97503757D01*
X170591557Y-97301588D01*
X170495051Y-97112184D01*
X170495049Y-97112181D01*
X170495048Y-97112179D01*
X170370109Y-96940213D01*
X170219792Y-96789896D01*
X170219784Y-96789890D01*
X170055204Y-96670316D01*
X170012540Y-96614989D01*
X170006561Y-96545376D01*
X170039166Y-96483580D01*
X170055199Y-96469686D01*
X170219792Y-96350104D01*
X170370104Y-96199792D01*
X170370106Y-96199788D01*
X170370109Y-96199786D01*
X170495048Y-96027820D01*
X170495047Y-96027820D01*
X170495051Y-96027816D01*
X170591557Y-95838412D01*
X170657246Y-95636243D01*
X170690500Y-95426287D01*
X170690500Y-95213713D01*
X170657246Y-95003757D01*
X170591557Y-94801588D01*
X170495051Y-94612184D01*
X170495049Y-94612181D01*
X170495048Y-94612179D01*
X170370109Y-94440213D01*
X170230931Y-94301035D01*
X170197446Y-94239712D01*
X170202430Y-94170020D01*
X170244302Y-94114087D01*
X170253516Y-94107815D01*
X170408343Y-94012317D01*
X170532315Y-93888345D01*
X170624356Y-93739124D01*
X170624358Y-93739119D01*
X170679505Y-93572697D01*
X170679506Y-93572690D01*
X170689999Y-93469986D01*
X170690000Y-93469973D01*
X170690000Y-93120000D01*
X169586752Y-93120000D01*
X169595095Y-93111657D01*
X169657630Y-93003343D01*
X169690000Y-92882535D01*
X169690000Y-92757465D01*
X169657630Y-92636657D01*
X169595095Y-92528343D01*
X169586752Y-92520000D01*
X170689999Y-92520000D01*
X170689999Y-92170028D01*
X170689998Y-92170013D01*
X170679505Y-92067302D01*
X170624358Y-91900880D01*
X170624356Y-91900875D01*
X170532315Y-91751654D01*
X170408345Y-91627684D01*
X170259124Y-91535643D01*
X170259119Y-91535641D01*
X170092697Y-91480494D01*
X170092690Y-91480493D01*
X169989986Y-91470000D01*
X169515000Y-91470000D01*
X169515000Y-92448248D01*
X169506657Y-92439905D01*
X169398343Y-92377370D01*
X169277535Y-92345000D01*
X169152465Y-92345000D01*
X169031657Y-92377370D01*
X168923343Y-92439905D01*
X168915000Y-92448248D01*
X168915000Y-91470000D01*
X168440028Y-91470000D01*
X168440012Y-91470001D01*
X168337302Y-91480494D01*
X168170880Y-91535641D01*
X168170875Y-91535643D01*
X168021654Y-91627684D01*
X167897684Y-91751654D01*
X167805643Y-91900875D01*
X167805641Y-91900880D01*
X167750494Y-92067302D01*
X167750493Y-92067309D01*
X167740000Y-92170013D01*
X167740000Y-92520000D01*
X168843248Y-92520000D01*
X168834905Y-92528343D01*
X168772370Y-92636657D01*
X168740000Y-92757465D01*
X168740000Y-92882535D01*
X168772370Y-93003343D01*
X168834905Y-93111657D01*
X168843248Y-93120000D01*
X167740001Y-93120000D01*
X167740001Y-93469986D01*
X167750494Y-93572697D01*
X167805641Y-93739119D01*
X167805643Y-93739124D01*
X167897684Y-93888345D01*
X168021654Y-94012315D01*
X168176484Y-94107815D01*
X168223208Y-94159763D01*
X168234431Y-94228726D01*
X168206587Y-94292808D01*
X168199069Y-94301035D01*
X168059889Y-94440215D01*
X167934951Y-94612179D01*
X167838444Y-94801585D01*
X167772753Y-95003760D01*
X167739500Y-95213713D01*
X164935500Y-95213713D01*
X164935500Y-88891158D01*
X164935500Y-88891155D01*
X164935499Y-88891153D01*
X164904738Y-88736510D01*
X164904737Y-88736503D01*
X164904735Y-88736498D01*
X164844397Y-88590827D01*
X164844390Y-88590814D01*
X164756790Y-88459712D01*
X164756789Y-88459711D01*
X164645289Y-88348211D01*
X160996819Y-84699741D01*
X160963334Y-84638418D01*
X160960500Y-84612060D01*
X160960500Y-84213713D01*
X160940530Y-84087629D01*
X160927246Y-84003757D01*
X160861557Y-83801588D01*
X160765051Y-83612184D01*
X160765049Y-83612181D01*
X160765048Y-83612179D01*
X160640109Y-83440213D01*
X160489786Y-83289890D01*
X160317820Y-83164951D01*
X160128414Y-83068444D01*
X160128413Y-83068443D01*
X160128412Y-83068443D01*
X159926243Y-83002754D01*
X159926241Y-83002753D01*
X159926240Y-83002753D01*
X159764957Y-82977208D01*
X159716287Y-82969500D01*
X159503713Y-82969500D01*
X159455042Y-82977208D01*
X159293760Y-83002753D01*
X159091585Y-83068444D01*
X158902179Y-83164951D01*
X158730213Y-83289890D01*
X158579894Y-83440209D01*
X158579890Y-83440214D01*
X158460318Y-83604793D01*
X158404989Y-83647459D01*
X158335375Y-83653438D01*
X158273580Y-83620833D01*
X158259682Y-83604793D01*
X158140109Y-83440214D01*
X158140105Y-83440209D01*
X157989786Y-83289890D01*
X157817820Y-83164951D01*
X157628414Y-83068444D01*
X157628413Y-83068443D01*
X157628412Y-83068443D01*
X157426243Y-83002754D01*
X157426241Y-83002753D01*
X157426240Y-83002753D01*
X157264957Y-82977208D01*
X157216287Y-82969500D01*
X157003713Y-82969500D01*
X156955042Y-82977208D01*
X156793760Y-83002753D01*
X156591585Y-83068444D01*
X156402179Y-83164951D01*
X156230213Y-83289890D01*
X156079894Y-83440209D01*
X156079890Y-83440214D01*
X156046620Y-83486007D01*
X155991290Y-83528673D01*
X155946764Y-83532497D01*
X155085000Y-84394262D01*
X155085000Y-84382465D01*
X155052630Y-84261657D01*
X154990095Y-84153343D01*
X154901657Y-84064905D01*
X154793343Y-84002370D01*
X154672535Y-83970000D01*
X154660737Y-83970000D01*
X155569924Y-83060811D01*
X155569924Y-83060809D01*
X155529126Y-83035644D01*
X155529120Y-83035641D01*
X155362697Y-82980494D01*
X155362690Y-82980493D01*
X155259980Y-82970000D01*
X153960028Y-82970000D01*
X153960012Y-82970001D01*
X153857302Y-82980494D01*
X153690880Y-83035641D01*
X153690875Y-83035643D01*
X153650074Y-83060810D01*
X154559264Y-83970000D01*
X154547465Y-83970000D01*
X154426657Y-84002370D01*
X154318343Y-84064905D01*
X154229905Y-84153343D01*
X154167370Y-84261657D01*
X154135000Y-84382465D01*
X154135000Y-84394263D01*
X153279838Y-83539101D01*
X153270494Y-83567304D01*
X153270493Y-83567308D01*
X153260000Y-83670013D01*
X153260000Y-85219971D01*
X153260001Y-85219987D01*
X153270494Y-85322695D01*
X153270494Y-85322698D01*
X153279837Y-85350897D01*
X154135000Y-84495735D01*
X154135000Y-84507535D01*
X154167370Y-84628343D01*
X154229905Y-84736657D01*
X154318343Y-84825095D01*
X154426657Y-84887630D01*
X154547465Y-84920000D01*
X154559264Y-84920000D01*
X153650073Y-85829188D01*
X153690879Y-85854358D01*
X153857302Y-85909505D01*
X153857309Y-85909506D01*
X153960019Y-85919999D01*
X155259971Y-85919999D01*
X155259987Y-85919998D01*
X155362697Y-85909505D01*
X155529121Y-85854358D01*
X155569924Y-85829188D01*
X154660736Y-84920000D01*
X154672535Y-84920000D01*
X154793343Y-84887630D01*
X154901657Y-84825095D01*
X154990095Y-84736657D01*
X155052630Y-84628343D01*
X155085000Y-84507535D01*
X155085000Y-84495737D01*
X155947034Y-85357771D01*
X155987476Y-85359913D01*
X156044176Y-85400742D01*
X156046619Y-85403991D01*
X156079894Y-85449790D01*
X156230213Y-85600109D01*
X156402179Y-85725048D01*
X156402181Y-85725049D01*
X156402184Y-85725051D01*
X156591588Y-85821557D01*
X156793757Y-85887246D01*
X157003713Y-85920500D01*
X157003714Y-85920500D01*
X157216286Y-85920500D01*
X157216287Y-85920500D01*
X157426243Y-85887246D01*
X157628412Y-85821557D01*
X157817816Y-85725051D01*
X157852296Y-85700000D01*
X157989786Y-85600109D01*
X157989788Y-85600106D01*
X157989792Y-85600104D01*
X158140104Y-85449792D01*
X158259683Y-85285204D01*
X158315011Y-85242540D01*
X158384624Y-85236561D01*
X158446420Y-85269166D01*
X158460313Y-85285199D01*
X158546620Y-85403991D01*
X158579896Y-85449792D01*
X158730213Y-85600109D01*
X158902179Y-85725048D01*
X158902181Y-85725049D01*
X158902184Y-85725051D01*
X159091588Y-85821557D01*
X159293757Y-85887246D01*
X159503713Y-85920500D01*
X159503714Y-85920500D01*
X159716285Y-85920500D01*
X159716287Y-85920500D01*
X159858597Y-85897959D01*
X159927886Y-85906913D01*
X159965673Y-85932751D01*
X163298181Y-89265259D01*
X163331666Y-89326582D01*
X163334500Y-89352940D01*
X163334500Y-134227060D01*
X163314815Y-134294099D01*
X163298181Y-134314741D01*
X154314741Y-143298181D01*
X154253418Y-143331666D01*
X154227060Y-143334500D01*
X131601712Y-143334500D01*
X131534673Y-143314815D01*
X131501394Y-143283385D01*
X131390109Y-143130214D01*
X131390105Y-143130209D01*
X131239786Y-142979890D01*
X131067820Y-142854951D01*
X130878414Y-142758444D01*
X130878413Y-142758443D01*
X130878412Y-142758443D01*
X130676243Y-142692754D01*
X130676241Y-142692753D01*
X130676240Y-142692753D01*
X130514957Y-142667208D01*
X130466287Y-142659500D01*
X130253713Y-142659500D01*
X130205042Y-142667208D01*
X130043760Y-142692753D01*
X129841585Y-142758444D01*
X129652179Y-142854951D01*
X129480213Y-142979890D01*
X129329894Y-143130209D01*
X129329890Y-143130214D01*
X129210318Y-143294793D01*
X129154989Y-143337459D01*
X129085375Y-143343438D01*
X129023580Y-143310833D01*
X129009682Y-143294793D01*
X128890109Y-143130214D01*
X128890105Y-143130209D01*
X128739786Y-142979890D01*
X128567820Y-142854951D01*
X128378414Y-142758444D01*
X128378413Y-142758443D01*
X128378412Y-142758443D01*
X128176243Y-142692754D01*
X128176241Y-142692753D01*
X128176240Y-142692753D01*
X128014957Y-142667208D01*
X127966287Y-142659500D01*
X127753713Y-142659500D01*
X127753708Y-142659500D01*
X127611404Y-142682039D01*
X127542111Y-142673085D01*
X127504325Y-142647247D01*
X123290292Y-138433213D01*
X123290288Y-138433210D01*
X123159185Y-138345609D01*
X123159172Y-138345602D01*
X123013501Y-138285264D01*
X123013489Y-138285261D01*
X122858845Y-138254500D01*
X122858842Y-138254500D01*
X121410049Y-138254500D01*
X121343010Y-138234815D01*
X121322368Y-138218181D01*
X121159141Y-138054954D01*
X120972734Y-137924432D01*
X120972732Y-137924431D01*
X120766497Y-137828261D01*
X120766488Y-137828258D01*
X120546697Y-137769366D01*
X120546693Y-137769365D01*
X120546692Y-137769365D01*
X120546691Y-137769364D01*
X120546686Y-137769364D01*
X120320002Y-137749532D01*
X120319998Y-137749532D01*
X120093313Y-137769364D01*
X120093302Y-137769366D01*
X119873511Y-137828258D01*
X119873502Y-137828261D01*
X119667267Y-137924431D01*
X119667265Y-137924432D01*
X119480858Y-138054954D01*
X119319954Y-138215858D01*
X119189432Y-138402265D01*
X119189431Y-138402267D01*
X119093261Y-138608502D01*
X119093258Y-138608511D01*
X119034366Y-138828302D01*
X119034364Y-138828313D01*
X119014532Y-139054998D01*
X117642080Y-139054998D01*
X122659674Y-134037402D01*
X122720995Y-134003919D01*
X122758156Y-134001557D01*
X122860000Y-134010468D01*
X122860000Y-134010467D01*
X122860001Y-134010468D01*
X122860002Y-134010468D01*
X122934855Y-134003919D01*
X123086692Y-133990635D01*
X123306496Y-133931739D01*
X123512734Y-133835568D01*
X123699139Y-133705047D01*
X123860047Y-133544139D01*
X123990568Y-133357734D01*
X124086739Y-133151496D01*
X124145635Y-132931692D01*
X124165468Y-132705000D01*
X124145635Y-132478308D01*
X124086739Y-132258504D01*
X123990568Y-132052266D01*
X123882225Y-131897535D01*
X123860045Y-131865858D01*
X123699141Y-131704954D01*
X123512734Y-131574432D01*
X123512728Y-131574429D01*
X123454725Y-131547382D01*
X123402285Y-131501210D01*
X123383133Y-131434017D01*
X123403348Y-131367135D01*
X123454725Y-131322618D01*
X123512734Y-131295568D01*
X123699139Y-131165047D01*
X123860047Y-131004139D01*
X123972613Y-130843377D01*
X124027189Y-130799752D01*
X124074188Y-130790500D01*
X133344548Y-130790500D01*
X133411587Y-130810185D01*
X133432229Y-130826819D01*
X135071016Y-132465606D01*
X135071045Y-132465637D01*
X135161264Y-132555856D01*
X135161267Y-132555858D01*
X135238190Y-132607256D01*
X135263710Y-132624309D01*
X135263712Y-132624310D01*
X135263715Y-132624312D01*
X135330396Y-132651931D01*
X135330398Y-132651933D01*
X135370640Y-132668601D01*
X135377548Y-132671463D01*
X135437971Y-132683481D01*
X135498393Y-132695500D01*
X135498394Y-132695500D01*
X136812879Y-132695500D01*
X136879918Y-132715185D01*
X136925673Y-132767989D01*
X136935617Y-132837147D01*
X136925262Y-132871902D01*
X136912138Y-132900046D01*
X136909105Y-132906552D01*
X136909104Y-132906554D01*
X136851930Y-133119929D01*
X136851929Y-133119937D01*
X136832677Y-133339997D01*
X136832677Y-133340002D01*
X136851929Y-133560062D01*
X136851930Y-133560070D01*
X136909104Y-133773445D01*
X136909105Y-133773447D01*
X136909106Y-133773450D01*
X136937870Y-133835134D01*
X137002466Y-133973662D01*
X137002468Y-133973666D01*
X137129170Y-134154615D01*
X137129175Y-134154621D01*
X137285378Y-134310824D01*
X137285384Y-134310829D01*
X137466333Y-134437531D01*
X137466335Y-134437532D01*
X137466338Y-134437534D01*
X137585748Y-134493215D01*
X137595189Y-134497618D01*
X137647628Y-134543790D01*
X137666780Y-134610984D01*
X137646564Y-134677865D01*
X137595189Y-134722382D01*
X137466340Y-134782465D01*
X137466338Y-134782466D01*
X137285377Y-134909175D01*
X137129175Y-135065377D01*
X137002466Y-135246338D01*
X137002465Y-135246340D01*
X136909107Y-135446548D01*
X136909104Y-135446554D01*
X136851930Y-135659929D01*
X136851929Y-135659937D01*
X136832677Y-135879997D01*
X136832677Y-135880002D01*
X136851929Y-136100062D01*
X136851930Y-136100070D01*
X136909104Y-136313445D01*
X136909105Y-136313447D01*
X136909106Y-136313450D01*
X137002466Y-136513662D01*
X137002468Y-136513666D01*
X137129170Y-136694615D01*
X137129175Y-136694621D01*
X137285378Y-136850824D01*
X137285384Y-136850829D01*
X137466333Y-136977531D01*
X137466335Y-136977532D01*
X137466338Y-136977534D01*
X137536254Y-137010136D01*
X137595189Y-137037618D01*
X137647628Y-137083790D01*
X137666780Y-137150984D01*
X137646564Y-137217865D01*
X137595189Y-137262382D01*
X137466340Y-137322465D01*
X137466338Y-137322466D01*
X137285377Y-137449175D01*
X137129175Y-137605377D01*
X137002466Y-137786338D01*
X137002465Y-137786340D01*
X136909107Y-137986548D01*
X136909104Y-137986554D01*
X136851930Y-138199929D01*
X136851929Y-138199937D01*
X136832677Y-138419997D01*
X136832677Y-138420002D01*
X136851929Y-138640062D01*
X136851930Y-138640070D01*
X136909104Y-138853445D01*
X136909105Y-138853447D01*
X136909106Y-138853450D01*
X137002466Y-139053662D01*
X137002468Y-139053666D01*
X137129170Y-139234615D01*
X137129175Y-139234621D01*
X137285378Y-139390824D01*
X137285384Y-139390829D01*
X137466333Y-139517531D01*
X137466335Y-139517532D01*
X137466338Y-139517534D01*
X137666550Y-139610894D01*
X137879932Y-139668070D01*
X138037123Y-139681822D01*
X138099998Y-139687323D01*
X138100000Y-139687323D01*
X138100002Y-139687323D01*
X138155017Y-139682509D01*
X138320068Y-139668070D01*
X138533450Y-139610894D01*
X138733662Y-139517534D01*
X138914620Y-139390826D01*
X139070826Y-139234620D01*
X139197534Y-139053662D01*
X139290894Y-138853450D01*
X139348070Y-138640068D01*
X139367323Y-138420000D01*
X139365771Y-138402265D01*
X139355517Y-138285051D01*
X139348070Y-138199932D01*
X139290894Y-137986550D01*
X139197534Y-137786339D01*
X139070826Y-137605380D01*
X138914620Y-137449174D01*
X138914616Y-137449171D01*
X138914615Y-137449170D01*
X138733666Y-137322468D01*
X138733658Y-137322464D01*
X138604811Y-137262382D01*
X138552371Y-137216210D01*
X138533219Y-137149017D01*
X138553435Y-137082135D01*
X138604811Y-137037618D01*
X138610802Y-137034824D01*
X138733662Y-136977534D01*
X138914620Y-136850826D01*
X139070826Y-136694620D01*
X139197534Y-136513662D01*
X139290894Y-136313450D01*
X139348070Y-136100068D01*
X139367323Y-135880000D01*
X139348070Y-135659932D01*
X139290894Y-135446550D01*
X139197534Y-135246339D01*
X139109277Y-135120294D01*
X139070827Y-135065381D01*
X138994618Y-134989172D01*
X138914620Y-134909174D01*
X138914616Y-134909171D01*
X138914615Y-134909170D01*
X138733666Y-134782468D01*
X138733658Y-134782464D01*
X138604811Y-134722382D01*
X138552371Y-134676210D01*
X138533219Y-134609017D01*
X138553435Y-134542135D01*
X138604811Y-134497618D01*
X138610802Y-134494824D01*
X138733662Y-134437534D01*
X138914620Y-134310826D01*
X139070826Y-134154620D01*
X139197534Y-133973662D01*
X139290894Y-133773450D01*
X139348070Y-133560068D01*
X139366869Y-133345186D01*
X139367323Y-133340002D01*
X139367323Y-133339997D01*
X139360103Y-133257474D01*
X139348070Y-133119932D01*
X139290894Y-132906550D01*
X139274737Y-132871903D01*
X139264247Y-132802826D01*
X139292767Y-132739042D01*
X139351244Y-132700803D01*
X139387121Y-132695500D01*
X152052879Y-132695500D01*
X152119918Y-132715185D01*
X152165673Y-132767989D01*
X152175617Y-132837147D01*
X152165262Y-132871902D01*
X152152138Y-132900046D01*
X152149105Y-132906552D01*
X152149104Y-132906554D01*
X152091930Y-133119929D01*
X152091929Y-133119937D01*
X152072677Y-133339997D01*
X152072677Y-133340002D01*
X152091929Y-133560062D01*
X152091930Y-133560070D01*
X152149104Y-133773445D01*
X152149105Y-133773447D01*
X152149106Y-133773450D01*
X152177870Y-133835134D01*
X152242466Y-133973662D01*
X152242468Y-133973666D01*
X152369170Y-134154615D01*
X152369175Y-134154621D01*
X152525378Y-134310824D01*
X152525384Y-134310829D01*
X152706333Y-134437531D01*
X152706335Y-134437532D01*
X152706338Y-134437534D01*
X152825748Y-134493215D01*
X152835189Y-134497618D01*
X152887628Y-134543790D01*
X152906780Y-134610984D01*
X152886564Y-134677865D01*
X152835189Y-134722382D01*
X152706340Y-134782465D01*
X152706338Y-134782466D01*
X152525377Y-134909175D01*
X152369175Y-135065377D01*
X152242466Y-135246338D01*
X152242465Y-135246340D01*
X152149107Y-135446548D01*
X152149104Y-135446554D01*
X152091930Y-135659929D01*
X152091929Y-135659937D01*
X152072677Y-135879997D01*
X152072677Y-135880002D01*
X152091929Y-136100062D01*
X152091930Y-136100070D01*
X152149104Y-136313445D01*
X152149105Y-136313447D01*
X152149106Y-136313450D01*
X152242466Y-136513662D01*
X152242468Y-136513666D01*
X152369170Y-136694615D01*
X152369175Y-136694621D01*
X152525378Y-136850824D01*
X152525384Y-136850829D01*
X152706333Y-136977531D01*
X152706335Y-136977532D01*
X152706338Y-136977534D01*
X152776254Y-137010136D01*
X152835189Y-137037618D01*
X152887628Y-137083790D01*
X152906780Y-137150984D01*
X152886564Y-137217865D01*
X152835189Y-137262382D01*
X152706340Y-137322465D01*
X152706338Y-137322466D01*
X152525377Y-137449175D01*
X152369175Y-137605377D01*
X152242466Y-137786338D01*
X152242465Y-137786340D01*
X152149107Y-137986548D01*
X152149104Y-137986554D01*
X152091930Y-138199929D01*
X152091929Y-138199937D01*
X152072677Y-138419997D01*
X152072677Y-138420002D01*
X152091929Y-138640062D01*
X152091930Y-138640070D01*
X152149104Y-138853445D01*
X152149105Y-138853447D01*
X152149106Y-138853450D01*
X152242466Y-139053662D01*
X152242468Y-139053666D01*
X152369170Y-139234615D01*
X152369175Y-139234621D01*
X152525378Y-139390824D01*
X152525384Y-139390829D01*
X152706333Y-139517531D01*
X152706335Y-139517532D01*
X152706338Y-139517534D01*
X152906550Y-139610894D01*
X153119932Y-139668070D01*
X153277123Y-139681822D01*
X153339998Y-139687323D01*
X153340000Y-139687323D01*
X153340002Y-139687323D01*
X153395017Y-139682509D01*
X153560068Y-139668070D01*
X153773450Y-139610894D01*
X153973662Y-139517534D01*
X154154620Y-139390826D01*
X154310826Y-139234620D01*
X154437534Y-139053662D01*
X154530894Y-138853450D01*
X154588070Y-138640068D01*
X154607323Y-138420000D01*
X154605771Y-138402265D01*
X154595517Y-138285051D01*
X154588070Y-138199932D01*
X154530894Y-137986550D01*
X154437534Y-137786339D01*
X154310826Y-137605380D01*
X154154620Y-137449174D01*
X154154616Y-137449171D01*
X154154615Y-137449170D01*
X153973666Y-137322468D01*
X153973658Y-137322464D01*
X153844811Y-137262382D01*
X153792371Y-137216210D01*
X153773219Y-137149017D01*
X153793435Y-137082135D01*
X153844811Y-137037618D01*
X153850802Y-137034824D01*
X153973662Y-136977534D01*
X154154620Y-136850826D01*
X154310826Y-136694620D01*
X154437534Y-136513662D01*
X154530894Y-136313450D01*
X154588070Y-136100068D01*
X154607323Y-135880000D01*
X154588070Y-135659932D01*
X154530894Y-135446550D01*
X154437534Y-135246339D01*
X154349277Y-135120294D01*
X154310827Y-135065381D01*
X154234618Y-134989172D01*
X154154620Y-134909174D01*
X154154616Y-134909171D01*
X154154615Y-134909170D01*
X153973666Y-134782468D01*
X153973658Y-134782464D01*
X153844811Y-134722382D01*
X153792371Y-134676210D01*
X153773219Y-134609017D01*
X153793435Y-134542135D01*
X153844811Y-134497618D01*
X153850802Y-134494824D01*
X153973662Y-134437534D01*
X154154620Y-134310826D01*
X154310826Y-134154620D01*
X154437534Y-133973662D01*
X154530894Y-133773450D01*
X154588070Y-133560068D01*
X154606869Y-133345186D01*
X154607323Y-133340002D01*
X154607323Y-133339997D01*
X154600103Y-133257474D01*
X154588070Y-133119932D01*
X154530894Y-132906550D01*
X154437534Y-132706339D01*
X154332167Y-132555858D01*
X154310827Y-132525381D01*
X154244840Y-132459394D01*
X154154620Y-132369174D01*
X154154616Y-132369171D01*
X154154615Y-132369170D01*
X153973666Y-132242468D01*
X153973658Y-132242464D01*
X153844811Y-132182382D01*
X153792371Y-132136210D01*
X153773219Y-132069017D01*
X153793435Y-132002135D01*
X153844811Y-131957618D01*
X153850802Y-131954824D01*
X153973662Y-131897534D01*
X154154620Y-131770826D01*
X154310826Y-131614620D01*
X154437534Y-131433662D01*
X154530894Y-131233450D01*
X154588070Y-131020068D01*
X154607323Y-130800000D01*
X154607301Y-130799752D01*
X154600103Y-130717474D01*
X154588070Y-130579932D01*
X154530894Y-130366550D01*
X154437534Y-130166339D01*
X154310826Y-129985380D01*
X154154620Y-129829174D01*
X154154616Y-129829171D01*
X154154615Y-129829170D01*
X153973666Y-129702468D01*
X153973658Y-129702464D01*
X153844811Y-129642382D01*
X153792371Y-129596210D01*
X153773219Y-129529017D01*
X153793435Y-129462135D01*
X153844811Y-129417618D01*
X153850802Y-129414824D01*
X153973662Y-129357534D01*
X154154620Y-129230826D01*
X154310826Y-129074620D01*
X154437534Y-128893662D01*
X154530894Y-128693450D01*
X154588070Y-128480068D01*
X154607323Y-128260000D01*
X154605709Y-128241557D01*
X154600103Y-128177474D01*
X154588070Y-128039932D01*
X154530894Y-127826550D01*
X154437534Y-127626339D01*
X154345438Y-127494811D01*
X154310827Y-127445381D01*
X154244840Y-127379394D01*
X154154620Y-127289174D01*
X154154616Y-127289171D01*
X154154615Y-127289170D01*
X153973666Y-127162468D01*
X153973658Y-127162464D01*
X153844811Y-127102382D01*
X153792371Y-127056210D01*
X153773219Y-126989017D01*
X153793435Y-126922135D01*
X153844811Y-126877618D01*
X153850802Y-126874824D01*
X153973662Y-126817534D01*
X154154620Y-126690826D01*
X154310826Y-126534620D01*
X154437534Y-126353662D01*
X154530894Y-126153450D01*
X154588070Y-125940068D01*
X154603046Y-125768882D01*
X154607323Y-125720002D01*
X154607323Y-125719997D01*
X154595807Y-125588365D01*
X154588070Y-125499932D01*
X154530894Y-125286550D01*
X154437534Y-125086339D01*
X154374180Y-124995859D01*
X154310827Y-124905381D01*
X154244840Y-124839394D01*
X154154620Y-124749174D01*
X154154616Y-124749171D01*
X154154615Y-124749170D01*
X153973666Y-124622468D01*
X153973658Y-124622464D01*
X153844811Y-124562382D01*
X153792371Y-124516210D01*
X153773219Y-124449017D01*
X153793435Y-124382135D01*
X153844811Y-124337618D01*
X153850802Y-124334824D01*
X153973662Y-124277534D01*
X154154620Y-124150826D01*
X154310826Y-123994620D01*
X154437534Y-123813662D01*
X154530894Y-123613450D01*
X154588070Y-123400068D01*
X154604977Y-123206819D01*
X154607323Y-123180002D01*
X154607323Y-123179997D01*
X154597491Y-123067618D01*
X154588070Y-122959932D01*
X154530894Y-122746550D01*
X154437534Y-122546339D01*
X154310826Y-122365380D01*
X154154620Y-122209174D01*
X154154616Y-122209171D01*
X154154615Y-122209170D01*
X153973666Y-122082468D01*
X153973658Y-122082464D01*
X153844811Y-122022382D01*
X153792371Y-121976210D01*
X153773219Y-121909017D01*
X153793435Y-121842135D01*
X153844811Y-121797618D01*
X153850802Y-121794824D01*
X153973662Y-121737534D01*
X154154620Y-121610826D01*
X154310826Y-121454620D01*
X154437534Y-121273662D01*
X154530894Y-121073450D01*
X154588070Y-120860068D01*
X154604771Y-120669172D01*
X154607323Y-120640002D01*
X154607323Y-120639997D01*
X154597491Y-120527618D01*
X154588070Y-120419932D01*
X154530894Y-120206550D01*
X154437534Y-120006339D01*
X154332164Y-119855854D01*
X154310827Y-119825381D01*
X154243964Y-119758518D01*
X154154620Y-119669174D01*
X154154616Y-119669171D01*
X154154615Y-119669170D01*
X153973666Y-119542468D01*
X153973658Y-119542464D01*
X153844811Y-119482382D01*
X153792371Y-119436210D01*
X153773219Y-119369017D01*
X153793435Y-119302135D01*
X153844811Y-119257618D01*
X153850802Y-119254824D01*
X153973662Y-119197534D01*
X154154620Y-119070826D01*
X154310826Y-118914620D01*
X154437534Y-118733662D01*
X154530894Y-118533450D01*
X154588070Y-118320068D01*
X154603190Y-118147246D01*
X154607323Y-118100002D01*
X154607323Y-118099997D01*
X154597491Y-117987618D01*
X154588070Y-117879932D01*
X154530894Y-117666550D01*
X154437534Y-117466339D01*
X154345438Y-117334811D01*
X154310827Y-117285381D01*
X154244840Y-117219394D01*
X154154620Y-117129174D01*
X154154616Y-117129171D01*
X154154615Y-117129170D01*
X153973666Y-117002468D01*
X153973658Y-117002464D01*
X153844811Y-116942382D01*
X153792371Y-116896210D01*
X153773498Y-116829997D01*
X155882677Y-116829997D01*
X155882677Y-116830002D01*
X155901929Y-117050062D01*
X155901930Y-117050070D01*
X155959104Y-117263445D01*
X155959105Y-117263447D01*
X155959106Y-117263450D01*
X156028534Y-117412339D01*
X156052466Y-117463662D01*
X156052468Y-117463666D01*
X156179170Y-117644615D01*
X156179175Y-117644621D01*
X156335378Y-117800824D01*
X156335384Y-117800829D01*
X156516333Y-117927531D01*
X156516335Y-117927532D01*
X156516338Y-117927534D01*
X156635748Y-117983215D01*
X156645189Y-117987618D01*
X156697628Y-118033790D01*
X156716780Y-118100984D01*
X156696564Y-118167865D01*
X156645189Y-118212382D01*
X156516340Y-118272465D01*
X156516338Y-118272466D01*
X156335377Y-118399175D01*
X156179175Y-118555377D01*
X156052466Y-118736338D01*
X156052465Y-118736340D01*
X155959107Y-118936548D01*
X155959104Y-118936554D01*
X155901930Y-119149929D01*
X155901929Y-119149937D01*
X155882677Y-119369997D01*
X155882677Y-119370002D01*
X155901929Y-119590062D01*
X155901930Y-119590070D01*
X155959104Y-119803445D01*
X155959105Y-119803447D01*
X155959106Y-119803450D01*
X156048660Y-119995499D01*
X156052466Y-120003662D01*
X156052468Y-120003666D01*
X156179170Y-120184615D01*
X156179175Y-120184621D01*
X156335378Y-120340824D01*
X156335384Y-120340829D01*
X156516333Y-120467531D01*
X156516335Y-120467532D01*
X156516338Y-120467534D01*
X156635748Y-120523215D01*
X156645189Y-120527618D01*
X156697628Y-120573790D01*
X156716780Y-120640984D01*
X156696564Y-120707865D01*
X156645189Y-120752382D01*
X156516340Y-120812465D01*
X156516338Y-120812466D01*
X156335377Y-120939175D01*
X156179175Y-121095377D01*
X156052466Y-121276338D01*
X156052465Y-121276340D01*
X155959107Y-121476548D01*
X155959104Y-121476554D01*
X155901930Y-121689929D01*
X155901929Y-121689937D01*
X155882677Y-121909997D01*
X155882677Y-121910002D01*
X155901929Y-122130062D01*
X155901930Y-122130070D01*
X155959104Y-122343445D01*
X155959105Y-122343447D01*
X155959106Y-122343450D01*
X156052464Y-122543658D01*
X156052466Y-122543662D01*
X156052468Y-122543666D01*
X156179170Y-122724615D01*
X156179175Y-122724621D01*
X156335378Y-122880824D01*
X156335384Y-122880829D01*
X156516333Y-123007531D01*
X156516335Y-123007532D01*
X156516338Y-123007534D01*
X156635748Y-123063215D01*
X156645189Y-123067618D01*
X156697628Y-123113790D01*
X156716780Y-123180984D01*
X156696564Y-123247865D01*
X156645189Y-123292382D01*
X156516340Y-123352465D01*
X156516338Y-123352466D01*
X156335377Y-123479175D01*
X156179175Y-123635377D01*
X156052466Y-123816338D01*
X156052465Y-123816340D01*
X155959107Y-124016548D01*
X155959104Y-124016554D01*
X155901930Y-124229929D01*
X155901929Y-124229937D01*
X155882677Y-124449997D01*
X155882677Y-124450002D01*
X155901929Y-124670062D01*
X155901930Y-124670070D01*
X155959104Y-124883445D01*
X155959105Y-124883447D01*
X155959106Y-124883450D01*
X156028534Y-125032339D01*
X156052466Y-125083662D01*
X156052468Y-125083666D01*
X156179170Y-125264615D01*
X156179175Y-125264621D01*
X156335378Y-125420824D01*
X156335384Y-125420829D01*
X156516333Y-125547531D01*
X156516335Y-125547532D01*
X156516338Y-125547534D01*
X156603901Y-125588365D01*
X156645189Y-125607618D01*
X156697628Y-125653790D01*
X156716780Y-125720984D01*
X156696564Y-125787865D01*
X156645189Y-125832382D01*
X156516340Y-125892465D01*
X156516338Y-125892466D01*
X156335377Y-126019175D01*
X156179175Y-126175377D01*
X156052466Y-126356338D01*
X156052465Y-126356340D01*
X155959107Y-126556548D01*
X155959104Y-126556554D01*
X155901930Y-126769929D01*
X155901929Y-126769937D01*
X155882677Y-126989997D01*
X155882677Y-126990002D01*
X155901929Y-127210062D01*
X155901930Y-127210070D01*
X155959104Y-127423445D01*
X155959105Y-127423447D01*
X155959106Y-127423450D01*
X156028534Y-127572339D01*
X156052466Y-127623662D01*
X156052468Y-127623666D01*
X156179170Y-127804615D01*
X156179175Y-127804621D01*
X156335378Y-127960824D01*
X156335384Y-127960829D01*
X156516333Y-128087531D01*
X156516335Y-128087532D01*
X156516338Y-128087534D01*
X156716550Y-128180894D01*
X156929932Y-128238070D01*
X157087123Y-128251822D01*
X157149998Y-128257323D01*
X157150000Y-128257323D01*
X157150002Y-128257323D01*
X157205017Y-128252509D01*
X157370068Y-128238070D01*
X157583450Y-128180894D01*
X157783662Y-128087534D01*
X157964620Y-127960826D01*
X158120826Y-127804620D01*
X158247534Y-127623662D01*
X158307618Y-127494811D01*
X158353790Y-127442371D01*
X158420983Y-127423219D01*
X158487865Y-127443435D01*
X158532382Y-127494811D01*
X158592464Y-127623658D01*
X158592468Y-127623666D01*
X158719170Y-127804615D01*
X158719175Y-127804621D01*
X158875378Y-127960824D01*
X158875384Y-127960829D01*
X159056333Y-128087531D01*
X159056335Y-128087532D01*
X159056338Y-128087534D01*
X159256550Y-128180894D01*
X159469932Y-128238070D01*
X159627123Y-128251822D01*
X159689998Y-128257323D01*
X159690000Y-128257323D01*
X159690002Y-128257323D01*
X159745017Y-128252509D01*
X159910068Y-128238070D01*
X160123450Y-128180894D01*
X160323662Y-128087534D01*
X160504620Y-127960826D01*
X160660826Y-127804620D01*
X160787534Y-127623662D01*
X160880894Y-127423450D01*
X160938070Y-127210068D01*
X160952509Y-127045017D01*
X160957323Y-126990002D01*
X160957323Y-126989997D01*
X160947491Y-126877618D01*
X160938070Y-126769932D01*
X160880894Y-126556550D01*
X160787534Y-126356339D01*
X160707712Y-126242341D01*
X160660827Y-126175381D01*
X160595654Y-126110208D01*
X160504620Y-126019174D01*
X160504616Y-126019171D01*
X160504615Y-126019170D01*
X160323666Y-125892468D01*
X160323662Y-125892466D01*
X160211969Y-125840383D01*
X160123450Y-125799106D01*
X160123447Y-125799105D01*
X160123445Y-125799104D01*
X159910070Y-125741930D01*
X159910062Y-125741929D01*
X159690002Y-125722677D01*
X159689998Y-125722677D01*
X159469937Y-125741929D01*
X159469929Y-125741930D01*
X159256554Y-125799104D01*
X159256548Y-125799107D01*
X159056340Y-125892465D01*
X159056338Y-125892466D01*
X158875377Y-126019175D01*
X158719175Y-126175377D01*
X158592466Y-126356338D01*
X158592465Y-126356340D01*
X158532382Y-126485189D01*
X158486209Y-126537628D01*
X158419016Y-126556780D01*
X158352135Y-126536564D01*
X158307618Y-126485189D01*
X158277655Y-126420933D01*
X158247534Y-126356339D01*
X158167712Y-126242341D01*
X158120827Y-126175381D01*
X158055654Y-126110208D01*
X157964620Y-126019174D01*
X157964616Y-126019171D01*
X157964615Y-126019170D01*
X157783666Y-125892468D01*
X157783658Y-125892464D01*
X157654811Y-125832382D01*
X157602371Y-125786210D01*
X157583219Y-125719017D01*
X157603435Y-125652135D01*
X157654811Y-125607618D01*
X157696099Y-125588365D01*
X157783662Y-125547534D01*
X157964620Y-125420826D01*
X158120826Y-125264620D01*
X158247534Y-125083662D01*
X158340894Y-124883450D01*
X158398070Y-124670068D01*
X158412509Y-124505017D01*
X158417323Y-124450002D01*
X158417323Y-124449997D01*
X158407491Y-124337618D01*
X158398070Y-124229932D01*
X158340894Y-124016550D01*
X158247534Y-123816339D01*
X158148965Y-123675567D01*
X158120827Y-123635381D01*
X158056109Y-123570663D01*
X157964620Y-123479174D01*
X157964616Y-123479171D01*
X157964615Y-123479170D01*
X157783666Y-123352468D01*
X157783658Y-123352464D01*
X157654811Y-123292382D01*
X157602371Y-123246210D01*
X157583219Y-123179017D01*
X157603435Y-123112135D01*
X157654811Y-123067618D01*
X157660802Y-123064824D01*
X157783662Y-123007534D01*
X157964620Y-122880826D01*
X158120826Y-122724620D01*
X158247534Y-122543662D01*
X158307618Y-122414811D01*
X158353790Y-122362371D01*
X158420983Y-122343219D01*
X158487865Y-122363435D01*
X158532382Y-122414811D01*
X158592464Y-122543658D01*
X158592468Y-122543666D01*
X158719170Y-122724615D01*
X158719175Y-122724621D01*
X158875378Y-122880824D01*
X158875384Y-122880829D01*
X159056333Y-123007531D01*
X159056335Y-123007532D01*
X159056338Y-123007534D01*
X159256550Y-123100894D01*
X159469932Y-123158070D01*
X159612011Y-123170500D01*
X159689998Y-123177323D01*
X159690000Y-123177323D01*
X159690002Y-123177323D01*
X159745017Y-123172509D01*
X159910068Y-123158070D01*
X160123450Y-123100894D01*
X160323662Y-123007534D01*
X160504620Y-122880826D01*
X160660826Y-122724620D01*
X160787534Y-122543662D01*
X160880894Y-122343450D01*
X160938070Y-122130068D01*
X160955050Y-121935981D01*
X160957323Y-121910002D01*
X160957323Y-121909997D01*
X160950103Y-121827474D01*
X160938070Y-121689932D01*
X160880894Y-121476550D01*
X160787534Y-121276339D01*
X160660826Y-121095380D01*
X160504620Y-120939174D01*
X160504616Y-120939171D01*
X160504615Y-120939170D01*
X160323666Y-120812468D01*
X160323658Y-120812464D01*
X160194811Y-120752382D01*
X160142371Y-120706210D01*
X160123219Y-120639017D01*
X160143435Y-120572135D01*
X160194811Y-120527618D01*
X160200802Y-120524824D01*
X160323662Y-120467534D01*
X160504620Y-120340826D01*
X160660826Y-120184620D01*
X160787534Y-120003662D01*
X160880894Y-119803450D01*
X160938070Y-119590068D01*
X160952509Y-119425017D01*
X160957323Y-119370002D01*
X160957323Y-119369997D01*
X160947491Y-119257618D01*
X160938070Y-119149932D01*
X160880894Y-118936550D01*
X160787534Y-118736339D01*
X160688965Y-118595567D01*
X160660827Y-118555381D01*
X160638891Y-118533445D01*
X160504620Y-118399174D01*
X160504616Y-118399171D01*
X160504615Y-118399170D01*
X160323666Y-118272468D01*
X160323658Y-118272464D01*
X160194811Y-118212382D01*
X160142371Y-118166210D01*
X160123219Y-118099017D01*
X160143435Y-118032135D01*
X160194811Y-117987618D01*
X160200802Y-117984824D01*
X160323662Y-117927534D01*
X160504620Y-117800826D01*
X160660826Y-117644620D01*
X160787534Y-117463662D01*
X160880894Y-117263450D01*
X160938070Y-117050068D01*
X160952753Y-116882236D01*
X160957323Y-116830002D01*
X160957323Y-116829997D01*
X160950103Y-116747474D01*
X160938070Y-116609932D01*
X160880894Y-116396550D01*
X160787534Y-116196339D01*
X160660826Y-116015380D01*
X160504620Y-115859174D01*
X160504616Y-115859171D01*
X160504615Y-115859170D01*
X160323666Y-115732468D01*
X160323662Y-115732466D01*
X160211969Y-115680383D01*
X160123450Y-115639106D01*
X160123447Y-115639105D01*
X160123445Y-115639104D01*
X159910070Y-115581930D01*
X159910062Y-115581929D01*
X159690002Y-115562677D01*
X159689998Y-115562677D01*
X159469937Y-115581929D01*
X159469929Y-115581930D01*
X159256554Y-115639104D01*
X159256548Y-115639107D01*
X159056340Y-115732465D01*
X159056338Y-115732466D01*
X158875377Y-115859175D01*
X158719175Y-116015377D01*
X158592466Y-116196338D01*
X158592465Y-116196340D01*
X158532382Y-116325189D01*
X158486209Y-116377628D01*
X158419016Y-116396780D01*
X158352135Y-116376564D01*
X158307618Y-116325189D01*
X158289059Y-116285390D01*
X158247534Y-116196339D01*
X158120826Y-116015380D01*
X157964620Y-115859174D01*
X157964616Y-115859171D01*
X157964615Y-115859170D01*
X157783666Y-115732468D01*
X157783662Y-115732466D01*
X157671969Y-115680383D01*
X157583450Y-115639106D01*
X157583447Y-115639105D01*
X157583445Y-115639104D01*
X157370070Y-115581930D01*
X157370062Y-115581929D01*
X157150002Y-115562677D01*
X157149998Y-115562677D01*
X156929937Y-115581929D01*
X156929929Y-115581930D01*
X156716554Y-115639104D01*
X156716548Y-115639107D01*
X156516340Y-115732465D01*
X156516338Y-115732466D01*
X156335377Y-115859175D01*
X156179175Y-116015377D01*
X156052466Y-116196338D01*
X156052465Y-116196340D01*
X155959107Y-116396548D01*
X155959104Y-116396554D01*
X155901930Y-116609929D01*
X155901929Y-116609937D01*
X155882677Y-116829997D01*
X153773498Y-116829997D01*
X153773219Y-116829017D01*
X153793435Y-116762135D01*
X153844811Y-116717618D01*
X153850802Y-116714824D01*
X153973662Y-116657534D01*
X154154620Y-116530826D01*
X154310826Y-116374620D01*
X154437534Y-116193662D01*
X154530894Y-115993450D01*
X154588070Y-115780068D01*
X154602528Y-115614814D01*
X154607323Y-115560002D01*
X154607323Y-115559997D01*
X154594275Y-115410858D01*
X154588070Y-115339932D01*
X154530894Y-115126550D01*
X154437534Y-114926339D01*
X154310826Y-114745380D01*
X154154620Y-114589174D01*
X154154616Y-114589171D01*
X154154615Y-114589170D01*
X153973666Y-114462468D01*
X153973658Y-114462464D01*
X153844811Y-114402382D01*
X153792371Y-114356210D01*
X153773219Y-114289017D01*
X153793435Y-114222135D01*
X153844811Y-114177618D01*
X153850802Y-114174824D01*
X153973662Y-114117534D01*
X154154620Y-113990826D01*
X154310826Y-113834620D01*
X154437534Y-113653662D01*
X154530894Y-113453450D01*
X154588070Y-113240068D01*
X154602509Y-113075017D01*
X154607323Y-113020002D01*
X154607323Y-113019997D01*
X154588070Y-112799937D01*
X154588070Y-112799932D01*
X154530894Y-112586550D01*
X154437534Y-112386339D01*
X154310826Y-112205380D01*
X154154620Y-112049174D01*
X154154616Y-112049171D01*
X154154615Y-112049170D01*
X153973666Y-111922468D01*
X153973658Y-111922464D01*
X153844811Y-111862382D01*
X153792371Y-111816210D01*
X153773219Y-111749017D01*
X153793435Y-111682135D01*
X153844811Y-111637618D01*
X153877656Y-111622302D01*
X153973662Y-111577534D01*
X154154620Y-111450826D01*
X154310826Y-111294620D01*
X154437534Y-111113662D01*
X154530894Y-110913450D01*
X154588070Y-110700068D01*
X154607323Y-110480000D01*
X154588070Y-110259932D01*
X154530894Y-110046550D01*
X154437534Y-109846339D01*
X154374180Y-109755859D01*
X154310827Y-109665381D01*
X154237237Y-109591791D01*
X154154620Y-109509174D01*
X154154616Y-109509171D01*
X154154615Y-109509170D01*
X153973666Y-109382468D01*
X153973658Y-109382464D01*
X153844219Y-109322106D01*
X153791779Y-109275934D01*
X153772627Y-109208741D01*
X153792843Y-109141859D01*
X153844219Y-109097342D01*
X153973404Y-109037102D01*
X153973415Y-109037096D01*
X153996598Y-109020862D01*
X153996598Y-109020861D01*
X153420174Y-108444437D01*
X153536081Y-108413381D01*
X153651920Y-108346502D01*
X153746502Y-108251920D01*
X153813381Y-108136081D01*
X153844437Y-108020174D01*
X154420861Y-108596598D01*
X154420862Y-108596598D01*
X154437096Y-108573415D01*
X154437102Y-108573404D01*
X154530419Y-108373284D01*
X154530424Y-108373270D01*
X154587573Y-108159986D01*
X154587575Y-108159976D01*
X154606821Y-107940000D01*
X154606821Y-107939999D01*
X154587575Y-107720023D01*
X154587573Y-107720013D01*
X154530424Y-107506729D01*
X154530420Y-107506720D01*
X154437099Y-107306591D01*
X154420861Y-107283400D01*
X153844437Y-107859825D01*
X153813381Y-107743919D01*
X153746502Y-107628080D01*
X153651920Y-107533498D01*
X153536081Y-107466619D01*
X153420174Y-107435562D01*
X153996598Y-106859137D01*
X153973409Y-106842900D01*
X153973407Y-106842899D01*
X153844219Y-106782658D01*
X153791779Y-106736486D01*
X153772627Y-106669293D01*
X153792843Y-106602411D01*
X153844219Y-106557894D01*
X153845403Y-106557342D01*
X153973662Y-106497534D01*
X154154620Y-106370826D01*
X154310826Y-106214620D01*
X154437534Y-106033662D01*
X154530894Y-105833450D01*
X154588070Y-105620068D01*
X154607323Y-105400000D01*
X154588070Y-105179932D01*
X154530894Y-104966550D01*
X154437534Y-104766339D01*
X154310826Y-104585380D01*
X154154620Y-104429174D01*
X154154616Y-104429171D01*
X154154615Y-104429170D01*
X153973666Y-104302468D01*
X153973662Y-104302466D01*
X153973660Y-104302465D01*
X153773450Y-104209106D01*
X153773447Y-104209105D01*
X153773445Y-104209104D01*
X153560070Y-104151930D01*
X153560062Y-104151929D01*
X153340002Y-104132677D01*
X153339998Y-104132677D01*
X153119937Y-104151929D01*
X153119929Y-104151930D01*
X152906554Y-104209104D01*
X152906548Y-104209107D01*
X152706340Y-104302465D01*
X152706338Y-104302466D01*
X152525377Y-104429175D01*
X152369175Y-104585377D01*
X152242466Y-104766338D01*
X152242465Y-104766340D01*
X152149107Y-104966548D01*
X152149104Y-104966554D01*
X152091930Y-105179929D01*
X152091929Y-105179937D01*
X152072677Y-105399997D01*
X152072677Y-105400002D01*
X152091929Y-105620062D01*
X152091930Y-105620070D01*
X152149104Y-105833445D01*
X152149105Y-105833447D01*
X152149106Y-105833450D01*
X152167726Y-105873381D01*
X152242466Y-106033662D01*
X152242468Y-106033666D01*
X152369170Y-106214615D01*
X152369175Y-106214621D01*
X152525378Y-106370824D01*
X152525384Y-106370829D01*
X152706333Y-106497531D01*
X152706335Y-106497532D01*
X152706338Y-106497534D01*
X152834597Y-106557342D01*
X152835781Y-106557894D01*
X152888220Y-106604066D01*
X152907372Y-106671260D01*
X152887156Y-106738141D01*
X152835781Y-106782658D01*
X152706588Y-106842901D01*
X152683401Y-106859136D01*
X152683400Y-106859137D01*
X153259825Y-107435562D01*
X153143919Y-107466619D01*
X153028080Y-107533498D01*
X152933498Y-107628080D01*
X152866619Y-107743919D01*
X152835562Y-107859825D01*
X152259137Y-107283400D01*
X152259136Y-107283401D01*
X152242900Y-107306590D01*
X152242899Y-107306591D01*
X152149580Y-107506715D01*
X152149575Y-107506729D01*
X152092426Y-107720013D01*
X152092424Y-107720023D01*
X152073179Y-107939999D01*
X152073179Y-107940000D01*
X152092424Y-108159976D01*
X152092426Y-108159986D01*
X152149575Y-108373270D01*
X152149580Y-108373284D01*
X152242899Y-108573407D01*
X152242900Y-108573409D01*
X152259137Y-108596597D01*
X152835562Y-108020173D01*
X152866619Y-108136081D01*
X152933498Y-108251920D01*
X153028080Y-108346502D01*
X153143919Y-108413381D01*
X153259825Y-108444437D01*
X152683401Y-109020861D01*
X152706593Y-109037101D01*
X152835780Y-109097342D01*
X152888220Y-109143514D01*
X152907372Y-109210707D01*
X152887156Y-109277589D01*
X152835781Y-109322106D01*
X152706340Y-109382465D01*
X152706338Y-109382466D01*
X152525377Y-109509175D01*
X152369175Y-109665377D01*
X152242466Y-109846338D01*
X152242465Y-109846340D01*
X152149107Y-110046548D01*
X152149104Y-110046554D01*
X152091930Y-110259929D01*
X152091929Y-110259937D01*
X152072677Y-110479997D01*
X152072677Y-110480002D01*
X152091929Y-110700062D01*
X152091930Y-110700070D01*
X152149104Y-110913445D01*
X152149105Y-110913447D01*
X152149106Y-110913450D01*
X152206016Y-111035494D01*
X152242466Y-111113662D01*
X152242468Y-111113666D01*
X152369170Y-111294615D01*
X152369175Y-111294621D01*
X152525378Y-111450824D01*
X152525384Y-111450829D01*
X152706333Y-111577531D01*
X152706335Y-111577532D01*
X152706338Y-111577534D01*
X152802344Y-111622302D01*
X152835189Y-111637618D01*
X152887628Y-111683790D01*
X152906780Y-111750984D01*
X152886564Y-111817865D01*
X152835189Y-111862382D01*
X152706340Y-111922465D01*
X152706338Y-111922466D01*
X152525377Y-112049175D01*
X152369175Y-112205377D01*
X152242466Y-112386338D01*
X152242465Y-112386340D01*
X152149107Y-112586548D01*
X152149104Y-112586554D01*
X152091930Y-112799929D01*
X152091929Y-112799937D01*
X152072677Y-113019997D01*
X152072677Y-113020002D01*
X152091929Y-113240062D01*
X152091930Y-113240070D01*
X152149104Y-113453445D01*
X152149105Y-113453447D01*
X152149106Y-113453450D01*
X152206813Y-113577203D01*
X152242466Y-113653662D01*
X152242468Y-113653666D01*
X152369170Y-113834615D01*
X152369175Y-113834621D01*
X152525378Y-113990824D01*
X152525384Y-113990829D01*
X152706333Y-114117531D01*
X152706335Y-114117532D01*
X152706338Y-114117534D01*
X152765664Y-114145198D01*
X152835189Y-114177618D01*
X152887628Y-114223790D01*
X152906780Y-114290984D01*
X152886564Y-114357865D01*
X152835189Y-114402382D01*
X152706340Y-114462465D01*
X152706338Y-114462466D01*
X152525377Y-114589175D01*
X152369175Y-114745377D01*
X152242466Y-114926338D01*
X152242465Y-114926340D01*
X152149107Y-115126548D01*
X152149104Y-115126554D01*
X152091930Y-115339929D01*
X152091929Y-115339937D01*
X152072677Y-115559997D01*
X152072677Y-115560002D01*
X152082300Y-115669999D01*
X152091930Y-115780068D01*
X152098120Y-115803171D01*
X152103707Y-115824019D01*
X152102044Y-115893869D01*
X152071613Y-115943794D01*
X149307229Y-118708181D01*
X149245906Y-118741666D01*
X149219548Y-118744500D01*
X139387121Y-118744500D01*
X139320082Y-118724815D01*
X139274327Y-118672011D01*
X139264383Y-118602853D01*
X139274738Y-118568096D01*
X139280667Y-118555381D01*
X139290894Y-118533450D01*
X139348070Y-118320068D01*
X139363190Y-118147246D01*
X139367323Y-118100002D01*
X139367323Y-118099997D01*
X139357491Y-117987618D01*
X139348070Y-117879932D01*
X139290894Y-117666550D01*
X139197534Y-117466339D01*
X139105438Y-117334811D01*
X139070827Y-117285381D01*
X139004840Y-117219394D01*
X138914620Y-117129174D01*
X138914616Y-117129171D01*
X138914615Y-117129170D01*
X138733666Y-117002468D01*
X138733658Y-117002464D01*
X138604811Y-116942382D01*
X138552371Y-116896210D01*
X138533219Y-116829017D01*
X138553435Y-116762135D01*
X138604811Y-116717618D01*
X138610802Y-116714824D01*
X138733662Y-116657534D01*
X138914620Y-116530826D01*
X139070826Y-116374620D01*
X139197534Y-116193662D01*
X139290894Y-115993450D01*
X139348070Y-115780068D01*
X139362528Y-115614814D01*
X139367323Y-115560002D01*
X139367323Y-115559997D01*
X139354275Y-115410858D01*
X139348070Y-115339932D01*
X139290894Y-115126550D01*
X139197534Y-114926339D01*
X139070826Y-114745380D01*
X138914620Y-114589174D01*
X138914616Y-114589171D01*
X138914615Y-114589170D01*
X138733666Y-114462468D01*
X138733658Y-114462464D01*
X138604811Y-114402382D01*
X138552371Y-114356210D01*
X138533219Y-114289017D01*
X138553435Y-114222135D01*
X138604811Y-114177618D01*
X138610802Y-114174824D01*
X138733662Y-114117534D01*
X138914620Y-113990826D01*
X139070826Y-113834620D01*
X139197534Y-113653662D01*
X139290894Y-113453450D01*
X139348070Y-113240068D01*
X139362509Y-113075017D01*
X139367323Y-113020002D01*
X139367323Y-113019997D01*
X139348070Y-112799937D01*
X139348070Y-112799932D01*
X139336292Y-112755976D01*
X139337955Y-112686126D01*
X139368384Y-112636204D01*
X139768729Y-112235860D01*
X139768733Y-112235858D01*
X139855858Y-112148733D01*
X139924311Y-112046286D01*
X139971463Y-111932452D01*
X139995500Y-111811606D01*
X139995500Y-102798394D01*
X139991704Y-102779312D01*
X139971463Y-102677548D01*
X139924311Y-102563714D01*
X139892868Y-102516657D01*
X139855857Y-102461265D01*
X139855854Y-102461262D01*
X132634589Y-95239998D01*
X138699532Y-95239998D01*
X138699532Y-95240001D01*
X138719364Y-95466686D01*
X138719366Y-95466697D01*
X138778258Y-95686488D01*
X138778261Y-95686497D01*
X138874431Y-95892732D01*
X138874432Y-95892734D01*
X139004954Y-96079141D01*
X139165858Y-96240045D01*
X139165861Y-96240047D01*
X139352266Y-96370568D01*
X139558504Y-96466739D01*
X139558509Y-96466740D01*
X139558511Y-96466741D01*
X139569487Y-96469682D01*
X139778308Y-96525635D01*
X139940230Y-96539801D01*
X140004998Y-96545468D01*
X140004999Y-96545468D01*
X140004999Y-96545467D01*
X140005000Y-96545468D01*
X140106839Y-96536557D01*
X140175336Y-96550323D01*
X140205326Y-96572404D01*
X141640741Y-98007819D01*
X141674226Y-98069142D01*
X141669242Y-98138834D01*
X141627370Y-98194767D01*
X141561906Y-98219184D01*
X141553060Y-98219500D01*
X141226153Y-98219500D01*
X141071510Y-98250260D01*
X141071502Y-98250262D01*
X140925824Y-98310604D01*
X140925814Y-98310609D01*
X140794711Y-98398210D01*
X140794707Y-98398213D01*
X140205326Y-98987594D01*
X140144003Y-99021079D01*
X140106838Y-99023441D01*
X140005002Y-99014532D01*
X140004998Y-99014532D01*
X139778313Y-99034364D01*
X139778302Y-99034366D01*
X139558511Y-99093258D01*
X139558502Y-99093261D01*
X139352267Y-99189431D01*
X139352265Y-99189432D01*
X139165858Y-99319954D01*
X139004954Y-99480858D01*
X138874432Y-99667265D01*
X138874431Y-99667267D01*
X138778261Y-99873502D01*
X138778258Y-99873511D01*
X138719366Y-100093302D01*
X138719364Y-100093313D01*
X138699532Y-100319998D01*
X138699532Y-100320001D01*
X138719364Y-100546686D01*
X138719366Y-100546697D01*
X138778258Y-100766488D01*
X138778261Y-100766497D01*
X138874431Y-100972732D01*
X138874432Y-100972734D01*
X139004954Y-101159141D01*
X139165858Y-101320045D01*
X139165861Y-101320047D01*
X139352266Y-101450568D01*
X139558504Y-101546739D01*
X139778308Y-101605635D01*
X139940230Y-101619801D01*
X140004998Y-101625468D01*
X140005000Y-101625468D01*
X140005002Y-101625468D01*
X140061673Y-101620509D01*
X140231692Y-101605635D01*
X140451496Y-101546739D01*
X140657734Y-101450568D01*
X140844139Y-101320047D01*
X141005047Y-101159139D01*
X141135568Y-100972734D01*
X141231739Y-100766496D01*
X141290635Y-100546692D01*
X141310468Y-100320000D01*
X141301557Y-100218158D01*
X141315323Y-100149662D01*
X141337398Y-100119679D01*
X141600260Y-99856816D01*
X141661582Y-99823334D01*
X141687940Y-99820500D01*
X146250863Y-99820500D01*
X146317902Y-99840185D01*
X146363657Y-99892989D01*
X146373601Y-99962147D01*
X146370638Y-99976593D01*
X146339366Y-100093302D01*
X146339364Y-100093313D01*
X146319532Y-100319998D01*
X146319532Y-100320001D01*
X146339364Y-100546686D01*
X146339366Y-100546697D01*
X146398258Y-100766488D01*
X146398261Y-100766497D01*
X146494431Y-100972732D01*
X146494432Y-100972734D01*
X146624954Y-101159141D01*
X146785858Y-101320045D01*
X146785861Y-101320047D01*
X146972266Y-101450568D01*
X147178504Y-101546739D01*
X147398308Y-101605635D01*
X147560230Y-101619801D01*
X147624998Y-101625468D01*
X147625000Y-101625468D01*
X147625002Y-101625468D01*
X147681673Y-101620509D01*
X147851692Y-101605635D01*
X148071496Y-101546739D01*
X148277734Y-101450568D01*
X148464139Y-101320047D01*
X148625047Y-101159139D01*
X148755568Y-100972734D01*
X148851739Y-100766496D01*
X148910635Y-100546692D01*
X148930468Y-100320000D01*
X148910635Y-100093308D01*
X148886640Y-100003757D01*
X148879362Y-99976593D01*
X148881025Y-99906743D01*
X148920188Y-99848881D01*
X148984417Y-99821377D01*
X148999137Y-99820500D01*
X156102060Y-99820500D01*
X156169099Y-99840185D01*
X156189741Y-99856819D01*
X156297247Y-99964325D01*
X156330732Y-100025648D01*
X156332039Y-100071404D01*
X156309500Y-100213707D01*
X156309500Y-100213713D01*
X156309500Y-100426287D01*
X156342754Y-100636243D01*
X156404741Y-100827019D01*
X156408444Y-100838414D01*
X156504951Y-101027820D01*
X156629890Y-101199786D01*
X156780213Y-101350109D01*
X156952179Y-101475048D01*
X156952181Y-101475049D01*
X156952184Y-101475051D01*
X157141588Y-101571557D01*
X157343757Y-101637246D01*
X157553713Y-101670500D01*
X157553714Y-101670500D01*
X158016286Y-101670500D01*
X158016287Y-101670500D01*
X158226243Y-101637246D01*
X158428412Y-101571557D01*
X158617816Y-101475051D01*
X158683385Y-101427413D01*
X158789786Y-101350109D01*
X158789788Y-101350106D01*
X158789792Y-101350104D01*
X158940104Y-101199792D01*
X158940106Y-101199788D01*
X158940109Y-101199786D01*
X159065048Y-101027820D01*
X159065047Y-101027820D01*
X159065051Y-101027816D01*
X159161557Y-100838412D01*
X159227246Y-100636243D01*
X159260500Y-100426287D01*
X159260500Y-100213713D01*
X159227246Y-100003757D01*
X159161557Y-99801588D01*
X159065051Y-99612184D01*
X159065049Y-99612181D01*
X159065048Y-99612179D01*
X158940109Y-99440213D01*
X158789792Y-99289896D01*
X158789784Y-99289890D01*
X158625204Y-99170316D01*
X158582540Y-99114989D01*
X158576561Y-99045376D01*
X158609166Y-98983580D01*
X158625199Y-98969686D01*
X158789792Y-98850104D01*
X158940104Y-98699792D01*
X158940106Y-98699788D01*
X158940109Y-98699786D01*
X159065048Y-98527820D01*
X159065047Y-98527820D01*
X159065051Y-98527816D01*
X159161557Y-98338412D01*
X159227246Y-98136243D01*
X159260500Y-97926287D01*
X159260500Y-97713713D01*
X159227246Y-97503757D01*
X159161557Y-97301588D01*
X159065051Y-97112184D01*
X159065049Y-97112181D01*
X159065048Y-97112179D01*
X158940109Y-96940213D01*
X158789792Y-96789896D01*
X158789784Y-96789890D01*
X158625204Y-96670316D01*
X158582540Y-96614989D01*
X158576561Y-96545376D01*
X158609166Y-96483580D01*
X158625199Y-96469686D01*
X158789792Y-96350104D01*
X158940104Y-96199792D01*
X158940106Y-96199788D01*
X158940109Y-96199786D01*
X159065048Y-96027820D01*
X159065047Y-96027820D01*
X159065051Y-96027816D01*
X159161557Y-95838412D01*
X159227246Y-95636243D01*
X159260500Y-95426287D01*
X159260500Y-95213713D01*
X159227246Y-95003757D01*
X159161557Y-94801588D01*
X159065051Y-94612184D01*
X159065049Y-94612181D01*
X159065048Y-94612179D01*
X158940109Y-94440213D01*
X158800931Y-94301035D01*
X158767446Y-94239712D01*
X158772430Y-94170020D01*
X158814302Y-94114087D01*
X158823516Y-94107815D01*
X158978343Y-94012317D01*
X159102315Y-93888345D01*
X159194356Y-93739124D01*
X159194358Y-93739119D01*
X159249505Y-93572697D01*
X159249506Y-93572690D01*
X159259999Y-93469986D01*
X159260000Y-93469973D01*
X159260000Y-93120000D01*
X158156752Y-93120000D01*
X158165095Y-93111657D01*
X158227630Y-93003343D01*
X158260000Y-92882535D01*
X158260000Y-92757465D01*
X158227630Y-92636657D01*
X158165095Y-92528343D01*
X158156752Y-92520000D01*
X159259999Y-92520000D01*
X159259999Y-92170028D01*
X159259998Y-92170013D01*
X159249505Y-92067302D01*
X159194358Y-91900880D01*
X159194356Y-91900875D01*
X159102315Y-91751654D01*
X158978345Y-91627684D01*
X158829124Y-91535643D01*
X158829119Y-91535641D01*
X158662697Y-91480494D01*
X158662690Y-91480493D01*
X158559986Y-91470000D01*
X158085000Y-91470000D01*
X158085000Y-92448248D01*
X158076657Y-92439905D01*
X157968343Y-92377370D01*
X157847535Y-92345000D01*
X157722465Y-92345000D01*
X157601657Y-92377370D01*
X157493343Y-92439905D01*
X157485000Y-92448248D01*
X157485000Y-91470000D01*
X157010028Y-91470000D01*
X157010012Y-91470001D01*
X156907302Y-91480494D01*
X156740880Y-91535641D01*
X156740875Y-91535643D01*
X156591654Y-91627684D01*
X156467684Y-91751654D01*
X156375643Y-91900875D01*
X156375641Y-91900880D01*
X156320494Y-92067302D01*
X156320493Y-92067309D01*
X156310000Y-92170013D01*
X156310000Y-92520000D01*
X157413248Y-92520000D01*
X157404905Y-92528343D01*
X157342370Y-92636657D01*
X157310000Y-92757465D01*
X157310000Y-92882535D01*
X157342370Y-93003343D01*
X157404905Y-93111657D01*
X157413248Y-93120000D01*
X156310001Y-93120000D01*
X156310001Y-93469986D01*
X156320494Y-93572697D01*
X156375641Y-93739119D01*
X156375643Y-93739124D01*
X156467684Y-93888345D01*
X156591654Y-94012315D01*
X156746484Y-94107815D01*
X156793208Y-94159763D01*
X156804431Y-94228726D01*
X156776587Y-94292808D01*
X156769069Y-94301035D01*
X156629896Y-94440208D01*
X156609422Y-94468386D01*
X156554094Y-94511051D01*
X156509106Y-94519500D01*
X148772669Y-94519500D01*
X148705630Y-94499815D01*
X148671094Y-94466623D01*
X148625045Y-94400858D01*
X148464141Y-94239954D01*
X148277734Y-94109432D01*
X148277732Y-94109431D01*
X148071497Y-94013261D01*
X148071488Y-94013258D01*
X147851697Y-93954366D01*
X147851693Y-93954365D01*
X147851692Y-93954365D01*
X147851691Y-93954364D01*
X147851686Y-93954364D01*
X147625002Y-93934532D01*
X147624998Y-93934532D01*
X147398313Y-93954364D01*
X147398302Y-93954366D01*
X147178511Y-94013258D01*
X147178502Y-94013261D01*
X146972267Y-94109431D01*
X146972265Y-94109432D01*
X146785858Y-94239954D01*
X146624954Y-94400858D01*
X146494432Y-94587265D01*
X146494431Y-94587267D01*
X146398261Y-94793502D01*
X146398258Y-94793511D01*
X146339366Y-95013302D01*
X146339364Y-95013313D01*
X146319532Y-95239998D01*
X146319532Y-95240001D01*
X146339364Y-95466686D01*
X146339366Y-95466697D01*
X146398258Y-95686488D01*
X146398261Y-95686497D01*
X146494431Y-95892732D01*
X146494432Y-95892734D01*
X146624954Y-96079141D01*
X146785858Y-96240045D01*
X146785861Y-96240047D01*
X146972266Y-96370568D01*
X147178504Y-96466739D01*
X147178509Y-96466740D01*
X147178511Y-96466741D01*
X147189487Y-96469682D01*
X147398308Y-96525635D01*
X147560230Y-96539801D01*
X147624998Y-96545468D01*
X147625000Y-96545468D01*
X147625002Y-96545468D01*
X147681673Y-96540509D01*
X147851692Y-96525635D01*
X148071496Y-96466739D01*
X148277734Y-96370568D01*
X148464139Y-96240047D01*
X148547368Y-96156817D01*
X148608689Y-96123334D01*
X148635048Y-96120500D01*
X156509106Y-96120500D01*
X156576145Y-96140185D01*
X156609422Y-96171612D01*
X156629896Y-96199792D01*
X156629898Y-96199794D01*
X156780209Y-96350105D01*
X156780214Y-96350109D01*
X156944793Y-96469682D01*
X156987459Y-96525011D01*
X156993438Y-96594625D01*
X156960833Y-96656420D01*
X156944793Y-96670318D01*
X156780214Y-96789890D01*
X156780209Y-96789894D01*
X156629898Y-96940205D01*
X156629898Y-96940206D01*
X156629896Y-96940208D01*
X156609422Y-96968386D01*
X156554094Y-97011051D01*
X156509106Y-97019500D01*
X142967940Y-97019500D01*
X142900901Y-96999815D01*
X142880259Y-96983181D01*
X141337404Y-95440326D01*
X141303919Y-95379003D01*
X141301557Y-95341842D01*
X141310468Y-95240000D01*
X141290635Y-95013308D01*
X141231739Y-94793504D01*
X141135568Y-94587266D01*
X141005047Y-94400861D01*
X141005045Y-94400858D01*
X140844141Y-94239954D01*
X140657734Y-94109432D01*
X140657732Y-94109431D01*
X140451497Y-94013261D01*
X140451488Y-94013258D01*
X140231697Y-93954366D01*
X140231693Y-93954365D01*
X140231692Y-93954365D01*
X140231691Y-93954364D01*
X140231686Y-93954364D01*
X140005002Y-93934532D01*
X140004998Y-93934532D01*
X139778313Y-93954364D01*
X139778302Y-93954366D01*
X139558511Y-94013258D01*
X139558502Y-94013261D01*
X139352267Y-94109431D01*
X139352265Y-94109432D01*
X139165858Y-94239954D01*
X139004954Y-94400858D01*
X138874432Y-94587265D01*
X138874431Y-94587267D01*
X138778261Y-94793502D01*
X138778258Y-94793511D01*
X138719366Y-95013302D01*
X138719364Y-95013313D01*
X138699532Y-95239998D01*
X132634589Y-95239998D01*
X129067928Y-91673338D01*
X129067925Y-91673334D01*
X129067925Y-91673335D01*
X129060858Y-91666268D01*
X129060858Y-91666267D01*
X128973733Y-91579142D01*
X128973732Y-91579141D01*
X128973731Y-91579140D01*
X128922509Y-91544915D01*
X128871287Y-91510689D01*
X128871286Y-91510688D01*
X128871283Y-91510686D01*
X128871280Y-91510685D01*
X128790792Y-91477347D01*
X128757453Y-91463537D01*
X128747427Y-91461543D01*
X128697029Y-91451518D01*
X128636610Y-91439500D01*
X128636607Y-91439500D01*
X128636606Y-91439500D01*
X109349409Y-91439500D01*
X109282370Y-91419815D01*
X109238924Y-91371795D01*
X109155048Y-91207179D01*
X109030109Y-91035213D01*
X108879786Y-90884890D01*
X108707820Y-90759951D01*
X108518414Y-90663444D01*
X108518413Y-90663443D01*
X108518412Y-90663443D01*
X108316243Y-90597754D01*
X108316241Y-90597753D01*
X108316240Y-90597753D01*
X108154957Y-90572208D01*
X108106287Y-90564500D01*
X107893713Y-90564500D01*
X107845042Y-90572208D01*
X107683760Y-90597753D01*
X107481585Y-90663444D01*
X107292179Y-90759951D01*
X107120215Y-90884889D01*
X106981035Y-91024069D01*
X106919712Y-91057553D01*
X106850020Y-91052569D01*
X106794087Y-91010697D01*
X106787815Y-91001484D01*
X106692315Y-90846654D01*
X106568345Y-90722684D01*
X106419124Y-90630643D01*
X106419119Y-90630641D01*
X106252697Y-90575494D01*
X106252690Y-90575493D01*
X106149986Y-90565000D01*
X105800000Y-90565000D01*
X105800000Y-91660855D01*
X105692993Y-91599075D01*
X105565826Y-91565000D01*
X105434174Y-91565000D01*
X105307007Y-91599075D01*
X105200000Y-91660855D01*
X105200000Y-90565000D01*
X104850028Y-90565000D01*
X104850012Y-90565001D01*
X104747302Y-90575494D01*
X104580880Y-90630641D01*
X104580875Y-90630643D01*
X104431654Y-90722684D01*
X104307684Y-90846654D01*
X104215643Y-90995875D01*
X104215641Y-90995880D01*
X104160494Y-91162302D01*
X104160493Y-91162309D01*
X104150000Y-91265013D01*
X104150000Y-91765000D01*
X105095856Y-91765000D01*
X105034075Y-91872007D01*
X105000000Y-91999174D01*
X105000000Y-92130826D01*
X105034075Y-92257993D01*
X105095856Y-92365000D01*
X104150001Y-92365000D01*
X104150001Y-92864986D01*
X104160494Y-92967697D01*
X104215641Y-93134119D01*
X104215643Y-93134124D01*
X104307684Y-93283345D01*
X104431654Y-93407315D01*
X104580875Y-93499356D01*
X104580880Y-93499358D01*
X104747302Y-93554505D01*
X104747309Y-93554506D01*
X104850019Y-93564999D01*
X105199999Y-93564999D01*
X105200000Y-93564998D01*
X105200000Y-92469144D01*
X105307007Y-92530925D01*
X105434174Y-92565000D01*
X105565826Y-92565000D01*
X105692993Y-92530925D01*
X105800000Y-92469144D01*
X105800000Y-93564999D01*
X106149972Y-93564999D01*
X106149986Y-93564998D01*
X106252697Y-93554505D01*
X106419119Y-93499358D01*
X106419124Y-93499356D01*
X106568345Y-93407315D01*
X106692317Y-93283343D01*
X106787815Y-93128516D01*
X106839763Y-93081791D01*
X106908725Y-93070568D01*
X106972808Y-93098412D01*
X106981035Y-93105931D01*
X107120213Y-93245109D01*
X107292179Y-93370048D01*
X107292181Y-93370049D01*
X107292184Y-93370051D01*
X107481588Y-93466557D01*
X107683757Y-93532246D01*
X107893713Y-93565500D01*
X107893714Y-93565500D01*
X108106286Y-93565500D01*
X108106287Y-93565500D01*
X108316243Y-93532246D01*
X108518412Y-93466557D01*
X108707816Y-93370051D01*
X108811116Y-93295000D01*
X108879786Y-93245109D01*
X108879788Y-93245106D01*
X108879792Y-93245104D01*
X109030104Y-93094792D01*
X109030106Y-93094788D01*
X109030109Y-93094786D01*
X109155048Y-92922820D01*
X109155047Y-92922820D01*
X109155051Y-92922816D01*
X109238924Y-92758204D01*
X109286898Y-92707409D01*
X109349409Y-92690500D01*
X112600548Y-92690500D01*
X112667587Y-92710185D01*
X112713342Y-92762989D01*
X112723286Y-92832147D01*
X112694261Y-92895703D01*
X112688229Y-92902181D01*
X104877227Y-100713181D01*
X104815904Y-100746666D01*
X104789546Y-100749500D01*
X103599998Y-100749500D01*
X103599981Y-100749501D01*
X103497203Y-100760000D01*
X103497200Y-100760001D01*
X103330668Y-100815185D01*
X103330663Y-100815187D01*
X103181342Y-100907289D01*
X103057289Y-101031342D01*
X102965187Y-101180663D01*
X102965186Y-101180666D01*
X102910001Y-101347203D01*
X102910001Y-101347204D01*
X102910000Y-101347204D01*
X102899500Y-101449983D01*
X101270000Y-101449983D01*
X101270000Y-86001132D01*
X101289685Y-85934093D01*
X101342489Y-85888338D01*
X101411647Y-85878394D01*
X101475203Y-85907419D01*
X101503555Y-85943049D01*
X101612784Y-86149077D01*
X101612787Y-86149082D01*
X101612789Y-86149085D01*
X101749015Y-86350004D01*
X101813634Y-86445309D01*
X101813641Y-86445319D01*
X101961253Y-86619101D01*
X102045332Y-86718086D01*
X102305163Y-86964211D01*
X102590081Y-87180800D01*
X102896747Y-87365315D01*
X102896749Y-87365316D01*
X102896751Y-87365317D01*
X102896755Y-87365319D01*
X103221552Y-87515585D01*
X103221565Y-87515591D01*
X103560726Y-87629868D01*
X103910254Y-87706805D01*
X104266052Y-87745500D01*
X104266058Y-87745500D01*
X104623942Y-87745500D01*
X104623948Y-87745500D01*
X104979746Y-87706805D01*
X105329274Y-87629868D01*
X105668435Y-87515591D01*
X105993253Y-87365315D01*
X106299919Y-87180800D01*
X106584837Y-86964211D01*
X106844668Y-86718086D01*
X107076365Y-86445311D01*
X107140991Y-86349995D01*
X128039451Y-86349995D01*
X128039451Y-86350004D01*
X128059616Y-86619101D01*
X128119664Y-86882188D01*
X128119666Y-86882195D01*
X128165901Y-87000000D01*
X128218257Y-87133398D01*
X128353185Y-87367102D01*
X128489080Y-87537509D01*
X128521442Y-87578089D01*
X128701870Y-87745500D01*
X128719259Y-87761635D01*
X128942226Y-87913651D01*
X129185359Y-88030738D01*
X129443228Y-88110280D01*
X129443229Y-88110280D01*
X129443232Y-88110281D01*
X129710063Y-88150499D01*
X129710068Y-88150499D01*
X129710071Y-88150500D01*
X129710072Y-88150500D01*
X129979928Y-88150500D01*
X129979929Y-88150500D01*
X129979936Y-88150499D01*
X130246767Y-88110281D01*
X130246768Y-88110280D01*
X130246772Y-88110280D01*
X130504641Y-88030738D01*
X130747775Y-87913651D01*
X130970741Y-87761635D01*
X131168561Y-87578085D01*
X131336815Y-87367102D01*
X131471743Y-87133398D01*
X131570334Y-86882195D01*
X131630383Y-86619103D01*
X131650549Y-86350000D01*
X131630383Y-86080897D01*
X131570334Y-85817805D01*
X131471743Y-85566602D01*
X131336815Y-85332898D01*
X131168561Y-85121915D01*
X131168560Y-85121914D01*
X131168557Y-85121910D01*
X131039469Y-85002135D01*
X133044500Y-85002135D01*
X133044500Y-87697870D01*
X133044501Y-87697876D01*
X133050908Y-87757483D01*
X133101202Y-87892328D01*
X133101206Y-87892335D01*
X133187452Y-88007544D01*
X133187455Y-88007547D01*
X133302664Y-88093793D01*
X133302671Y-88093797D01*
X133437517Y-88144091D01*
X133437516Y-88144091D01*
X133444444Y-88144835D01*
X133497127Y-88150500D01*
X136192872Y-88150499D01*
X136252483Y-88144091D01*
X136387331Y-88093796D01*
X136502546Y-88007546D01*
X136588796Y-87892331D01*
X136639091Y-87757483D01*
X136645500Y-87697873D01*
X136645499Y-86349995D01*
X140104451Y-86349995D01*
X140104451Y-86350004D01*
X140124616Y-86619101D01*
X140184664Y-86882188D01*
X140184666Y-86882195D01*
X140230901Y-87000000D01*
X140283257Y-87133398D01*
X140418185Y-87367102D01*
X140554080Y-87537509D01*
X140586442Y-87578089D01*
X140766870Y-87745500D01*
X140784259Y-87761635D01*
X141007226Y-87913651D01*
X141250359Y-88030738D01*
X141508228Y-88110280D01*
X141508229Y-88110280D01*
X141508232Y-88110281D01*
X141775063Y-88150499D01*
X141775068Y-88150499D01*
X141775071Y-88150500D01*
X141775072Y-88150500D01*
X142044928Y-88150500D01*
X142044929Y-88150500D01*
X142044936Y-88150499D01*
X142311767Y-88110281D01*
X142311768Y-88110280D01*
X142311772Y-88110280D01*
X142569641Y-88030738D01*
X142812775Y-87913651D01*
X143035741Y-87761635D01*
X143233561Y-87578085D01*
X143401815Y-87367102D01*
X143536743Y-87133398D01*
X143635334Y-86882195D01*
X143695383Y-86619103D01*
X143715549Y-86350000D01*
X143695383Y-86080897D01*
X143635334Y-85817805D01*
X143536743Y-85566602D01*
X143401815Y-85332898D01*
X143233561Y-85121915D01*
X143233560Y-85121914D01*
X143233557Y-85121910D01*
X143104491Y-85002155D01*
X145110000Y-85002155D01*
X145110000Y-86050000D01*
X146330710Y-86050000D01*
X146284979Y-86160402D01*
X146260000Y-86285981D01*
X146260000Y-86414019D01*
X146284979Y-86539598D01*
X146330710Y-86650000D01*
X145110000Y-86650000D01*
X145110000Y-87697844D01*
X145116401Y-87757372D01*
X145116403Y-87757379D01*
X145166645Y-87892086D01*
X145166649Y-87892093D01*
X145252809Y-88007187D01*
X145252812Y-88007190D01*
X145367906Y-88093350D01*
X145367913Y-88093354D01*
X145502620Y-88143596D01*
X145502627Y-88143598D01*
X145562155Y-88149999D01*
X145562172Y-88150000D01*
X146610000Y-88150000D01*
X146610000Y-86929290D01*
X146720402Y-86975021D01*
X146845981Y-87000000D01*
X146974019Y-87000000D01*
X147099598Y-86975021D01*
X147210000Y-86929290D01*
X147210000Y-88150000D01*
X148257828Y-88150000D01*
X148257844Y-88149999D01*
X148317372Y-88143598D01*
X148317379Y-88143596D01*
X148452086Y-88093354D01*
X148452093Y-88093350D01*
X148567187Y-88007190D01*
X148567190Y-88007187D01*
X148653350Y-87892093D01*
X148653354Y-87892086D01*
X148703596Y-87757379D01*
X148703598Y-87757372D01*
X148709999Y-87697844D01*
X148710000Y-87697827D01*
X148710000Y-86650000D01*
X147489290Y-86650000D01*
X147535021Y-86539598D01*
X147560000Y-86414019D01*
X147560000Y-86285981D01*
X147535021Y-86160402D01*
X147489290Y-86050000D01*
X148710000Y-86050000D01*
X148710000Y-85002172D01*
X148709999Y-85002155D01*
X148703598Y-84942627D01*
X148703596Y-84942620D01*
X148653354Y-84807913D01*
X148653350Y-84807906D01*
X148567190Y-84692812D01*
X148567187Y-84692809D01*
X148452093Y-84606649D01*
X148452086Y-84606645D01*
X148317379Y-84556403D01*
X148317372Y-84556401D01*
X148257844Y-84550000D01*
X147210000Y-84550000D01*
X147210000Y-85770709D01*
X147099598Y-85724979D01*
X146974019Y-85700000D01*
X146845981Y-85700000D01*
X146720402Y-85724979D01*
X146610000Y-85770709D01*
X146610000Y-84550000D01*
X145562155Y-84550000D01*
X145502627Y-84556401D01*
X145502620Y-84556403D01*
X145367913Y-84606645D01*
X145367906Y-84606649D01*
X145252812Y-84692809D01*
X145252809Y-84692812D01*
X145166649Y-84807906D01*
X145166645Y-84807913D01*
X145116403Y-84942620D01*
X145116401Y-84942627D01*
X145110000Y-85002155D01*
X143104491Y-85002155D01*
X143035741Y-84938365D01*
X142812775Y-84786349D01*
X142812769Y-84786346D01*
X142812768Y-84786345D01*
X142812767Y-84786344D01*
X142569643Y-84669263D01*
X142569645Y-84669263D01*
X142311773Y-84589720D01*
X142311767Y-84589718D01*
X142044936Y-84549500D01*
X142044929Y-84549500D01*
X141775071Y-84549500D01*
X141775063Y-84549500D01*
X141508232Y-84589718D01*
X141508226Y-84589720D01*
X141250358Y-84669262D01*
X141007230Y-84786346D01*
X140784258Y-84938365D01*
X140586442Y-85121910D01*
X140418185Y-85332898D01*
X140283258Y-85566599D01*
X140283256Y-85566603D01*
X140184666Y-85817804D01*
X140184664Y-85817811D01*
X140124616Y-86080898D01*
X140104451Y-86349995D01*
X136645499Y-86349995D01*
X136645499Y-85002128D01*
X136639091Y-84942517D01*
X136637542Y-84938365D01*
X136588797Y-84807671D01*
X136588793Y-84807664D01*
X136502547Y-84692455D01*
X136502544Y-84692452D01*
X136387335Y-84606206D01*
X136387328Y-84606202D01*
X136252482Y-84555908D01*
X136252483Y-84555908D01*
X136192883Y-84549501D01*
X136192881Y-84549500D01*
X136192873Y-84549500D01*
X136192864Y-84549500D01*
X133497129Y-84549500D01*
X133497123Y-84549501D01*
X133437516Y-84555908D01*
X133302671Y-84606202D01*
X133302664Y-84606206D01*
X133187455Y-84692452D01*
X133187452Y-84692455D01*
X133101206Y-84807664D01*
X133101202Y-84807671D01*
X133050908Y-84942517D01*
X133044501Y-85002116D01*
X133044501Y-85002123D01*
X133044500Y-85002135D01*
X131039469Y-85002135D01*
X130970741Y-84938365D01*
X130747775Y-84786349D01*
X130747769Y-84786346D01*
X130747768Y-84786345D01*
X130747767Y-84786344D01*
X130504643Y-84669263D01*
X130504645Y-84669263D01*
X130246773Y-84589720D01*
X130246767Y-84589718D01*
X129979936Y-84549500D01*
X129979929Y-84549500D01*
X129710071Y-84549500D01*
X129710063Y-84549500D01*
X129443232Y-84589718D01*
X129443226Y-84589720D01*
X129185358Y-84669262D01*
X128942230Y-84786346D01*
X128719258Y-84938365D01*
X128521442Y-85121910D01*
X128353185Y-85332898D01*
X128218258Y-85566599D01*
X128218256Y-85566603D01*
X128119666Y-85817804D01*
X128119664Y-85817811D01*
X128059616Y-86080898D01*
X128039451Y-86349995D01*
X107140991Y-86349995D01*
X107277211Y-86149085D01*
X107444853Y-85832880D01*
X107577324Y-85500403D01*
X107673071Y-85155552D01*
X107707978Y-84942627D01*
X107730970Y-84802385D01*
X107730970Y-84802382D01*
X107730972Y-84802371D01*
X107750348Y-84445000D01*
X107730972Y-84087629D01*
X107720005Y-84020736D01*
X107673073Y-83734460D01*
X107673072Y-83734459D01*
X107673071Y-83734448D01*
X107655181Y-83670013D01*
X115240000Y-83670013D01*
X115240000Y-84145000D01*
X116218248Y-84145000D01*
X116209905Y-84153343D01*
X116147370Y-84261657D01*
X116115000Y-84382465D01*
X116115000Y-84507535D01*
X116147370Y-84628343D01*
X116209905Y-84736657D01*
X116218248Y-84745000D01*
X115240001Y-84745000D01*
X115240001Y-85219986D01*
X115250494Y-85322697D01*
X115305641Y-85489119D01*
X115305643Y-85489124D01*
X115397684Y-85638345D01*
X115521654Y-85762315D01*
X115670875Y-85854356D01*
X115670880Y-85854358D01*
X115837302Y-85909505D01*
X115837309Y-85909506D01*
X115940019Y-85919999D01*
X116289999Y-85919999D01*
X116290000Y-85919998D01*
X116290000Y-84816752D01*
X116298343Y-84825095D01*
X116406657Y-84887630D01*
X116527465Y-84920000D01*
X116652535Y-84920000D01*
X116773343Y-84887630D01*
X116881657Y-84825095D01*
X116890000Y-84816752D01*
X116890000Y-85919999D01*
X117239972Y-85919999D01*
X117239986Y-85919998D01*
X117342697Y-85909505D01*
X117509119Y-85854358D01*
X117509124Y-85854356D01*
X117658345Y-85762315D01*
X117782317Y-85638343D01*
X117877815Y-85483516D01*
X117929763Y-85436791D01*
X117998725Y-85425568D01*
X118062808Y-85453412D01*
X118071035Y-85460931D01*
X118210213Y-85600109D01*
X118382179Y-85725048D01*
X118382181Y-85725049D01*
X118382184Y-85725051D01*
X118571588Y-85821557D01*
X118773757Y-85887246D01*
X118983713Y-85920500D01*
X118983714Y-85920500D01*
X119196286Y-85920500D01*
X119196287Y-85920500D01*
X119406243Y-85887246D01*
X119608412Y-85821557D01*
X119797816Y-85725051D01*
X119832296Y-85700000D01*
X119969786Y-85600109D01*
X119969788Y-85600106D01*
X119969792Y-85600104D01*
X120120104Y-85449792D01*
X120239683Y-85285204D01*
X120295011Y-85242540D01*
X120364624Y-85236561D01*
X120426420Y-85269166D01*
X120440313Y-85285199D01*
X120526620Y-85403991D01*
X120559896Y-85449792D01*
X120710213Y-85600109D01*
X120882179Y-85725048D01*
X120882181Y-85725049D01*
X120882184Y-85725051D01*
X121071588Y-85821557D01*
X121273757Y-85887246D01*
X121483713Y-85920500D01*
X121483714Y-85920500D01*
X121696286Y-85920500D01*
X121696287Y-85920500D01*
X121906243Y-85887246D01*
X122108412Y-85821557D01*
X122297816Y-85725051D01*
X122332296Y-85700000D01*
X122469786Y-85600109D01*
X122469788Y-85600106D01*
X122469792Y-85600104D01*
X122620104Y-85449792D01*
X122620106Y-85449788D01*
X122620109Y-85449786D01*
X122745048Y-85277820D01*
X122745047Y-85277820D01*
X122745051Y-85277816D01*
X122841557Y-85088412D01*
X122907246Y-84886243D01*
X122940500Y-84676287D01*
X122940500Y-84213713D01*
X122907246Y-84003757D01*
X122841557Y-83801588D01*
X122745051Y-83612184D01*
X122745049Y-83612181D01*
X122745048Y-83612179D01*
X122620109Y-83440213D01*
X122469786Y-83289890D01*
X122297820Y-83164951D01*
X122108414Y-83068444D01*
X122108413Y-83068443D01*
X122108412Y-83068443D01*
X121906243Y-83002754D01*
X121906241Y-83002753D01*
X121906240Y-83002753D01*
X121744957Y-82977208D01*
X121696287Y-82969500D01*
X121483713Y-82969500D01*
X121435042Y-82977208D01*
X121273760Y-83002753D01*
X121071585Y-83068444D01*
X120882179Y-83164951D01*
X120710213Y-83289890D01*
X120559894Y-83440209D01*
X120559890Y-83440214D01*
X120440318Y-83604793D01*
X120384989Y-83647459D01*
X120315375Y-83653438D01*
X120253580Y-83620833D01*
X120239682Y-83604793D01*
X120120109Y-83440214D01*
X120120105Y-83440209D01*
X119969786Y-83289890D01*
X119797820Y-83164951D01*
X119608414Y-83068444D01*
X119608413Y-83068443D01*
X119608412Y-83068443D01*
X119406243Y-83002754D01*
X119406241Y-83002753D01*
X119406240Y-83002753D01*
X119244957Y-82977208D01*
X119196287Y-82969500D01*
X118983713Y-82969500D01*
X118935042Y-82977208D01*
X118773760Y-83002753D01*
X118571585Y-83068444D01*
X118382179Y-83164951D01*
X118210215Y-83289889D01*
X118071035Y-83429069D01*
X118009712Y-83462553D01*
X117940020Y-83457569D01*
X117884087Y-83415697D01*
X117877815Y-83406484D01*
X117782315Y-83251654D01*
X117658345Y-83127684D01*
X117509124Y-83035643D01*
X117509119Y-83035641D01*
X117342697Y-82980494D01*
X117342690Y-82980493D01*
X117239986Y-82970000D01*
X116890000Y-82970000D01*
X116890000Y-84073248D01*
X116881657Y-84064905D01*
X116773343Y-84002370D01*
X116652535Y-83970000D01*
X116527465Y-83970000D01*
X116406657Y-84002370D01*
X116298343Y-84064905D01*
X116290000Y-84073248D01*
X116290000Y-82970000D01*
X115940028Y-82970000D01*
X115940012Y-82970001D01*
X115837302Y-82980494D01*
X115670880Y-83035641D01*
X115670875Y-83035643D01*
X115521654Y-83127684D01*
X115397684Y-83251654D01*
X115305643Y-83400875D01*
X115305641Y-83400880D01*
X115250494Y-83567302D01*
X115250493Y-83567309D01*
X115240000Y-83670013D01*
X107655181Y-83670013D01*
X107591378Y-83440214D01*
X107577327Y-83389607D01*
X107577325Y-83389600D01*
X107444857Y-83057129D01*
X107444848Y-83057111D01*
X107433466Y-83035643D01*
X107277211Y-82740915D01*
X107076365Y-82444689D01*
X107076361Y-82444684D01*
X107076358Y-82444680D01*
X106844668Y-82171914D01*
X106584837Y-81925789D01*
X106584830Y-81925783D01*
X106584827Y-81925781D01*
X106517245Y-81874407D01*
X106299919Y-81709200D01*
X106124418Y-81603604D01*
X105993254Y-81524685D01*
X105973779Y-81515675D01*
X105954030Y-81506539D01*
X105901454Y-81460525D01*
X105882100Y-81393390D01*
X105902114Y-81326448D01*
X105955142Y-81280954D01*
X106006098Y-81270000D01*
X170193902Y-81270000D01*
X170260941Y-81289685D01*
G37*
%TD.AperFunction*%
%TD*%
M02*
