%TF.GenerationSoftware,KiCad,Pcbnew,8.0.3*%
%TF.CreationDate,2024-07-03T22:45:41+01:00*%
%TF.ProjectId,Wand Board ESP32,57616e64-2042-46f6-9172-642045535033,rev?*%
%TF.SameCoordinates,Original*%
%TF.FileFunction,Copper,L2,Bot*%
%TF.FilePolarity,Positive*%
%FSLAX46Y46*%
G04 Gerber Fmt 4.6, Leading zero omitted, Abs format (unit mm)*
G04 Created by KiCad (PCBNEW 8.0.3) date 2024-07-03 22:45:41*
%MOMM*%
%LPD*%
G01*
G04 APERTURE LIST*
G04 Aperture macros list*
%AMRoundRect*
0 Rectangle with rounded corners*
0 $1 Rounding radius*
0 $2 $3 $4 $5 $6 $7 $8 $9 X,Y pos of 4 corners*
0 Add a 4 corners polygon primitive as box body*
4,1,4,$2,$3,$4,$5,$6,$7,$8,$9,$2,$3,0*
0 Add four circle primitives for the rounded corners*
1,1,$1+$1,$2,$3*
1,1,$1+$1,$4,$5*
1,1,$1+$1,$6,$7*
1,1,$1+$1,$8,$9*
0 Add four rect primitives between the rounded corners*
20,1,$1+$1,$2,$3,$4,$5,0*
20,1,$1+$1,$4,$5,$6,$7,0*
20,1,$1+$1,$6,$7,$8,$9,0*
20,1,$1+$1,$8,$9,$2,$3,0*%
G04 Aperture macros list end*
%TA.AperFunction,ComponentPad*%
%ADD10C,1.600000*%
%TD*%
%TA.AperFunction,ComponentPad*%
%ADD11O,1.600000X1.600000*%
%TD*%
%TA.AperFunction,ComponentPad*%
%ADD12RoundRect,0.250000X-0.600000X-0.725000X0.600000X-0.725000X0.600000X0.725000X-0.600000X0.725000X0*%
%TD*%
%TA.AperFunction,ComponentPad*%
%ADD13O,1.700000X1.950000*%
%TD*%
%TA.AperFunction,ComponentPad*%
%ADD14R,1.200000X1.200000*%
%TD*%
%TA.AperFunction,ComponentPad*%
%ADD15C,1.200000*%
%TD*%
%TA.AperFunction,ComponentPad*%
%ADD16R,2.200000X2.200000*%
%TD*%
%TA.AperFunction,ComponentPad*%
%ADD17O,2.200000X2.200000*%
%TD*%
%TA.AperFunction,ComponentPad*%
%ADD18C,2.600000*%
%TD*%
%TA.AperFunction,ComponentPad*%
%ADD19R,2.600000X2.600000*%
%TD*%
%TA.AperFunction,ComponentPad*%
%ADD20RoundRect,0.250000X-0.600000X-0.750000X0.600000X-0.750000X0.600000X0.750000X-0.600000X0.750000X0*%
%TD*%
%TA.AperFunction,ComponentPad*%
%ADD21O,1.700000X2.000000*%
%TD*%
%TA.AperFunction,ComponentPad*%
%ADD22R,1.600000X1.600000*%
%TD*%
%TA.AperFunction,ComponentPad*%
%ADD23RoundRect,0.250000X-0.725000X0.600000X-0.725000X-0.600000X0.725000X-0.600000X0.725000X0.600000X0*%
%TD*%
%TA.AperFunction,ComponentPad*%
%ADD24O,1.950000X1.700000*%
%TD*%
%TA.AperFunction,ComponentPad*%
%ADD25R,1.500000X1.050000*%
%TD*%
%TA.AperFunction,ComponentPad*%
%ADD26O,1.500000X1.050000*%
%TD*%
%TA.AperFunction,ComponentPad*%
%ADD27C,6.400000*%
%TD*%
%TA.AperFunction,ComponentPad*%
%ADD28C,1.524000*%
%TD*%
%TA.AperFunction,Conductor*%
%ADD29C,0.250000*%
%TD*%
%TA.AperFunction,Conductor*%
%ADD30C,0.600000*%
%TD*%
G04 APERTURE END LIST*
D10*
X101600000Y-82550000D03*
D11*
X101600000Y-90170000D03*
D10*
X104850000Y-82550000D03*
D11*
X104850000Y-90170000D03*
D10*
X128524000Y-77724000D03*
D11*
X136144000Y-77724000D03*
D10*
X128524000Y-72898000D03*
D11*
X136144000Y-72898000D03*
D10*
X57150000Y-78740000D03*
D11*
X64770000Y-78740000D03*
D12*
X57270000Y-71120000D03*
D13*
X59770000Y-71120000D03*
X62270000Y-71120000D03*
X64770000Y-71120000D03*
D12*
X57270000Y-85090000D03*
D13*
X59770000Y-85090000D03*
X62270000Y-85090000D03*
X64770000Y-85090000D03*
D12*
X58460000Y-96774000D03*
D13*
X60960000Y-96774000D03*
X63460000Y-96774000D03*
D14*
X111760000Y-72358000D03*
D15*
X111760000Y-70358000D03*
D13*
X90678000Y-96774000D03*
X88178000Y-96774000D03*
D12*
X85678000Y-96774000D03*
D16*
X117094000Y-77724000D03*
D17*
X106934000Y-77724000D03*
D18*
X90852000Y-116332000D03*
D19*
X85852000Y-116332000D03*
D12*
X119380000Y-96774000D03*
D13*
X121880000Y-96774000D03*
X124380000Y-96774000D03*
X126880000Y-96774000D03*
D20*
X99100000Y-106680000D03*
D21*
X101600000Y-106680000D03*
D22*
X73660000Y-89214888D03*
D10*
X73660000Y-91214888D03*
D20*
X99100000Y-96774000D03*
D21*
X101600000Y-96774000D03*
D12*
X85678000Y-106680000D03*
D13*
X88178000Y-106680000D03*
X90678000Y-106680000D03*
D20*
X121706000Y-89408000D03*
D21*
X124206000Y-89408000D03*
D23*
X134850000Y-88900000D03*
D24*
X134850000Y-91400000D03*
X134850000Y-93900000D03*
X134850000Y-96400000D03*
D20*
X121666000Y-82042000D03*
D21*
X124166000Y-82042000D03*
D22*
X69850000Y-69850000D03*
D11*
X69850000Y-72390000D03*
X69850000Y-74930000D03*
X69850000Y-77470000D03*
X69850000Y-80010000D03*
X69850000Y-82550000D03*
X69850000Y-85090000D03*
X77470000Y-85090000D03*
X77470000Y-82550000D03*
X77470000Y-80010000D03*
X77470000Y-77470000D03*
X77470000Y-74930000D03*
X77470000Y-72390000D03*
X77470000Y-69850000D03*
D21*
X111974000Y-96774000D03*
D20*
X109474000Y-96774000D03*
X72430000Y-96774000D03*
D21*
X74930000Y-96774000D03*
D19*
X98044000Y-116332000D03*
D18*
X103044000Y-116332000D03*
D25*
X102108000Y-77470000D03*
D26*
X102108000Y-76200000D03*
X102108000Y-74930000D03*
D27*
X113500000Y-84625000D03*
D20*
X121666000Y-72136000D03*
D21*
X124166000Y-72136000D03*
D28*
X82605000Y-70250000D03*
X82605000Y-72790000D03*
X82605000Y-75330000D03*
X82605000Y-77870000D03*
X82605000Y-80410000D03*
X82605000Y-82950000D03*
X82605000Y-85490000D03*
X82605000Y-88030000D03*
X82605000Y-90570000D03*
X97845000Y-90570000D03*
X97845000Y-88030000D03*
X97845000Y-85490000D03*
X97845000Y-82950000D03*
X97845000Y-80410000D03*
X97845000Y-77870000D03*
X97845000Y-75330000D03*
X97845000Y-72790000D03*
X97845000Y-70250000D03*
D29*
X59222000Y-68072000D02*
X62270000Y-71120000D01*
X54864000Y-70104000D02*
X56896000Y-68072000D01*
X54864000Y-76454000D02*
X54864000Y-70104000D01*
X56896000Y-68072000D02*
X59222000Y-68072000D01*
X57150000Y-78740000D02*
X54864000Y-76454000D01*
D30*
X121880000Y-98338000D02*
X121880000Y-96774000D01*
X107569000Y-100457000D02*
X119761000Y-100457000D01*
X119761000Y-100457000D02*
X121880000Y-98338000D01*
X105791000Y-118491000D02*
X105791000Y-102235000D01*
X105791000Y-102235000D02*
X107569000Y-100457000D01*
X94361000Y-118237000D02*
X96520000Y-120396000D01*
X94361000Y-115570000D02*
X94361000Y-118237000D01*
X86995000Y-112903000D02*
X91694000Y-112903000D01*
X83820000Y-109728000D02*
X86995000Y-112903000D01*
X96520000Y-120396000D02*
X103886000Y-120396000D01*
X91694000Y-112903000D02*
X94361000Y-115570000D01*
X83820000Y-98632000D02*
X83820000Y-109728000D01*
X85678000Y-96774000D02*
X83820000Y-98632000D01*
X103886000Y-120396000D02*
X105791000Y-118491000D01*
X81164000Y-81672000D02*
X79756000Y-80264000D01*
X83682000Y-81672000D02*
X81164000Y-81672000D01*
X96366000Y-68988000D02*
X83682000Y-81672000D01*
X111728000Y-72358000D02*
X108358000Y-68988000D01*
X111760000Y-72358000D02*
X111728000Y-72358000D01*
X108358000Y-68988000D02*
X96366000Y-68988000D01*
X76393112Y-89214888D02*
X73660000Y-89214888D01*
X79756000Y-85852000D02*
X76393112Y-89214888D01*
X79756000Y-73099000D02*
X79756000Y-85852000D01*
X82605000Y-70250000D02*
X79756000Y-73099000D01*
X93980000Y-112268000D02*
X98044000Y-116332000D01*
X93980000Y-74115000D02*
X93980000Y-112268000D01*
X97845000Y-70250000D02*
X93980000Y-74115000D01*
D29*
X66040000Y-78740000D02*
X69850000Y-82550000D01*
X64770000Y-78740000D02*
X66040000Y-78740000D01*
X62270000Y-73620000D02*
X64770000Y-71120000D01*
X62270000Y-85090000D02*
X62270000Y-73620000D01*
X63460000Y-86400000D02*
X64770000Y-85090000D01*
X63460000Y-96774000D02*
X63460000Y-86400000D01*
D30*
X95504000Y-75131000D02*
X97845000Y-72790000D01*
X95504000Y-108792000D02*
X95504000Y-75131000D01*
X103044000Y-116332000D02*
X95504000Y-108792000D01*
D29*
X123698000Y-68072000D02*
X128524000Y-72898000D01*
X94996000Y-68072000D02*
X123698000Y-68072000D01*
X82658000Y-80410000D02*
X94996000Y-68072000D01*
X82605000Y-80410000D02*
X82658000Y-80410000D01*
X131826000Y-74422000D02*
X128524000Y-77724000D01*
X131826000Y-72136000D02*
X131826000Y-74422000D01*
X127000000Y-67310000D02*
X131826000Y-72136000D01*
X93165000Y-67310000D02*
X127000000Y-67310000D01*
X82605000Y-77870000D02*
X93165000Y-67310000D01*
%TA.AperFunction,Conductor*%
G36*
X92929650Y-66519685D02*
G01*
X92975405Y-66572489D01*
X92985349Y-66641647D01*
X92956324Y-66705203D01*
X92910064Y-66738561D01*
X92868717Y-66755687D01*
X92868707Y-66755692D01*
X92766268Y-66824140D01*
X92722705Y-66867703D01*
X92679142Y-66911267D01*
X92679139Y-66911270D01*
X84076016Y-75514392D01*
X84014693Y-75547877D01*
X83945001Y-75542893D01*
X83889068Y-75501021D01*
X83864651Y-75435557D01*
X83864806Y-75415911D01*
X83872323Y-75330000D01*
X83853070Y-75109932D01*
X83795894Y-74896550D01*
X83702534Y-74696339D01*
X83575826Y-74515380D01*
X83419620Y-74359174D01*
X83419616Y-74359171D01*
X83419615Y-74359170D01*
X83238666Y-74232468D01*
X83238658Y-74232464D01*
X83109219Y-74172106D01*
X83056779Y-74125934D01*
X83037627Y-74058741D01*
X83057843Y-73991859D01*
X83109219Y-73947342D01*
X83238404Y-73887102D01*
X83238415Y-73887096D01*
X83261598Y-73870862D01*
X83261598Y-73870861D01*
X82605001Y-73214264D01*
X82605000Y-73214264D01*
X81948401Y-73870861D01*
X81971593Y-73887101D01*
X82100780Y-73947342D01*
X82153220Y-73993514D01*
X82172372Y-74060707D01*
X82152156Y-74127589D01*
X82100781Y-74172106D01*
X81971340Y-74232465D01*
X81971338Y-74232466D01*
X81790377Y-74359175D01*
X81634175Y-74515377D01*
X81507466Y-74696338D01*
X81507465Y-74696340D01*
X81414107Y-74896548D01*
X81414104Y-74896554D01*
X81356930Y-75109929D01*
X81356929Y-75109937D01*
X81337677Y-75329997D01*
X81337677Y-75330002D01*
X81356929Y-75550062D01*
X81356930Y-75550070D01*
X81414104Y-75763445D01*
X81414105Y-75763447D01*
X81414106Y-75763450D01*
X81491790Y-75930045D01*
X81507466Y-75963662D01*
X81507468Y-75963666D01*
X81634170Y-76144615D01*
X81634175Y-76144621D01*
X81790378Y-76300824D01*
X81790384Y-76300829D01*
X81971333Y-76427531D01*
X81971335Y-76427532D01*
X81971338Y-76427534D01*
X82073578Y-76475209D01*
X82100189Y-76487618D01*
X82152628Y-76533790D01*
X82171780Y-76600984D01*
X82151564Y-76667865D01*
X82100189Y-76712382D01*
X81971340Y-76772465D01*
X81971338Y-76772466D01*
X81790377Y-76899175D01*
X81634175Y-77055377D01*
X81507466Y-77236338D01*
X81507465Y-77236340D01*
X81424572Y-77414103D01*
X81417650Y-77428951D01*
X81414107Y-77436548D01*
X81414104Y-77436554D01*
X81356930Y-77649929D01*
X81356929Y-77649937D01*
X81337677Y-77869997D01*
X81337677Y-77870002D01*
X81356929Y-78090062D01*
X81356930Y-78090070D01*
X81414104Y-78303445D01*
X81414105Y-78303447D01*
X81414106Y-78303450D01*
X81477011Y-78438350D01*
X81507466Y-78503662D01*
X81507468Y-78503666D01*
X81634170Y-78684615D01*
X81634175Y-78684621D01*
X81790378Y-78840824D01*
X81790384Y-78840829D01*
X81971333Y-78967531D01*
X81971335Y-78967532D01*
X81971338Y-78967534D01*
X82089934Y-79022836D01*
X82100189Y-79027618D01*
X82152628Y-79073790D01*
X82171780Y-79140984D01*
X82151564Y-79207865D01*
X82100189Y-79252382D01*
X81971340Y-79312465D01*
X81971338Y-79312466D01*
X81790377Y-79439175D01*
X81634175Y-79595377D01*
X81507466Y-79776338D01*
X81507465Y-79776340D01*
X81414107Y-79976548D01*
X81414104Y-79976554D01*
X81356930Y-80189929D01*
X81356929Y-80189937D01*
X81337677Y-80409997D01*
X81337677Y-80414237D01*
X81317992Y-80481276D01*
X81265188Y-80527031D01*
X81196030Y-80536975D01*
X81132474Y-80507950D01*
X81125996Y-80501918D01*
X80592819Y-79968741D01*
X80559334Y-79907418D01*
X80556500Y-79881060D01*
X80556500Y-73481939D01*
X80576185Y-73414900D01*
X80592814Y-73394263D01*
X81138797Y-72848279D01*
X81200117Y-72814797D01*
X81269808Y-72819781D01*
X81325742Y-72861652D01*
X81350003Y-72925155D01*
X81357424Y-73009976D01*
X81357426Y-73009986D01*
X81414575Y-73223270D01*
X81414580Y-73223284D01*
X81507899Y-73423407D01*
X81507900Y-73423409D01*
X81524137Y-73446597D01*
X82224000Y-72746735D01*
X82224000Y-72840160D01*
X82249964Y-72937061D01*
X82300124Y-73023940D01*
X82371060Y-73094876D01*
X82457939Y-73145036D01*
X82554840Y-73171000D01*
X82655160Y-73171000D01*
X82752061Y-73145036D01*
X82838940Y-73094876D01*
X82909876Y-73023940D01*
X82960036Y-72937061D01*
X82986000Y-72840160D01*
X82986000Y-72789999D01*
X83029264Y-72789999D01*
X83029264Y-72790001D01*
X83685861Y-73446598D01*
X83685862Y-73446598D01*
X83702096Y-73423415D01*
X83702102Y-73423404D01*
X83795419Y-73223284D01*
X83795424Y-73223270D01*
X83852573Y-73009986D01*
X83852575Y-73009976D01*
X83871821Y-72790000D01*
X83871821Y-72789999D01*
X83852575Y-72570023D01*
X83852573Y-72570013D01*
X83795424Y-72356729D01*
X83795420Y-72356720D01*
X83702099Y-72156591D01*
X83685861Y-72133400D01*
X83029264Y-72789999D01*
X82986000Y-72789999D01*
X82986000Y-72739840D01*
X82960036Y-72642939D01*
X82909876Y-72556060D01*
X82838940Y-72485124D01*
X82752061Y-72434964D01*
X82655160Y-72409000D01*
X82561736Y-72409000D01*
X82605000Y-72365736D01*
X83261597Y-71709137D01*
X83238409Y-71692900D01*
X83238407Y-71692899D01*
X83109219Y-71632658D01*
X83056779Y-71586486D01*
X83037627Y-71519293D01*
X83057843Y-71452411D01*
X83109219Y-71407894D01*
X83125174Y-71400454D01*
X83238662Y-71347534D01*
X83419620Y-71220826D01*
X83575826Y-71064620D01*
X83702534Y-70883662D01*
X83795894Y-70683450D01*
X83853070Y-70470068D01*
X83872323Y-70250000D01*
X83871060Y-70235569D01*
X83865103Y-70167474D01*
X83853070Y-70029932D01*
X83795894Y-69816550D01*
X83702534Y-69616339D01*
X83602726Y-69473797D01*
X83575827Y-69435381D01*
X83509097Y-69368651D01*
X83419620Y-69279174D01*
X83419616Y-69279171D01*
X83419615Y-69279170D01*
X83238666Y-69152468D01*
X83238662Y-69152466D01*
X83238660Y-69152465D01*
X83038450Y-69059106D01*
X83038447Y-69059105D01*
X83038445Y-69059104D01*
X82825070Y-69001930D01*
X82825062Y-69001929D01*
X82605002Y-68982677D01*
X82604998Y-68982677D01*
X82384937Y-69001929D01*
X82384929Y-69001930D01*
X82171554Y-69059104D01*
X82171548Y-69059107D01*
X81971340Y-69152465D01*
X81971338Y-69152466D01*
X81790377Y-69279175D01*
X81634175Y-69435377D01*
X81507466Y-69616338D01*
X81507465Y-69616340D01*
X81414107Y-69816548D01*
X81414104Y-69816554D01*
X81356930Y-70029929D01*
X81356929Y-70029937D01*
X81337677Y-70249997D01*
X81337677Y-70250003D01*
X81343517Y-70316763D01*
X81329750Y-70385263D01*
X81307670Y-70415250D01*
X79747542Y-71975380D01*
X79245711Y-72477211D01*
X79199634Y-72523288D01*
X79134209Y-72588712D01*
X79046609Y-72719814D01*
X79046602Y-72719827D01*
X78986264Y-72865498D01*
X78986261Y-72865510D01*
X78955500Y-73020153D01*
X78955500Y-74507338D01*
X78935815Y-74574377D01*
X78883011Y-74620132D01*
X78813853Y-74630076D01*
X78750297Y-74601051D01*
X78712523Y-74542273D01*
X78711725Y-74539432D01*
X78696740Y-74483508D01*
X78696738Y-74483502D01*
X78678433Y-74444247D01*
X78600568Y-74277266D01*
X78470047Y-74090861D01*
X78470045Y-74090858D01*
X78309141Y-73929954D01*
X78122734Y-73799432D01*
X78122728Y-73799429D01*
X78064725Y-73772382D01*
X78012285Y-73726210D01*
X77993133Y-73659017D01*
X78013348Y-73592135D01*
X78064725Y-73547618D01*
X78122734Y-73520568D01*
X78309139Y-73390047D01*
X78470047Y-73229139D01*
X78600568Y-73042734D01*
X78696739Y-72836496D01*
X78755635Y-72616692D01*
X78775468Y-72390000D01*
X78755635Y-72163308D01*
X78699220Y-71952764D01*
X78696741Y-71943511D01*
X78696738Y-71943502D01*
X78675498Y-71897953D01*
X78600568Y-71737266D01*
X78478288Y-71562630D01*
X78470045Y-71550858D01*
X78309141Y-71389954D01*
X78122734Y-71259432D01*
X78122728Y-71259429D01*
X78064725Y-71232382D01*
X78012285Y-71186210D01*
X77993133Y-71119017D01*
X78013348Y-71052135D01*
X78064725Y-71007618D01*
X78122734Y-70980568D01*
X78309139Y-70850047D01*
X78470047Y-70689139D01*
X78600568Y-70502734D01*
X78696739Y-70296496D01*
X78755635Y-70076692D01*
X78775468Y-69850000D01*
X78772570Y-69816881D01*
X78766146Y-69743445D01*
X78755635Y-69623308D01*
X78696739Y-69403504D01*
X78600568Y-69197266D01*
X78470047Y-69010861D01*
X78470045Y-69010858D01*
X78309141Y-68849954D01*
X78122734Y-68719432D01*
X78122732Y-68719431D01*
X77916497Y-68623261D01*
X77916488Y-68623258D01*
X77696697Y-68564366D01*
X77696693Y-68564365D01*
X77696692Y-68564365D01*
X77696691Y-68564364D01*
X77696686Y-68564364D01*
X77470002Y-68544532D01*
X77469998Y-68544532D01*
X77243313Y-68564364D01*
X77243302Y-68564366D01*
X77023511Y-68623258D01*
X77023502Y-68623261D01*
X76817267Y-68719431D01*
X76817265Y-68719432D01*
X76630858Y-68849954D01*
X76469954Y-69010858D01*
X76339432Y-69197265D01*
X76339431Y-69197267D01*
X76243261Y-69403502D01*
X76243258Y-69403511D01*
X76184366Y-69623302D01*
X76184364Y-69623313D01*
X76164532Y-69849998D01*
X76164532Y-69849999D01*
X76184364Y-70076686D01*
X76184366Y-70076697D01*
X76243258Y-70296488D01*
X76243261Y-70296497D01*
X76339431Y-70502732D01*
X76339432Y-70502734D01*
X76469954Y-70689141D01*
X76630858Y-70850045D01*
X76630861Y-70850047D01*
X76817266Y-70980568D01*
X76875275Y-71007618D01*
X76927714Y-71053791D01*
X76946866Y-71120984D01*
X76926650Y-71187865D01*
X76875275Y-71232382D01*
X76817267Y-71259431D01*
X76817265Y-71259432D01*
X76630858Y-71389954D01*
X76469954Y-71550858D01*
X76339432Y-71737265D01*
X76339431Y-71737267D01*
X76243261Y-71943502D01*
X76243258Y-71943511D01*
X76184366Y-72163302D01*
X76184364Y-72163313D01*
X76164532Y-72389998D01*
X76164532Y-72390001D01*
X76184364Y-72616686D01*
X76184366Y-72616697D01*
X76243258Y-72836488D01*
X76243261Y-72836497D01*
X76339431Y-73042732D01*
X76339432Y-73042734D01*
X76469954Y-73229141D01*
X76630858Y-73390045D01*
X76630861Y-73390047D01*
X76817266Y-73520568D01*
X76853699Y-73537557D01*
X76875275Y-73547618D01*
X76927714Y-73593791D01*
X76946866Y-73660984D01*
X76926650Y-73727865D01*
X76875275Y-73772382D01*
X76817267Y-73799431D01*
X76817265Y-73799432D01*
X76630858Y-73929954D01*
X76469954Y-74090858D01*
X76339432Y-74277265D01*
X76339431Y-74277267D01*
X76243261Y-74483502D01*
X76243258Y-74483511D01*
X76184366Y-74703302D01*
X76184364Y-74703313D01*
X76164532Y-74929998D01*
X76164532Y-74930001D01*
X76184364Y-75156686D01*
X76184366Y-75156697D01*
X76243258Y-75376488D01*
X76243261Y-75376497D01*
X76339431Y-75582732D01*
X76339432Y-75582734D01*
X76469954Y-75769141D01*
X76630858Y-75930045D01*
X76630861Y-75930047D01*
X76817266Y-76060568D01*
X76875275Y-76087618D01*
X76927714Y-76133791D01*
X76946866Y-76200984D01*
X76926650Y-76267865D01*
X76875275Y-76312382D01*
X76817267Y-76339431D01*
X76817265Y-76339432D01*
X76630858Y-76469954D01*
X76469954Y-76630858D01*
X76339432Y-76817265D01*
X76339431Y-76817267D01*
X76243261Y-77023502D01*
X76243258Y-77023511D01*
X76184366Y-77243302D01*
X76184364Y-77243313D01*
X76164532Y-77469998D01*
X76164532Y-77470001D01*
X76184364Y-77696686D01*
X76184366Y-77696697D01*
X76243258Y-77916488D01*
X76243261Y-77916497D01*
X76339431Y-78122732D01*
X76339432Y-78122734D01*
X76469954Y-78309141D01*
X76630858Y-78470045D01*
X76630861Y-78470047D01*
X76817266Y-78600568D01*
X76874681Y-78627341D01*
X76875275Y-78627618D01*
X76927714Y-78673791D01*
X76946866Y-78740984D01*
X76926650Y-78807865D01*
X76875275Y-78852382D01*
X76817267Y-78879431D01*
X76817265Y-78879432D01*
X76630858Y-79009954D01*
X76469954Y-79170858D01*
X76339432Y-79357265D01*
X76339431Y-79357267D01*
X76243261Y-79563502D01*
X76243258Y-79563511D01*
X76184366Y-79783302D01*
X76184364Y-79783313D01*
X76164532Y-80009998D01*
X76164532Y-80010001D01*
X76184364Y-80236686D01*
X76184366Y-80236697D01*
X76243258Y-80456488D01*
X76243261Y-80456497D01*
X76339431Y-80662732D01*
X76339432Y-80662734D01*
X76469954Y-80849141D01*
X76630858Y-81010045D01*
X76677693Y-81042839D01*
X76817266Y-81140568D01*
X76875275Y-81167618D01*
X76927714Y-81213791D01*
X76946866Y-81280984D01*
X76926650Y-81347865D01*
X76875275Y-81392382D01*
X76817267Y-81419431D01*
X76817265Y-81419432D01*
X76630858Y-81549954D01*
X76469954Y-81710858D01*
X76339432Y-81897265D01*
X76339431Y-81897267D01*
X76243261Y-82103502D01*
X76243258Y-82103511D01*
X76184366Y-82323302D01*
X76184364Y-82323313D01*
X76164532Y-82549998D01*
X76164532Y-82550001D01*
X76184364Y-82776686D01*
X76184366Y-82776697D01*
X76243258Y-82996488D01*
X76243261Y-82996497D01*
X76339431Y-83202732D01*
X76339432Y-83202734D01*
X76469954Y-83389141D01*
X76630858Y-83550045D01*
X76630861Y-83550047D01*
X76817266Y-83680568D01*
X76841823Y-83692019D01*
X76875275Y-83707618D01*
X76927714Y-83753791D01*
X76946866Y-83820984D01*
X76926650Y-83887865D01*
X76875275Y-83932381D01*
X76858272Y-83940310D01*
X76817267Y-83959431D01*
X76817265Y-83959432D01*
X76630858Y-84089954D01*
X76469954Y-84250858D01*
X76339432Y-84437265D01*
X76339431Y-84437267D01*
X76243261Y-84643502D01*
X76243258Y-84643511D01*
X76184366Y-84863302D01*
X76184364Y-84863313D01*
X76164532Y-85089998D01*
X76164532Y-85090001D01*
X76184364Y-85316686D01*
X76184366Y-85316697D01*
X76243258Y-85536488D01*
X76243261Y-85536497D01*
X76339431Y-85742732D01*
X76339432Y-85742734D01*
X76469954Y-85929141D01*
X76630858Y-86090045D01*
X76630861Y-86090047D01*
X76817266Y-86220568D01*
X77023504Y-86316739D01*
X77243308Y-86375635D01*
X77390447Y-86388508D01*
X77469998Y-86395468D01*
X77470000Y-86395468D01*
X77470002Y-86395468D01*
X77526673Y-86390509D01*
X77696692Y-86375635D01*
X77801010Y-86347683D01*
X77870857Y-86349346D01*
X77928720Y-86388508D01*
X77956224Y-86452736D01*
X77944638Y-86521639D01*
X77920782Y-86555139D01*
X76097853Y-88378069D01*
X76036530Y-88411554D01*
X76010172Y-88414388D01*
X75076977Y-88414388D01*
X75009938Y-88394703D01*
X74964183Y-88341899D01*
X74956733Y-88314753D01*
X74955876Y-88314956D01*
X74954092Y-88307408D01*
X74903797Y-88172559D01*
X74903793Y-88172552D01*
X74817547Y-88057343D01*
X74817544Y-88057340D01*
X74702335Y-87971094D01*
X74702328Y-87971090D01*
X74567482Y-87920796D01*
X74567483Y-87920796D01*
X74507883Y-87914389D01*
X74507881Y-87914388D01*
X74507873Y-87914388D01*
X74507864Y-87914388D01*
X72812129Y-87914388D01*
X72812123Y-87914389D01*
X72752516Y-87920796D01*
X72617671Y-87971090D01*
X72617664Y-87971094D01*
X72502455Y-88057340D01*
X72502452Y-88057343D01*
X72416206Y-88172552D01*
X72416202Y-88172559D01*
X72365908Y-88307405D01*
X72359501Y-88367004D01*
X72359500Y-88367023D01*
X72359500Y-90062758D01*
X72359501Y-90062764D01*
X72365908Y-90122371D01*
X72416202Y-90257216D01*
X72416206Y-90257223D01*
X72502452Y-90372432D01*
X72502453Y-90372432D01*
X72502454Y-90372434D01*
X72511545Y-90379239D01*
X72553416Y-90435170D01*
X72558402Y-90504862D01*
X72538813Y-90549624D01*
X72529871Y-90562395D01*
X72529868Y-90562400D01*
X72433734Y-90768561D01*
X72433730Y-90768570D01*
X72374860Y-90988277D01*
X72374858Y-90988288D01*
X72355034Y-91214885D01*
X72355034Y-91214890D01*
X72374858Y-91441487D01*
X72374860Y-91441498D01*
X72433730Y-91661205D01*
X72433734Y-91661214D01*
X72529867Y-91867373D01*
X72551851Y-91898771D01*
X73260000Y-91190622D01*
X73260000Y-91267549D01*
X73287259Y-91369282D01*
X73339920Y-91460494D01*
X73414394Y-91534968D01*
X73505606Y-91587629D01*
X73607339Y-91614888D01*
X73712661Y-91614888D01*
X73814394Y-91587629D01*
X73905606Y-91534968D01*
X73980080Y-91460494D01*
X74032741Y-91369282D01*
X74060000Y-91267549D01*
X74060000Y-91190624D01*
X74768146Y-91898770D01*
X74790135Y-91867368D01*
X74790136Y-91867366D01*
X74886264Y-91661219D01*
X74886269Y-91661205D01*
X74945139Y-91441498D01*
X74945141Y-91441487D01*
X74964966Y-91214890D01*
X74964966Y-91214885D01*
X74945141Y-90988288D01*
X74945139Y-90988277D01*
X74886269Y-90768570D01*
X74886265Y-90768561D01*
X74790134Y-90562406D01*
X74790130Y-90562400D01*
X74781188Y-90549628D01*
X74758861Y-90483422D01*
X74775873Y-90415655D01*
X74808454Y-90379239D01*
X74817546Y-90372434D01*
X74903796Y-90257219D01*
X74954091Y-90122371D01*
X74954091Y-90122369D01*
X74955874Y-90114826D01*
X74958146Y-90115362D01*
X74980429Y-90061576D01*
X75037823Y-90021731D01*
X75076976Y-90015388D01*
X76471956Y-90015388D01*
X76471957Y-90015387D01*
X76626609Y-89984625D01*
X76772291Y-89924282D01*
X76903401Y-89836677D01*
X80377789Y-86362289D01*
X80465394Y-86231179D01*
X80525737Y-86085497D01*
X80556500Y-85930842D01*
X80556500Y-85773157D01*
X80556500Y-82460822D01*
X80576185Y-82393783D01*
X80628989Y-82348028D01*
X80698147Y-82338084D01*
X80749390Y-82357720D01*
X80784821Y-82381394D01*
X80930503Y-82441738D01*
X81085153Y-82472499D01*
X81085157Y-82472500D01*
X81085158Y-82472500D01*
X81264309Y-82472500D01*
X81331348Y-82492185D01*
X81377103Y-82544989D01*
X81387047Y-82614147D01*
X81384084Y-82628594D01*
X81356930Y-82729930D01*
X81356929Y-82729937D01*
X81337677Y-82949997D01*
X81337677Y-82950002D01*
X81356929Y-83170062D01*
X81356930Y-83170070D01*
X81414104Y-83383445D01*
X81414105Y-83383447D01*
X81414106Y-83383450D01*
X81483145Y-83531505D01*
X81507466Y-83583662D01*
X81507468Y-83583666D01*
X81634170Y-83764615D01*
X81634175Y-83764621D01*
X81790378Y-83920824D01*
X81790384Y-83920829D01*
X81971333Y-84047531D01*
X81971335Y-84047532D01*
X81971338Y-84047534D01*
X82090748Y-84103215D01*
X82100189Y-84107618D01*
X82152628Y-84153790D01*
X82171780Y-84220984D01*
X82151564Y-84287865D01*
X82100189Y-84332382D01*
X81971340Y-84392465D01*
X81971338Y-84392466D01*
X81790377Y-84519175D01*
X81634175Y-84675377D01*
X81507466Y-84856338D01*
X81507465Y-84856340D01*
X81414107Y-85056548D01*
X81414104Y-85056554D01*
X81356930Y-85269929D01*
X81356929Y-85269937D01*
X81337677Y-85489997D01*
X81337677Y-85490002D01*
X81356929Y-85710062D01*
X81356930Y-85710070D01*
X81414104Y-85923445D01*
X81414105Y-85923447D01*
X81414106Y-85923450D01*
X81489671Y-86085501D01*
X81507466Y-86123662D01*
X81507468Y-86123666D01*
X81634170Y-86304615D01*
X81634175Y-86304621D01*
X81790378Y-86460824D01*
X81790384Y-86460829D01*
X81971333Y-86587531D01*
X81971335Y-86587532D01*
X81971338Y-86587534D01*
X82090748Y-86643215D01*
X82100189Y-86647618D01*
X82152628Y-86693790D01*
X82171780Y-86760984D01*
X82151564Y-86827865D01*
X82100189Y-86872382D01*
X81971340Y-86932465D01*
X81971338Y-86932466D01*
X81790377Y-87059175D01*
X81634175Y-87215377D01*
X81507466Y-87396338D01*
X81507465Y-87396340D01*
X81414107Y-87596548D01*
X81414104Y-87596554D01*
X81356930Y-87809929D01*
X81356929Y-87809937D01*
X81337677Y-88029997D01*
X81337677Y-88030002D01*
X81356929Y-88250062D01*
X81356930Y-88250070D01*
X81414104Y-88463445D01*
X81414105Y-88463447D01*
X81414106Y-88463450D01*
X81507466Y-88663662D01*
X81507468Y-88663666D01*
X81634170Y-88844615D01*
X81634175Y-88844621D01*
X81790378Y-89000824D01*
X81790384Y-89000829D01*
X81971333Y-89127531D01*
X81971335Y-89127532D01*
X81971338Y-89127534D01*
X82090748Y-89183215D01*
X82100189Y-89187618D01*
X82152628Y-89233790D01*
X82171780Y-89300984D01*
X82151564Y-89367865D01*
X82100189Y-89412382D01*
X81971340Y-89472465D01*
X81971338Y-89472466D01*
X81790377Y-89599175D01*
X81634175Y-89755377D01*
X81507466Y-89936338D01*
X81507465Y-89936340D01*
X81414107Y-90136548D01*
X81414104Y-90136554D01*
X81356930Y-90349929D01*
X81356929Y-90349937D01*
X81337677Y-90569997D01*
X81337677Y-90570002D01*
X81356929Y-90790062D01*
X81356930Y-90790070D01*
X81414104Y-91003445D01*
X81414105Y-91003447D01*
X81414106Y-91003450D01*
X81416759Y-91009139D01*
X81507466Y-91203662D01*
X81507468Y-91203666D01*
X81634170Y-91384615D01*
X81634175Y-91384621D01*
X81790378Y-91540824D01*
X81790384Y-91540829D01*
X81971333Y-91667531D01*
X81971335Y-91667532D01*
X81971338Y-91667534D01*
X82171550Y-91760894D01*
X82384932Y-91818070D01*
X82542123Y-91831822D01*
X82604998Y-91837323D01*
X82605000Y-91837323D01*
X82605002Y-91837323D01*
X82660017Y-91832509D01*
X82825068Y-91818070D01*
X83038450Y-91760894D01*
X83238662Y-91667534D01*
X83419620Y-91540826D01*
X83575826Y-91384620D01*
X83702534Y-91203662D01*
X83795894Y-91003450D01*
X83853070Y-90790068D01*
X83872323Y-90570000D01*
X83870540Y-90549624D01*
X83861073Y-90441412D01*
X83853070Y-90349932D01*
X83795894Y-90136550D01*
X83702534Y-89936339D01*
X83575826Y-89755380D01*
X83419620Y-89599174D01*
X83419616Y-89599171D01*
X83419615Y-89599170D01*
X83238666Y-89472468D01*
X83238658Y-89472464D01*
X83109811Y-89412382D01*
X83057371Y-89366210D01*
X83038219Y-89299017D01*
X83058435Y-89232135D01*
X83109811Y-89187618D01*
X83115802Y-89184824D01*
X83238662Y-89127534D01*
X83419620Y-89000826D01*
X83575826Y-88844620D01*
X83702534Y-88663662D01*
X83795894Y-88463450D01*
X83853070Y-88250068D01*
X83872323Y-88030000D01*
X83853070Y-87809932D01*
X83795894Y-87596550D01*
X83702534Y-87396339D01*
X83575826Y-87215380D01*
X83419620Y-87059174D01*
X83419616Y-87059171D01*
X83419615Y-87059170D01*
X83238666Y-86932468D01*
X83238658Y-86932464D01*
X83109811Y-86872382D01*
X83057371Y-86826210D01*
X83038219Y-86759017D01*
X83058435Y-86692135D01*
X83109811Y-86647618D01*
X83118831Y-86643412D01*
X83238662Y-86587534D01*
X83419620Y-86460826D01*
X83575826Y-86304620D01*
X83702534Y-86123662D01*
X83795894Y-85923450D01*
X83853070Y-85710068D01*
X83868715Y-85531239D01*
X83872323Y-85490002D01*
X83872323Y-85489997D01*
X83862844Y-85381657D01*
X83853070Y-85269932D01*
X83795894Y-85056550D01*
X83702534Y-84856339D01*
X83575826Y-84675380D01*
X83419620Y-84519174D01*
X83419616Y-84519171D01*
X83419615Y-84519170D01*
X83238666Y-84392468D01*
X83238658Y-84392464D01*
X83109811Y-84332382D01*
X83057371Y-84286210D01*
X83038219Y-84219017D01*
X83058435Y-84152135D01*
X83109811Y-84107618D01*
X83115802Y-84104824D01*
X83238662Y-84047534D01*
X83419620Y-83920826D01*
X83575826Y-83764620D01*
X83702534Y-83583662D01*
X83795894Y-83383450D01*
X83853070Y-83170068D01*
X83868256Y-82996488D01*
X83872323Y-82950002D01*
X83872323Y-82949997D01*
X83853070Y-82729937D01*
X83853070Y-82729932D01*
X83817180Y-82595990D01*
X83818842Y-82526143D01*
X83858003Y-82468280D01*
X83909727Y-82443723D01*
X83909662Y-82443507D01*
X83911104Y-82443069D01*
X83912767Y-82442280D01*
X83915497Y-82441737D01*
X84061179Y-82381394D01*
X84192289Y-82293789D01*
X96369528Y-70116548D01*
X96430849Y-70083065D01*
X96500541Y-70088049D01*
X96556474Y-70129921D01*
X96580891Y-70195385D01*
X96580735Y-70215036D01*
X96577677Y-70249995D01*
X96577677Y-70250003D01*
X96583517Y-70316763D01*
X96569750Y-70385263D01*
X96547670Y-70415250D01*
X94223082Y-72739840D01*
X93469711Y-73493211D01*
X93425367Y-73537555D01*
X93358209Y-73604712D01*
X93270609Y-73735814D01*
X93270602Y-73735827D01*
X93210264Y-73881498D01*
X93210261Y-73881510D01*
X93179500Y-74036153D01*
X93179500Y-112346846D01*
X93210261Y-112501489D01*
X93210264Y-112501501D01*
X93270602Y-112647172D01*
X93270609Y-112647185D01*
X93358210Y-112778288D01*
X93358213Y-112778292D01*
X96207181Y-115627259D01*
X96240666Y-115688582D01*
X96243500Y-115714940D01*
X96243500Y-117679870D01*
X96243501Y-117679876D01*
X96249908Y-117739483D01*
X96300202Y-117874328D01*
X96300206Y-117874335D01*
X96386452Y-117989544D01*
X96386455Y-117989547D01*
X96501664Y-118075793D01*
X96501671Y-118075797D01*
X96636517Y-118126091D01*
X96636516Y-118126091D01*
X96643444Y-118126835D01*
X96696127Y-118132500D01*
X99391872Y-118132499D01*
X99451483Y-118126091D01*
X99586331Y-118075796D01*
X99701546Y-117989546D01*
X99787796Y-117874331D01*
X99838091Y-117739483D01*
X99844500Y-117679873D01*
X99844499Y-114984128D01*
X99838091Y-114924517D01*
X99836542Y-114920365D01*
X99787797Y-114789671D01*
X99787793Y-114789664D01*
X99701547Y-114674455D01*
X99701544Y-114674452D01*
X99586335Y-114588206D01*
X99586328Y-114588202D01*
X99451482Y-114537908D01*
X99451483Y-114537908D01*
X99391883Y-114531501D01*
X99391881Y-114531500D01*
X99391873Y-114531500D01*
X99391865Y-114531500D01*
X97426940Y-114531500D01*
X97359901Y-114511815D01*
X97339259Y-114495181D01*
X94816819Y-111972741D01*
X94783334Y-111911418D01*
X94780500Y-111885060D01*
X94780500Y-109499940D01*
X94800185Y-109432901D01*
X94852989Y-109387146D01*
X94922147Y-109377202D01*
X94985703Y-109406227D01*
X94992181Y-109412259D01*
X101281552Y-115701630D01*
X101315037Y-115762953D01*
X101314762Y-115816903D01*
X101258616Y-116062896D01*
X101258616Y-116062898D01*
X101238451Y-116331995D01*
X101238451Y-116332004D01*
X101258616Y-116601101D01*
X101318664Y-116864188D01*
X101318666Y-116864195D01*
X101364901Y-116982000D01*
X101417257Y-117115398D01*
X101552185Y-117349102D01*
X101688080Y-117519509D01*
X101720442Y-117560089D01*
X101907183Y-117733358D01*
X101918259Y-117743635D01*
X102141226Y-117895651D01*
X102384359Y-118012738D01*
X102642228Y-118092280D01*
X102642229Y-118092280D01*
X102642232Y-118092281D01*
X102909063Y-118132499D01*
X102909068Y-118132499D01*
X102909071Y-118132500D01*
X102909072Y-118132500D01*
X103178928Y-118132500D01*
X103178929Y-118132500D01*
X103178936Y-118132499D01*
X103445767Y-118092281D01*
X103445768Y-118092280D01*
X103445772Y-118092280D01*
X103703641Y-118012738D01*
X103946775Y-117895651D01*
X104169741Y-117743635D01*
X104367561Y-117560085D01*
X104535815Y-117349102D01*
X104670743Y-117115398D01*
X104751072Y-116910724D01*
X104793888Y-116855512D01*
X104859758Y-116832211D01*
X104927769Y-116848222D01*
X104976327Y-116898460D01*
X104990500Y-116956028D01*
X104990500Y-118108060D01*
X104970815Y-118175099D01*
X104954181Y-118195741D01*
X103590741Y-119559181D01*
X103529418Y-119592666D01*
X103503060Y-119595500D01*
X96902940Y-119595500D01*
X96835901Y-119575815D01*
X96815259Y-119559181D01*
X95197819Y-117941741D01*
X95164334Y-117880418D01*
X95161500Y-117854060D01*
X95161500Y-115491157D01*
X95154198Y-115454445D01*
X95154198Y-115454444D01*
X95130739Y-115336510D01*
X95130738Y-115336503D01*
X95070394Y-115190821D01*
X95070392Y-115190818D01*
X95070390Y-115190814D01*
X94982789Y-115059711D01*
X94982786Y-115059707D01*
X92204292Y-112281213D01*
X92204288Y-112281210D01*
X92073185Y-112193609D01*
X92073172Y-112193602D01*
X91927501Y-112133264D01*
X91927489Y-112133261D01*
X91772845Y-112102500D01*
X91772842Y-112102500D01*
X87377940Y-112102500D01*
X87310901Y-112082815D01*
X87290259Y-112066181D01*
X84656819Y-109432741D01*
X84623334Y-109371418D01*
X84620500Y-109345060D01*
X84620500Y-108215750D01*
X84640185Y-108148711D01*
X84692989Y-108102956D01*
X84762147Y-108093012D01*
X84783498Y-108098042D01*
X84925203Y-108144999D01*
X85027991Y-108155500D01*
X86328008Y-108155499D01*
X86430797Y-108144999D01*
X86597334Y-108089814D01*
X86746656Y-107997712D01*
X86870712Y-107873656D01*
X86962814Y-107724334D01*
X86962814Y-107724331D01*
X86966448Y-107718441D01*
X87018395Y-107671716D01*
X87087358Y-107660493D01*
X87151440Y-107688336D01*
X87159668Y-107695856D01*
X87298535Y-107834723D01*
X87298540Y-107834727D01*
X87470442Y-107959620D01*
X87659782Y-108056095D01*
X87861871Y-108121757D01*
X87878000Y-108124312D01*
X87878000Y-107051752D01*
X87886343Y-107060095D01*
X87994657Y-107122630D01*
X88115465Y-107155000D01*
X88240535Y-107155000D01*
X88361343Y-107122630D01*
X88469657Y-107060095D01*
X88478000Y-107051752D01*
X88478000Y-108124311D01*
X88494126Y-108121757D01*
X88494129Y-108121757D01*
X88696217Y-108056095D01*
X88885557Y-107959620D01*
X89057459Y-107834727D01*
X89057464Y-107834723D01*
X89207721Y-107684466D01*
X89327371Y-107519781D01*
X89382701Y-107477115D01*
X89452314Y-107471136D01*
X89514110Y-107503741D01*
X89528008Y-107519781D01*
X89647890Y-107684785D01*
X89647894Y-107684790D01*
X89798213Y-107835109D01*
X89970179Y-107960048D01*
X89970181Y-107960049D01*
X89970184Y-107960051D01*
X90159588Y-108056557D01*
X90361757Y-108122246D01*
X90571713Y-108155500D01*
X90571714Y-108155500D01*
X90784286Y-108155500D01*
X90784287Y-108155500D01*
X90994243Y-108122246D01*
X91196412Y-108056557D01*
X91385816Y-107960051D01*
X91470748Y-107898345D01*
X91557786Y-107835109D01*
X91557788Y-107835106D01*
X91557792Y-107835104D01*
X91708104Y-107684792D01*
X91708106Y-107684788D01*
X91708109Y-107684786D01*
X91833048Y-107512820D01*
X91833047Y-107512820D01*
X91833051Y-107512816D01*
X91929557Y-107323412D01*
X91995246Y-107121243D01*
X92028500Y-106911287D01*
X92028500Y-106448713D01*
X91995246Y-106238757D01*
X91929557Y-106036588D01*
X91833051Y-105847184D01*
X91833049Y-105847181D01*
X91833048Y-105847179D01*
X91708109Y-105675213D01*
X91557786Y-105524890D01*
X91385820Y-105399951D01*
X91196414Y-105303444D01*
X91196413Y-105303443D01*
X91196412Y-105303443D01*
X90994243Y-105237754D01*
X90994241Y-105237753D01*
X90994240Y-105237753D01*
X90832957Y-105212208D01*
X90784287Y-105204500D01*
X90571713Y-105204500D01*
X90523042Y-105212208D01*
X90361760Y-105237753D01*
X90159585Y-105303444D01*
X89970179Y-105399951D01*
X89798213Y-105524890D01*
X89647894Y-105675209D01*
X89647890Y-105675214D01*
X89528008Y-105840218D01*
X89472678Y-105882884D01*
X89403065Y-105888863D01*
X89341270Y-105856257D01*
X89327372Y-105840218D01*
X89207727Y-105675540D01*
X89207723Y-105675535D01*
X89057464Y-105525276D01*
X89057459Y-105525272D01*
X88885557Y-105400379D01*
X88696217Y-105303904D01*
X88494124Y-105238241D01*
X88478000Y-105235686D01*
X88478000Y-106308248D01*
X88469657Y-106299905D01*
X88361343Y-106237370D01*
X88240535Y-106205000D01*
X88115465Y-106205000D01*
X87994657Y-106237370D01*
X87886343Y-106299905D01*
X87878000Y-106308248D01*
X87878000Y-105235687D01*
X87877999Y-105235686D01*
X87861875Y-105238241D01*
X87659782Y-105303904D01*
X87470442Y-105400379D01*
X87298541Y-105525271D01*
X87159668Y-105664144D01*
X87098345Y-105697628D01*
X87028653Y-105692644D01*
X86972720Y-105650772D01*
X86966448Y-105641558D01*
X86950982Y-105616484D01*
X86870712Y-105486344D01*
X86746656Y-105362288D01*
X86651253Y-105303443D01*
X86597336Y-105270187D01*
X86597331Y-105270185D01*
X86579743Y-105264357D01*
X86430797Y-105215001D01*
X86430795Y-105215000D01*
X86328010Y-105204500D01*
X85027998Y-105204500D01*
X85027981Y-105204501D01*
X84925203Y-105215000D01*
X84925200Y-105215001D01*
X84783504Y-105261955D01*
X84713675Y-105264357D01*
X84653634Y-105228625D01*
X84622441Y-105166105D01*
X84620500Y-105144249D01*
X84620500Y-99014939D01*
X84640185Y-98947900D01*
X84656815Y-98927262D01*
X85298259Y-98285817D01*
X85359582Y-98252333D01*
X85385940Y-98249499D01*
X86328002Y-98249499D01*
X86328008Y-98249499D01*
X86430797Y-98238999D01*
X86597334Y-98183814D01*
X86746656Y-98091712D01*
X86870712Y-97967656D01*
X86962814Y-97818334D01*
X86962814Y-97818331D01*
X86966448Y-97812441D01*
X87018395Y-97765716D01*
X87087358Y-97754493D01*
X87151440Y-97782336D01*
X87159668Y-97789856D01*
X87298535Y-97928723D01*
X87298540Y-97928727D01*
X87470442Y-98053620D01*
X87659782Y-98150095D01*
X87861871Y-98215757D01*
X87878000Y-98218312D01*
X87878000Y-97145752D01*
X87886343Y-97154095D01*
X87994657Y-97216630D01*
X88115465Y-97249000D01*
X88240535Y-97249000D01*
X88361343Y-97216630D01*
X88469657Y-97154095D01*
X88478000Y-97145752D01*
X88478000Y-98218311D01*
X88494126Y-98215757D01*
X88494129Y-98215757D01*
X88696217Y-98150095D01*
X88885557Y-98053620D01*
X89057459Y-97928727D01*
X89057464Y-97928723D01*
X89207721Y-97778466D01*
X89327371Y-97613781D01*
X89382701Y-97571115D01*
X89452314Y-97565136D01*
X89514110Y-97597741D01*
X89528008Y-97613781D01*
X89647890Y-97778785D01*
X89647894Y-97778790D01*
X89798213Y-97929109D01*
X89970179Y-98054048D01*
X89970181Y-98054049D01*
X89970184Y-98054051D01*
X90159588Y-98150557D01*
X90361757Y-98216246D01*
X90571713Y-98249500D01*
X90571714Y-98249500D01*
X90784286Y-98249500D01*
X90784287Y-98249500D01*
X90994243Y-98216246D01*
X91196412Y-98150557D01*
X91385816Y-98054051D01*
X91470748Y-97992345D01*
X91557786Y-97929109D01*
X91557788Y-97929106D01*
X91557792Y-97929104D01*
X91708104Y-97778792D01*
X91708106Y-97778788D01*
X91708109Y-97778786D01*
X91833048Y-97606820D01*
X91833047Y-97606820D01*
X91833051Y-97606816D01*
X91929557Y-97417412D01*
X91995246Y-97215243D01*
X92028500Y-97005287D01*
X92028500Y-96542713D01*
X91995246Y-96332757D01*
X91929557Y-96130588D01*
X91833051Y-95941184D01*
X91833049Y-95941181D01*
X91833048Y-95941179D01*
X91708109Y-95769213D01*
X91557786Y-95618890D01*
X91385820Y-95493951D01*
X91196414Y-95397444D01*
X91196413Y-95397443D01*
X91196412Y-95397443D01*
X90994243Y-95331754D01*
X90994241Y-95331753D01*
X90994240Y-95331753D01*
X90832957Y-95306208D01*
X90784287Y-95298500D01*
X90571713Y-95298500D01*
X90523042Y-95306208D01*
X90361760Y-95331753D01*
X90159585Y-95397444D01*
X89970179Y-95493951D01*
X89798213Y-95618890D01*
X89647894Y-95769209D01*
X89647890Y-95769214D01*
X89528008Y-95934218D01*
X89472678Y-95976884D01*
X89403065Y-95982863D01*
X89341270Y-95950257D01*
X89327372Y-95934218D01*
X89207727Y-95769540D01*
X89207723Y-95769535D01*
X89057464Y-95619276D01*
X89057459Y-95619272D01*
X88885557Y-95494379D01*
X88696217Y-95397904D01*
X88494124Y-95332241D01*
X88478000Y-95329686D01*
X88478000Y-96402248D01*
X88469657Y-96393905D01*
X88361343Y-96331370D01*
X88240535Y-96299000D01*
X88115465Y-96299000D01*
X87994657Y-96331370D01*
X87886343Y-96393905D01*
X87878000Y-96402248D01*
X87878000Y-95329687D01*
X87877999Y-95329686D01*
X87861875Y-95332241D01*
X87659782Y-95397904D01*
X87470442Y-95494379D01*
X87298541Y-95619271D01*
X87159668Y-95758144D01*
X87098345Y-95791628D01*
X87028653Y-95786644D01*
X86972720Y-95744772D01*
X86966448Y-95735558D01*
X86950982Y-95710484D01*
X86870712Y-95580344D01*
X86746656Y-95456288D01*
X86651253Y-95397443D01*
X86597336Y-95364187D01*
X86597331Y-95364185D01*
X86595862Y-95363698D01*
X86430797Y-95309001D01*
X86430795Y-95309000D01*
X86328010Y-95298500D01*
X85027998Y-95298500D01*
X85027981Y-95298501D01*
X84925203Y-95309000D01*
X84925200Y-95309001D01*
X84758668Y-95364185D01*
X84758663Y-95364187D01*
X84609342Y-95456289D01*
X84485289Y-95580342D01*
X84393187Y-95729663D01*
X84393185Y-95729668D01*
X84388205Y-95744697D01*
X84338001Y-95896203D01*
X84338001Y-95896204D01*
X84338000Y-95896204D01*
X84327500Y-95998983D01*
X84327500Y-96941059D01*
X84307815Y-97008098D01*
X84291180Y-97028740D01*
X83309711Y-98010211D01*
X83270029Y-98049893D01*
X83198209Y-98121712D01*
X83110609Y-98252814D01*
X83110602Y-98252827D01*
X83050264Y-98398498D01*
X83050261Y-98398510D01*
X83019500Y-98553153D01*
X83019500Y-109806846D01*
X83050261Y-109961489D01*
X83050264Y-109961501D01*
X83110602Y-110107172D01*
X83110609Y-110107185D01*
X83198210Y-110238288D01*
X83198213Y-110238292D01*
X86484707Y-113524786D01*
X86484711Y-113524789D01*
X86615814Y-113612390D01*
X86615827Y-113612397D01*
X86761498Y-113672735D01*
X86761503Y-113672737D01*
X86916153Y-113703499D01*
X86916156Y-113703500D01*
X86916158Y-113703500D01*
X87073842Y-113703500D01*
X91311060Y-113703500D01*
X91378099Y-113723185D01*
X91398741Y-113739819D01*
X93524181Y-115865259D01*
X93557666Y-115926582D01*
X93560500Y-115952940D01*
X93560500Y-118315846D01*
X93591261Y-118470489D01*
X93591264Y-118470501D01*
X93651602Y-118616172D01*
X93651609Y-118616185D01*
X93739210Y-118747288D01*
X93739213Y-118747292D01*
X95898211Y-120906289D01*
X96009708Y-121017786D01*
X96009712Y-121017790D01*
X96140814Y-121105390D01*
X96140827Y-121105397D01*
X96286498Y-121165735D01*
X96286503Y-121165737D01*
X96441153Y-121196499D01*
X96441156Y-121196500D01*
X96441158Y-121196500D01*
X103964844Y-121196500D01*
X103964845Y-121196499D01*
X104119497Y-121165737D01*
X104265179Y-121105394D01*
X104396289Y-121017789D01*
X106412789Y-119001289D01*
X106500394Y-118870179D01*
X106560737Y-118724497D01*
X106591500Y-118569842D01*
X106591500Y-118412157D01*
X106591500Y-102617940D01*
X106611185Y-102550901D01*
X106627819Y-102530259D01*
X107864259Y-101293819D01*
X107925582Y-101260334D01*
X107951940Y-101257500D01*
X119839844Y-101257500D01*
X119839845Y-101257499D01*
X119994497Y-101226737D01*
X120140179Y-101166394D01*
X120271289Y-101078789D01*
X122501789Y-98848289D01*
X122589394Y-98717179D01*
X122649738Y-98571497D01*
X122680500Y-98416842D01*
X122680500Y-98259157D01*
X122680500Y-98049893D01*
X122700185Y-97982854D01*
X122731614Y-97949576D01*
X122759792Y-97929104D01*
X122910104Y-97778792D01*
X123029683Y-97614204D01*
X123085011Y-97571540D01*
X123154624Y-97565561D01*
X123216420Y-97598166D01*
X123230313Y-97614199D01*
X123305181Y-97717246D01*
X123349896Y-97778792D01*
X123500213Y-97929109D01*
X123672179Y-98054048D01*
X123672181Y-98054049D01*
X123672184Y-98054051D01*
X123861588Y-98150557D01*
X124063757Y-98216246D01*
X124273713Y-98249500D01*
X124273714Y-98249500D01*
X124486286Y-98249500D01*
X124486287Y-98249500D01*
X124696243Y-98216246D01*
X124898412Y-98150557D01*
X125087816Y-98054051D01*
X125172748Y-97992345D01*
X125259786Y-97929109D01*
X125259788Y-97929106D01*
X125259792Y-97929104D01*
X125410104Y-97778792D01*
X125529683Y-97614204D01*
X125585011Y-97571540D01*
X125654624Y-97565561D01*
X125716420Y-97598166D01*
X125730313Y-97614199D01*
X125805181Y-97717246D01*
X125849896Y-97778792D01*
X126000213Y-97929109D01*
X126172179Y-98054048D01*
X126172181Y-98054049D01*
X126172184Y-98054051D01*
X126361588Y-98150557D01*
X126563757Y-98216246D01*
X126773713Y-98249500D01*
X126773714Y-98249500D01*
X126986286Y-98249500D01*
X126986287Y-98249500D01*
X127196243Y-98216246D01*
X127398412Y-98150557D01*
X127587816Y-98054051D01*
X127672748Y-97992345D01*
X127759786Y-97929109D01*
X127759788Y-97929106D01*
X127759792Y-97929104D01*
X127910104Y-97778792D01*
X127910106Y-97778788D01*
X127910109Y-97778786D01*
X128035048Y-97606820D01*
X128035047Y-97606820D01*
X128035051Y-97606816D01*
X128131557Y-97417412D01*
X128197246Y-97215243D01*
X128230500Y-97005287D01*
X128230500Y-96542713D01*
X128197246Y-96332757D01*
X128131557Y-96130588D01*
X128035051Y-95941184D01*
X128035049Y-95941181D01*
X128035048Y-95941179D01*
X127910109Y-95769213D01*
X127759786Y-95618890D01*
X127587820Y-95493951D01*
X127398414Y-95397444D01*
X127398413Y-95397443D01*
X127398412Y-95397443D01*
X127196243Y-95331754D01*
X127196241Y-95331753D01*
X127196240Y-95331753D01*
X127034957Y-95306208D01*
X126986287Y-95298500D01*
X126773713Y-95298500D01*
X126725042Y-95306208D01*
X126563760Y-95331753D01*
X126361585Y-95397444D01*
X126172179Y-95493951D01*
X126000213Y-95618890D01*
X125849894Y-95769209D01*
X125849890Y-95769214D01*
X125730318Y-95933793D01*
X125674989Y-95976459D01*
X125605375Y-95982438D01*
X125543580Y-95949833D01*
X125529682Y-95933793D01*
X125410109Y-95769214D01*
X125410105Y-95769209D01*
X125259786Y-95618890D01*
X125087820Y-95493951D01*
X124898414Y-95397444D01*
X124898413Y-95397443D01*
X124898412Y-95397443D01*
X124696243Y-95331754D01*
X124696241Y-95331753D01*
X124696240Y-95331753D01*
X124534957Y-95306208D01*
X124486287Y-95298500D01*
X124273713Y-95298500D01*
X124225042Y-95306208D01*
X124063760Y-95331753D01*
X123861585Y-95397444D01*
X123672179Y-95493951D01*
X123500213Y-95618890D01*
X123349894Y-95769209D01*
X123349890Y-95769214D01*
X123230318Y-95933793D01*
X123174989Y-95976459D01*
X123105375Y-95982438D01*
X123043580Y-95949833D01*
X123029682Y-95933793D01*
X122910109Y-95769214D01*
X122910105Y-95769209D01*
X122759786Y-95618890D01*
X122587820Y-95493951D01*
X122398414Y-95397444D01*
X122398413Y-95397443D01*
X122398412Y-95397443D01*
X122196243Y-95331754D01*
X122196241Y-95331753D01*
X122196240Y-95331753D01*
X122034957Y-95306208D01*
X121986287Y-95298500D01*
X121773713Y-95298500D01*
X121725042Y-95306208D01*
X121563760Y-95331753D01*
X121361585Y-95397444D01*
X121172179Y-95493951D01*
X121000215Y-95618889D01*
X120861035Y-95758069D01*
X120799712Y-95791553D01*
X120730020Y-95786569D01*
X120674087Y-95744697D01*
X120667815Y-95735484D01*
X120572315Y-95580654D01*
X120448345Y-95456684D01*
X120299124Y-95364643D01*
X120299119Y-95364641D01*
X120132697Y-95309494D01*
X120132690Y-95309493D01*
X120029986Y-95299000D01*
X119680000Y-95299000D01*
X119680000Y-96402248D01*
X119671657Y-96393905D01*
X119563343Y-96331370D01*
X119442535Y-96299000D01*
X119317465Y-96299000D01*
X119196657Y-96331370D01*
X119088343Y-96393905D01*
X119080000Y-96402248D01*
X119080000Y-95299000D01*
X118730028Y-95299000D01*
X118730012Y-95299001D01*
X118627302Y-95309494D01*
X118460880Y-95364641D01*
X118460875Y-95364643D01*
X118311654Y-95456684D01*
X118187684Y-95580654D01*
X118095643Y-95729875D01*
X118095641Y-95729880D01*
X118040494Y-95896302D01*
X118040493Y-95896309D01*
X118030000Y-95999013D01*
X118030000Y-96474000D01*
X119008248Y-96474000D01*
X118999905Y-96482343D01*
X118937370Y-96590657D01*
X118905000Y-96711465D01*
X118905000Y-96836535D01*
X118937370Y-96957343D01*
X118999905Y-97065657D01*
X119008248Y-97074000D01*
X118030001Y-97074000D01*
X118030001Y-97548986D01*
X118040494Y-97651697D01*
X118095641Y-97818119D01*
X118095643Y-97818124D01*
X118187684Y-97967345D01*
X118311654Y-98091315D01*
X118460875Y-98183356D01*
X118460880Y-98183358D01*
X118627302Y-98238505D01*
X118627309Y-98238506D01*
X118730019Y-98248999D01*
X119079999Y-98248999D01*
X119080000Y-98248998D01*
X119080000Y-97145752D01*
X119088343Y-97154095D01*
X119196657Y-97216630D01*
X119317465Y-97249000D01*
X119442535Y-97249000D01*
X119563343Y-97216630D01*
X119671657Y-97154095D01*
X119680000Y-97145752D01*
X119680000Y-98248999D01*
X120029972Y-98248999D01*
X120029986Y-98248998D01*
X120132697Y-98238505D01*
X120299119Y-98183358D01*
X120299124Y-98183356D01*
X120448345Y-98091315D01*
X120572317Y-97967343D01*
X120667815Y-97812516D01*
X120719763Y-97765791D01*
X120788725Y-97754568D01*
X120852808Y-97782412D01*
X120861035Y-97789931D01*
X120990832Y-97919728D01*
X121024317Y-97981051D01*
X121019333Y-98050743D01*
X120990832Y-98095090D01*
X119465741Y-99620181D01*
X119404418Y-99653666D01*
X119378060Y-99656500D01*
X107490153Y-99656500D01*
X107335510Y-99687260D01*
X107335502Y-99687262D01*
X107189824Y-99747604D01*
X107189814Y-99747609D01*
X107058711Y-99835210D01*
X107058707Y-99835213D01*
X105702611Y-101191311D01*
X105280711Y-101613211D01*
X105224960Y-101668962D01*
X105169209Y-101724712D01*
X105081609Y-101855814D01*
X105081602Y-101855827D01*
X105021264Y-102001498D01*
X105021261Y-102001510D01*
X104990500Y-102156153D01*
X104990500Y-115707971D01*
X104970815Y-115775010D01*
X104918011Y-115820765D01*
X104848853Y-115830709D01*
X104785297Y-115801684D01*
X104751072Y-115753274D01*
X104670743Y-115548603D01*
X104670741Y-115548599D01*
X104637577Y-115491157D01*
X104535815Y-115314898D01*
X104367561Y-115103915D01*
X104367560Y-115103914D01*
X104367557Y-115103910D01*
X104169741Y-114920365D01*
X103946775Y-114768349D01*
X103946769Y-114768346D01*
X103946768Y-114768345D01*
X103946767Y-114768344D01*
X103703643Y-114651263D01*
X103703645Y-114651263D01*
X103445773Y-114571720D01*
X103445767Y-114571718D01*
X103178936Y-114531500D01*
X103178929Y-114531500D01*
X102909071Y-114531500D01*
X102909063Y-114531500D01*
X102642232Y-114571718D01*
X102642222Y-114571721D01*
X102540573Y-114603075D01*
X102470710Y-114604025D01*
X102416343Y-114572265D01*
X96340819Y-108496741D01*
X96307334Y-108435418D01*
X96304500Y-108409060D01*
X96304500Y-105880013D01*
X97750000Y-105880013D01*
X97750000Y-106380000D01*
X98695856Y-106380000D01*
X98634075Y-106487007D01*
X98600000Y-106614174D01*
X98600000Y-106745826D01*
X98634075Y-106872993D01*
X98695856Y-106980000D01*
X97750001Y-106980000D01*
X97750001Y-107479986D01*
X97760494Y-107582697D01*
X97815641Y-107749119D01*
X97815643Y-107749124D01*
X97907684Y-107898345D01*
X98031654Y-108022315D01*
X98180875Y-108114356D01*
X98180880Y-108114358D01*
X98347302Y-108169505D01*
X98347309Y-108169506D01*
X98450019Y-108179999D01*
X98799999Y-108179999D01*
X98800000Y-108179998D01*
X98800000Y-107084144D01*
X98907007Y-107145925D01*
X99034174Y-107180000D01*
X99165826Y-107180000D01*
X99292993Y-107145925D01*
X99400000Y-107084144D01*
X99400000Y-108179999D01*
X99749972Y-108179999D01*
X99749986Y-108179998D01*
X99852697Y-108169505D01*
X100019119Y-108114358D01*
X100019124Y-108114356D01*
X100168345Y-108022315D01*
X100292317Y-107898343D01*
X100387815Y-107743516D01*
X100439763Y-107696791D01*
X100508725Y-107685568D01*
X100572808Y-107713412D01*
X100581035Y-107720931D01*
X100720213Y-107860109D01*
X100892179Y-107985048D01*
X100892181Y-107985049D01*
X100892184Y-107985051D01*
X101081588Y-108081557D01*
X101283757Y-108147246D01*
X101493713Y-108180500D01*
X101493714Y-108180500D01*
X101706286Y-108180500D01*
X101706287Y-108180500D01*
X101916243Y-108147246D01*
X102118412Y-108081557D01*
X102307816Y-107985051D01*
X102342819Y-107959620D01*
X102479786Y-107860109D01*
X102479788Y-107860106D01*
X102479792Y-107860104D01*
X102630104Y-107709792D01*
X102630106Y-107709788D01*
X102630109Y-107709786D01*
X102755048Y-107537820D01*
X102755047Y-107537820D01*
X102755051Y-107537816D01*
X102851557Y-107348412D01*
X102917246Y-107146243D01*
X102950500Y-106936287D01*
X102950500Y-106423713D01*
X102917246Y-106213757D01*
X102851557Y-106011588D01*
X102755051Y-105822184D01*
X102755049Y-105822181D01*
X102755048Y-105822179D01*
X102630109Y-105650213D01*
X102479786Y-105499890D01*
X102307820Y-105374951D01*
X102118414Y-105278444D01*
X102118413Y-105278443D01*
X102118412Y-105278443D01*
X101916243Y-105212754D01*
X101916241Y-105212753D01*
X101916240Y-105212753D01*
X101754957Y-105187208D01*
X101706287Y-105179500D01*
X101493713Y-105179500D01*
X101445042Y-105187208D01*
X101283760Y-105212753D01*
X101081585Y-105278444D01*
X100892179Y-105374951D01*
X100720215Y-105499889D01*
X100581035Y-105639069D01*
X100519712Y-105672553D01*
X100450020Y-105667569D01*
X100394087Y-105625697D01*
X100387815Y-105616484D01*
X100292315Y-105461654D01*
X100168345Y-105337684D01*
X100019124Y-105245643D01*
X100019119Y-105245641D01*
X99852697Y-105190494D01*
X99852690Y-105190493D01*
X99749986Y-105180000D01*
X99400000Y-105180000D01*
X99400000Y-106275855D01*
X99292993Y-106214075D01*
X99165826Y-106180000D01*
X99034174Y-106180000D01*
X98907007Y-106214075D01*
X98800000Y-106275855D01*
X98800000Y-105180000D01*
X98450028Y-105180000D01*
X98450012Y-105180001D01*
X98347302Y-105190494D01*
X98180880Y-105245641D01*
X98180875Y-105245643D01*
X98031654Y-105337684D01*
X97907684Y-105461654D01*
X97815643Y-105610875D01*
X97815641Y-105610880D01*
X97760494Y-105777302D01*
X97760493Y-105777309D01*
X97750000Y-105880013D01*
X96304500Y-105880013D01*
X96304500Y-95974013D01*
X97750000Y-95974013D01*
X97750000Y-96474000D01*
X98695856Y-96474000D01*
X98634075Y-96581007D01*
X98600000Y-96708174D01*
X98600000Y-96839826D01*
X98634075Y-96966993D01*
X98695856Y-97074000D01*
X97750001Y-97074000D01*
X97750001Y-97573986D01*
X97760494Y-97676697D01*
X97815641Y-97843119D01*
X97815643Y-97843124D01*
X97907684Y-97992345D01*
X98031654Y-98116315D01*
X98180875Y-98208356D01*
X98180880Y-98208358D01*
X98347302Y-98263505D01*
X98347309Y-98263506D01*
X98450019Y-98273999D01*
X98799999Y-98273999D01*
X98800000Y-98273998D01*
X98800000Y-97178144D01*
X98907007Y-97239925D01*
X99034174Y-97274000D01*
X99165826Y-97274000D01*
X99292993Y-97239925D01*
X99400000Y-97178144D01*
X99400000Y-98273999D01*
X99749972Y-98273999D01*
X99749986Y-98273998D01*
X99852697Y-98263505D01*
X100019119Y-98208358D01*
X100019124Y-98208356D01*
X100168345Y-98116315D01*
X100292317Y-97992343D01*
X100387815Y-97837516D01*
X100439763Y-97790791D01*
X100508725Y-97779568D01*
X100572808Y-97807412D01*
X100581035Y-97814931D01*
X100720213Y-97954109D01*
X100892179Y-98079048D01*
X100892181Y-98079049D01*
X100892184Y-98079051D01*
X101081588Y-98175557D01*
X101283757Y-98241246D01*
X101493713Y-98274500D01*
X101493714Y-98274500D01*
X101706286Y-98274500D01*
X101706287Y-98274500D01*
X101916243Y-98241246D01*
X102118412Y-98175557D01*
X102307816Y-98079051D01*
X102347949Y-98049893D01*
X102479786Y-97954109D01*
X102479788Y-97954106D01*
X102479792Y-97954104D01*
X102630104Y-97803792D01*
X102630106Y-97803788D01*
X102630109Y-97803786D01*
X102755048Y-97631820D01*
X102755047Y-97631820D01*
X102755051Y-97631816D01*
X102851557Y-97442412D01*
X102917246Y-97240243D01*
X102950500Y-97030287D01*
X102950500Y-96517713D01*
X102917246Y-96307757D01*
X102851557Y-96105588D01*
X102784516Y-95974013D01*
X108124000Y-95974013D01*
X108124000Y-96474000D01*
X109069856Y-96474000D01*
X109008075Y-96581007D01*
X108974000Y-96708174D01*
X108974000Y-96839826D01*
X109008075Y-96966993D01*
X109069856Y-97074000D01*
X108124001Y-97074000D01*
X108124001Y-97573986D01*
X108134494Y-97676697D01*
X108189641Y-97843119D01*
X108189643Y-97843124D01*
X108281684Y-97992345D01*
X108405654Y-98116315D01*
X108554875Y-98208356D01*
X108554880Y-98208358D01*
X108721302Y-98263505D01*
X108721309Y-98263506D01*
X108824019Y-98273999D01*
X109173999Y-98273999D01*
X109174000Y-98273998D01*
X109174000Y-97178144D01*
X109281007Y-97239925D01*
X109408174Y-97274000D01*
X109539826Y-97274000D01*
X109666993Y-97239925D01*
X109774000Y-97178144D01*
X109774000Y-98273999D01*
X110123972Y-98273999D01*
X110123986Y-98273998D01*
X110226697Y-98263505D01*
X110393119Y-98208358D01*
X110393124Y-98208356D01*
X110542345Y-98116315D01*
X110666317Y-97992343D01*
X110761815Y-97837516D01*
X110813763Y-97790791D01*
X110882725Y-97779568D01*
X110946808Y-97807412D01*
X110955035Y-97814931D01*
X111094213Y-97954109D01*
X111266179Y-98079048D01*
X111266181Y-98079049D01*
X111266184Y-98079051D01*
X111455588Y-98175557D01*
X111657757Y-98241246D01*
X111867713Y-98274500D01*
X111867714Y-98274500D01*
X112080286Y-98274500D01*
X112080287Y-98274500D01*
X112290243Y-98241246D01*
X112492412Y-98175557D01*
X112681816Y-98079051D01*
X112721949Y-98049893D01*
X112853786Y-97954109D01*
X112853788Y-97954106D01*
X112853792Y-97954104D01*
X113004104Y-97803792D01*
X113004106Y-97803788D01*
X113004109Y-97803786D01*
X113129048Y-97631820D01*
X113129047Y-97631820D01*
X113129051Y-97631816D01*
X113225557Y-97442412D01*
X113291246Y-97240243D01*
X113324500Y-97030287D01*
X113324500Y-96517713D01*
X113291246Y-96307757D01*
X113225557Y-96105588D01*
X113129051Y-95916184D01*
X113129049Y-95916181D01*
X113129048Y-95916179D01*
X113004109Y-95744213D01*
X112853786Y-95593890D01*
X112681820Y-95468951D01*
X112492414Y-95372444D01*
X112492413Y-95372443D01*
X112492412Y-95372443D01*
X112290243Y-95306754D01*
X112290241Y-95306753D01*
X112290240Y-95306753D01*
X112128957Y-95281208D01*
X112080287Y-95273500D01*
X111867713Y-95273500D01*
X111819042Y-95281208D01*
X111657760Y-95306753D01*
X111455585Y-95372444D01*
X111266179Y-95468951D01*
X111094215Y-95593889D01*
X110955035Y-95733069D01*
X110893712Y-95766553D01*
X110824020Y-95761569D01*
X110768087Y-95719697D01*
X110761815Y-95710484D01*
X110666315Y-95555654D01*
X110542345Y-95431684D01*
X110393124Y-95339643D01*
X110393119Y-95339641D01*
X110226697Y-95284494D01*
X110226690Y-95284493D01*
X110123986Y-95274000D01*
X109774000Y-95274000D01*
X109774000Y-96369855D01*
X109666993Y-96308075D01*
X109539826Y-96274000D01*
X109408174Y-96274000D01*
X109281007Y-96308075D01*
X109174000Y-96369855D01*
X109174000Y-95274000D01*
X108824028Y-95274000D01*
X108824012Y-95274001D01*
X108721302Y-95284494D01*
X108554880Y-95339641D01*
X108554875Y-95339643D01*
X108405654Y-95431684D01*
X108281684Y-95555654D01*
X108189643Y-95704875D01*
X108189641Y-95704880D01*
X108134494Y-95871302D01*
X108134493Y-95871309D01*
X108124000Y-95974013D01*
X102784516Y-95974013D01*
X102755051Y-95916184D01*
X102755049Y-95916181D01*
X102755048Y-95916179D01*
X102630109Y-95744213D01*
X102479786Y-95593890D01*
X102307820Y-95468951D01*
X102118414Y-95372444D01*
X102118413Y-95372443D01*
X102118412Y-95372443D01*
X101916243Y-95306754D01*
X101916241Y-95306753D01*
X101916240Y-95306753D01*
X101754957Y-95281208D01*
X101706287Y-95273500D01*
X101493713Y-95273500D01*
X101445042Y-95281208D01*
X101283760Y-95306753D01*
X101081585Y-95372444D01*
X100892179Y-95468951D01*
X100720215Y-95593889D01*
X100581035Y-95733069D01*
X100519712Y-95766553D01*
X100450020Y-95761569D01*
X100394087Y-95719697D01*
X100387815Y-95710484D01*
X100292315Y-95555654D01*
X100168345Y-95431684D01*
X100019124Y-95339643D01*
X100019119Y-95339641D01*
X99852697Y-95284494D01*
X99852690Y-95284493D01*
X99749986Y-95274000D01*
X99400000Y-95274000D01*
X99400000Y-96369855D01*
X99292993Y-96308075D01*
X99165826Y-96274000D01*
X99034174Y-96274000D01*
X98907007Y-96308075D01*
X98800000Y-96369855D01*
X98800000Y-95274000D01*
X98450028Y-95274000D01*
X98450012Y-95274001D01*
X98347302Y-95284494D01*
X98180880Y-95339641D01*
X98180875Y-95339643D01*
X98031654Y-95431684D01*
X97907684Y-95555654D01*
X97815643Y-95704875D01*
X97815641Y-95704880D01*
X97760494Y-95871302D01*
X97760493Y-95871309D01*
X97750000Y-95974013D01*
X96304500Y-95974013D01*
X96304500Y-75513939D01*
X96324185Y-75446900D01*
X96340814Y-75426263D01*
X96378334Y-75388742D01*
X96439653Y-75355259D01*
X96509345Y-75360243D01*
X96565279Y-75402113D01*
X96589541Y-75465617D01*
X96596929Y-75550063D01*
X96596930Y-75550070D01*
X96654104Y-75763445D01*
X96654105Y-75763447D01*
X96654106Y-75763450D01*
X96731790Y-75930045D01*
X96747466Y-75963662D01*
X96747468Y-75963666D01*
X96874170Y-76144615D01*
X96874175Y-76144621D01*
X97030378Y-76300824D01*
X97030384Y-76300829D01*
X97211333Y-76427531D01*
X97211335Y-76427532D01*
X97211338Y-76427534D01*
X97313578Y-76475209D01*
X97340189Y-76487618D01*
X97392628Y-76533790D01*
X97411780Y-76600984D01*
X97391564Y-76667865D01*
X97340189Y-76712382D01*
X97211340Y-76772465D01*
X97211338Y-76772466D01*
X97030377Y-76899175D01*
X96874175Y-77055377D01*
X96747466Y-77236338D01*
X96747465Y-77236340D01*
X96664572Y-77414103D01*
X96657650Y-77428951D01*
X96654107Y-77436548D01*
X96654104Y-77436554D01*
X96596930Y-77649929D01*
X96596929Y-77649937D01*
X96577677Y-77869997D01*
X96577677Y-77870002D01*
X96596929Y-78090062D01*
X96596930Y-78090070D01*
X96654104Y-78303445D01*
X96654105Y-78303447D01*
X96654106Y-78303450D01*
X96717011Y-78438350D01*
X96747466Y-78503662D01*
X96747468Y-78503666D01*
X96874170Y-78684615D01*
X96874175Y-78684621D01*
X97030378Y-78840824D01*
X97030384Y-78840829D01*
X97211333Y-78967531D01*
X97211335Y-78967532D01*
X97211338Y-78967534D01*
X97329934Y-79022836D01*
X97340189Y-79027618D01*
X97392628Y-79073790D01*
X97411780Y-79140984D01*
X97391564Y-79207865D01*
X97340189Y-79252382D01*
X97211340Y-79312465D01*
X97211338Y-79312466D01*
X97030377Y-79439175D01*
X96874175Y-79595377D01*
X96747466Y-79776338D01*
X96747465Y-79776340D01*
X96654107Y-79976548D01*
X96654104Y-79976554D01*
X96596930Y-80189929D01*
X96596929Y-80189937D01*
X96577677Y-80409997D01*
X96577677Y-80410002D01*
X96596929Y-80630062D01*
X96596930Y-80630070D01*
X96654104Y-80843445D01*
X96654105Y-80843447D01*
X96654106Y-80843450D01*
X96698998Y-80939722D01*
X96747466Y-81043662D01*
X96747468Y-81043666D01*
X96874170Y-81224615D01*
X96874175Y-81224621D01*
X97030378Y-81380824D01*
X97030384Y-81380829D01*
X97211333Y-81507531D01*
X97211335Y-81507532D01*
X97211338Y-81507534D01*
X97330748Y-81563215D01*
X97340189Y-81567618D01*
X97392628Y-81613790D01*
X97411780Y-81680984D01*
X97391564Y-81747865D01*
X97340189Y-81792382D01*
X97211340Y-81852465D01*
X97211338Y-81852466D01*
X97030377Y-81979175D01*
X96874175Y-82135377D01*
X96747466Y-82316338D01*
X96747465Y-82316340D01*
X96688066Y-82443723D01*
X96657982Y-82508239D01*
X96654107Y-82516548D01*
X96654104Y-82516554D01*
X96596930Y-82729929D01*
X96596929Y-82729937D01*
X96577677Y-82949997D01*
X96577677Y-82950002D01*
X96596929Y-83170062D01*
X96596930Y-83170070D01*
X96654104Y-83383445D01*
X96654105Y-83383447D01*
X96654106Y-83383450D01*
X96723145Y-83531505D01*
X96747466Y-83583662D01*
X96747468Y-83583666D01*
X96874170Y-83764615D01*
X96874175Y-83764621D01*
X97030378Y-83920824D01*
X97030384Y-83920829D01*
X97211333Y-84047531D01*
X97211335Y-84047532D01*
X97211338Y-84047534D01*
X97330748Y-84103215D01*
X97340189Y-84107618D01*
X97392628Y-84153790D01*
X97411780Y-84220984D01*
X97391564Y-84287865D01*
X97340189Y-84332382D01*
X97211340Y-84392465D01*
X97211338Y-84392466D01*
X97030377Y-84519175D01*
X96874175Y-84675377D01*
X96747466Y-84856338D01*
X96747465Y-84856340D01*
X96654107Y-85056548D01*
X96654104Y-85056554D01*
X96596930Y-85269929D01*
X96596929Y-85269937D01*
X96577677Y-85489997D01*
X96577677Y-85490002D01*
X96596929Y-85710062D01*
X96596930Y-85710070D01*
X96654104Y-85923445D01*
X96654105Y-85923447D01*
X96654106Y-85923450D01*
X96729671Y-86085501D01*
X96747466Y-86123662D01*
X96747468Y-86123666D01*
X96874170Y-86304615D01*
X96874175Y-86304621D01*
X97030378Y-86460824D01*
X97030384Y-86460829D01*
X97211333Y-86587531D01*
X97211335Y-86587532D01*
X97211338Y-86587534D01*
X97330748Y-86643215D01*
X97340189Y-86647618D01*
X97392628Y-86693790D01*
X97411780Y-86760984D01*
X97391564Y-86827865D01*
X97340189Y-86872382D01*
X97211340Y-86932465D01*
X97211338Y-86932466D01*
X97030377Y-87059175D01*
X96874175Y-87215377D01*
X96747466Y-87396338D01*
X96747465Y-87396340D01*
X96654107Y-87596548D01*
X96654104Y-87596554D01*
X96596930Y-87809929D01*
X96596929Y-87809937D01*
X96577677Y-88029997D01*
X96577677Y-88030002D01*
X96596929Y-88250062D01*
X96596930Y-88250070D01*
X96654104Y-88463445D01*
X96654105Y-88463447D01*
X96654106Y-88463450D01*
X96747466Y-88663662D01*
X96747468Y-88663666D01*
X96874170Y-88844615D01*
X96874175Y-88844621D01*
X97030378Y-89000824D01*
X97030384Y-89000829D01*
X97211333Y-89127531D01*
X97211335Y-89127532D01*
X97211338Y-89127534D01*
X97330748Y-89183215D01*
X97340189Y-89187618D01*
X97392628Y-89233790D01*
X97411780Y-89300984D01*
X97391564Y-89367865D01*
X97340189Y-89412382D01*
X97211340Y-89472465D01*
X97211338Y-89472466D01*
X97030377Y-89599175D01*
X96874175Y-89755377D01*
X96747466Y-89936338D01*
X96747465Y-89936340D01*
X96654107Y-90136548D01*
X96654104Y-90136554D01*
X96596930Y-90349929D01*
X96596929Y-90349937D01*
X96577677Y-90569997D01*
X96577677Y-90570002D01*
X96596929Y-90790062D01*
X96596930Y-90790070D01*
X96654104Y-91003445D01*
X96654105Y-91003447D01*
X96654106Y-91003450D01*
X96656759Y-91009139D01*
X96747466Y-91203662D01*
X96747468Y-91203666D01*
X96874170Y-91384615D01*
X96874175Y-91384621D01*
X97030378Y-91540824D01*
X97030384Y-91540829D01*
X97211333Y-91667531D01*
X97211335Y-91667532D01*
X97211338Y-91667534D01*
X97411550Y-91760894D01*
X97624932Y-91818070D01*
X97782123Y-91831822D01*
X97844998Y-91837323D01*
X97845000Y-91837323D01*
X97845002Y-91837323D01*
X97900017Y-91832509D01*
X98065068Y-91818070D01*
X98278450Y-91760894D01*
X98478662Y-91667534D01*
X98659620Y-91540826D01*
X98815826Y-91384620D01*
X98942534Y-91203662D01*
X99035894Y-91003450D01*
X99093070Y-90790068D01*
X99112323Y-90570000D01*
X99110540Y-90549624D01*
X99101073Y-90441412D01*
X99093070Y-90349932D01*
X99044856Y-90169998D01*
X100294532Y-90169998D01*
X100294532Y-90170001D01*
X100314364Y-90396686D01*
X100314366Y-90396697D01*
X100373258Y-90616488D01*
X100373261Y-90616497D01*
X100469431Y-90822732D01*
X100469432Y-90822734D01*
X100599954Y-91009141D01*
X100760858Y-91170045D01*
X100760861Y-91170047D01*
X100947266Y-91300568D01*
X101153504Y-91396739D01*
X101373308Y-91455635D01*
X101535230Y-91469801D01*
X101599998Y-91475468D01*
X101600000Y-91475468D01*
X101600002Y-91475468D01*
X101656673Y-91470509D01*
X101826692Y-91455635D01*
X102046496Y-91396739D01*
X102252734Y-91300568D01*
X102439139Y-91170047D01*
X102600047Y-91009139D01*
X102730568Y-90822734D01*
X102826739Y-90616496D01*
X102865992Y-90470000D01*
X103584525Y-90470000D01*
X103623731Y-90616320D01*
X103623734Y-90616326D01*
X103719865Y-90822482D01*
X103850342Y-91008820D01*
X104011179Y-91169657D01*
X104197517Y-91300134D01*
X104403673Y-91396265D01*
X104403682Y-91396269D01*
X104550000Y-91435473D01*
X104550000Y-91435472D01*
X105150000Y-91435472D01*
X105296317Y-91396269D01*
X105296326Y-91396265D01*
X105502482Y-91300134D01*
X105511652Y-91293713D01*
X133374500Y-91293713D01*
X133374500Y-91506287D01*
X133379971Y-91540829D01*
X133400038Y-91667531D01*
X133407754Y-91716243D01*
X133467061Y-91898771D01*
X133473444Y-91918414D01*
X133569951Y-92107820D01*
X133694890Y-92279786D01*
X133845209Y-92430105D01*
X133845214Y-92430109D01*
X134009793Y-92549682D01*
X134052459Y-92605011D01*
X134058438Y-92674625D01*
X134025833Y-92736420D01*
X134009793Y-92750318D01*
X133845214Y-92869890D01*
X133845209Y-92869894D01*
X133694890Y-93020213D01*
X133569951Y-93192179D01*
X133473444Y-93381585D01*
X133407753Y-93583760D01*
X133374500Y-93793713D01*
X133374500Y-94006286D01*
X133407753Y-94216239D01*
X133473444Y-94418414D01*
X133569951Y-94607820D01*
X133694890Y-94779786D01*
X133845209Y-94930105D01*
X133845214Y-94930109D01*
X134009793Y-95049682D01*
X134052459Y-95105011D01*
X134058438Y-95174625D01*
X134025833Y-95236420D01*
X134009793Y-95250318D01*
X133845214Y-95369890D01*
X133845209Y-95369894D01*
X133694890Y-95520213D01*
X133569951Y-95692179D01*
X133473444Y-95881585D01*
X133407753Y-96083760D01*
X133380872Y-96253483D01*
X133374500Y-96293713D01*
X133374500Y-96506287D01*
X133407754Y-96716243D01*
X133446839Y-96836535D01*
X133473444Y-96918414D01*
X133569951Y-97107820D01*
X133694890Y-97279786D01*
X133845213Y-97430109D01*
X134017179Y-97555048D01*
X134017181Y-97555049D01*
X134017184Y-97555051D01*
X134206588Y-97651557D01*
X134408757Y-97717246D01*
X134618713Y-97750500D01*
X134618714Y-97750500D01*
X135081286Y-97750500D01*
X135081287Y-97750500D01*
X135291243Y-97717246D01*
X135493412Y-97651557D01*
X135682816Y-97555051D01*
X135837849Y-97442414D01*
X135854786Y-97430109D01*
X135854788Y-97430106D01*
X135854792Y-97430104D01*
X136005104Y-97279792D01*
X136005106Y-97279788D01*
X136005109Y-97279786D01*
X136130048Y-97107820D01*
X136130047Y-97107820D01*
X136130051Y-97107816D01*
X136226557Y-96918412D01*
X136292246Y-96716243D01*
X136325500Y-96506287D01*
X136325500Y-96293713D01*
X136292246Y-96083757D01*
X136226557Y-95881588D01*
X136130051Y-95692184D01*
X136130049Y-95692181D01*
X136130048Y-95692179D01*
X136005109Y-95520213D01*
X135854792Y-95369896D01*
X135802964Y-95332241D01*
X135690204Y-95250316D01*
X135647540Y-95194989D01*
X135641561Y-95125376D01*
X135674166Y-95063580D01*
X135690199Y-95049686D01*
X135854792Y-94930104D01*
X136005104Y-94779792D01*
X136005106Y-94779788D01*
X136005109Y-94779786D01*
X136130048Y-94607820D01*
X136130047Y-94607820D01*
X136130051Y-94607816D01*
X136226557Y-94418412D01*
X136292246Y-94216243D01*
X136325500Y-94006287D01*
X136325500Y-93793713D01*
X136292246Y-93583757D01*
X136226557Y-93381588D01*
X136130051Y-93192184D01*
X136130049Y-93192181D01*
X136130048Y-93192179D01*
X136005109Y-93020213D01*
X135854792Y-92869896D01*
X135854784Y-92869890D01*
X135690204Y-92750316D01*
X135647540Y-92694989D01*
X135641561Y-92625376D01*
X135674166Y-92563580D01*
X135690199Y-92549686D01*
X135854792Y-92430104D01*
X136005104Y-92279792D01*
X136005106Y-92279788D01*
X136005109Y-92279786D01*
X136130048Y-92107820D01*
X136130047Y-92107820D01*
X136130051Y-92107816D01*
X136226557Y-91918412D01*
X136292246Y-91716243D01*
X136325500Y-91506287D01*
X136325500Y-91293713D01*
X136292246Y-91083757D01*
X136226557Y-90881588D01*
X136130051Y-90692184D01*
X136130049Y-90692181D01*
X136130048Y-90692179D01*
X136005109Y-90520213D01*
X135865931Y-90381035D01*
X135832446Y-90319712D01*
X135837430Y-90250020D01*
X135879302Y-90194087D01*
X135888516Y-90187815D01*
X136043343Y-90092317D01*
X136167315Y-89968345D01*
X136259356Y-89819124D01*
X136259358Y-89819119D01*
X136314505Y-89652697D01*
X136314506Y-89652690D01*
X136324999Y-89549986D01*
X136325000Y-89549973D01*
X136325000Y-89200000D01*
X135221752Y-89200000D01*
X135230095Y-89191657D01*
X135292630Y-89083343D01*
X135325000Y-88962535D01*
X135325000Y-88837465D01*
X135292630Y-88716657D01*
X135230095Y-88608343D01*
X135221752Y-88600000D01*
X136324999Y-88600000D01*
X136324999Y-88250028D01*
X136324998Y-88250013D01*
X136314505Y-88147302D01*
X136259358Y-87980880D01*
X136259356Y-87980875D01*
X136167315Y-87831654D01*
X136043345Y-87707684D01*
X135894124Y-87615643D01*
X135894119Y-87615641D01*
X135727697Y-87560494D01*
X135727690Y-87560493D01*
X135624986Y-87550000D01*
X135150000Y-87550000D01*
X135150000Y-88528248D01*
X135141657Y-88519905D01*
X135033343Y-88457370D01*
X134912535Y-88425000D01*
X134787465Y-88425000D01*
X134666657Y-88457370D01*
X134558343Y-88519905D01*
X134550000Y-88528248D01*
X134550000Y-87550000D01*
X134075028Y-87550000D01*
X134075012Y-87550001D01*
X133972302Y-87560494D01*
X133805880Y-87615641D01*
X133805875Y-87615643D01*
X133656654Y-87707684D01*
X133532684Y-87831654D01*
X133440643Y-87980875D01*
X133440641Y-87980880D01*
X133385494Y-88147302D01*
X133385493Y-88147309D01*
X133375000Y-88250013D01*
X133375000Y-88600000D01*
X134478248Y-88600000D01*
X134469905Y-88608343D01*
X134407370Y-88716657D01*
X134375000Y-88837465D01*
X134375000Y-88962535D01*
X134407370Y-89083343D01*
X134469905Y-89191657D01*
X134478248Y-89200000D01*
X133375001Y-89200000D01*
X133375001Y-89549986D01*
X133385494Y-89652697D01*
X133440641Y-89819119D01*
X133440643Y-89819124D01*
X133532684Y-89968345D01*
X133656654Y-90092315D01*
X133811484Y-90187815D01*
X133858208Y-90239763D01*
X133869431Y-90308726D01*
X133841587Y-90372808D01*
X133834069Y-90381035D01*
X133694889Y-90520215D01*
X133569951Y-90692179D01*
X133473444Y-90881585D01*
X133407753Y-91083760D01*
X133394087Y-91170045D01*
X133374500Y-91293713D01*
X105511652Y-91293713D01*
X105688820Y-91169657D01*
X105849657Y-91008820D01*
X105980134Y-90822482D01*
X106076265Y-90616326D01*
X106076268Y-90616320D01*
X106115475Y-90470000D01*
X105150000Y-90470000D01*
X105150000Y-91435472D01*
X104550000Y-91435472D01*
X104550000Y-90470000D01*
X103584525Y-90470000D01*
X102865992Y-90470000D01*
X102885635Y-90396692D01*
X102905468Y-90170000D01*
X102900861Y-90117339D01*
X104450000Y-90117339D01*
X104450000Y-90222661D01*
X104477259Y-90324394D01*
X104529920Y-90415606D01*
X104604394Y-90490080D01*
X104695606Y-90542741D01*
X104797339Y-90570000D01*
X104902661Y-90570000D01*
X105004394Y-90542741D01*
X105095606Y-90490080D01*
X105170080Y-90415606D01*
X105222741Y-90324394D01*
X105250000Y-90222661D01*
X105250000Y-90117339D01*
X105222741Y-90015606D01*
X105170080Y-89924394D01*
X105115686Y-89870000D01*
X105150000Y-89870000D01*
X106115475Y-89870000D01*
X106115474Y-89869999D01*
X106076268Y-89723679D01*
X106076265Y-89723673D01*
X105980134Y-89517517D01*
X105849657Y-89331179D01*
X105688820Y-89170342D01*
X105502482Y-89039865D01*
X105296326Y-88943734D01*
X105296320Y-88943731D01*
X105150000Y-88904525D01*
X105150000Y-89870000D01*
X105115686Y-89870000D01*
X105095606Y-89849920D01*
X105004394Y-89797259D01*
X104902661Y-89770000D01*
X104797339Y-89770000D01*
X104695606Y-89797259D01*
X104604394Y-89849920D01*
X104529920Y-89924394D01*
X104477259Y-90015606D01*
X104450000Y-90117339D01*
X102900861Y-90117339D01*
X102885635Y-89943308D01*
X102865992Y-89869999D01*
X103584525Y-89869999D01*
X103584525Y-89870000D01*
X104550000Y-89870000D01*
X104550000Y-88904525D01*
X104549999Y-88904525D01*
X104403679Y-88943731D01*
X104403673Y-88943734D01*
X104197517Y-89039865D01*
X104011179Y-89170342D01*
X103850342Y-89331179D01*
X103719865Y-89517517D01*
X103623734Y-89723673D01*
X103623731Y-89723679D01*
X103584525Y-89869999D01*
X102865992Y-89869999D01*
X102826739Y-89723504D01*
X102730568Y-89517266D01*
X102600047Y-89330861D01*
X102600045Y-89330858D01*
X102439141Y-89169954D01*
X102252734Y-89039432D01*
X102252732Y-89039431D01*
X102046497Y-88943261D01*
X102046488Y-88943258D01*
X101826697Y-88884366D01*
X101826693Y-88884365D01*
X101826692Y-88884365D01*
X101826691Y-88884364D01*
X101826686Y-88884364D01*
X101600002Y-88864532D01*
X101599998Y-88864532D01*
X101373313Y-88884364D01*
X101373302Y-88884366D01*
X101153511Y-88943258D01*
X101153502Y-88943261D01*
X100947267Y-89039431D01*
X100947265Y-89039432D01*
X100760858Y-89169954D01*
X100599954Y-89330858D01*
X100469432Y-89517265D01*
X100469431Y-89517267D01*
X100373261Y-89723502D01*
X100373258Y-89723511D01*
X100314366Y-89943302D01*
X100314364Y-89943313D01*
X100294532Y-90169998D01*
X99044856Y-90169998D01*
X99035894Y-90136550D01*
X98942534Y-89936339D01*
X98815826Y-89755380D01*
X98659620Y-89599174D01*
X98659616Y-89599171D01*
X98659615Y-89599170D01*
X98478666Y-89472468D01*
X98478658Y-89472464D01*
X98349811Y-89412382D01*
X98297371Y-89366210D01*
X98278219Y-89299017D01*
X98298435Y-89232135D01*
X98349811Y-89187618D01*
X98355802Y-89184824D01*
X98478662Y-89127534D01*
X98659620Y-89000826D01*
X98815826Y-88844620D01*
X98942534Y-88663662D01*
X98968483Y-88608013D01*
X120356000Y-88608013D01*
X120356000Y-89108000D01*
X121301856Y-89108000D01*
X121240075Y-89215007D01*
X121206000Y-89342174D01*
X121206000Y-89473826D01*
X121240075Y-89600993D01*
X121301856Y-89708000D01*
X120356001Y-89708000D01*
X120356001Y-90207986D01*
X120366494Y-90310697D01*
X120421641Y-90477119D01*
X120421643Y-90477124D01*
X120513684Y-90626345D01*
X120637654Y-90750315D01*
X120786875Y-90842356D01*
X120786880Y-90842358D01*
X120953302Y-90897505D01*
X120953309Y-90897506D01*
X121056019Y-90907999D01*
X121405999Y-90907999D01*
X121406000Y-90907998D01*
X121406000Y-89812144D01*
X121513007Y-89873925D01*
X121640174Y-89908000D01*
X121771826Y-89908000D01*
X121898993Y-89873925D01*
X122006000Y-89812144D01*
X122006000Y-90907999D01*
X122355972Y-90907999D01*
X122355986Y-90907998D01*
X122458697Y-90897505D01*
X122625119Y-90842358D01*
X122625124Y-90842356D01*
X122774345Y-90750315D01*
X122898317Y-90626343D01*
X122993815Y-90471516D01*
X123045763Y-90424791D01*
X123114725Y-90413568D01*
X123178808Y-90441412D01*
X123187035Y-90448931D01*
X123326213Y-90588109D01*
X123498179Y-90713048D01*
X123498181Y-90713049D01*
X123498184Y-90713051D01*
X123687588Y-90809557D01*
X123889757Y-90875246D01*
X124099713Y-90908500D01*
X124099714Y-90908500D01*
X124312286Y-90908500D01*
X124312287Y-90908500D01*
X124522243Y-90875246D01*
X124724412Y-90809557D01*
X124913816Y-90713051D01*
X124942544Y-90692179D01*
X125085786Y-90588109D01*
X125085788Y-90588106D01*
X125085792Y-90588104D01*
X125236104Y-90437792D01*
X125236106Y-90437788D01*
X125236109Y-90437786D01*
X125361048Y-90265820D01*
X125361047Y-90265820D01*
X125361051Y-90265816D01*
X125457557Y-90076412D01*
X125523246Y-89874243D01*
X125556500Y-89664287D01*
X125556500Y-89151713D01*
X125523246Y-88941757D01*
X125457557Y-88739588D01*
X125361051Y-88550184D01*
X125361049Y-88550181D01*
X125361048Y-88550179D01*
X125236109Y-88378213D01*
X125085786Y-88227890D01*
X124913820Y-88102951D01*
X124724414Y-88006444D01*
X124724413Y-88006443D01*
X124724412Y-88006443D01*
X124522243Y-87940754D01*
X124522241Y-87940753D01*
X124522240Y-87940753D01*
X124355776Y-87914388D01*
X124312287Y-87907500D01*
X124099713Y-87907500D01*
X124056224Y-87914388D01*
X123889760Y-87940753D01*
X123687585Y-88006444D01*
X123498179Y-88102951D01*
X123326215Y-88227889D01*
X123187035Y-88367069D01*
X123125712Y-88400553D01*
X123056020Y-88395569D01*
X123000087Y-88353697D01*
X122993815Y-88344484D01*
X122898315Y-88189654D01*
X122774345Y-88065684D01*
X122625124Y-87973643D01*
X122625119Y-87973641D01*
X122458697Y-87918494D01*
X122458690Y-87918493D01*
X122355986Y-87908000D01*
X122006000Y-87908000D01*
X122006000Y-89003855D01*
X121898993Y-88942075D01*
X121771826Y-88908000D01*
X121640174Y-88908000D01*
X121513007Y-88942075D01*
X121406000Y-89003855D01*
X121406000Y-87908000D01*
X121056028Y-87908000D01*
X121056012Y-87908001D01*
X120953302Y-87918494D01*
X120786880Y-87973641D01*
X120786875Y-87973643D01*
X120637654Y-88065684D01*
X120513684Y-88189654D01*
X120421643Y-88338875D01*
X120421641Y-88338880D01*
X120366494Y-88505302D01*
X120366493Y-88505309D01*
X120356000Y-88608013D01*
X98968483Y-88608013D01*
X99035894Y-88463450D01*
X99093070Y-88250068D01*
X99112323Y-88030000D01*
X99093070Y-87809932D01*
X99035894Y-87596550D01*
X98942534Y-87396339D01*
X98815826Y-87215380D01*
X98659620Y-87059174D01*
X98659616Y-87059171D01*
X98659615Y-87059170D01*
X98478666Y-86932468D01*
X98478658Y-86932464D01*
X98349811Y-86872382D01*
X98297371Y-86826210D01*
X98278219Y-86759017D01*
X98298435Y-86692135D01*
X98349811Y-86647618D01*
X98358831Y-86643412D01*
X98478662Y-86587534D01*
X98659620Y-86460826D01*
X98815826Y-86304620D01*
X98942534Y-86123662D01*
X99035894Y-85923450D01*
X99093070Y-85710068D01*
X99108715Y-85531239D01*
X99112323Y-85490002D01*
X99112323Y-85489997D01*
X99102844Y-85381657D01*
X99093070Y-85269932D01*
X99035894Y-85056550D01*
X98942534Y-84856339D01*
X98815826Y-84675380D01*
X98765445Y-84624999D01*
X109794422Y-84624999D01*
X109794422Y-84625000D01*
X109814722Y-85012339D01*
X109875397Y-85395427D01*
X109875398Y-85395433D01*
X109959702Y-85710062D01*
X109975788Y-85770094D01*
X110114787Y-86132197D01*
X110290877Y-86477793D01*
X110502122Y-86803082D01*
X110709502Y-87059174D01*
X110746219Y-87104516D01*
X111020484Y-87378781D01*
X111042168Y-87396340D01*
X111321917Y-87622877D01*
X111643406Y-87831654D01*
X111647211Y-87834125D01*
X111992806Y-88010214D01*
X112354913Y-88149214D01*
X112729567Y-88249602D01*
X113112662Y-88310278D01*
X113478576Y-88329455D01*
X113499999Y-88330578D01*
X113500000Y-88330578D01*
X113500001Y-88330578D01*
X113520301Y-88329514D01*
X113887338Y-88310278D01*
X114270433Y-88249602D01*
X114645087Y-88149214D01*
X115007194Y-88010214D01*
X115352789Y-87834125D01*
X115678084Y-87622876D01*
X115979516Y-87378781D01*
X116253781Y-87104516D01*
X116497876Y-86803084D01*
X116709125Y-86477789D01*
X116885214Y-86132194D01*
X117024214Y-85770087D01*
X117124602Y-85395433D01*
X117185278Y-85012338D01*
X117205578Y-84625000D01*
X117185278Y-84237662D01*
X117124602Y-83854567D01*
X117024214Y-83479913D01*
X116885214Y-83117806D01*
X116709125Y-82772211D01*
X116681669Y-82729932D01*
X116497877Y-82446917D01*
X116389737Y-82313375D01*
X116253781Y-82145484D01*
X115979516Y-81871219D01*
X115945164Y-81843401D01*
X115678082Y-81627122D01*
X115352793Y-81415877D01*
X115011566Y-81242013D01*
X120316000Y-81242013D01*
X120316000Y-81742000D01*
X121261856Y-81742000D01*
X121200075Y-81849007D01*
X121166000Y-81976174D01*
X121166000Y-82107826D01*
X121200075Y-82234993D01*
X121261856Y-82342000D01*
X120316001Y-82342000D01*
X120316001Y-82841986D01*
X120326494Y-82944697D01*
X120381641Y-83111119D01*
X120381643Y-83111124D01*
X120473684Y-83260345D01*
X120597654Y-83384315D01*
X120746875Y-83476356D01*
X120746880Y-83476358D01*
X120913302Y-83531505D01*
X120913309Y-83531506D01*
X121016019Y-83541999D01*
X121365999Y-83541999D01*
X121366000Y-83541998D01*
X121366000Y-82446144D01*
X121473007Y-82507925D01*
X121600174Y-82542000D01*
X121731826Y-82542000D01*
X121858993Y-82507925D01*
X121966000Y-82446144D01*
X121966000Y-83541999D01*
X122315972Y-83541999D01*
X122315986Y-83541998D01*
X122418697Y-83531505D01*
X122585119Y-83476358D01*
X122585124Y-83476356D01*
X122734345Y-83384315D01*
X122858317Y-83260343D01*
X122953815Y-83105516D01*
X123005763Y-83058791D01*
X123074725Y-83047568D01*
X123138808Y-83075412D01*
X123147035Y-83082931D01*
X123286213Y-83222109D01*
X123458179Y-83347048D01*
X123458181Y-83347049D01*
X123458184Y-83347051D01*
X123647588Y-83443557D01*
X123849757Y-83509246D01*
X124059713Y-83542500D01*
X124059714Y-83542500D01*
X124272286Y-83542500D01*
X124272287Y-83542500D01*
X124482243Y-83509246D01*
X124684412Y-83443557D01*
X124873816Y-83347051D01*
X124895789Y-83331086D01*
X125045786Y-83222109D01*
X125045788Y-83222106D01*
X125045792Y-83222104D01*
X125196104Y-83071792D01*
X125196106Y-83071788D01*
X125196109Y-83071786D01*
X125321048Y-82899820D01*
X125321047Y-82899820D01*
X125321051Y-82899816D01*
X125417557Y-82710412D01*
X125483246Y-82508243D01*
X125516500Y-82298287D01*
X125516500Y-81785713D01*
X125483246Y-81575757D01*
X125417557Y-81373588D01*
X125321051Y-81184184D01*
X125321049Y-81184181D01*
X125321048Y-81184179D01*
X125196109Y-81012213D01*
X125045786Y-80861890D01*
X124873820Y-80736951D01*
X124684414Y-80640444D01*
X124684413Y-80640443D01*
X124684412Y-80640443D01*
X124482243Y-80574754D01*
X124482241Y-80574753D01*
X124482240Y-80574753D01*
X124320957Y-80549208D01*
X124272287Y-80541500D01*
X124059713Y-80541500D01*
X124011042Y-80549208D01*
X123849760Y-80574753D01*
X123647585Y-80640444D01*
X123458179Y-80736951D01*
X123286215Y-80861889D01*
X123147035Y-81001069D01*
X123085712Y-81034553D01*
X123016020Y-81029569D01*
X122960087Y-80987697D01*
X122953815Y-80978484D01*
X122858315Y-80823654D01*
X122734345Y-80699684D01*
X122585124Y-80607643D01*
X122585119Y-80607641D01*
X122418697Y-80552494D01*
X122418690Y-80552493D01*
X122315986Y-80542000D01*
X121966000Y-80542000D01*
X121966000Y-81637855D01*
X121858993Y-81576075D01*
X121731826Y-81542000D01*
X121600174Y-81542000D01*
X121473007Y-81576075D01*
X121366000Y-81637855D01*
X121366000Y-80542000D01*
X121016028Y-80542000D01*
X121016012Y-80542001D01*
X120913302Y-80552494D01*
X120746880Y-80607641D01*
X120746875Y-80607643D01*
X120597654Y-80699684D01*
X120473684Y-80823654D01*
X120381643Y-80972875D01*
X120381641Y-80972880D01*
X120326494Y-81139302D01*
X120326493Y-81139309D01*
X120316000Y-81242013D01*
X115011566Y-81242013D01*
X115007197Y-81239787D01*
X114645094Y-81100788D01*
X114645087Y-81100786D01*
X114270433Y-81000398D01*
X114270429Y-81000397D01*
X114270428Y-81000397D01*
X113887339Y-80939722D01*
X113500001Y-80919422D01*
X113499999Y-80919422D01*
X113112660Y-80939722D01*
X112729572Y-81000397D01*
X112729570Y-81000397D01*
X112354905Y-81100788D01*
X111992802Y-81239787D01*
X111647206Y-81415877D01*
X111321917Y-81627122D01*
X111020488Y-81871215D01*
X111020480Y-81871222D01*
X110746222Y-82145480D01*
X110746215Y-82145488D01*
X110502122Y-82446917D01*
X110290877Y-82772206D01*
X110114787Y-83117802D01*
X109975788Y-83479905D01*
X109875397Y-83854570D01*
X109875397Y-83854572D01*
X109814722Y-84237660D01*
X109794422Y-84624999D01*
X98765445Y-84624999D01*
X98659620Y-84519174D01*
X98659616Y-84519171D01*
X98659615Y-84519170D01*
X98478666Y-84392468D01*
X98478658Y-84392464D01*
X98349811Y-84332382D01*
X98297371Y-84286210D01*
X98278219Y-84219017D01*
X98298435Y-84152135D01*
X98349811Y-84107618D01*
X98355802Y-84104824D01*
X98478662Y-84047534D01*
X98659620Y-83920826D01*
X98815826Y-83764620D01*
X98942534Y-83583662D01*
X99035894Y-83383450D01*
X99093070Y-83170068D01*
X99108256Y-82996488D01*
X99112323Y-82950002D01*
X99112323Y-82949997D01*
X99093070Y-82729937D01*
X99093070Y-82729932D01*
X99044856Y-82549998D01*
X100294532Y-82549998D01*
X100294532Y-82550001D01*
X100314364Y-82776686D01*
X100314366Y-82776697D01*
X100373258Y-82996488D01*
X100373261Y-82996497D01*
X100469431Y-83202732D01*
X100469432Y-83202734D01*
X100599954Y-83389141D01*
X100760858Y-83550045D01*
X100760861Y-83550047D01*
X100947266Y-83680568D01*
X101153504Y-83776739D01*
X101373308Y-83835635D01*
X101535230Y-83849801D01*
X101599998Y-83855468D01*
X101600000Y-83855468D01*
X101600002Y-83855468D01*
X101656673Y-83850509D01*
X101826692Y-83835635D01*
X102046496Y-83776739D01*
X102252734Y-83680568D01*
X102439139Y-83550047D01*
X102600047Y-83389139D01*
X102730568Y-83202734D01*
X102826739Y-82996496D01*
X102885635Y-82776692D01*
X102905468Y-82550000D01*
X102905468Y-82549998D01*
X103544532Y-82549998D01*
X103544532Y-82550001D01*
X103564364Y-82776686D01*
X103564366Y-82776697D01*
X103623258Y-82996488D01*
X103623261Y-82996497D01*
X103719431Y-83202732D01*
X103719432Y-83202734D01*
X103849954Y-83389141D01*
X104010858Y-83550045D01*
X104010861Y-83550047D01*
X104197266Y-83680568D01*
X104403504Y-83776739D01*
X104623308Y-83835635D01*
X104785230Y-83849801D01*
X104849998Y-83855468D01*
X104850000Y-83855468D01*
X104850002Y-83855468D01*
X104906673Y-83850509D01*
X105076692Y-83835635D01*
X105296496Y-83776739D01*
X105502734Y-83680568D01*
X105689139Y-83550047D01*
X105850047Y-83389139D01*
X105980568Y-83202734D01*
X106076739Y-82996496D01*
X106135635Y-82776692D01*
X106155468Y-82550000D01*
X106135635Y-82323308D01*
X106076739Y-82103504D01*
X105980568Y-81897266D01*
X105850047Y-81710861D01*
X105850045Y-81710858D01*
X105689141Y-81549954D01*
X105502734Y-81419432D01*
X105502732Y-81419431D01*
X105296497Y-81323261D01*
X105296488Y-81323258D01*
X105076697Y-81264366D01*
X105076693Y-81264365D01*
X105076692Y-81264365D01*
X105076691Y-81264364D01*
X105076686Y-81264364D01*
X104850002Y-81244532D01*
X104849998Y-81244532D01*
X104623313Y-81264364D01*
X104623302Y-81264366D01*
X104403511Y-81323258D01*
X104403502Y-81323261D01*
X104197267Y-81419431D01*
X104197265Y-81419432D01*
X104010858Y-81549954D01*
X103849954Y-81710858D01*
X103719432Y-81897265D01*
X103719431Y-81897267D01*
X103623261Y-82103502D01*
X103623258Y-82103511D01*
X103564366Y-82323302D01*
X103564364Y-82323313D01*
X103544532Y-82549998D01*
X102905468Y-82549998D01*
X102885635Y-82323308D01*
X102826739Y-82103504D01*
X102730568Y-81897266D01*
X102600047Y-81710861D01*
X102600045Y-81710858D01*
X102439141Y-81549954D01*
X102252734Y-81419432D01*
X102252732Y-81419431D01*
X102046497Y-81323261D01*
X102046488Y-81323258D01*
X101826697Y-81264366D01*
X101826693Y-81264365D01*
X101826692Y-81264365D01*
X101826691Y-81264364D01*
X101826686Y-81264364D01*
X101600002Y-81244532D01*
X101599998Y-81244532D01*
X101373313Y-81264364D01*
X101373302Y-81264366D01*
X101153511Y-81323258D01*
X101153502Y-81323261D01*
X100947267Y-81419431D01*
X100947265Y-81419432D01*
X100760858Y-81549954D01*
X100599954Y-81710858D01*
X100469432Y-81897265D01*
X100469431Y-81897267D01*
X100373261Y-82103502D01*
X100373258Y-82103511D01*
X100314366Y-82323302D01*
X100314364Y-82323313D01*
X100294532Y-82549998D01*
X99044856Y-82549998D01*
X99035894Y-82516550D01*
X98942534Y-82316339D01*
X98815826Y-82135380D01*
X98659620Y-81979174D01*
X98659616Y-81979171D01*
X98659615Y-81979170D01*
X98478666Y-81852468D01*
X98478658Y-81852464D01*
X98349811Y-81792382D01*
X98297371Y-81746210D01*
X98278219Y-81679017D01*
X98298435Y-81612135D01*
X98349811Y-81567618D01*
X98355802Y-81564824D01*
X98478662Y-81507534D01*
X98659620Y-81380826D01*
X98815826Y-81224620D01*
X98942534Y-81043662D01*
X99035894Y-80843450D01*
X99093070Y-80630068D01*
X99108256Y-80456488D01*
X99112323Y-80410002D01*
X99112323Y-80409997D01*
X99093070Y-80189937D01*
X99093070Y-80189932D01*
X99035894Y-79976550D01*
X98942534Y-79776339D01*
X98815826Y-79595380D01*
X98659620Y-79439174D01*
X98659616Y-79439171D01*
X98659615Y-79439170D01*
X98478666Y-79312468D01*
X98478658Y-79312464D01*
X98349811Y-79252382D01*
X98297371Y-79206210D01*
X98278219Y-79139017D01*
X98298435Y-79072135D01*
X98349811Y-79027618D01*
X98355802Y-79024824D01*
X98478662Y-78967534D01*
X98659620Y-78840826D01*
X98815826Y-78684620D01*
X98942534Y-78503662D01*
X99035894Y-78303450D01*
X99093070Y-78090068D01*
X99097201Y-78042844D01*
X100858000Y-78042844D01*
X100864401Y-78102372D01*
X100864403Y-78102379D01*
X100914645Y-78237086D01*
X100914649Y-78237093D01*
X101000809Y-78352187D01*
X101000812Y-78352190D01*
X101115906Y-78438350D01*
X101115913Y-78438354D01*
X101250620Y-78488596D01*
X101250627Y-78488598D01*
X101310155Y-78494999D01*
X101310172Y-78495000D01*
X101808000Y-78495000D01*
X102408000Y-78495000D01*
X102905828Y-78495000D01*
X102905844Y-78494999D01*
X102965372Y-78488598D01*
X102965379Y-78488596D01*
X103100086Y-78438354D01*
X103100093Y-78438350D01*
X103215187Y-78352190D01*
X103215190Y-78352187D01*
X103301350Y-78237093D01*
X103301354Y-78237086D01*
X103351596Y-78102379D01*
X103351598Y-78102372D01*
X103357999Y-78042844D01*
X103358000Y-78042827D01*
X103358000Y-77770000D01*
X102408000Y-77770000D01*
X102408000Y-78495000D01*
X101808000Y-78495000D01*
X101808000Y-77770000D01*
X100858000Y-77770000D01*
X100858000Y-78042844D01*
X99097201Y-78042844D01*
X99110200Y-77894264D01*
X99112323Y-77870002D01*
X99112323Y-77869997D01*
X99100946Y-77739954D01*
X99093070Y-77649932D01*
X99035894Y-77436550D01*
X98942534Y-77236339D01*
X98875813Y-77141051D01*
X98815827Y-77055381D01*
X98755586Y-76995140D01*
X98659620Y-76899174D01*
X98659616Y-76899171D01*
X98659615Y-76899170D01*
X98478662Y-76772466D01*
X98478658Y-76772464D01*
X98349811Y-76712382D01*
X98297371Y-76666210D01*
X98278219Y-76599017D01*
X98298435Y-76532135D01*
X98349811Y-76487618D01*
X98376422Y-76475209D01*
X98478662Y-76427534D01*
X98659620Y-76300826D01*
X98815826Y-76144620D01*
X98942534Y-75963662D01*
X99035894Y-75763450D01*
X99093070Y-75550068D01*
X99110113Y-75355259D01*
X99112323Y-75330002D01*
X99112323Y-75329997D01*
X99093070Y-75109937D01*
X99093070Y-75109932D01*
X99035894Y-74896550D01*
X99004391Y-74828992D01*
X100857500Y-74828992D01*
X100857500Y-75031007D01*
X100896907Y-75229119D01*
X100896909Y-75229127D01*
X100974213Y-75415755D01*
X101027904Y-75496109D01*
X101048782Y-75562787D01*
X101030297Y-75630167D01*
X101027904Y-75633891D01*
X100974213Y-75714244D01*
X100896909Y-75900872D01*
X100896907Y-75900880D01*
X100857500Y-76098992D01*
X100857500Y-76301007D01*
X100896907Y-76499119D01*
X100896910Y-76499131D01*
X100930547Y-76580338D01*
X100938016Y-76649807D01*
X100918405Y-76694864D01*
X100918895Y-76695132D01*
X100915910Y-76700596D01*
X100915260Y-76702092D01*
X100914646Y-76702911D01*
X100914645Y-76702913D01*
X100864403Y-76837620D01*
X100864401Y-76837627D01*
X100858000Y-76897155D01*
X100858000Y-77170000D01*
X101520361Y-77170000D01*
X101567813Y-77179438D01*
X101583873Y-77186091D01*
X101776437Y-77224394D01*
X101781992Y-77225499D01*
X101781996Y-77225500D01*
X101781997Y-77225500D01*
X101822170Y-77225500D01*
X101807925Y-77239745D01*
X101758556Y-77325255D01*
X101733000Y-77420630D01*
X101733000Y-77519370D01*
X101758556Y-77614745D01*
X101807925Y-77700255D01*
X101877745Y-77770075D01*
X101963255Y-77819444D01*
X102058630Y-77845000D01*
X102157370Y-77845000D01*
X102252745Y-77819444D01*
X102338255Y-77770075D01*
X102384330Y-77724000D01*
X105328551Y-77724000D01*
X105348317Y-77975151D01*
X105407126Y-78220110D01*
X105503533Y-78452859D01*
X105635160Y-78667653D01*
X105635161Y-78667656D01*
X105690604Y-78732571D01*
X105798776Y-78859224D01*
X105905929Y-78950741D01*
X105990343Y-79022838D01*
X105990345Y-79022838D01*
X106001163Y-79029468D01*
X106205140Y-79154466D01*
X106334058Y-79207865D01*
X106437889Y-79250873D01*
X106682852Y-79309683D01*
X106934000Y-79329449D01*
X107185148Y-79309683D01*
X107430111Y-79250873D01*
X107662859Y-79154466D01*
X107877659Y-79022836D01*
X108069224Y-78859224D01*
X108232836Y-78667659D01*
X108364466Y-78452859D01*
X108460873Y-78220111D01*
X108519683Y-77975148D01*
X108539449Y-77724000D01*
X108519683Y-77472852D01*
X108460873Y-77227889D01*
X108443559Y-77186090D01*
X108364466Y-76995140D01*
X108232839Y-76780346D01*
X108232838Y-76780343D01*
X108184676Y-76723953D01*
X108069224Y-76588776D01*
X108054423Y-76576135D01*
X115493500Y-76576135D01*
X115493500Y-78871870D01*
X115493501Y-78871876D01*
X115499908Y-78931483D01*
X115550202Y-79066328D01*
X115550206Y-79066335D01*
X115636452Y-79181544D01*
X115636455Y-79181547D01*
X115751664Y-79267793D01*
X115751671Y-79267797D01*
X115886517Y-79318091D01*
X115886516Y-79318091D01*
X115893444Y-79318835D01*
X115946127Y-79324500D01*
X118241872Y-79324499D01*
X118301483Y-79318091D01*
X118436331Y-79267796D01*
X118551546Y-79181546D01*
X118637796Y-79066331D01*
X118688091Y-78931483D01*
X118694500Y-78871873D01*
X118694499Y-76576128D01*
X118688091Y-76516517D01*
X118687751Y-76515606D01*
X118637797Y-76381671D01*
X118637793Y-76381664D01*
X118551547Y-76266455D01*
X118551544Y-76266452D01*
X118436335Y-76180206D01*
X118436328Y-76180202D01*
X118301482Y-76129908D01*
X118301483Y-76129908D01*
X118241883Y-76123501D01*
X118241881Y-76123500D01*
X118241873Y-76123500D01*
X118241864Y-76123500D01*
X115946129Y-76123500D01*
X115946123Y-76123501D01*
X115886516Y-76129908D01*
X115751671Y-76180202D01*
X115751664Y-76180206D01*
X115636455Y-76266452D01*
X115636452Y-76266455D01*
X115550206Y-76381664D01*
X115550202Y-76381671D01*
X115499908Y-76516517D01*
X115493501Y-76576116D01*
X115493501Y-76576123D01*
X115493500Y-76576135D01*
X108054423Y-76576135D01*
X107916188Y-76458071D01*
X107877656Y-76425161D01*
X107877653Y-76425160D01*
X107662859Y-76293533D01*
X107430110Y-76197126D01*
X107185151Y-76138317D01*
X106934000Y-76118551D01*
X106682848Y-76138317D01*
X106437889Y-76197126D01*
X106205140Y-76293533D01*
X105990346Y-76425160D01*
X105990343Y-76425161D01*
X105798776Y-76588776D01*
X105635161Y-76780343D01*
X105635160Y-76780346D01*
X105503533Y-76995140D01*
X105407126Y-77227889D01*
X105348317Y-77472848D01*
X105328551Y-77724000D01*
X102384330Y-77724000D01*
X102408075Y-77700255D01*
X102457444Y-77614745D01*
X102483000Y-77519370D01*
X102483000Y-77420630D01*
X102457444Y-77325255D01*
X102408075Y-77239745D01*
X102393830Y-77225500D01*
X102434004Y-77225500D01*
X102434005Y-77225499D01*
X102632127Y-77186091D01*
X102648186Y-77179438D01*
X102695639Y-77170000D01*
X103358000Y-77170000D01*
X103358000Y-76897172D01*
X103357999Y-76897155D01*
X103351598Y-76837627D01*
X103351596Y-76837620D01*
X103301354Y-76702913D01*
X103301353Y-76702911D01*
X103300745Y-76702099D01*
X103300390Y-76701148D01*
X103297103Y-76695128D01*
X103297968Y-76694655D01*
X103276329Y-76636634D01*
X103285452Y-76580338D01*
X103319091Y-76499127D01*
X103358500Y-76301003D01*
X103358500Y-76098997D01*
X103319091Y-75900873D01*
X103241786Y-75714244D01*
X103188094Y-75633889D01*
X103167217Y-75567214D01*
X103185701Y-75499834D01*
X103188078Y-75496134D01*
X103241786Y-75415756D01*
X103319091Y-75229127D01*
X103358500Y-75031003D01*
X103358500Y-74828997D01*
X103319091Y-74630873D01*
X103241786Y-74444244D01*
X103241784Y-74444241D01*
X103241782Y-74444237D01*
X103129558Y-74276281D01*
X102986718Y-74133441D01*
X102818762Y-74021217D01*
X102818752Y-74021212D01*
X102632127Y-73943909D01*
X102632119Y-73943907D01*
X102434007Y-73904500D01*
X102434003Y-73904500D01*
X101781997Y-73904500D01*
X101781992Y-73904500D01*
X101583880Y-73943907D01*
X101583872Y-73943909D01*
X101397247Y-74021212D01*
X101397237Y-74021217D01*
X101229281Y-74133441D01*
X101086441Y-74276281D01*
X100974217Y-74444237D01*
X100974212Y-74444247D01*
X100896909Y-74630872D01*
X100896907Y-74630880D01*
X100857500Y-74828992D01*
X99004391Y-74828992D01*
X98942534Y-74696339D01*
X98815826Y-74515380D01*
X98659620Y-74359174D01*
X98659616Y-74359171D01*
X98659615Y-74359170D01*
X98478666Y-74232468D01*
X98478658Y-74232464D01*
X98349811Y-74172382D01*
X98297371Y-74126210D01*
X98278219Y-74059017D01*
X98298435Y-73992135D01*
X98349811Y-73947618D01*
X98357769Y-73943907D01*
X98478662Y-73887534D01*
X98659620Y-73760826D01*
X98815826Y-73604620D01*
X98942534Y-73423662D01*
X99035894Y-73223450D01*
X99093070Y-73010068D01*
X99112323Y-72790000D01*
X99093070Y-72569932D01*
X99035894Y-72356550D01*
X98942534Y-72156339D01*
X98815826Y-71975380D01*
X98659620Y-71819174D01*
X98659616Y-71819171D01*
X98659615Y-71819170D01*
X98478666Y-71692468D01*
X98478658Y-71692464D01*
X98349811Y-71632382D01*
X98297371Y-71586210D01*
X98278219Y-71519017D01*
X98298435Y-71452135D01*
X98349811Y-71407618D01*
X98365174Y-71400454D01*
X98478662Y-71347534D01*
X98659620Y-71220826D01*
X98815826Y-71064620D01*
X98942534Y-70883662D01*
X99035894Y-70683450D01*
X99093070Y-70470068D01*
X99112323Y-70250000D01*
X99111060Y-70235569D01*
X99105103Y-70167474D01*
X99093070Y-70029932D01*
X99070203Y-69944592D01*
X99071866Y-69874744D01*
X99111028Y-69816881D01*
X99175256Y-69789377D01*
X99189978Y-69788500D01*
X107975060Y-69788500D01*
X108042099Y-69808185D01*
X108062741Y-69824819D01*
X110623181Y-72385259D01*
X110656666Y-72446582D01*
X110659500Y-72472940D01*
X110659500Y-73005870D01*
X110659501Y-73005876D01*
X110665908Y-73065483D01*
X110716202Y-73200328D01*
X110716206Y-73200335D01*
X110802452Y-73315544D01*
X110802455Y-73315547D01*
X110917664Y-73401793D01*
X110917671Y-73401797D01*
X111052517Y-73452091D01*
X111052516Y-73452091D01*
X111059444Y-73452835D01*
X111112127Y-73458500D01*
X112407872Y-73458499D01*
X112467483Y-73452091D01*
X112602331Y-73401796D01*
X112717546Y-73315546D01*
X112803796Y-73200331D01*
X112854091Y-73065483D01*
X112860500Y-73005873D01*
X112860499Y-71710128D01*
X112854091Y-71650517D01*
X112853603Y-71649209D01*
X112803797Y-71515671D01*
X112803793Y-71515664D01*
X112717547Y-71400455D01*
X112717544Y-71400452D01*
X112631425Y-71335983D01*
X120315500Y-71335983D01*
X120315500Y-72936001D01*
X120315501Y-72936018D01*
X120326000Y-73038796D01*
X120326001Y-73038799D01*
X120381185Y-73205331D01*
X120381187Y-73205336D01*
X120395869Y-73229139D01*
X120473288Y-73354656D01*
X120597344Y-73478712D01*
X120746666Y-73570814D01*
X120913203Y-73625999D01*
X121015991Y-73636500D01*
X122316008Y-73636499D01*
X122418797Y-73625999D01*
X122585334Y-73570814D01*
X122734656Y-73478712D01*
X122858712Y-73354656D01*
X122950814Y-73205334D01*
X122950814Y-73205331D01*
X122954178Y-73199879D01*
X123006126Y-73153154D01*
X123075088Y-73141931D01*
X123139170Y-73169774D01*
X123147398Y-73177294D01*
X123286213Y-73316109D01*
X123458179Y-73441048D01*
X123458181Y-73441049D01*
X123458184Y-73441051D01*
X123647588Y-73537557D01*
X123849757Y-73603246D01*
X124059713Y-73636500D01*
X124059714Y-73636500D01*
X124272286Y-73636500D01*
X124272287Y-73636500D01*
X124482243Y-73603246D01*
X124684412Y-73537557D01*
X124873816Y-73441051D01*
X124927846Y-73401796D01*
X125045786Y-73316109D01*
X125045788Y-73316106D01*
X125045792Y-73316104D01*
X125196104Y-73165792D01*
X125196106Y-73165788D01*
X125196109Y-73165786D01*
X125321048Y-72993820D01*
X125321047Y-72993820D01*
X125321051Y-72993816D01*
X125417557Y-72804412D01*
X125483246Y-72602243D01*
X125516500Y-72392287D01*
X125516500Y-71879713D01*
X125483246Y-71669757D01*
X125417557Y-71467588D01*
X125321051Y-71278184D01*
X125321049Y-71278181D01*
X125321048Y-71278179D01*
X125196109Y-71106213D01*
X125045786Y-70955890D01*
X124873820Y-70830951D01*
X124684414Y-70734444D01*
X124684413Y-70734443D01*
X124684412Y-70734443D01*
X124482243Y-70668754D01*
X124482241Y-70668753D01*
X124482240Y-70668753D01*
X124320957Y-70643208D01*
X124272287Y-70635500D01*
X124059713Y-70635500D01*
X124011042Y-70643208D01*
X123849760Y-70668753D01*
X123647585Y-70734444D01*
X123458179Y-70830951D01*
X123286215Y-70955889D01*
X123147398Y-71094706D01*
X123086075Y-71128190D01*
X123016383Y-71123206D01*
X122960450Y-71081334D01*
X122954178Y-71072120D01*
X122858712Y-70917344D01*
X122734657Y-70793289D01*
X122734656Y-70793288D01*
X122585334Y-70701186D01*
X122418797Y-70646001D01*
X122418795Y-70646000D01*
X122316010Y-70635500D01*
X121015998Y-70635500D01*
X121015981Y-70635501D01*
X120913203Y-70646000D01*
X120913200Y-70646001D01*
X120746668Y-70701185D01*
X120746663Y-70701187D01*
X120597342Y-70793289D01*
X120473289Y-70917342D01*
X120381187Y-71066663D01*
X120381185Y-71066668D01*
X120355530Y-71144091D01*
X120326001Y-71233203D01*
X120326001Y-71233204D01*
X120326000Y-71233204D01*
X120315500Y-71335983D01*
X112631425Y-71335983D01*
X112602335Y-71314206D01*
X112594546Y-71309953D01*
X112596238Y-71306852D01*
X112553828Y-71275110D01*
X112529406Y-71209648D01*
X112544252Y-71141374D01*
X112569552Y-71109153D01*
X112576764Y-71102579D01*
X112699673Y-70939821D01*
X112790582Y-70757250D01*
X112846397Y-70561083D01*
X112865215Y-70358000D01*
X112846397Y-70154917D01*
X112790582Y-69958750D01*
X112783533Y-69944594D01*
X112730265Y-69837616D01*
X112699673Y-69776179D01*
X112640704Y-69698091D01*
X112576762Y-69613418D01*
X112426041Y-69476019D01*
X112426039Y-69476017D01*
X112252642Y-69368655D01*
X112252635Y-69368651D01*
X112157546Y-69331814D01*
X112062456Y-69294976D01*
X111861976Y-69257500D01*
X111658024Y-69257500D01*
X111457544Y-69294976D01*
X111457541Y-69294976D01*
X111457541Y-69294977D01*
X111267364Y-69368651D01*
X111267357Y-69368655D01*
X111093960Y-69476017D01*
X111093958Y-69476019D01*
X110943237Y-69613418D01*
X110820327Y-69776178D01*
X110729422Y-69958739D01*
X110729418Y-69958750D01*
X110727667Y-69964900D01*
X110690389Y-70023992D01*
X110627079Y-70053549D01*
X110557839Y-70044185D01*
X110520722Y-70018644D01*
X109411259Y-68909181D01*
X109377774Y-68847858D01*
X109382758Y-68778166D01*
X109424630Y-68722233D01*
X109490094Y-68697816D01*
X109498940Y-68697500D01*
X123387548Y-68697500D01*
X123454587Y-68717185D01*
X123475229Y-68733819D01*
X127224586Y-72483177D01*
X127258071Y-72544500D01*
X127256680Y-72602949D01*
X127238367Y-72671296D01*
X127238364Y-72671313D01*
X127218532Y-72897999D01*
X127218532Y-72898001D01*
X127238364Y-73124686D01*
X127238366Y-73124697D01*
X127297258Y-73344488D01*
X127297261Y-73344497D01*
X127393431Y-73550732D01*
X127393432Y-73550734D01*
X127523954Y-73737141D01*
X127684858Y-73898045D01*
X127684861Y-73898047D01*
X127871266Y-74028568D01*
X128077504Y-74124739D01*
X128077509Y-74124740D01*
X128077511Y-74124741D01*
X128088140Y-74127589D01*
X128297308Y-74183635D01*
X128459230Y-74197801D01*
X128523998Y-74203468D01*
X128524000Y-74203468D01*
X128524002Y-74203468D01*
X128580673Y-74198509D01*
X128750692Y-74183635D01*
X128970496Y-74124739D01*
X129176734Y-74028568D01*
X129363139Y-73898047D01*
X129524047Y-73737139D01*
X129654568Y-73550734D01*
X129750739Y-73344496D01*
X129809635Y-73124692D01*
X129829468Y-72898000D01*
X129826625Y-72865510D01*
X129820019Y-72789997D01*
X129809635Y-72671308D01*
X129750739Y-72451504D01*
X129654568Y-72245266D01*
X129524047Y-72058861D01*
X129524045Y-72058858D01*
X129363140Y-71897953D01*
X129176734Y-71767432D01*
X129176732Y-71767431D01*
X128970497Y-71671261D01*
X128970488Y-71671258D01*
X128750697Y-71612366D01*
X128750693Y-71612365D01*
X128750692Y-71612365D01*
X128750691Y-71612364D01*
X128750686Y-71612364D01*
X128524002Y-71592532D01*
X128523999Y-71592532D01*
X128297313Y-71612364D01*
X128297296Y-71612367D01*
X128228949Y-71630680D01*
X128159099Y-71629016D01*
X128109177Y-71598586D01*
X126385335Y-69874744D01*
X124657770Y-68147180D01*
X124624286Y-68085858D01*
X124629270Y-68016166D01*
X124671142Y-67960233D01*
X124736606Y-67935816D01*
X124745452Y-67935500D01*
X126689548Y-67935500D01*
X126756587Y-67955185D01*
X126777229Y-67971819D01*
X131164181Y-72358771D01*
X131197666Y-72420094D01*
X131200500Y-72446452D01*
X131200500Y-74111547D01*
X131180815Y-74178586D01*
X131164181Y-74199228D01*
X128938822Y-76424586D01*
X128877499Y-76458071D01*
X128819049Y-76456680D01*
X128750699Y-76438367D01*
X128750702Y-76438367D01*
X128750692Y-76438365D01*
X128750689Y-76438364D01*
X128750686Y-76438364D01*
X128524001Y-76418532D01*
X128523998Y-76418532D01*
X128297313Y-76438364D01*
X128297302Y-76438366D01*
X128077511Y-76497258D01*
X128077502Y-76497261D01*
X127871267Y-76593431D01*
X127871265Y-76593432D01*
X127684858Y-76723954D01*
X127523954Y-76884858D01*
X127393432Y-77071265D01*
X127393431Y-77071267D01*
X127297261Y-77277502D01*
X127297258Y-77277511D01*
X127238366Y-77497302D01*
X127238364Y-77497313D01*
X127218532Y-77723998D01*
X127218532Y-77724001D01*
X127238364Y-77950686D01*
X127238366Y-77950697D01*
X127297258Y-78170488D01*
X127297261Y-78170497D01*
X127393431Y-78376732D01*
X127393432Y-78376734D01*
X127523954Y-78563141D01*
X127684858Y-78724045D01*
X127707642Y-78739998D01*
X127871266Y-78854568D01*
X128077504Y-78950739D01*
X128297308Y-79009635D01*
X128459230Y-79023801D01*
X128523998Y-79029468D01*
X128524000Y-79029468D01*
X128524002Y-79029468D01*
X128580673Y-79024509D01*
X128750692Y-79009635D01*
X128970496Y-78950739D01*
X129176734Y-78854568D01*
X129363139Y-78724047D01*
X129524047Y-78563139D01*
X129654568Y-78376734D01*
X129750739Y-78170496D01*
X129809635Y-77950692D01*
X129829468Y-77724000D01*
X129829468Y-77723998D01*
X134838532Y-77723998D01*
X134838532Y-77724001D01*
X134858364Y-77950686D01*
X134858366Y-77950697D01*
X134917258Y-78170488D01*
X134917261Y-78170497D01*
X135013431Y-78376732D01*
X135013432Y-78376734D01*
X135143954Y-78563141D01*
X135304858Y-78724045D01*
X135327642Y-78739998D01*
X135491266Y-78854568D01*
X135697504Y-78950739D01*
X135917308Y-79009635D01*
X136079230Y-79023801D01*
X136143998Y-79029468D01*
X136144000Y-79029468D01*
X136144002Y-79029468D01*
X136200673Y-79024509D01*
X136370692Y-79009635D01*
X136590496Y-78950739D01*
X136796734Y-78854568D01*
X136983139Y-78724047D01*
X137144047Y-78563139D01*
X137274568Y-78376734D01*
X137370739Y-78170496D01*
X137429635Y-77950692D01*
X137449468Y-77724000D01*
X137429635Y-77497308D01*
X137370739Y-77277504D01*
X137274568Y-77071266D01*
X137144047Y-76884861D01*
X137144045Y-76884858D01*
X136983141Y-76723954D01*
X136796734Y-76593432D01*
X136796732Y-76593431D01*
X136590497Y-76497261D01*
X136590488Y-76497258D01*
X136370697Y-76438366D01*
X136370693Y-76438365D01*
X136370692Y-76438365D01*
X136370691Y-76438364D01*
X136370686Y-76438364D01*
X136144002Y-76418532D01*
X136143998Y-76418532D01*
X135917313Y-76438364D01*
X135917302Y-76438366D01*
X135697511Y-76497258D01*
X135697502Y-76497261D01*
X135491267Y-76593431D01*
X135491265Y-76593432D01*
X135304858Y-76723954D01*
X135143954Y-76884858D01*
X135013432Y-77071265D01*
X135013431Y-77071267D01*
X134917261Y-77277502D01*
X134917258Y-77277511D01*
X134858366Y-77497302D01*
X134858364Y-77497313D01*
X134838532Y-77723998D01*
X129829468Y-77723998D01*
X129809635Y-77497308D01*
X129791318Y-77428947D01*
X129792981Y-77359101D01*
X129823410Y-77309178D01*
X132224729Y-74907860D01*
X132224733Y-74907858D01*
X132311858Y-74820733D01*
X132380311Y-74718286D01*
X132427463Y-74604452D01*
X132451500Y-74483606D01*
X132451500Y-72897998D01*
X134838532Y-72897998D01*
X134838532Y-72898001D01*
X134858364Y-73124686D01*
X134858366Y-73124697D01*
X134917258Y-73344488D01*
X134917261Y-73344497D01*
X135013431Y-73550732D01*
X135013432Y-73550734D01*
X135143954Y-73737141D01*
X135304858Y-73898045D01*
X135304861Y-73898047D01*
X135491266Y-74028568D01*
X135697504Y-74124739D01*
X135697509Y-74124740D01*
X135697511Y-74124741D01*
X135708140Y-74127589D01*
X135917308Y-74183635D01*
X136079230Y-74197801D01*
X136143998Y-74203468D01*
X136144000Y-74203468D01*
X136144002Y-74203468D01*
X136200673Y-74198509D01*
X136370692Y-74183635D01*
X136590496Y-74124739D01*
X136796734Y-74028568D01*
X136983139Y-73898047D01*
X137144047Y-73737139D01*
X137274568Y-73550734D01*
X137370739Y-73344496D01*
X137429635Y-73124692D01*
X137449468Y-72898000D01*
X137446625Y-72865510D01*
X137440019Y-72789997D01*
X137429635Y-72671308D01*
X137370739Y-72451504D01*
X137274568Y-72245266D01*
X137144047Y-72058861D01*
X137144045Y-72058858D01*
X136983140Y-71897953D01*
X136796734Y-71767432D01*
X136796732Y-71767431D01*
X136590497Y-71671261D01*
X136590488Y-71671258D01*
X136370697Y-71612366D01*
X136370693Y-71612365D01*
X136370692Y-71612365D01*
X136370691Y-71612364D01*
X136370686Y-71612364D01*
X136144002Y-71592532D01*
X136143998Y-71592532D01*
X135917313Y-71612364D01*
X135917302Y-71612366D01*
X135697511Y-71671258D01*
X135697502Y-71671261D01*
X135491267Y-71767431D01*
X135491265Y-71767432D01*
X135304860Y-71897953D01*
X135143954Y-72058858D01*
X135013432Y-72245265D01*
X135013431Y-72245267D01*
X134917261Y-72451502D01*
X134917258Y-72451511D01*
X134858366Y-72671302D01*
X134858364Y-72671313D01*
X134838532Y-72897998D01*
X132451500Y-72897998D01*
X132451500Y-72203741D01*
X132451501Y-72203720D01*
X132451501Y-72074391D01*
X132431806Y-71975381D01*
X132427463Y-71953549D01*
X132427159Y-71952816D01*
X132427153Y-71952801D01*
X132427138Y-71952764D01*
X132404435Y-71897953D01*
X132380314Y-71839719D01*
X132380313Y-71839717D01*
X132371887Y-71827107D01*
X132331369Y-71766467D01*
X132311858Y-71737266D01*
X132311855Y-71737263D01*
X127492928Y-66918338D01*
X127492925Y-66918334D01*
X127492925Y-66918335D01*
X127485858Y-66911268D01*
X127485858Y-66911267D01*
X127398733Y-66824142D01*
X127398732Y-66824141D01*
X127398731Y-66824140D01*
X127347509Y-66789915D01*
X127296286Y-66755688D01*
X127254934Y-66738560D01*
X127200533Y-66694721D01*
X127178468Y-66628427D01*
X127195747Y-66560728D01*
X127246883Y-66513117D01*
X127302389Y-66500000D01*
X137498910Y-66500000D01*
X137501121Y-66500020D01*
X137635109Y-66502409D01*
X137650528Y-66503650D01*
X137916897Y-66541948D01*
X137934184Y-66545708D01*
X138191313Y-66621209D01*
X138207887Y-66627391D01*
X138317159Y-66677293D01*
X138451659Y-66738717D01*
X138467173Y-66747188D01*
X138692628Y-66892080D01*
X138706783Y-66902676D01*
X138724855Y-66918335D01*
X138909317Y-67078172D01*
X138921827Y-67090682D01*
X139097320Y-67293212D01*
X139107921Y-67307374D01*
X139252808Y-67532821D01*
X139261284Y-67548345D01*
X139372608Y-67792112D01*
X139378791Y-67808688D01*
X139454290Y-68065814D01*
X139458051Y-68083102D01*
X139496348Y-68349463D01*
X139497590Y-68364898D01*
X139499980Y-68498877D01*
X139500000Y-68501089D01*
X139500000Y-100498910D01*
X139499980Y-100501122D01*
X139497590Y-100635101D01*
X139496348Y-100650536D01*
X139458051Y-100916897D01*
X139454290Y-100934185D01*
X139378791Y-101191311D01*
X139372608Y-101207887D01*
X139261284Y-101451654D01*
X139252805Y-101467183D01*
X139107922Y-101692624D01*
X139097320Y-101706787D01*
X138921827Y-101909317D01*
X138909317Y-101921827D01*
X138706787Y-102097320D01*
X138692624Y-102107922D01*
X138467183Y-102252805D01*
X138451654Y-102261284D01*
X138207887Y-102372608D01*
X138191311Y-102378791D01*
X137934185Y-102454290D01*
X137916897Y-102458051D01*
X137650536Y-102496348D01*
X137635101Y-102497590D01*
X137504818Y-102499914D01*
X137501120Y-102499980D01*
X137498910Y-102500000D01*
X109999984Y-102500000D01*
X109857145Y-102502547D01*
X109857142Y-102502547D01*
X109574330Y-102543209D01*
X109574320Y-102543211D01*
X109300173Y-102623708D01*
X109040289Y-102742393D01*
X109040273Y-102742402D01*
X108799914Y-102896872D01*
X108799907Y-102896878D01*
X108583980Y-103083978D01*
X108583978Y-103083980D01*
X108396878Y-103299907D01*
X108396872Y-103299914D01*
X108242402Y-103540273D01*
X108242393Y-103540289D01*
X108123708Y-103800173D01*
X108043211Y-104074320D01*
X108043209Y-104074330D01*
X108002547Y-104357142D01*
X108002547Y-104357145D01*
X108000000Y-104499983D01*
X108000000Y-120498910D01*
X107999980Y-120501122D01*
X107997590Y-120635101D01*
X107996348Y-120650536D01*
X107958051Y-120916897D01*
X107954290Y-120934185D01*
X107878791Y-121191311D01*
X107872608Y-121207887D01*
X107761284Y-121451654D01*
X107752805Y-121467183D01*
X107607922Y-121692624D01*
X107597320Y-121706787D01*
X107421827Y-121909317D01*
X107409317Y-121921827D01*
X107206787Y-122097320D01*
X107192624Y-122107922D01*
X106967183Y-122252805D01*
X106951654Y-122261284D01*
X106707887Y-122372608D01*
X106691311Y-122378791D01*
X106434185Y-122454290D01*
X106416897Y-122458051D01*
X106150536Y-122496348D01*
X106135101Y-122497590D01*
X106004818Y-122499914D01*
X106001120Y-122499980D01*
X105998910Y-122500000D01*
X83001090Y-122500000D01*
X82998879Y-122499980D01*
X82995015Y-122499911D01*
X82864898Y-122497590D01*
X82849463Y-122496348D01*
X82583102Y-122458051D01*
X82565814Y-122454290D01*
X82308688Y-122378791D01*
X82292112Y-122372608D01*
X82048345Y-122261284D01*
X82032821Y-122252808D01*
X81807374Y-122107921D01*
X81793212Y-122097320D01*
X81590682Y-121921827D01*
X81578172Y-121909317D01*
X81402679Y-121706787D01*
X81392077Y-121692624D01*
X81247188Y-121467173D01*
X81238715Y-121451654D01*
X81127391Y-121207887D01*
X81121208Y-121191311D01*
X81095981Y-121105397D01*
X81045708Y-120934184D01*
X81041948Y-120916897D01*
X81003651Y-120650536D01*
X81002409Y-120635109D01*
X81000020Y-120501121D01*
X81000000Y-120498910D01*
X81000000Y-114984155D01*
X84052000Y-114984155D01*
X84052000Y-116032000D01*
X85272710Y-116032000D01*
X85226979Y-116142402D01*
X85202000Y-116267981D01*
X85202000Y-116396019D01*
X85226979Y-116521598D01*
X85272710Y-116632000D01*
X84052000Y-116632000D01*
X84052000Y-117679844D01*
X84058401Y-117739372D01*
X84058403Y-117739379D01*
X84108645Y-117874086D01*
X84108649Y-117874093D01*
X84194809Y-117989187D01*
X84194812Y-117989190D01*
X84309906Y-118075350D01*
X84309913Y-118075354D01*
X84444620Y-118125596D01*
X84444627Y-118125598D01*
X84504155Y-118131999D01*
X84504172Y-118132000D01*
X85552000Y-118132000D01*
X85552000Y-116911290D01*
X85662402Y-116957021D01*
X85787981Y-116982000D01*
X85916019Y-116982000D01*
X86041598Y-116957021D01*
X86152000Y-116911290D01*
X86152000Y-118132000D01*
X87199828Y-118132000D01*
X87199844Y-118131999D01*
X87259372Y-118125598D01*
X87259379Y-118125596D01*
X87394086Y-118075354D01*
X87394093Y-118075350D01*
X87509187Y-117989190D01*
X87509190Y-117989187D01*
X87595350Y-117874093D01*
X87595354Y-117874086D01*
X87645596Y-117739379D01*
X87645598Y-117739372D01*
X87651999Y-117679844D01*
X87652000Y-117679827D01*
X87652000Y-116632000D01*
X86431290Y-116632000D01*
X86477021Y-116521598D01*
X86502000Y-116396019D01*
X86502000Y-116331995D01*
X89046451Y-116331995D01*
X89046451Y-116332004D01*
X89066616Y-116601101D01*
X89126664Y-116864188D01*
X89126666Y-116864195D01*
X89172901Y-116982000D01*
X89225257Y-117115398D01*
X89360185Y-117349102D01*
X89496080Y-117519509D01*
X89528442Y-117560089D01*
X89715183Y-117733358D01*
X89726259Y-117743635D01*
X89949226Y-117895651D01*
X90192359Y-118012738D01*
X90450228Y-118092280D01*
X90450229Y-118092280D01*
X90450232Y-118092281D01*
X90717063Y-118132499D01*
X90717068Y-118132499D01*
X90717071Y-118132500D01*
X90717072Y-118132500D01*
X90986928Y-118132500D01*
X90986929Y-118132500D01*
X90986936Y-118132499D01*
X91253767Y-118092281D01*
X91253768Y-118092280D01*
X91253772Y-118092280D01*
X91511641Y-118012738D01*
X91754775Y-117895651D01*
X91977741Y-117743635D01*
X92175561Y-117560085D01*
X92343815Y-117349102D01*
X92478743Y-117115398D01*
X92577334Y-116864195D01*
X92637383Y-116601103D01*
X92657549Y-116332000D01*
X92637383Y-116062897D01*
X92577334Y-115799805D01*
X92478743Y-115548602D01*
X92343815Y-115314898D01*
X92175561Y-115103915D01*
X92175560Y-115103914D01*
X92175557Y-115103910D01*
X91977741Y-114920365D01*
X91754775Y-114768349D01*
X91754769Y-114768346D01*
X91754768Y-114768345D01*
X91754767Y-114768344D01*
X91511643Y-114651263D01*
X91511645Y-114651263D01*
X91253773Y-114571720D01*
X91253767Y-114571718D01*
X90986936Y-114531500D01*
X90986929Y-114531500D01*
X90717071Y-114531500D01*
X90717063Y-114531500D01*
X90450232Y-114571718D01*
X90450226Y-114571720D01*
X90192358Y-114651262D01*
X89949230Y-114768346D01*
X89726258Y-114920365D01*
X89528442Y-115103910D01*
X89360185Y-115314898D01*
X89225258Y-115548599D01*
X89225256Y-115548603D01*
X89126666Y-115799804D01*
X89126664Y-115799811D01*
X89066616Y-116062898D01*
X89046451Y-116331995D01*
X86502000Y-116331995D01*
X86502000Y-116267981D01*
X86477021Y-116142402D01*
X86431290Y-116032000D01*
X87652000Y-116032000D01*
X87652000Y-114984172D01*
X87651999Y-114984155D01*
X87645598Y-114924627D01*
X87645596Y-114924620D01*
X87595354Y-114789913D01*
X87595350Y-114789906D01*
X87509190Y-114674812D01*
X87509187Y-114674809D01*
X87394093Y-114588649D01*
X87394086Y-114588645D01*
X87259379Y-114538403D01*
X87259372Y-114538401D01*
X87199844Y-114532000D01*
X86152000Y-114532000D01*
X86152000Y-115752709D01*
X86041598Y-115706979D01*
X85916019Y-115682000D01*
X85787981Y-115682000D01*
X85662402Y-115706979D01*
X85552000Y-115752709D01*
X85552000Y-114532000D01*
X84504155Y-114532000D01*
X84444627Y-114538401D01*
X84444620Y-114538403D01*
X84309913Y-114588645D01*
X84309906Y-114588649D01*
X84194812Y-114674809D01*
X84194809Y-114674812D01*
X84108649Y-114789906D01*
X84108645Y-114789913D01*
X84058403Y-114924620D01*
X84058401Y-114924627D01*
X84052000Y-114984155D01*
X81000000Y-114984155D01*
X81000000Y-104499983D01*
X80997452Y-104357145D01*
X80997452Y-104357142D01*
X80997452Y-104357139D01*
X80956790Y-104074326D01*
X80876293Y-103800179D01*
X80876292Y-103800177D01*
X80876291Y-103800173D01*
X80757606Y-103540289D01*
X80757597Y-103540273D01*
X80603127Y-103299914D01*
X80603121Y-103299907D01*
X80416021Y-103083980D01*
X80416019Y-103083978D01*
X80200092Y-102896878D01*
X80200085Y-102896872D01*
X79959726Y-102742402D01*
X79959710Y-102742393D01*
X79699826Y-102623708D01*
X79425679Y-102543211D01*
X79425669Y-102543209D01*
X79142855Y-102502547D01*
X79000016Y-102500000D01*
X79000000Y-102500000D01*
X55501090Y-102500000D01*
X55498879Y-102499980D01*
X55495015Y-102499911D01*
X55364898Y-102497590D01*
X55349463Y-102496348D01*
X55083102Y-102458051D01*
X55065814Y-102454290D01*
X54808688Y-102378791D01*
X54792112Y-102372608D01*
X54548345Y-102261284D01*
X54532821Y-102252808D01*
X54307374Y-102107921D01*
X54293212Y-102097320D01*
X54090682Y-101921827D01*
X54078172Y-101909317D01*
X53902679Y-101706787D01*
X53892077Y-101692624D01*
X53841042Y-101613212D01*
X53747188Y-101467173D01*
X53738715Y-101451654D01*
X53627391Y-101207887D01*
X53621208Y-101191311D01*
X53545709Y-100934185D01*
X53541948Y-100916897D01*
X53503651Y-100650536D01*
X53502409Y-100635109D01*
X53500020Y-100501121D01*
X53500000Y-100498910D01*
X53500000Y-98237334D01*
X57703770Y-98237334D01*
X57703771Y-98237335D01*
X57707303Y-98238506D01*
X57810019Y-98248999D01*
X59109971Y-98248999D01*
X59109989Y-98248998D01*
X59212689Y-98238507D01*
X59212696Y-98238505D01*
X59216227Y-98237334D01*
X58460000Y-97481107D01*
X57703770Y-98237334D01*
X53500000Y-98237334D01*
X53500000Y-97416892D01*
X57110000Y-97416892D01*
X57752893Y-96774000D01*
X57752893Y-96773999D01*
X57690359Y-96711465D01*
X57985000Y-96711465D01*
X57985000Y-96836535D01*
X58017370Y-96957343D01*
X58079905Y-97065657D01*
X58168343Y-97154095D01*
X58276657Y-97216630D01*
X58397465Y-97249000D01*
X58522535Y-97249000D01*
X58643343Y-97216630D01*
X58751657Y-97154095D01*
X58840095Y-97065657D01*
X58902630Y-96957343D01*
X58935000Y-96836535D01*
X58935000Y-96711465D01*
X58902630Y-96590657D01*
X58840095Y-96482343D01*
X58751657Y-96393905D01*
X58643343Y-96331370D01*
X58522535Y-96299000D01*
X58397465Y-96299000D01*
X58276657Y-96331370D01*
X58168343Y-96393905D01*
X58079905Y-96482343D01*
X58017370Y-96590657D01*
X57985000Y-96711465D01*
X57690359Y-96711465D01*
X57110000Y-96131106D01*
X57110000Y-97416892D01*
X53500000Y-97416892D01*
X53500000Y-95310664D01*
X57703770Y-95310664D01*
X58460000Y-96066893D01*
X58460001Y-96066893D01*
X59216228Y-95310664D01*
X59216227Y-95310663D01*
X59212705Y-95309496D01*
X59212696Y-95309494D01*
X59109979Y-95299000D01*
X57810028Y-95299000D01*
X57810010Y-95299001D01*
X57707305Y-95309493D01*
X57707304Y-95309493D01*
X57703771Y-95310663D01*
X57703770Y-95310664D01*
X53500000Y-95310664D01*
X53500000Y-86553334D01*
X56513770Y-86553334D01*
X56513771Y-86553335D01*
X56517303Y-86554506D01*
X56620019Y-86564999D01*
X57919971Y-86564999D01*
X57919989Y-86564998D01*
X58022689Y-86554507D01*
X58022696Y-86554505D01*
X58026227Y-86553334D01*
X57270000Y-85797107D01*
X56513770Y-86553334D01*
X53500000Y-86553334D01*
X53500000Y-85732892D01*
X55920000Y-85732892D01*
X56562893Y-85090000D01*
X56562893Y-85089999D01*
X56500359Y-85027465D01*
X56795000Y-85027465D01*
X56795000Y-85152535D01*
X56827370Y-85273343D01*
X56889905Y-85381657D01*
X56978343Y-85470095D01*
X57086657Y-85532630D01*
X57207465Y-85565000D01*
X57332535Y-85565000D01*
X57453343Y-85532630D01*
X57561657Y-85470095D01*
X57650095Y-85381657D01*
X57712630Y-85273343D01*
X57745000Y-85152535D01*
X57745000Y-85027465D01*
X57712630Y-84906657D01*
X57650095Y-84798343D01*
X57561657Y-84709905D01*
X57453343Y-84647370D01*
X57332535Y-84615000D01*
X57207465Y-84615000D01*
X57086657Y-84647370D01*
X56978343Y-84709905D01*
X56889905Y-84798343D01*
X56827370Y-84906657D01*
X56795000Y-85027465D01*
X56500359Y-85027465D01*
X55920000Y-84447106D01*
X55920000Y-85732892D01*
X53500000Y-85732892D01*
X53500000Y-83626664D01*
X56513770Y-83626664D01*
X57270000Y-84382893D01*
X57270001Y-84382893D01*
X58026228Y-83626664D01*
X58026227Y-83626663D01*
X58022705Y-83625496D01*
X58022696Y-83625494D01*
X57919979Y-83615000D01*
X56620028Y-83615000D01*
X56620010Y-83615001D01*
X56517305Y-83625493D01*
X56517304Y-83625493D01*
X56513771Y-83626663D01*
X56513770Y-83626664D01*
X53500000Y-83626664D01*
X53500000Y-70042389D01*
X54238500Y-70042389D01*
X54238500Y-70042394D01*
X54238500Y-76515606D01*
X54259648Y-76621930D01*
X54259649Y-76621933D01*
X54259648Y-76621933D01*
X54262535Y-76636445D01*
X54262536Y-76636448D01*
X54262537Y-76636451D01*
X54275549Y-76667865D01*
X54309688Y-76750287D01*
X54324509Y-76772466D01*
X54324510Y-76772468D01*
X54378141Y-76852732D01*
X54378144Y-76852736D01*
X54469586Y-76944178D01*
X54469608Y-76944198D01*
X55850586Y-78325176D01*
X55884071Y-78386499D01*
X55882681Y-78444948D01*
X55864365Y-78513307D01*
X55864364Y-78513313D01*
X55844532Y-78739999D01*
X55844532Y-78740001D01*
X55864364Y-78966686D01*
X55864366Y-78966697D01*
X55923258Y-79186488D01*
X55923261Y-79186497D01*
X56019431Y-79392732D01*
X56019432Y-79392734D01*
X56149954Y-79579141D01*
X56310858Y-79740045D01*
X56310861Y-79740047D01*
X56497266Y-79870568D01*
X56703504Y-79966739D01*
X56703509Y-79966740D01*
X56703511Y-79966741D01*
X56740112Y-79976548D01*
X56923308Y-80025635D01*
X57085230Y-80039801D01*
X57149998Y-80045468D01*
X57150000Y-80045468D01*
X57150002Y-80045468D01*
X57206673Y-80040509D01*
X57376692Y-80025635D01*
X57596496Y-79966739D01*
X57802734Y-79870568D01*
X57989139Y-79740047D01*
X58150047Y-79579139D01*
X58280568Y-79392734D01*
X58376739Y-79186496D01*
X58435635Y-78966692D01*
X58455468Y-78740000D01*
X58435635Y-78513308D01*
X58376739Y-78293504D01*
X58280568Y-78087266D01*
X58150047Y-77900861D01*
X58150045Y-77900858D01*
X57989141Y-77739954D01*
X57802734Y-77609432D01*
X57802732Y-77609431D01*
X57596497Y-77513261D01*
X57596488Y-77513258D01*
X57376697Y-77454366D01*
X57376693Y-77454365D01*
X57376692Y-77454365D01*
X57376691Y-77454364D01*
X57376686Y-77454364D01*
X57150002Y-77434532D01*
X57149999Y-77434532D01*
X56923313Y-77454364D01*
X56923307Y-77454365D01*
X56854948Y-77472681D01*
X56785098Y-77471016D01*
X56735176Y-77440586D01*
X55525819Y-76231229D01*
X55492334Y-76169906D01*
X55489500Y-76143548D01*
X55489500Y-72583334D01*
X56513770Y-72583334D01*
X56513771Y-72583335D01*
X56517303Y-72584506D01*
X56620019Y-72594999D01*
X57919971Y-72594999D01*
X57919989Y-72594998D01*
X58022689Y-72584507D01*
X58022696Y-72584505D01*
X58026227Y-72583334D01*
X57270000Y-71827107D01*
X56513770Y-72583334D01*
X55489500Y-72583334D01*
X55489500Y-70414452D01*
X55509185Y-70347413D01*
X55525819Y-70326771D01*
X55617088Y-70235502D01*
X55720918Y-70131671D01*
X55782239Y-70098188D01*
X55851930Y-70103172D01*
X55907864Y-70145043D01*
X55932281Y-70210508D01*
X55930535Y-70235502D01*
X55931182Y-70235569D01*
X55920000Y-70345013D01*
X55920000Y-71762892D01*
X56625428Y-71057465D01*
X56795000Y-71057465D01*
X56795000Y-71182535D01*
X56827370Y-71303343D01*
X56889905Y-71411657D01*
X56978343Y-71500095D01*
X57086657Y-71562630D01*
X57207465Y-71595000D01*
X57332535Y-71595000D01*
X57453343Y-71562630D01*
X57561657Y-71500095D01*
X57650095Y-71411657D01*
X57712630Y-71303343D01*
X57745000Y-71182535D01*
X57745000Y-71057465D01*
X57712630Y-70936657D01*
X57650095Y-70828343D01*
X57561657Y-70739905D01*
X57453343Y-70677370D01*
X57332535Y-70645000D01*
X57207465Y-70645000D01*
X57086657Y-70677370D01*
X56978343Y-70739905D01*
X56889905Y-70828343D01*
X56827370Y-70936657D01*
X56795000Y-71057465D01*
X56625428Y-71057465D01*
X57270000Y-70412893D01*
X58026228Y-69656664D01*
X58026227Y-69656663D01*
X58022705Y-69655496D01*
X58022696Y-69655494D01*
X57919979Y-69645000D01*
X56620028Y-69645000D01*
X56620012Y-69645001D01*
X56510569Y-69656182D01*
X56510357Y-69654107D01*
X56450622Y-69649630D01*
X56394833Y-69607567D01*
X56370640Y-69542019D01*
X56385726Y-69473797D01*
X56406669Y-69445920D01*
X57118771Y-68733819D01*
X57180094Y-68700334D01*
X57206452Y-68697500D01*
X58911548Y-68697500D01*
X58978587Y-68717185D01*
X58999229Y-68733819D01*
X59704164Y-69438754D01*
X59737649Y-69500077D01*
X59732665Y-69569769D01*
X59690793Y-69625702D01*
X59635881Y-69648908D01*
X59453760Y-69677753D01*
X59251585Y-69743444D01*
X59062179Y-69839951D01*
X58890213Y-69964890D01*
X58739890Y-70115213D01*
X58614951Y-70287179D01*
X58518442Y-70476587D01*
X58478510Y-70599483D01*
X58448261Y-70648844D01*
X57977107Y-71119999D01*
X57977107Y-71120000D01*
X58448261Y-71591154D01*
X58478511Y-71640516D01*
X58518444Y-71763416D01*
X58614951Y-71952820D01*
X58739890Y-72124786D01*
X58890213Y-72275109D01*
X59062179Y-72400048D01*
X59062181Y-72400049D01*
X59062184Y-72400051D01*
X59251588Y-72496557D01*
X59453757Y-72562246D01*
X59663713Y-72595500D01*
X59663714Y-72595500D01*
X59876286Y-72595500D01*
X59876287Y-72595500D01*
X60086243Y-72562246D01*
X60288412Y-72496557D01*
X60477816Y-72400051D01*
X60525047Y-72365736D01*
X60649786Y-72275109D01*
X60649788Y-72275106D01*
X60649792Y-72275104D01*
X60800104Y-72124792D01*
X60919683Y-71960204D01*
X60975011Y-71917540D01*
X61044624Y-71911561D01*
X61106420Y-71944166D01*
X61120313Y-71960199D01*
X61191995Y-72058861D01*
X61239896Y-72124792D01*
X61390213Y-72275109D01*
X61562179Y-72400048D01*
X61562181Y-72400049D01*
X61562184Y-72400051D01*
X61751588Y-72496557D01*
X61953757Y-72562246D01*
X61953760Y-72562246D01*
X61953761Y-72562247D01*
X62031130Y-72574500D01*
X62135880Y-72591091D01*
X62199014Y-72621020D01*
X62235946Y-72680331D01*
X62234948Y-72750194D01*
X62204163Y-72801245D01*
X62012173Y-72993236D01*
X61871270Y-73134139D01*
X61871267Y-73134142D01*
X61839623Y-73165786D01*
X61784140Y-73221268D01*
X61761007Y-73255891D01*
X61761005Y-73255894D01*
X61715690Y-73323710D01*
X61715685Y-73323719D01*
X61704004Y-73351922D01*
X61704004Y-73351923D01*
X61668537Y-73437546D01*
X61664369Y-73458498D01*
X61664370Y-73458499D01*
X61646024Y-73550734D01*
X61644500Y-73558396D01*
X61644500Y-83692019D01*
X61624815Y-83759058D01*
X61576797Y-83802503D01*
X61562180Y-83809950D01*
X61390213Y-83934890D01*
X61239894Y-84085209D01*
X61239890Y-84085214D01*
X61120318Y-84249793D01*
X61064989Y-84292459D01*
X60995375Y-84298438D01*
X60933580Y-84265833D01*
X60919682Y-84249793D01*
X60800109Y-84085214D01*
X60800105Y-84085209D01*
X60649786Y-83934890D01*
X60477820Y-83809951D01*
X60288414Y-83713444D01*
X60288413Y-83713443D01*
X60288412Y-83713443D01*
X60086243Y-83647754D01*
X60086241Y-83647753D01*
X60086240Y-83647753D01*
X59924957Y-83622208D01*
X59876287Y-83614500D01*
X59663713Y-83614500D01*
X59615042Y-83622208D01*
X59453760Y-83647753D01*
X59251585Y-83713444D01*
X59062179Y-83809951D01*
X58890213Y-83934890D01*
X58739890Y-84085213D01*
X58614951Y-84257179D01*
X58518442Y-84446587D01*
X58478510Y-84569483D01*
X58448261Y-84618844D01*
X57977107Y-85089999D01*
X57977107Y-85090000D01*
X58448261Y-85561154D01*
X58478511Y-85610516D01*
X58518444Y-85733416D01*
X58614951Y-85922820D01*
X58739890Y-86094786D01*
X58890213Y-86245109D01*
X59062179Y-86370048D01*
X59062181Y-86370049D01*
X59062184Y-86370051D01*
X59251588Y-86466557D01*
X59453757Y-86532246D01*
X59663713Y-86565500D01*
X59663714Y-86565500D01*
X59876286Y-86565500D01*
X59876287Y-86565500D01*
X60086243Y-86532246D01*
X60288412Y-86466557D01*
X60477816Y-86370051D01*
X60508603Y-86347683D01*
X60649786Y-86245109D01*
X60649788Y-86245106D01*
X60649792Y-86245104D01*
X60800104Y-86094792D01*
X60919683Y-85930204D01*
X60975011Y-85887540D01*
X61044624Y-85881561D01*
X61106420Y-85914166D01*
X61120313Y-85930199D01*
X61233137Y-86085489D01*
X61239896Y-86094792D01*
X61390213Y-86245109D01*
X61562179Y-86370048D01*
X61562181Y-86370049D01*
X61562184Y-86370051D01*
X61751588Y-86466557D01*
X61953757Y-86532246D01*
X62163713Y-86565500D01*
X62163714Y-86565500D01*
X62376286Y-86565500D01*
X62376287Y-86565500D01*
X62586243Y-86532246D01*
X62672184Y-86504321D01*
X62742023Y-86502327D01*
X62801856Y-86538407D01*
X62832684Y-86601108D01*
X62834500Y-86622253D01*
X62834500Y-95376019D01*
X62814815Y-95443058D01*
X62766797Y-95486503D01*
X62752180Y-95493950D01*
X62580213Y-95618890D01*
X62429894Y-95769209D01*
X62429890Y-95769214D01*
X62310318Y-95933793D01*
X62254989Y-95976459D01*
X62185375Y-95982438D01*
X62123580Y-95949833D01*
X62109682Y-95933793D01*
X61990109Y-95769214D01*
X61990105Y-95769209D01*
X61839786Y-95618890D01*
X61667820Y-95493951D01*
X61478414Y-95397444D01*
X61478413Y-95397443D01*
X61478412Y-95397443D01*
X61276243Y-95331754D01*
X61276241Y-95331753D01*
X61276240Y-95331753D01*
X61114957Y-95306208D01*
X61066287Y-95298500D01*
X60853713Y-95298500D01*
X60805042Y-95306208D01*
X60643760Y-95331753D01*
X60441585Y-95397444D01*
X60252179Y-95493951D01*
X60080213Y-95618890D01*
X59929890Y-95769213D01*
X59804951Y-95941179D01*
X59708442Y-96130587D01*
X59668510Y-96253483D01*
X59638261Y-96302844D01*
X59167107Y-96773999D01*
X59167107Y-96774000D01*
X59638261Y-97245154D01*
X59668511Y-97294516D01*
X59708444Y-97417416D01*
X59804951Y-97606820D01*
X59929890Y-97778786D01*
X60080213Y-97929109D01*
X60252179Y-98054048D01*
X60252181Y-98054049D01*
X60252184Y-98054051D01*
X60441588Y-98150557D01*
X60643757Y-98216246D01*
X60853713Y-98249500D01*
X60853714Y-98249500D01*
X61066286Y-98249500D01*
X61066287Y-98249500D01*
X61276243Y-98216246D01*
X61478412Y-98150557D01*
X61667816Y-98054051D01*
X61752748Y-97992345D01*
X61839786Y-97929109D01*
X61839788Y-97929106D01*
X61839792Y-97929104D01*
X61990104Y-97778792D01*
X62109683Y-97614204D01*
X62165011Y-97571540D01*
X62234624Y-97565561D01*
X62296420Y-97598166D01*
X62310313Y-97614199D01*
X62385181Y-97717246D01*
X62429896Y-97778792D01*
X62580213Y-97929109D01*
X62752179Y-98054048D01*
X62752181Y-98054049D01*
X62752184Y-98054051D01*
X62941588Y-98150557D01*
X63143757Y-98216246D01*
X63353713Y-98249500D01*
X63353714Y-98249500D01*
X63566286Y-98249500D01*
X63566287Y-98249500D01*
X63776243Y-98216246D01*
X63978412Y-98150557D01*
X64167816Y-98054051D01*
X64252748Y-97992345D01*
X64339786Y-97929109D01*
X64339788Y-97929106D01*
X64339792Y-97929104D01*
X64490104Y-97778792D01*
X64490106Y-97778788D01*
X64490109Y-97778786D01*
X64615048Y-97606820D01*
X64615047Y-97606820D01*
X64615051Y-97606816D01*
X64711557Y-97417412D01*
X64777246Y-97215243D01*
X64810500Y-97005287D01*
X64810500Y-96542713D01*
X64777246Y-96332757D01*
X64711557Y-96130588D01*
X64631778Y-95974013D01*
X71080000Y-95974013D01*
X71080000Y-96474000D01*
X72025856Y-96474000D01*
X71964075Y-96581007D01*
X71930000Y-96708174D01*
X71930000Y-96839826D01*
X71964075Y-96966993D01*
X72025856Y-97074000D01*
X71080001Y-97074000D01*
X71080001Y-97573986D01*
X71090494Y-97676697D01*
X71145641Y-97843119D01*
X71145643Y-97843124D01*
X71237684Y-97992345D01*
X71361654Y-98116315D01*
X71510875Y-98208356D01*
X71510880Y-98208358D01*
X71677302Y-98263505D01*
X71677309Y-98263506D01*
X71780019Y-98273999D01*
X72129999Y-98273999D01*
X72130000Y-98273998D01*
X72130000Y-97178144D01*
X72237007Y-97239925D01*
X72364174Y-97274000D01*
X72495826Y-97274000D01*
X72622993Y-97239925D01*
X72730000Y-97178144D01*
X72730000Y-98273999D01*
X73079972Y-98273999D01*
X73079986Y-98273998D01*
X73182697Y-98263505D01*
X73349119Y-98208358D01*
X73349124Y-98208356D01*
X73498345Y-98116315D01*
X73622317Y-97992343D01*
X73717815Y-97837516D01*
X73769763Y-97790791D01*
X73838725Y-97779568D01*
X73902808Y-97807412D01*
X73911035Y-97814931D01*
X74050213Y-97954109D01*
X74222179Y-98079048D01*
X74222181Y-98079049D01*
X74222184Y-98079051D01*
X74411588Y-98175557D01*
X74613757Y-98241246D01*
X74823713Y-98274500D01*
X74823714Y-98274500D01*
X75036286Y-98274500D01*
X75036287Y-98274500D01*
X75246243Y-98241246D01*
X75448412Y-98175557D01*
X75637816Y-98079051D01*
X75677949Y-98049893D01*
X75809786Y-97954109D01*
X75809788Y-97954106D01*
X75809792Y-97954104D01*
X75960104Y-97803792D01*
X75960106Y-97803788D01*
X75960109Y-97803786D01*
X76085048Y-97631820D01*
X76085047Y-97631820D01*
X76085051Y-97631816D01*
X76181557Y-97442412D01*
X76247246Y-97240243D01*
X76280500Y-97030287D01*
X76280500Y-96517713D01*
X76247246Y-96307757D01*
X76181557Y-96105588D01*
X76085051Y-95916184D01*
X76085049Y-95916181D01*
X76085048Y-95916179D01*
X75960109Y-95744213D01*
X75809786Y-95593890D01*
X75637820Y-95468951D01*
X75448414Y-95372444D01*
X75448413Y-95372443D01*
X75448412Y-95372443D01*
X75246243Y-95306754D01*
X75246241Y-95306753D01*
X75246240Y-95306753D01*
X75084957Y-95281208D01*
X75036287Y-95273500D01*
X74823713Y-95273500D01*
X74775042Y-95281208D01*
X74613760Y-95306753D01*
X74411585Y-95372444D01*
X74222179Y-95468951D01*
X74050215Y-95593889D01*
X73911035Y-95733069D01*
X73849712Y-95766553D01*
X73780020Y-95761569D01*
X73724087Y-95719697D01*
X73717815Y-95710484D01*
X73622315Y-95555654D01*
X73498345Y-95431684D01*
X73349124Y-95339643D01*
X73349119Y-95339641D01*
X73182697Y-95284494D01*
X73182690Y-95284493D01*
X73079986Y-95274000D01*
X72730000Y-95274000D01*
X72730000Y-96369855D01*
X72622993Y-96308075D01*
X72495826Y-96274000D01*
X72364174Y-96274000D01*
X72237007Y-96308075D01*
X72130000Y-96369855D01*
X72130000Y-95274000D01*
X71780028Y-95274000D01*
X71780012Y-95274001D01*
X71677302Y-95284494D01*
X71510880Y-95339641D01*
X71510875Y-95339643D01*
X71361654Y-95431684D01*
X71237684Y-95555654D01*
X71145643Y-95704875D01*
X71145641Y-95704880D01*
X71090494Y-95871302D01*
X71090493Y-95871309D01*
X71080000Y-95974013D01*
X64631778Y-95974013D01*
X64615051Y-95941184D01*
X64615049Y-95941181D01*
X64615048Y-95941179D01*
X64490109Y-95769213D01*
X64339786Y-95618890D01*
X64167819Y-95493950D01*
X64153203Y-95486503D01*
X64102408Y-95438527D01*
X64085500Y-95376019D01*
X64085500Y-92323034D01*
X72976115Y-92323034D01*
X73007516Y-92345021D01*
X73007518Y-92345022D01*
X73213673Y-92441153D01*
X73213682Y-92441157D01*
X73433389Y-92500027D01*
X73433400Y-92500029D01*
X73659998Y-92519854D01*
X73660002Y-92519854D01*
X73886599Y-92500029D01*
X73886610Y-92500027D01*
X74106317Y-92441157D01*
X74106331Y-92441152D01*
X74312478Y-92345024D01*
X74312480Y-92345023D01*
X74343883Y-92323034D01*
X73660001Y-91639152D01*
X73660000Y-91639152D01*
X72976115Y-92323034D01*
X64085500Y-92323034D01*
X64085500Y-86710451D01*
X64105185Y-86643412D01*
X64121810Y-86622779D01*
X64217819Y-86526770D01*
X64279137Y-86493288D01*
X64343813Y-86496522D01*
X64453757Y-86532246D01*
X64663713Y-86565500D01*
X64663714Y-86565500D01*
X64876286Y-86565500D01*
X64876287Y-86565500D01*
X65086243Y-86532246D01*
X65288412Y-86466557D01*
X65477816Y-86370051D01*
X65508603Y-86347683D01*
X65649786Y-86245109D01*
X65649788Y-86245106D01*
X65649792Y-86245104D01*
X65800104Y-86094792D01*
X65800106Y-86094788D01*
X65800109Y-86094786D01*
X65925048Y-85922820D01*
X65925047Y-85922820D01*
X65925051Y-85922816D01*
X66021557Y-85733412D01*
X66087246Y-85531243D01*
X66109617Y-85390000D01*
X68584525Y-85390000D01*
X68623731Y-85536320D01*
X68623734Y-85536326D01*
X68719865Y-85742482D01*
X68850342Y-85928820D01*
X69011179Y-86089657D01*
X69197517Y-86220134D01*
X69403673Y-86316265D01*
X69403682Y-86316269D01*
X69550000Y-86355473D01*
X69550000Y-86355472D01*
X70150000Y-86355472D01*
X70296317Y-86316269D01*
X70296326Y-86316265D01*
X70502482Y-86220134D01*
X70688820Y-86089657D01*
X70849657Y-85928820D01*
X70980134Y-85742482D01*
X71076265Y-85536326D01*
X71076268Y-85536320D01*
X71115475Y-85390000D01*
X70150000Y-85390000D01*
X70150000Y-86355472D01*
X69550000Y-86355472D01*
X69550000Y-85390000D01*
X68584525Y-85390000D01*
X66109617Y-85390000D01*
X66120500Y-85321287D01*
X66120500Y-84858713D01*
X66087246Y-84648757D01*
X66021557Y-84446588D01*
X65925051Y-84257184D01*
X65925049Y-84257181D01*
X65925048Y-84257179D01*
X65800109Y-84085213D01*
X65649786Y-83934890D01*
X65477820Y-83809951D01*
X65288414Y-83713444D01*
X65288413Y-83713443D01*
X65288412Y-83713443D01*
X65086243Y-83647754D01*
X65086241Y-83647753D01*
X65086240Y-83647753D01*
X64924957Y-83622208D01*
X64876287Y-83614500D01*
X64663713Y-83614500D01*
X64615042Y-83622208D01*
X64453760Y-83647753D01*
X64251585Y-83713444D01*
X64062179Y-83809951D01*
X63890213Y-83934890D01*
X63739894Y-84085209D01*
X63739890Y-84085214D01*
X63620318Y-84249793D01*
X63564989Y-84292459D01*
X63495375Y-84298438D01*
X63433580Y-84265833D01*
X63419682Y-84249793D01*
X63300109Y-84085214D01*
X63300105Y-84085209D01*
X63149786Y-83934890D01*
X62977819Y-83809950D01*
X62963203Y-83802503D01*
X62912408Y-83754527D01*
X62895500Y-83692019D01*
X62895500Y-78739998D01*
X63464532Y-78739998D01*
X63464532Y-78740001D01*
X63484364Y-78966686D01*
X63484366Y-78966697D01*
X63543258Y-79186488D01*
X63543261Y-79186497D01*
X63639431Y-79392732D01*
X63639432Y-79392734D01*
X63769954Y-79579141D01*
X63930858Y-79740045D01*
X63930861Y-79740047D01*
X64117266Y-79870568D01*
X64323504Y-79966739D01*
X64323509Y-79966740D01*
X64323511Y-79966741D01*
X64360112Y-79976548D01*
X64543308Y-80025635D01*
X64705230Y-80039801D01*
X64769998Y-80045468D01*
X64770000Y-80045468D01*
X64770002Y-80045468D01*
X64826673Y-80040509D01*
X64996692Y-80025635D01*
X65216496Y-79966739D01*
X65422734Y-79870568D01*
X65609139Y-79740047D01*
X65770047Y-79579139D01*
X65777741Y-79568149D01*
X65832315Y-79524524D01*
X65901813Y-79517327D01*
X65964169Y-79548847D01*
X65966997Y-79551587D01*
X67258854Y-80843445D01*
X68550586Y-82135177D01*
X68584071Y-82196500D01*
X68582680Y-82254949D01*
X68564367Y-82323296D01*
X68564364Y-82323313D01*
X68544532Y-82549999D01*
X68544532Y-82550001D01*
X68564364Y-82776686D01*
X68564366Y-82776697D01*
X68623258Y-82996488D01*
X68623261Y-82996497D01*
X68719431Y-83202732D01*
X68719432Y-83202734D01*
X68849954Y-83389141D01*
X69010858Y-83550045D01*
X69010861Y-83550047D01*
X69197266Y-83680568D01*
X69255865Y-83707893D01*
X69308305Y-83754065D01*
X69327457Y-83821258D01*
X69307242Y-83888139D01*
X69255867Y-83932657D01*
X69197515Y-83959867D01*
X69011179Y-84090342D01*
X68850342Y-84251179D01*
X68719865Y-84437517D01*
X68623734Y-84643673D01*
X68623731Y-84643679D01*
X68584525Y-84789999D01*
X68584525Y-84790000D01*
X69584314Y-84790000D01*
X69529920Y-84844394D01*
X69477259Y-84935606D01*
X69450000Y-85037339D01*
X69450000Y-85142661D01*
X69477259Y-85244394D01*
X69529920Y-85335606D01*
X69604394Y-85410080D01*
X69695606Y-85462741D01*
X69797339Y-85490000D01*
X69902661Y-85490000D01*
X70004394Y-85462741D01*
X70095606Y-85410080D01*
X70170080Y-85335606D01*
X70222741Y-85244394D01*
X70250000Y-85142661D01*
X70250000Y-85037339D01*
X70222741Y-84935606D01*
X70170080Y-84844394D01*
X70115686Y-84790000D01*
X71115475Y-84790000D01*
X71115474Y-84789999D01*
X71076268Y-84643679D01*
X71076265Y-84643673D01*
X70980134Y-84437517D01*
X70849657Y-84251179D01*
X70688820Y-84090342D01*
X70502482Y-83959865D01*
X70444133Y-83932657D01*
X70391694Y-83886484D01*
X70372542Y-83819291D01*
X70392758Y-83752410D01*
X70444129Y-83707895D01*
X70502734Y-83680568D01*
X70689139Y-83550047D01*
X70850047Y-83389139D01*
X70980568Y-83202734D01*
X71076739Y-82996496D01*
X71135635Y-82776692D01*
X71155468Y-82550000D01*
X71135635Y-82323308D01*
X71076739Y-82103504D01*
X70980568Y-81897266D01*
X70850047Y-81710861D01*
X70850045Y-81710858D01*
X70689141Y-81549954D01*
X70502734Y-81419432D01*
X70502728Y-81419429D01*
X70444725Y-81392382D01*
X70392285Y-81346210D01*
X70373133Y-81279017D01*
X70393348Y-81212135D01*
X70444725Y-81167618D01*
X70502734Y-81140568D01*
X70689139Y-81010047D01*
X70850047Y-80849139D01*
X70980568Y-80662734D01*
X71076739Y-80456496D01*
X71135635Y-80236692D01*
X71155468Y-80010000D01*
X71135635Y-79783308D01*
X71076739Y-79563504D01*
X70980568Y-79357266D01*
X70850047Y-79170861D01*
X70850045Y-79170858D01*
X70689141Y-79009954D01*
X70502735Y-78879433D01*
X70502736Y-78879433D01*
X70502734Y-78879432D01*
X70444132Y-78852105D01*
X70391694Y-78805933D01*
X70372543Y-78738739D01*
X70392759Y-78671858D01*
X70444135Y-78627341D01*
X70502483Y-78600133D01*
X70533883Y-78578146D01*
X69850001Y-77894264D01*
X69850000Y-77894264D01*
X69166115Y-78578146D01*
X69197516Y-78600133D01*
X69197522Y-78600136D01*
X69255865Y-78627342D01*
X69308305Y-78673514D01*
X69327457Y-78740707D01*
X69307242Y-78807589D01*
X69255867Y-78852105D01*
X69197268Y-78879431D01*
X69197264Y-78879433D01*
X69010858Y-79009954D01*
X68849954Y-79170858D01*
X68719432Y-79357265D01*
X68719431Y-79357267D01*
X68623261Y-79563502D01*
X68623258Y-79563511D01*
X68564366Y-79783302D01*
X68564364Y-79783313D01*
X68544532Y-80009998D01*
X68544532Y-80010002D01*
X68548390Y-80054102D01*
X68534623Y-80122602D01*
X68486008Y-80172785D01*
X68417979Y-80188718D01*
X68352135Y-80165342D01*
X68337181Y-80152590D01*
X66532928Y-78348338D01*
X66532925Y-78348334D01*
X66532925Y-78348335D01*
X66525858Y-78341268D01*
X66525858Y-78341267D01*
X66438733Y-78254142D01*
X66372456Y-78209857D01*
X66372457Y-78209857D01*
X66372455Y-78209855D01*
X66336289Y-78185690D01*
X66336288Y-78185689D01*
X66336286Y-78185688D01*
X66251446Y-78150547D01*
X66251444Y-78150545D01*
X66222455Y-78138538D01*
X66222453Y-78138537D01*
X66222452Y-78138537D01*
X66162029Y-78126518D01*
X66101610Y-78114500D01*
X66101607Y-78114500D01*
X66101606Y-78114500D01*
X65984188Y-78114500D01*
X65917149Y-78094815D01*
X65882613Y-78061623D01*
X65770045Y-77900858D01*
X65609141Y-77739954D01*
X65422734Y-77609432D01*
X65422732Y-77609431D01*
X65216497Y-77513261D01*
X65216488Y-77513258D01*
X65055033Y-77469997D01*
X68545034Y-77469997D01*
X68545034Y-77470002D01*
X68564858Y-77696599D01*
X68564860Y-77696610D01*
X68623730Y-77916317D01*
X68623734Y-77916326D01*
X68719867Y-78122485D01*
X68741851Y-78153883D01*
X68741852Y-78153883D01*
X69425736Y-77470000D01*
X69373075Y-77417339D01*
X69450000Y-77417339D01*
X69450000Y-77522661D01*
X69477259Y-77624394D01*
X69529920Y-77715606D01*
X69604394Y-77790080D01*
X69695606Y-77842741D01*
X69797339Y-77870000D01*
X69902661Y-77870000D01*
X70004394Y-77842741D01*
X70095606Y-77790080D01*
X70170080Y-77715606D01*
X70222741Y-77624394D01*
X70250000Y-77522661D01*
X70250000Y-77469999D01*
X70274264Y-77469999D01*
X70274264Y-77470000D01*
X70958146Y-78153882D01*
X70980135Y-78122480D01*
X70980136Y-78122478D01*
X71076264Y-77916331D01*
X71076269Y-77916317D01*
X71135139Y-77696610D01*
X71135141Y-77696599D01*
X71154966Y-77470002D01*
X71154966Y-77469997D01*
X71135141Y-77243400D01*
X71135139Y-77243389D01*
X71076269Y-77023682D01*
X71076265Y-77023673D01*
X70980134Y-76817518D01*
X70980133Y-76817516D01*
X70958146Y-76786116D01*
X70958146Y-76786115D01*
X70274264Y-77469999D01*
X70250000Y-77469999D01*
X70250000Y-77417339D01*
X70222741Y-77315606D01*
X70170080Y-77224394D01*
X70095606Y-77149920D01*
X70004394Y-77097259D01*
X69902661Y-77070000D01*
X69797339Y-77070000D01*
X69695606Y-77097259D01*
X69604394Y-77149920D01*
X69529920Y-77224394D01*
X69477259Y-77315606D01*
X69450000Y-77417339D01*
X69373075Y-77417339D01*
X68741851Y-76786115D01*
X68719867Y-76817514D01*
X68623734Y-77023673D01*
X68623730Y-77023682D01*
X68564860Y-77243389D01*
X68564858Y-77243400D01*
X68545034Y-77469997D01*
X65055033Y-77469997D01*
X64996697Y-77454366D01*
X64996693Y-77454365D01*
X64996692Y-77454365D01*
X64996691Y-77454364D01*
X64996686Y-77454364D01*
X64770002Y-77434532D01*
X64769998Y-77434532D01*
X64543313Y-77454364D01*
X64543302Y-77454366D01*
X64323511Y-77513258D01*
X64323502Y-77513261D01*
X64117267Y-77609431D01*
X64117265Y-77609432D01*
X63930858Y-77739954D01*
X63769954Y-77900858D01*
X63639432Y-78087265D01*
X63639431Y-78087267D01*
X63543261Y-78293502D01*
X63543258Y-78293511D01*
X63484366Y-78513302D01*
X63484364Y-78513313D01*
X63464532Y-78739998D01*
X62895500Y-78739998D01*
X62895500Y-73930451D01*
X62915185Y-73863412D01*
X62931814Y-73842775D01*
X64217817Y-72556771D01*
X64279138Y-72523288D01*
X64343813Y-72526522D01*
X64453757Y-72562246D01*
X64663713Y-72595500D01*
X64663714Y-72595500D01*
X64876286Y-72595500D01*
X64876287Y-72595500D01*
X65086243Y-72562246D01*
X65288412Y-72496557D01*
X65477816Y-72400051D01*
X65491653Y-72389998D01*
X68544532Y-72389998D01*
X68544532Y-72390001D01*
X68564364Y-72616686D01*
X68564366Y-72616697D01*
X68623258Y-72836488D01*
X68623261Y-72836497D01*
X68719431Y-73042732D01*
X68719432Y-73042734D01*
X68849954Y-73229141D01*
X69010858Y-73390045D01*
X69010861Y-73390047D01*
X69197266Y-73520568D01*
X69233699Y-73537557D01*
X69255275Y-73547618D01*
X69307714Y-73593791D01*
X69326866Y-73660984D01*
X69306650Y-73727865D01*
X69255275Y-73772382D01*
X69197267Y-73799431D01*
X69197265Y-73799432D01*
X69010858Y-73929954D01*
X68849954Y-74090858D01*
X68719432Y-74277265D01*
X68719431Y-74277267D01*
X68623261Y-74483502D01*
X68623258Y-74483511D01*
X68564366Y-74703302D01*
X68564364Y-74703313D01*
X68544532Y-74929998D01*
X68544532Y-74930001D01*
X68564364Y-75156686D01*
X68564366Y-75156697D01*
X68623258Y-75376488D01*
X68623261Y-75376497D01*
X68719431Y-75582732D01*
X68719432Y-75582734D01*
X68849954Y-75769141D01*
X69010858Y-75930045D01*
X69010861Y-75930047D01*
X69197266Y-76060568D01*
X69255865Y-76087893D01*
X69308305Y-76134065D01*
X69327457Y-76201258D01*
X69307242Y-76268139D01*
X69255867Y-76312657D01*
X69197513Y-76339868D01*
X69166115Y-76361851D01*
X69850000Y-77045736D01*
X69850001Y-77045736D01*
X70533883Y-76361852D01*
X70533883Y-76361851D01*
X70502485Y-76339867D01*
X70444133Y-76312657D01*
X70391694Y-76266484D01*
X70372542Y-76199291D01*
X70392758Y-76132410D01*
X70444129Y-76087895D01*
X70502734Y-76060568D01*
X70689139Y-75930047D01*
X70850047Y-75769139D01*
X70980568Y-75582734D01*
X71076739Y-75376496D01*
X71135635Y-75156692D01*
X71155468Y-74930000D01*
X71135635Y-74703308D01*
X71083125Y-74507338D01*
X71076741Y-74483511D01*
X71076738Y-74483502D01*
X71058433Y-74444247D01*
X70980568Y-74277266D01*
X70850047Y-74090861D01*
X70850045Y-74090858D01*
X70689141Y-73929954D01*
X70502734Y-73799432D01*
X70502728Y-73799429D01*
X70444725Y-73772382D01*
X70392285Y-73726210D01*
X70373133Y-73659017D01*
X70393348Y-73592135D01*
X70444725Y-73547618D01*
X70502734Y-73520568D01*
X70689139Y-73390047D01*
X70850047Y-73229139D01*
X70980568Y-73042734D01*
X71076739Y-72836496D01*
X71135635Y-72616692D01*
X71155468Y-72390000D01*
X71135635Y-72163308D01*
X71079220Y-71952764D01*
X71076741Y-71943511D01*
X71076738Y-71943502D01*
X71055498Y-71897953D01*
X70980568Y-71737266D01*
X70858288Y-71562630D01*
X70850045Y-71550858D01*
X70689143Y-71389956D01*
X70664536Y-71372726D01*
X70620912Y-71318149D01*
X70613719Y-71248650D01*
X70645241Y-71186296D01*
X70705471Y-71150882D01*
X70722404Y-71147861D01*
X70757483Y-71144091D01*
X70892331Y-71093796D01*
X71007546Y-71007546D01*
X71093796Y-70892331D01*
X71144091Y-70757483D01*
X71150500Y-70697873D01*
X71150499Y-69002128D01*
X71144091Y-68942517D01*
X71131657Y-68909181D01*
X71093797Y-68807671D01*
X71093793Y-68807664D01*
X71007547Y-68692455D01*
X71007544Y-68692452D01*
X70892335Y-68606206D01*
X70892328Y-68606202D01*
X70757482Y-68555908D01*
X70757483Y-68555908D01*
X70697883Y-68549501D01*
X70697881Y-68549500D01*
X70697873Y-68549500D01*
X70697864Y-68549500D01*
X69002129Y-68549500D01*
X69002123Y-68549501D01*
X68942516Y-68555908D01*
X68807671Y-68606202D01*
X68807664Y-68606206D01*
X68692455Y-68692452D01*
X68692452Y-68692455D01*
X68606206Y-68807664D01*
X68606202Y-68807671D01*
X68555908Y-68942517D01*
X68551591Y-68982677D01*
X68549501Y-69002123D01*
X68549500Y-69002135D01*
X68549500Y-70697870D01*
X68549501Y-70697876D01*
X68555908Y-70757483D01*
X68606202Y-70892328D01*
X68606206Y-70892335D01*
X68692452Y-71007544D01*
X68692455Y-71007547D01*
X68807664Y-71093793D01*
X68807671Y-71093797D01*
X68831217Y-71102579D01*
X68942517Y-71144091D01*
X68977596Y-71147862D01*
X69042144Y-71174599D01*
X69081993Y-71231991D01*
X69084488Y-71301816D01*
X69048836Y-71361905D01*
X69035464Y-71372725D01*
X69010858Y-71389954D01*
X68849954Y-71550858D01*
X68719432Y-71737265D01*
X68719431Y-71737267D01*
X68623261Y-71943502D01*
X68623258Y-71943511D01*
X68564366Y-72163302D01*
X68564364Y-72163313D01*
X68544532Y-72389998D01*
X65491653Y-72389998D01*
X65525047Y-72365736D01*
X65649786Y-72275109D01*
X65649788Y-72275106D01*
X65649792Y-72275104D01*
X65800104Y-72124792D01*
X65800106Y-72124788D01*
X65800109Y-72124786D01*
X65925048Y-71952820D01*
X65925047Y-71952820D01*
X65925051Y-71952816D01*
X66021557Y-71763412D01*
X66087246Y-71561243D01*
X66120500Y-71351287D01*
X66120500Y-70888713D01*
X66087246Y-70678757D01*
X66021557Y-70476588D01*
X65925051Y-70287184D01*
X65925049Y-70287181D01*
X65925048Y-70287179D01*
X65800109Y-70115213D01*
X65649786Y-69964890D01*
X65477820Y-69839951D01*
X65288414Y-69743444D01*
X65288413Y-69743443D01*
X65288412Y-69743443D01*
X65086243Y-69677754D01*
X65086241Y-69677753D01*
X65086240Y-69677753D01*
X64908676Y-69649630D01*
X64876287Y-69644500D01*
X64663713Y-69644500D01*
X64631324Y-69649630D01*
X64453760Y-69677753D01*
X64251585Y-69743444D01*
X64062179Y-69839951D01*
X63890213Y-69964890D01*
X63739894Y-70115209D01*
X63739890Y-70115214D01*
X63620318Y-70279793D01*
X63564989Y-70322459D01*
X63495375Y-70328438D01*
X63433580Y-70295833D01*
X63419682Y-70279793D01*
X63300109Y-70115214D01*
X63300105Y-70115209D01*
X63149786Y-69964890D01*
X62977820Y-69839951D01*
X62788414Y-69743444D01*
X62788413Y-69743443D01*
X62788412Y-69743443D01*
X62586243Y-69677754D01*
X62586241Y-69677753D01*
X62586240Y-69677753D01*
X62408676Y-69649630D01*
X62376287Y-69644500D01*
X62163713Y-69644500D01*
X62131324Y-69649630D01*
X61953753Y-69677754D01*
X61843813Y-69713475D01*
X61773972Y-69715470D01*
X61717815Y-69683225D01*
X59712198Y-67677608D01*
X59712178Y-67677586D01*
X59620733Y-67586141D01*
X59569509Y-67551915D01*
X59540950Y-67532832D01*
X59518286Y-67517688D01*
X59518283Y-67517686D01*
X59518280Y-67517685D01*
X59437792Y-67484347D01*
X59404453Y-67470537D01*
X59394427Y-67468543D01*
X59344029Y-67458518D01*
X59283610Y-67446500D01*
X59283607Y-67446500D01*
X59283606Y-67446500D01*
X56957607Y-67446500D01*
X56834393Y-67446500D01*
X56834389Y-67446500D01*
X56773971Y-67458518D01*
X56713548Y-67470537D01*
X56713543Y-67470538D01*
X56680207Y-67484347D01*
X56666397Y-67490067D01*
X56644169Y-67499274D01*
X56599713Y-67517688D01*
X56589557Y-67524475D01*
X56589449Y-67524547D01*
X56497268Y-67586140D01*
X56453705Y-67629703D01*
X56410142Y-67673267D01*
X56410139Y-67673270D01*
X54465270Y-69618139D01*
X54465267Y-69618142D01*
X54438909Y-69644500D01*
X54378142Y-69705266D01*
X54352633Y-69743444D01*
X54352632Y-69743445D01*
X54309690Y-69807708D01*
X54309686Y-69807716D01*
X54292173Y-69849999D01*
X54262538Y-69921544D01*
X54262535Y-69921556D01*
X54238500Y-70042389D01*
X53500000Y-70042389D01*
X53500000Y-68501089D01*
X53500020Y-68498878D01*
X53500020Y-68498877D01*
X53502409Y-68364889D01*
X53503650Y-68349472D01*
X53541948Y-68083099D01*
X53545709Y-68065814D01*
X53562688Y-68007989D01*
X53621210Y-67808681D01*
X53627391Y-67792112D01*
X53679693Y-67677586D01*
X53738720Y-67548334D01*
X53747185Y-67532832D01*
X53892084Y-67307364D01*
X53902670Y-67293222D01*
X54078177Y-67090676D01*
X54090676Y-67078177D01*
X54293222Y-66902670D01*
X54307364Y-66892084D01*
X54532832Y-66747185D01*
X54548334Y-66738720D01*
X54792112Y-66627390D01*
X54808681Y-66621210D01*
X55065818Y-66545707D01*
X55083099Y-66541948D01*
X55349472Y-66503650D01*
X55364889Y-66502409D01*
X55498879Y-66500020D01*
X55501090Y-66500000D01*
X92862611Y-66500000D01*
X92929650Y-66519685D01*
G37*
%TD.AperFunction*%
M02*
