%TF.GenerationSoftware,KiCad,Pcbnew,7.0.7*%
%TF.CreationDate,2023-12-09T14:49:58+00:00*%
%TF.ProjectId,Wand Board,57616e64-2042-46f6-9172-642e6b696361,rev?*%
%TF.SameCoordinates,Original*%
%TF.FileFunction,Copper,L2,Bot*%
%TF.FilePolarity,Positive*%
%FSLAX46Y46*%
G04 Gerber Fmt 4.6, Leading zero omitted, Abs format (unit mm)*
G04 Created by KiCad (PCBNEW 7.0.7) date 2023-12-09 14:49:58*
%MOMM*%
%LPD*%
G01*
G04 APERTURE LIST*
G04 Aperture macros list*
%AMRoundRect*
0 Rectangle with rounded corners*
0 $1 Rounding radius*
0 $2 $3 $4 $5 $6 $7 $8 $9 X,Y pos of 4 corners*
0 Add a 4 corners polygon primitive as box body*
4,1,4,$2,$3,$4,$5,$6,$7,$8,$9,$2,$3,0*
0 Add four circle primitives for the rounded corners*
1,1,$1+$1,$2,$3*
1,1,$1+$1,$4,$5*
1,1,$1+$1,$6,$7*
1,1,$1+$1,$8,$9*
0 Add four rect primitives between the rounded corners*
20,1,$1+$1,$2,$3,$4,$5,0*
20,1,$1+$1,$4,$5,$6,$7,0*
20,1,$1+$1,$6,$7,$8,$9,0*
20,1,$1+$1,$8,$9,$2,$3,0*%
G04 Aperture macros list end*
%TA.AperFunction,ComponentPad*%
%ADD10O,1.700000X1.950000*%
%TD*%
%TA.AperFunction,ComponentPad*%
%ADD11RoundRect,0.250000X-0.600000X-0.725000X0.600000X-0.725000X0.600000X0.725000X-0.600000X0.725000X0*%
%TD*%
%TA.AperFunction,ComponentPad*%
%ADD12O,1.950000X1.700000*%
%TD*%
%TA.AperFunction,ComponentPad*%
%ADD13RoundRect,0.250000X-0.725000X0.600000X-0.725000X-0.600000X0.725000X-0.600000X0.725000X0.600000X0*%
%TD*%
%TA.AperFunction,ComponentPad*%
%ADD14R,1.200000X1.200000*%
%TD*%
%TA.AperFunction,ComponentPad*%
%ADD15C,1.200000*%
%TD*%
%TA.AperFunction,ComponentPad*%
%ADD16C,1.600000*%
%TD*%
%TA.AperFunction,ComponentPad*%
%ADD17O,1.600000X1.600000*%
%TD*%
%TA.AperFunction,ComponentPad*%
%ADD18R,2.200000X2.200000*%
%TD*%
%TA.AperFunction,ComponentPad*%
%ADD19O,2.200000X2.200000*%
%TD*%
%TA.AperFunction,ComponentPad*%
%ADD20R,2.600000X2.600000*%
%TD*%
%TA.AperFunction,ComponentPad*%
%ADD21C,2.600000*%
%TD*%
%TA.AperFunction,ComponentPad*%
%ADD22O,2.000000X1.700000*%
%TD*%
%TA.AperFunction,ComponentPad*%
%ADD23RoundRect,0.250000X-0.750000X0.600000X-0.750000X-0.600000X0.750000X-0.600000X0.750000X0.600000X0*%
%TD*%
%TA.AperFunction,ComponentPad*%
%ADD24RoundRect,0.250000X-0.600000X-0.750000X0.600000X-0.750000X0.600000X0.750000X-0.600000X0.750000X0*%
%TD*%
%TA.AperFunction,ComponentPad*%
%ADD25O,1.700000X2.000000*%
%TD*%
%TA.AperFunction,ComponentPad*%
%ADD26R,1.600000X1.600000*%
%TD*%
%TA.AperFunction,ComponentPad*%
%ADD27R,1.500000X1.050000*%
%TD*%
%TA.AperFunction,ComponentPad*%
%ADD28O,1.500000X1.050000*%
%TD*%
%TA.AperFunction,ComponentPad*%
%ADD29C,6.400000*%
%TD*%
%TA.AperFunction,ViaPad*%
%ADD30C,0.800000*%
%TD*%
%TA.AperFunction,Conductor*%
%ADD31C,0.600000*%
%TD*%
%TA.AperFunction,Conductor*%
%ADD32C,0.250000*%
%TD*%
G04 APERTURE END LIST*
D10*
X128000000Y-96000000D03*
X125500000Y-96000000D03*
X123000000Y-96000000D03*
D11*
X120500000Y-96000000D03*
D12*
X134850000Y-96400000D03*
X134850000Y-93900000D03*
X134850000Y-91400000D03*
D13*
X134850000Y-88900000D03*
D11*
X57230000Y-96503000D03*
D10*
X59730000Y-96503000D03*
X62230000Y-96503000D03*
D14*
X116250000Y-69527401D03*
D15*
X116250000Y-71527401D03*
D16*
X82880000Y-76180000D03*
X82880000Y-78720000D03*
X82880000Y-81260000D03*
X82880000Y-83800000D03*
X82880000Y-86340000D03*
X82880000Y-88880000D03*
X82880000Y-91420000D03*
X82880000Y-93960000D03*
X82880000Y-96500000D03*
X82880000Y-99040000D03*
X82880000Y-101580000D03*
X82880000Y-104120000D03*
X82880000Y-106660000D03*
X82880000Y-109200000D03*
X98120000Y-109200000D03*
X98120000Y-106660000D03*
X98120000Y-104120000D03*
X98120000Y-101580000D03*
X98120000Y-99040000D03*
X98120000Y-96500000D03*
X98120000Y-93960000D03*
X98120000Y-91420000D03*
X98120000Y-88880000D03*
X98120000Y-86340000D03*
X98120000Y-83800000D03*
X98120000Y-81260000D03*
X98120000Y-78720000D03*
X98120000Y-76180000D03*
X91645000Y-76820000D03*
X89355000Y-76820000D03*
X104370000Y-71750000D03*
D17*
X96750000Y-71750000D03*
D11*
X57230000Y-72644000D03*
D10*
X59730000Y-72644000D03*
X62230000Y-72644000D03*
D16*
X67056000Y-77216000D03*
D17*
X67056000Y-69596000D03*
D13*
X105000000Y-85000000D03*
D12*
X105000000Y-87500000D03*
X105000000Y-90000000D03*
D16*
X67056000Y-88900000D03*
D17*
X67056000Y-81280000D03*
D16*
X127500000Y-70940000D03*
D17*
X127500000Y-78560000D03*
D18*
X116330000Y-76500000D03*
D19*
X106170000Y-76500000D03*
D20*
X98500000Y-116500000D03*
D21*
X103500000Y-116500000D03*
D12*
X135000000Y-80554000D03*
X135000000Y-78054000D03*
X135000000Y-75554000D03*
D13*
X135000000Y-73054000D03*
D22*
X103632000Y-107500000D03*
D23*
X103632000Y-105000000D03*
D24*
X108500000Y-69750000D03*
D25*
X111000000Y-69750000D03*
D16*
X67056000Y-100584000D03*
D17*
X67056000Y-92964000D03*
D11*
X57230000Y-84582000D03*
D10*
X59730000Y-84582000D03*
X62230000Y-84582000D03*
D26*
X74676000Y-91408000D03*
D16*
X74676000Y-89408000D03*
D23*
X122500000Y-87500000D03*
D22*
X122500000Y-90000000D03*
D11*
X102656000Y-98044000D03*
D10*
X105156000Y-98044000D03*
X107656000Y-98044000D03*
D16*
X127500000Y-91620000D03*
D17*
X127500000Y-84000000D03*
D23*
X122500000Y-79000000D03*
D22*
X122500000Y-81500000D03*
D24*
X86868000Y-69596000D03*
D25*
X89368000Y-69596000D03*
D23*
X122500000Y-70500000D03*
D22*
X122500000Y-73000000D03*
D26*
X78740000Y-85344000D03*
D17*
X78740000Y-82804000D03*
X78740000Y-80264000D03*
X78740000Y-77724000D03*
X78740000Y-75184000D03*
X78740000Y-72644000D03*
X78740000Y-70104000D03*
X71120000Y-70104000D03*
X71120000Y-72644000D03*
X71120000Y-75184000D03*
X71120000Y-77724000D03*
X71120000Y-80264000D03*
X71120000Y-82804000D03*
X71120000Y-85344000D03*
D22*
X114700000Y-98300000D03*
D23*
X114700000Y-95800000D03*
D24*
X73192000Y-96520000D03*
D25*
X75692000Y-96520000D03*
D20*
X85500000Y-116500000D03*
D21*
X90500000Y-116500000D03*
D16*
X104310000Y-68500000D03*
D17*
X96690000Y-68500000D03*
D27*
X102500000Y-78040000D03*
D28*
X102500000Y-76770000D03*
X102500000Y-75500000D03*
D29*
X113500000Y-84625000D03*
D30*
X92000000Y-81750000D03*
D31*
X124475000Y-94525000D02*
X123000000Y-96000000D01*
X134850000Y-91400000D02*
X131725000Y-94525000D01*
X131725000Y-94525000D02*
X124475000Y-94525000D01*
D32*
X112400000Y-96000000D02*
X114900000Y-98500000D01*
X114900000Y-98500000D02*
X115025000Y-98500000D01*
X98120000Y-99040000D02*
X101160000Y-96000000D01*
X101160000Y-96000000D02*
X112400000Y-96000000D01*
X118000000Y-80250000D02*
X127310000Y-70940000D01*
X109000000Y-81000000D02*
X109750000Y-80250000D01*
X109000000Y-90500000D02*
X109000000Y-81000000D01*
X127310000Y-70940000D02*
X127500000Y-70940000D01*
X105540000Y-93960000D02*
X109000000Y-90500000D01*
X98120000Y-93960000D02*
X105540000Y-93960000D01*
X109750000Y-80250000D02*
X118000000Y-80250000D01*
D31*
X90500000Y-116500000D02*
X90500000Y-86340000D01*
X90500000Y-86340000D02*
X82880000Y-78720000D01*
X85500000Y-116500000D02*
X85500000Y-83880000D01*
X85500000Y-83880000D02*
X82880000Y-81260000D01*
D32*
X96500000Y-90500000D02*
X96500000Y-94220991D01*
X96500000Y-94220991D02*
X97654009Y-95375000D01*
X98120000Y-88880000D02*
X96500000Y-90500000D01*
X97654009Y-95375000D02*
X108625000Y-95375000D01*
X108625000Y-95375000D02*
X122500000Y-81500000D01*
X107500000Y-90000000D02*
X107500000Y-81000000D01*
X98120000Y-86340000D02*
X103530000Y-91750000D01*
X105750000Y-91750000D02*
X107500000Y-90000000D01*
X103530000Y-91750000D02*
X105750000Y-91750000D01*
X115750000Y-79750000D02*
X122500000Y-73000000D01*
X107500000Y-81000000D02*
X108750000Y-79750000D01*
X108750000Y-79750000D02*
X115750000Y-79750000D01*
X82880000Y-93960000D02*
X78252000Y-93960000D01*
X78252000Y-93960000D02*
X75692000Y-96520000D01*
X102792000Y-106660000D02*
X103632000Y-107500000D01*
X98120000Y-106660000D02*
X102792000Y-106660000D01*
X98120000Y-104120000D02*
X101580000Y-104120000D01*
X101580000Y-104120000D02*
X107656000Y-98044000D01*
X104320000Y-90000000D02*
X105000000Y-90000000D01*
X98120000Y-83800000D02*
X104320000Y-90000000D01*
X69500000Y-71724000D02*
X71120000Y-70104000D01*
X67056000Y-81280000D02*
X67056000Y-80444000D01*
X69500000Y-78000000D02*
X69500000Y-71724000D01*
X67056000Y-80444000D02*
X69500000Y-78000000D01*
X68152000Y-68500000D02*
X74596000Y-68500000D01*
X74596000Y-68500000D02*
X78740000Y-72644000D01*
X67056000Y-69596000D02*
X68152000Y-68500000D01*
X67056000Y-92964000D02*
X69500000Y-90520000D01*
X69500000Y-90520000D02*
X69500000Y-79344000D01*
X69500000Y-79344000D02*
X71120000Y-77724000D01*
X81500000Y-77944000D02*
X81500000Y-82420000D01*
X78740000Y-75184000D02*
X81500000Y-77944000D01*
X81500000Y-82420000D02*
X82880000Y-83800000D01*
X80500000Y-83960000D02*
X80500000Y-80000000D01*
X82880000Y-86340000D02*
X80500000Y-83960000D01*
X80500000Y-80000000D02*
X79500000Y-79000000D01*
X79500000Y-79000000D02*
X77476000Y-79000000D01*
X77476000Y-79000000D02*
X71120000Y-72644000D01*
X82880000Y-91420000D02*
X82276000Y-91420000D01*
X82276000Y-91420000D02*
X71120000Y-80264000D01*
X105170000Y-75500000D02*
X106170000Y-76500000D01*
X102500000Y-75500000D02*
X105170000Y-75500000D01*
X98120000Y-101580000D02*
X99120000Y-101580000D01*
X99120000Y-101580000D02*
X102656000Y-98044000D01*
X95190000Y-70000000D02*
X96690000Y-68500000D01*
X95000000Y-70190000D02*
X95190000Y-70000000D01*
X95000000Y-78750000D02*
X95000000Y-70190000D01*
X92000000Y-81750000D02*
X95000000Y-78750000D01*
%TA.AperFunction,Conductor*%
G36*
X72491086Y-74903685D02*
G01*
X72511728Y-74920319D01*
X76975197Y-79383788D01*
X76985022Y-79396051D01*
X76985243Y-79395869D01*
X76990214Y-79401878D01*
X77008764Y-79419297D01*
X77040635Y-79449226D01*
X77061529Y-79470120D01*
X77067011Y-79474373D01*
X77071443Y-79478157D01*
X77105418Y-79510062D01*
X77122976Y-79519714D01*
X77139235Y-79530395D01*
X77155064Y-79542673D01*
X77197838Y-79561182D01*
X77203056Y-79563738D01*
X77243908Y-79586197D01*
X77263316Y-79591180D01*
X77281717Y-79597480D01*
X77300104Y-79605437D01*
X77336914Y-79611267D01*
X77346119Y-79612725D01*
X77351839Y-79613909D01*
X77396981Y-79625500D01*
X77408153Y-79625500D01*
X77475192Y-79645185D01*
X77520947Y-79697989D01*
X77530891Y-79767147D01*
X77520535Y-79801904D01*
X77513263Y-79817497D01*
X77513258Y-79817511D01*
X77454366Y-80037302D01*
X77454364Y-80037313D01*
X77434532Y-80263998D01*
X77434532Y-80264001D01*
X77454364Y-80490686D01*
X77454366Y-80490697D01*
X77513258Y-80710488D01*
X77513261Y-80710497D01*
X77609431Y-80916732D01*
X77609432Y-80916734D01*
X77739954Y-81103141D01*
X77900858Y-81264045D01*
X77900861Y-81264047D01*
X78087266Y-81394568D01*
X78140604Y-81419440D01*
X78145275Y-81421618D01*
X78197714Y-81467791D01*
X78216866Y-81534984D01*
X78196650Y-81601865D01*
X78145275Y-81646382D01*
X78087267Y-81673431D01*
X78087265Y-81673432D01*
X77900858Y-81803954D01*
X77739954Y-81964858D01*
X77609432Y-82151265D01*
X77609431Y-82151267D01*
X77513261Y-82357502D01*
X77513258Y-82357511D01*
X77454366Y-82577302D01*
X77454364Y-82577313D01*
X77434532Y-82803998D01*
X77434532Y-82804001D01*
X77454364Y-83030686D01*
X77454366Y-83030697D01*
X77513258Y-83250488D01*
X77513261Y-83250497D01*
X77609431Y-83456732D01*
X77609432Y-83456734D01*
X77739954Y-83643141D01*
X77900858Y-83804045D01*
X77925462Y-83821273D01*
X77969087Y-83875849D01*
X77976281Y-83945348D01*
X77944758Y-84007703D01*
X77884529Y-84043117D01*
X77867593Y-84046138D01*
X77832516Y-84049908D01*
X77697671Y-84100202D01*
X77697664Y-84100206D01*
X77582455Y-84186452D01*
X77582452Y-84186455D01*
X77496206Y-84301664D01*
X77496202Y-84301671D01*
X77445908Y-84436517D01*
X77439501Y-84496116D01*
X77439500Y-84496135D01*
X77439500Y-85399547D01*
X77419815Y-85466586D01*
X77367011Y-85512341D01*
X77297853Y-85522285D01*
X77234297Y-85493260D01*
X77227819Y-85487228D01*
X72419413Y-80678822D01*
X72385928Y-80617499D01*
X72387319Y-80559048D01*
X72399332Y-80514214D01*
X72405635Y-80490692D01*
X72425468Y-80264000D01*
X72405635Y-80037308D01*
X72346739Y-79817504D01*
X72250568Y-79611266D01*
X72120047Y-79424861D01*
X72120045Y-79424858D01*
X71959141Y-79263954D01*
X71772734Y-79133432D01*
X71772728Y-79133429D01*
X71714725Y-79106382D01*
X71662285Y-79060210D01*
X71643133Y-78993017D01*
X71663348Y-78926135D01*
X71714725Y-78881618D01*
X71724667Y-78876982D01*
X71772734Y-78854568D01*
X71959139Y-78724047D01*
X72120047Y-78563139D01*
X72250568Y-78376734D01*
X72346739Y-78170496D01*
X72405635Y-77950692D01*
X72425468Y-77724000D01*
X72425193Y-77720861D01*
X72414373Y-77597189D01*
X72405635Y-77497308D01*
X72346739Y-77277504D01*
X72250568Y-77071266D01*
X72120047Y-76884861D01*
X72120045Y-76884858D01*
X71959141Y-76723954D01*
X71772734Y-76593432D01*
X71772732Y-76593431D01*
X71720271Y-76568968D01*
X71714132Y-76566105D01*
X71661694Y-76519934D01*
X71642542Y-76452740D01*
X71662758Y-76385859D01*
X71714134Y-76341341D01*
X71772484Y-76314132D01*
X71958820Y-76183657D01*
X72119657Y-76022820D01*
X72250134Y-75836482D01*
X72346265Y-75630326D01*
X72346268Y-75630320D01*
X72385475Y-75484000D01*
X71618423Y-75484000D01*
X71551384Y-75464315D01*
X71505629Y-75411511D01*
X71495685Y-75342353D01*
X71503165Y-75318755D01*
X71502150Y-75318426D01*
X71505163Y-75309151D01*
X71505165Y-75309148D01*
X71505166Y-75309143D01*
X71524986Y-75184003D01*
X71524986Y-75183996D01*
X71505166Y-75058856D01*
X71502150Y-75049574D01*
X71504997Y-75048648D01*
X71495043Y-74995611D01*
X71521328Y-74930874D01*
X71578439Y-74890623D01*
X71618423Y-74884000D01*
X72424047Y-74884000D01*
X72491086Y-74903685D01*
G37*
%TD.AperFunction*%
%TA.AperFunction,Conductor*%
G36*
X80111087Y-77443685D02*
G01*
X80131729Y-77460319D01*
X80838181Y-78166771D01*
X80871666Y-78228094D01*
X80874500Y-78254452D01*
X80874500Y-79190547D01*
X80854815Y-79257586D01*
X80802011Y-79303341D01*
X80732853Y-79313285D01*
X80669297Y-79284260D01*
X80662819Y-79278228D01*
X80000803Y-78616212D01*
X79990980Y-78603950D01*
X79990759Y-78604134D01*
X79985786Y-78598123D01*
X79935364Y-78550773D01*
X79914471Y-78529880D01*
X79911052Y-78527228D01*
X79908988Y-78525626D01*
X79904560Y-78521845D01*
X79898914Y-78516543D01*
X79863516Y-78456307D01*
X79866305Y-78386493D01*
X79871411Y-78373743D01*
X79966265Y-78170326D01*
X79966268Y-78170320D01*
X80005475Y-78024000D01*
X79238423Y-78024000D01*
X79171384Y-78004315D01*
X79125629Y-77951511D01*
X79115685Y-77882353D01*
X79123165Y-77858755D01*
X79122150Y-77858426D01*
X79125163Y-77849151D01*
X79125165Y-77849148D01*
X79129774Y-77820047D01*
X79144986Y-77724003D01*
X79144986Y-77723996D01*
X79125166Y-77598856D01*
X79122150Y-77589574D01*
X79124997Y-77588648D01*
X79115043Y-77535611D01*
X79141328Y-77470874D01*
X79198439Y-77430623D01*
X79238423Y-77424000D01*
X80044048Y-77424000D01*
X80111087Y-77443685D01*
G37*
%TD.AperFunction*%
%TA.AperFunction,Conductor*%
G36*
X74352587Y-69145185D02*
G01*
X74373229Y-69161819D01*
X77440586Y-72229177D01*
X77474071Y-72290500D01*
X77472680Y-72348949D01*
X77454367Y-72417296D01*
X77454364Y-72417313D01*
X77434532Y-72643999D01*
X77434532Y-72644001D01*
X77454364Y-72870686D01*
X77454366Y-72870697D01*
X77513258Y-73090488D01*
X77513261Y-73090497D01*
X77609431Y-73296732D01*
X77609432Y-73296734D01*
X77739954Y-73483141D01*
X77900858Y-73644045D01*
X77900861Y-73644047D01*
X78087266Y-73774568D01*
X78145275Y-73801618D01*
X78197714Y-73847791D01*
X78216866Y-73914984D01*
X78196650Y-73981865D01*
X78145275Y-74026382D01*
X78087267Y-74053431D01*
X78087265Y-74053432D01*
X77900858Y-74183954D01*
X77739954Y-74344858D01*
X77609432Y-74531265D01*
X77609431Y-74531267D01*
X77513261Y-74737502D01*
X77513258Y-74737511D01*
X77454366Y-74957302D01*
X77454364Y-74957313D01*
X77434532Y-75183998D01*
X77434532Y-75184001D01*
X77454364Y-75410686D01*
X77454366Y-75410697D01*
X77513258Y-75630488D01*
X77513261Y-75630497D01*
X77609431Y-75836732D01*
X77609432Y-75836734D01*
X77739954Y-76023141D01*
X77900858Y-76184045D01*
X77900861Y-76184047D01*
X78087266Y-76314568D01*
X78145865Y-76341893D01*
X78198305Y-76388065D01*
X78217457Y-76455258D01*
X78197242Y-76522139D01*
X78145867Y-76566657D01*
X78087515Y-76593867D01*
X77901179Y-76724342D01*
X77740342Y-76885179D01*
X77609865Y-77071517D01*
X77513734Y-77277673D01*
X77513731Y-77277679D01*
X77474525Y-77423999D01*
X77474525Y-77424000D01*
X78241577Y-77424000D01*
X78308616Y-77443685D01*
X78354371Y-77496489D01*
X78364315Y-77565647D01*
X78356834Y-77589244D01*
X78357850Y-77589574D01*
X78354833Y-77598856D01*
X78335014Y-77723996D01*
X78335014Y-77724003D01*
X78354833Y-77849143D01*
X78357850Y-77858426D01*
X78355002Y-77859351D01*
X78364957Y-77912389D01*
X78338672Y-77977126D01*
X78281561Y-78017377D01*
X78241577Y-78024000D01*
X77435953Y-78024000D01*
X77368914Y-78004315D01*
X77348272Y-77987681D01*
X72419413Y-73058822D01*
X72385928Y-72997499D01*
X72387319Y-72939048D01*
X72405635Y-72870692D01*
X72425468Y-72644000D01*
X72405635Y-72417308D01*
X72346739Y-72197504D01*
X72250568Y-71991266D01*
X72120047Y-71804861D01*
X72120045Y-71804858D01*
X71959141Y-71643954D01*
X71772734Y-71513432D01*
X71772728Y-71513429D01*
X71726576Y-71491908D01*
X71714724Y-71486381D01*
X71662285Y-71440210D01*
X71643133Y-71373017D01*
X71663348Y-71306135D01*
X71714725Y-71261618D01*
X71715319Y-71261341D01*
X71772734Y-71234568D01*
X71959139Y-71104047D01*
X72120047Y-70943139D01*
X72250568Y-70756734D01*
X72346739Y-70550496D01*
X72405635Y-70330692D01*
X72425468Y-70104000D01*
X72425193Y-70100861D01*
X72414743Y-69981413D01*
X72405635Y-69877308D01*
X72346739Y-69657504D01*
X72250568Y-69451266D01*
X72205593Y-69387034D01*
X72159092Y-69320623D01*
X72136765Y-69254416D01*
X72153776Y-69186649D01*
X72204724Y-69138837D01*
X72260667Y-69125500D01*
X74285548Y-69125500D01*
X74352587Y-69145185D01*
G37*
%TD.AperFunction*%
%TA.AperFunction,Conductor*%
G36*
X102078871Y-104635890D02*
G01*
X102122631Y-104690358D01*
X102122698Y-104690698D01*
X102132000Y-104700000D01*
X103033334Y-104700000D01*
X103100373Y-104719685D01*
X103146128Y-104772489D01*
X103156072Y-104841647D01*
X103152311Y-104858934D01*
X103132000Y-104928107D01*
X103132000Y-105071892D01*
X103152311Y-105141066D01*
X103152311Y-105210936D01*
X103114536Y-105269714D01*
X103050980Y-105298738D01*
X103033334Y-105300000D01*
X102132001Y-105300000D01*
X102132001Y-105649986D01*
X102142493Y-105752695D01*
X102181861Y-105871495D01*
X102184263Y-105941324D01*
X102148532Y-106001366D01*
X102086011Y-106032559D01*
X102064155Y-106034500D01*
X99334188Y-106034500D01*
X99267149Y-106014815D01*
X99232613Y-105981623D01*
X99120045Y-105820858D01*
X98959141Y-105659954D01*
X98772734Y-105529432D01*
X98772728Y-105529429D01*
X98714725Y-105502382D01*
X98662285Y-105456210D01*
X98643133Y-105389017D01*
X98663348Y-105322135D01*
X98714725Y-105277618D01*
X98772734Y-105250568D01*
X98959139Y-105120047D01*
X99120047Y-104959139D01*
X99232612Y-104798377D01*
X99287189Y-104754752D01*
X99334188Y-104745500D01*
X101497257Y-104745500D01*
X101512877Y-104747224D01*
X101512904Y-104746939D01*
X101520660Y-104747671D01*
X101520667Y-104747673D01*
X101589814Y-104745500D01*
X101619350Y-104745500D01*
X101626228Y-104744630D01*
X101632041Y-104744172D01*
X101678627Y-104742709D01*
X101697869Y-104737117D01*
X101716912Y-104733174D01*
X101736792Y-104730664D01*
X101780122Y-104713507D01*
X101785646Y-104711617D01*
X101789396Y-104710527D01*
X101830390Y-104698618D01*
X101847629Y-104688422D01*
X101865103Y-104679862D01*
X101883728Y-104672488D01*
X101883729Y-104672487D01*
X101883732Y-104672486D01*
X101921439Y-104645089D01*
X101926294Y-104641899D01*
X101944883Y-104630906D01*
X102012609Y-104613727D01*
X102078871Y-104635890D01*
G37*
%TD.AperFunction*%
%TA.AperFunction,Conductor*%
G36*
X120919334Y-78317769D02*
G01*
X120975267Y-78359641D01*
X120999684Y-78425105D01*
X121000000Y-78433951D01*
X121000000Y-78700000D01*
X121901334Y-78700000D01*
X121968373Y-78719685D01*
X122014128Y-78772489D01*
X122024072Y-78841647D01*
X122020311Y-78858934D01*
X122000000Y-78928107D01*
X122000000Y-79071892D01*
X122020311Y-79141066D01*
X122020311Y-79210936D01*
X121982536Y-79269714D01*
X121918980Y-79298738D01*
X121901334Y-79300000D01*
X121000001Y-79300000D01*
X121000001Y-79649986D01*
X121010494Y-79752697D01*
X121065641Y-79919119D01*
X121065643Y-79919124D01*
X121157684Y-80068345D01*
X121281654Y-80192315D01*
X121436484Y-80287815D01*
X121483208Y-80339763D01*
X121494431Y-80408726D01*
X121466587Y-80472808D01*
X121459069Y-80481035D01*
X121311501Y-80628603D01*
X121311501Y-80628604D01*
X121175967Y-80822165D01*
X121175965Y-80822169D01*
X121102276Y-80980196D01*
X121077510Y-81033308D01*
X121076098Y-81036335D01*
X121076094Y-81036344D01*
X121014938Y-81264586D01*
X121014936Y-81264596D01*
X120994341Y-81499999D01*
X120994341Y-81500000D01*
X121014936Y-81735403D01*
X121014938Y-81735413D01*
X121073554Y-81954173D01*
X121071891Y-82024023D01*
X121041460Y-82073947D01*
X117233910Y-85881497D01*
X117172587Y-85914982D01*
X117102895Y-85909998D01*
X117046962Y-85868126D01*
X117022545Y-85802662D01*
X117026453Y-85761730D01*
X117124602Y-85395433D01*
X117185278Y-85012338D01*
X117205578Y-84625000D01*
X117185278Y-84237662D01*
X117124602Y-83854567D01*
X117024214Y-83479913D01*
X116885214Y-83117806D01*
X116709125Y-82772211D01*
X116671560Y-82714366D01*
X116497877Y-82446917D01*
X116346551Y-82260045D01*
X116253781Y-82145484D01*
X115979516Y-81871219D01*
X115896451Y-81803954D01*
X115678082Y-81627122D01*
X115352793Y-81415877D01*
X115007197Y-81239787D01*
X114682804Y-81115264D01*
X114627272Y-81072862D01*
X114603479Y-81007168D01*
X114618981Y-80939040D01*
X114668854Y-80890107D01*
X114727242Y-80875500D01*
X117917257Y-80875500D01*
X117932877Y-80877224D01*
X117932904Y-80876939D01*
X117940660Y-80877671D01*
X117940667Y-80877673D01*
X118009814Y-80875500D01*
X118039350Y-80875500D01*
X118046228Y-80874630D01*
X118052041Y-80874172D01*
X118098627Y-80872709D01*
X118117869Y-80867117D01*
X118136912Y-80863174D01*
X118156792Y-80860664D01*
X118200122Y-80843507D01*
X118205646Y-80841617D01*
X118209396Y-80840527D01*
X118250390Y-80828618D01*
X118267629Y-80818422D01*
X118285103Y-80809862D01*
X118303727Y-80802488D01*
X118303727Y-80802487D01*
X118303732Y-80802486D01*
X118341449Y-80775082D01*
X118346305Y-80771892D01*
X118386420Y-80748170D01*
X118400589Y-80733999D01*
X118415379Y-80721368D01*
X118431587Y-80709594D01*
X118461299Y-80673676D01*
X118465212Y-80669376D01*
X120788319Y-78346269D01*
X120849642Y-78312785D01*
X120919334Y-78317769D01*
G37*
%TD.AperFunction*%
%TA.AperFunction,Conductor*%
G36*
X137502018Y-66500633D02*
G01*
X137530219Y-66502480D01*
X137583816Y-66505993D01*
X137638735Y-66509921D01*
X137746798Y-66517651D01*
X137751197Y-66518124D01*
X137770628Y-66520917D01*
X137794283Y-66524318D01*
X137797513Y-66524871D01*
X137848218Y-66534957D01*
X137889455Y-66543160D01*
X138026409Y-66572952D01*
X138030661Y-66574036D01*
X138051186Y-66580063D01*
X138159456Y-66616815D01*
X138291739Y-66666156D01*
X138297497Y-66668642D01*
X138412960Y-66725582D01*
X138534910Y-66792171D01*
X138539616Y-66795019D01*
X138646665Y-66866548D01*
X138649358Y-66868453D01*
X138758654Y-66950272D01*
X138762337Y-66953258D01*
X138859502Y-67038469D01*
X138862448Y-67041228D01*
X138958769Y-67137549D01*
X138961522Y-67140488D01*
X139046731Y-67237651D01*
X139049733Y-67241353D01*
X139125983Y-67343212D01*
X139131542Y-67350637D01*
X139133460Y-67353347D01*
X139204962Y-67460359D01*
X139207828Y-67465092D01*
X139274426Y-67587057D01*
X139331356Y-67702499D01*
X139333843Y-67708258D01*
X139383193Y-67840572D01*
X139419932Y-67948799D01*
X139425955Y-67969313D01*
X139427047Y-67973591D01*
X139428030Y-67978109D01*
X139456848Y-68110586D01*
X139475117Y-68202435D01*
X139475677Y-68205706D01*
X139481875Y-68248804D01*
X139482348Y-68253207D01*
X139494020Y-68416399D01*
X139495129Y-68433310D01*
X139498425Y-68483605D01*
X139499367Y-68497967D01*
X139499500Y-68502024D01*
X139499500Y-100497975D01*
X139499367Y-100502032D01*
X139494020Y-100583595D01*
X139482347Y-100746795D01*
X139481874Y-100751195D01*
X139475680Y-100794283D01*
X139475119Y-100797557D01*
X139456850Y-100889402D01*
X139427049Y-101026398D01*
X139425954Y-101030687D01*
X139419930Y-101051206D01*
X139383197Y-101159417D01*
X139333838Y-101291747D01*
X139331352Y-101297505D01*
X139274431Y-101412932D01*
X139207825Y-101534911D01*
X139204958Y-101539645D01*
X139133466Y-101646641D01*
X139131548Y-101649351D01*
X139049740Y-101758635D01*
X139046719Y-101762361D01*
X138961536Y-101859494D01*
X138958762Y-101862455D01*
X138862455Y-101958762D01*
X138859494Y-101961536D01*
X138762361Y-102046719D01*
X138758635Y-102049740D01*
X138649351Y-102131548D01*
X138646641Y-102133466D01*
X138539645Y-102204958D01*
X138534911Y-102207825D01*
X138412932Y-102274431D01*
X138297505Y-102331352D01*
X138291747Y-102333838D01*
X138159417Y-102383197D01*
X138051206Y-102419930D01*
X138030687Y-102425954D01*
X138026398Y-102427049D01*
X137889402Y-102456850D01*
X137797557Y-102475119D01*
X137794283Y-102475680D01*
X137751195Y-102481874D01*
X137746795Y-102482347D01*
X137583595Y-102494020D01*
X137519890Y-102498196D01*
X137502025Y-102499367D01*
X137497977Y-102499500D01*
X109873613Y-102499500D01*
X109872788Y-102499258D01*
X109869407Y-102499500D01*
X109868872Y-102499500D01*
X109706456Y-102520884D01*
X109702785Y-102521256D01*
X109627423Y-102526646D01*
X109623008Y-102528240D01*
X109623190Y-102528858D01*
X109613097Y-102531821D01*
X109611721Y-102532318D01*
X109611876Y-102533131D01*
X109611813Y-102533143D01*
X109609944Y-102532960D01*
X109607203Y-102533951D01*
X109604882Y-102534257D01*
X109604879Y-102534234D01*
X109582766Y-102540728D01*
X109416172Y-102585366D01*
X109413301Y-102586062D01*
X109354708Y-102598805D01*
X109302323Y-102622728D01*
X109302310Y-102622734D01*
X109280319Y-102632776D01*
X109113309Y-102701953D01*
X109113301Y-102701957D01*
X109057067Y-102734423D01*
X109051828Y-102737124D01*
X109040279Y-102742399D01*
X109040275Y-102742401D01*
X109015210Y-102758509D01*
X109012692Y-102760044D01*
X108886206Y-102833069D01*
X108886191Y-102833080D01*
X108821298Y-102882873D01*
X108817077Y-102885841D01*
X108799916Y-102896870D01*
X108776992Y-102916734D01*
X108774135Y-102919064D01*
X108678141Y-102992724D01*
X108607319Y-103063546D01*
X108604082Y-103066559D01*
X108583981Y-103083978D01*
X108583978Y-103083981D01*
X108566559Y-103104082D01*
X108563546Y-103107319D01*
X108492724Y-103178141D01*
X108419064Y-103274135D01*
X108416734Y-103276992D01*
X108396870Y-103299916D01*
X108385841Y-103317077D01*
X108382873Y-103321298D01*
X108333080Y-103386191D01*
X108333069Y-103386206D01*
X108260044Y-103512692D01*
X108258509Y-103515210D01*
X108242401Y-103540275D01*
X108242399Y-103540279D01*
X108237124Y-103551828D01*
X108234423Y-103557067D01*
X108201957Y-103613301D01*
X108201953Y-103613309D01*
X108132776Y-103780319D01*
X108122734Y-103802310D01*
X108122728Y-103802323D01*
X108098805Y-103854708D01*
X108086062Y-103913301D01*
X108085366Y-103916172D01*
X108040728Y-104082766D01*
X108034234Y-104104879D01*
X108034257Y-104104882D01*
X108033951Y-104107203D01*
X108033143Y-104109027D01*
X108033143Y-104111813D01*
X108033131Y-104111876D01*
X108032230Y-104111704D01*
X108028858Y-104123190D01*
X108027103Y-104122674D01*
X108026963Y-104122991D01*
X108021256Y-104202785D01*
X108020884Y-104206456D01*
X107999500Y-104368872D01*
X107999500Y-104369407D01*
X107999290Y-104372334D01*
X107999500Y-104373613D01*
X107999500Y-120497975D01*
X107999367Y-120502032D01*
X107994020Y-120583595D01*
X107982347Y-120746795D01*
X107981874Y-120751195D01*
X107975680Y-120794283D01*
X107975119Y-120797557D01*
X107956850Y-120889402D01*
X107927049Y-121026398D01*
X107925954Y-121030687D01*
X107919930Y-121051206D01*
X107883197Y-121159417D01*
X107833838Y-121291747D01*
X107831352Y-121297505D01*
X107774431Y-121412932D01*
X107707825Y-121534911D01*
X107704958Y-121539645D01*
X107633466Y-121646641D01*
X107631548Y-121649351D01*
X107549740Y-121758635D01*
X107546719Y-121762361D01*
X107461536Y-121859494D01*
X107458762Y-121862455D01*
X107362455Y-121958762D01*
X107359494Y-121961536D01*
X107262361Y-122046719D01*
X107258635Y-122049740D01*
X107149351Y-122131548D01*
X107146641Y-122133466D01*
X107039645Y-122204958D01*
X107034911Y-122207825D01*
X106912932Y-122274431D01*
X106797505Y-122331352D01*
X106791747Y-122333838D01*
X106659417Y-122383197D01*
X106551206Y-122419930D01*
X106530687Y-122425954D01*
X106526398Y-122427049D01*
X106389402Y-122456850D01*
X106297557Y-122475119D01*
X106294283Y-122475680D01*
X106251195Y-122481874D01*
X106246795Y-122482347D01*
X106083595Y-122494020D01*
X106019890Y-122498196D01*
X106002025Y-122499367D01*
X105997977Y-122499500D01*
X83002024Y-122499500D01*
X82997974Y-122499367D01*
X82970721Y-122497581D01*
X82916399Y-122494020D01*
X82753207Y-122482348D01*
X82748804Y-122481875D01*
X82705706Y-122475677D01*
X82702435Y-122475117D01*
X82610586Y-122456848D01*
X82525763Y-122438396D01*
X82473595Y-122427048D01*
X82469313Y-122425955D01*
X82459406Y-122423046D01*
X82448790Y-122419929D01*
X82340572Y-122383193D01*
X82288722Y-122363854D01*
X82208253Y-122333841D01*
X82202499Y-122331356D01*
X82087057Y-122274426D01*
X81965092Y-122207828D01*
X81960359Y-122204962D01*
X81853347Y-122133460D01*
X81850637Y-122131542D01*
X81843212Y-122125983D01*
X81741353Y-122049733D01*
X81737651Y-122046731D01*
X81640492Y-121961526D01*
X81637549Y-121958769D01*
X81541228Y-121862448D01*
X81538469Y-121859502D01*
X81505450Y-121821851D01*
X81453258Y-121762337D01*
X81450272Y-121758654D01*
X81368449Y-121649351D01*
X81366540Y-121646654D01*
X81295019Y-121539616D01*
X81292171Y-121534910D01*
X81225577Y-121412950D01*
X81168642Y-121297497D01*
X81166156Y-121291739D01*
X81116812Y-121159446D01*
X81080069Y-121051206D01*
X81080062Y-121051185D01*
X81074036Y-121030661D01*
X81072952Y-121026409D01*
X81043160Y-120889455D01*
X81024874Y-120797528D01*
X81024318Y-120794283D01*
X81020917Y-120770628D01*
X81018124Y-120751197D01*
X81017651Y-120746798D01*
X81005990Y-120583769D01*
X81003344Y-120543395D01*
X81000633Y-120502018D01*
X81000500Y-120497964D01*
X81000500Y-104373628D01*
X81000739Y-104372810D01*
X81000500Y-104369456D01*
X81000500Y-104368886D01*
X81000499Y-104368872D01*
X80997578Y-104346686D01*
X80979112Y-104206432D01*
X80978741Y-104202773D01*
X80973351Y-104127391D01*
X80971773Y-104123018D01*
X80971138Y-104123205D01*
X80968659Y-104114764D01*
X80967509Y-104115015D01*
X80967499Y-104114969D01*
X80967725Y-104111804D01*
X80966038Y-104107128D01*
X80965734Y-104104812D01*
X80965737Y-104104811D01*
X80959337Y-104083011D01*
X80914602Y-103916056D01*
X80913911Y-103913207D01*
X80901178Y-103854672D01*
X80878132Y-103804207D01*
X80878131Y-103804203D01*
X80876293Y-103800179D01*
X80867223Y-103780319D01*
X80800068Y-103618192D01*
X80798041Y-103613298D01*
X80798039Y-103613296D01*
X80795991Y-103609750D01*
X80765571Y-103557061D01*
X80762871Y-103551820D01*
X80757607Y-103540291D01*
X80757600Y-103540279D01*
X80757600Y-103540278D01*
X80741476Y-103515188D01*
X80739983Y-103512741D01*
X80666924Y-103386197D01*
X80617125Y-103321298D01*
X80614159Y-103317080D01*
X80603127Y-103299914D01*
X80603126Y-103299913D01*
X80583267Y-103276994D01*
X80580953Y-103274159D01*
X80507282Y-103178149D01*
X80436452Y-103107319D01*
X80433438Y-103104082D01*
X80416020Y-103083980D01*
X80408062Y-103077084D01*
X80395911Y-103066555D01*
X80392679Y-103063546D01*
X80321851Y-102992718D01*
X80317569Y-102989432D01*
X80225860Y-102919060D01*
X80223001Y-102916729D01*
X80200096Y-102896881D01*
X80200082Y-102896870D01*
X80192363Y-102891910D01*
X80182918Y-102885839D01*
X80178702Y-102882875D01*
X80113802Y-102833075D01*
X79987307Y-102760044D01*
X79984788Y-102758509D01*
X79959722Y-102742400D01*
X79959721Y-102742400D01*
X79959714Y-102742396D01*
X79948177Y-102737127D01*
X79942932Y-102734423D01*
X79886696Y-102701956D01*
X79886690Y-102701953D01*
X79719678Y-102632775D01*
X79697161Y-102622492D01*
X79697129Y-102622479D01*
X79645329Y-102598823D01*
X79586785Y-102586086D01*
X79583918Y-102585391D01*
X79417101Y-102540692D01*
X79395120Y-102534238D01*
X79395118Y-102534257D01*
X79392797Y-102533951D01*
X79391054Y-102533179D01*
X79388388Y-102533181D01*
X79388335Y-102533171D01*
X79388500Y-102532295D01*
X79376803Y-102528861D01*
X79377319Y-102527100D01*
X79377011Y-102526964D01*
X79297220Y-102521257D01*
X79293557Y-102520885D01*
X79256912Y-102516061D01*
X79131127Y-102499500D01*
X79131120Y-102499500D01*
X79130567Y-102499500D01*
X79127655Y-102499291D01*
X79126382Y-102499500D01*
X55502024Y-102499500D01*
X55497974Y-102499367D01*
X55470721Y-102497581D01*
X55416399Y-102494020D01*
X55253207Y-102482348D01*
X55248804Y-102481875D01*
X55205706Y-102475677D01*
X55202435Y-102475117D01*
X55110586Y-102456848D01*
X55025763Y-102438396D01*
X54973595Y-102427048D01*
X54969313Y-102425955D01*
X54959406Y-102423046D01*
X54948790Y-102419929D01*
X54840572Y-102383193D01*
X54788722Y-102363854D01*
X54708253Y-102333841D01*
X54702499Y-102331356D01*
X54587057Y-102274426D01*
X54465092Y-102207828D01*
X54460359Y-102204962D01*
X54353347Y-102133460D01*
X54350637Y-102131542D01*
X54279340Y-102078170D01*
X54241353Y-102049733D01*
X54237651Y-102046731D01*
X54140492Y-101961526D01*
X54137549Y-101958769D01*
X54041228Y-101862448D01*
X54038469Y-101859502D01*
X53995707Y-101810741D01*
X53953258Y-101762337D01*
X53950272Y-101758654D01*
X53868449Y-101649351D01*
X53866540Y-101646654D01*
X53795019Y-101539616D01*
X53792171Y-101534910D01*
X53725577Y-101412950D01*
X53668642Y-101297497D01*
X53666156Y-101291739D01*
X53616812Y-101159446D01*
X53608008Y-101133511D01*
X53580062Y-101051185D01*
X53574036Y-101030661D01*
X53572952Y-101026409D01*
X53543160Y-100889455D01*
X53527493Y-100810692D01*
X53524871Y-100797513D01*
X53524318Y-100794283D01*
X53520917Y-100770628D01*
X53518124Y-100751197D01*
X53517651Y-100746798D01*
X53506007Y-100584001D01*
X65750532Y-100584001D01*
X65770364Y-100810686D01*
X65770366Y-100810697D01*
X65829258Y-101030488D01*
X65829261Y-101030497D01*
X65925431Y-101236732D01*
X65925432Y-101236734D01*
X66055954Y-101423141D01*
X66216858Y-101584045D01*
X66216861Y-101584047D01*
X66403266Y-101714568D01*
X66609504Y-101810739D01*
X66829308Y-101869635D01*
X66991230Y-101883801D01*
X67055998Y-101889468D01*
X67056000Y-101889468D01*
X67056002Y-101889468D01*
X67112672Y-101884509D01*
X67282692Y-101869635D01*
X67502496Y-101810739D01*
X67708734Y-101714568D01*
X67895139Y-101584047D01*
X68056047Y-101423139D01*
X68186568Y-101236734D01*
X68282739Y-101030496D01*
X68341635Y-100810692D01*
X68361468Y-100584000D01*
X68361437Y-100583650D01*
X68349695Y-100449431D01*
X68341635Y-100357308D01*
X68282739Y-100137504D01*
X68186568Y-99931266D01*
X68056047Y-99744861D01*
X68056045Y-99744858D01*
X67895141Y-99583954D01*
X67708734Y-99453432D01*
X67708732Y-99453431D01*
X67502497Y-99357261D01*
X67502488Y-99357258D01*
X67282697Y-99298366D01*
X67282693Y-99298365D01*
X67282692Y-99298365D01*
X67282691Y-99298364D01*
X67282686Y-99298364D01*
X67056002Y-99278532D01*
X67055998Y-99278532D01*
X66829313Y-99298364D01*
X66829302Y-99298366D01*
X66609511Y-99357258D01*
X66609502Y-99357261D01*
X66403267Y-99453431D01*
X66403265Y-99453432D01*
X66216858Y-99583954D01*
X66055954Y-99744858D01*
X65925432Y-99931265D01*
X65925431Y-99931267D01*
X65829261Y-100137502D01*
X65829258Y-100137511D01*
X65770366Y-100357302D01*
X65770364Y-100357313D01*
X65750532Y-100583998D01*
X65750532Y-100584001D01*
X53506007Y-100584001D01*
X53505990Y-100583769D01*
X53503344Y-100543395D01*
X53500633Y-100502018D01*
X53500500Y-100497964D01*
X53500500Y-96203000D01*
X55880000Y-96203000D01*
X56657390Y-96203000D01*
X56724429Y-96222685D01*
X56770184Y-96275489D01*
X56780128Y-96344647D01*
X56776367Y-96361933D01*
X56755000Y-96434705D01*
X56755000Y-96571295D01*
X56775150Y-96639922D01*
X56776367Y-96644065D01*
X56776367Y-96713935D01*
X56738593Y-96772713D01*
X56675037Y-96801738D01*
X56657390Y-96803000D01*
X55880001Y-96803000D01*
X55880001Y-97277986D01*
X55890494Y-97380697D01*
X55945641Y-97547119D01*
X55945643Y-97547124D01*
X56037684Y-97696345D01*
X56161654Y-97820315D01*
X56310875Y-97912356D01*
X56310880Y-97912358D01*
X56477302Y-97967505D01*
X56477309Y-97967506D01*
X56580019Y-97977999D01*
X56929999Y-97977999D01*
X56930000Y-97977998D01*
X56930000Y-97080701D01*
X56949685Y-97013662D01*
X57002489Y-96967907D01*
X57071647Y-96957963D01*
X57088936Y-96961724D01*
X57094800Y-96963446D01*
X57094801Y-96963446D01*
X57196025Y-96978000D01*
X57196026Y-96978000D01*
X57263974Y-96978000D01*
X57263975Y-96978000D01*
X57365199Y-96963446D01*
X57365200Y-96963445D01*
X57371064Y-96961724D01*
X57440934Y-96961724D01*
X57499712Y-96999498D01*
X57528738Y-97063053D01*
X57530000Y-97080701D01*
X57530000Y-97977999D01*
X57879972Y-97977999D01*
X57879986Y-97977998D01*
X57982697Y-97967505D01*
X58149119Y-97912358D01*
X58149124Y-97912356D01*
X58298345Y-97820315D01*
X58422315Y-97696345D01*
X58517815Y-97541516D01*
X58569763Y-97494792D01*
X58638726Y-97483569D01*
X58702808Y-97511413D01*
X58711034Y-97518930D01*
X58858599Y-97666495D01*
X58858602Y-97666497D01*
X58858603Y-97666498D01*
X59052165Y-97802032D01*
X59052167Y-97802033D01*
X59052170Y-97802035D01*
X59266337Y-97901903D01*
X59266343Y-97901904D01*
X59266344Y-97901905D01*
X59305356Y-97912358D01*
X59494592Y-97963063D01*
X59682918Y-97979539D01*
X59729999Y-97983659D01*
X59730000Y-97983659D01*
X59730001Y-97983659D01*
X59769234Y-97980226D01*
X59965408Y-97963063D01*
X60193663Y-97901903D01*
X60407829Y-97802035D01*
X60601401Y-97666495D01*
X60768495Y-97499401D01*
X60878426Y-97342401D01*
X60933001Y-97298778D01*
X61002500Y-97291584D01*
X61064855Y-97323106D01*
X61081571Y-97342398D01*
X61137797Y-97422697D01*
X61191506Y-97499403D01*
X61275620Y-97583516D01*
X61358599Y-97666495D01*
X61455384Y-97734264D01*
X61552165Y-97802032D01*
X61552167Y-97802033D01*
X61552170Y-97802035D01*
X61766337Y-97901903D01*
X61766343Y-97901904D01*
X61766344Y-97901905D01*
X61805356Y-97912358D01*
X61994592Y-97963063D01*
X62182918Y-97979539D01*
X62229999Y-97983659D01*
X62230000Y-97983659D01*
X62230001Y-97983659D01*
X62269234Y-97980226D01*
X62465408Y-97963063D01*
X62693663Y-97901903D01*
X62907829Y-97802035D01*
X63101401Y-97666495D01*
X63268495Y-97499401D01*
X63404035Y-97305829D01*
X63503903Y-97091663D01*
X63565063Y-96863408D01*
X63580500Y-96686966D01*
X63580500Y-96319034D01*
X63565063Y-96142592D01*
X63509797Y-95936335D01*
X63503905Y-95914344D01*
X63503904Y-95914343D01*
X63503903Y-95914337D01*
X63404035Y-95700171D01*
X63403916Y-95700000D01*
X63268494Y-95506597D01*
X63101402Y-95339506D01*
X63101395Y-95339501D01*
X62907834Y-95203967D01*
X62907830Y-95203965D01*
X62833484Y-95169297D01*
X62693663Y-95104097D01*
X62693659Y-95104096D01*
X62693655Y-95104094D01*
X62465413Y-95042938D01*
X62465403Y-95042936D01*
X62230001Y-95022341D01*
X62229999Y-95022341D01*
X61994596Y-95042936D01*
X61994586Y-95042938D01*
X61766344Y-95104094D01*
X61766335Y-95104098D01*
X61552171Y-95203964D01*
X61552169Y-95203965D01*
X61358597Y-95339505D01*
X61191505Y-95506597D01*
X61081575Y-95663595D01*
X61026998Y-95707220D01*
X60957500Y-95714414D01*
X60895145Y-95682891D01*
X60878425Y-95663595D01*
X60768494Y-95506597D01*
X60601402Y-95339506D01*
X60601395Y-95339501D01*
X60407834Y-95203967D01*
X60407830Y-95203965D01*
X60333484Y-95169297D01*
X60193663Y-95104097D01*
X60193659Y-95104096D01*
X60193655Y-95104094D01*
X59965413Y-95042938D01*
X59965403Y-95042936D01*
X59730001Y-95022341D01*
X59729999Y-95022341D01*
X59494596Y-95042936D01*
X59494586Y-95042938D01*
X59266344Y-95104094D01*
X59266335Y-95104098D01*
X59052171Y-95203964D01*
X59052169Y-95203965D01*
X58858597Y-95339505D01*
X58711035Y-95487068D01*
X58649712Y-95520553D01*
X58580020Y-95515569D01*
X58524087Y-95473697D01*
X58517815Y-95464484D01*
X58422315Y-95309654D01*
X58298345Y-95185684D01*
X58149124Y-95093643D01*
X58149119Y-95093641D01*
X57982697Y-95038494D01*
X57982690Y-95038493D01*
X57879986Y-95028000D01*
X57530000Y-95028000D01*
X57530000Y-95925298D01*
X57510315Y-95992337D01*
X57457511Y-96038092D01*
X57388353Y-96048036D01*
X57371072Y-96044277D01*
X57365204Y-96042554D01*
X57269323Y-96028769D01*
X57263975Y-96028000D01*
X57196025Y-96028000D01*
X57094795Y-96042554D01*
X57088928Y-96044277D01*
X57019058Y-96044273D01*
X56960282Y-96006495D01*
X56931261Y-95942938D01*
X56930000Y-95925298D01*
X56930000Y-95028000D01*
X56580028Y-95028000D01*
X56580012Y-95028001D01*
X56477302Y-95038494D01*
X56310880Y-95093641D01*
X56310875Y-95093643D01*
X56161654Y-95185684D01*
X56037684Y-95309654D01*
X55945643Y-95458875D01*
X55945641Y-95458880D01*
X55890494Y-95625302D01*
X55890493Y-95625309D01*
X55880000Y-95728013D01*
X55880000Y-96203000D01*
X53500500Y-96203000D01*
X53500500Y-92964001D01*
X65750532Y-92964001D01*
X65770364Y-93190686D01*
X65770366Y-93190697D01*
X65829258Y-93410488D01*
X65829261Y-93410497D01*
X65925431Y-93616732D01*
X65925432Y-93616734D01*
X66055954Y-93803141D01*
X66216858Y-93964045D01*
X66216861Y-93964047D01*
X66403266Y-94094568D01*
X66609504Y-94190739D01*
X66829308Y-94249635D01*
X66991230Y-94263801D01*
X67055998Y-94269468D01*
X67056000Y-94269468D01*
X67056002Y-94269468D01*
X67112673Y-94264509D01*
X67282692Y-94249635D01*
X67502496Y-94190739D01*
X67708734Y-94094568D01*
X67895139Y-93964047D01*
X68056047Y-93803139D01*
X68186568Y-93616734D01*
X68282739Y-93410496D01*
X68341635Y-93190692D01*
X68361468Y-92964000D01*
X68341635Y-92737308D01*
X68323318Y-92668948D01*
X68324981Y-92599103D01*
X68355410Y-92549179D01*
X69883788Y-91020801D01*
X69896042Y-91010986D01*
X69895859Y-91010764D01*
X69901866Y-91005792D01*
X69901877Y-91005786D01*
X69932775Y-90972882D01*
X69949227Y-90955364D01*
X69959671Y-90944918D01*
X69970120Y-90934471D01*
X69974379Y-90928978D01*
X69978152Y-90924561D01*
X70010062Y-90890582D01*
X70019715Y-90873020D01*
X70030389Y-90856770D01*
X70042673Y-90840936D01*
X70061180Y-90798167D01*
X70063749Y-90792924D01*
X70086196Y-90752093D01*
X70086197Y-90752092D01*
X70091177Y-90732691D01*
X70097478Y-90714288D01*
X70105438Y-90695896D01*
X70112730Y-90649849D01*
X70113911Y-90644152D01*
X70125500Y-90599019D01*
X70125500Y-90578982D01*
X70127027Y-90559582D01*
X70127122Y-90558983D01*
X70130160Y-90539804D01*
X70125775Y-90493415D01*
X70125500Y-90487577D01*
X70125500Y-89408002D01*
X73371034Y-89408002D01*
X73390858Y-89634599D01*
X73390860Y-89634610D01*
X73449730Y-89854317D01*
X73449734Y-89854326D01*
X73545865Y-90060481D01*
X73545868Y-90060485D01*
X73554812Y-90073260D01*
X73577138Y-90139467D01*
X73560125Y-90207234D01*
X73527549Y-90243645D01*
X73518456Y-90250452D01*
X73518451Y-90250457D01*
X73432206Y-90365664D01*
X73432202Y-90365671D01*
X73381908Y-90500517D01*
X73375501Y-90560116D01*
X73375501Y-90560123D01*
X73375500Y-90560135D01*
X73375500Y-92255870D01*
X73375501Y-92255876D01*
X73381908Y-92315483D01*
X73432202Y-92450328D01*
X73432206Y-92450335D01*
X73518452Y-92565544D01*
X73518455Y-92565547D01*
X73633664Y-92651793D01*
X73633671Y-92651797D01*
X73768517Y-92702091D01*
X73768516Y-92702091D01*
X73775444Y-92702835D01*
X73828127Y-92708500D01*
X75523872Y-92708499D01*
X75583483Y-92702091D01*
X75718331Y-92651796D01*
X75833546Y-92565546D01*
X75919796Y-92450331D01*
X75970091Y-92315483D01*
X75976500Y-92255873D01*
X75976499Y-90560128D01*
X75970091Y-90500517D01*
X75966587Y-90491123D01*
X75919797Y-90365671D01*
X75919793Y-90365664D01*
X75861134Y-90287307D01*
X75833546Y-90250454D01*
X75824449Y-90243644D01*
X75782581Y-90187710D01*
X75777599Y-90118018D01*
X75797191Y-90073253D01*
X75806134Y-90060481D01*
X75902265Y-89854326D01*
X75902269Y-89854317D01*
X75961139Y-89634610D01*
X75961141Y-89634599D01*
X75980966Y-89408002D01*
X75980966Y-89407997D01*
X75961141Y-89181400D01*
X75961139Y-89181389D01*
X75902269Y-88961682D01*
X75902265Y-88961673D01*
X75806134Y-88755518D01*
X75806133Y-88755516D01*
X75784146Y-88724116D01*
X75784145Y-88724115D01*
X75237286Y-89270975D01*
X75175963Y-89304460D01*
X75106271Y-89299476D01*
X75050338Y-89257604D01*
X75039122Y-89239591D01*
X75003641Y-89169955D01*
X75003638Y-89169952D01*
X75003636Y-89169949D01*
X74914050Y-89080363D01*
X74914047Y-89080361D01*
X74914045Y-89080359D01*
X74844408Y-89044877D01*
X74793613Y-88996903D01*
X74776818Y-88929082D01*
X74799356Y-88862947D01*
X74813023Y-88846712D01*
X75359883Y-88299851D01*
X75328485Y-88277867D01*
X75122326Y-88181734D01*
X75122317Y-88181730D01*
X74902610Y-88122860D01*
X74902599Y-88122858D01*
X74676002Y-88103034D01*
X74675998Y-88103034D01*
X74449400Y-88122858D01*
X74449389Y-88122860D01*
X74229682Y-88181730D01*
X74229673Y-88181734D01*
X74023514Y-88277867D01*
X73992115Y-88299851D01*
X74538976Y-88846712D01*
X74572461Y-88908035D01*
X74567477Y-88977727D01*
X74525605Y-89033660D01*
X74507591Y-89044877D01*
X74437956Y-89080358D01*
X74437949Y-89080363D01*
X74348363Y-89169949D01*
X74348358Y-89169956D01*
X74312877Y-89239591D01*
X74264903Y-89290386D01*
X74197081Y-89307181D01*
X74130947Y-89284643D01*
X74114712Y-89270976D01*
X73567851Y-88724115D01*
X73545867Y-88755514D01*
X73449734Y-88961673D01*
X73449730Y-88961682D01*
X73390860Y-89181389D01*
X73390858Y-89181400D01*
X73371034Y-89407997D01*
X73371034Y-89408002D01*
X70125500Y-89408002D01*
X70125500Y-86473463D01*
X70145185Y-86406424D01*
X70197989Y-86360669D01*
X70267147Y-86350725D01*
X70320621Y-86371887D01*
X70467266Y-86474568D01*
X70673504Y-86570739D01*
X70893308Y-86629635D01*
X71055230Y-86643801D01*
X71119998Y-86649468D01*
X71120000Y-86649468D01*
X71120002Y-86649468D01*
X71176807Y-86644498D01*
X71346692Y-86629635D01*
X71566496Y-86570739D01*
X71772734Y-86474568D01*
X71959139Y-86344047D01*
X72120047Y-86183139D01*
X72250568Y-85996734D01*
X72346739Y-85790496D01*
X72405635Y-85570692D01*
X72425468Y-85344000D01*
X72405635Y-85117308D01*
X72346739Y-84897504D01*
X72250568Y-84691266D01*
X72120047Y-84504861D01*
X72120045Y-84504858D01*
X71959141Y-84343954D01*
X71772734Y-84213432D01*
X71772732Y-84213431D01*
X71761275Y-84208088D01*
X71714132Y-84186105D01*
X71661694Y-84139934D01*
X71642542Y-84072740D01*
X71662758Y-84005859D01*
X71714134Y-83961341D01*
X71772484Y-83934132D01*
X71958820Y-83803657D01*
X72119657Y-83642820D01*
X72250134Y-83456482D01*
X72346265Y-83250326D01*
X72346268Y-83250320D01*
X72385475Y-83104000D01*
X71618423Y-83104000D01*
X71551384Y-83084315D01*
X71505629Y-83031511D01*
X71495685Y-82962353D01*
X71503165Y-82938755D01*
X71502150Y-82938426D01*
X71505163Y-82929151D01*
X71505165Y-82929148D01*
X71514623Y-82869431D01*
X71524986Y-82804003D01*
X71524986Y-82803996D01*
X71505166Y-82678856D01*
X71502150Y-82669574D01*
X71504997Y-82668648D01*
X71495043Y-82615611D01*
X71521328Y-82550874D01*
X71578439Y-82510623D01*
X71618423Y-82504000D01*
X72424048Y-82504000D01*
X72491087Y-82523685D01*
X72511729Y-82540319D01*
X81562182Y-91590772D01*
X81594276Y-91646360D01*
X81653258Y-91866488D01*
X81653261Y-91866497D01*
X81749431Y-92072732D01*
X81749432Y-92072734D01*
X81879954Y-92259141D01*
X82040858Y-92420045D01*
X82040861Y-92420047D01*
X82227266Y-92550568D01*
X82277591Y-92574035D01*
X82285275Y-92577618D01*
X82337714Y-92623791D01*
X82356866Y-92690984D01*
X82336650Y-92757865D01*
X82285275Y-92802382D01*
X82227267Y-92829431D01*
X82227265Y-92829432D01*
X82040858Y-92959954D01*
X81879954Y-93120858D01*
X81767387Y-93281623D01*
X81712811Y-93325248D01*
X81665812Y-93334500D01*
X78334743Y-93334500D01*
X78319122Y-93332775D01*
X78319095Y-93333061D01*
X78311333Y-93332326D01*
X78242172Y-93334500D01*
X78212649Y-93334500D01*
X78205778Y-93335367D01*
X78199959Y-93335825D01*
X78153374Y-93337289D01*
X78153368Y-93337290D01*
X78134126Y-93342880D01*
X78115087Y-93346823D01*
X78095217Y-93349334D01*
X78095203Y-93349337D01*
X78051883Y-93366488D01*
X78046358Y-93368380D01*
X78001613Y-93381380D01*
X78001610Y-93381381D01*
X77984366Y-93391579D01*
X77966905Y-93400133D01*
X77948274Y-93407510D01*
X77948262Y-93407517D01*
X77910570Y-93434902D01*
X77905687Y-93438109D01*
X77865580Y-93461829D01*
X77851414Y-93475995D01*
X77836624Y-93488627D01*
X77820414Y-93500404D01*
X77820411Y-93500407D01*
X77790710Y-93536309D01*
X77786777Y-93540631D01*
X76265947Y-95061460D01*
X76204624Y-95094945D01*
X76146173Y-95093554D01*
X75927413Y-95034938D01*
X75927403Y-95034936D01*
X75692001Y-95014341D01*
X75691999Y-95014341D01*
X75456596Y-95034936D01*
X75456586Y-95034938D01*
X75228344Y-95096094D01*
X75228335Y-95096098D01*
X75014171Y-95195964D01*
X75014169Y-95195965D01*
X74820597Y-95331505D01*
X74673035Y-95479068D01*
X74611712Y-95512553D01*
X74542020Y-95507569D01*
X74486087Y-95465697D01*
X74479815Y-95456484D01*
X74384315Y-95301654D01*
X74260345Y-95177684D01*
X74111124Y-95085643D01*
X74111119Y-95085641D01*
X73944697Y-95030494D01*
X73944690Y-95030493D01*
X73841986Y-95020000D01*
X73492000Y-95020000D01*
X73492000Y-95915975D01*
X73472315Y-95983014D01*
X73419511Y-96028769D01*
X73350353Y-96038713D01*
X73335608Y-96035505D01*
X73242519Y-96022121D01*
X73227763Y-96020000D01*
X73156237Y-96020000D01*
X73040906Y-96036582D01*
X73040671Y-96034953D01*
X72981059Y-96034950D01*
X72922283Y-95997173D01*
X72893261Y-95933615D01*
X72892000Y-95915975D01*
X72892000Y-95020000D01*
X72542028Y-95020000D01*
X72542012Y-95020001D01*
X72439302Y-95030494D01*
X72272880Y-95085641D01*
X72272875Y-95085643D01*
X72123654Y-95177684D01*
X71999684Y-95301654D01*
X71907643Y-95450875D01*
X71907641Y-95450880D01*
X71852494Y-95617302D01*
X71852493Y-95617309D01*
X71842000Y-95720013D01*
X71842000Y-96220000D01*
X72593334Y-96220000D01*
X72660373Y-96239685D01*
X72706128Y-96292489D01*
X72716072Y-96361647D01*
X72712311Y-96378934D01*
X72692000Y-96448107D01*
X72692000Y-96591892D01*
X72712311Y-96661066D01*
X72712311Y-96730936D01*
X72674536Y-96789714D01*
X72610980Y-96818738D01*
X72593334Y-96820000D01*
X71842001Y-96820000D01*
X71842001Y-97319986D01*
X71852494Y-97422697D01*
X71907641Y-97589119D01*
X71907643Y-97589124D01*
X71999684Y-97738345D01*
X72123654Y-97862315D01*
X72272875Y-97954356D01*
X72272880Y-97954358D01*
X72439302Y-98009505D01*
X72439309Y-98009506D01*
X72542019Y-98019999D01*
X72891999Y-98019999D01*
X72892000Y-98019998D01*
X72892000Y-97124024D01*
X72911685Y-97056985D01*
X72964489Y-97011230D01*
X73033647Y-97001286D01*
X73048396Y-97004494D01*
X73049682Y-97004679D01*
X73049685Y-97004680D01*
X73156237Y-97020000D01*
X73156238Y-97020000D01*
X73227762Y-97020000D01*
X73227763Y-97020000D01*
X73323037Y-97006301D01*
X73343094Y-97003418D01*
X73343328Y-97005048D01*
X73402926Y-97005044D01*
X73461707Y-97042815D01*
X73490737Y-97106368D01*
X73492000Y-97124024D01*
X73492000Y-98019999D01*
X73841972Y-98019999D01*
X73841986Y-98019998D01*
X73944697Y-98009505D01*
X74111119Y-97954358D01*
X74111124Y-97954356D01*
X74260345Y-97862315D01*
X74384315Y-97738345D01*
X74479815Y-97583516D01*
X74531763Y-97536792D01*
X74600726Y-97525569D01*
X74664808Y-97553413D01*
X74673034Y-97560930D01*
X74820599Y-97708495D01*
X74820602Y-97708497D01*
X74820603Y-97708498D01*
X75014165Y-97844032D01*
X75014167Y-97844033D01*
X75014170Y-97844035D01*
X75228337Y-97943903D01*
X75228343Y-97943904D01*
X75228344Y-97943905D01*
X75267356Y-97954358D01*
X75456592Y-98005063D01*
X75644918Y-98021539D01*
X75691999Y-98025659D01*
X75692000Y-98025659D01*
X75692001Y-98025659D01*
X75731234Y-98022226D01*
X75927408Y-98005063D01*
X76155663Y-97943903D01*
X76369829Y-97844035D01*
X76563401Y-97708495D01*
X76730495Y-97541401D01*
X76866035Y-97347829D01*
X76965903Y-97133663D01*
X77027063Y-96905408D01*
X77042500Y-96728966D01*
X77042500Y-96311034D01*
X77027063Y-96134592D01*
X77027061Y-96134586D01*
X77026867Y-96132363D01*
X77040633Y-96063863D01*
X77062711Y-96033877D01*
X78474770Y-94621819D01*
X78536094Y-94588334D01*
X78562452Y-94585500D01*
X81665812Y-94585500D01*
X81732851Y-94605185D01*
X81767387Y-94638377D01*
X81879954Y-94799141D01*
X82040858Y-94960045D01*
X82040861Y-94960047D01*
X82227266Y-95090568D01*
X82285275Y-95117618D01*
X82337714Y-95163791D01*
X82356866Y-95230984D01*
X82336650Y-95297865D01*
X82285275Y-95342382D01*
X82227267Y-95369431D01*
X82227265Y-95369432D01*
X82040858Y-95499954D01*
X81879954Y-95660858D01*
X81749432Y-95847265D01*
X81749431Y-95847267D01*
X81653261Y-96053502D01*
X81653258Y-96053511D01*
X81594366Y-96273302D01*
X81594364Y-96273313D01*
X81574532Y-96499998D01*
X81574532Y-96500001D01*
X81594364Y-96726686D01*
X81594366Y-96726697D01*
X81653258Y-96946488D01*
X81653261Y-96946497D01*
X81749431Y-97152732D01*
X81749432Y-97152734D01*
X81879954Y-97339141D01*
X82040858Y-97500045D01*
X82087693Y-97532839D01*
X82227266Y-97630568D01*
X82285275Y-97657618D01*
X82337714Y-97703791D01*
X82356866Y-97770984D01*
X82336650Y-97837865D01*
X82285275Y-97882382D01*
X82227267Y-97909431D01*
X82227265Y-97909432D01*
X82040858Y-98039954D01*
X81879954Y-98200858D01*
X81749432Y-98387265D01*
X81749431Y-98387267D01*
X81653261Y-98593502D01*
X81653258Y-98593511D01*
X81594366Y-98813302D01*
X81594364Y-98813313D01*
X81574532Y-99039998D01*
X81574532Y-99040001D01*
X81594364Y-99266686D01*
X81594366Y-99266697D01*
X81653258Y-99486488D01*
X81653261Y-99486497D01*
X81749431Y-99692732D01*
X81749432Y-99692734D01*
X81879954Y-99879141D01*
X82040858Y-100040045D01*
X82040861Y-100040047D01*
X82227266Y-100170568D01*
X82285275Y-100197618D01*
X82337714Y-100243791D01*
X82356866Y-100310984D01*
X82336650Y-100377865D01*
X82285275Y-100422382D01*
X82227267Y-100449431D01*
X82227265Y-100449432D01*
X82040858Y-100579954D01*
X81879954Y-100740858D01*
X81749432Y-100927265D01*
X81749431Y-100927267D01*
X81653261Y-101133502D01*
X81653258Y-101133511D01*
X81594366Y-101353302D01*
X81594364Y-101353313D01*
X81574532Y-101579998D01*
X81574532Y-101580001D01*
X81594364Y-101806686D01*
X81594366Y-101806697D01*
X81653258Y-102026488D01*
X81653261Y-102026497D01*
X81749431Y-102232732D01*
X81749432Y-102232734D01*
X81879954Y-102419141D01*
X82040858Y-102580045D01*
X82040861Y-102580047D01*
X82227266Y-102710568D01*
X82285275Y-102737618D01*
X82337714Y-102783791D01*
X82356866Y-102850984D01*
X82336650Y-102917865D01*
X82285275Y-102962382D01*
X82227267Y-102989431D01*
X82227265Y-102989432D01*
X82040858Y-103119954D01*
X81879954Y-103280858D01*
X81749432Y-103467265D01*
X81749431Y-103467267D01*
X81653261Y-103673502D01*
X81653258Y-103673511D01*
X81594366Y-103893302D01*
X81594364Y-103893313D01*
X81574532Y-104119998D01*
X81574532Y-104120001D01*
X81594364Y-104346686D01*
X81594366Y-104346697D01*
X81653258Y-104566488D01*
X81653261Y-104566497D01*
X81749431Y-104772732D01*
X81749432Y-104772734D01*
X81879954Y-104959141D01*
X82040858Y-105120045D01*
X82087693Y-105152839D01*
X82227266Y-105250568D01*
X82285275Y-105277618D01*
X82337714Y-105323791D01*
X82356866Y-105390984D01*
X82336650Y-105457865D01*
X82285275Y-105502382D01*
X82227267Y-105529431D01*
X82227265Y-105529432D01*
X82040858Y-105659954D01*
X81879954Y-105820858D01*
X81749432Y-106007265D01*
X81749431Y-106007267D01*
X81653261Y-106213502D01*
X81653258Y-106213511D01*
X81594366Y-106433302D01*
X81594364Y-106433313D01*
X81574532Y-106659998D01*
X81574532Y-106660001D01*
X81594364Y-106886686D01*
X81594366Y-106886697D01*
X81653258Y-107106488D01*
X81653261Y-107106497D01*
X81749431Y-107312732D01*
X81749432Y-107312734D01*
X81879954Y-107499141D01*
X82040858Y-107660045D01*
X82040861Y-107660047D01*
X82227266Y-107790568D01*
X82285275Y-107817618D01*
X82337714Y-107863791D01*
X82356866Y-107930984D01*
X82336650Y-107997865D01*
X82285275Y-108042382D01*
X82227267Y-108069431D01*
X82227265Y-108069432D01*
X82040858Y-108199954D01*
X81879954Y-108360858D01*
X81749432Y-108547265D01*
X81749431Y-108547267D01*
X81653261Y-108753502D01*
X81653258Y-108753511D01*
X81594366Y-108973302D01*
X81594364Y-108973313D01*
X81574532Y-109199998D01*
X81574532Y-109200001D01*
X81594364Y-109426686D01*
X81594366Y-109426697D01*
X81653258Y-109646488D01*
X81653261Y-109646497D01*
X81749431Y-109852732D01*
X81749432Y-109852734D01*
X81879954Y-110039141D01*
X82040858Y-110200045D01*
X82040861Y-110200047D01*
X82227266Y-110330568D01*
X82433504Y-110426739D01*
X82653308Y-110485635D01*
X82815230Y-110499801D01*
X82879998Y-110505468D01*
X82880000Y-110505468D01*
X82880002Y-110505468D01*
X82936673Y-110500509D01*
X83106692Y-110485635D01*
X83326496Y-110426739D01*
X83532734Y-110330568D01*
X83719139Y-110200047D01*
X83880047Y-110039139D01*
X84010568Y-109852734D01*
X84106739Y-109646496D01*
X84165635Y-109426692D01*
X84185468Y-109200000D01*
X84165635Y-108973308D01*
X84106739Y-108753504D01*
X84010568Y-108547266D01*
X83880047Y-108360861D01*
X83880045Y-108360858D01*
X83719141Y-108199954D01*
X83532734Y-108069432D01*
X83532728Y-108069429D01*
X83474725Y-108042382D01*
X83422285Y-107996210D01*
X83403133Y-107929017D01*
X83423348Y-107862135D01*
X83474725Y-107817618D01*
X83532734Y-107790568D01*
X83719139Y-107660047D01*
X83880047Y-107499139D01*
X84010568Y-107312734D01*
X84106739Y-107106496D01*
X84165635Y-106886692D01*
X84185468Y-106660000D01*
X84165635Y-106433308D01*
X84106739Y-106213504D01*
X84010568Y-106007266D01*
X83880047Y-105820861D01*
X83880045Y-105820858D01*
X83719141Y-105659954D01*
X83532735Y-105529433D01*
X83532736Y-105529433D01*
X83532734Y-105529432D01*
X83474722Y-105502380D01*
X83422284Y-105456208D01*
X83403133Y-105389014D01*
X83423349Y-105322133D01*
X83474721Y-105277619D01*
X83532734Y-105250568D01*
X83719139Y-105120047D01*
X83880047Y-104959139D01*
X84010568Y-104772734D01*
X84106739Y-104566496D01*
X84165635Y-104346692D01*
X84185468Y-104120000D01*
X84184495Y-104108884D01*
X84179801Y-104055230D01*
X84165635Y-103893308D01*
X84106739Y-103673504D01*
X84010568Y-103467266D01*
X83905408Y-103317080D01*
X83880045Y-103280858D01*
X83719141Y-103119954D01*
X83532734Y-102989432D01*
X83532728Y-102989429D01*
X83474725Y-102962382D01*
X83422285Y-102916210D01*
X83403133Y-102849017D01*
X83423348Y-102782135D01*
X83474725Y-102737618D01*
X83532734Y-102710568D01*
X83719139Y-102580047D01*
X83880047Y-102419139D01*
X84010568Y-102232734D01*
X84106739Y-102026496D01*
X84165635Y-101806692D01*
X84185468Y-101580000D01*
X84165635Y-101353308D01*
X84106739Y-101133504D01*
X84010568Y-100927266D01*
X83880047Y-100740861D01*
X83880045Y-100740858D01*
X83719141Y-100579954D01*
X83532734Y-100449432D01*
X83532728Y-100449429D01*
X83474725Y-100422382D01*
X83422285Y-100376210D01*
X83403133Y-100309017D01*
X83423348Y-100242135D01*
X83474725Y-100197618D01*
X83532734Y-100170568D01*
X83719139Y-100040047D01*
X83880047Y-99879139D01*
X84010568Y-99692734D01*
X84106739Y-99486496D01*
X84165635Y-99266692D01*
X84185468Y-99040000D01*
X84184111Y-99024494D01*
X84179801Y-98975230D01*
X84165635Y-98813308D01*
X84106739Y-98593504D01*
X84010568Y-98387266D01*
X83880047Y-98200861D01*
X83880045Y-98200858D01*
X83719141Y-98039954D01*
X83532734Y-97909432D01*
X83532728Y-97909429D01*
X83474725Y-97882382D01*
X83422285Y-97836210D01*
X83403133Y-97769017D01*
X83423348Y-97702135D01*
X83474725Y-97657618D01*
X83532734Y-97630568D01*
X83719139Y-97500047D01*
X83880047Y-97339139D01*
X84010568Y-97152734D01*
X84106739Y-96946496D01*
X84165635Y-96726692D01*
X84185468Y-96500000D01*
X84182007Y-96460446D01*
X84173389Y-96361935D01*
X84165635Y-96273308D01*
X84106739Y-96053504D01*
X84010568Y-95847266D01*
X83880047Y-95660861D01*
X83880045Y-95660858D01*
X83719141Y-95499954D01*
X83532734Y-95369432D01*
X83532728Y-95369429D01*
X83474725Y-95342382D01*
X83422285Y-95296210D01*
X83403133Y-95229017D01*
X83423348Y-95162135D01*
X83474725Y-95117618D01*
X83532734Y-95090568D01*
X83719139Y-94960047D01*
X83880047Y-94799139D01*
X84010568Y-94612734D01*
X84106739Y-94406496D01*
X84165635Y-94186692D01*
X84185114Y-93964045D01*
X84185468Y-93960001D01*
X84185468Y-93959998D01*
X84173639Y-93824791D01*
X84165635Y-93733308D01*
X84106739Y-93513504D01*
X84010568Y-93307266D01*
X83880047Y-93120861D01*
X83880045Y-93120858D01*
X83719141Y-92959954D01*
X83532734Y-92829432D01*
X83532728Y-92829429D01*
X83474725Y-92802382D01*
X83422285Y-92756210D01*
X83403133Y-92689017D01*
X83423348Y-92622135D01*
X83474725Y-92577618D01*
X83482409Y-92574035D01*
X83532734Y-92550568D01*
X83719139Y-92420047D01*
X83880047Y-92259139D01*
X84010568Y-92072734D01*
X84106739Y-91866496D01*
X84165635Y-91646692D01*
X84185468Y-91420000D01*
X84165635Y-91193308D01*
X84114055Y-91000806D01*
X84106741Y-90973511D01*
X84106738Y-90973502D01*
X84089411Y-90936344D01*
X84010568Y-90767266D01*
X83880047Y-90580861D01*
X83880045Y-90580858D01*
X83719141Y-90419954D01*
X83532734Y-90289432D01*
X83532728Y-90289429D01*
X83486576Y-90267908D01*
X83474724Y-90262381D01*
X83422285Y-90216210D01*
X83403133Y-90149017D01*
X83423348Y-90082135D01*
X83474725Y-90037618D01*
X83532734Y-90010568D01*
X83719139Y-89880047D01*
X83880047Y-89719139D01*
X84010568Y-89532734D01*
X84106739Y-89326496D01*
X84165635Y-89106692D01*
X84185468Y-88880000D01*
X84165635Y-88653308D01*
X84106739Y-88433504D01*
X84010568Y-88227266D01*
X83880047Y-88040861D01*
X83880045Y-88040858D01*
X83719141Y-87879954D01*
X83532734Y-87749432D01*
X83532728Y-87749429D01*
X83505038Y-87736517D01*
X83474724Y-87722381D01*
X83422285Y-87676210D01*
X83403133Y-87609017D01*
X83423348Y-87542135D01*
X83474725Y-87497618D01*
X83532734Y-87470568D01*
X83719139Y-87340047D01*
X83880047Y-87179139D01*
X84010568Y-86992734D01*
X84106739Y-86786496D01*
X84165635Y-86566692D01*
X84184549Y-86350500D01*
X84185468Y-86340001D01*
X84185468Y-86339998D01*
X84177577Y-86249802D01*
X84165635Y-86113308D01*
X84106739Y-85893504D01*
X84010568Y-85687266D01*
X83880047Y-85500861D01*
X83880045Y-85500858D01*
X83719141Y-85339954D01*
X83557451Y-85226739D01*
X83532734Y-85209432D01*
X83474722Y-85182380D01*
X83422284Y-85136208D01*
X83403133Y-85069014D01*
X83423349Y-85002133D01*
X83474721Y-84957619D01*
X83532734Y-84930568D01*
X83719139Y-84800047D01*
X83880047Y-84639139D01*
X84010568Y-84452734D01*
X84106739Y-84246496D01*
X84165635Y-84026692D01*
X84170534Y-83970694D01*
X84195986Y-83905626D01*
X84252577Y-83864647D01*
X84322339Y-83860769D01*
X84381743Y-83893821D01*
X84663181Y-84175259D01*
X84696666Y-84236582D01*
X84699500Y-84262940D01*
X84699500Y-114575500D01*
X84679815Y-114642539D01*
X84627011Y-114688294D01*
X84575500Y-114699500D01*
X84152129Y-114699500D01*
X84152123Y-114699501D01*
X84092516Y-114705908D01*
X83957671Y-114756202D01*
X83957664Y-114756206D01*
X83842455Y-114842452D01*
X83842452Y-114842455D01*
X83756206Y-114957664D01*
X83756202Y-114957671D01*
X83705908Y-115092517D01*
X83699501Y-115152116D01*
X83699501Y-115152123D01*
X83699500Y-115152135D01*
X83699500Y-117847870D01*
X83699501Y-117847876D01*
X83705908Y-117907483D01*
X83756202Y-118042328D01*
X83756206Y-118042335D01*
X83842452Y-118157544D01*
X83842455Y-118157547D01*
X83957664Y-118243793D01*
X83957671Y-118243797D01*
X84092517Y-118294091D01*
X84092516Y-118294091D01*
X84099444Y-118294835D01*
X84152127Y-118300500D01*
X86847872Y-118300499D01*
X86907483Y-118294091D01*
X87042331Y-118243796D01*
X87157546Y-118157546D01*
X87243796Y-118042331D01*
X87294091Y-117907483D01*
X87300500Y-117847873D01*
X87300499Y-115152128D01*
X87294091Y-115092517D01*
X87292542Y-115088365D01*
X87243797Y-114957671D01*
X87243793Y-114957664D01*
X87157547Y-114842455D01*
X87157544Y-114842452D01*
X87042335Y-114756206D01*
X87042328Y-114756202D01*
X86907482Y-114705908D01*
X86907483Y-114705908D01*
X86847883Y-114699501D01*
X86847881Y-114699500D01*
X86847873Y-114699500D01*
X86847865Y-114699500D01*
X86424500Y-114699500D01*
X86357461Y-114679815D01*
X86311706Y-114627011D01*
X86300500Y-114575500D01*
X86300500Y-83789807D01*
X86300500Y-83789806D01*
X86291207Y-83749093D01*
X86290042Y-83742233D01*
X86285368Y-83700745D01*
X86282261Y-83691866D01*
X86271576Y-83661328D01*
X86269650Y-83654641D01*
X86260360Y-83613939D01*
X86242238Y-83576307D01*
X86239583Y-83569899D01*
X86226189Y-83531623D01*
X86222629Y-83461847D01*
X86257358Y-83401220D01*
X86319352Y-83368993D01*
X86388927Y-83375399D01*
X86430913Y-83402991D01*
X89663182Y-86635260D01*
X89696666Y-86696581D01*
X89699500Y-86722939D01*
X89699500Y-114809181D01*
X89679815Y-114876220D01*
X89629304Y-114920900D01*
X89597231Y-114936346D01*
X89597228Y-114936348D01*
X89597226Y-114936349D01*
X89513633Y-114993341D01*
X89374258Y-115088365D01*
X89176442Y-115271910D01*
X89008185Y-115482898D01*
X88873258Y-115716599D01*
X88873256Y-115716603D01*
X88774666Y-115967804D01*
X88774664Y-115967811D01*
X88714616Y-116230898D01*
X88694451Y-116499995D01*
X88694451Y-116500004D01*
X88714616Y-116769101D01*
X88774664Y-117032188D01*
X88774666Y-117032195D01*
X88861685Y-117253915D01*
X88873257Y-117283398D01*
X89008185Y-117517102D01*
X89144080Y-117687509D01*
X89176442Y-117728089D01*
X89363183Y-117901358D01*
X89374259Y-117911635D01*
X89597226Y-118063651D01*
X89840359Y-118180738D01*
X90098228Y-118260280D01*
X90098229Y-118260280D01*
X90098232Y-118260281D01*
X90365063Y-118300499D01*
X90365068Y-118300499D01*
X90365071Y-118300500D01*
X90365072Y-118300500D01*
X90634928Y-118300500D01*
X90634929Y-118300500D01*
X90634936Y-118300499D01*
X90901767Y-118260281D01*
X90901768Y-118260280D01*
X90901772Y-118260280D01*
X91159641Y-118180738D01*
X91402775Y-118063651D01*
X91625741Y-117911635D01*
X91694491Y-117847844D01*
X96700000Y-117847844D01*
X96706401Y-117907372D01*
X96706403Y-117907379D01*
X96756645Y-118042086D01*
X96756649Y-118042093D01*
X96842809Y-118157187D01*
X96842812Y-118157190D01*
X96957906Y-118243350D01*
X96957913Y-118243354D01*
X97092620Y-118293596D01*
X97092627Y-118293598D01*
X97152155Y-118299999D01*
X97152172Y-118300000D01*
X98200000Y-118300000D01*
X98200000Y-117253915D01*
X98219685Y-117186876D01*
X98272489Y-117141121D01*
X98341647Y-117131177D01*
X98354816Y-117133806D01*
X98417886Y-117150000D01*
X98417890Y-117150000D01*
X98540892Y-117150000D01*
X98540894Y-117150000D01*
X98540899Y-117149999D01*
X98540903Y-117149999D01*
X98572391Y-117146021D01*
X98660460Y-117134895D01*
X98729436Y-117146021D01*
X98781448Y-117192674D01*
X98800000Y-117257917D01*
X98800000Y-118300000D01*
X99847828Y-118300000D01*
X99847844Y-118299999D01*
X99907372Y-118293598D01*
X99907379Y-118293596D01*
X100042086Y-118243354D01*
X100042093Y-118243350D01*
X100157187Y-118157190D01*
X100157190Y-118157187D01*
X100243350Y-118042093D01*
X100243354Y-118042086D01*
X100293596Y-117907379D01*
X100293598Y-117907372D01*
X100299999Y-117847844D01*
X100300000Y-117847827D01*
X100300000Y-116800000D01*
X99254383Y-116800000D01*
X99187344Y-116780315D01*
X99141589Y-116727511D01*
X99131645Y-116658353D01*
X99132579Y-116652765D01*
X99135456Y-116637684D01*
X99153873Y-116541138D01*
X99151285Y-116500004D01*
X101694451Y-116500004D01*
X101714616Y-116769101D01*
X101774664Y-117032188D01*
X101774666Y-117032195D01*
X101861685Y-117253915D01*
X101873257Y-117283398D01*
X102008185Y-117517102D01*
X102144080Y-117687509D01*
X102176442Y-117728089D01*
X102363183Y-117901358D01*
X102374259Y-117911635D01*
X102597226Y-118063651D01*
X102840359Y-118180738D01*
X103098228Y-118260280D01*
X103098229Y-118260280D01*
X103098232Y-118260281D01*
X103365063Y-118300499D01*
X103365068Y-118300499D01*
X103365071Y-118300500D01*
X103365072Y-118300500D01*
X103634928Y-118300500D01*
X103634929Y-118300500D01*
X103634936Y-118300499D01*
X103901767Y-118260281D01*
X103901768Y-118260280D01*
X103901772Y-118260280D01*
X104159641Y-118180738D01*
X104402775Y-118063651D01*
X104625741Y-117911635D01*
X104823561Y-117728085D01*
X104991815Y-117517102D01*
X105126743Y-117283398D01*
X105225334Y-117032195D01*
X105285383Y-116769103D01*
X105305549Y-116500000D01*
X105302466Y-116458865D01*
X105285383Y-116230898D01*
X105237796Y-116022405D01*
X105225334Y-115967805D01*
X105126743Y-115716602D01*
X104991815Y-115482898D01*
X104823561Y-115271915D01*
X104823560Y-115271914D01*
X104823557Y-115271910D01*
X104625741Y-115088365D01*
X104402775Y-114936349D01*
X104402769Y-114936346D01*
X104402768Y-114936345D01*
X104402767Y-114936344D01*
X104159643Y-114819263D01*
X104159645Y-114819263D01*
X103901773Y-114739720D01*
X103901767Y-114739718D01*
X103634936Y-114699500D01*
X103634929Y-114699500D01*
X103365071Y-114699500D01*
X103365063Y-114699500D01*
X103098232Y-114739718D01*
X103098226Y-114739720D01*
X102840358Y-114819262D01*
X102597230Y-114936346D01*
X102374258Y-115088365D01*
X102176442Y-115271910D01*
X102008185Y-115482898D01*
X101873258Y-115716599D01*
X101873256Y-115716603D01*
X101774666Y-115967804D01*
X101774664Y-115967811D01*
X101714616Y-116230898D01*
X101694451Y-116499995D01*
X101694451Y-116500004D01*
X99151285Y-116500004D01*
X99143561Y-116377234D01*
X99138714Y-116362316D01*
X99136720Y-116292475D01*
X99172802Y-116232643D01*
X99235503Y-116201816D01*
X99256646Y-116200000D01*
X100300000Y-116200000D01*
X100300000Y-115152172D01*
X100299999Y-115152155D01*
X100293598Y-115092627D01*
X100293596Y-115092620D01*
X100243354Y-114957913D01*
X100243350Y-114957906D01*
X100157190Y-114842812D01*
X100157187Y-114842809D01*
X100042093Y-114756649D01*
X100042086Y-114756645D01*
X99907379Y-114706403D01*
X99907372Y-114706401D01*
X99847844Y-114700000D01*
X98800000Y-114700000D01*
X98800000Y-115746084D01*
X98780315Y-115813123D01*
X98727511Y-115858878D01*
X98658353Y-115868822D01*
X98645163Y-115866188D01*
X98582117Y-115850000D01*
X98582114Y-115850000D01*
X98459106Y-115850000D01*
X98459094Y-115850000D01*
X98339541Y-115865104D01*
X98270563Y-115853977D01*
X98218551Y-115807324D01*
X98200000Y-115742082D01*
X98200000Y-114700000D01*
X97152155Y-114700000D01*
X97092627Y-114706401D01*
X97092620Y-114706403D01*
X96957913Y-114756645D01*
X96957906Y-114756649D01*
X96842812Y-114842809D01*
X96842809Y-114842812D01*
X96756649Y-114957906D01*
X96756645Y-114957913D01*
X96706403Y-115092620D01*
X96706401Y-115092627D01*
X96700000Y-115152155D01*
X96700000Y-116200000D01*
X97745617Y-116200000D01*
X97812656Y-116219685D01*
X97858411Y-116272489D01*
X97868355Y-116341647D01*
X97867422Y-116347227D01*
X97846127Y-116458862D01*
X97846127Y-116458864D01*
X97846127Y-116458865D01*
X97856439Y-116622766D01*
X97861286Y-116637684D01*
X97863280Y-116707525D01*
X97827198Y-116767357D01*
X97764497Y-116798184D01*
X97743354Y-116800000D01*
X96700000Y-116800000D01*
X96700000Y-117847844D01*
X91694491Y-117847844D01*
X91823561Y-117728085D01*
X91991815Y-117517102D01*
X92126743Y-117283398D01*
X92225334Y-117032195D01*
X92285383Y-116769103D01*
X92305549Y-116500000D01*
X92302466Y-116458865D01*
X92285383Y-116230898D01*
X92237796Y-116022405D01*
X92225334Y-115967805D01*
X92126743Y-115716602D01*
X91991815Y-115482898D01*
X91823561Y-115271915D01*
X91823560Y-115271914D01*
X91823557Y-115271910D01*
X91625741Y-115088365D01*
X91625740Y-115088365D01*
X91402775Y-114936349D01*
X91402769Y-114936346D01*
X91402768Y-114936345D01*
X91402765Y-114936344D01*
X91370697Y-114920900D01*
X91318838Y-114874077D01*
X91300500Y-114809181D01*
X91300500Y-90480196D01*
X95869840Y-90480196D01*
X95870538Y-90487577D01*
X95874225Y-90526583D01*
X95874500Y-90532421D01*
X95874500Y-94138246D01*
X95872775Y-94153863D01*
X95873061Y-94153890D01*
X95872326Y-94161656D01*
X95874500Y-94230805D01*
X95874500Y-94260334D01*
X95874501Y-94260351D01*
X95875368Y-94267222D01*
X95875826Y-94273041D01*
X95877290Y-94319615D01*
X95877291Y-94319618D01*
X95882880Y-94338858D01*
X95886824Y-94357902D01*
X95889336Y-94377783D01*
X95905890Y-94419594D01*
X95906490Y-94421110D01*
X95908382Y-94426638D01*
X95921381Y-94471379D01*
X95931580Y-94488625D01*
X95940138Y-94506094D01*
X95947514Y-94524723D01*
X95974898Y-94562414D01*
X95978106Y-94567298D01*
X96001827Y-94607407D01*
X96001833Y-94607415D01*
X96015990Y-94621571D01*
X96028628Y-94636367D01*
X96040405Y-94652577D01*
X96040406Y-94652578D01*
X96076309Y-94682279D01*
X96080620Y-94686201D01*
X96556554Y-95162135D01*
X97019745Y-95625326D01*
X97053230Y-95686649D01*
X97048246Y-95756341D01*
X97033639Y-95784130D01*
X96989434Y-95847262D01*
X96893261Y-96053502D01*
X96893258Y-96053511D01*
X96834366Y-96273302D01*
X96834364Y-96273313D01*
X96814532Y-96499998D01*
X96814532Y-96500001D01*
X96834364Y-96726686D01*
X96834366Y-96726697D01*
X96893258Y-96946488D01*
X96893261Y-96946497D01*
X96989431Y-97152732D01*
X96989432Y-97152734D01*
X97119954Y-97339141D01*
X97280858Y-97500045D01*
X97327693Y-97532839D01*
X97467266Y-97630568D01*
X97525275Y-97657618D01*
X97577714Y-97703791D01*
X97596866Y-97770984D01*
X97576650Y-97837865D01*
X97525275Y-97882382D01*
X97467267Y-97909431D01*
X97467265Y-97909432D01*
X97280858Y-98039954D01*
X97119954Y-98200858D01*
X96989432Y-98387265D01*
X96989431Y-98387267D01*
X96893261Y-98593502D01*
X96893258Y-98593511D01*
X96834366Y-98813302D01*
X96834364Y-98813313D01*
X96814532Y-99039998D01*
X96814532Y-99040001D01*
X96834364Y-99266686D01*
X96834366Y-99266697D01*
X96893258Y-99486488D01*
X96893261Y-99486497D01*
X96989431Y-99692732D01*
X96989432Y-99692734D01*
X97119954Y-99879141D01*
X97280858Y-100040045D01*
X97280861Y-100040047D01*
X97467266Y-100170568D01*
X97525278Y-100197619D01*
X97577713Y-100243788D01*
X97596866Y-100310982D01*
X97576651Y-100377863D01*
X97525277Y-100422380D01*
X97467268Y-100449430D01*
X97467265Y-100449432D01*
X97280858Y-100579954D01*
X97119954Y-100740858D01*
X96989432Y-100927265D01*
X96989431Y-100927267D01*
X96893261Y-101133502D01*
X96893258Y-101133511D01*
X96834366Y-101353302D01*
X96834364Y-101353313D01*
X96814532Y-101579998D01*
X96814532Y-101580001D01*
X96834364Y-101806686D01*
X96834366Y-101806697D01*
X96893258Y-102026488D01*
X96893261Y-102026497D01*
X96989431Y-102232732D01*
X96989432Y-102232734D01*
X97119954Y-102419141D01*
X97280858Y-102580045D01*
X97356167Y-102632776D01*
X97467266Y-102710568D01*
X97525278Y-102737619D01*
X97577713Y-102783788D01*
X97596866Y-102850982D01*
X97576651Y-102917863D01*
X97525277Y-102962380D01*
X97467268Y-102989430D01*
X97467265Y-102989432D01*
X97280858Y-103119954D01*
X97119954Y-103280858D01*
X96989432Y-103467265D01*
X96989431Y-103467267D01*
X96893261Y-103673502D01*
X96893258Y-103673511D01*
X96834366Y-103893302D01*
X96834364Y-103893313D01*
X96814532Y-104119998D01*
X96814532Y-104120001D01*
X96834364Y-104346686D01*
X96834366Y-104346697D01*
X96893258Y-104566488D01*
X96893261Y-104566497D01*
X96989431Y-104772732D01*
X96989432Y-104772734D01*
X97119954Y-104959141D01*
X97280858Y-105120045D01*
X97409106Y-105209844D01*
X97467266Y-105250568D01*
X97525278Y-105277619D01*
X97577713Y-105323788D01*
X97596866Y-105390982D01*
X97576651Y-105457863D01*
X97525277Y-105502380D01*
X97467268Y-105529430D01*
X97467265Y-105529432D01*
X97280858Y-105659954D01*
X97119954Y-105820858D01*
X96989432Y-106007265D01*
X96989431Y-106007267D01*
X96893261Y-106213502D01*
X96893258Y-106213511D01*
X96834366Y-106433302D01*
X96834364Y-106433313D01*
X96814532Y-106659998D01*
X96814532Y-106660001D01*
X96834364Y-106886686D01*
X96834366Y-106886697D01*
X96893258Y-107106488D01*
X96893261Y-107106497D01*
X96989431Y-107312732D01*
X96989432Y-107312734D01*
X97119954Y-107499141D01*
X97280858Y-107660045D01*
X97280861Y-107660047D01*
X97467266Y-107790568D01*
X97525275Y-107817618D01*
X97577714Y-107863791D01*
X97596866Y-107930984D01*
X97576650Y-107997865D01*
X97525275Y-108042382D01*
X97467267Y-108069431D01*
X97467265Y-108069432D01*
X97280858Y-108199954D01*
X97119954Y-108360858D01*
X96989432Y-108547265D01*
X96989431Y-108547267D01*
X96893261Y-108753502D01*
X96893258Y-108753511D01*
X96834366Y-108973302D01*
X96834364Y-108973313D01*
X96814532Y-109199998D01*
X96814532Y-109200001D01*
X96834364Y-109426686D01*
X96834366Y-109426697D01*
X96893258Y-109646488D01*
X96893261Y-109646497D01*
X96989431Y-109852732D01*
X96989432Y-109852734D01*
X97119954Y-110039141D01*
X97280858Y-110200045D01*
X97280861Y-110200047D01*
X97467266Y-110330568D01*
X97673504Y-110426739D01*
X97893308Y-110485635D01*
X98055230Y-110499801D01*
X98119998Y-110505468D01*
X98120000Y-110505468D01*
X98120002Y-110505468D01*
X98176672Y-110500509D01*
X98346692Y-110485635D01*
X98566496Y-110426739D01*
X98772734Y-110330568D01*
X98959139Y-110200047D01*
X99120047Y-110039139D01*
X99250568Y-109852734D01*
X99346739Y-109646496D01*
X99405635Y-109426692D01*
X99425468Y-109200000D01*
X99405635Y-108973308D01*
X99346739Y-108753504D01*
X99250568Y-108547266D01*
X99120047Y-108360861D01*
X99120045Y-108360858D01*
X98959141Y-108199954D01*
X98772734Y-108069432D01*
X98772728Y-108069429D01*
X98714725Y-108042382D01*
X98662285Y-107996210D01*
X98643133Y-107929017D01*
X98663348Y-107862135D01*
X98714725Y-107817618D01*
X98772734Y-107790568D01*
X98959139Y-107660047D01*
X99120047Y-107499139D01*
X99198681Y-107386836D01*
X99232613Y-107338377D01*
X99287189Y-107294752D01*
X99334188Y-107285500D01*
X102009785Y-107285500D01*
X102076824Y-107305185D01*
X102122579Y-107357989D01*
X102133313Y-107420307D01*
X102126341Y-107499997D01*
X102126341Y-107500000D01*
X102146936Y-107735403D01*
X102146938Y-107735413D01*
X102208094Y-107963655D01*
X102208096Y-107963659D01*
X102208097Y-107963663D01*
X102212573Y-107973261D01*
X102307964Y-108177828D01*
X102307965Y-108177830D01*
X102443505Y-108371402D01*
X102610597Y-108538494D01*
X102804169Y-108674034D01*
X102804171Y-108674035D01*
X103018337Y-108773903D01*
X103246592Y-108835063D01*
X103423034Y-108850500D01*
X103840966Y-108850500D01*
X104017408Y-108835063D01*
X104245663Y-108773903D01*
X104459829Y-108674035D01*
X104653401Y-108538495D01*
X104820495Y-108371401D01*
X104956035Y-108177830D01*
X105055903Y-107963663D01*
X105117063Y-107735408D01*
X105137659Y-107500000D01*
X105117063Y-107264592D01*
X105055903Y-107036337D01*
X104956035Y-106822171D01*
X104842483Y-106660000D01*
X104820494Y-106628597D01*
X104672932Y-106481035D01*
X104639447Y-106419712D01*
X104644431Y-106350020D01*
X104686303Y-106294087D01*
X104695516Y-106287815D01*
X104850345Y-106192315D01*
X104974315Y-106068345D01*
X105066356Y-105919124D01*
X105066358Y-105919119D01*
X105121505Y-105752697D01*
X105121506Y-105752690D01*
X105131999Y-105649986D01*
X105132000Y-105649973D01*
X105132000Y-105300000D01*
X104230666Y-105300000D01*
X104163627Y-105280315D01*
X104117872Y-105227511D01*
X104107928Y-105158353D01*
X104111689Y-105141066D01*
X104131999Y-105071892D01*
X104132000Y-105071889D01*
X104132000Y-104928110D01*
X104131999Y-104928107D01*
X104111689Y-104858934D01*
X104111689Y-104789064D01*
X104149464Y-104730286D01*
X104213020Y-104701262D01*
X104230666Y-104700000D01*
X105131999Y-104700000D01*
X105131999Y-104350028D01*
X105131998Y-104350013D01*
X105121505Y-104247302D01*
X105066358Y-104080880D01*
X105066356Y-104080875D01*
X104974315Y-103931654D01*
X104850345Y-103807684D01*
X104701124Y-103715643D01*
X104701119Y-103715641D01*
X104534697Y-103660494D01*
X104534690Y-103660493D01*
X104431986Y-103650000D01*
X103932000Y-103650000D01*
X103932000Y-104395975D01*
X103912315Y-104463014D01*
X103859511Y-104508769D01*
X103790353Y-104518713D01*
X103775608Y-104515505D01*
X103682519Y-104502121D01*
X103667763Y-104500000D01*
X103596237Y-104500000D01*
X103480906Y-104516582D01*
X103480671Y-104514953D01*
X103421059Y-104514950D01*
X103362283Y-104477173D01*
X103333261Y-104413615D01*
X103332000Y-104395975D01*
X103332000Y-103650000D01*
X103233950Y-103650000D01*
X103166911Y-103630315D01*
X103121156Y-103577511D01*
X103111212Y-103508353D01*
X103140237Y-103444797D01*
X103146255Y-103438333D01*
X107101768Y-99482820D01*
X107163089Y-99449337D01*
X107221540Y-99450728D01*
X107282886Y-99467165D01*
X107420592Y-99504063D01*
X107608918Y-99520539D01*
X107655999Y-99524659D01*
X107656000Y-99524659D01*
X107656001Y-99524659D01*
X107695234Y-99521226D01*
X107891408Y-99504063D01*
X108119663Y-99442903D01*
X108333829Y-99343035D01*
X108527401Y-99207495D01*
X108694495Y-99040401D01*
X108830035Y-98846829D01*
X108929903Y-98632663D01*
X108991063Y-98404408D01*
X109006500Y-98227966D01*
X109006500Y-97860034D01*
X108991063Y-97683592D01*
X108929903Y-97455337D01*
X108830035Y-97241171D01*
X108815010Y-97219712D01*
X108694494Y-97047597D01*
X108527402Y-96880506D01*
X108527396Y-96880501D01*
X108485371Y-96851075D01*
X108441746Y-96796498D01*
X108434552Y-96727000D01*
X108466075Y-96664645D01*
X108526305Y-96629231D01*
X108556494Y-96625500D01*
X112089548Y-96625500D01*
X112156587Y-96645185D01*
X112177229Y-96661819D01*
X113241460Y-97726051D01*
X113274945Y-97787374D01*
X113273554Y-97845825D01*
X113214938Y-98064586D01*
X113214936Y-98064596D01*
X113194341Y-98299999D01*
X113194341Y-98300000D01*
X113214936Y-98535403D01*
X113214938Y-98535413D01*
X113276094Y-98763655D01*
X113276096Y-98763659D01*
X113276097Y-98763663D01*
X113314878Y-98846828D01*
X113375964Y-98977828D01*
X113375965Y-98977830D01*
X113511505Y-99171402D01*
X113678597Y-99338494D01*
X113872169Y-99474034D01*
X113872171Y-99474035D01*
X114086337Y-99573903D01*
X114086343Y-99573904D01*
X114086344Y-99573905D01*
X114123848Y-99583954D01*
X114314592Y-99635063D01*
X114491034Y-99650500D01*
X114908966Y-99650500D01*
X115085408Y-99635063D01*
X115313663Y-99573903D01*
X115527829Y-99474035D01*
X115721401Y-99338495D01*
X115888495Y-99171401D01*
X116024035Y-98977830D01*
X116123903Y-98763663D01*
X116185063Y-98535408D01*
X116205659Y-98300000D01*
X116185063Y-98064592D01*
X116125965Y-97844032D01*
X116123905Y-97836344D01*
X116123904Y-97836343D01*
X116123903Y-97836337D01*
X116024035Y-97622171D01*
X116000896Y-97589124D01*
X115888494Y-97428597D01*
X115740932Y-97281035D01*
X115707447Y-97219712D01*
X115712431Y-97150020D01*
X115754303Y-97094087D01*
X115763516Y-97087815D01*
X115918345Y-96992315D01*
X116042315Y-96868345D01*
X116134356Y-96719124D01*
X116134358Y-96719119D01*
X116189505Y-96552697D01*
X116189506Y-96552690D01*
X116199999Y-96449986D01*
X116200000Y-96449973D01*
X116200000Y-96100000D01*
X115298666Y-96100000D01*
X115231627Y-96080315D01*
X115185872Y-96027511D01*
X115175928Y-95958353D01*
X115179689Y-95941066D01*
X115199999Y-95871892D01*
X115200000Y-95871889D01*
X115200000Y-95728110D01*
X115199999Y-95728107D01*
X115191746Y-95700000D01*
X119150000Y-95700000D01*
X119927390Y-95700000D01*
X119994429Y-95719685D01*
X120040184Y-95772489D01*
X120050128Y-95841647D01*
X120046367Y-95858935D01*
X120025000Y-95931704D01*
X120025000Y-96068295D01*
X120046367Y-96141065D01*
X120046367Y-96210935D01*
X120008593Y-96269713D01*
X119945037Y-96298738D01*
X119927390Y-96300000D01*
X119150001Y-96300000D01*
X119150001Y-96774986D01*
X119160494Y-96877697D01*
X119215641Y-97044119D01*
X119215643Y-97044124D01*
X119307684Y-97193345D01*
X119431654Y-97317315D01*
X119580875Y-97409356D01*
X119580880Y-97409358D01*
X119747302Y-97464505D01*
X119747309Y-97464506D01*
X119850019Y-97474999D01*
X120199999Y-97474999D01*
X120199999Y-96577700D01*
X120219683Y-96510661D01*
X120272487Y-96464906D01*
X120341646Y-96454962D01*
X120358940Y-96458725D01*
X120364800Y-96460446D01*
X120377524Y-96462275D01*
X120466025Y-96475000D01*
X120466026Y-96475000D01*
X120533974Y-96475000D01*
X120533975Y-96475000D01*
X120635199Y-96460446D01*
X120635200Y-96460445D01*
X120641064Y-96458724D01*
X120710934Y-96458724D01*
X120769712Y-96496498D01*
X120798738Y-96560053D01*
X120800000Y-96577701D01*
X120800000Y-97474999D01*
X121149972Y-97474999D01*
X121149986Y-97474998D01*
X121252697Y-97464505D01*
X121419119Y-97409358D01*
X121419124Y-97409356D01*
X121568345Y-97317315D01*
X121692315Y-97193345D01*
X121787815Y-97038516D01*
X121839763Y-96991792D01*
X121908726Y-96980569D01*
X121972808Y-97008413D01*
X121981034Y-97015930D01*
X122128599Y-97163495D01*
X122128602Y-97163497D01*
X122128603Y-97163498D01*
X122322165Y-97299032D01*
X122322167Y-97299033D01*
X122322170Y-97299035D01*
X122536337Y-97398903D01*
X122536343Y-97398904D01*
X122536344Y-97398905D01*
X122575356Y-97409358D01*
X122764592Y-97460063D01*
X122952918Y-97476539D01*
X122999999Y-97480659D01*
X123000000Y-97480659D01*
X123000001Y-97480659D01*
X123039234Y-97477226D01*
X123235408Y-97460063D01*
X123463663Y-97398903D01*
X123677829Y-97299035D01*
X123871401Y-97163495D01*
X124038495Y-96996401D01*
X124148426Y-96839401D01*
X124203001Y-96795778D01*
X124272500Y-96788584D01*
X124334855Y-96820106D01*
X124351571Y-96839398D01*
X124409511Y-96922145D01*
X124461506Y-96996403D01*
X124545805Y-97080701D01*
X124628599Y-97163495D01*
X124687919Y-97205031D01*
X124822165Y-97299032D01*
X124822167Y-97299033D01*
X124822170Y-97299035D01*
X125036337Y-97398903D01*
X125036343Y-97398904D01*
X125036344Y-97398905D01*
X125075356Y-97409358D01*
X125264592Y-97460063D01*
X125452918Y-97476539D01*
X125499999Y-97480659D01*
X125500000Y-97480659D01*
X125500001Y-97480659D01*
X125539234Y-97477226D01*
X125735408Y-97460063D01*
X125963663Y-97398903D01*
X126177829Y-97299035D01*
X126371401Y-97163495D01*
X126538495Y-96996401D01*
X126648426Y-96839401D01*
X126703001Y-96795778D01*
X126772500Y-96788584D01*
X126834855Y-96820106D01*
X126851571Y-96839398D01*
X126909511Y-96922145D01*
X126961506Y-96996403D01*
X127045805Y-97080701D01*
X127128599Y-97163495D01*
X127187919Y-97205031D01*
X127322165Y-97299032D01*
X127322167Y-97299033D01*
X127322170Y-97299035D01*
X127536337Y-97398903D01*
X127536343Y-97398904D01*
X127536344Y-97398905D01*
X127575356Y-97409358D01*
X127764592Y-97460063D01*
X127952918Y-97476539D01*
X127999999Y-97480659D01*
X128000000Y-97480659D01*
X128000001Y-97480659D01*
X128039234Y-97477226D01*
X128235408Y-97460063D01*
X128463663Y-97398903D01*
X128677829Y-97299035D01*
X128871401Y-97163495D01*
X129038495Y-96996401D01*
X129174035Y-96802829D01*
X129273903Y-96588663D01*
X129335063Y-96360408D01*
X129350500Y-96183966D01*
X129350500Y-95816034D01*
X129335063Y-95639592D01*
X129297647Y-95499953D01*
X129292728Y-95481593D01*
X129294391Y-95411743D01*
X129333554Y-95353881D01*
X129397782Y-95326377D01*
X129412503Y-95325500D01*
X131815194Y-95325500D01*
X131855903Y-95316208D01*
X131862760Y-95315043D01*
X131904255Y-95310368D01*
X131943680Y-95296571D01*
X131950321Y-95294658D01*
X131991061Y-95285360D01*
X132028693Y-95267236D01*
X132035105Y-95264580D01*
X132074522Y-95250789D01*
X132109889Y-95228565D01*
X132115961Y-95225209D01*
X132153587Y-95207091D01*
X132186236Y-95181052D01*
X132191895Y-95177037D01*
X132227262Y-95154816D01*
X132354816Y-95027262D01*
X132413375Y-94968703D01*
X132413388Y-94968688D01*
X133207794Y-94174282D01*
X133269115Y-94140799D01*
X133338807Y-94145783D01*
X133394740Y-94187655D01*
X133415248Y-94229872D01*
X133451094Y-94363655D01*
X133451096Y-94363659D01*
X133451097Y-94363663D01*
X133477179Y-94419595D01*
X133550964Y-94577828D01*
X133550965Y-94577830D01*
X133686505Y-94771402D01*
X133853597Y-94938494D01*
X134010595Y-95048425D01*
X134054220Y-95103002D01*
X134061414Y-95172500D01*
X134029891Y-95234855D01*
X134010595Y-95251575D01*
X133853597Y-95361505D01*
X133686506Y-95528597D01*
X133686501Y-95528604D01*
X133550967Y-95722165D01*
X133550965Y-95722169D01*
X133451098Y-95936335D01*
X133451094Y-95936344D01*
X133389938Y-96164586D01*
X133389936Y-96164596D01*
X133369341Y-96399999D01*
X133369341Y-96400000D01*
X133389936Y-96635403D01*
X133389938Y-96635413D01*
X133451094Y-96863655D01*
X133451096Y-96863659D01*
X133451097Y-96863663D01*
X133491124Y-96949500D01*
X133550964Y-97077828D01*
X133550965Y-97077830D01*
X133686505Y-97271402D01*
X133853597Y-97438494D01*
X134047169Y-97574034D01*
X134047171Y-97574035D01*
X134261337Y-97673903D01*
X134489592Y-97735063D01*
X134666034Y-97750500D01*
X135033966Y-97750500D01*
X135210408Y-97735063D01*
X135438663Y-97673903D01*
X135652829Y-97574035D01*
X135846401Y-97438495D01*
X136013495Y-97271401D01*
X136149035Y-97077830D01*
X136248903Y-96863663D01*
X136310063Y-96635408D01*
X136330659Y-96400000D01*
X136310063Y-96164592D01*
X136248903Y-95936337D01*
X136149035Y-95722171D01*
X136149034Y-95722169D01*
X136013494Y-95528597D01*
X135846402Y-95361505D01*
X135689403Y-95251574D01*
X135645778Y-95196997D01*
X135638584Y-95127499D01*
X135670107Y-95065144D01*
X135689391Y-95048433D01*
X135846401Y-94938495D01*
X136013495Y-94771401D01*
X136149035Y-94577830D01*
X136248903Y-94363663D01*
X136310063Y-94135408D01*
X136330659Y-93900000D01*
X136310063Y-93664592D01*
X136255734Y-93461830D01*
X136248905Y-93436344D01*
X136248904Y-93436343D01*
X136248903Y-93436337D01*
X136149035Y-93222171D01*
X136126994Y-93190692D01*
X136013494Y-93028597D01*
X135846403Y-92861506D01*
X135761964Y-92802382D01*
X135689401Y-92751573D01*
X135645778Y-92696999D01*
X135638584Y-92627500D01*
X135670106Y-92565145D01*
X135689398Y-92548428D01*
X135846401Y-92438495D01*
X136013495Y-92271401D01*
X136149035Y-92077830D01*
X136248903Y-91863663D01*
X136310063Y-91635408D01*
X136330659Y-91400000D01*
X136310063Y-91164592D01*
X136248903Y-90936337D01*
X136149035Y-90722171D01*
X136149034Y-90722169D01*
X136013494Y-90528597D01*
X135865932Y-90381035D01*
X135832447Y-90319712D01*
X135837431Y-90250020D01*
X135879303Y-90194087D01*
X135888516Y-90187815D01*
X136043345Y-90092315D01*
X136167315Y-89968345D01*
X136259356Y-89819124D01*
X136259358Y-89819119D01*
X136314505Y-89652697D01*
X136314506Y-89652690D01*
X136324999Y-89549986D01*
X136325000Y-89549973D01*
X136325000Y-89200000D01*
X135422610Y-89200000D01*
X135355571Y-89180315D01*
X135309816Y-89127511D01*
X135299872Y-89058353D01*
X135303633Y-89041065D01*
X135325000Y-88968295D01*
X135325000Y-88831704D01*
X135303633Y-88758935D01*
X135303633Y-88689065D01*
X135341407Y-88630287D01*
X135404963Y-88601262D01*
X135422610Y-88600000D01*
X136324999Y-88600000D01*
X136324999Y-88250028D01*
X136324998Y-88250013D01*
X136314505Y-88147302D01*
X136259358Y-87980880D01*
X136259356Y-87980875D01*
X136167315Y-87831654D01*
X136043345Y-87707684D01*
X135894124Y-87615643D01*
X135894119Y-87615641D01*
X135727697Y-87560494D01*
X135727690Y-87560493D01*
X135624986Y-87550000D01*
X135150000Y-87550000D01*
X135150000Y-88322298D01*
X135130315Y-88389337D01*
X135077511Y-88435092D01*
X135008353Y-88445036D01*
X134991072Y-88441277D01*
X134985204Y-88439554D01*
X134900845Y-88427425D01*
X134883975Y-88425000D01*
X134816025Y-88425000D01*
X134714795Y-88439554D01*
X134708928Y-88441277D01*
X134639058Y-88441273D01*
X134580282Y-88403495D01*
X134551261Y-88339938D01*
X134550000Y-88322298D01*
X134550000Y-87550000D01*
X134075028Y-87550000D01*
X134075012Y-87550001D01*
X133972302Y-87560494D01*
X133805880Y-87615641D01*
X133805875Y-87615643D01*
X133656654Y-87707684D01*
X133532684Y-87831654D01*
X133440643Y-87980875D01*
X133440641Y-87980880D01*
X133385494Y-88147302D01*
X133385493Y-88147309D01*
X133375000Y-88250013D01*
X133375000Y-88600000D01*
X134277390Y-88600000D01*
X134344429Y-88619685D01*
X134390184Y-88672489D01*
X134400128Y-88741647D01*
X134396367Y-88758935D01*
X134375000Y-88831704D01*
X134375000Y-88968295D01*
X134396367Y-89041065D01*
X134396367Y-89110935D01*
X134358593Y-89169713D01*
X134295037Y-89198738D01*
X134277390Y-89200000D01*
X133375001Y-89200000D01*
X133375001Y-89549986D01*
X133385494Y-89652697D01*
X133440641Y-89819119D01*
X133440643Y-89819124D01*
X133532684Y-89968345D01*
X133656654Y-90092315D01*
X133811484Y-90187815D01*
X133858208Y-90239763D01*
X133869431Y-90308726D01*
X133841587Y-90372808D01*
X133834069Y-90381035D01*
X133686501Y-90528603D01*
X133686501Y-90528604D01*
X133550967Y-90722165D01*
X133550965Y-90722169D01*
X133451098Y-90936335D01*
X133451094Y-90936344D01*
X133389938Y-91164586D01*
X133389936Y-91164596D01*
X133369341Y-91399999D01*
X133369341Y-91400000D01*
X133389937Y-91635409D01*
X133390974Y-91639280D01*
X133389304Y-91709130D01*
X133358877Y-91759043D01*
X131429741Y-93688181D01*
X131368418Y-93721666D01*
X131342060Y-93724500D01*
X124565194Y-93724500D01*
X124384806Y-93724500D01*
X124378888Y-93725850D01*
X124344089Y-93733791D01*
X124337235Y-93734955D01*
X124295744Y-93739632D01*
X124256341Y-93753419D01*
X124249659Y-93755344D01*
X124208939Y-93764639D01*
X124171320Y-93782755D01*
X124164895Y-93785416D01*
X124125483Y-93799208D01*
X124125476Y-93799212D01*
X124090120Y-93821427D01*
X124084033Y-93824791D01*
X124046411Y-93842910D01*
X124013768Y-93868941D01*
X124008096Y-93872965D01*
X123972741Y-93895180D01*
X123972736Y-93895185D01*
X123904431Y-93963485D01*
X123904428Y-93963492D01*
X123359043Y-94508877D01*
X123297720Y-94542362D01*
X123239280Y-94540974D01*
X123235409Y-94539937D01*
X123000001Y-94519341D01*
X122999999Y-94519341D01*
X122764596Y-94539936D01*
X122764586Y-94539938D01*
X122536344Y-94601094D01*
X122536335Y-94601098D01*
X122322171Y-94700964D01*
X122322169Y-94700965D01*
X122128597Y-94836505D01*
X121981035Y-94984068D01*
X121919712Y-95017553D01*
X121850020Y-95012569D01*
X121794087Y-94970697D01*
X121787815Y-94961484D01*
X121692315Y-94806654D01*
X121568345Y-94682684D01*
X121419124Y-94590643D01*
X121419119Y-94590641D01*
X121252697Y-94535494D01*
X121252690Y-94535493D01*
X121149986Y-94525000D01*
X120800000Y-94525000D01*
X120800000Y-95422298D01*
X120780315Y-95489337D01*
X120727511Y-95535092D01*
X120658353Y-95545036D01*
X120641072Y-95541277D01*
X120635204Y-95539554D01*
X120550845Y-95527425D01*
X120533975Y-95525000D01*
X120466025Y-95525000D01*
X120364802Y-95539553D01*
X120358933Y-95541277D01*
X120289063Y-95541276D01*
X120230285Y-95503501D01*
X120201261Y-95439945D01*
X120199999Y-95422299D01*
X120199999Y-94525000D01*
X119850028Y-94525000D01*
X119850012Y-94525001D01*
X119747302Y-94535494D01*
X119580880Y-94590641D01*
X119580875Y-94590643D01*
X119431654Y-94682684D01*
X119307684Y-94806654D01*
X119215643Y-94955875D01*
X119215641Y-94955880D01*
X119160494Y-95122302D01*
X119160493Y-95122309D01*
X119150000Y-95225013D01*
X119150000Y-95700000D01*
X115191746Y-95700000D01*
X115179689Y-95658934D01*
X115179689Y-95589064D01*
X115217464Y-95530286D01*
X115281020Y-95501262D01*
X115298666Y-95500000D01*
X116199999Y-95500000D01*
X116199999Y-95150028D01*
X116199998Y-95150013D01*
X116189505Y-95047302D01*
X116134358Y-94880880D01*
X116134356Y-94880875D01*
X116042315Y-94731654D01*
X115918345Y-94607684D01*
X115769124Y-94515643D01*
X115769119Y-94515641D01*
X115602697Y-94460494D01*
X115602690Y-94460493D01*
X115499986Y-94450000D01*
X115000000Y-94450000D01*
X115000000Y-95195975D01*
X114980315Y-95263014D01*
X114927511Y-95308769D01*
X114858353Y-95318713D01*
X114843608Y-95315505D01*
X114747267Y-95301654D01*
X114735763Y-95300000D01*
X114664237Y-95300000D01*
X114548906Y-95316582D01*
X114548671Y-95314953D01*
X114489059Y-95314950D01*
X114430283Y-95277173D01*
X114401261Y-95213615D01*
X114400000Y-95195975D01*
X114400000Y-94450000D01*
X113900028Y-94450000D01*
X113900012Y-94450001D01*
X113797302Y-94460494D01*
X113630880Y-94515641D01*
X113630875Y-94515643D01*
X113481654Y-94607684D01*
X113357684Y-94731654D01*
X113265643Y-94880875D01*
X113265641Y-94880880D01*
X113210494Y-95047302D01*
X113210493Y-95047309D01*
X113200000Y-95150013D01*
X113200000Y-95616046D01*
X113180315Y-95683085D01*
X113127511Y-95728840D01*
X113058353Y-95738784D01*
X112994797Y-95709759D01*
X112988319Y-95703728D01*
X112945449Y-95660858D01*
X112900798Y-95616207D01*
X112890980Y-95603950D01*
X112890759Y-95604134D01*
X112885786Y-95598123D01*
X112876139Y-95589064D01*
X112835364Y-95550773D01*
X112824144Y-95539553D01*
X112814475Y-95529883D01*
X112808986Y-95525625D01*
X112804561Y-95521847D01*
X112770582Y-95489938D01*
X112770580Y-95489936D01*
X112770577Y-95489935D01*
X112753029Y-95480288D01*
X112736763Y-95469604D01*
X112736245Y-95469202D01*
X112720936Y-95457327D01*
X112720935Y-95457326D01*
X112720933Y-95457325D01*
X112678168Y-95438818D01*
X112672922Y-95436248D01*
X112632093Y-95413803D01*
X112632092Y-95413802D01*
X112612693Y-95408822D01*
X112594281Y-95402518D01*
X112575898Y-95394562D01*
X112575892Y-95394560D01*
X112529874Y-95387272D01*
X112524152Y-95386087D01*
X112479021Y-95374500D01*
X112479019Y-95374500D01*
X112458984Y-95374500D01*
X112439586Y-95372973D01*
X112432162Y-95371797D01*
X112419805Y-95369840D01*
X112419804Y-95369840D01*
X112373416Y-95374225D01*
X112367578Y-95374500D01*
X109809452Y-95374500D01*
X109742413Y-95354815D01*
X109696658Y-95302011D01*
X109686714Y-95232853D01*
X109715739Y-95169297D01*
X109721771Y-95162819D01*
X113264589Y-91620001D01*
X126194532Y-91620001D01*
X126214364Y-91846686D01*
X126214366Y-91846697D01*
X126273258Y-92066488D01*
X126273261Y-92066497D01*
X126369431Y-92272732D01*
X126369432Y-92272734D01*
X126499954Y-92459141D01*
X126660858Y-92620045D01*
X126660861Y-92620047D01*
X126847266Y-92750568D01*
X127053504Y-92846739D01*
X127273308Y-92905635D01*
X127435230Y-92919801D01*
X127499998Y-92925468D01*
X127500000Y-92925468D01*
X127500002Y-92925468D01*
X127556672Y-92920509D01*
X127726692Y-92905635D01*
X127946496Y-92846739D01*
X128152734Y-92750568D01*
X128339139Y-92620047D01*
X128500047Y-92459139D01*
X128630568Y-92272734D01*
X128726739Y-92066496D01*
X128785635Y-91846692D01*
X128805468Y-91620000D01*
X128785635Y-91393308D01*
X128732047Y-91193313D01*
X128726741Y-91173511D01*
X128726738Y-91173502D01*
X128650955Y-91010986D01*
X128630568Y-90967266D01*
X128500047Y-90780861D01*
X128500045Y-90780858D01*
X128339141Y-90619954D01*
X128152734Y-90489432D01*
X128152732Y-90489431D01*
X127946497Y-90393261D01*
X127946488Y-90393258D01*
X127726697Y-90334366D01*
X127726693Y-90334365D01*
X127726692Y-90334365D01*
X127726691Y-90334364D01*
X127726686Y-90334364D01*
X127500002Y-90314532D01*
X127499998Y-90314532D01*
X127273313Y-90334364D01*
X127273302Y-90334366D01*
X127053511Y-90393258D01*
X127053502Y-90393261D01*
X126847267Y-90489431D01*
X126847265Y-90489432D01*
X126660858Y-90619954D01*
X126499954Y-90780858D01*
X126369432Y-90967265D01*
X126369431Y-90967267D01*
X126273261Y-91173502D01*
X126273258Y-91173511D01*
X126214366Y-91393302D01*
X126214364Y-91393313D01*
X126194532Y-91619998D01*
X126194532Y-91620001D01*
X113264589Y-91620001D01*
X114884590Y-90000000D01*
X120994341Y-90000000D01*
X121014936Y-90235403D01*
X121014938Y-90235413D01*
X121076094Y-90463655D01*
X121076096Y-90463659D01*
X121076097Y-90463663D01*
X121115996Y-90549226D01*
X121175964Y-90677828D01*
X121175965Y-90677830D01*
X121311505Y-90871402D01*
X121478597Y-91038494D01*
X121672169Y-91174034D01*
X121672171Y-91174035D01*
X121886337Y-91273903D01*
X122114592Y-91335063D01*
X122291034Y-91350500D01*
X122708966Y-91350500D01*
X122885408Y-91335063D01*
X123113663Y-91273903D01*
X123327829Y-91174035D01*
X123521401Y-91038495D01*
X123688495Y-90871401D01*
X123824035Y-90677830D01*
X123923903Y-90463663D01*
X123985063Y-90235408D01*
X124005659Y-90000000D01*
X124002889Y-89968345D01*
X123989834Y-89819124D01*
X123985063Y-89764592D01*
X123923903Y-89536337D01*
X123824035Y-89322171D01*
X123824034Y-89322169D01*
X123688494Y-89128597D01*
X123540932Y-88981035D01*
X123507447Y-88919712D01*
X123512431Y-88850020D01*
X123554303Y-88794087D01*
X123563516Y-88787815D01*
X123718345Y-88692315D01*
X123842315Y-88568345D01*
X123934356Y-88419124D01*
X123934358Y-88419119D01*
X123989505Y-88252697D01*
X123989506Y-88252690D01*
X123999999Y-88149986D01*
X124000000Y-88149973D01*
X124000000Y-87800000D01*
X123098666Y-87800000D01*
X123031627Y-87780315D01*
X122985872Y-87727511D01*
X122975928Y-87658353D01*
X122979689Y-87641066D01*
X122999999Y-87571892D01*
X123000000Y-87571889D01*
X123000000Y-87428110D01*
X122999999Y-87428107D01*
X122979689Y-87358934D01*
X122979689Y-87289064D01*
X123017464Y-87230286D01*
X123081020Y-87201262D01*
X123098666Y-87200000D01*
X123999999Y-87200000D01*
X123999999Y-86850028D01*
X123999998Y-86850013D01*
X123989505Y-86747302D01*
X123934358Y-86580880D01*
X123934356Y-86580875D01*
X123842315Y-86431654D01*
X123718345Y-86307684D01*
X123569124Y-86215643D01*
X123569119Y-86215641D01*
X123402697Y-86160494D01*
X123402690Y-86160493D01*
X123299986Y-86150000D01*
X122800000Y-86150000D01*
X122800000Y-86895975D01*
X122780315Y-86963014D01*
X122727511Y-87008769D01*
X122658353Y-87018713D01*
X122643608Y-87015505D01*
X122550519Y-87002121D01*
X122535763Y-87000000D01*
X122464237Y-87000000D01*
X122348906Y-87016582D01*
X122348671Y-87014953D01*
X122289059Y-87014950D01*
X122230283Y-86977173D01*
X122201261Y-86913615D01*
X122200000Y-86895975D01*
X122200000Y-86150000D01*
X121700028Y-86150000D01*
X121700012Y-86150001D01*
X121597302Y-86160494D01*
X121430880Y-86215641D01*
X121430875Y-86215643D01*
X121281654Y-86307684D01*
X121157684Y-86431654D01*
X121065643Y-86580875D01*
X121065641Y-86580880D01*
X121010494Y-86747302D01*
X121010493Y-86747309D01*
X121000000Y-86850013D01*
X121000000Y-87200000D01*
X121901334Y-87200000D01*
X121968373Y-87219685D01*
X122014128Y-87272489D01*
X122024072Y-87341647D01*
X122020311Y-87358934D01*
X122000000Y-87428107D01*
X122000000Y-87571892D01*
X122020311Y-87641066D01*
X122020311Y-87710936D01*
X121982536Y-87769714D01*
X121918980Y-87798738D01*
X121901334Y-87800000D01*
X121000001Y-87800000D01*
X121000001Y-88149986D01*
X121010494Y-88252697D01*
X121065641Y-88419119D01*
X121065643Y-88419124D01*
X121157684Y-88568345D01*
X121281654Y-88692315D01*
X121436484Y-88787815D01*
X121483208Y-88839763D01*
X121494431Y-88908726D01*
X121466587Y-88972808D01*
X121459069Y-88981035D01*
X121311501Y-89128603D01*
X121311501Y-89128604D01*
X121175967Y-89322165D01*
X121175965Y-89322169D01*
X121076098Y-89536335D01*
X121076094Y-89536344D01*
X121014938Y-89764586D01*
X121014936Y-89764596D01*
X120994341Y-89999999D01*
X120994341Y-90000000D01*
X114884590Y-90000000D01*
X115861755Y-89022835D01*
X120884588Y-84000001D01*
X126194532Y-84000001D01*
X126214364Y-84226686D01*
X126214366Y-84226697D01*
X126273258Y-84446488D01*
X126273261Y-84446497D01*
X126369431Y-84652732D01*
X126369432Y-84652734D01*
X126499954Y-84839141D01*
X126660858Y-85000045D01*
X126678416Y-85012339D01*
X126847266Y-85130568D01*
X127053504Y-85226739D01*
X127273308Y-85285635D01*
X127431694Y-85299492D01*
X127499998Y-85305468D01*
X127500000Y-85305468D01*
X127500002Y-85305468D01*
X127568306Y-85299492D01*
X127726692Y-85285635D01*
X127946496Y-85226739D01*
X128152734Y-85130568D01*
X128339139Y-85000047D01*
X128500047Y-84839139D01*
X128630568Y-84652734D01*
X128726739Y-84446496D01*
X128785635Y-84226692D01*
X128805468Y-84000000D01*
X128785635Y-83773308D01*
X128732047Y-83573313D01*
X128726741Y-83553511D01*
X128726738Y-83553502D01*
X128726363Y-83552697D01*
X128630568Y-83347266D01*
X128530253Y-83204000D01*
X128500045Y-83160858D01*
X128339141Y-82999954D01*
X128152734Y-82869432D01*
X128152732Y-82869431D01*
X127946497Y-82773261D01*
X127946488Y-82773258D01*
X127726697Y-82714366D01*
X127726693Y-82714365D01*
X127726692Y-82714365D01*
X127726691Y-82714364D01*
X127726686Y-82714364D01*
X127500002Y-82694532D01*
X127499998Y-82694532D01*
X127273313Y-82714364D01*
X127273302Y-82714366D01*
X127053511Y-82773258D01*
X127053502Y-82773261D01*
X126847267Y-82869431D01*
X126847265Y-82869432D01*
X126660858Y-82999954D01*
X126499954Y-83160858D01*
X126369432Y-83347265D01*
X126369431Y-83347267D01*
X126273261Y-83553502D01*
X126273258Y-83553511D01*
X126214366Y-83773302D01*
X126214364Y-83773313D01*
X126194532Y-83999998D01*
X126194532Y-84000001D01*
X120884588Y-84000001D01*
X122013877Y-82870712D01*
X122075198Y-82837229D01*
X122112364Y-82834867D01*
X122114586Y-82835061D01*
X122114592Y-82835063D01*
X122291034Y-82850500D01*
X122708966Y-82850500D01*
X122885408Y-82835063D01*
X123113663Y-82773903D01*
X123327829Y-82674035D01*
X123521401Y-82538495D01*
X123688495Y-82371401D01*
X123824035Y-82177830D01*
X123923903Y-81963663D01*
X123985063Y-81735408D01*
X124005659Y-81500000D01*
X123985063Y-81264592D01*
X123935791Y-81080703D01*
X123923905Y-81036344D01*
X123923904Y-81036343D01*
X123923903Y-81036337D01*
X123824035Y-80822171D01*
X123824034Y-80822169D01*
X123688494Y-80628597D01*
X123613897Y-80554000D01*
X133519341Y-80554000D01*
X133539936Y-80789403D01*
X133539938Y-80789413D01*
X133601094Y-81017655D01*
X133601096Y-81017659D01*
X133601097Y-81017663D01*
X133640956Y-81103141D01*
X133700964Y-81231828D01*
X133700965Y-81231830D01*
X133836505Y-81425402D01*
X134003597Y-81592494D01*
X134197169Y-81728034D01*
X134197171Y-81728035D01*
X134411337Y-81827903D01*
X134639592Y-81889063D01*
X134816034Y-81904500D01*
X135183966Y-81904500D01*
X135360408Y-81889063D01*
X135588663Y-81827903D01*
X135802829Y-81728035D01*
X135996401Y-81592495D01*
X136163495Y-81425401D01*
X136299035Y-81231830D01*
X136398903Y-81017663D01*
X136460063Y-80789408D01*
X136480659Y-80554000D01*
X136460063Y-80318592D01*
X136409378Y-80129432D01*
X136398905Y-80090344D01*
X136398904Y-80090343D01*
X136398903Y-80090337D01*
X136299035Y-79876171D01*
X136299034Y-79876169D01*
X136163494Y-79682597D01*
X135996403Y-79515506D01*
X135866947Y-79424861D01*
X135839401Y-79405573D01*
X135795778Y-79350999D01*
X135788584Y-79281500D01*
X135820106Y-79219145D01*
X135839398Y-79202428D01*
X135996401Y-79092495D01*
X136163495Y-78925401D01*
X136299035Y-78731830D01*
X136398903Y-78517663D01*
X136460063Y-78289408D01*
X136480659Y-78054000D01*
X136460063Y-77818592D01*
X136398903Y-77590337D01*
X136299035Y-77376171D01*
X136299034Y-77376169D01*
X136163494Y-77182597D01*
X135996403Y-77015506D01*
X135940187Y-76976144D01*
X135839401Y-76905573D01*
X135795778Y-76850999D01*
X135788584Y-76781500D01*
X135820106Y-76719145D01*
X135839398Y-76702428D01*
X135996401Y-76592495D01*
X136163495Y-76425401D01*
X136299035Y-76231830D01*
X136398903Y-76017663D01*
X136460063Y-75789408D01*
X136480659Y-75554000D01*
X136480151Y-75548199D01*
X136476340Y-75504636D01*
X136460063Y-75318592D01*
X136413626Y-75145285D01*
X136398905Y-75090344D01*
X136398904Y-75090343D01*
X136398903Y-75090337D01*
X136299035Y-74876171D01*
X136299034Y-74876169D01*
X136163494Y-74682597D01*
X136015932Y-74535035D01*
X135982447Y-74473712D01*
X135987431Y-74404020D01*
X136029303Y-74348087D01*
X136038516Y-74341815D01*
X136193345Y-74246315D01*
X136317315Y-74122345D01*
X136409356Y-73973124D01*
X136409358Y-73973119D01*
X136464505Y-73806697D01*
X136464506Y-73806690D01*
X136474999Y-73703986D01*
X136475000Y-73703973D01*
X136475000Y-73354000D01*
X135572610Y-73354000D01*
X135505571Y-73334315D01*
X135459816Y-73281511D01*
X135449872Y-73212353D01*
X135453633Y-73195065D01*
X135457517Y-73181839D01*
X135475000Y-73122295D01*
X135475000Y-72985705D01*
X135472367Y-72976739D01*
X135458443Y-72929319D01*
X135453633Y-72912934D01*
X135453633Y-72843065D01*
X135491407Y-72784287D01*
X135554963Y-72755262D01*
X135572610Y-72754000D01*
X136474999Y-72754000D01*
X136474999Y-72404028D01*
X136474998Y-72404013D01*
X136464505Y-72301302D01*
X136409358Y-72134880D01*
X136409356Y-72134875D01*
X136317315Y-71985654D01*
X136193345Y-71861684D01*
X136044124Y-71769643D01*
X136044119Y-71769641D01*
X135877697Y-71714494D01*
X135877690Y-71714493D01*
X135774986Y-71704000D01*
X135300000Y-71704000D01*
X135300000Y-72476298D01*
X135280315Y-72543337D01*
X135227511Y-72589092D01*
X135158353Y-72599036D01*
X135141072Y-72595277D01*
X135135204Y-72593554D01*
X135050845Y-72581425D01*
X135033975Y-72579000D01*
X134966025Y-72579000D01*
X134864795Y-72593554D01*
X134858928Y-72595277D01*
X134789058Y-72595273D01*
X134730282Y-72557495D01*
X134701261Y-72493938D01*
X134700000Y-72476298D01*
X134700000Y-71704000D01*
X134225028Y-71704000D01*
X134225012Y-71704001D01*
X134122302Y-71714494D01*
X133955880Y-71769641D01*
X133955875Y-71769643D01*
X133806654Y-71861684D01*
X133682684Y-71985654D01*
X133590643Y-72134875D01*
X133590641Y-72134880D01*
X133535494Y-72301302D01*
X133535493Y-72301309D01*
X133525000Y-72404013D01*
X133525000Y-72404026D01*
X133524999Y-72754000D01*
X134427390Y-72754000D01*
X134494429Y-72773685D01*
X134540184Y-72826489D01*
X134550128Y-72895647D01*
X134546367Y-72912933D01*
X134541556Y-72929319D01*
X134527633Y-72976739D01*
X134525000Y-72985705D01*
X134525000Y-73122295D01*
X134542483Y-73181839D01*
X134546367Y-73195065D01*
X134546367Y-73264935D01*
X134508593Y-73323713D01*
X134445037Y-73352738D01*
X134427390Y-73354000D01*
X133525001Y-73354000D01*
X133525001Y-73703986D01*
X133535494Y-73806697D01*
X133590641Y-73973119D01*
X133590643Y-73973124D01*
X133682684Y-74122345D01*
X133806654Y-74246315D01*
X133961484Y-74341815D01*
X134008208Y-74393763D01*
X134019431Y-74462726D01*
X133991587Y-74526808D01*
X133984069Y-74535035D01*
X133836501Y-74682603D01*
X133836501Y-74682604D01*
X133700967Y-74876165D01*
X133700965Y-74876169D01*
X133601098Y-75090335D01*
X133601094Y-75090344D01*
X133539938Y-75318586D01*
X133539936Y-75318596D01*
X133519341Y-75553999D01*
X133519341Y-75554000D01*
X133539936Y-75789403D01*
X133539938Y-75789413D01*
X133601094Y-76017655D01*
X133601096Y-76017659D01*
X133601097Y-76017663D01*
X133633167Y-76086436D01*
X133700964Y-76231828D01*
X133700965Y-76231830D01*
X133836505Y-76425402D01*
X134003597Y-76592494D01*
X134160595Y-76702425D01*
X134204220Y-76757002D01*
X134211414Y-76826500D01*
X134179891Y-76888855D01*
X134160595Y-76905575D01*
X134003597Y-77015505D01*
X133836506Y-77182597D01*
X133836501Y-77182604D01*
X133700967Y-77376165D01*
X133700965Y-77376169D01*
X133601098Y-77590335D01*
X133601094Y-77590344D01*
X133539938Y-77818586D01*
X133539936Y-77818596D01*
X133519341Y-78053999D01*
X133519341Y-78054000D01*
X133539936Y-78289403D01*
X133539938Y-78289413D01*
X133601094Y-78517655D01*
X133601096Y-78517659D01*
X133601097Y-78517663D01*
X133641334Y-78603950D01*
X133700964Y-78731828D01*
X133700965Y-78731830D01*
X133836505Y-78925402D01*
X134003597Y-79092494D01*
X134160595Y-79202425D01*
X134204220Y-79257002D01*
X134211414Y-79326500D01*
X134179891Y-79388855D01*
X134160595Y-79405575D01*
X134003597Y-79515505D01*
X133836506Y-79682597D01*
X133836501Y-79682604D01*
X133700967Y-79876165D01*
X133700965Y-79876169D01*
X133662707Y-79958214D01*
X133608987Y-80073418D01*
X133601098Y-80090335D01*
X133601094Y-80090344D01*
X133539938Y-80318586D01*
X133539936Y-80318596D01*
X133519341Y-80553999D01*
X133519341Y-80554000D01*
X123613897Y-80554000D01*
X123540932Y-80481035D01*
X123507447Y-80419712D01*
X123512431Y-80350020D01*
X123554303Y-80294087D01*
X123563516Y-80287815D01*
X123718345Y-80192315D01*
X123842315Y-80068345D01*
X123934356Y-79919124D01*
X123934358Y-79919119D01*
X123989505Y-79752697D01*
X123989506Y-79752690D01*
X123999999Y-79649986D01*
X124000000Y-79649973D01*
X124000000Y-79300000D01*
X123098666Y-79300000D01*
X123031627Y-79280315D01*
X122985872Y-79227511D01*
X122975928Y-79158353D01*
X122979689Y-79141066D01*
X122999999Y-79071892D01*
X123000000Y-79071889D01*
X123000000Y-78928110D01*
X122999999Y-78928107D01*
X122979689Y-78858934D01*
X122979689Y-78789064D01*
X123017464Y-78730286D01*
X123081020Y-78701262D01*
X123098666Y-78700000D01*
X123999999Y-78700000D01*
X123999999Y-78560001D01*
X126194532Y-78560001D01*
X126214364Y-78786686D01*
X126214366Y-78786697D01*
X126273258Y-79006488D01*
X126273261Y-79006497D01*
X126369431Y-79212732D01*
X126369432Y-79212734D01*
X126499954Y-79399141D01*
X126660858Y-79560045D01*
X126664134Y-79562339D01*
X126847266Y-79690568D01*
X127053504Y-79786739D01*
X127273308Y-79845635D01*
X127435230Y-79859801D01*
X127499998Y-79865468D01*
X127500000Y-79865468D01*
X127500002Y-79865468D01*
X127556673Y-79860509D01*
X127726692Y-79845635D01*
X127946496Y-79786739D01*
X128152734Y-79690568D01*
X128339139Y-79560047D01*
X128500047Y-79399139D01*
X128630568Y-79212734D01*
X128726739Y-79006496D01*
X128785635Y-78786692D01*
X128802634Y-78592384D01*
X128805468Y-78560001D01*
X128805468Y-78559998D01*
X128791456Y-78399843D01*
X128785635Y-78333308D01*
X128726739Y-78113504D01*
X128630568Y-77907266D01*
X128500047Y-77720861D01*
X128500045Y-77720858D01*
X128339141Y-77559954D01*
X128152734Y-77429432D01*
X128152732Y-77429431D01*
X127946497Y-77333261D01*
X127946488Y-77333258D01*
X127726697Y-77274366D01*
X127726693Y-77274365D01*
X127726692Y-77274365D01*
X127726691Y-77274364D01*
X127726686Y-77274364D01*
X127500002Y-77254532D01*
X127499998Y-77254532D01*
X127273313Y-77274364D01*
X127273302Y-77274366D01*
X127053511Y-77333258D01*
X127053502Y-77333261D01*
X126847267Y-77429431D01*
X126847265Y-77429432D01*
X126660858Y-77559954D01*
X126499954Y-77720858D01*
X126369432Y-77907265D01*
X126369431Y-77907267D01*
X126273261Y-78113502D01*
X126273258Y-78113511D01*
X126214366Y-78333302D01*
X126214364Y-78333313D01*
X126194532Y-78559998D01*
X126194532Y-78560001D01*
X123999999Y-78560001D01*
X123999999Y-78350028D01*
X123999998Y-78350013D01*
X123989505Y-78247302D01*
X123934358Y-78080880D01*
X123934356Y-78080875D01*
X123842315Y-77931654D01*
X123718345Y-77807684D01*
X123569124Y-77715643D01*
X123569119Y-77715641D01*
X123402697Y-77660494D01*
X123402690Y-77660493D01*
X123299986Y-77650000D01*
X122800000Y-77650000D01*
X122800000Y-78395975D01*
X122780315Y-78463014D01*
X122727511Y-78508769D01*
X122658353Y-78518713D01*
X122643608Y-78515505D01*
X122550519Y-78502121D01*
X122535763Y-78500000D01*
X122464237Y-78500000D01*
X122348906Y-78516582D01*
X122348671Y-78514953D01*
X122289059Y-78514950D01*
X122230283Y-78477173D01*
X122201261Y-78413615D01*
X122200000Y-78395975D01*
X122200000Y-77650000D01*
X121783950Y-77650000D01*
X121716911Y-77630315D01*
X121671156Y-77577511D01*
X121661212Y-77508353D01*
X121690237Y-77444797D01*
X121696250Y-77438339D01*
X126935330Y-72199259D01*
X126996651Y-72165776D01*
X127055101Y-72167166D01*
X127273308Y-72225635D01*
X127435230Y-72239801D01*
X127499998Y-72245468D01*
X127500000Y-72245468D01*
X127500002Y-72245468D01*
X127559128Y-72240295D01*
X127726692Y-72225635D01*
X127946496Y-72166739D01*
X128152734Y-72070568D01*
X128339139Y-71940047D01*
X128500047Y-71779139D01*
X128630568Y-71592734D01*
X128726739Y-71386496D01*
X128785635Y-71166692D01*
X128805468Y-70940000D01*
X128805336Y-70938495D01*
X128794179Y-70810970D01*
X128785635Y-70713308D01*
X128729551Y-70504000D01*
X128726741Y-70493511D01*
X128726738Y-70493502D01*
X128698717Y-70433412D01*
X128630568Y-70287266D01*
X128500047Y-70100861D01*
X128500045Y-70100858D01*
X128339141Y-69939954D01*
X128152734Y-69809432D01*
X128152732Y-69809431D01*
X127946497Y-69713261D01*
X127946488Y-69713258D01*
X127726697Y-69654366D01*
X127726693Y-69654365D01*
X127726692Y-69654365D01*
X127726691Y-69654364D01*
X127726686Y-69654364D01*
X127500002Y-69634532D01*
X127499998Y-69634532D01*
X127273313Y-69654364D01*
X127273302Y-69654366D01*
X127053511Y-69713258D01*
X127053502Y-69713261D01*
X126847267Y-69809431D01*
X126847265Y-69809432D01*
X126660858Y-69939954D01*
X126499954Y-70100858D01*
X126369432Y-70287265D01*
X126369431Y-70287267D01*
X126273261Y-70493502D01*
X126273258Y-70493511D01*
X126214366Y-70713302D01*
X126214364Y-70713313D01*
X126194532Y-70939998D01*
X126194532Y-70940002D01*
X126208066Y-71094700D01*
X126194299Y-71163200D01*
X126172219Y-71193188D01*
X124212069Y-73153338D01*
X124150746Y-73186823D01*
X124081054Y-73181839D01*
X124025121Y-73139967D01*
X124000704Y-73074503D01*
X124000860Y-73054849D01*
X124005659Y-73000000D01*
X124005659Y-72999999D01*
X123992942Y-72854649D01*
X123985063Y-72764592D01*
X123935334Y-72579000D01*
X123923905Y-72536344D01*
X123923904Y-72536343D01*
X123923903Y-72536337D01*
X123824035Y-72322171D01*
X123824034Y-72322169D01*
X123688494Y-72128597D01*
X123540932Y-71981035D01*
X123507447Y-71919712D01*
X123512431Y-71850020D01*
X123554303Y-71794087D01*
X123563516Y-71787815D01*
X123718345Y-71692315D01*
X123842315Y-71568345D01*
X123934356Y-71419124D01*
X123934358Y-71419119D01*
X123989505Y-71252697D01*
X123989506Y-71252690D01*
X123999999Y-71149986D01*
X124000000Y-71149973D01*
X124000000Y-70800000D01*
X123098666Y-70800000D01*
X123031627Y-70780315D01*
X122985872Y-70727511D01*
X122975928Y-70658353D01*
X122979689Y-70641066D01*
X122999999Y-70571892D01*
X123000000Y-70571889D01*
X123000000Y-70428110D01*
X122999999Y-70428107D01*
X122979689Y-70358934D01*
X122979689Y-70289064D01*
X123017464Y-70230286D01*
X123081020Y-70201262D01*
X123098666Y-70200000D01*
X123999999Y-70200000D01*
X123999999Y-69850028D01*
X123999998Y-69850013D01*
X123989505Y-69747302D01*
X123934358Y-69580880D01*
X123934356Y-69580875D01*
X123842315Y-69431654D01*
X123718345Y-69307684D01*
X123569124Y-69215643D01*
X123569119Y-69215641D01*
X123402697Y-69160494D01*
X123402690Y-69160493D01*
X123299986Y-69150000D01*
X122800000Y-69150000D01*
X122800000Y-69895975D01*
X122780315Y-69963014D01*
X122727511Y-70008769D01*
X122658353Y-70018713D01*
X122643608Y-70015505D01*
X122550519Y-70002121D01*
X122535763Y-70000000D01*
X122464237Y-70000000D01*
X122348906Y-70016582D01*
X122348671Y-70014953D01*
X122289059Y-70014950D01*
X122230283Y-69977173D01*
X122201261Y-69913615D01*
X122200000Y-69895975D01*
X122200000Y-69150000D01*
X121700028Y-69150000D01*
X121700012Y-69150001D01*
X121597302Y-69160494D01*
X121430880Y-69215641D01*
X121430875Y-69215643D01*
X121281654Y-69307684D01*
X121157684Y-69431654D01*
X121065643Y-69580875D01*
X121065641Y-69580880D01*
X121010494Y-69747302D01*
X121010493Y-69747309D01*
X121000000Y-69850013D01*
X121000000Y-70200000D01*
X121901334Y-70200000D01*
X121968373Y-70219685D01*
X122014128Y-70272489D01*
X122024072Y-70341647D01*
X122020311Y-70358934D01*
X122000000Y-70428107D01*
X122000000Y-70571892D01*
X122020311Y-70641066D01*
X122020311Y-70710936D01*
X121982536Y-70769714D01*
X121918980Y-70798738D01*
X121901334Y-70800000D01*
X121000001Y-70800000D01*
X121000001Y-71149986D01*
X121010494Y-71252697D01*
X121065641Y-71419119D01*
X121065643Y-71419124D01*
X121157684Y-71568345D01*
X121281654Y-71692315D01*
X121436484Y-71787815D01*
X121483208Y-71839763D01*
X121494431Y-71908726D01*
X121466587Y-71972808D01*
X121459069Y-71981035D01*
X121311501Y-72128603D01*
X121311501Y-72128604D01*
X121175967Y-72322165D01*
X121175965Y-72322169D01*
X121076098Y-72536335D01*
X121076094Y-72536344D01*
X121014938Y-72764586D01*
X121014936Y-72764596D01*
X120994341Y-72999999D01*
X120994341Y-73000000D01*
X121014936Y-73235403D01*
X121014938Y-73235413D01*
X121073554Y-73454173D01*
X121071891Y-73524023D01*
X121041460Y-73573947D01*
X118142180Y-76473228D01*
X118080857Y-76506713D01*
X118011165Y-76501729D01*
X117955232Y-76459857D01*
X117930815Y-76394393D01*
X117930499Y-76385547D01*
X117930499Y-75894341D01*
X117930499Y-75352128D01*
X117925299Y-75303757D01*
X117924091Y-75292516D01*
X117873797Y-75157671D01*
X117873793Y-75157664D01*
X117787547Y-75042455D01*
X117787544Y-75042452D01*
X117672335Y-74956206D01*
X117672328Y-74956202D01*
X117537482Y-74905908D01*
X117537483Y-74905908D01*
X117477883Y-74899501D01*
X117477881Y-74899500D01*
X117477873Y-74899500D01*
X117477864Y-74899500D01*
X115182129Y-74899500D01*
X115182123Y-74899501D01*
X115122516Y-74905908D01*
X114987671Y-74956202D01*
X114987664Y-74956206D01*
X114872455Y-75042452D01*
X114872452Y-75042455D01*
X114786206Y-75157664D01*
X114786202Y-75157671D01*
X114735908Y-75292517D01*
X114730711Y-75340861D01*
X114729501Y-75352123D01*
X114729500Y-75352135D01*
X114729500Y-77647870D01*
X114729501Y-77647876D01*
X114735908Y-77707483D01*
X114786202Y-77842328D01*
X114786206Y-77842335D01*
X114872452Y-77957544D01*
X114872455Y-77957547D01*
X114987664Y-78043793D01*
X114987671Y-78043797D01*
X115122517Y-78094091D01*
X115122516Y-78094091D01*
X115129444Y-78094835D01*
X115182127Y-78100500D01*
X116215546Y-78100499D01*
X116282585Y-78120183D01*
X116328340Y-78172987D01*
X116338284Y-78242146D01*
X116309259Y-78305702D01*
X116303227Y-78312180D01*
X115527228Y-79088181D01*
X115465905Y-79121666D01*
X115439547Y-79124500D01*
X108832743Y-79124500D01*
X108817122Y-79122775D01*
X108817096Y-79123061D01*
X108809334Y-79122327D01*
X108809333Y-79122327D01*
X108740186Y-79124500D01*
X108710649Y-79124500D01*
X108703766Y-79125369D01*
X108697949Y-79125826D01*
X108651373Y-79127290D01*
X108632129Y-79132881D01*
X108613079Y-79136825D01*
X108593211Y-79139334D01*
X108549884Y-79156488D01*
X108544358Y-79158379D01*
X108499614Y-79171379D01*
X108499610Y-79171381D01*
X108482366Y-79181579D01*
X108464905Y-79190133D01*
X108446274Y-79197510D01*
X108446262Y-79197517D01*
X108408570Y-79224902D01*
X108403687Y-79228109D01*
X108363580Y-79251829D01*
X108349414Y-79265995D01*
X108334624Y-79278627D01*
X108318414Y-79290404D01*
X108318411Y-79290407D01*
X108288710Y-79326309D01*
X108284777Y-79330631D01*
X107116208Y-80499199D01*
X107103951Y-80509020D01*
X107104134Y-80509241D01*
X107098123Y-80514213D01*
X107050772Y-80564636D01*
X107029889Y-80585519D01*
X107029877Y-80585532D01*
X107025621Y-80591017D01*
X107021837Y-80595447D01*
X106989937Y-80629418D01*
X106989936Y-80629420D01*
X106980284Y-80646976D01*
X106969610Y-80663226D01*
X106957329Y-80679061D01*
X106957324Y-80679068D01*
X106938815Y-80721838D01*
X106936245Y-80727084D01*
X106913803Y-80767906D01*
X106908822Y-80787307D01*
X106902521Y-80805710D01*
X106894562Y-80824102D01*
X106894561Y-80824105D01*
X106887271Y-80870127D01*
X106886087Y-80875846D01*
X106874501Y-80920972D01*
X106874500Y-80920982D01*
X106874500Y-80941016D01*
X106872973Y-80960415D01*
X106869840Y-80980194D01*
X106869840Y-80980195D01*
X106874225Y-81026583D01*
X106874500Y-81032421D01*
X106874500Y-89689547D01*
X106854815Y-89756586D01*
X106838185Y-89777223D01*
X106756406Y-89859003D01*
X106679532Y-89935877D01*
X106618209Y-89969361D01*
X106548517Y-89964377D01*
X106492584Y-89922505D01*
X106468323Y-89859003D01*
X106464834Y-89819124D01*
X106460063Y-89764592D01*
X106398903Y-89536337D01*
X106299035Y-89322171D01*
X106299034Y-89322169D01*
X106163494Y-89128597D01*
X105996403Y-88961506D01*
X105838967Y-88851269D01*
X105795342Y-88796692D01*
X105788148Y-88727194D01*
X105819671Y-88664839D01*
X105838967Y-88648119D01*
X105996073Y-88538113D01*
X105996079Y-88538108D01*
X106163105Y-88371082D01*
X106298600Y-88177578D01*
X106398429Y-87963492D01*
X106398433Y-87963483D01*
X106442238Y-87800000D01*
X105572610Y-87800000D01*
X105505571Y-87780315D01*
X105459816Y-87727511D01*
X105449872Y-87658353D01*
X105453633Y-87641065D01*
X105461473Y-87614366D01*
X105475000Y-87568295D01*
X105475000Y-87431705D01*
X105473944Y-87428110D01*
X105453633Y-87358935D01*
X105453633Y-87289065D01*
X105491407Y-87230287D01*
X105554963Y-87201262D01*
X105572610Y-87200000D01*
X106442238Y-87200000D01*
X106442238Y-87199999D01*
X106398433Y-87036516D01*
X106398429Y-87036507D01*
X106298600Y-86822422D01*
X106298599Y-86822420D01*
X106163113Y-86628926D01*
X106015856Y-86481668D01*
X105982372Y-86420345D01*
X105987356Y-86350653D01*
X106029228Y-86294720D01*
X106038442Y-86288448D01*
X106098374Y-86251482D01*
X106193656Y-86192712D01*
X106317712Y-86068656D01*
X106409814Y-85919334D01*
X106464999Y-85752797D01*
X106475500Y-85650009D01*
X106475499Y-84349992D01*
X106464999Y-84247203D01*
X106409814Y-84080666D01*
X106317712Y-83931344D01*
X106193656Y-83807288D01*
X106088771Y-83742595D01*
X106044336Y-83715187D01*
X106044331Y-83715185D01*
X106011488Y-83704302D01*
X105877797Y-83660001D01*
X105877795Y-83660000D01*
X105775010Y-83649500D01*
X104224998Y-83649500D01*
X104224981Y-83649501D01*
X104122203Y-83660000D01*
X104122200Y-83660001D01*
X103955668Y-83715185D01*
X103955663Y-83715187D01*
X103806342Y-83807289D01*
X103682289Y-83931342D01*
X103590187Y-84080663D01*
X103590185Y-84080668D01*
X103576637Y-84121554D01*
X103535001Y-84247203D01*
X103535001Y-84247204D01*
X103535000Y-84247204D01*
X103524500Y-84349983D01*
X103524500Y-85650001D01*
X103524501Y-85650018D01*
X103535000Y-85752796D01*
X103535001Y-85752799D01*
X103577495Y-85881035D01*
X103590186Y-85919334D01*
X103675097Y-86056998D01*
X103682289Y-86068657D01*
X103806344Y-86192712D01*
X103961558Y-86288448D01*
X104008283Y-86340396D01*
X104019506Y-86409358D01*
X103991663Y-86473441D01*
X103984144Y-86481668D01*
X103836891Y-86628921D01*
X103701399Y-86822421D01*
X103601570Y-87036507D01*
X103601566Y-87036516D01*
X103557761Y-87199999D01*
X103557762Y-87200000D01*
X104427390Y-87200000D01*
X104494429Y-87219685D01*
X104540184Y-87272489D01*
X104550128Y-87341647D01*
X104546367Y-87358935D01*
X104526056Y-87428110D01*
X104525000Y-87431705D01*
X104525000Y-87568295D01*
X104538527Y-87614366D01*
X104546367Y-87641065D01*
X104546367Y-87710935D01*
X104508593Y-87769713D01*
X104445037Y-87798738D01*
X104427390Y-87800000D01*
X103557762Y-87800000D01*
X103601566Y-87963483D01*
X103601570Y-87963492D01*
X103683123Y-88138384D01*
X103693615Y-88207462D01*
X103665095Y-88271246D01*
X103606619Y-88309485D01*
X103536751Y-88310040D01*
X103483060Y-88278470D01*
X101706137Y-86501547D01*
X99419413Y-84214822D01*
X99385928Y-84153499D01*
X99387319Y-84095048D01*
X99391172Y-84080668D01*
X99405635Y-84026692D01*
X99424830Y-83807288D01*
X99425468Y-83800001D01*
X99425468Y-83799998D01*
X99417096Y-83704309D01*
X99405635Y-83573308D01*
X99355225Y-83385176D01*
X99346741Y-83353511D01*
X99346738Y-83353502D01*
X99305321Y-83264684D01*
X99250568Y-83147266D01*
X99120047Y-82960861D01*
X99120045Y-82960858D01*
X98959141Y-82799954D01*
X98772734Y-82669432D01*
X98772728Y-82669429D01*
X98714725Y-82642382D01*
X98662285Y-82596210D01*
X98643133Y-82529017D01*
X98663348Y-82462135D01*
X98714725Y-82417618D01*
X98772734Y-82390568D01*
X98959139Y-82260047D01*
X99120047Y-82099139D01*
X99250568Y-81912734D01*
X99346739Y-81706496D01*
X99405635Y-81486692D01*
X99425468Y-81260000D01*
X99425388Y-81259090D01*
X99412805Y-81115264D01*
X99405635Y-81033308D01*
X99354779Y-80843510D01*
X99346741Y-80813511D01*
X99346738Y-80813502D01*
X99345041Y-80809862D01*
X99250568Y-80607266D01*
X99120047Y-80420861D01*
X99120045Y-80420858D01*
X98959141Y-80259954D01*
X98772735Y-80129433D01*
X98772736Y-80129433D01*
X98772734Y-80129432D01*
X98714132Y-80102105D01*
X98661694Y-80055933D01*
X98642543Y-79988739D01*
X98662759Y-79921858D01*
X98714135Y-79877341D01*
X98772483Y-79850133D01*
X98803882Y-79828146D01*
X98371099Y-79395363D01*
X98337614Y-79334040D01*
X98342598Y-79264348D01*
X98384470Y-79208415D01*
X98403503Y-79197361D01*
X98408451Y-79194352D01*
X98408458Y-79194349D01*
X98525739Y-79098934D01*
X98605312Y-78986204D01*
X98660052Y-78942788D01*
X98729577Y-78935858D01*
X98791812Y-78967616D01*
X98794296Y-78970032D01*
X99228146Y-79403882D01*
X99250135Y-79372480D01*
X99250136Y-79372478D01*
X99346264Y-79166331D01*
X99346269Y-79166317D01*
X99405139Y-78946610D01*
X99405141Y-78946599D01*
X99424966Y-78720002D01*
X99424966Y-78719997D01*
X99405141Y-78493400D01*
X99405139Y-78493389D01*
X99346269Y-78273682D01*
X99346265Y-78273673D01*
X99250134Y-78067518D01*
X99250133Y-78067516D01*
X99228146Y-78036116D01*
X99228146Y-78036115D01*
X98792651Y-78471611D01*
X98731328Y-78505096D01*
X98661636Y-78500112D01*
X98605703Y-78458240D01*
X98594872Y-78440978D01*
X98580791Y-78413803D01*
X98573558Y-78399844D01*
X98470362Y-78289348D01*
X98470361Y-78289347D01*
X98470360Y-78289346D01*
X98470356Y-78289343D01*
X98391329Y-78241285D01*
X98344277Y-78189634D01*
X98332620Y-78120743D01*
X98360058Y-78056487D01*
X98368077Y-78047657D01*
X98803883Y-77611852D01*
X98803882Y-77611851D01*
X98772485Y-77589867D01*
X98714133Y-77562657D01*
X98661694Y-77516484D01*
X98642542Y-77449291D01*
X98662758Y-77382410D01*
X98714129Y-77337895D01*
X98772734Y-77310568D01*
X98959139Y-77180047D01*
X99120047Y-77019139D01*
X99250568Y-76832734D01*
X99279822Y-76769999D01*
X101244538Y-76769999D01*
X101264337Y-76971031D01*
X101323486Y-77166018D01*
X101324109Y-77235885D01*
X101309902Y-77264589D01*
X101310895Y-77265132D01*
X101306645Y-77272913D01*
X101256403Y-77407620D01*
X101256401Y-77407627D01*
X101250000Y-77467155D01*
X101250000Y-77740000D01*
X101921527Y-77740000D01*
X101957522Y-77745339D01*
X102055292Y-77774997D01*
X102113731Y-77813295D01*
X102142187Y-77877107D01*
X102133810Y-77936670D01*
X102133971Y-77936711D01*
X102133596Y-77938188D01*
X102132855Y-77943463D01*
X102131449Y-77946667D01*
X102131448Y-77946672D01*
X102121113Y-78071392D01*
X102123516Y-78080880D01*
X102150024Y-78185563D01*
X102147400Y-78255380D01*
X102107444Y-78312698D01*
X102042842Y-78339314D01*
X102029819Y-78340000D01*
X101250000Y-78340000D01*
X101250000Y-78612844D01*
X101256401Y-78672372D01*
X101256403Y-78672379D01*
X101306645Y-78807086D01*
X101306649Y-78807093D01*
X101392809Y-78922187D01*
X101392812Y-78922190D01*
X101507906Y-79008350D01*
X101507913Y-79008354D01*
X101642620Y-79058596D01*
X101642627Y-79058598D01*
X101702155Y-79064999D01*
X101702172Y-79065000D01*
X102200000Y-79065000D01*
X102200000Y-78507165D01*
X102219685Y-78440126D01*
X102272489Y-78394371D01*
X102341647Y-78384427D01*
X102364263Y-78389884D01*
X102437422Y-78415000D01*
X102437424Y-78415000D01*
X102531073Y-78415000D01*
X102623446Y-78399586D01*
X102623447Y-78399585D01*
X102623449Y-78399585D01*
X102633166Y-78396250D01*
X102634247Y-78399399D01*
X102685286Y-78388487D01*
X102750663Y-78413137D01*
X102792334Y-78469220D01*
X102799999Y-78512139D01*
X102799999Y-79064999D01*
X102800000Y-79065000D01*
X103297828Y-79065000D01*
X103297844Y-79064999D01*
X103357372Y-79058598D01*
X103357379Y-79058596D01*
X103492086Y-79008354D01*
X103492093Y-79008350D01*
X103607187Y-78922190D01*
X103607190Y-78922187D01*
X103693350Y-78807093D01*
X103693354Y-78807086D01*
X103743596Y-78672379D01*
X103743598Y-78672372D01*
X103749999Y-78612844D01*
X103750000Y-78612827D01*
X103750000Y-78340000D01*
X102967693Y-78340000D01*
X102900654Y-78320315D01*
X102854899Y-78267511D01*
X102844955Y-78198353D01*
X102854137Y-78166190D01*
X102868551Y-78133330D01*
X102878886Y-78008605D01*
X102857700Y-77924942D01*
X102860325Y-77855126D01*
X102900281Y-77797809D01*
X102941908Y-77775846D01*
X103042478Y-77745338D01*
X103078473Y-77740000D01*
X103750000Y-77740000D01*
X103750000Y-77467172D01*
X103749999Y-77467155D01*
X103743598Y-77407627D01*
X103743596Y-77407620D01*
X103693354Y-77272913D01*
X103689103Y-77265128D01*
X103691287Y-77263935D01*
X103671490Y-77210862D01*
X103676514Y-77166016D01*
X103677020Y-77164344D01*
X103677023Y-77164341D01*
X103735662Y-76971033D01*
X103755462Y-76770000D01*
X103735662Y-76568967D01*
X103677023Y-76375659D01*
X103677021Y-76375656D01*
X103677021Y-76375654D01*
X103640834Y-76307953D01*
X103626592Y-76239550D01*
X103651592Y-76174307D01*
X103707897Y-76132936D01*
X103750192Y-76125500D01*
X104459883Y-76125500D01*
X104526922Y-76145185D01*
X104572677Y-76197989D01*
X104583500Y-76259226D01*
X104568116Y-76454707D01*
X104564551Y-76499999D01*
X104584317Y-76751151D01*
X104643126Y-76996110D01*
X104739533Y-77228859D01*
X104871160Y-77443653D01*
X104871161Y-77443656D01*
X104895996Y-77472734D01*
X105034776Y-77635224D01*
X105138723Y-77724003D01*
X105226343Y-77798838D01*
X105226346Y-77798839D01*
X105441140Y-77930466D01*
X105666953Y-78024000D01*
X105673889Y-78026873D01*
X105918852Y-78085683D01*
X106170000Y-78105449D01*
X106421148Y-78085683D01*
X106666111Y-78026873D01*
X106898859Y-77930466D01*
X107113659Y-77798836D01*
X107305224Y-77635224D01*
X107468836Y-77443659D01*
X107600466Y-77228859D01*
X107696873Y-76996111D01*
X107755683Y-76751148D01*
X107775449Y-76500000D01*
X107755683Y-76248852D01*
X107696873Y-76003889D01*
X107687333Y-75980858D01*
X107600466Y-75771140D01*
X107468839Y-75556346D01*
X107468838Y-75556343D01*
X107407051Y-75484000D01*
X107305224Y-75364776D01*
X107178571Y-75256604D01*
X107113656Y-75201161D01*
X107113653Y-75201160D01*
X106898859Y-75069533D01*
X106666110Y-74973126D01*
X106421151Y-74914317D01*
X106232786Y-74899492D01*
X106170000Y-74894551D01*
X106169999Y-74894551D01*
X105918848Y-74914317D01*
X105673887Y-74973127D01*
X105673886Y-74973127D01*
X105635431Y-74989055D01*
X105565961Y-74996522D01*
X105528246Y-74983156D01*
X105523024Y-74980285D01*
X105506763Y-74969604D01*
X105490933Y-74957325D01*
X105448168Y-74938818D01*
X105442922Y-74936248D01*
X105402093Y-74913803D01*
X105402092Y-74913802D01*
X105382693Y-74908822D01*
X105364281Y-74902518D01*
X105345898Y-74894562D01*
X105345892Y-74894560D01*
X105299874Y-74887272D01*
X105294152Y-74886087D01*
X105249021Y-74874500D01*
X105249019Y-74874500D01*
X105228984Y-74874500D01*
X105209586Y-74872973D01*
X105202162Y-74871797D01*
X105189805Y-74869840D01*
X105189804Y-74869840D01*
X105143416Y-74874225D01*
X105137578Y-74874500D01*
X103596945Y-74874500D01*
X103529906Y-74854815D01*
X103501091Y-74829164D01*
X103453646Y-74771352D01*
X103345504Y-74682603D01*
X103297494Y-74643202D01*
X103297492Y-74643201D01*
X103297488Y-74643198D01*
X103119345Y-74547978D01*
X102926031Y-74489337D01*
X102815900Y-74478490D01*
X102775380Y-74474500D01*
X102224620Y-74474500D01*
X102187433Y-74478162D01*
X102073968Y-74489337D01*
X101880654Y-74547978D01*
X101702511Y-74643198D01*
X101702504Y-74643203D01*
X101546352Y-74771352D01*
X101418203Y-74927504D01*
X101418198Y-74927511D01*
X101322978Y-75105654D01*
X101264337Y-75298968D01*
X101244538Y-75500000D01*
X101264337Y-75701031D01*
X101285605Y-75771141D01*
X101322977Y-75894341D01*
X101418202Y-76072494D01*
X101418203Y-76072496D01*
X101420368Y-76076545D01*
X101434610Y-76144948D01*
X101420368Y-76193452D01*
X101322978Y-76375654D01*
X101264337Y-76568968D01*
X101244538Y-76769999D01*
X99279822Y-76769999D01*
X99346739Y-76626496D01*
X99405635Y-76406692D01*
X99425468Y-76180000D01*
X99405635Y-75953308D01*
X99356824Y-75771141D01*
X99346741Y-75733511D01*
X99346738Y-75733502D01*
X99317495Y-75670791D01*
X99250568Y-75527266D01*
X99127936Y-75352128D01*
X99120045Y-75340858D01*
X98959141Y-75179954D01*
X98772734Y-75049432D01*
X98772732Y-75049431D01*
X98566497Y-74953261D01*
X98566488Y-74953258D01*
X98346697Y-74894366D01*
X98346693Y-74894365D01*
X98346692Y-74894365D01*
X98346691Y-74894364D01*
X98346686Y-74894364D01*
X98120002Y-74874532D01*
X98119998Y-74874532D01*
X97893313Y-74894364D01*
X97893302Y-74894366D01*
X97673511Y-74953258D01*
X97673502Y-74953261D01*
X97467267Y-75049431D01*
X97467265Y-75049432D01*
X97280858Y-75179954D01*
X97119954Y-75340858D01*
X96989432Y-75527265D01*
X96989431Y-75527267D01*
X96893261Y-75733502D01*
X96893258Y-75733511D01*
X96834366Y-75953302D01*
X96834364Y-75953313D01*
X96814532Y-76179998D01*
X96814532Y-76180001D01*
X96834364Y-76406686D01*
X96834366Y-76406697D01*
X96893258Y-76626488D01*
X96893261Y-76626497D01*
X96989431Y-76832732D01*
X96989432Y-76832734D01*
X97119954Y-77019141D01*
X97280858Y-77180045D01*
X97280861Y-77180047D01*
X97467266Y-77310568D01*
X97525865Y-77337893D01*
X97578305Y-77384065D01*
X97597457Y-77451258D01*
X97577242Y-77518139D01*
X97525867Y-77562657D01*
X97467513Y-77589868D01*
X97436115Y-77611851D01*
X97868900Y-78044636D01*
X97902385Y-78105959D01*
X97897401Y-78175651D01*
X97855529Y-78231584D01*
X97836480Y-78242647D01*
X97831543Y-78245650D01*
X97714261Y-78341066D01*
X97714255Y-78341072D01*
X97634688Y-78453794D01*
X97579946Y-78497212D01*
X97510421Y-78504141D01*
X97448186Y-78472382D01*
X97445703Y-78469967D01*
X97011851Y-78036115D01*
X96989867Y-78067514D01*
X96893734Y-78273673D01*
X96893730Y-78273682D01*
X96834860Y-78493389D01*
X96834858Y-78493400D01*
X96815034Y-78719997D01*
X96815034Y-78720002D01*
X96834858Y-78946599D01*
X96834860Y-78946610D01*
X96893730Y-79166317D01*
X96893734Y-79166326D01*
X96989867Y-79372485D01*
X97011851Y-79403882D01*
X97011852Y-79403883D01*
X97447348Y-78968387D01*
X97508671Y-78934902D01*
X97578362Y-78939886D01*
X97634296Y-78981757D01*
X97645127Y-78999020D01*
X97660231Y-79028170D01*
X97666442Y-79040156D01*
X97769638Y-79150652D01*
X97835242Y-79190547D01*
X97848669Y-79198712D01*
X97895721Y-79250364D01*
X97907378Y-79319254D01*
X97879940Y-79383511D01*
X97871921Y-79392341D01*
X97436115Y-79828146D01*
X97467516Y-79850133D01*
X97467522Y-79850136D01*
X97525865Y-79877342D01*
X97578305Y-79923514D01*
X97597457Y-79990707D01*
X97577242Y-80057589D01*
X97525867Y-80102105D01*
X97467266Y-80129432D01*
X97467264Y-80129433D01*
X97280858Y-80259954D01*
X97119954Y-80420858D01*
X96989432Y-80607265D01*
X96989431Y-80607267D01*
X96893261Y-80813502D01*
X96893258Y-80813511D01*
X96834366Y-81033302D01*
X96834364Y-81033313D01*
X96814532Y-81259998D01*
X96814532Y-81260001D01*
X96834364Y-81486686D01*
X96834366Y-81486697D01*
X96893258Y-81706488D01*
X96893261Y-81706497D01*
X96989431Y-81912732D01*
X96989432Y-81912734D01*
X97119954Y-82099141D01*
X97280858Y-82260045D01*
X97280861Y-82260047D01*
X97467266Y-82390568D01*
X97510154Y-82410567D01*
X97525275Y-82417618D01*
X97577714Y-82463791D01*
X97596866Y-82530984D01*
X97576650Y-82597865D01*
X97525275Y-82642382D01*
X97467267Y-82669431D01*
X97467265Y-82669432D01*
X97280858Y-82799954D01*
X97119954Y-82960858D01*
X96989432Y-83147265D01*
X96989431Y-83147267D01*
X96893261Y-83353502D01*
X96893258Y-83353511D01*
X96834366Y-83573302D01*
X96834364Y-83573313D01*
X96814532Y-83799998D01*
X96814532Y-83800001D01*
X96834364Y-84026686D01*
X96834366Y-84026697D01*
X96893258Y-84246488D01*
X96893261Y-84246497D01*
X96989431Y-84452732D01*
X96989432Y-84452734D01*
X97119954Y-84639141D01*
X97280858Y-84800045D01*
X97280861Y-84800047D01*
X97467266Y-84930568D01*
X97525275Y-84957618D01*
X97577714Y-85003791D01*
X97596866Y-85070984D01*
X97576650Y-85137865D01*
X97525275Y-85182382D01*
X97467267Y-85209431D01*
X97467265Y-85209432D01*
X97280858Y-85339954D01*
X97119954Y-85500858D01*
X96989432Y-85687265D01*
X96989431Y-85687267D01*
X96893261Y-85893502D01*
X96893258Y-85893511D01*
X96834366Y-86113302D01*
X96834364Y-86113313D01*
X96814532Y-86339998D01*
X96814532Y-86340001D01*
X96834364Y-86566686D01*
X96834366Y-86566697D01*
X96893258Y-86786488D01*
X96893261Y-86786497D01*
X96989431Y-86992732D01*
X96989432Y-86992734D01*
X97119954Y-87179141D01*
X97280858Y-87340045D01*
X97280861Y-87340047D01*
X97467266Y-87470568D01*
X97525275Y-87497618D01*
X97577714Y-87543791D01*
X97596866Y-87610984D01*
X97576650Y-87677865D01*
X97525275Y-87722381D01*
X97508272Y-87730310D01*
X97467267Y-87749431D01*
X97467265Y-87749432D01*
X97280858Y-87879954D01*
X97119954Y-88040858D01*
X96989432Y-88227265D01*
X96989431Y-88227267D01*
X96893261Y-88433502D01*
X96893258Y-88433511D01*
X96834366Y-88653302D01*
X96834364Y-88653313D01*
X96816024Y-88862947D01*
X96814532Y-88880000D01*
X96834364Y-89106686D01*
X96834365Y-89106691D01*
X96834366Y-89106697D01*
X96852680Y-89175048D01*
X96851017Y-89244897D01*
X96820586Y-89294821D01*
X96116208Y-89999199D01*
X96103951Y-90009020D01*
X96104134Y-90009241D01*
X96098123Y-90014213D01*
X96050772Y-90064636D01*
X96029889Y-90085519D01*
X96029877Y-90085532D01*
X96025621Y-90091017D01*
X96021837Y-90095447D01*
X95989937Y-90129418D01*
X95989936Y-90129420D01*
X95980284Y-90146976D01*
X95969610Y-90163226D01*
X95957329Y-90179061D01*
X95957324Y-90179068D01*
X95938815Y-90221838D01*
X95936245Y-90227084D01*
X95913803Y-90267906D01*
X95908822Y-90287307D01*
X95902521Y-90305710D01*
X95894562Y-90324102D01*
X95894561Y-90324105D01*
X95887271Y-90370127D01*
X95886087Y-90375846D01*
X95874501Y-90420972D01*
X95874500Y-90420982D01*
X95874500Y-90441016D01*
X95872973Y-90460413D01*
X95872458Y-90463664D01*
X95871375Y-90470507D01*
X95869840Y-90480196D01*
X91300500Y-90480196D01*
X91300500Y-86249805D01*
X91300499Y-86249802D01*
X91291203Y-86209076D01*
X91290044Y-86202251D01*
X91285368Y-86160745D01*
X91271574Y-86121324D01*
X91269652Y-86114655D01*
X91260359Y-86073939D01*
X91242245Y-86036326D01*
X91239583Y-86029898D01*
X91225789Y-85990478D01*
X91219774Y-85980905D01*
X91203563Y-85955106D01*
X91200213Y-85949044D01*
X91182091Y-85911413D01*
X91156049Y-85878757D01*
X91152038Y-85873104D01*
X91138017Y-85850790D01*
X91129818Y-85837740D01*
X87042078Y-81750000D01*
X91094540Y-81750000D01*
X91114326Y-81938256D01*
X91114327Y-81938259D01*
X91172818Y-82118277D01*
X91172821Y-82118284D01*
X91267467Y-82282216D01*
X91347770Y-82371401D01*
X91394129Y-82422888D01*
X91547265Y-82534148D01*
X91547270Y-82534151D01*
X91720192Y-82611142D01*
X91720197Y-82611144D01*
X91905354Y-82650500D01*
X91905355Y-82650500D01*
X92094644Y-82650500D01*
X92094646Y-82650500D01*
X92279803Y-82611144D01*
X92452730Y-82534151D01*
X92605871Y-82422888D01*
X92732533Y-82282216D01*
X92827179Y-82118284D01*
X92885674Y-81938256D01*
X92903321Y-81770345D01*
X92929905Y-81705732D01*
X92938952Y-81695636D01*
X95383786Y-79250802D01*
X95396048Y-79240980D01*
X95395865Y-79240759D01*
X95401867Y-79235792D01*
X95401877Y-79235786D01*
X95449241Y-79185348D01*
X95470120Y-79164470D01*
X95474373Y-79158986D01*
X95478150Y-79154563D01*
X95510062Y-79120582D01*
X95519714Y-79103023D01*
X95530389Y-79086772D01*
X95542674Y-79070936D01*
X95561186Y-79028152D01*
X95563742Y-79022935D01*
X95586197Y-78982092D01*
X95591180Y-78962680D01*
X95597477Y-78944291D01*
X95605438Y-78925895D01*
X95612729Y-78879853D01*
X95613908Y-78874162D01*
X95625500Y-78829019D01*
X95625500Y-78808982D01*
X95627027Y-78789582D01*
X95630160Y-78769804D01*
X95625835Y-78724047D01*
X95625775Y-78723415D01*
X95625500Y-78717577D01*
X95625500Y-72763339D01*
X95645185Y-72696300D01*
X95697989Y-72650545D01*
X95767147Y-72640601D01*
X95830703Y-72669626D01*
X95837182Y-72675658D01*
X95911183Y-72749660D01*
X96097517Y-72880134D01*
X96303673Y-72976265D01*
X96303682Y-72976269D01*
X96450000Y-73015473D01*
X96450000Y-72248422D01*
X96469685Y-72181383D01*
X96522489Y-72135628D01*
X96591647Y-72125684D01*
X96615243Y-72133166D01*
X96615574Y-72132150D01*
X96624855Y-72135166D01*
X96718514Y-72150000D01*
X96718519Y-72150000D01*
X96781486Y-72150000D01*
X96875144Y-72135166D01*
X96875146Y-72135165D01*
X96875148Y-72135165D01*
X96875149Y-72135164D01*
X96884426Y-72132150D01*
X96885352Y-72135000D01*
X96938359Y-72125039D01*
X97003103Y-72151308D01*
X97043367Y-72208409D01*
X97050000Y-72248422D01*
X97050000Y-73015472D01*
X97196317Y-72976269D01*
X97196326Y-72976265D01*
X97402482Y-72880134D01*
X97588820Y-72749657D01*
X97749657Y-72588820D01*
X97880134Y-72402482D01*
X97976265Y-72196326D01*
X97976268Y-72196320D01*
X98015475Y-72050000D01*
X97248423Y-72050000D01*
X97181384Y-72030315D01*
X97135629Y-71977511D01*
X97125685Y-71908353D01*
X97133165Y-71884755D01*
X97132150Y-71884426D01*
X97135163Y-71875151D01*
X97135165Y-71875148D01*
X97136137Y-71869013D01*
X97154986Y-71750003D01*
X97154986Y-71750001D01*
X103064532Y-71750001D01*
X103084364Y-71976686D01*
X103084366Y-71976697D01*
X103143258Y-72196488D01*
X103143261Y-72196497D01*
X103239431Y-72402732D01*
X103239432Y-72402734D01*
X103369954Y-72589141D01*
X103530858Y-72750045D01*
X103538309Y-72755262D01*
X103717266Y-72880568D01*
X103923504Y-72976739D01*
X104143308Y-73035635D01*
X104281269Y-73047705D01*
X104369998Y-73055468D01*
X104370000Y-73055468D01*
X104370002Y-73055468D01*
X104426673Y-73050509D01*
X104596692Y-73035635D01*
X104816496Y-72976739D01*
X105022734Y-72880568D01*
X105209139Y-72750047D01*
X105370047Y-72589139D01*
X105500568Y-72402734D01*
X105596739Y-72196496D01*
X105655635Y-71976692D01*
X105674906Y-71756421D01*
X105675468Y-71750001D01*
X105675468Y-71749998D01*
X105663707Y-71615574D01*
X105655993Y-71527401D01*
X115144785Y-71527401D01*
X115163602Y-71730483D01*
X115219417Y-71926648D01*
X115219422Y-71926661D01*
X115310327Y-72109222D01*
X115433237Y-72271982D01*
X115572638Y-72399061D01*
X115578069Y-72404013D01*
X115583958Y-72409381D01*
X115583960Y-72409383D01*
X115640917Y-72444649D01*
X115757363Y-72516749D01*
X115947544Y-72590425D01*
X116148024Y-72627901D01*
X116148026Y-72627901D01*
X116351974Y-72627901D01*
X116351976Y-72627901D01*
X116552456Y-72590425D01*
X116742637Y-72516749D01*
X116916041Y-72409382D01*
X117066764Y-72271980D01*
X117189673Y-72109222D01*
X117280582Y-71926651D01*
X117336397Y-71730484D01*
X117355215Y-71527401D01*
X117348103Y-71450654D01*
X117336397Y-71324318D01*
X117318478Y-71261341D01*
X117280582Y-71128151D01*
X117265203Y-71097266D01*
X117201163Y-70968655D01*
X117189673Y-70945580D01*
X117066764Y-70782822D01*
X117064014Y-70780315D01*
X117059551Y-70776246D01*
X117023269Y-70716535D01*
X117025030Y-70646688D01*
X117064273Y-70588880D01*
X117085277Y-70576787D01*
X117084546Y-70575448D01*
X117092326Y-70571198D01*
X117092331Y-70571197D01*
X117207546Y-70484947D01*
X117293796Y-70369732D01*
X117344091Y-70234884D01*
X117350500Y-70175274D01*
X117350499Y-68879529D01*
X117344091Y-68819918D01*
X117320572Y-68756861D01*
X117293797Y-68685072D01*
X117293793Y-68685065D01*
X117207547Y-68569856D01*
X117207544Y-68569853D01*
X117092335Y-68483607D01*
X117092328Y-68483603D01*
X116957482Y-68433309D01*
X116957483Y-68433309D01*
X116897883Y-68426902D01*
X116897881Y-68426901D01*
X116897873Y-68426901D01*
X116897864Y-68426901D01*
X115602129Y-68426901D01*
X115602123Y-68426902D01*
X115542516Y-68433309D01*
X115407671Y-68483603D01*
X115407664Y-68483607D01*
X115292455Y-68569853D01*
X115292452Y-68569856D01*
X115206206Y-68685065D01*
X115206202Y-68685072D01*
X115155908Y-68819918D01*
X115153908Y-68838525D01*
X115149501Y-68879524D01*
X115149500Y-68879536D01*
X115149500Y-70175271D01*
X115149501Y-70175277D01*
X115155908Y-70234884D01*
X115206202Y-70369729D01*
X115206206Y-70369736D01*
X115292452Y-70484945D01*
X115292455Y-70484948D01*
X115407664Y-70571194D01*
X115415454Y-70575448D01*
X115413755Y-70578558D01*
X115456124Y-70610228D01*
X115480588Y-70675675D01*
X115465784Y-70743959D01*
X115440452Y-70776243D01*
X115433236Y-70782820D01*
X115310327Y-70945579D01*
X115219422Y-71128140D01*
X115219417Y-71128153D01*
X115163602Y-71324318D01*
X115144785Y-71527400D01*
X115144785Y-71527401D01*
X105655993Y-71527401D01*
X105655635Y-71523308D01*
X105596739Y-71303504D01*
X105500568Y-71097266D01*
X105394357Y-70945579D01*
X105370045Y-70910858D01*
X105209141Y-70749954D01*
X105022734Y-70619432D01*
X105022732Y-70619431D01*
X104873840Y-70550001D01*
X107149500Y-70550001D01*
X107149501Y-70550018D01*
X107160000Y-70652796D01*
X107160001Y-70652799D01*
X107215185Y-70819331D01*
X107215187Y-70819336D01*
X107217286Y-70822739D01*
X107307288Y-70968656D01*
X107431344Y-71092712D01*
X107580666Y-71184814D01*
X107747203Y-71239999D01*
X107849991Y-71250500D01*
X109150008Y-71250499D01*
X109252797Y-71239999D01*
X109419334Y-71184814D01*
X109568656Y-71092712D01*
X109692712Y-70968656D01*
X109784814Y-70819334D01*
X109784814Y-70819331D01*
X109788178Y-70813879D01*
X109840126Y-70767154D01*
X109909088Y-70755931D01*
X109973170Y-70783774D01*
X109981398Y-70791294D01*
X110128599Y-70938495D01*
X110171675Y-70968657D01*
X110322165Y-71074032D01*
X110322167Y-71074033D01*
X110322170Y-71074035D01*
X110536337Y-71173903D01*
X110536343Y-71173904D01*
X110536344Y-71173905D01*
X110577050Y-71184812D01*
X110764592Y-71235063D01*
X110941034Y-71250500D01*
X110999999Y-71255659D01*
X111000000Y-71255659D01*
X111000001Y-71255659D01*
X111058966Y-71250500D01*
X111235408Y-71235063D01*
X111463663Y-71173903D01*
X111677829Y-71074035D01*
X111871401Y-70938495D01*
X112038495Y-70771401D01*
X112174035Y-70577829D01*
X112273903Y-70363663D01*
X112335063Y-70135408D01*
X112350500Y-69958966D01*
X112350500Y-69541034D01*
X112335063Y-69364592D01*
X112273903Y-69136337D01*
X112174035Y-68922171D01*
X112168889Y-68914821D01*
X112038494Y-68728597D01*
X111871402Y-68561506D01*
X111871395Y-68561501D01*
X111861689Y-68554705D01*
X111786468Y-68502034D01*
X111677834Y-68425967D01*
X111677830Y-68425965D01*
X111657316Y-68416399D01*
X111463663Y-68326097D01*
X111463659Y-68326096D01*
X111463655Y-68326094D01*
X111235413Y-68264938D01*
X111235403Y-68264936D01*
X111000001Y-68244341D01*
X110999999Y-68244341D01*
X110764596Y-68264936D01*
X110764586Y-68264938D01*
X110536344Y-68326094D01*
X110536335Y-68326098D01*
X110322171Y-68425964D01*
X110322169Y-68425965D01*
X110128597Y-68561505D01*
X109981398Y-68708705D01*
X109920075Y-68742190D01*
X109850383Y-68737206D01*
X109794450Y-68695334D01*
X109788178Y-68686120D01*
X109719390Y-68574597D01*
X109692712Y-68531344D01*
X109568656Y-68407288D01*
X109443467Y-68330071D01*
X109419336Y-68315187D01*
X109419331Y-68315185D01*
X109404782Y-68310364D01*
X109252797Y-68260001D01*
X109252795Y-68260000D01*
X109150010Y-68249500D01*
X107849998Y-68249500D01*
X107849981Y-68249501D01*
X107747203Y-68260000D01*
X107747200Y-68260001D01*
X107580668Y-68315185D01*
X107580663Y-68315187D01*
X107431342Y-68407289D01*
X107307289Y-68531342D01*
X107215187Y-68680663D01*
X107215185Y-68680668D01*
X107194799Y-68742190D01*
X107160001Y-68847203D01*
X107160001Y-68847204D01*
X107160000Y-68847204D01*
X107149500Y-68949983D01*
X107149500Y-70550001D01*
X104873840Y-70550001D01*
X104816497Y-70523261D01*
X104816488Y-70523258D01*
X104596697Y-70464366D01*
X104596693Y-70464365D01*
X104596692Y-70464365D01*
X104596691Y-70464364D01*
X104596686Y-70464364D01*
X104370002Y-70444532D01*
X104369998Y-70444532D01*
X104143313Y-70464364D01*
X104143302Y-70464366D01*
X103923511Y-70523258D01*
X103923502Y-70523261D01*
X103717267Y-70619431D01*
X103717265Y-70619432D01*
X103530858Y-70749954D01*
X103369954Y-70910858D01*
X103239432Y-71097265D01*
X103239431Y-71097267D01*
X103143261Y-71303502D01*
X103143258Y-71303511D01*
X103084366Y-71523302D01*
X103084364Y-71523313D01*
X103064532Y-71749998D01*
X103064532Y-71750001D01*
X97154986Y-71750001D01*
X97154986Y-71749996D01*
X97135166Y-71624856D01*
X97132150Y-71615574D01*
X97134997Y-71614648D01*
X97125043Y-71561611D01*
X97151328Y-71496874D01*
X97208439Y-71456623D01*
X97248423Y-71450000D01*
X98015475Y-71450000D01*
X98015474Y-71449999D01*
X97976268Y-71303679D01*
X97976265Y-71303673D01*
X97880134Y-71097517D01*
X97749657Y-70911179D01*
X97588820Y-70750342D01*
X97402482Y-70619865D01*
X97196326Y-70523734D01*
X97196320Y-70523731D01*
X97050000Y-70484525D01*
X97050000Y-71251577D01*
X97030315Y-71318616D01*
X96977511Y-71364371D01*
X96908353Y-71374315D01*
X96884755Y-71366834D01*
X96884426Y-71367850D01*
X96875144Y-71364833D01*
X96781486Y-71350000D01*
X96781481Y-71350000D01*
X96718519Y-71350000D01*
X96718514Y-71350000D01*
X96624855Y-71364833D01*
X96615574Y-71367850D01*
X96614648Y-71365002D01*
X96561611Y-71374957D01*
X96496874Y-71348672D01*
X96456623Y-71291561D01*
X96450000Y-71251577D01*
X96450000Y-70484525D01*
X96449999Y-70484525D01*
X96303679Y-70523731D01*
X96303673Y-70523734D01*
X96097517Y-70619865D01*
X95911182Y-70750339D01*
X95837180Y-70824342D01*
X95775856Y-70857826D01*
X95706165Y-70852841D01*
X95650231Y-70810970D01*
X95625815Y-70745505D01*
X95625500Y-70736686D01*
X95625500Y-70500451D01*
X95645185Y-70433412D01*
X95661820Y-70412769D01*
X95718702Y-70355888D01*
X95718703Y-70355885D01*
X96275179Y-69799410D01*
X96336500Y-69765927D01*
X96394947Y-69767317D01*
X96463308Y-69785635D01*
X96620780Y-69799412D01*
X96689998Y-69805468D01*
X96690000Y-69805468D01*
X96690002Y-69805468D01*
X96759220Y-69799412D01*
X96916692Y-69785635D01*
X97136496Y-69726739D01*
X97342734Y-69630568D01*
X97529139Y-69500047D01*
X97690047Y-69339139D01*
X97820568Y-69152734D01*
X97916739Y-68946496D01*
X97975635Y-68726692D01*
X97995468Y-68500001D01*
X103004532Y-68500001D01*
X103024364Y-68726686D01*
X103024366Y-68726697D01*
X103083258Y-68946488D01*
X103083261Y-68946497D01*
X103179431Y-69152732D01*
X103179432Y-69152734D01*
X103309954Y-69339141D01*
X103470858Y-69500045D01*
X103470861Y-69500047D01*
X103657266Y-69630568D01*
X103863504Y-69726739D01*
X103863509Y-69726740D01*
X103863511Y-69726741D01*
X103916415Y-69740916D01*
X104083308Y-69785635D01*
X104240780Y-69799412D01*
X104309998Y-69805468D01*
X104310000Y-69805468D01*
X104310002Y-69805468D01*
X104379220Y-69799412D01*
X104536692Y-69785635D01*
X104756496Y-69726739D01*
X104962734Y-69630568D01*
X105149139Y-69500047D01*
X105310047Y-69339139D01*
X105440568Y-69152734D01*
X105536739Y-68946496D01*
X105595635Y-68726692D01*
X105615468Y-68500000D01*
X105615459Y-68499901D01*
X105604030Y-68369261D01*
X105595635Y-68273308D01*
X105536739Y-68053504D01*
X105440568Y-67847266D01*
X105310047Y-67660861D01*
X105310045Y-67660858D01*
X105149141Y-67499954D01*
X104962734Y-67369432D01*
X104962732Y-67369431D01*
X104756497Y-67273261D01*
X104756488Y-67273258D01*
X104536697Y-67214366D01*
X104536693Y-67214365D01*
X104536692Y-67214365D01*
X104536691Y-67214364D01*
X104536686Y-67214364D01*
X104310002Y-67194532D01*
X104309998Y-67194532D01*
X104083313Y-67214364D01*
X104083302Y-67214366D01*
X103863511Y-67273258D01*
X103863502Y-67273261D01*
X103657267Y-67369431D01*
X103657265Y-67369432D01*
X103470858Y-67499954D01*
X103309954Y-67660858D01*
X103179432Y-67847265D01*
X103179431Y-67847267D01*
X103083261Y-68053502D01*
X103083258Y-68053511D01*
X103024366Y-68273302D01*
X103024364Y-68273313D01*
X103004532Y-68499998D01*
X103004532Y-68500001D01*
X97995468Y-68500001D01*
X97995468Y-68500000D01*
X97995459Y-68499901D01*
X97984030Y-68369261D01*
X97975635Y-68273308D01*
X97916739Y-68053504D01*
X97820568Y-67847266D01*
X97690047Y-67660861D01*
X97690045Y-67660858D01*
X97529141Y-67499954D01*
X97342734Y-67369432D01*
X97342732Y-67369431D01*
X97136497Y-67273261D01*
X97136488Y-67273258D01*
X96916697Y-67214366D01*
X96916693Y-67214365D01*
X96916692Y-67214365D01*
X96916691Y-67214364D01*
X96916686Y-67214364D01*
X96690002Y-67194532D01*
X96689998Y-67194532D01*
X96463313Y-67214364D01*
X96463302Y-67214366D01*
X96243511Y-67273258D01*
X96243502Y-67273261D01*
X96037267Y-67369431D01*
X96037265Y-67369432D01*
X95850858Y-67499954D01*
X95689954Y-67660858D01*
X95559432Y-67847265D01*
X95559431Y-67847267D01*
X95463261Y-68053502D01*
X95463258Y-68053511D01*
X95404366Y-68273302D01*
X95404364Y-68273313D01*
X95384532Y-68499998D01*
X95384532Y-68500000D01*
X95404364Y-68726686D01*
X95404365Y-68726691D01*
X95404366Y-68726697D01*
X95422680Y-68795048D01*
X95421017Y-68864897D01*
X95390586Y-68914821D01*
X94873755Y-69431654D01*
X94719880Y-69585529D01*
X94719877Y-69585532D01*
X94699832Y-69605577D01*
X94616203Y-69689204D01*
X94603944Y-69699028D01*
X94604126Y-69699248D01*
X94598120Y-69704216D01*
X94550771Y-69754637D01*
X94529889Y-69775519D01*
X94529877Y-69775532D01*
X94525621Y-69781017D01*
X94521837Y-69785447D01*
X94489937Y-69819418D01*
X94489936Y-69819420D01*
X94480284Y-69836976D01*
X94469610Y-69853226D01*
X94457329Y-69869061D01*
X94457324Y-69869068D01*
X94438815Y-69911838D01*
X94436245Y-69917084D01*
X94413803Y-69957906D01*
X94408822Y-69977307D01*
X94402521Y-69995710D01*
X94394562Y-70014102D01*
X94394561Y-70014105D01*
X94387271Y-70060127D01*
X94386087Y-70065846D01*
X94374501Y-70110972D01*
X94374500Y-70110982D01*
X94374500Y-70131016D01*
X94372973Y-70150415D01*
X94369840Y-70170194D01*
X94369840Y-70170195D01*
X94374225Y-70216583D01*
X94374500Y-70222421D01*
X94374500Y-78439547D01*
X94354815Y-78506586D01*
X94338181Y-78527228D01*
X92052228Y-80813181D01*
X91990905Y-80846666D01*
X91964547Y-80849500D01*
X91905354Y-80849500D01*
X91872897Y-80856398D01*
X91720197Y-80888855D01*
X91720192Y-80888857D01*
X91547270Y-80965848D01*
X91547265Y-80965851D01*
X91394129Y-81077111D01*
X91267466Y-81217785D01*
X91172821Y-81381715D01*
X91172818Y-81381722D01*
X91118260Y-81549635D01*
X91114326Y-81561744D01*
X91094540Y-81750000D01*
X87042078Y-81750000D01*
X84212404Y-78920326D01*
X84178919Y-78859003D01*
X84176557Y-78821842D01*
X84185468Y-78720000D01*
X84185440Y-78719685D01*
X84176093Y-78612844D01*
X84165635Y-78493308D01*
X84111002Y-78289413D01*
X84106741Y-78273511D01*
X84106738Y-78273502D01*
X84103944Y-78267511D01*
X84010568Y-78067266D01*
X83880047Y-77880861D01*
X83880045Y-77880858D01*
X83719141Y-77719954D01*
X83598131Y-77635223D01*
X83532734Y-77589432D01*
X83474132Y-77562105D01*
X83421694Y-77515933D01*
X83402543Y-77448739D01*
X83422759Y-77381858D01*
X83474135Y-77337341D01*
X83532483Y-77310133D01*
X83563882Y-77288146D01*
X83131099Y-76855363D01*
X83097614Y-76794040D01*
X83102598Y-76724348D01*
X83144470Y-76668415D01*
X83163503Y-76657361D01*
X83168451Y-76654352D01*
X83168458Y-76654349D01*
X83285739Y-76558934D01*
X83365312Y-76446204D01*
X83420052Y-76402788D01*
X83489577Y-76395858D01*
X83551812Y-76427616D01*
X83554296Y-76430032D01*
X83988146Y-76863882D01*
X84010135Y-76832480D01*
X84010136Y-76832478D01*
X84015954Y-76820001D01*
X88049532Y-76820001D01*
X88069364Y-77046686D01*
X88069366Y-77046697D01*
X88128258Y-77266488D01*
X88128261Y-77266497D01*
X88224431Y-77472732D01*
X88224432Y-77472734D01*
X88354954Y-77659141D01*
X88515858Y-77820045D01*
X88515861Y-77820047D01*
X88702266Y-77950568D01*
X88908504Y-78046739D01*
X88908509Y-78046740D01*
X88908511Y-78046741D01*
X88939853Y-78055139D01*
X89128308Y-78105635D01*
X89290230Y-78119801D01*
X89354998Y-78125468D01*
X89355000Y-78125468D01*
X89355002Y-78125468D01*
X89415408Y-78120183D01*
X89581692Y-78105635D01*
X89801496Y-78046739D01*
X90007734Y-77950568D01*
X90194139Y-77820047D01*
X90355047Y-77659139D01*
X90398425Y-77597188D01*
X90453001Y-77553563D01*
X90522499Y-77546369D01*
X90584854Y-77577891D01*
X90601573Y-77597186D01*
X90631740Y-77640268D01*
X90644955Y-77659142D01*
X90805858Y-77820045D01*
X90805861Y-77820047D01*
X90992266Y-77950568D01*
X91198504Y-78046739D01*
X91198509Y-78046740D01*
X91198511Y-78046741D01*
X91229853Y-78055139D01*
X91418308Y-78105635D01*
X91580230Y-78119801D01*
X91644998Y-78125468D01*
X91645000Y-78125468D01*
X91645002Y-78125468D01*
X91705408Y-78120183D01*
X91871692Y-78105635D01*
X92091496Y-78046739D01*
X92297734Y-77950568D01*
X92484139Y-77820047D01*
X92645047Y-77659139D01*
X92775568Y-77472734D01*
X92871739Y-77266496D01*
X92930635Y-77046692D01*
X92950468Y-76820000D01*
X92946093Y-76769999D01*
X92942422Y-76728035D01*
X92930635Y-76593308D01*
X92875493Y-76387514D01*
X92871741Y-76373511D01*
X92871738Y-76373502D01*
X92856998Y-76341893D01*
X92775568Y-76167266D01*
X92661171Y-76003889D01*
X92645045Y-75980858D01*
X92484141Y-75819954D01*
X92297734Y-75689432D01*
X92297732Y-75689431D01*
X92091497Y-75593261D01*
X92091488Y-75593258D01*
X91871697Y-75534366D01*
X91871693Y-75534365D01*
X91871692Y-75534365D01*
X91871691Y-75534364D01*
X91871686Y-75534364D01*
X91645002Y-75514532D01*
X91644998Y-75514532D01*
X91418313Y-75534364D01*
X91418302Y-75534366D01*
X91198511Y-75593258D01*
X91198502Y-75593261D01*
X90992267Y-75689431D01*
X90992265Y-75689432D01*
X90805858Y-75819954D01*
X90644953Y-75980859D01*
X90601575Y-76042811D01*
X90546998Y-76086436D01*
X90477500Y-76093630D01*
X90415145Y-76062107D01*
X90398425Y-76042811D01*
X90355046Y-75980859D01*
X90194141Y-75819954D01*
X90007734Y-75689432D01*
X90007732Y-75689431D01*
X89801497Y-75593261D01*
X89801488Y-75593258D01*
X89581697Y-75534366D01*
X89581693Y-75534365D01*
X89581692Y-75534365D01*
X89581691Y-75534364D01*
X89581686Y-75534364D01*
X89355002Y-75514532D01*
X89354998Y-75514532D01*
X89128313Y-75534364D01*
X89128302Y-75534366D01*
X88908511Y-75593258D01*
X88908502Y-75593261D01*
X88702267Y-75689431D01*
X88702265Y-75689432D01*
X88515858Y-75819954D01*
X88354954Y-75980858D01*
X88224432Y-76167265D01*
X88224431Y-76167267D01*
X88128261Y-76373502D01*
X88128258Y-76373511D01*
X88069366Y-76593302D01*
X88069364Y-76593313D01*
X88049532Y-76819998D01*
X88049532Y-76820001D01*
X84015954Y-76820001D01*
X84106264Y-76626331D01*
X84106269Y-76626317D01*
X84165139Y-76406610D01*
X84165141Y-76406599D01*
X84184966Y-76180002D01*
X84184966Y-76179997D01*
X84165141Y-75953400D01*
X84165139Y-75953389D01*
X84106269Y-75733682D01*
X84106265Y-75733673D01*
X84010134Y-75527518D01*
X84010133Y-75527516D01*
X83988146Y-75496116D01*
X83988146Y-75496115D01*
X83552651Y-75931611D01*
X83491328Y-75965096D01*
X83421636Y-75960112D01*
X83365703Y-75918240D01*
X83354872Y-75900978D01*
X83333557Y-75859843D01*
X83230360Y-75749346D01*
X83230356Y-75749343D01*
X83151329Y-75701285D01*
X83104277Y-75649634D01*
X83092620Y-75580743D01*
X83120058Y-75516487D01*
X83128077Y-75507657D01*
X83563883Y-75071852D01*
X83563882Y-75071851D01*
X83532485Y-75049867D01*
X83326326Y-74953734D01*
X83326317Y-74953730D01*
X83106610Y-74894860D01*
X83106599Y-74894858D01*
X82880002Y-74875034D01*
X82879998Y-74875034D01*
X82653400Y-74894858D01*
X82653389Y-74894860D01*
X82433682Y-74953730D01*
X82433673Y-74953734D01*
X82227514Y-75049867D01*
X82196115Y-75071851D01*
X82628900Y-75504636D01*
X82662385Y-75565959D01*
X82657401Y-75635651D01*
X82615529Y-75691584D01*
X82596480Y-75702647D01*
X82591543Y-75705650D01*
X82474261Y-75801066D01*
X82474255Y-75801072D01*
X82394688Y-75913794D01*
X82339946Y-75957212D01*
X82270421Y-75964141D01*
X82208186Y-75932382D01*
X82205703Y-75929967D01*
X81771851Y-75496115D01*
X81749867Y-75527514D01*
X81653734Y-75733673D01*
X81653730Y-75733682D01*
X81594860Y-75953389D01*
X81594858Y-75953400D01*
X81575034Y-76179997D01*
X81575034Y-76180002D01*
X81594858Y-76406599D01*
X81594860Y-76406610D01*
X81653730Y-76626317D01*
X81653734Y-76626326D01*
X81749867Y-76832485D01*
X81771851Y-76863882D01*
X81771852Y-76863883D01*
X82207348Y-76428387D01*
X82268671Y-76394902D01*
X82338362Y-76399886D01*
X82394296Y-76441757D01*
X82405127Y-76459020D01*
X82426442Y-76500156D01*
X82529638Y-76610652D01*
X82601494Y-76654349D01*
X82608669Y-76658712D01*
X82655721Y-76710364D01*
X82667378Y-76779254D01*
X82639940Y-76843511D01*
X82631921Y-76852341D01*
X82196115Y-77288146D01*
X82227516Y-77310133D01*
X82227522Y-77310136D01*
X82285865Y-77337342D01*
X82338305Y-77383514D01*
X82357457Y-77450707D01*
X82337242Y-77517589D01*
X82285867Y-77562105D01*
X82284685Y-77562657D01*
X82227259Y-77589435D01*
X82188265Y-77616738D01*
X82122058Y-77639064D01*
X82054292Y-77622051D01*
X82010412Y-77578280D01*
X81998170Y-77557579D01*
X81998165Y-77557573D01*
X81984005Y-77543413D01*
X81971370Y-77528620D01*
X81959593Y-77512412D01*
X81923693Y-77482713D01*
X81919381Y-77478790D01*
X80039413Y-75598822D01*
X80005928Y-75537499D01*
X80007319Y-75479048D01*
X80011267Y-75464315D01*
X80025635Y-75410692D01*
X80045468Y-75184000D01*
X80025635Y-74957308D01*
X79975809Y-74771353D01*
X79966741Y-74737511D01*
X79966738Y-74737502D01*
X79870568Y-74531266D01*
X79755675Y-74367180D01*
X79740045Y-74344858D01*
X79579141Y-74183954D01*
X79392734Y-74053432D01*
X79392728Y-74053429D01*
X79334725Y-74026382D01*
X79282285Y-73980210D01*
X79263133Y-73913017D01*
X79283348Y-73846135D01*
X79334725Y-73801618D01*
X79392734Y-73774568D01*
X79579139Y-73644047D01*
X79740047Y-73483139D01*
X79870568Y-73296734D01*
X79966739Y-73090496D01*
X80025635Y-72870692D01*
X80045468Y-72644000D01*
X80025635Y-72417308D01*
X79966739Y-72197504D01*
X79870568Y-71991266D01*
X79740047Y-71804861D01*
X79740045Y-71804858D01*
X79579141Y-71643954D01*
X79392734Y-71513432D01*
X79392732Y-71513431D01*
X79346576Y-71491908D01*
X79334132Y-71486105D01*
X79281694Y-71439934D01*
X79262542Y-71372740D01*
X79282758Y-71305859D01*
X79334134Y-71261341D01*
X79392484Y-71234132D01*
X79578820Y-71103657D01*
X79739657Y-70942820D01*
X79870134Y-70756482D01*
X79966265Y-70550326D01*
X79966268Y-70550320D01*
X80005475Y-70404000D01*
X79238423Y-70404000D01*
X79211182Y-70396001D01*
X85517500Y-70396001D01*
X85517501Y-70396018D01*
X85528000Y-70498796D01*
X85528001Y-70498799D01*
X85583185Y-70665331D01*
X85583187Y-70665336D01*
X85614767Y-70716535D01*
X85675288Y-70814656D01*
X85799344Y-70938712D01*
X85948666Y-71030814D01*
X86115203Y-71085999D01*
X86217991Y-71096500D01*
X87518008Y-71096499D01*
X87620797Y-71085999D01*
X87787334Y-71030814D01*
X87936656Y-70938712D01*
X88060712Y-70814656D01*
X88152814Y-70665334D01*
X88152814Y-70665331D01*
X88156178Y-70659879D01*
X88208126Y-70613154D01*
X88277088Y-70601931D01*
X88341170Y-70629774D01*
X88349398Y-70637294D01*
X88496599Y-70784495D01*
X88593384Y-70852264D01*
X88690165Y-70920032D01*
X88690167Y-70920033D01*
X88690170Y-70920035D01*
X88904337Y-71019903D01*
X89132592Y-71081063D01*
X89317789Y-71097266D01*
X89367999Y-71101659D01*
X89368000Y-71101659D01*
X89368001Y-71101659D01*
X89415342Y-71097517D01*
X89603408Y-71081063D01*
X89831663Y-71019903D01*
X90045829Y-70920035D01*
X90239401Y-70784495D01*
X90406495Y-70617401D01*
X90542035Y-70423829D01*
X90641903Y-70209663D01*
X90703063Y-69981408D01*
X90718500Y-69804966D01*
X90718500Y-69387034D01*
X90703063Y-69210592D01*
X90641903Y-68982337D01*
X90542035Y-68768171D01*
X90523105Y-68741135D01*
X90406494Y-68574597D01*
X90239402Y-68407506D01*
X90239395Y-68407501D01*
X90239092Y-68407289D01*
X90184239Y-68368880D01*
X90045834Y-68271967D01*
X90045830Y-68271965D01*
X90005603Y-68253207D01*
X89831663Y-68172097D01*
X89831659Y-68172096D01*
X89831655Y-68172094D01*
X89603413Y-68110938D01*
X89603403Y-68110936D01*
X89368001Y-68090341D01*
X89367999Y-68090341D01*
X89132596Y-68110936D01*
X89132586Y-68110938D01*
X88904344Y-68172094D01*
X88904335Y-68172098D01*
X88690171Y-68271964D01*
X88690169Y-68271965D01*
X88496597Y-68407505D01*
X88349398Y-68554705D01*
X88288075Y-68588190D01*
X88218383Y-68583206D01*
X88162450Y-68541334D01*
X88156178Y-68532120D01*
X88060712Y-68377344D01*
X87936657Y-68253289D01*
X87936656Y-68253289D01*
X87936656Y-68253288D01*
X87843888Y-68196069D01*
X87787336Y-68161187D01*
X87787331Y-68161185D01*
X87785862Y-68160698D01*
X87620797Y-68106001D01*
X87620795Y-68106000D01*
X87518010Y-68095500D01*
X86217998Y-68095500D01*
X86217981Y-68095501D01*
X86115203Y-68106000D01*
X86115200Y-68106001D01*
X85948668Y-68161185D01*
X85948663Y-68161187D01*
X85799342Y-68253289D01*
X85675289Y-68377342D01*
X85583187Y-68526663D01*
X85583185Y-68526668D01*
X85560226Y-68595954D01*
X85528001Y-68693203D01*
X85528001Y-68693204D01*
X85528000Y-68693204D01*
X85517500Y-68795983D01*
X85517500Y-70396001D01*
X79211182Y-70396001D01*
X79171384Y-70384315D01*
X79125629Y-70331511D01*
X79115685Y-70262353D01*
X79123165Y-70238755D01*
X79122150Y-70238426D01*
X79125163Y-70229151D01*
X79125165Y-70229148D01*
X79125166Y-70229143D01*
X79144986Y-70104003D01*
X79144986Y-70103996D01*
X79125166Y-69978856D01*
X79122150Y-69969574D01*
X79124997Y-69968648D01*
X79115043Y-69915611D01*
X79141328Y-69850874D01*
X79198439Y-69810623D01*
X79238423Y-69804000D01*
X80005475Y-69804000D01*
X80005474Y-69803999D01*
X79966268Y-69657679D01*
X79966265Y-69657673D01*
X79870134Y-69451517D01*
X79739657Y-69265179D01*
X79578820Y-69104342D01*
X79392482Y-68973865D01*
X79186326Y-68877734D01*
X79186320Y-68877731D01*
X79040000Y-68838525D01*
X79040000Y-69605577D01*
X79020315Y-69672616D01*
X78967511Y-69718371D01*
X78898353Y-69728315D01*
X78874755Y-69720834D01*
X78874426Y-69721850D01*
X78865144Y-69718833D01*
X78771486Y-69704000D01*
X78771481Y-69704000D01*
X78708519Y-69704000D01*
X78708514Y-69704000D01*
X78614855Y-69718833D01*
X78605574Y-69721850D01*
X78604648Y-69719002D01*
X78551611Y-69728957D01*
X78486874Y-69702672D01*
X78446623Y-69645561D01*
X78440000Y-69605577D01*
X78440000Y-68838525D01*
X78439999Y-68838525D01*
X78293679Y-68877731D01*
X78293673Y-68877734D01*
X78087517Y-68973865D01*
X77901179Y-69104342D01*
X77740342Y-69265179D01*
X77609865Y-69451517D01*
X77513734Y-69657673D01*
X77513731Y-69657679D01*
X77474525Y-69803999D01*
X77474525Y-69804000D01*
X78241577Y-69804000D01*
X78308616Y-69823685D01*
X78354371Y-69876489D01*
X78364315Y-69945647D01*
X78356834Y-69969244D01*
X78357850Y-69969574D01*
X78354833Y-69978856D01*
X78335014Y-70103996D01*
X78335014Y-70104003D01*
X78354833Y-70229143D01*
X78357850Y-70238426D01*
X78355002Y-70239351D01*
X78364957Y-70292389D01*
X78338672Y-70357126D01*
X78281561Y-70397377D01*
X78241577Y-70404000D01*
X77435953Y-70404000D01*
X77368914Y-70384315D01*
X77348272Y-70367681D01*
X75096803Y-68116212D01*
X75086980Y-68103950D01*
X75086759Y-68104134D01*
X75081786Y-68098123D01*
X75063159Y-68080631D01*
X75031364Y-68050773D01*
X75020919Y-68040328D01*
X75010475Y-68029883D01*
X75004986Y-68025625D01*
X75000561Y-68021847D01*
X74966582Y-67989938D01*
X74966580Y-67989936D01*
X74966577Y-67989935D01*
X74949029Y-67980288D01*
X74932763Y-67969604D01*
X74916933Y-67957325D01*
X74874168Y-67938818D01*
X74868922Y-67936248D01*
X74828093Y-67913803D01*
X74828092Y-67913802D01*
X74808693Y-67908822D01*
X74790281Y-67902518D01*
X74771898Y-67894562D01*
X74771892Y-67894560D01*
X74725874Y-67887272D01*
X74720152Y-67886087D01*
X74675021Y-67874500D01*
X74675019Y-67874500D01*
X74654984Y-67874500D01*
X74635586Y-67872973D01*
X74628162Y-67871797D01*
X74615805Y-67869840D01*
X74615804Y-67869840D01*
X74569416Y-67874225D01*
X74563578Y-67874500D01*
X68234738Y-67874500D01*
X68219121Y-67872776D01*
X68219094Y-67873062D01*
X68211332Y-67872327D01*
X68142204Y-67874500D01*
X68112650Y-67874500D01*
X68111929Y-67874590D01*
X68105757Y-67875369D01*
X68099945Y-67875826D01*
X68053373Y-67877290D01*
X68053372Y-67877290D01*
X68034129Y-67882881D01*
X68015079Y-67886825D01*
X67995211Y-67889334D01*
X67951884Y-67906488D01*
X67946358Y-67908379D01*
X67901614Y-67921379D01*
X67901610Y-67921381D01*
X67884366Y-67931579D01*
X67866905Y-67940133D01*
X67848274Y-67947510D01*
X67848262Y-67947517D01*
X67810570Y-67974902D01*
X67805687Y-67978109D01*
X67765580Y-68001829D01*
X67751414Y-68015995D01*
X67736624Y-68028627D01*
X67720414Y-68040404D01*
X67720411Y-68040407D01*
X67690710Y-68076309D01*
X67686777Y-68080631D01*
X67470821Y-68296586D01*
X67409498Y-68330071D01*
X67351048Y-68328680D01*
X67282697Y-68310366D01*
X67282693Y-68310365D01*
X67282692Y-68310365D01*
X67169345Y-68300448D01*
X67056001Y-68290532D01*
X67055998Y-68290532D01*
X66829313Y-68310364D01*
X66829302Y-68310366D01*
X66609511Y-68369258D01*
X66609502Y-68369261D01*
X66403267Y-68465431D01*
X66403265Y-68465432D01*
X66216858Y-68595954D01*
X66055954Y-68756858D01*
X65925432Y-68943265D01*
X65925431Y-68943267D01*
X65829261Y-69149502D01*
X65829258Y-69149511D01*
X65770366Y-69369302D01*
X65770364Y-69369313D01*
X65750532Y-69595998D01*
X65750532Y-69596001D01*
X65770364Y-69822686D01*
X65770366Y-69822697D01*
X65829258Y-70042488D01*
X65829261Y-70042497D01*
X65925431Y-70248732D01*
X65925432Y-70248734D01*
X66055954Y-70435141D01*
X66216858Y-70596045D01*
X66247358Y-70617401D01*
X66403266Y-70726568D01*
X66609504Y-70822739D01*
X66609509Y-70822740D01*
X66609511Y-70822741D01*
X66639581Y-70830798D01*
X66829308Y-70881635D01*
X66991230Y-70895801D01*
X67055998Y-70901468D01*
X67056000Y-70901468D01*
X67056002Y-70901468D01*
X67112673Y-70896509D01*
X67282692Y-70881635D01*
X67502496Y-70822739D01*
X67708734Y-70726568D01*
X67895139Y-70596047D01*
X68056047Y-70435139D01*
X68186568Y-70248734D01*
X68282739Y-70042496D01*
X68341635Y-69822692D01*
X68361468Y-69596000D01*
X68341635Y-69369308D01*
X68323319Y-69300951D01*
X68324982Y-69231103D01*
X68355415Y-69181175D01*
X68374775Y-69161816D01*
X68436099Y-69128333D01*
X68462454Y-69125500D01*
X69979333Y-69125500D01*
X70046372Y-69145185D01*
X70092127Y-69197989D01*
X70102071Y-69267147D01*
X70080908Y-69320623D01*
X69989432Y-69451265D01*
X69989431Y-69451267D01*
X69893261Y-69657502D01*
X69893258Y-69657511D01*
X69834366Y-69877302D01*
X69834364Y-69877313D01*
X69814532Y-70103996D01*
X69814532Y-70104000D01*
X69834364Y-70330686D01*
X69834365Y-70330691D01*
X69834366Y-70330697D01*
X69852680Y-70399048D01*
X69851017Y-70468897D01*
X69820586Y-70518821D01*
X69116208Y-71223199D01*
X69103951Y-71233020D01*
X69104134Y-71233241D01*
X69098123Y-71238213D01*
X69050772Y-71288636D01*
X69029889Y-71309519D01*
X69029877Y-71309532D01*
X69025621Y-71315017D01*
X69021837Y-71319447D01*
X68989937Y-71353418D01*
X68989936Y-71353420D01*
X68980284Y-71370976D01*
X68969610Y-71387226D01*
X68957329Y-71403061D01*
X68957324Y-71403068D01*
X68938815Y-71445838D01*
X68936245Y-71451084D01*
X68913803Y-71491906D01*
X68908822Y-71511307D01*
X68902521Y-71529710D01*
X68894562Y-71548102D01*
X68894561Y-71548105D01*
X68887271Y-71594127D01*
X68886087Y-71599846D01*
X68874501Y-71644972D01*
X68874500Y-71644982D01*
X68874500Y-71665016D01*
X68872973Y-71684413D01*
X68869840Y-71704196D01*
X68871910Y-71726097D01*
X68874225Y-71750583D01*
X68874500Y-71756421D01*
X68874500Y-77689546D01*
X68854815Y-77756585D01*
X68838181Y-77777227D01*
X66672208Y-79943199D01*
X66659951Y-79953020D01*
X66660134Y-79953241D01*
X66654123Y-79958213D01*
X66606772Y-80008636D01*
X66585889Y-80029519D01*
X66585877Y-80029532D01*
X66581621Y-80035017D01*
X66577836Y-80039447D01*
X66546442Y-80072881D01*
X66508452Y-80100382D01*
X66403268Y-80149430D01*
X66216858Y-80279954D01*
X66055954Y-80440858D01*
X65925432Y-80627265D01*
X65925431Y-80627267D01*
X65829261Y-80833502D01*
X65829258Y-80833511D01*
X65770366Y-81053302D01*
X65770364Y-81053313D01*
X65750532Y-81279998D01*
X65750532Y-81280001D01*
X65770364Y-81506686D01*
X65770366Y-81506697D01*
X65829258Y-81726488D01*
X65829261Y-81726497D01*
X65925431Y-81932732D01*
X65925432Y-81932734D01*
X66055954Y-82119141D01*
X66216858Y-82280045D01*
X66216861Y-82280047D01*
X66403266Y-82410568D01*
X66609504Y-82506739D01*
X66829308Y-82565635D01*
X66991230Y-82579801D01*
X67055998Y-82585468D01*
X67056000Y-82585468D01*
X67056002Y-82585468D01*
X67112673Y-82580509D01*
X67282692Y-82565635D01*
X67502496Y-82506739D01*
X67708734Y-82410568D01*
X67895139Y-82280047D01*
X68056047Y-82119139D01*
X68186568Y-81932734D01*
X68282739Y-81726496D01*
X68341635Y-81506692D01*
X68360428Y-81291888D01*
X68361468Y-81280001D01*
X68361468Y-81279998D01*
X68349895Y-81147723D01*
X68341635Y-81053308D01*
X68290689Y-80863173D01*
X68282741Y-80833511D01*
X68282738Y-80833502D01*
X68277453Y-80822169D01*
X68186568Y-80627266D01*
X68069468Y-80460029D01*
X68047142Y-80393824D01*
X68064152Y-80326056D01*
X68083359Y-80301230D01*
X68662821Y-79721768D01*
X68724142Y-79688285D01*
X68793834Y-79693269D01*
X68849767Y-79735141D01*
X68874184Y-79800605D01*
X68874500Y-79809451D01*
X68874500Y-90209546D01*
X68854815Y-90276585D01*
X68838181Y-90297227D01*
X67470821Y-91664586D01*
X67409498Y-91698071D01*
X67351048Y-91696680D01*
X67282697Y-91678366D01*
X67282693Y-91678365D01*
X67282692Y-91678365D01*
X67169345Y-91668448D01*
X67056001Y-91658532D01*
X67055998Y-91658532D01*
X66829313Y-91678364D01*
X66829302Y-91678366D01*
X66609511Y-91737258D01*
X66609502Y-91737261D01*
X66403267Y-91833431D01*
X66403265Y-91833432D01*
X66216858Y-91963954D01*
X66055954Y-92124858D01*
X65925432Y-92311265D01*
X65925431Y-92311267D01*
X65829261Y-92517502D01*
X65829258Y-92517511D01*
X65770366Y-92737302D01*
X65770364Y-92737313D01*
X65750532Y-92963998D01*
X65750532Y-92964001D01*
X53500500Y-92964001D01*
X53500500Y-88900001D01*
X65750532Y-88900001D01*
X65770364Y-89126686D01*
X65770366Y-89126697D01*
X65829258Y-89346488D01*
X65829261Y-89346497D01*
X65925431Y-89552732D01*
X65925432Y-89552734D01*
X66055954Y-89739141D01*
X66216858Y-89900045D01*
X66216861Y-89900047D01*
X66403266Y-90030568D01*
X66609504Y-90126739D01*
X66609509Y-90126740D01*
X66609511Y-90126741D01*
X66621204Y-90129874D01*
X66829308Y-90185635D01*
X66991230Y-90199801D01*
X67055998Y-90205468D01*
X67056000Y-90205468D01*
X67056002Y-90205468D01*
X67112673Y-90200509D01*
X67282692Y-90185635D01*
X67502496Y-90126739D01*
X67708734Y-90030568D01*
X67895139Y-89900047D01*
X68056047Y-89739139D01*
X68186568Y-89552734D01*
X68282739Y-89346496D01*
X68341635Y-89126692D01*
X68361468Y-88900000D01*
X68341635Y-88673308D01*
X68282739Y-88453504D01*
X68186568Y-88247266D01*
X68056047Y-88060861D01*
X68056045Y-88060858D01*
X67895141Y-87899954D01*
X67708734Y-87769432D01*
X67708732Y-87769431D01*
X67502497Y-87673261D01*
X67502488Y-87673258D01*
X67282697Y-87614366D01*
X67282693Y-87614365D01*
X67282692Y-87614365D01*
X67282691Y-87614364D01*
X67282686Y-87614364D01*
X67056002Y-87594532D01*
X67055998Y-87594532D01*
X66829313Y-87614364D01*
X66829302Y-87614366D01*
X66609511Y-87673258D01*
X66609502Y-87673261D01*
X66403267Y-87769431D01*
X66403265Y-87769432D01*
X66216858Y-87899954D01*
X66055954Y-88060858D01*
X65925432Y-88247265D01*
X65925431Y-88247267D01*
X65829261Y-88453502D01*
X65829258Y-88453511D01*
X65770366Y-88673302D01*
X65770364Y-88673313D01*
X65750532Y-88899998D01*
X65750532Y-88900001D01*
X53500500Y-88900001D01*
X53500500Y-84282000D01*
X55880000Y-84282000D01*
X56657390Y-84282000D01*
X56724429Y-84301685D01*
X56770184Y-84354489D01*
X56780128Y-84423647D01*
X56776367Y-84440935D01*
X56755000Y-84513704D01*
X56755000Y-84650295D01*
X56776367Y-84723065D01*
X56776367Y-84792935D01*
X56738593Y-84851713D01*
X56675037Y-84880738D01*
X56657390Y-84882000D01*
X55880001Y-84882000D01*
X55880001Y-85356986D01*
X55890494Y-85459697D01*
X55945641Y-85626119D01*
X55945643Y-85626124D01*
X56037684Y-85775345D01*
X56161654Y-85899315D01*
X56310875Y-85991356D01*
X56310880Y-85991358D01*
X56477302Y-86046505D01*
X56477309Y-86046506D01*
X56580019Y-86056999D01*
X56929999Y-86056999D01*
X56930000Y-86056998D01*
X56930000Y-85159701D01*
X56949685Y-85092662D01*
X57002489Y-85046907D01*
X57071647Y-85036963D01*
X57088936Y-85040724D01*
X57094800Y-85042446D01*
X57094801Y-85042446D01*
X57196025Y-85057000D01*
X57196026Y-85057000D01*
X57263974Y-85057000D01*
X57263975Y-85057000D01*
X57365199Y-85042446D01*
X57365200Y-85042445D01*
X57371064Y-85040724D01*
X57440934Y-85040724D01*
X57499712Y-85078498D01*
X57528738Y-85142053D01*
X57530000Y-85159701D01*
X57530000Y-86056999D01*
X57879972Y-86056999D01*
X57879986Y-86056998D01*
X57982697Y-86046505D01*
X58149119Y-85991358D01*
X58149124Y-85991356D01*
X58298345Y-85899315D01*
X58422315Y-85775345D01*
X58517815Y-85620516D01*
X58569763Y-85573792D01*
X58638726Y-85562569D01*
X58702808Y-85590413D01*
X58711034Y-85597930D01*
X58858599Y-85745495D01*
X58858602Y-85745497D01*
X58858603Y-85745498D01*
X59052165Y-85881032D01*
X59052167Y-85881033D01*
X59052170Y-85881035D01*
X59266337Y-85980903D01*
X59266343Y-85980904D01*
X59266344Y-85980905D01*
X59305356Y-85991358D01*
X59494592Y-86042063D01*
X59682918Y-86058539D01*
X59729999Y-86062659D01*
X59730000Y-86062659D01*
X59730001Y-86062659D01*
X59769234Y-86059226D01*
X59965408Y-86042063D01*
X60193663Y-85980903D01*
X60407829Y-85881035D01*
X60601401Y-85745495D01*
X60768495Y-85578401D01*
X60878427Y-85421400D01*
X60933000Y-85377778D01*
X61002498Y-85370584D01*
X61064853Y-85402106D01*
X61081574Y-85421403D01*
X61191505Y-85578402D01*
X61300369Y-85687265D01*
X61358599Y-85745495D01*
X61440242Y-85802662D01*
X61552165Y-85881032D01*
X61552167Y-85881033D01*
X61552170Y-85881035D01*
X61766337Y-85980903D01*
X61766343Y-85980904D01*
X61766344Y-85980905D01*
X61805356Y-85991358D01*
X61994592Y-86042063D01*
X62182918Y-86058539D01*
X62229999Y-86062659D01*
X62230000Y-86062659D01*
X62230001Y-86062659D01*
X62269234Y-86059226D01*
X62465408Y-86042063D01*
X62693663Y-85980903D01*
X62907829Y-85881035D01*
X63101401Y-85745495D01*
X63268495Y-85578401D01*
X63404035Y-85384829D01*
X63503903Y-85170663D01*
X63565063Y-84942408D01*
X63580500Y-84765966D01*
X63580500Y-84398034D01*
X63565063Y-84221592D01*
X63503903Y-83993337D01*
X63404035Y-83779171D01*
X63399934Y-83773313D01*
X63268494Y-83585597D01*
X63101402Y-83418506D01*
X63101395Y-83418501D01*
X62907834Y-83282967D01*
X62907830Y-83282965D01*
X62838183Y-83250488D01*
X62693663Y-83183097D01*
X62693659Y-83183096D01*
X62693655Y-83183094D01*
X62465413Y-83121938D01*
X62465403Y-83121936D01*
X62230001Y-83101341D01*
X62229999Y-83101341D01*
X61994596Y-83121936D01*
X61994586Y-83121938D01*
X61766344Y-83183094D01*
X61766335Y-83183098D01*
X61552171Y-83282964D01*
X61552169Y-83282965D01*
X61358597Y-83418505D01*
X61191505Y-83585597D01*
X61081575Y-83742595D01*
X61026998Y-83786220D01*
X60957500Y-83793414D01*
X60895145Y-83761891D01*
X60878425Y-83742595D01*
X60768494Y-83585597D01*
X60601402Y-83418506D01*
X60601395Y-83418501D01*
X60407834Y-83282967D01*
X60407830Y-83282965D01*
X60338183Y-83250488D01*
X60193663Y-83183097D01*
X60193659Y-83183096D01*
X60193655Y-83183094D01*
X59965413Y-83121938D01*
X59965403Y-83121936D01*
X59730001Y-83101341D01*
X59729999Y-83101341D01*
X59494596Y-83121936D01*
X59494586Y-83121938D01*
X59266344Y-83183094D01*
X59266335Y-83183098D01*
X59052171Y-83282964D01*
X59052169Y-83282965D01*
X58858597Y-83418505D01*
X58711035Y-83566068D01*
X58649712Y-83599553D01*
X58580020Y-83594569D01*
X58524087Y-83552697D01*
X58517815Y-83543484D01*
X58422315Y-83388654D01*
X58298345Y-83264684D01*
X58149124Y-83172643D01*
X58149119Y-83172641D01*
X57982697Y-83117494D01*
X57982690Y-83117493D01*
X57879986Y-83107000D01*
X57530000Y-83107000D01*
X57530000Y-84004298D01*
X57510315Y-84071337D01*
X57457511Y-84117092D01*
X57388353Y-84127036D01*
X57371072Y-84123277D01*
X57365204Y-84121554D01*
X57280845Y-84109425D01*
X57263975Y-84107000D01*
X57196025Y-84107000D01*
X57094795Y-84121554D01*
X57088928Y-84123277D01*
X57019058Y-84123273D01*
X56960282Y-84085495D01*
X56931261Y-84021938D01*
X56930000Y-84004298D01*
X56930000Y-83107000D01*
X56580028Y-83107000D01*
X56580012Y-83107001D01*
X56477302Y-83117494D01*
X56310880Y-83172641D01*
X56310875Y-83172643D01*
X56161654Y-83264684D01*
X56037684Y-83388654D01*
X55945643Y-83537875D01*
X55945641Y-83537880D01*
X55890494Y-83704302D01*
X55890493Y-83704309D01*
X55880000Y-83807013D01*
X55880000Y-84282000D01*
X53500500Y-84282000D01*
X53500500Y-77216001D01*
X65750532Y-77216001D01*
X65770364Y-77442686D01*
X65770366Y-77442697D01*
X65829258Y-77662488D01*
X65829261Y-77662497D01*
X65925431Y-77868732D01*
X65925432Y-77868734D01*
X66055954Y-78055141D01*
X66216858Y-78216045D01*
X66216861Y-78216047D01*
X66403266Y-78346568D01*
X66609504Y-78442739D01*
X66829308Y-78501635D01*
X66985728Y-78515320D01*
X67055998Y-78521468D01*
X67056000Y-78521468D01*
X67056002Y-78521468D01*
X67124157Y-78515505D01*
X67282692Y-78501635D01*
X67502496Y-78442739D01*
X67708734Y-78346568D01*
X67895139Y-78216047D01*
X68056047Y-78055139D01*
X68186568Y-77868734D01*
X68282739Y-77662496D01*
X68341635Y-77442692D01*
X68361468Y-77216000D01*
X68361018Y-77210862D01*
X68341635Y-76989313D01*
X68341635Y-76989308D01*
X68285953Y-76781500D01*
X68282741Y-76769511D01*
X68282738Y-76769502D01*
X68264318Y-76730000D01*
X68186568Y-76563266D01*
X68056047Y-76376861D01*
X68056045Y-76376858D01*
X67895141Y-76215954D01*
X67708734Y-76085432D01*
X67708732Y-76085431D01*
X67502497Y-75989261D01*
X67502488Y-75989258D01*
X67282697Y-75930366D01*
X67282693Y-75930365D01*
X67282692Y-75930365D01*
X67282691Y-75930364D01*
X67282686Y-75930364D01*
X67056002Y-75910532D01*
X67055998Y-75910532D01*
X66829313Y-75930364D01*
X66829302Y-75930366D01*
X66609511Y-75989258D01*
X66609502Y-75989261D01*
X66403267Y-76085431D01*
X66403265Y-76085432D01*
X66216858Y-76215954D01*
X66055954Y-76376858D01*
X65925432Y-76563265D01*
X65925431Y-76563267D01*
X65829261Y-76769502D01*
X65829258Y-76769511D01*
X65770366Y-76989302D01*
X65770364Y-76989313D01*
X65750532Y-77215998D01*
X65750532Y-77216001D01*
X53500500Y-77216001D01*
X53500500Y-72344000D01*
X55880000Y-72344000D01*
X56657390Y-72344000D01*
X56724429Y-72363685D01*
X56770184Y-72416489D01*
X56780128Y-72485647D01*
X56776367Y-72502933D01*
X56755000Y-72575705D01*
X56755000Y-72712295D01*
X56776138Y-72784287D01*
X56776367Y-72785065D01*
X56776367Y-72854935D01*
X56738593Y-72913713D01*
X56675037Y-72942738D01*
X56657390Y-72944000D01*
X55880001Y-72944000D01*
X55880001Y-73418986D01*
X55890494Y-73521697D01*
X55945641Y-73688119D01*
X55945643Y-73688124D01*
X56037684Y-73837345D01*
X56161654Y-73961315D01*
X56310875Y-74053356D01*
X56310880Y-74053358D01*
X56477302Y-74108505D01*
X56477309Y-74108506D01*
X56580019Y-74118999D01*
X56929999Y-74118999D01*
X56930000Y-74118998D01*
X56930000Y-73221701D01*
X56949685Y-73154662D01*
X57002489Y-73108907D01*
X57071647Y-73098963D01*
X57088936Y-73102724D01*
X57094800Y-73104446D01*
X57094801Y-73104446D01*
X57196025Y-73119000D01*
X57196026Y-73119000D01*
X57263974Y-73119000D01*
X57263975Y-73119000D01*
X57365199Y-73104446D01*
X57365200Y-73104445D01*
X57371064Y-73102724D01*
X57440934Y-73102724D01*
X57499712Y-73140498D01*
X57528738Y-73204053D01*
X57530000Y-73221701D01*
X57530000Y-74118999D01*
X57879972Y-74118999D01*
X57879986Y-74118998D01*
X57982697Y-74108505D01*
X58149119Y-74053358D01*
X58149124Y-74053356D01*
X58298345Y-73961315D01*
X58422315Y-73837345D01*
X58517815Y-73682516D01*
X58569763Y-73635792D01*
X58638726Y-73624569D01*
X58702808Y-73652413D01*
X58711034Y-73659930D01*
X58858599Y-73807495D01*
X58858602Y-73807497D01*
X58858603Y-73807498D01*
X59052165Y-73943032D01*
X59052167Y-73943033D01*
X59052170Y-73943035D01*
X59266337Y-74042903D01*
X59266343Y-74042904D01*
X59266344Y-74042905D01*
X59305632Y-74053432D01*
X59494592Y-74104063D01*
X59682918Y-74120539D01*
X59729999Y-74124659D01*
X59730000Y-74124659D01*
X59730001Y-74124659D01*
X59769234Y-74121226D01*
X59965408Y-74104063D01*
X60193663Y-74042903D01*
X60407829Y-73943035D01*
X60601401Y-73807495D01*
X60768495Y-73640401D01*
X60878426Y-73483401D01*
X60933001Y-73439778D01*
X61002500Y-73432584D01*
X61064855Y-73464106D01*
X61081571Y-73483398D01*
X61108388Y-73521697D01*
X61191506Y-73640403D01*
X61324567Y-73773463D01*
X61358599Y-73807495D01*
X61413783Y-73846135D01*
X61552165Y-73943032D01*
X61552167Y-73943033D01*
X61552170Y-73943035D01*
X61766337Y-74042903D01*
X61766343Y-74042904D01*
X61766344Y-74042905D01*
X61805632Y-74053432D01*
X61994592Y-74104063D01*
X62182918Y-74120539D01*
X62229999Y-74124659D01*
X62230000Y-74124659D01*
X62230001Y-74124659D01*
X62269234Y-74121226D01*
X62465408Y-74104063D01*
X62693663Y-74042903D01*
X62907829Y-73943035D01*
X63101401Y-73807495D01*
X63268495Y-73640401D01*
X63404035Y-73446829D01*
X63503903Y-73232663D01*
X63565063Y-73004408D01*
X63580500Y-72827966D01*
X63580500Y-72460034D01*
X63565063Y-72283592D01*
X63503903Y-72055337D01*
X63404035Y-71841171D01*
X63403050Y-71839763D01*
X63268494Y-71647597D01*
X63101402Y-71480506D01*
X63101395Y-71480501D01*
X62907834Y-71344967D01*
X62907830Y-71344965D01*
X62863552Y-71324318D01*
X62693663Y-71245097D01*
X62693659Y-71245096D01*
X62693655Y-71245094D01*
X62465413Y-71183938D01*
X62465403Y-71183936D01*
X62230001Y-71163341D01*
X62229999Y-71163341D01*
X61994596Y-71183936D01*
X61994586Y-71183938D01*
X61766344Y-71245094D01*
X61766335Y-71245098D01*
X61552171Y-71344964D01*
X61552169Y-71344965D01*
X61358597Y-71480505D01*
X61191505Y-71647597D01*
X61081575Y-71804595D01*
X61026998Y-71848220D01*
X60957500Y-71855414D01*
X60895145Y-71823891D01*
X60878425Y-71804595D01*
X60768494Y-71647597D01*
X60601402Y-71480506D01*
X60601395Y-71480501D01*
X60407834Y-71344967D01*
X60407830Y-71344965D01*
X60363552Y-71324318D01*
X60193663Y-71245097D01*
X60193659Y-71245096D01*
X60193655Y-71245094D01*
X59965413Y-71183938D01*
X59965403Y-71183936D01*
X59730001Y-71163341D01*
X59729999Y-71163341D01*
X59494596Y-71183936D01*
X59494586Y-71183938D01*
X59266344Y-71245094D01*
X59266335Y-71245098D01*
X59052171Y-71344964D01*
X59052169Y-71344965D01*
X58858597Y-71480505D01*
X58711035Y-71628068D01*
X58649712Y-71661553D01*
X58580020Y-71656569D01*
X58524087Y-71614697D01*
X58517815Y-71605484D01*
X58422315Y-71450654D01*
X58298345Y-71326684D01*
X58149124Y-71234643D01*
X58149119Y-71234641D01*
X57982697Y-71179494D01*
X57982690Y-71179493D01*
X57879986Y-71169000D01*
X57530000Y-71169000D01*
X57530000Y-72066298D01*
X57510315Y-72133337D01*
X57457511Y-72179092D01*
X57388353Y-72189036D01*
X57371072Y-72185277D01*
X57365204Y-72183554D01*
X57280845Y-72171425D01*
X57263975Y-72169000D01*
X57196025Y-72169000D01*
X57094795Y-72183554D01*
X57088928Y-72185277D01*
X57019058Y-72185273D01*
X56960282Y-72147495D01*
X56931261Y-72083938D01*
X56930000Y-72066298D01*
X56930000Y-71169000D01*
X56580028Y-71169000D01*
X56580012Y-71169001D01*
X56477302Y-71179494D01*
X56310880Y-71234641D01*
X56310875Y-71234643D01*
X56161654Y-71326684D01*
X56037684Y-71450654D01*
X55945643Y-71599875D01*
X55945641Y-71599880D01*
X55890494Y-71766302D01*
X55890493Y-71766309D01*
X55880000Y-71869013D01*
X55880000Y-72344000D01*
X53500500Y-72344000D01*
X53500500Y-68502034D01*
X53500633Y-68497979D01*
X53505352Y-68425965D01*
X53505984Y-68416322D01*
X53517652Y-68253187D01*
X53518121Y-68248821D01*
X53524323Y-68205683D01*
X53524870Y-68202493D01*
X53543165Y-68110518D01*
X53572951Y-67973591D01*
X53574043Y-67969313D01*
X53580063Y-67948814D01*
X53589376Y-67921379D01*
X53616830Y-67840499D01*
X53666159Y-67708245D01*
X53668620Y-67702546D01*
X53725591Y-67587020D01*
X53735451Y-67568962D01*
X53792173Y-67465083D01*
X53795007Y-67460402D01*
X53866572Y-67353298D01*
X53868458Y-67350634D01*
X53950264Y-67241353D01*
X53953236Y-67237687D01*
X54038510Y-67140450D01*
X54041220Y-67137557D01*
X54137557Y-67041220D01*
X54140450Y-67038510D01*
X54237687Y-66953236D01*
X54241353Y-66950264D01*
X54350645Y-66868450D01*
X54353298Y-66866572D01*
X54460402Y-66795007D01*
X54465081Y-66792174D01*
X54587010Y-66725596D01*
X54702546Y-66668620D01*
X54708245Y-66666159D01*
X54840495Y-66616832D01*
X54948810Y-66580063D01*
X54953380Y-66578721D01*
X54969333Y-66574037D01*
X54973591Y-66572951D01*
X55110518Y-66543165D01*
X55202494Y-66524870D01*
X55205693Y-66524321D01*
X55248802Y-66518123D01*
X55253198Y-66517651D01*
X55416338Y-66505983D01*
X55420671Y-66505699D01*
X55497982Y-66500633D01*
X55502037Y-66500500D01*
X137497964Y-66500500D01*
X137502018Y-66500633D01*
G37*
%TD.AperFunction*%
M02*
