%TF.GenerationSoftware,KiCad,Pcbnew,7.0.7*%
%TF.CreationDate,2023-10-20T21:44:30+01:00*%
%TF.ProjectId,Wand Board,57616e64-2042-46f6-9172-642e6b696361,rev?*%
%TF.SameCoordinates,Original*%
%TF.FileFunction,Soldermask,Top*%
%TF.FilePolarity,Negative*%
%FSLAX46Y46*%
G04 Gerber Fmt 4.6, Leading zero omitted, Abs format (unit mm)*
G04 Created by KiCad (PCBNEW 7.0.7) date 2023-10-20 21:44:30*
%MOMM*%
%LPD*%
G01*
G04 APERTURE LIST*
G04 Aperture macros list*
%AMRoundRect*
0 Rectangle with rounded corners*
0 $1 Rounding radius*
0 $2 $3 $4 $5 $6 $7 $8 $9 X,Y pos of 4 corners*
0 Add a 4 corners polygon primitive as box body*
4,1,4,$2,$3,$4,$5,$6,$7,$8,$9,$2,$3,0*
0 Add four circle primitives for the rounded corners*
1,1,$1+$1,$2,$3*
1,1,$1+$1,$4,$5*
1,1,$1+$1,$6,$7*
1,1,$1+$1,$8,$9*
0 Add four rect primitives between the rounded corners*
20,1,$1+$1,$2,$3,$4,$5,0*
20,1,$1+$1,$4,$5,$6,$7,0*
20,1,$1+$1,$6,$7,$8,$9,0*
20,1,$1+$1,$8,$9,$2,$3,0*%
G04 Aperture macros list end*
%ADD10C,1.600000*%
%ADD11O,1.600000X1.600000*%
%ADD12R,1.500000X1.050000*%
%ADD13O,1.500000X1.050000*%
%ADD14RoundRect,0.250000X-0.600000X-0.750000X0.600000X-0.750000X0.600000X0.750000X-0.600000X0.750000X0*%
%ADD15O,1.700000X2.000000*%
%ADD16R,2.200000X2.200000*%
%ADD17O,2.200000X2.200000*%
%ADD18R,1.200000X1.200000*%
%ADD19C,1.200000*%
%ADD20RoundRect,0.250000X-0.600000X-0.725000X0.600000X-0.725000X0.600000X0.725000X-0.600000X0.725000X0*%
%ADD21O,1.700000X1.950000*%
%ADD22RoundRect,0.250000X-0.725000X0.600000X-0.725000X-0.600000X0.725000X-0.600000X0.725000X0.600000X0*%
%ADD23O,1.950000X1.700000*%
%ADD24R,2.600000X2.600000*%
%ADD25C,2.600000*%
%ADD26RoundRect,0.250000X-0.750000X0.600000X-0.750000X-0.600000X0.750000X-0.600000X0.750000X0.600000X0*%
%ADD27O,2.000000X1.700000*%
%ADD28R,1.600000X1.600000*%
%ADD29C,6.400000*%
G04 APERTURE END LIST*
D10*
X104310000Y-68500000D03*
D11*
X96690000Y-68500000D03*
D10*
X104370000Y-71750000D03*
D11*
X96750000Y-71750000D03*
D12*
X102500000Y-78040000D03*
D13*
X102500000Y-76770000D03*
X102500000Y-75500000D03*
D14*
X108500000Y-69750000D03*
D15*
X111000000Y-69750000D03*
D16*
X116330000Y-76500000D03*
D17*
X106170000Y-76500000D03*
D18*
X116250000Y-69527401D03*
D19*
X116250000Y-71527401D03*
D20*
X57230000Y-96503000D03*
D21*
X59730000Y-96503000D03*
X62230000Y-96503000D03*
D10*
X82880000Y-76180000D03*
X82880000Y-78720000D03*
X82880000Y-81260000D03*
X82880000Y-83800000D03*
X82880000Y-86340000D03*
X82880000Y-88880000D03*
X82880000Y-91420000D03*
X82880000Y-93960000D03*
X82880000Y-96500000D03*
X82880000Y-99040000D03*
X82880000Y-101580000D03*
X82880000Y-104120000D03*
X82880000Y-106660000D03*
X82880000Y-109200000D03*
X98120000Y-109200000D03*
X98120000Y-106660000D03*
X98120000Y-104120000D03*
X98120000Y-101580000D03*
X98120000Y-99040000D03*
X98120000Y-96500000D03*
X98120000Y-93960000D03*
X98120000Y-91420000D03*
X98120000Y-88880000D03*
X98120000Y-86340000D03*
X98120000Y-83800000D03*
X98120000Y-81260000D03*
X98120000Y-78720000D03*
X98120000Y-76180000D03*
X91645000Y-76820000D03*
X89355000Y-76820000D03*
D20*
X57230000Y-72644000D03*
D21*
X59730000Y-72644000D03*
X62230000Y-72644000D03*
D10*
X67056000Y-77216000D03*
D11*
X67056000Y-69596000D03*
D22*
X105000000Y-85000000D03*
D23*
X105000000Y-87500000D03*
X105000000Y-90000000D03*
D10*
X67056000Y-88900000D03*
D11*
X67056000Y-81280000D03*
D10*
X127508000Y-73000000D03*
D11*
X127508000Y-80620000D03*
D24*
X98500000Y-116500000D03*
D25*
X103500000Y-116500000D03*
D22*
X134770000Y-73054000D03*
D23*
X134770000Y-75554000D03*
X134770000Y-78054000D03*
X134770000Y-80554000D03*
D26*
X103632000Y-105000000D03*
D27*
X103632000Y-107500000D03*
D10*
X67056000Y-100584000D03*
D11*
X67056000Y-92964000D03*
D20*
X57230000Y-84582000D03*
D21*
X59730000Y-84582000D03*
X62230000Y-84582000D03*
D28*
X74676000Y-91408000D03*
D10*
X74676000Y-89408000D03*
D26*
X122500000Y-87500000D03*
D27*
X122500000Y-90000000D03*
D20*
X102656000Y-98044000D03*
D21*
X105156000Y-98044000D03*
X107656000Y-98044000D03*
D10*
X127508000Y-96620000D03*
D11*
X127508000Y-89000000D03*
D26*
X122500000Y-79000000D03*
D27*
X122500000Y-81500000D03*
D14*
X86868000Y-69596000D03*
D15*
X89368000Y-69596000D03*
D22*
X134620000Y-88900000D03*
D23*
X134620000Y-91400000D03*
X134620000Y-93900000D03*
X134620000Y-96400000D03*
D26*
X122500000Y-70500000D03*
D27*
X122500000Y-73000000D03*
D28*
X78740000Y-85344000D03*
D11*
X78740000Y-82804000D03*
X78740000Y-80264000D03*
X78740000Y-77724000D03*
X78740000Y-75184000D03*
X78740000Y-72644000D03*
X78740000Y-70104000D03*
X71120000Y-70104000D03*
X71120000Y-72644000D03*
X71120000Y-75184000D03*
X71120000Y-77724000D03*
X71120000Y-80264000D03*
X71120000Y-82804000D03*
X71120000Y-85344000D03*
D26*
X122500000Y-96000000D03*
D27*
X122500000Y-98500000D03*
D14*
X73192000Y-96520000D03*
D15*
X75692000Y-96520000D03*
D24*
X85500000Y-116500000D03*
D25*
X90500000Y-116500000D03*
D29*
X113500000Y-84625000D03*
M02*
