%TF.GenerationSoftware,KiCad,Pcbnew,8.0.3*%
%TF.CreationDate,2024-07-03T22:45:41+01:00*%
%TF.ProjectId,Wand Board ESP32,57616e64-2042-46f6-9172-642045535033,rev?*%
%TF.SameCoordinates,Original*%
%TF.FileFunction,Legend,Top*%
%TF.FilePolarity,Positive*%
%FSLAX46Y46*%
G04 Gerber Fmt 4.6, Leading zero omitted, Abs format (unit mm)*
G04 Created by KiCad (PCBNEW 8.0.3) date 2024-07-03 22:45:41*
%MOMM*%
%LPD*%
G01*
G04 APERTURE LIST*
G04 Aperture macros list*
%AMRoundRect*
0 Rectangle with rounded corners*
0 $1 Rounding radius*
0 $2 $3 $4 $5 $6 $7 $8 $9 X,Y pos of 4 corners*
0 Add a 4 corners polygon primitive as box body*
4,1,4,$2,$3,$4,$5,$6,$7,$8,$9,$2,$3,0*
0 Add four circle primitives for the rounded corners*
1,1,$1+$1,$2,$3*
1,1,$1+$1,$4,$5*
1,1,$1+$1,$6,$7*
1,1,$1+$1,$8,$9*
0 Add four rect primitives between the rounded corners*
20,1,$1+$1,$2,$3,$4,$5,0*
20,1,$1+$1,$4,$5,$6,$7,0*
20,1,$1+$1,$6,$7,$8,$9,0*
20,1,$1+$1,$8,$9,$2,$3,0*%
G04 Aperture macros list end*
%ADD10C,0.300000*%
%ADD11C,0.200000*%
%ADD12C,0.150000*%
%ADD13C,0.100000*%
%ADD14C,0.120000*%
%ADD15C,1.600000*%
%ADD16O,1.600000X1.600000*%
%ADD17RoundRect,0.250000X-0.600000X-0.725000X0.600000X-0.725000X0.600000X0.725000X-0.600000X0.725000X0*%
%ADD18O,1.700000X1.950000*%
%ADD19R,1.200000X1.200000*%
%ADD20C,1.200000*%
%ADD21R,2.200000X2.200000*%
%ADD22O,2.200000X2.200000*%
%ADD23C,2.600000*%
%ADD24R,2.600000X2.600000*%
%ADD25RoundRect,0.250000X-0.600000X-0.750000X0.600000X-0.750000X0.600000X0.750000X-0.600000X0.750000X0*%
%ADD26O,1.700000X2.000000*%
%ADD27R,1.600000X1.600000*%
%ADD28RoundRect,0.250000X-0.725000X0.600000X-0.725000X-0.600000X0.725000X-0.600000X0.725000X0.600000X0*%
%ADD29O,1.950000X1.700000*%
%ADD30R,1.500000X1.050000*%
%ADD31O,1.500000X1.050000*%
%ADD32C,6.400000*%
%ADD33C,1.524000*%
G04 APERTURE END LIST*
D10*
X123634571Y-68686900D02*
X124777429Y-68686900D01*
X124206000Y-69258328D02*
X124206000Y-68115471D01*
X121094571Y-68686900D02*
X122237429Y-68686900D01*
D11*
X90741523Y-121168219D02*
X90265333Y-121168219D01*
X90265333Y-121168219D02*
X90217714Y-121644409D01*
X90217714Y-121644409D02*
X90265333Y-121596790D01*
X90265333Y-121596790D02*
X90360571Y-121549171D01*
X90360571Y-121549171D02*
X90598666Y-121549171D01*
X90598666Y-121549171D02*
X90693904Y-121596790D01*
X90693904Y-121596790D02*
X90741523Y-121644409D01*
X90741523Y-121644409D02*
X90789142Y-121739647D01*
X90789142Y-121739647D02*
X90789142Y-121977742D01*
X90789142Y-121977742D02*
X90741523Y-122072980D01*
X90741523Y-122072980D02*
X90693904Y-122120600D01*
X90693904Y-122120600D02*
X90598666Y-122168219D01*
X90598666Y-122168219D02*
X90360571Y-122168219D01*
X90360571Y-122168219D02*
X90265333Y-122120600D01*
X90265333Y-122120600D02*
X90217714Y-122072980D01*
X91074857Y-121168219D02*
X91408190Y-122168219D01*
X91408190Y-122168219D02*
X91741523Y-121168219D01*
X86113904Y-121215838D02*
X86018666Y-121168219D01*
X86018666Y-121168219D02*
X85875809Y-121168219D01*
X85875809Y-121168219D02*
X85732952Y-121215838D01*
X85732952Y-121215838D02*
X85637714Y-121311076D01*
X85637714Y-121311076D02*
X85590095Y-121406314D01*
X85590095Y-121406314D02*
X85542476Y-121596790D01*
X85542476Y-121596790D02*
X85542476Y-121739647D01*
X85542476Y-121739647D02*
X85590095Y-121930123D01*
X85590095Y-121930123D02*
X85637714Y-122025361D01*
X85637714Y-122025361D02*
X85732952Y-122120600D01*
X85732952Y-122120600D02*
X85875809Y-122168219D01*
X85875809Y-122168219D02*
X85971047Y-122168219D01*
X85971047Y-122168219D02*
X86113904Y-122120600D01*
X86113904Y-122120600D02*
X86161523Y-122072980D01*
X86161523Y-122072980D02*
X86161523Y-121739647D01*
X86161523Y-121739647D02*
X85971047Y-121739647D01*
D12*
X130130779Y-68434009D02*
X130464112Y-68434009D01*
X130606969Y-68957819D02*
X130130779Y-68957819D01*
X130130779Y-68957819D02*
X130130779Y-67957819D01*
X130130779Y-67957819D02*
X130606969Y-67957819D01*
X130987922Y-68910200D02*
X131130779Y-68957819D01*
X131130779Y-68957819D02*
X131368874Y-68957819D01*
X131368874Y-68957819D02*
X131464112Y-68910200D01*
X131464112Y-68910200D02*
X131511731Y-68862580D01*
X131511731Y-68862580D02*
X131559350Y-68767342D01*
X131559350Y-68767342D02*
X131559350Y-68672104D01*
X131559350Y-68672104D02*
X131511731Y-68576866D01*
X131511731Y-68576866D02*
X131464112Y-68529247D01*
X131464112Y-68529247D02*
X131368874Y-68481628D01*
X131368874Y-68481628D02*
X131178398Y-68434009D01*
X131178398Y-68434009D02*
X131083160Y-68386390D01*
X131083160Y-68386390D02*
X131035541Y-68338771D01*
X131035541Y-68338771D02*
X130987922Y-68243533D01*
X130987922Y-68243533D02*
X130987922Y-68148295D01*
X130987922Y-68148295D02*
X131035541Y-68053057D01*
X131035541Y-68053057D02*
X131083160Y-68005438D01*
X131083160Y-68005438D02*
X131178398Y-67957819D01*
X131178398Y-67957819D02*
X131416493Y-67957819D01*
X131416493Y-67957819D02*
X131559350Y-68005438D01*
X131987922Y-68957819D02*
X131987922Y-67957819D01*
X131987922Y-67957819D02*
X132368874Y-67957819D01*
X132368874Y-67957819D02*
X132464112Y-68005438D01*
X132464112Y-68005438D02*
X132511731Y-68053057D01*
X132511731Y-68053057D02*
X132559350Y-68148295D01*
X132559350Y-68148295D02*
X132559350Y-68291152D01*
X132559350Y-68291152D02*
X132511731Y-68386390D01*
X132511731Y-68386390D02*
X132464112Y-68434009D01*
X132464112Y-68434009D02*
X132368874Y-68481628D01*
X132368874Y-68481628D02*
X131987922Y-68481628D01*
X133654589Y-67957819D02*
X133892684Y-68957819D01*
X133892684Y-68957819D02*
X134083160Y-68243533D01*
X134083160Y-68243533D02*
X134273636Y-68957819D01*
X134273636Y-68957819D02*
X134511732Y-67957819D01*
X135321255Y-68957819D02*
X135321255Y-68434009D01*
X135321255Y-68434009D02*
X135273636Y-68338771D01*
X135273636Y-68338771D02*
X135178398Y-68291152D01*
X135178398Y-68291152D02*
X134987922Y-68291152D01*
X134987922Y-68291152D02*
X134892684Y-68338771D01*
X135321255Y-68910200D02*
X135226017Y-68957819D01*
X135226017Y-68957819D02*
X134987922Y-68957819D01*
X134987922Y-68957819D02*
X134892684Y-68910200D01*
X134892684Y-68910200D02*
X134845065Y-68814961D01*
X134845065Y-68814961D02*
X134845065Y-68719723D01*
X134845065Y-68719723D02*
X134892684Y-68624485D01*
X134892684Y-68624485D02*
X134987922Y-68576866D01*
X134987922Y-68576866D02*
X135226017Y-68576866D01*
X135226017Y-68576866D02*
X135321255Y-68529247D01*
X135797446Y-68291152D02*
X135797446Y-68957819D01*
X135797446Y-68386390D02*
X135845065Y-68338771D01*
X135845065Y-68338771D02*
X135940303Y-68291152D01*
X135940303Y-68291152D02*
X136083160Y-68291152D01*
X136083160Y-68291152D02*
X136178398Y-68338771D01*
X136178398Y-68338771D02*
X136226017Y-68434009D01*
X136226017Y-68434009D02*
X136226017Y-68957819D01*
X137130779Y-68957819D02*
X137130779Y-67957819D01*
X137130779Y-68910200D02*
X137035541Y-68957819D01*
X137035541Y-68957819D02*
X136845065Y-68957819D01*
X136845065Y-68957819D02*
X136749827Y-68910200D01*
X136749827Y-68910200D02*
X136702208Y-68862580D01*
X136702208Y-68862580D02*
X136654589Y-68767342D01*
X136654589Y-68767342D02*
X136654589Y-68481628D01*
X136654589Y-68481628D02*
X136702208Y-68386390D01*
X136702208Y-68386390D02*
X136749827Y-68338771D01*
X136749827Y-68338771D02*
X136845065Y-68291152D01*
X136845065Y-68291152D02*
X137035541Y-68291152D01*
X137035541Y-68291152D02*
X137130779Y-68338771D01*
D11*
X102877333Y-122168219D02*
X102544000Y-121692028D01*
X102305905Y-122168219D02*
X102305905Y-121168219D01*
X102305905Y-121168219D02*
X102686857Y-121168219D01*
X102686857Y-121168219D02*
X102782095Y-121215838D01*
X102782095Y-121215838D02*
X102829714Y-121263457D01*
X102829714Y-121263457D02*
X102877333Y-121358695D01*
X102877333Y-121358695D02*
X102877333Y-121501552D01*
X102877333Y-121501552D02*
X102829714Y-121596790D01*
X102829714Y-121596790D02*
X102782095Y-121644409D01*
X102782095Y-121644409D02*
X102686857Y-121692028D01*
X102686857Y-121692028D02*
X102305905Y-121692028D01*
X103210667Y-121168219D02*
X103877333Y-122168219D01*
X103877333Y-121168219D02*
X103210667Y-122168219D01*
D12*
X130464112Y-69834009D02*
X130606969Y-69881628D01*
X130606969Y-69881628D02*
X130654588Y-69929247D01*
X130654588Y-69929247D02*
X130702207Y-70024485D01*
X130702207Y-70024485D02*
X130702207Y-70167342D01*
X130702207Y-70167342D02*
X130654588Y-70262580D01*
X130654588Y-70262580D02*
X130606969Y-70310200D01*
X130606969Y-70310200D02*
X130511731Y-70357819D01*
X130511731Y-70357819D02*
X130130779Y-70357819D01*
X130130779Y-70357819D02*
X130130779Y-69357819D01*
X130130779Y-69357819D02*
X130464112Y-69357819D01*
X130464112Y-69357819D02*
X130559350Y-69405438D01*
X130559350Y-69405438D02*
X130606969Y-69453057D01*
X130606969Y-69453057D02*
X130654588Y-69548295D01*
X130654588Y-69548295D02*
X130654588Y-69643533D01*
X130654588Y-69643533D02*
X130606969Y-69738771D01*
X130606969Y-69738771D02*
X130559350Y-69786390D01*
X130559350Y-69786390D02*
X130464112Y-69834009D01*
X130464112Y-69834009D02*
X130130779Y-69834009D01*
X131273636Y-70357819D02*
X131178398Y-70310200D01*
X131178398Y-70310200D02*
X131130779Y-70262580D01*
X131130779Y-70262580D02*
X131083160Y-70167342D01*
X131083160Y-70167342D02*
X131083160Y-69881628D01*
X131083160Y-69881628D02*
X131130779Y-69786390D01*
X131130779Y-69786390D02*
X131178398Y-69738771D01*
X131178398Y-69738771D02*
X131273636Y-69691152D01*
X131273636Y-69691152D02*
X131416493Y-69691152D01*
X131416493Y-69691152D02*
X131511731Y-69738771D01*
X131511731Y-69738771D02*
X131559350Y-69786390D01*
X131559350Y-69786390D02*
X131606969Y-69881628D01*
X131606969Y-69881628D02*
X131606969Y-70167342D01*
X131606969Y-70167342D02*
X131559350Y-70262580D01*
X131559350Y-70262580D02*
X131511731Y-70310200D01*
X131511731Y-70310200D02*
X131416493Y-70357819D01*
X131416493Y-70357819D02*
X131273636Y-70357819D01*
X132464112Y-70357819D02*
X132464112Y-69834009D01*
X132464112Y-69834009D02*
X132416493Y-69738771D01*
X132416493Y-69738771D02*
X132321255Y-69691152D01*
X132321255Y-69691152D02*
X132130779Y-69691152D01*
X132130779Y-69691152D02*
X132035541Y-69738771D01*
X132464112Y-70310200D02*
X132368874Y-70357819D01*
X132368874Y-70357819D02*
X132130779Y-70357819D01*
X132130779Y-70357819D02*
X132035541Y-70310200D01*
X132035541Y-70310200D02*
X131987922Y-70214961D01*
X131987922Y-70214961D02*
X131987922Y-70119723D01*
X131987922Y-70119723D02*
X132035541Y-70024485D01*
X132035541Y-70024485D02*
X132130779Y-69976866D01*
X132130779Y-69976866D02*
X132368874Y-69976866D01*
X132368874Y-69976866D02*
X132464112Y-69929247D01*
X132940303Y-70357819D02*
X132940303Y-69691152D01*
X132940303Y-69881628D02*
X132987922Y-69786390D01*
X132987922Y-69786390D02*
X133035541Y-69738771D01*
X133035541Y-69738771D02*
X133130779Y-69691152D01*
X133130779Y-69691152D02*
X133226017Y-69691152D01*
X133987922Y-70357819D02*
X133987922Y-69357819D01*
X133987922Y-70310200D02*
X133892684Y-70357819D01*
X133892684Y-70357819D02*
X133702208Y-70357819D01*
X133702208Y-70357819D02*
X133606970Y-70310200D01*
X133606970Y-70310200D02*
X133559351Y-70262580D01*
X133559351Y-70262580D02*
X133511732Y-70167342D01*
X133511732Y-70167342D02*
X133511732Y-69881628D01*
X133511732Y-69881628D02*
X133559351Y-69786390D01*
X133559351Y-69786390D02*
X133606970Y-69738771D01*
X133606970Y-69738771D02*
X133702208Y-69691152D01*
X133702208Y-69691152D02*
X133892684Y-69691152D01*
X133892684Y-69691152D02*
X133987922Y-69738771D01*
X135178399Y-69453057D02*
X135226018Y-69405438D01*
X135226018Y-69405438D02*
X135321256Y-69357819D01*
X135321256Y-69357819D02*
X135559351Y-69357819D01*
X135559351Y-69357819D02*
X135654589Y-69405438D01*
X135654589Y-69405438D02*
X135702208Y-69453057D01*
X135702208Y-69453057D02*
X135749827Y-69548295D01*
X135749827Y-69548295D02*
X135749827Y-69643533D01*
X135749827Y-69643533D02*
X135702208Y-69786390D01*
X135702208Y-69786390D02*
X135130780Y-70357819D01*
X135130780Y-70357819D02*
X135749827Y-70357819D01*
X136178399Y-70262580D02*
X136226018Y-70310200D01*
X136226018Y-70310200D02*
X136178399Y-70357819D01*
X136178399Y-70357819D02*
X136130780Y-70310200D01*
X136130780Y-70310200D02*
X136178399Y-70262580D01*
X136178399Y-70262580D02*
X136178399Y-70357819D01*
X136845065Y-69357819D02*
X136940303Y-69357819D01*
X136940303Y-69357819D02*
X137035541Y-69405438D01*
X137035541Y-69405438D02*
X137083160Y-69453057D01*
X137083160Y-69453057D02*
X137130779Y-69548295D01*
X137130779Y-69548295D02*
X137178398Y-69738771D01*
X137178398Y-69738771D02*
X137178398Y-69976866D01*
X137178398Y-69976866D02*
X137130779Y-70167342D01*
X137130779Y-70167342D02*
X137083160Y-70262580D01*
X137083160Y-70262580D02*
X137035541Y-70310200D01*
X137035541Y-70310200D02*
X136940303Y-70357819D01*
X136940303Y-70357819D02*
X136845065Y-70357819D01*
X136845065Y-70357819D02*
X136749827Y-70310200D01*
X136749827Y-70310200D02*
X136702208Y-70262580D01*
X136702208Y-70262580D02*
X136654589Y-70167342D01*
X136654589Y-70167342D02*
X136606970Y-69976866D01*
X136606970Y-69976866D02*
X136606970Y-69738771D01*
X136606970Y-69738771D02*
X136654589Y-69548295D01*
X136654589Y-69548295D02*
X136702208Y-69453057D01*
X136702208Y-69453057D02*
X136749827Y-69405438D01*
X136749827Y-69405438D02*
X136845065Y-69357819D01*
D11*
X97282095Y-121168219D02*
X97853523Y-121168219D01*
X97567809Y-122168219D02*
X97567809Y-121168219D01*
X98091619Y-121168219D02*
X98758285Y-122168219D01*
X98758285Y-121168219D02*
X98091619Y-122168219D01*
D13*
X101092580Y-86240952D02*
X101092580Y-85669524D01*
X101092580Y-85955238D02*
X102092580Y-85955238D01*
X102092580Y-85955238D02*
X101949723Y-85860000D01*
X101949723Y-85860000D02*
X101854485Y-85764762D01*
X101854485Y-85764762D02*
X101806866Y-85669524D01*
X101092580Y-86669524D02*
X102092580Y-86669524D01*
X101473533Y-86764762D02*
X101092580Y-87050476D01*
X101759247Y-87050476D02*
X101378295Y-86669524D01*
X104342580Y-85764761D02*
X104342580Y-85193333D01*
X104342580Y-85479047D02*
X105342580Y-85479047D01*
X105342580Y-85479047D02*
X105199723Y-85383809D01*
X105199723Y-85383809D02*
X105104485Y-85288571D01*
X105104485Y-85288571D02*
X105056866Y-85193333D01*
X105342580Y-86383809D02*
X105342580Y-86479047D01*
X105342580Y-86479047D02*
X105294961Y-86574285D01*
X105294961Y-86574285D02*
X105247342Y-86621904D01*
X105247342Y-86621904D02*
X105152104Y-86669523D01*
X105152104Y-86669523D02*
X104961628Y-86717142D01*
X104961628Y-86717142D02*
X104723533Y-86717142D01*
X104723533Y-86717142D02*
X104533057Y-86669523D01*
X104533057Y-86669523D02*
X104437819Y-86621904D01*
X104437819Y-86621904D02*
X104390200Y-86574285D01*
X104390200Y-86574285D02*
X104342580Y-86479047D01*
X104342580Y-86479047D02*
X104342580Y-86383809D01*
X104342580Y-86383809D02*
X104390200Y-86288571D01*
X104390200Y-86288571D02*
X104437819Y-86240952D01*
X104437819Y-86240952D02*
X104533057Y-86193333D01*
X104533057Y-86193333D02*
X104723533Y-86145714D01*
X104723533Y-86145714D02*
X104961628Y-86145714D01*
X104961628Y-86145714D02*
X105152104Y-86193333D01*
X105152104Y-86193333D02*
X105247342Y-86240952D01*
X105247342Y-86240952D02*
X105294961Y-86288571D01*
X105294961Y-86288571D02*
X105342580Y-86383809D01*
X104342580Y-87145714D02*
X105342580Y-87145714D01*
X104723533Y-87240952D02*
X104342580Y-87526666D01*
X105009247Y-87526666D02*
X104628295Y-87145714D01*
X131405428Y-77564752D02*
X131405428Y-78231419D01*
X131167333Y-77183800D02*
X130929238Y-77898085D01*
X130929238Y-77898085D02*
X131548285Y-77898085D01*
X131929238Y-78136180D02*
X131976857Y-78183800D01*
X131976857Y-78183800D02*
X131929238Y-78231419D01*
X131929238Y-78231419D02*
X131881619Y-78183800D01*
X131881619Y-78183800D02*
X131929238Y-78136180D01*
X131929238Y-78136180D02*
X131929238Y-78231419D01*
X132310190Y-77231419D02*
X132976856Y-77231419D01*
X132976856Y-77231419D02*
X132548285Y-78231419D01*
X133357809Y-78231419D02*
X133357809Y-77231419D01*
X133453047Y-77850466D02*
X133738761Y-78231419D01*
X133738761Y-77564752D02*
X133357809Y-77945704D01*
X131310190Y-72738752D02*
X131310190Y-73405419D01*
X131072095Y-72357800D02*
X130834000Y-73072085D01*
X130834000Y-73072085D02*
X131453047Y-73072085D01*
X131834000Y-73310180D02*
X131881619Y-73357800D01*
X131881619Y-73357800D02*
X131834000Y-73405419D01*
X131834000Y-73405419D02*
X131786381Y-73357800D01*
X131786381Y-73357800D02*
X131834000Y-73310180D01*
X131834000Y-73310180D02*
X131834000Y-73405419D01*
X132214952Y-72405419D02*
X132881618Y-72405419D01*
X132881618Y-72405419D02*
X132453047Y-73405419D01*
X133262571Y-73405419D02*
X133262571Y-72405419D01*
X133833999Y-73405419D02*
X133405428Y-72833990D01*
X133833999Y-72405419D02*
X133262571Y-72976847D01*
X59721905Y-78342657D02*
X59769524Y-78295038D01*
X59769524Y-78295038D02*
X59864762Y-78247419D01*
X59864762Y-78247419D02*
X60102857Y-78247419D01*
X60102857Y-78247419D02*
X60198095Y-78295038D01*
X60198095Y-78295038D02*
X60245714Y-78342657D01*
X60245714Y-78342657D02*
X60293333Y-78437895D01*
X60293333Y-78437895D02*
X60293333Y-78533133D01*
X60293333Y-78533133D02*
X60245714Y-78675990D01*
X60245714Y-78675990D02*
X59674286Y-79247419D01*
X59674286Y-79247419D02*
X60293333Y-79247419D01*
X60674286Y-78342657D02*
X60721905Y-78295038D01*
X60721905Y-78295038D02*
X60817143Y-78247419D01*
X60817143Y-78247419D02*
X61055238Y-78247419D01*
X61055238Y-78247419D02*
X61150476Y-78295038D01*
X61150476Y-78295038D02*
X61198095Y-78342657D01*
X61198095Y-78342657D02*
X61245714Y-78437895D01*
X61245714Y-78437895D02*
X61245714Y-78533133D01*
X61245714Y-78533133D02*
X61198095Y-78675990D01*
X61198095Y-78675990D02*
X60626667Y-79247419D01*
X60626667Y-79247419D02*
X61245714Y-79247419D01*
X61864762Y-78247419D02*
X61960000Y-78247419D01*
X61960000Y-78247419D02*
X62055238Y-78295038D01*
X62055238Y-78295038D02*
X62102857Y-78342657D01*
X62102857Y-78342657D02*
X62150476Y-78437895D01*
X62150476Y-78437895D02*
X62198095Y-78628371D01*
X62198095Y-78628371D02*
X62198095Y-78866466D01*
X62198095Y-78866466D02*
X62150476Y-79056942D01*
X62150476Y-79056942D02*
X62102857Y-79152180D01*
X62102857Y-79152180D02*
X62055238Y-79199800D01*
X62055238Y-79199800D02*
X61960000Y-79247419D01*
X61960000Y-79247419D02*
X61864762Y-79247419D01*
X61864762Y-79247419D02*
X61769524Y-79199800D01*
X61769524Y-79199800D02*
X61721905Y-79152180D01*
X61721905Y-79152180D02*
X61674286Y-79056942D01*
X61674286Y-79056942D02*
X61626667Y-78866466D01*
X61626667Y-78866466D02*
X61626667Y-78628371D01*
X61626667Y-78628371D02*
X61674286Y-78437895D01*
X61674286Y-78437895D02*
X61721905Y-78342657D01*
X61721905Y-78342657D02*
X61769524Y-78295038D01*
X61769524Y-78295038D02*
X61864762Y-78247419D01*
D12*
X57972380Y-75651009D02*
X58115237Y-75698628D01*
X58115237Y-75698628D02*
X58162856Y-75746247D01*
X58162856Y-75746247D02*
X58210475Y-75841485D01*
X58210475Y-75841485D02*
X58210475Y-75984342D01*
X58210475Y-75984342D02*
X58162856Y-76079580D01*
X58162856Y-76079580D02*
X58115237Y-76127200D01*
X58115237Y-76127200D02*
X58019999Y-76174819D01*
X58019999Y-76174819D02*
X57639047Y-76174819D01*
X57639047Y-76174819D02*
X57639047Y-75174819D01*
X57639047Y-75174819D02*
X57972380Y-75174819D01*
X57972380Y-75174819D02*
X58067618Y-75222438D01*
X58067618Y-75222438D02*
X58115237Y-75270057D01*
X58115237Y-75270057D02*
X58162856Y-75365295D01*
X58162856Y-75365295D02*
X58162856Y-75460533D01*
X58162856Y-75460533D02*
X58115237Y-75555771D01*
X58115237Y-75555771D02*
X58067618Y-75603390D01*
X58067618Y-75603390D02*
X57972380Y-75651009D01*
X57972380Y-75651009D02*
X57639047Y-75651009D01*
X59210475Y-76174819D02*
X58877142Y-75698628D01*
X58639047Y-76174819D02*
X58639047Y-75174819D01*
X58639047Y-75174819D02*
X59019999Y-75174819D01*
X59019999Y-75174819D02*
X59115237Y-75222438D01*
X59115237Y-75222438D02*
X59162856Y-75270057D01*
X59162856Y-75270057D02*
X59210475Y-75365295D01*
X59210475Y-75365295D02*
X59210475Y-75508152D01*
X59210475Y-75508152D02*
X59162856Y-75603390D01*
X59162856Y-75603390D02*
X59115237Y-75651009D01*
X59115237Y-75651009D02*
X59019999Y-75698628D01*
X59019999Y-75698628D02*
X58639047Y-75698628D01*
X60115237Y-76174819D02*
X59639047Y-76174819D01*
X59639047Y-76174819D02*
X59639047Y-75174819D01*
X61686666Y-76174819D02*
X61210476Y-76174819D01*
X61210476Y-76174819D02*
X61210476Y-75174819D01*
X62020000Y-75651009D02*
X62353333Y-75651009D01*
X62496190Y-76174819D02*
X62020000Y-76174819D01*
X62020000Y-76174819D02*
X62020000Y-75174819D01*
X62020000Y-75174819D02*
X62496190Y-75174819D01*
X62924762Y-76174819D02*
X62924762Y-75174819D01*
X62924762Y-75174819D02*
X63162857Y-75174819D01*
X63162857Y-75174819D02*
X63305714Y-75222438D01*
X63305714Y-75222438D02*
X63400952Y-75317676D01*
X63400952Y-75317676D02*
X63448571Y-75412914D01*
X63448571Y-75412914D02*
X63496190Y-75603390D01*
X63496190Y-75603390D02*
X63496190Y-75746247D01*
X63496190Y-75746247D02*
X63448571Y-75936723D01*
X63448571Y-75936723D02*
X63400952Y-76031961D01*
X63400952Y-76031961D02*
X63305714Y-76127200D01*
X63305714Y-76127200D02*
X63162857Y-76174819D01*
X63162857Y-76174819D02*
X62924762Y-76174819D01*
X63877143Y-76127200D02*
X64020000Y-76174819D01*
X64020000Y-76174819D02*
X64258095Y-76174819D01*
X64258095Y-76174819D02*
X64353333Y-76127200D01*
X64353333Y-76127200D02*
X64400952Y-76079580D01*
X64400952Y-76079580D02*
X64448571Y-75984342D01*
X64448571Y-75984342D02*
X64448571Y-75889104D01*
X64448571Y-75889104D02*
X64400952Y-75793866D01*
X64400952Y-75793866D02*
X64353333Y-75746247D01*
X64353333Y-75746247D02*
X64258095Y-75698628D01*
X64258095Y-75698628D02*
X64067619Y-75651009D01*
X64067619Y-75651009D02*
X63972381Y-75603390D01*
X63972381Y-75603390D02*
X63924762Y-75555771D01*
X63924762Y-75555771D02*
X63877143Y-75460533D01*
X63877143Y-75460533D02*
X63877143Y-75365295D01*
X63877143Y-75365295D02*
X63924762Y-75270057D01*
X63924762Y-75270057D02*
X63972381Y-75222438D01*
X63972381Y-75222438D02*
X64067619Y-75174819D01*
X64067619Y-75174819D02*
X64305714Y-75174819D01*
X64305714Y-75174819D02*
X64448571Y-75222438D01*
D11*
X62088095Y-67812219D02*
X62088095Y-66812219D01*
X62088095Y-66812219D02*
X62326190Y-66812219D01*
X62326190Y-66812219D02*
X62469047Y-66859838D01*
X62469047Y-66859838D02*
X62564285Y-66955076D01*
X62564285Y-66955076D02*
X62611904Y-67050314D01*
X62611904Y-67050314D02*
X62659523Y-67240790D01*
X62659523Y-67240790D02*
X62659523Y-67383647D01*
X62659523Y-67383647D02*
X62611904Y-67574123D01*
X62611904Y-67574123D02*
X62564285Y-67669361D01*
X62564285Y-67669361D02*
X62469047Y-67764600D01*
X62469047Y-67764600D02*
X62326190Y-67812219D01*
X62326190Y-67812219D02*
X62088095Y-67812219D01*
X64794762Y-66812219D02*
X64985238Y-66812219D01*
X64985238Y-66812219D02*
X65080476Y-66859838D01*
X65080476Y-66859838D02*
X65175714Y-66955076D01*
X65175714Y-66955076D02*
X65223333Y-67145552D01*
X65223333Y-67145552D02*
X65223333Y-67478885D01*
X65223333Y-67478885D02*
X65175714Y-67669361D01*
X65175714Y-67669361D02*
X65080476Y-67764600D01*
X65080476Y-67764600D02*
X64985238Y-67812219D01*
X64985238Y-67812219D02*
X64794762Y-67812219D01*
X64794762Y-67812219D02*
X64699524Y-67764600D01*
X64699524Y-67764600D02*
X64604286Y-67669361D01*
X64604286Y-67669361D02*
X64556667Y-67478885D01*
X64556667Y-67478885D02*
X64556667Y-67145552D01*
X64556667Y-67145552D02*
X64604286Y-66955076D01*
X64604286Y-66955076D02*
X64699524Y-66859838D01*
X64699524Y-66859838D02*
X64794762Y-66812219D01*
X59619523Y-66812219D02*
X59143333Y-66812219D01*
X59143333Y-66812219D02*
X59095714Y-67288409D01*
X59095714Y-67288409D02*
X59143333Y-67240790D01*
X59143333Y-67240790D02*
X59238571Y-67193171D01*
X59238571Y-67193171D02*
X59476666Y-67193171D01*
X59476666Y-67193171D02*
X59571904Y-67240790D01*
X59571904Y-67240790D02*
X59619523Y-67288409D01*
X59619523Y-67288409D02*
X59667142Y-67383647D01*
X59667142Y-67383647D02*
X59667142Y-67621742D01*
X59667142Y-67621742D02*
X59619523Y-67716980D01*
X59619523Y-67716980D02*
X59571904Y-67764600D01*
X59571904Y-67764600D02*
X59476666Y-67812219D01*
X59476666Y-67812219D02*
X59238571Y-67812219D01*
X59238571Y-67812219D02*
X59143333Y-67764600D01*
X59143333Y-67764600D02*
X59095714Y-67716980D01*
X59952857Y-66812219D02*
X60286190Y-67812219D01*
X60286190Y-67812219D02*
X60619523Y-66812219D01*
X57531904Y-66859838D02*
X57436666Y-66812219D01*
X57436666Y-66812219D02*
X57293809Y-66812219D01*
X57293809Y-66812219D02*
X57150952Y-66859838D01*
X57150952Y-66859838D02*
X57055714Y-66955076D01*
X57055714Y-66955076D02*
X57008095Y-67050314D01*
X57008095Y-67050314D02*
X56960476Y-67240790D01*
X56960476Y-67240790D02*
X56960476Y-67383647D01*
X56960476Y-67383647D02*
X57008095Y-67574123D01*
X57008095Y-67574123D02*
X57055714Y-67669361D01*
X57055714Y-67669361D02*
X57150952Y-67764600D01*
X57150952Y-67764600D02*
X57293809Y-67812219D01*
X57293809Y-67812219D02*
X57389047Y-67812219D01*
X57389047Y-67812219D02*
X57531904Y-67764600D01*
X57531904Y-67764600D02*
X57579523Y-67716980D01*
X57579523Y-67716980D02*
X57579523Y-67383647D01*
X57579523Y-67383647D02*
X57389047Y-67383647D01*
D12*
X57424761Y-89621009D02*
X57567618Y-89668628D01*
X57567618Y-89668628D02*
X57615237Y-89716247D01*
X57615237Y-89716247D02*
X57662856Y-89811485D01*
X57662856Y-89811485D02*
X57662856Y-89954342D01*
X57662856Y-89954342D02*
X57615237Y-90049580D01*
X57615237Y-90049580D02*
X57567618Y-90097200D01*
X57567618Y-90097200D02*
X57472380Y-90144819D01*
X57472380Y-90144819D02*
X57091428Y-90144819D01*
X57091428Y-90144819D02*
X57091428Y-89144819D01*
X57091428Y-89144819D02*
X57424761Y-89144819D01*
X57424761Y-89144819D02*
X57519999Y-89192438D01*
X57519999Y-89192438D02*
X57567618Y-89240057D01*
X57567618Y-89240057D02*
X57615237Y-89335295D01*
X57615237Y-89335295D02*
X57615237Y-89430533D01*
X57615237Y-89430533D02*
X57567618Y-89525771D01*
X57567618Y-89525771D02*
X57519999Y-89573390D01*
X57519999Y-89573390D02*
X57424761Y-89621009D01*
X57424761Y-89621009D02*
X57091428Y-89621009D01*
X58281904Y-89144819D02*
X58472380Y-89144819D01*
X58472380Y-89144819D02*
X58567618Y-89192438D01*
X58567618Y-89192438D02*
X58662856Y-89287676D01*
X58662856Y-89287676D02*
X58710475Y-89478152D01*
X58710475Y-89478152D02*
X58710475Y-89811485D01*
X58710475Y-89811485D02*
X58662856Y-90001961D01*
X58662856Y-90001961D02*
X58567618Y-90097200D01*
X58567618Y-90097200D02*
X58472380Y-90144819D01*
X58472380Y-90144819D02*
X58281904Y-90144819D01*
X58281904Y-90144819D02*
X58186666Y-90097200D01*
X58186666Y-90097200D02*
X58091428Y-90001961D01*
X58091428Y-90001961D02*
X58043809Y-89811485D01*
X58043809Y-89811485D02*
X58043809Y-89478152D01*
X58043809Y-89478152D02*
X58091428Y-89287676D01*
X58091428Y-89287676D02*
X58186666Y-89192438D01*
X58186666Y-89192438D02*
X58281904Y-89144819D01*
X59139047Y-90144819D02*
X59139047Y-89144819D01*
X59139047Y-89144819D02*
X59377142Y-89144819D01*
X59377142Y-89144819D02*
X59519999Y-89192438D01*
X59519999Y-89192438D02*
X59615237Y-89287676D01*
X59615237Y-89287676D02*
X59662856Y-89382914D01*
X59662856Y-89382914D02*
X59710475Y-89573390D01*
X59710475Y-89573390D02*
X59710475Y-89716247D01*
X59710475Y-89716247D02*
X59662856Y-89906723D01*
X59662856Y-89906723D02*
X59615237Y-90001961D01*
X59615237Y-90001961D02*
X59519999Y-90097200D01*
X59519999Y-90097200D02*
X59377142Y-90144819D01*
X59377142Y-90144819D02*
X59139047Y-90144819D01*
X60329523Y-89668628D02*
X60329523Y-90144819D01*
X59996190Y-89144819D02*
X60329523Y-89668628D01*
X60329523Y-89668628D02*
X60662856Y-89144819D01*
X62234285Y-90144819D02*
X61758095Y-90144819D01*
X61758095Y-90144819D02*
X61758095Y-89144819D01*
X62567619Y-89621009D02*
X62900952Y-89621009D01*
X63043809Y-90144819D02*
X62567619Y-90144819D01*
X62567619Y-90144819D02*
X62567619Y-89144819D01*
X62567619Y-89144819D02*
X63043809Y-89144819D01*
X63472381Y-90144819D02*
X63472381Y-89144819D01*
X63472381Y-89144819D02*
X63710476Y-89144819D01*
X63710476Y-89144819D02*
X63853333Y-89192438D01*
X63853333Y-89192438D02*
X63948571Y-89287676D01*
X63948571Y-89287676D02*
X63996190Y-89382914D01*
X63996190Y-89382914D02*
X64043809Y-89573390D01*
X64043809Y-89573390D02*
X64043809Y-89716247D01*
X64043809Y-89716247D02*
X63996190Y-89906723D01*
X63996190Y-89906723D02*
X63948571Y-90001961D01*
X63948571Y-90001961D02*
X63853333Y-90097200D01*
X63853333Y-90097200D02*
X63710476Y-90144819D01*
X63710476Y-90144819D02*
X63472381Y-90144819D01*
X64424762Y-90097200D02*
X64567619Y-90144819D01*
X64567619Y-90144819D02*
X64805714Y-90144819D01*
X64805714Y-90144819D02*
X64900952Y-90097200D01*
X64900952Y-90097200D02*
X64948571Y-90049580D01*
X64948571Y-90049580D02*
X64996190Y-89954342D01*
X64996190Y-89954342D02*
X64996190Y-89859104D01*
X64996190Y-89859104D02*
X64948571Y-89763866D01*
X64948571Y-89763866D02*
X64900952Y-89716247D01*
X64900952Y-89716247D02*
X64805714Y-89668628D01*
X64805714Y-89668628D02*
X64615238Y-89621009D01*
X64615238Y-89621009D02*
X64520000Y-89573390D01*
X64520000Y-89573390D02*
X64472381Y-89525771D01*
X64472381Y-89525771D02*
X64424762Y-89430533D01*
X64424762Y-89430533D02*
X64424762Y-89335295D01*
X64424762Y-89335295D02*
X64472381Y-89240057D01*
X64472381Y-89240057D02*
X64520000Y-89192438D01*
X64520000Y-89192438D02*
X64615238Y-89144819D01*
X64615238Y-89144819D02*
X64853333Y-89144819D01*
X64853333Y-89144819D02*
X64996190Y-89192438D01*
D11*
X62088095Y-81782219D02*
X62088095Y-80782219D01*
X62088095Y-80782219D02*
X62326190Y-80782219D01*
X62326190Y-80782219D02*
X62469047Y-80829838D01*
X62469047Y-80829838D02*
X62564285Y-80925076D01*
X62564285Y-80925076D02*
X62611904Y-81020314D01*
X62611904Y-81020314D02*
X62659523Y-81210790D01*
X62659523Y-81210790D02*
X62659523Y-81353647D01*
X62659523Y-81353647D02*
X62611904Y-81544123D01*
X62611904Y-81544123D02*
X62564285Y-81639361D01*
X62564285Y-81639361D02*
X62469047Y-81734600D01*
X62469047Y-81734600D02*
X62326190Y-81782219D01*
X62326190Y-81782219D02*
X62088095Y-81782219D01*
X64794762Y-80782219D02*
X64985238Y-80782219D01*
X64985238Y-80782219D02*
X65080476Y-80829838D01*
X65080476Y-80829838D02*
X65175714Y-80925076D01*
X65175714Y-80925076D02*
X65223333Y-81115552D01*
X65223333Y-81115552D02*
X65223333Y-81448885D01*
X65223333Y-81448885D02*
X65175714Y-81639361D01*
X65175714Y-81639361D02*
X65080476Y-81734600D01*
X65080476Y-81734600D02*
X64985238Y-81782219D01*
X64985238Y-81782219D02*
X64794762Y-81782219D01*
X64794762Y-81782219D02*
X64699524Y-81734600D01*
X64699524Y-81734600D02*
X64604286Y-81639361D01*
X64604286Y-81639361D02*
X64556667Y-81448885D01*
X64556667Y-81448885D02*
X64556667Y-81115552D01*
X64556667Y-81115552D02*
X64604286Y-80925076D01*
X64604286Y-80925076D02*
X64699524Y-80829838D01*
X64699524Y-80829838D02*
X64794762Y-80782219D01*
X59619523Y-80782219D02*
X59143333Y-80782219D01*
X59143333Y-80782219D02*
X59095714Y-81258409D01*
X59095714Y-81258409D02*
X59143333Y-81210790D01*
X59143333Y-81210790D02*
X59238571Y-81163171D01*
X59238571Y-81163171D02*
X59476666Y-81163171D01*
X59476666Y-81163171D02*
X59571904Y-81210790D01*
X59571904Y-81210790D02*
X59619523Y-81258409D01*
X59619523Y-81258409D02*
X59667142Y-81353647D01*
X59667142Y-81353647D02*
X59667142Y-81591742D01*
X59667142Y-81591742D02*
X59619523Y-81686980D01*
X59619523Y-81686980D02*
X59571904Y-81734600D01*
X59571904Y-81734600D02*
X59476666Y-81782219D01*
X59476666Y-81782219D02*
X59238571Y-81782219D01*
X59238571Y-81782219D02*
X59143333Y-81734600D01*
X59143333Y-81734600D02*
X59095714Y-81686980D01*
X59952857Y-80782219D02*
X60286190Y-81782219D01*
X60286190Y-81782219D02*
X60619523Y-80782219D01*
X57531904Y-80829838D02*
X57436666Y-80782219D01*
X57436666Y-80782219D02*
X57293809Y-80782219D01*
X57293809Y-80782219D02*
X57150952Y-80829838D01*
X57150952Y-80829838D02*
X57055714Y-80925076D01*
X57055714Y-80925076D02*
X57008095Y-81020314D01*
X57008095Y-81020314D02*
X56960476Y-81210790D01*
X56960476Y-81210790D02*
X56960476Y-81353647D01*
X56960476Y-81353647D02*
X57008095Y-81544123D01*
X57008095Y-81544123D02*
X57055714Y-81639361D01*
X57055714Y-81639361D02*
X57150952Y-81734600D01*
X57150952Y-81734600D02*
X57293809Y-81782219D01*
X57293809Y-81782219D02*
X57389047Y-81782219D01*
X57389047Y-81782219D02*
X57531904Y-81734600D01*
X57531904Y-81734600D02*
X57579523Y-81686980D01*
X57579523Y-81686980D02*
X57579523Y-81353647D01*
X57579523Y-81353647D02*
X57389047Y-81353647D01*
D12*
X58198095Y-100828819D02*
X58769523Y-100828819D01*
X58483809Y-101828819D02*
X58483809Y-100828819D01*
X59102857Y-101828819D02*
X59102857Y-100828819D01*
X59579047Y-101828819D02*
X59579047Y-100828819D01*
X59579047Y-100828819D02*
X59959999Y-100828819D01*
X59959999Y-100828819D02*
X60055237Y-100876438D01*
X60055237Y-100876438D02*
X60102856Y-100924057D01*
X60102856Y-100924057D02*
X60150475Y-101019295D01*
X60150475Y-101019295D02*
X60150475Y-101162152D01*
X60150475Y-101162152D02*
X60102856Y-101257390D01*
X60102856Y-101257390D02*
X60055237Y-101305009D01*
X60055237Y-101305009D02*
X59959999Y-101352628D01*
X59959999Y-101352628D02*
X59579047Y-101352628D01*
X61817142Y-101828819D02*
X61340952Y-101828819D01*
X61340952Y-101828819D02*
X61340952Y-100828819D01*
X62150476Y-101305009D02*
X62483809Y-101305009D01*
X62626666Y-101828819D02*
X62150476Y-101828819D01*
X62150476Y-101828819D02*
X62150476Y-100828819D01*
X62150476Y-100828819D02*
X62626666Y-100828819D01*
X63055238Y-101828819D02*
X63055238Y-100828819D01*
X63055238Y-100828819D02*
X63293333Y-100828819D01*
X63293333Y-100828819D02*
X63436190Y-100876438D01*
X63436190Y-100876438D02*
X63531428Y-100971676D01*
X63531428Y-100971676D02*
X63579047Y-101066914D01*
X63579047Y-101066914D02*
X63626666Y-101257390D01*
X63626666Y-101257390D02*
X63626666Y-101400247D01*
X63626666Y-101400247D02*
X63579047Y-101590723D01*
X63579047Y-101590723D02*
X63531428Y-101685961D01*
X63531428Y-101685961D02*
X63436190Y-101781200D01*
X63436190Y-101781200D02*
X63293333Y-101828819D01*
X63293333Y-101828819D02*
X63055238Y-101828819D01*
D11*
X63278095Y-93641219D02*
X63278095Y-92641219D01*
X63278095Y-92641219D02*
X63516190Y-92641219D01*
X63516190Y-92641219D02*
X63659047Y-92688838D01*
X63659047Y-92688838D02*
X63754285Y-92784076D01*
X63754285Y-92784076D02*
X63801904Y-92879314D01*
X63801904Y-92879314D02*
X63849523Y-93069790D01*
X63849523Y-93069790D02*
X63849523Y-93212647D01*
X63849523Y-93212647D02*
X63801904Y-93403123D01*
X63801904Y-93403123D02*
X63754285Y-93498361D01*
X63754285Y-93498361D02*
X63659047Y-93593600D01*
X63659047Y-93593600D02*
X63516190Y-93641219D01*
X63516190Y-93641219D02*
X63278095Y-93641219D01*
X58721904Y-92688838D02*
X58626666Y-92641219D01*
X58626666Y-92641219D02*
X58483809Y-92641219D01*
X58483809Y-92641219D02*
X58340952Y-92688838D01*
X58340952Y-92688838D02*
X58245714Y-92784076D01*
X58245714Y-92784076D02*
X58198095Y-92879314D01*
X58198095Y-92879314D02*
X58150476Y-93069790D01*
X58150476Y-93069790D02*
X58150476Y-93212647D01*
X58150476Y-93212647D02*
X58198095Y-93403123D01*
X58198095Y-93403123D02*
X58245714Y-93498361D01*
X58245714Y-93498361D02*
X58340952Y-93593600D01*
X58340952Y-93593600D02*
X58483809Y-93641219D01*
X58483809Y-93641219D02*
X58579047Y-93641219D01*
X58579047Y-93641219D02*
X58721904Y-93593600D01*
X58721904Y-93593600D02*
X58769523Y-93545980D01*
X58769523Y-93545980D02*
X58769523Y-93212647D01*
X58769523Y-93212647D02*
X58579047Y-93212647D01*
X60809523Y-92641219D02*
X60333333Y-92641219D01*
X60333333Y-92641219D02*
X60285714Y-93117409D01*
X60285714Y-93117409D02*
X60333333Y-93069790D01*
X60333333Y-93069790D02*
X60428571Y-93022171D01*
X60428571Y-93022171D02*
X60666666Y-93022171D01*
X60666666Y-93022171D02*
X60761904Y-93069790D01*
X60761904Y-93069790D02*
X60809523Y-93117409D01*
X60809523Y-93117409D02*
X60857142Y-93212647D01*
X60857142Y-93212647D02*
X60857142Y-93450742D01*
X60857142Y-93450742D02*
X60809523Y-93545980D01*
X60809523Y-93545980D02*
X60761904Y-93593600D01*
X60761904Y-93593600D02*
X60666666Y-93641219D01*
X60666666Y-93641219D02*
X60428571Y-93641219D01*
X60428571Y-93641219D02*
X60333333Y-93593600D01*
X60333333Y-93593600D02*
X60285714Y-93545980D01*
X61142857Y-92641219D02*
X61476190Y-93641219D01*
X61476190Y-93641219D02*
X61809523Y-92641219D01*
D12*
X114464819Y-73000856D02*
X114464819Y-72905618D01*
X114464819Y-72905618D02*
X114512438Y-72810380D01*
X114512438Y-72810380D02*
X114560057Y-72762761D01*
X114560057Y-72762761D02*
X114655295Y-72715142D01*
X114655295Y-72715142D02*
X114845771Y-72667523D01*
X114845771Y-72667523D02*
X115083866Y-72667523D01*
X115083866Y-72667523D02*
X115274342Y-72715142D01*
X115274342Y-72715142D02*
X115369580Y-72762761D01*
X115369580Y-72762761D02*
X115417200Y-72810380D01*
X115417200Y-72810380D02*
X115464819Y-72905618D01*
X115464819Y-72905618D02*
X115464819Y-73000856D01*
X115464819Y-73000856D02*
X115417200Y-73096094D01*
X115417200Y-73096094D02*
X115369580Y-73143713D01*
X115369580Y-73143713D02*
X115274342Y-73191332D01*
X115274342Y-73191332D02*
X115083866Y-73238951D01*
X115083866Y-73238951D02*
X114845771Y-73238951D01*
X114845771Y-73238951D02*
X114655295Y-73191332D01*
X114655295Y-73191332D02*
X114560057Y-73143713D01*
X114560057Y-73143713D02*
X114512438Y-73096094D01*
X114512438Y-73096094D02*
X114464819Y-73000856D01*
X115369580Y-72238951D02*
X115417200Y-72191332D01*
X115417200Y-72191332D02*
X115464819Y-72238951D01*
X115464819Y-72238951D02*
X115417200Y-72286570D01*
X115417200Y-72286570D02*
X115369580Y-72238951D01*
X115369580Y-72238951D02*
X115464819Y-72238951D01*
X115464819Y-71238952D02*
X115464819Y-71810380D01*
X115464819Y-71524666D02*
X114464819Y-71524666D01*
X114464819Y-71524666D02*
X114607676Y-71619904D01*
X114607676Y-71619904D02*
X114702914Y-71715142D01*
X114702914Y-71715142D02*
X114750533Y-71810380D01*
X114798152Y-70381809D02*
X115464819Y-70381809D01*
X114798152Y-70810380D02*
X115321961Y-70810380D01*
X115321961Y-70810380D02*
X115417200Y-70762761D01*
X115417200Y-70762761D02*
X115464819Y-70667523D01*
X115464819Y-70667523D02*
X115464819Y-70524666D01*
X115464819Y-70524666D02*
X115417200Y-70429428D01*
X115417200Y-70429428D02*
X115369580Y-70381809D01*
X114941009Y-69572285D02*
X114941009Y-69905618D01*
X115464819Y-69905618D02*
X114464819Y-69905618D01*
X114464819Y-69905618D02*
X114464819Y-69429428D01*
X84582761Y-101305009D02*
X84725618Y-101352628D01*
X84725618Y-101352628D02*
X84773237Y-101400247D01*
X84773237Y-101400247D02*
X84820856Y-101495485D01*
X84820856Y-101495485D02*
X84820856Y-101638342D01*
X84820856Y-101638342D02*
X84773237Y-101733580D01*
X84773237Y-101733580D02*
X84725618Y-101781200D01*
X84725618Y-101781200D02*
X84630380Y-101828819D01*
X84630380Y-101828819D02*
X84249428Y-101828819D01*
X84249428Y-101828819D02*
X84249428Y-100828819D01*
X84249428Y-100828819D02*
X84582761Y-100828819D01*
X84582761Y-100828819D02*
X84677999Y-100876438D01*
X84677999Y-100876438D02*
X84725618Y-100924057D01*
X84725618Y-100924057D02*
X84773237Y-101019295D01*
X84773237Y-101019295D02*
X84773237Y-101114533D01*
X84773237Y-101114533D02*
X84725618Y-101209771D01*
X84725618Y-101209771D02*
X84677999Y-101257390D01*
X84677999Y-101257390D02*
X84582761Y-101305009D01*
X84582761Y-101305009D02*
X84249428Y-101305009D01*
X85820856Y-101828819D02*
X85487523Y-101352628D01*
X85249428Y-101828819D02*
X85249428Y-100828819D01*
X85249428Y-100828819D02*
X85630380Y-100828819D01*
X85630380Y-100828819D02*
X85725618Y-100876438D01*
X85725618Y-100876438D02*
X85773237Y-100924057D01*
X85773237Y-100924057D02*
X85820856Y-101019295D01*
X85820856Y-101019295D02*
X85820856Y-101162152D01*
X85820856Y-101162152D02*
X85773237Y-101257390D01*
X85773237Y-101257390D02*
X85725618Y-101305009D01*
X85725618Y-101305009D02*
X85630380Y-101352628D01*
X85630380Y-101352628D02*
X85249428Y-101352628D01*
X86725618Y-101828819D02*
X86249428Y-101828819D01*
X86249428Y-101828819D02*
X86249428Y-100828819D01*
X87773238Y-101781200D02*
X87916095Y-101828819D01*
X87916095Y-101828819D02*
X88154190Y-101828819D01*
X88154190Y-101828819D02*
X88249428Y-101781200D01*
X88249428Y-101781200D02*
X88297047Y-101733580D01*
X88297047Y-101733580D02*
X88344666Y-101638342D01*
X88344666Y-101638342D02*
X88344666Y-101543104D01*
X88344666Y-101543104D02*
X88297047Y-101447866D01*
X88297047Y-101447866D02*
X88249428Y-101400247D01*
X88249428Y-101400247D02*
X88154190Y-101352628D01*
X88154190Y-101352628D02*
X87963714Y-101305009D01*
X87963714Y-101305009D02*
X87868476Y-101257390D01*
X87868476Y-101257390D02*
X87820857Y-101209771D01*
X87820857Y-101209771D02*
X87773238Y-101114533D01*
X87773238Y-101114533D02*
X87773238Y-101019295D01*
X87773238Y-101019295D02*
X87820857Y-100924057D01*
X87820857Y-100924057D02*
X87868476Y-100876438D01*
X87868476Y-100876438D02*
X87963714Y-100828819D01*
X87963714Y-100828819D02*
X88201809Y-100828819D01*
X88201809Y-100828819D02*
X88344666Y-100876438D01*
X88773238Y-101305009D02*
X89106571Y-101305009D01*
X89249428Y-101828819D02*
X88773238Y-101828819D01*
X88773238Y-101828819D02*
X88773238Y-100828819D01*
X88773238Y-100828819D02*
X89249428Y-100828819D01*
X89678000Y-101828819D02*
X89678000Y-100828819D01*
X89678000Y-100828819D02*
X90249428Y-101828819D01*
X90249428Y-101828819D02*
X90249428Y-100828819D01*
X90678000Y-101781200D02*
X90820857Y-101828819D01*
X90820857Y-101828819D02*
X91058952Y-101828819D01*
X91058952Y-101828819D02*
X91154190Y-101781200D01*
X91154190Y-101781200D02*
X91201809Y-101733580D01*
X91201809Y-101733580D02*
X91249428Y-101638342D01*
X91249428Y-101638342D02*
X91249428Y-101543104D01*
X91249428Y-101543104D02*
X91201809Y-101447866D01*
X91201809Y-101447866D02*
X91154190Y-101400247D01*
X91154190Y-101400247D02*
X91058952Y-101352628D01*
X91058952Y-101352628D02*
X90868476Y-101305009D01*
X90868476Y-101305009D02*
X90773238Y-101257390D01*
X90773238Y-101257390D02*
X90725619Y-101209771D01*
X90725619Y-101209771D02*
X90678000Y-101114533D01*
X90678000Y-101114533D02*
X90678000Y-101019295D01*
X90678000Y-101019295D02*
X90725619Y-100924057D01*
X90725619Y-100924057D02*
X90773238Y-100876438D01*
X90773238Y-100876438D02*
X90868476Y-100828819D01*
X90868476Y-100828819D02*
X91106571Y-100828819D01*
X91106571Y-100828819D02*
X91249428Y-100876438D01*
X91678000Y-101305009D02*
X92011333Y-101305009D01*
X92154190Y-101828819D02*
X91678000Y-101828819D01*
X91678000Y-101828819D02*
X91678000Y-100828819D01*
X91678000Y-100828819D02*
X92154190Y-100828819D01*
D11*
X84490410Y-92626896D02*
X85109457Y-92626896D01*
X85109457Y-92626896D02*
X84776124Y-93007848D01*
X84776124Y-93007848D02*
X84918981Y-93007848D01*
X84918981Y-93007848D02*
X85014219Y-93055467D01*
X85014219Y-93055467D02*
X85061838Y-93103086D01*
X85061838Y-93103086D02*
X85109457Y-93198324D01*
X85109457Y-93198324D02*
X85109457Y-93436419D01*
X85109457Y-93436419D02*
X85061838Y-93531657D01*
X85061838Y-93531657D02*
X85014219Y-93579277D01*
X85014219Y-93579277D02*
X84918981Y-93626896D01*
X84918981Y-93626896D02*
X84633267Y-93626896D01*
X84633267Y-93626896D02*
X84538029Y-93579277D01*
X84538029Y-93579277D02*
X84490410Y-93531657D01*
X85442791Y-92960229D02*
X85680886Y-93626896D01*
X85680886Y-93626896D02*
X85918981Y-92960229D01*
X86204696Y-92626896D02*
X86823743Y-92626896D01*
X86823743Y-92626896D02*
X86490410Y-93007848D01*
X86490410Y-93007848D02*
X86633267Y-93007848D01*
X86633267Y-93007848D02*
X86728505Y-93055467D01*
X86728505Y-93055467D02*
X86776124Y-93103086D01*
X86776124Y-93103086D02*
X86823743Y-93198324D01*
X86823743Y-93198324D02*
X86823743Y-93436419D01*
X86823743Y-93436419D02*
X86776124Y-93531657D01*
X86776124Y-93531657D02*
X86728505Y-93579277D01*
X86728505Y-93579277D02*
X86633267Y-93626896D01*
X86633267Y-93626896D02*
X86347553Y-93626896D01*
X86347553Y-93626896D02*
X86252315Y-93579277D01*
X86252315Y-93579277D02*
X86204696Y-93531657D01*
X90472286Y-93593600D02*
X90615143Y-93641219D01*
X90615143Y-93641219D02*
X90853238Y-93641219D01*
X90853238Y-93641219D02*
X90948476Y-93593600D01*
X90948476Y-93593600D02*
X90996095Y-93545980D01*
X90996095Y-93545980D02*
X91043714Y-93450742D01*
X91043714Y-93450742D02*
X91043714Y-93355504D01*
X91043714Y-93355504D02*
X90996095Y-93260266D01*
X90996095Y-93260266D02*
X90948476Y-93212647D01*
X90948476Y-93212647D02*
X90853238Y-93165028D01*
X90853238Y-93165028D02*
X90662762Y-93117409D01*
X90662762Y-93117409D02*
X90567524Y-93069790D01*
X90567524Y-93069790D02*
X90519905Y-93022171D01*
X90519905Y-93022171D02*
X90472286Y-92926933D01*
X90472286Y-92926933D02*
X90472286Y-92831695D01*
X90472286Y-92831695D02*
X90519905Y-92736457D01*
X90519905Y-92736457D02*
X90567524Y-92688838D01*
X90567524Y-92688838D02*
X90662762Y-92641219D01*
X90662762Y-92641219D02*
X90900857Y-92641219D01*
X90900857Y-92641219D02*
X91043714Y-92688838D01*
X88430838Y-92682754D02*
X88335600Y-92635135D01*
X88335600Y-92635135D02*
X88192743Y-92635135D01*
X88192743Y-92635135D02*
X88049886Y-92682754D01*
X88049886Y-92682754D02*
X87954648Y-92777992D01*
X87954648Y-92777992D02*
X87907029Y-92873230D01*
X87907029Y-92873230D02*
X87859410Y-93063706D01*
X87859410Y-93063706D02*
X87859410Y-93206563D01*
X87859410Y-93206563D02*
X87907029Y-93397039D01*
X87907029Y-93397039D02*
X87954648Y-93492277D01*
X87954648Y-93492277D02*
X88049886Y-93587516D01*
X88049886Y-93587516D02*
X88192743Y-93635135D01*
X88192743Y-93635135D02*
X88287981Y-93635135D01*
X88287981Y-93635135D02*
X88430838Y-93587516D01*
X88430838Y-93587516D02*
X88478457Y-93539896D01*
X88478457Y-93539896D02*
X88478457Y-93206563D01*
X88478457Y-93206563D02*
X88287981Y-93206563D01*
D12*
X109871142Y-75708819D02*
X109299714Y-75708819D01*
X109585428Y-75708819D02*
X109585428Y-74708819D01*
X109585428Y-74708819D02*
X109490190Y-74851676D01*
X109490190Y-74851676D02*
X109394952Y-74946914D01*
X109394952Y-74946914D02*
X109299714Y-74994533D01*
X110299714Y-75708819D02*
X110299714Y-74708819D01*
X110299714Y-74708819D02*
X110871142Y-75708819D01*
X110871142Y-75708819D02*
X110871142Y-74708819D01*
X111775904Y-75042152D02*
X111775904Y-75708819D01*
X111537809Y-74661200D02*
X111299714Y-75375485D01*
X111299714Y-75375485D02*
X111918761Y-75375485D01*
X112490190Y-74708819D02*
X112585428Y-74708819D01*
X112585428Y-74708819D02*
X112680666Y-74756438D01*
X112680666Y-74756438D02*
X112728285Y-74804057D01*
X112728285Y-74804057D02*
X112775904Y-74899295D01*
X112775904Y-74899295D02*
X112823523Y-75089771D01*
X112823523Y-75089771D02*
X112823523Y-75327866D01*
X112823523Y-75327866D02*
X112775904Y-75518342D01*
X112775904Y-75518342D02*
X112728285Y-75613580D01*
X112728285Y-75613580D02*
X112680666Y-75661200D01*
X112680666Y-75661200D02*
X112585428Y-75708819D01*
X112585428Y-75708819D02*
X112490190Y-75708819D01*
X112490190Y-75708819D02*
X112394952Y-75661200D01*
X112394952Y-75661200D02*
X112347333Y-75613580D01*
X112347333Y-75613580D02*
X112299714Y-75518342D01*
X112299714Y-75518342D02*
X112252095Y-75327866D01*
X112252095Y-75327866D02*
X112252095Y-75089771D01*
X112252095Y-75089771D02*
X112299714Y-74899295D01*
X112299714Y-74899295D02*
X112347333Y-74804057D01*
X112347333Y-74804057D02*
X112394952Y-74756438D01*
X112394952Y-74756438D02*
X112490190Y-74708819D01*
X113442571Y-74708819D02*
X113537809Y-74708819D01*
X113537809Y-74708819D02*
X113633047Y-74756438D01*
X113633047Y-74756438D02*
X113680666Y-74804057D01*
X113680666Y-74804057D02*
X113728285Y-74899295D01*
X113728285Y-74899295D02*
X113775904Y-75089771D01*
X113775904Y-75089771D02*
X113775904Y-75327866D01*
X113775904Y-75327866D02*
X113728285Y-75518342D01*
X113728285Y-75518342D02*
X113680666Y-75613580D01*
X113680666Y-75613580D02*
X113633047Y-75661200D01*
X113633047Y-75661200D02*
X113537809Y-75708819D01*
X113537809Y-75708819D02*
X113442571Y-75708819D01*
X113442571Y-75708819D02*
X113347333Y-75661200D01*
X113347333Y-75661200D02*
X113299714Y-75613580D01*
X113299714Y-75613580D02*
X113252095Y-75518342D01*
X113252095Y-75518342D02*
X113204476Y-75327866D01*
X113204476Y-75327866D02*
X113204476Y-75089771D01*
X113204476Y-75089771D02*
X113252095Y-74899295D01*
X113252095Y-74899295D02*
X113299714Y-74804057D01*
X113299714Y-74804057D02*
X113347333Y-74756438D01*
X113347333Y-74756438D02*
X113442571Y-74708819D01*
X114728285Y-75708819D02*
X114156857Y-75708819D01*
X114442571Y-75708819D02*
X114442571Y-74708819D01*
X114442571Y-74708819D02*
X114347333Y-74851676D01*
X114347333Y-74851676D02*
X114252095Y-74946914D01*
X114252095Y-74946914D02*
X114156857Y-74994533D01*
X82750819Y-118663999D02*
X81750819Y-118663999D01*
X81750819Y-118663999D02*
X81750819Y-118283047D01*
X81750819Y-118283047D02*
X81798438Y-118187809D01*
X81798438Y-118187809D02*
X81846057Y-118140190D01*
X81846057Y-118140190D02*
X81941295Y-118092571D01*
X81941295Y-118092571D02*
X82084152Y-118092571D01*
X82084152Y-118092571D02*
X82179390Y-118140190D01*
X82179390Y-118140190D02*
X82227009Y-118187809D01*
X82227009Y-118187809D02*
X82274628Y-118283047D01*
X82274628Y-118283047D02*
X82274628Y-118663999D01*
X81750819Y-117473523D02*
X81750819Y-117283047D01*
X81750819Y-117283047D02*
X81798438Y-117187809D01*
X81798438Y-117187809D02*
X81893676Y-117092571D01*
X81893676Y-117092571D02*
X82084152Y-117044952D01*
X82084152Y-117044952D02*
X82417485Y-117044952D01*
X82417485Y-117044952D02*
X82607961Y-117092571D01*
X82607961Y-117092571D02*
X82703200Y-117187809D01*
X82703200Y-117187809D02*
X82750819Y-117283047D01*
X82750819Y-117283047D02*
X82750819Y-117473523D01*
X82750819Y-117473523D02*
X82703200Y-117568761D01*
X82703200Y-117568761D02*
X82607961Y-117663999D01*
X82607961Y-117663999D02*
X82417485Y-117711618D01*
X82417485Y-117711618D02*
X82084152Y-117711618D01*
X82084152Y-117711618D02*
X81893676Y-117663999D01*
X81893676Y-117663999D02*
X81798438Y-117568761D01*
X81798438Y-117568761D02*
X81750819Y-117473523D01*
X81750819Y-116711618D02*
X82750819Y-116473523D01*
X82750819Y-116473523D02*
X82036533Y-116283047D01*
X82036533Y-116283047D02*
X82750819Y-116092571D01*
X82750819Y-116092571D02*
X81750819Y-115854476D01*
X82846057Y-115711619D02*
X82846057Y-114949714D01*
X82750819Y-114711618D02*
X81750819Y-114711618D01*
X82750819Y-114235428D02*
X81750819Y-114235428D01*
X81750819Y-114235428D02*
X82750819Y-113664000D01*
X82750819Y-113664000D02*
X81750819Y-113664000D01*
X116009009Y-97885142D02*
X116056628Y-97742285D01*
X116056628Y-97742285D02*
X116104247Y-97694666D01*
X116104247Y-97694666D02*
X116199485Y-97647047D01*
X116199485Y-97647047D02*
X116342342Y-97647047D01*
X116342342Y-97647047D02*
X116437580Y-97694666D01*
X116437580Y-97694666D02*
X116485200Y-97742285D01*
X116485200Y-97742285D02*
X116532819Y-97837523D01*
X116532819Y-97837523D02*
X116532819Y-98218475D01*
X116532819Y-98218475D02*
X115532819Y-98218475D01*
X115532819Y-98218475D02*
X115532819Y-97885142D01*
X115532819Y-97885142D02*
X115580438Y-97789904D01*
X115580438Y-97789904D02*
X115628057Y-97742285D01*
X115628057Y-97742285D02*
X115723295Y-97694666D01*
X115723295Y-97694666D02*
X115818533Y-97694666D01*
X115818533Y-97694666D02*
X115913771Y-97742285D01*
X115913771Y-97742285D02*
X115961390Y-97789904D01*
X115961390Y-97789904D02*
X116009009Y-97885142D01*
X116009009Y-97885142D02*
X116009009Y-98218475D01*
X116247104Y-97266094D02*
X116247104Y-96789904D01*
X116532819Y-97361332D02*
X115532819Y-97027999D01*
X115532819Y-97027999D02*
X116532819Y-96694666D01*
X116532819Y-95789904D02*
X116056628Y-96123237D01*
X116532819Y-96361332D02*
X115532819Y-96361332D01*
X115532819Y-96361332D02*
X115532819Y-95980380D01*
X115532819Y-95980380D02*
X115580438Y-95885142D01*
X115580438Y-95885142D02*
X115628057Y-95837523D01*
X115628057Y-95837523D02*
X115723295Y-95789904D01*
X115723295Y-95789904D02*
X115866152Y-95789904D01*
X115866152Y-95789904D02*
X115961390Y-95837523D01*
X115961390Y-95837523D02*
X116009009Y-95885142D01*
X116009009Y-95885142D02*
X116056628Y-95980380D01*
X116056628Y-95980380D02*
X116056628Y-96361332D01*
D11*
X120729524Y-100721219D02*
X121348571Y-100721219D01*
X121348571Y-100721219D02*
X121015238Y-101102171D01*
X121015238Y-101102171D02*
X121158095Y-101102171D01*
X121158095Y-101102171D02*
X121253333Y-101149790D01*
X121253333Y-101149790D02*
X121300952Y-101197409D01*
X121300952Y-101197409D02*
X121348571Y-101292647D01*
X121348571Y-101292647D02*
X121348571Y-101530742D01*
X121348571Y-101530742D02*
X121300952Y-101625980D01*
X121300952Y-101625980D02*
X121253333Y-101673600D01*
X121253333Y-101673600D02*
X121158095Y-101721219D01*
X121158095Y-101721219D02*
X120872381Y-101721219D01*
X120872381Y-101721219D02*
X120777143Y-101673600D01*
X120777143Y-101673600D02*
X120729524Y-101625980D01*
X121681905Y-101054552D02*
X121920000Y-101721219D01*
X121920000Y-101721219D02*
X122158095Y-101054552D01*
X122443810Y-100721219D02*
X123062857Y-100721219D01*
X123062857Y-100721219D02*
X122729524Y-101102171D01*
X122729524Y-101102171D02*
X122872381Y-101102171D01*
X122872381Y-101102171D02*
X122967619Y-101149790D01*
X122967619Y-101149790D02*
X123015238Y-101197409D01*
X123015238Y-101197409D02*
X123062857Y-101292647D01*
X123062857Y-101292647D02*
X123062857Y-101530742D01*
X123062857Y-101530742D02*
X123015238Y-101625980D01*
X123015238Y-101625980D02*
X122967619Y-101673600D01*
X122967619Y-101673600D02*
X122872381Y-101721219D01*
X122872381Y-101721219D02*
X122586667Y-101721219D01*
X122586667Y-101721219D02*
X122491429Y-101673600D01*
X122491429Y-101673600D02*
X122443810Y-101625980D01*
X119641904Y-100768838D02*
X119546666Y-100721219D01*
X119546666Y-100721219D02*
X119403809Y-100721219D01*
X119403809Y-100721219D02*
X119260952Y-100768838D01*
X119260952Y-100768838D02*
X119165714Y-100864076D01*
X119165714Y-100864076D02*
X119118095Y-100959314D01*
X119118095Y-100959314D02*
X119070476Y-101149790D01*
X119070476Y-101149790D02*
X119070476Y-101292647D01*
X119070476Y-101292647D02*
X119118095Y-101483123D01*
X119118095Y-101483123D02*
X119165714Y-101578361D01*
X119165714Y-101578361D02*
X119260952Y-101673600D01*
X119260952Y-101673600D02*
X119403809Y-101721219D01*
X119403809Y-101721219D02*
X119499047Y-101721219D01*
X119499047Y-101721219D02*
X119641904Y-101673600D01*
X119641904Y-101673600D02*
X119689523Y-101625980D01*
X119689523Y-101625980D02*
X119689523Y-101292647D01*
X119689523Y-101292647D02*
X119499047Y-101292647D01*
X126904761Y-101625980D02*
X126857142Y-101673600D01*
X126857142Y-101673600D02*
X126714285Y-101721219D01*
X126714285Y-101721219D02*
X126619047Y-101721219D01*
X126619047Y-101721219D02*
X126476190Y-101673600D01*
X126476190Y-101673600D02*
X126380952Y-101578361D01*
X126380952Y-101578361D02*
X126333333Y-101483123D01*
X126333333Y-101483123D02*
X126285714Y-101292647D01*
X126285714Y-101292647D02*
X126285714Y-101149790D01*
X126285714Y-101149790D02*
X126333333Y-100959314D01*
X126333333Y-100959314D02*
X126380952Y-100864076D01*
X126380952Y-100864076D02*
X126476190Y-100768838D01*
X126476190Y-100768838D02*
X126619047Y-100721219D01*
X126619047Y-100721219D02*
X126714285Y-100721219D01*
X126714285Y-100721219D02*
X126857142Y-100768838D01*
X126857142Y-100768838D02*
X126904761Y-100816457D01*
X127809523Y-101721219D02*
X127333333Y-101721219D01*
X127333333Y-101721219D02*
X127333333Y-100721219D01*
X123769524Y-101721219D02*
X123769524Y-100721219D01*
X123769524Y-100721219D02*
X124007619Y-100721219D01*
X124007619Y-100721219D02*
X124150476Y-100768838D01*
X124150476Y-100768838D02*
X124245714Y-100864076D01*
X124245714Y-100864076D02*
X124293333Y-100959314D01*
X124293333Y-100959314D02*
X124340952Y-101149790D01*
X124340952Y-101149790D02*
X124340952Y-101292647D01*
X124340952Y-101292647D02*
X124293333Y-101483123D01*
X124293333Y-101483123D02*
X124245714Y-101578361D01*
X124245714Y-101578361D02*
X124150476Y-101673600D01*
X124150476Y-101673600D02*
X124007619Y-101721219D01*
X124007619Y-101721219D02*
X123769524Y-101721219D01*
X124721905Y-101435504D02*
X125198095Y-101435504D01*
X124626667Y-101721219D02*
X124960000Y-100721219D01*
X124960000Y-100721219D02*
X125293333Y-101721219D01*
D12*
X97326190Y-103055009D02*
X97659523Y-103055009D01*
X97802380Y-103578819D02*
X97326190Y-103578819D01*
X97326190Y-103578819D02*
X97326190Y-102578819D01*
X97326190Y-102578819D02*
X97802380Y-102578819D01*
X98230952Y-103578819D02*
X98230952Y-102578819D01*
X98230952Y-102578819D02*
X98802380Y-103578819D01*
X98802380Y-103578819D02*
X98802380Y-102578819D01*
X99849999Y-103483580D02*
X99802380Y-103531200D01*
X99802380Y-103531200D02*
X99659523Y-103578819D01*
X99659523Y-103578819D02*
X99564285Y-103578819D01*
X99564285Y-103578819D02*
X99421428Y-103531200D01*
X99421428Y-103531200D02*
X99326190Y-103435961D01*
X99326190Y-103435961D02*
X99278571Y-103340723D01*
X99278571Y-103340723D02*
X99230952Y-103150247D01*
X99230952Y-103150247D02*
X99230952Y-103007390D01*
X99230952Y-103007390D02*
X99278571Y-102816914D01*
X99278571Y-102816914D02*
X99326190Y-102721676D01*
X99326190Y-102721676D02*
X99421428Y-102626438D01*
X99421428Y-102626438D02*
X99564285Y-102578819D01*
X99564285Y-102578819D02*
X99659523Y-102578819D01*
X99659523Y-102578819D02*
X99802380Y-102626438D01*
X99802380Y-102626438D02*
X99849999Y-102674057D01*
X101373809Y-103055009D02*
X101516666Y-103102628D01*
X101516666Y-103102628D02*
X101564285Y-103150247D01*
X101564285Y-103150247D02*
X101611904Y-103245485D01*
X101611904Y-103245485D02*
X101611904Y-103388342D01*
X101611904Y-103388342D02*
X101564285Y-103483580D01*
X101564285Y-103483580D02*
X101516666Y-103531200D01*
X101516666Y-103531200D02*
X101421428Y-103578819D01*
X101421428Y-103578819D02*
X101040476Y-103578819D01*
X101040476Y-103578819D02*
X101040476Y-102578819D01*
X101040476Y-102578819D02*
X101373809Y-102578819D01*
X101373809Y-102578819D02*
X101469047Y-102626438D01*
X101469047Y-102626438D02*
X101516666Y-102674057D01*
X101516666Y-102674057D02*
X101564285Y-102769295D01*
X101564285Y-102769295D02*
X101564285Y-102864533D01*
X101564285Y-102864533D02*
X101516666Y-102959771D01*
X101516666Y-102959771D02*
X101469047Y-103007390D01*
X101469047Y-103007390D02*
X101373809Y-103055009D01*
X101373809Y-103055009D02*
X101040476Y-103055009D01*
X101897619Y-102578819D02*
X102469047Y-102578819D01*
X102183333Y-103578819D02*
X102183333Y-102578819D01*
X102802381Y-103578819D02*
X102802381Y-102578819D01*
X102802381Y-102578819D02*
X103373809Y-103578819D01*
X103373809Y-103578819D02*
X103373809Y-102578819D01*
X70558819Y-91717620D02*
X70558819Y-92289048D01*
X70558819Y-92003334D02*
X69558819Y-92003334D01*
X69558819Y-92003334D02*
X69701676Y-92098572D01*
X69701676Y-92098572D02*
X69796914Y-92193810D01*
X69796914Y-92193810D02*
X69844533Y-92289048D01*
X69558819Y-91098572D02*
X69558819Y-91003334D01*
X69558819Y-91003334D02*
X69606438Y-90908096D01*
X69606438Y-90908096D02*
X69654057Y-90860477D01*
X69654057Y-90860477D02*
X69749295Y-90812858D01*
X69749295Y-90812858D02*
X69939771Y-90765239D01*
X69939771Y-90765239D02*
X70177866Y-90765239D01*
X70177866Y-90765239D02*
X70368342Y-90812858D01*
X70368342Y-90812858D02*
X70463580Y-90860477D01*
X70463580Y-90860477D02*
X70511200Y-90908096D01*
X70511200Y-90908096D02*
X70558819Y-91003334D01*
X70558819Y-91003334D02*
X70558819Y-91098572D01*
X70558819Y-91098572D02*
X70511200Y-91193810D01*
X70511200Y-91193810D02*
X70463580Y-91241429D01*
X70463580Y-91241429D02*
X70368342Y-91289048D01*
X70368342Y-91289048D02*
X70177866Y-91336667D01*
X70177866Y-91336667D02*
X69939771Y-91336667D01*
X69939771Y-91336667D02*
X69749295Y-91289048D01*
X69749295Y-91289048D02*
X69654057Y-91241429D01*
X69654057Y-91241429D02*
X69606438Y-91193810D01*
X69606438Y-91193810D02*
X69558819Y-91098572D01*
X69558819Y-90146191D02*
X69558819Y-90050953D01*
X69558819Y-90050953D02*
X69606438Y-89955715D01*
X69606438Y-89955715D02*
X69654057Y-89908096D01*
X69654057Y-89908096D02*
X69749295Y-89860477D01*
X69749295Y-89860477D02*
X69939771Y-89812858D01*
X69939771Y-89812858D02*
X70177866Y-89812858D01*
X70177866Y-89812858D02*
X70368342Y-89860477D01*
X70368342Y-89860477D02*
X70463580Y-89908096D01*
X70463580Y-89908096D02*
X70511200Y-89955715D01*
X70511200Y-89955715D02*
X70558819Y-90050953D01*
X70558819Y-90050953D02*
X70558819Y-90146191D01*
X70558819Y-90146191D02*
X70511200Y-90241429D01*
X70511200Y-90241429D02*
X70463580Y-90289048D01*
X70463580Y-90289048D02*
X70368342Y-90336667D01*
X70368342Y-90336667D02*
X70177866Y-90384286D01*
X70177866Y-90384286D02*
X69939771Y-90384286D01*
X69939771Y-90384286D02*
X69749295Y-90336667D01*
X69749295Y-90336667D02*
X69654057Y-90289048D01*
X69654057Y-90289048D02*
X69606438Y-90241429D01*
X69606438Y-90241429D02*
X69558819Y-90146191D01*
X69892152Y-88955715D02*
X70558819Y-88955715D01*
X69892152Y-89384286D02*
X70415961Y-89384286D01*
X70415961Y-89384286D02*
X70511200Y-89336667D01*
X70511200Y-89336667D02*
X70558819Y-89241429D01*
X70558819Y-89241429D02*
X70558819Y-89098572D01*
X70558819Y-89098572D02*
X70511200Y-89003334D01*
X70511200Y-89003334D02*
X70463580Y-88955715D01*
X70035009Y-88146191D02*
X70035009Y-88479524D01*
X70558819Y-88479524D02*
X69558819Y-88479524D01*
X69558819Y-88479524D02*
X69558819Y-88003334D01*
X97659524Y-101828819D02*
X97659524Y-100828819D01*
X98135714Y-101828819D02*
X98135714Y-100828819D01*
X98135714Y-100828819D02*
X98707142Y-101828819D01*
X98707142Y-101828819D02*
X98707142Y-100828819D01*
X99040476Y-100828819D02*
X99611904Y-100828819D01*
X99326190Y-101828819D02*
X99326190Y-100828819D01*
X101040476Y-101305009D02*
X101183333Y-101352628D01*
X101183333Y-101352628D02*
X101230952Y-101400247D01*
X101230952Y-101400247D02*
X101278571Y-101495485D01*
X101278571Y-101495485D02*
X101278571Y-101638342D01*
X101278571Y-101638342D02*
X101230952Y-101733580D01*
X101230952Y-101733580D02*
X101183333Y-101781200D01*
X101183333Y-101781200D02*
X101088095Y-101828819D01*
X101088095Y-101828819D02*
X100707143Y-101828819D01*
X100707143Y-101828819D02*
X100707143Y-100828819D01*
X100707143Y-100828819D02*
X101040476Y-100828819D01*
X101040476Y-100828819D02*
X101135714Y-100876438D01*
X101135714Y-100876438D02*
X101183333Y-100924057D01*
X101183333Y-100924057D02*
X101230952Y-101019295D01*
X101230952Y-101019295D02*
X101230952Y-101114533D01*
X101230952Y-101114533D02*
X101183333Y-101209771D01*
X101183333Y-101209771D02*
X101135714Y-101257390D01*
X101135714Y-101257390D02*
X101040476Y-101305009D01*
X101040476Y-101305009D02*
X100707143Y-101305009D01*
X101564286Y-100828819D02*
X102135714Y-100828819D01*
X101850000Y-101828819D02*
X101850000Y-100828819D01*
X102469048Y-101828819D02*
X102469048Y-100828819D01*
X102469048Y-100828819D02*
X103040476Y-101828819D01*
X103040476Y-101828819D02*
X103040476Y-100828819D01*
X84975714Y-103055009D02*
X85309047Y-103055009D01*
X85451904Y-103578819D02*
X84975714Y-103578819D01*
X84975714Y-103578819D02*
X84975714Y-102578819D01*
X84975714Y-102578819D02*
X85451904Y-102578819D01*
X85880476Y-103578819D02*
X85880476Y-102578819D01*
X85880476Y-102578819D02*
X86451904Y-103578819D01*
X86451904Y-103578819D02*
X86451904Y-102578819D01*
X87499523Y-103483580D02*
X87451904Y-103531200D01*
X87451904Y-103531200D02*
X87309047Y-103578819D01*
X87309047Y-103578819D02*
X87213809Y-103578819D01*
X87213809Y-103578819D02*
X87070952Y-103531200D01*
X87070952Y-103531200D02*
X86975714Y-103435961D01*
X86975714Y-103435961D02*
X86928095Y-103340723D01*
X86928095Y-103340723D02*
X86880476Y-103150247D01*
X86880476Y-103150247D02*
X86880476Y-103007390D01*
X86880476Y-103007390D02*
X86928095Y-102816914D01*
X86928095Y-102816914D02*
X86975714Y-102721676D01*
X86975714Y-102721676D02*
X87070952Y-102626438D01*
X87070952Y-102626438D02*
X87213809Y-102578819D01*
X87213809Y-102578819D02*
X87309047Y-102578819D01*
X87309047Y-102578819D02*
X87451904Y-102626438D01*
X87451904Y-102626438D02*
X87499523Y-102674057D01*
X88118571Y-102578819D02*
X88309047Y-102578819D01*
X88309047Y-102578819D02*
X88404285Y-102626438D01*
X88404285Y-102626438D02*
X88499523Y-102721676D01*
X88499523Y-102721676D02*
X88547142Y-102912152D01*
X88547142Y-102912152D02*
X88547142Y-103245485D01*
X88547142Y-103245485D02*
X88499523Y-103435961D01*
X88499523Y-103435961D02*
X88404285Y-103531200D01*
X88404285Y-103531200D02*
X88309047Y-103578819D01*
X88309047Y-103578819D02*
X88118571Y-103578819D01*
X88118571Y-103578819D02*
X88023333Y-103531200D01*
X88023333Y-103531200D02*
X87928095Y-103435961D01*
X87928095Y-103435961D02*
X87880476Y-103245485D01*
X87880476Y-103245485D02*
X87880476Y-102912152D01*
X87880476Y-102912152D02*
X87928095Y-102721676D01*
X87928095Y-102721676D02*
X88023333Y-102626438D01*
X88023333Y-102626438D02*
X88118571Y-102578819D01*
X88975714Y-103578819D02*
X88975714Y-102578819D01*
X88975714Y-102578819D02*
X89213809Y-102578819D01*
X89213809Y-102578819D02*
X89356666Y-102626438D01*
X89356666Y-102626438D02*
X89451904Y-102721676D01*
X89451904Y-102721676D02*
X89499523Y-102816914D01*
X89499523Y-102816914D02*
X89547142Y-103007390D01*
X89547142Y-103007390D02*
X89547142Y-103150247D01*
X89547142Y-103150247D02*
X89499523Y-103340723D01*
X89499523Y-103340723D02*
X89451904Y-103435961D01*
X89451904Y-103435961D02*
X89356666Y-103531200D01*
X89356666Y-103531200D02*
X89213809Y-103578819D01*
X89213809Y-103578819D02*
X88975714Y-103578819D01*
X89975714Y-103055009D02*
X90309047Y-103055009D01*
X90451904Y-103578819D02*
X89975714Y-103578819D01*
X89975714Y-103578819D02*
X89975714Y-102578819D01*
X89975714Y-102578819D02*
X90451904Y-102578819D01*
X91451904Y-103578819D02*
X91118571Y-103102628D01*
X90880476Y-103578819D02*
X90880476Y-102578819D01*
X90880476Y-102578819D02*
X91261428Y-102578819D01*
X91261428Y-102578819D02*
X91356666Y-102626438D01*
X91356666Y-102626438D02*
X91404285Y-102674057D01*
X91404285Y-102674057D02*
X91451904Y-102769295D01*
X91451904Y-102769295D02*
X91451904Y-102912152D01*
X91451904Y-102912152D02*
X91404285Y-103007390D01*
X91404285Y-103007390D02*
X91356666Y-103055009D01*
X91356666Y-103055009D02*
X91261428Y-103102628D01*
X91261428Y-103102628D02*
X90880476Y-103102628D01*
X117564819Y-92130285D02*
X118374342Y-92130285D01*
X118374342Y-92130285D02*
X118469580Y-92082666D01*
X118469580Y-92082666D02*
X118517200Y-92035047D01*
X118517200Y-92035047D02*
X118564819Y-91939809D01*
X118564819Y-91939809D02*
X118564819Y-91749333D01*
X118564819Y-91749333D02*
X118517200Y-91654095D01*
X118517200Y-91654095D02*
X118469580Y-91606476D01*
X118469580Y-91606476D02*
X118374342Y-91558857D01*
X118374342Y-91558857D02*
X117564819Y-91558857D01*
X118564819Y-91082666D02*
X117564819Y-91082666D01*
X117564819Y-91082666D02*
X117564819Y-90701714D01*
X117564819Y-90701714D02*
X117612438Y-90606476D01*
X117612438Y-90606476D02*
X117660057Y-90558857D01*
X117660057Y-90558857D02*
X117755295Y-90511238D01*
X117755295Y-90511238D02*
X117898152Y-90511238D01*
X117898152Y-90511238D02*
X117993390Y-90558857D01*
X117993390Y-90558857D02*
X118041009Y-90606476D01*
X118041009Y-90606476D02*
X118088628Y-90701714D01*
X118088628Y-90701714D02*
X118088628Y-91082666D01*
X118517200Y-89368380D02*
X118564819Y-89225523D01*
X118564819Y-89225523D02*
X118564819Y-88987428D01*
X118564819Y-88987428D02*
X118517200Y-88892190D01*
X118517200Y-88892190D02*
X118469580Y-88844571D01*
X118469580Y-88844571D02*
X118374342Y-88796952D01*
X118374342Y-88796952D02*
X118279104Y-88796952D01*
X118279104Y-88796952D02*
X118183866Y-88844571D01*
X118183866Y-88844571D02*
X118136247Y-88892190D01*
X118136247Y-88892190D02*
X118088628Y-88987428D01*
X118088628Y-88987428D02*
X118041009Y-89177904D01*
X118041009Y-89177904D02*
X117993390Y-89273142D01*
X117993390Y-89273142D02*
X117945771Y-89320761D01*
X117945771Y-89320761D02*
X117850533Y-89368380D01*
X117850533Y-89368380D02*
X117755295Y-89368380D01*
X117755295Y-89368380D02*
X117660057Y-89320761D01*
X117660057Y-89320761D02*
X117612438Y-89273142D01*
X117612438Y-89273142D02*
X117564819Y-89177904D01*
X117564819Y-89177904D02*
X117564819Y-88939809D01*
X117564819Y-88939809D02*
X117612438Y-88796952D01*
X117564819Y-88463618D02*
X118564819Y-88225523D01*
X118564819Y-88225523D02*
X117850533Y-88035047D01*
X117850533Y-88035047D02*
X118564819Y-87844571D01*
X118564819Y-87844571D02*
X117564819Y-87606476D01*
X133143810Y-100276819D02*
X133143810Y-99276819D01*
X133143810Y-99276819D02*
X133381905Y-99276819D01*
X133381905Y-99276819D02*
X133524762Y-99324438D01*
X133524762Y-99324438D02*
X133620000Y-99419676D01*
X133620000Y-99419676D02*
X133667619Y-99514914D01*
X133667619Y-99514914D02*
X133715238Y-99705390D01*
X133715238Y-99705390D02*
X133715238Y-99848247D01*
X133715238Y-99848247D02*
X133667619Y-100038723D01*
X133667619Y-100038723D02*
X133620000Y-100133961D01*
X133620000Y-100133961D02*
X133524762Y-100229200D01*
X133524762Y-100229200D02*
X133381905Y-100276819D01*
X133381905Y-100276819D02*
X133143810Y-100276819D01*
X134143810Y-100276819D02*
X134143810Y-99276819D01*
X134572381Y-100229200D02*
X134715238Y-100276819D01*
X134715238Y-100276819D02*
X134953333Y-100276819D01*
X134953333Y-100276819D02*
X135048571Y-100229200D01*
X135048571Y-100229200D02*
X135096190Y-100181580D01*
X135096190Y-100181580D02*
X135143809Y-100086342D01*
X135143809Y-100086342D02*
X135143809Y-99991104D01*
X135143809Y-99991104D02*
X135096190Y-99895866D01*
X135096190Y-99895866D02*
X135048571Y-99848247D01*
X135048571Y-99848247D02*
X134953333Y-99800628D01*
X134953333Y-99800628D02*
X134762857Y-99753009D01*
X134762857Y-99753009D02*
X134667619Y-99705390D01*
X134667619Y-99705390D02*
X134620000Y-99657771D01*
X134620000Y-99657771D02*
X134572381Y-99562533D01*
X134572381Y-99562533D02*
X134572381Y-99467295D01*
X134572381Y-99467295D02*
X134620000Y-99372057D01*
X134620000Y-99372057D02*
X134667619Y-99324438D01*
X134667619Y-99324438D02*
X134762857Y-99276819D01*
X134762857Y-99276819D02*
X135000952Y-99276819D01*
X135000952Y-99276819D02*
X135143809Y-99324438D01*
X135572381Y-100276819D02*
X135572381Y-99276819D01*
X135572381Y-99276819D02*
X135953333Y-99276819D01*
X135953333Y-99276819D02*
X136048571Y-99324438D01*
X136048571Y-99324438D02*
X136096190Y-99372057D01*
X136096190Y-99372057D02*
X136143809Y-99467295D01*
X136143809Y-99467295D02*
X136143809Y-99610152D01*
X136143809Y-99610152D02*
X136096190Y-99705390D01*
X136096190Y-99705390D02*
X136048571Y-99753009D01*
X136048571Y-99753009D02*
X135953333Y-99800628D01*
X135953333Y-99800628D02*
X135572381Y-99800628D01*
D11*
X138078019Y-96424761D02*
X138030400Y-96377142D01*
X138030400Y-96377142D02*
X137982780Y-96234285D01*
X137982780Y-96234285D02*
X137982780Y-96139047D01*
X137982780Y-96139047D02*
X138030400Y-95996190D01*
X138030400Y-95996190D02*
X138125638Y-95900952D01*
X138125638Y-95900952D02*
X138220876Y-95853333D01*
X138220876Y-95853333D02*
X138411352Y-95805714D01*
X138411352Y-95805714D02*
X138554209Y-95805714D01*
X138554209Y-95805714D02*
X138744685Y-95853333D01*
X138744685Y-95853333D02*
X138839923Y-95900952D01*
X138839923Y-95900952D02*
X138935161Y-95996190D01*
X138935161Y-95996190D02*
X138982780Y-96139047D01*
X138982780Y-96139047D02*
X138982780Y-96234285D01*
X138982780Y-96234285D02*
X138935161Y-96377142D01*
X138935161Y-96377142D02*
X138887542Y-96424761D01*
X137982780Y-97329523D02*
X137982780Y-96853333D01*
X137982780Y-96853333D02*
X138982780Y-96853333D01*
X138935161Y-89161904D02*
X138982780Y-89066666D01*
X138982780Y-89066666D02*
X138982780Y-88923809D01*
X138982780Y-88923809D02*
X138935161Y-88780952D01*
X138935161Y-88780952D02*
X138839923Y-88685714D01*
X138839923Y-88685714D02*
X138744685Y-88638095D01*
X138744685Y-88638095D02*
X138554209Y-88590476D01*
X138554209Y-88590476D02*
X138411352Y-88590476D01*
X138411352Y-88590476D02*
X138220876Y-88638095D01*
X138220876Y-88638095D02*
X138125638Y-88685714D01*
X138125638Y-88685714D02*
X138030400Y-88780952D01*
X138030400Y-88780952D02*
X137982780Y-88923809D01*
X137982780Y-88923809D02*
X137982780Y-89019047D01*
X137982780Y-89019047D02*
X138030400Y-89161904D01*
X138030400Y-89161904D02*
X138078019Y-89209523D01*
X138078019Y-89209523D02*
X138411352Y-89209523D01*
X138411352Y-89209523D02*
X138411352Y-89019047D01*
X138982780Y-90249524D02*
X138982780Y-90868571D01*
X138982780Y-90868571D02*
X138601828Y-90535238D01*
X138601828Y-90535238D02*
X138601828Y-90678095D01*
X138601828Y-90678095D02*
X138554209Y-90773333D01*
X138554209Y-90773333D02*
X138506590Y-90820952D01*
X138506590Y-90820952D02*
X138411352Y-90868571D01*
X138411352Y-90868571D02*
X138173257Y-90868571D01*
X138173257Y-90868571D02*
X138078019Y-90820952D01*
X138078019Y-90820952D02*
X138030400Y-90773333D01*
X138030400Y-90773333D02*
X137982780Y-90678095D01*
X137982780Y-90678095D02*
X137982780Y-90392381D01*
X137982780Y-90392381D02*
X138030400Y-90297143D01*
X138030400Y-90297143D02*
X138078019Y-90249524D01*
X138649447Y-91201905D02*
X137982780Y-91440000D01*
X137982780Y-91440000D02*
X138649447Y-91678095D01*
X138982780Y-91963810D02*
X138982780Y-92582857D01*
X138982780Y-92582857D02*
X138601828Y-92249524D01*
X138601828Y-92249524D02*
X138601828Y-92392381D01*
X138601828Y-92392381D02*
X138554209Y-92487619D01*
X138554209Y-92487619D02*
X138506590Y-92535238D01*
X138506590Y-92535238D02*
X138411352Y-92582857D01*
X138411352Y-92582857D02*
X138173257Y-92582857D01*
X138173257Y-92582857D02*
X138078019Y-92535238D01*
X138078019Y-92535238D02*
X138030400Y-92487619D01*
X138030400Y-92487619D02*
X137982780Y-92392381D01*
X137982780Y-92392381D02*
X137982780Y-92106667D01*
X137982780Y-92106667D02*
X138030400Y-92011429D01*
X138030400Y-92011429D02*
X138078019Y-91963810D01*
X137982780Y-93289524D02*
X138982780Y-93289524D01*
X138982780Y-93289524D02*
X138982780Y-93527619D01*
X138982780Y-93527619D02*
X138935161Y-93670476D01*
X138935161Y-93670476D02*
X138839923Y-93765714D01*
X138839923Y-93765714D02*
X138744685Y-93813333D01*
X138744685Y-93813333D02*
X138554209Y-93860952D01*
X138554209Y-93860952D02*
X138411352Y-93860952D01*
X138411352Y-93860952D02*
X138220876Y-93813333D01*
X138220876Y-93813333D02*
X138125638Y-93765714D01*
X138125638Y-93765714D02*
X138030400Y-93670476D01*
X138030400Y-93670476D02*
X137982780Y-93527619D01*
X137982780Y-93527619D02*
X137982780Y-93289524D01*
X138268495Y-94241905D02*
X138268495Y-94718095D01*
X137982780Y-94146667D02*
X138982780Y-94480000D01*
X138982780Y-94480000D02*
X137982780Y-94813333D01*
D12*
X118524819Y-84446857D02*
X118524819Y-84923047D01*
X118524819Y-84923047D02*
X117524819Y-84923047D01*
X117524819Y-83923047D02*
X117524819Y-83732571D01*
X117524819Y-83732571D02*
X117572438Y-83637333D01*
X117572438Y-83637333D02*
X117667676Y-83542095D01*
X117667676Y-83542095D02*
X117858152Y-83494476D01*
X117858152Y-83494476D02*
X118191485Y-83494476D01*
X118191485Y-83494476D02*
X118381961Y-83542095D01*
X118381961Y-83542095D02*
X118477200Y-83637333D01*
X118477200Y-83637333D02*
X118524819Y-83732571D01*
X118524819Y-83732571D02*
X118524819Y-83923047D01*
X118524819Y-83923047D02*
X118477200Y-84018285D01*
X118477200Y-84018285D02*
X118381961Y-84113523D01*
X118381961Y-84113523D02*
X118191485Y-84161142D01*
X118191485Y-84161142D02*
X117858152Y-84161142D01*
X117858152Y-84161142D02*
X117667676Y-84113523D01*
X117667676Y-84113523D02*
X117572438Y-84018285D01*
X117572438Y-84018285D02*
X117524819Y-83923047D01*
X118477200Y-82351618D02*
X118524819Y-82208761D01*
X118524819Y-82208761D02*
X118524819Y-81970666D01*
X118524819Y-81970666D02*
X118477200Y-81875428D01*
X118477200Y-81875428D02*
X118429580Y-81827809D01*
X118429580Y-81827809D02*
X118334342Y-81780190D01*
X118334342Y-81780190D02*
X118239104Y-81780190D01*
X118239104Y-81780190D02*
X118143866Y-81827809D01*
X118143866Y-81827809D02*
X118096247Y-81875428D01*
X118096247Y-81875428D02*
X118048628Y-81970666D01*
X118048628Y-81970666D02*
X118001009Y-82161142D01*
X118001009Y-82161142D02*
X117953390Y-82256380D01*
X117953390Y-82256380D02*
X117905771Y-82303999D01*
X117905771Y-82303999D02*
X117810533Y-82351618D01*
X117810533Y-82351618D02*
X117715295Y-82351618D01*
X117715295Y-82351618D02*
X117620057Y-82303999D01*
X117620057Y-82303999D02*
X117572438Y-82256380D01*
X117572438Y-82256380D02*
X117524819Y-82161142D01*
X117524819Y-82161142D02*
X117524819Y-81923047D01*
X117524819Y-81923047D02*
X117572438Y-81780190D01*
X117524819Y-81446856D02*
X118524819Y-81208761D01*
X118524819Y-81208761D02*
X117810533Y-81018285D01*
X117810533Y-81018285D02*
X118524819Y-80827809D01*
X118524819Y-80827809D02*
X117524819Y-80589714D01*
X108196381Y-101515104D02*
X108672571Y-101515104D01*
X108101143Y-101800819D02*
X108434476Y-100800819D01*
X108434476Y-100800819D02*
X108767809Y-101800819D01*
X109672571Y-101705580D02*
X109624952Y-101753200D01*
X109624952Y-101753200D02*
X109482095Y-101800819D01*
X109482095Y-101800819D02*
X109386857Y-101800819D01*
X109386857Y-101800819D02*
X109244000Y-101753200D01*
X109244000Y-101753200D02*
X109148762Y-101657961D01*
X109148762Y-101657961D02*
X109101143Y-101562723D01*
X109101143Y-101562723D02*
X109053524Y-101372247D01*
X109053524Y-101372247D02*
X109053524Y-101229390D01*
X109053524Y-101229390D02*
X109101143Y-101038914D01*
X109101143Y-101038914D02*
X109148762Y-100943676D01*
X109148762Y-100943676D02*
X109244000Y-100848438D01*
X109244000Y-100848438D02*
X109386857Y-100800819D01*
X109386857Y-100800819D02*
X109482095Y-100800819D01*
X109482095Y-100800819D02*
X109624952Y-100848438D01*
X109624952Y-100848438D02*
X109672571Y-100896057D01*
X109958286Y-100800819D02*
X110529714Y-100800819D01*
X110244000Y-101800819D02*
X110244000Y-100800819D01*
X111577334Y-101753200D02*
X111720191Y-101800819D01*
X111720191Y-101800819D02*
X111958286Y-101800819D01*
X111958286Y-101800819D02*
X112053524Y-101753200D01*
X112053524Y-101753200D02*
X112101143Y-101705580D01*
X112101143Y-101705580D02*
X112148762Y-101610342D01*
X112148762Y-101610342D02*
X112148762Y-101515104D01*
X112148762Y-101515104D02*
X112101143Y-101419866D01*
X112101143Y-101419866D02*
X112053524Y-101372247D01*
X112053524Y-101372247D02*
X111958286Y-101324628D01*
X111958286Y-101324628D02*
X111767810Y-101277009D01*
X111767810Y-101277009D02*
X111672572Y-101229390D01*
X111672572Y-101229390D02*
X111624953Y-101181771D01*
X111624953Y-101181771D02*
X111577334Y-101086533D01*
X111577334Y-101086533D02*
X111577334Y-100991295D01*
X111577334Y-100991295D02*
X111624953Y-100896057D01*
X111624953Y-100896057D02*
X111672572Y-100848438D01*
X111672572Y-100848438D02*
X111767810Y-100800819D01*
X111767810Y-100800819D02*
X112005905Y-100800819D01*
X112005905Y-100800819D02*
X112148762Y-100848438D01*
X112482096Y-100800819D02*
X112720191Y-101800819D01*
X112720191Y-101800819D02*
X112910667Y-101086533D01*
X112910667Y-101086533D02*
X113101143Y-101800819D01*
X113101143Y-101800819D02*
X113339239Y-100800819D01*
X70870476Y-100828819D02*
X71441904Y-100828819D01*
X71156190Y-101828819D02*
X71156190Y-100828819D01*
X71775238Y-101828819D02*
X71775238Y-100828819D01*
X72251428Y-101828819D02*
X72251428Y-100828819D01*
X72251428Y-100828819D02*
X72632380Y-100828819D01*
X72632380Y-100828819D02*
X72727618Y-100876438D01*
X72727618Y-100876438D02*
X72775237Y-100924057D01*
X72775237Y-100924057D02*
X72822856Y-101019295D01*
X72822856Y-101019295D02*
X72822856Y-101162152D01*
X72822856Y-101162152D02*
X72775237Y-101257390D01*
X72775237Y-101257390D02*
X72727618Y-101305009D01*
X72727618Y-101305009D02*
X72632380Y-101352628D01*
X72632380Y-101352628D02*
X72251428Y-101352628D01*
X74346666Y-101305009D02*
X74489523Y-101352628D01*
X74489523Y-101352628D02*
X74537142Y-101400247D01*
X74537142Y-101400247D02*
X74584761Y-101495485D01*
X74584761Y-101495485D02*
X74584761Y-101638342D01*
X74584761Y-101638342D02*
X74537142Y-101733580D01*
X74537142Y-101733580D02*
X74489523Y-101781200D01*
X74489523Y-101781200D02*
X74394285Y-101828819D01*
X74394285Y-101828819D02*
X74013333Y-101828819D01*
X74013333Y-101828819D02*
X74013333Y-100828819D01*
X74013333Y-100828819D02*
X74346666Y-100828819D01*
X74346666Y-100828819D02*
X74441904Y-100876438D01*
X74441904Y-100876438D02*
X74489523Y-100924057D01*
X74489523Y-100924057D02*
X74537142Y-101019295D01*
X74537142Y-101019295D02*
X74537142Y-101114533D01*
X74537142Y-101114533D02*
X74489523Y-101209771D01*
X74489523Y-101209771D02*
X74441904Y-101257390D01*
X74441904Y-101257390D02*
X74346666Y-101305009D01*
X74346666Y-101305009D02*
X74013333Y-101305009D01*
X74870476Y-100828819D02*
X75441904Y-100828819D01*
X75156190Y-101828819D02*
X75156190Y-100828819D01*
X75775238Y-101828819D02*
X75775238Y-100828819D01*
X75775238Y-100828819D02*
X76346666Y-101828819D01*
X76346666Y-101828819D02*
X76346666Y-100828819D01*
X107439200Y-118473523D02*
X107486819Y-118330666D01*
X107486819Y-118330666D02*
X107486819Y-118092571D01*
X107486819Y-118092571D02*
X107439200Y-117997333D01*
X107439200Y-117997333D02*
X107391580Y-117949714D01*
X107391580Y-117949714D02*
X107296342Y-117902095D01*
X107296342Y-117902095D02*
X107201104Y-117902095D01*
X107201104Y-117902095D02*
X107105866Y-117949714D01*
X107105866Y-117949714D02*
X107058247Y-117997333D01*
X107058247Y-117997333D02*
X107010628Y-118092571D01*
X107010628Y-118092571D02*
X106963009Y-118283047D01*
X106963009Y-118283047D02*
X106915390Y-118378285D01*
X106915390Y-118378285D02*
X106867771Y-118425904D01*
X106867771Y-118425904D02*
X106772533Y-118473523D01*
X106772533Y-118473523D02*
X106677295Y-118473523D01*
X106677295Y-118473523D02*
X106582057Y-118425904D01*
X106582057Y-118425904D02*
X106534438Y-118378285D01*
X106534438Y-118378285D02*
X106486819Y-118283047D01*
X106486819Y-118283047D02*
X106486819Y-118044952D01*
X106486819Y-118044952D02*
X106534438Y-117902095D01*
X106963009Y-117473523D02*
X106963009Y-117140190D01*
X107486819Y-116997333D02*
X107486819Y-117473523D01*
X107486819Y-117473523D02*
X106486819Y-117473523D01*
X106486819Y-117473523D02*
X106486819Y-116997333D01*
X107486819Y-115997333D02*
X107010628Y-116330666D01*
X107486819Y-116568761D02*
X106486819Y-116568761D01*
X106486819Y-116568761D02*
X106486819Y-116187809D01*
X106486819Y-116187809D02*
X106534438Y-116092571D01*
X106534438Y-116092571D02*
X106582057Y-116044952D01*
X106582057Y-116044952D02*
X106677295Y-115997333D01*
X106677295Y-115997333D02*
X106820152Y-115997333D01*
X106820152Y-115997333D02*
X106915390Y-116044952D01*
X106915390Y-116044952D02*
X106963009Y-116092571D01*
X106963009Y-116092571D02*
X107010628Y-116187809D01*
X107010628Y-116187809D02*
X107010628Y-116568761D01*
X107486819Y-115568761D02*
X106486819Y-115568761D01*
X107201104Y-115140190D02*
X107201104Y-114664000D01*
X107486819Y-115235428D02*
X106486819Y-114902095D01*
X106486819Y-114902095D02*
X107486819Y-114568762D01*
X107486819Y-113759238D02*
X107486819Y-114235428D01*
X107486819Y-114235428D02*
X106486819Y-114235428D01*
X104448057Y-79342856D02*
X104400438Y-79295237D01*
X104400438Y-79295237D02*
X104352819Y-79199999D01*
X104352819Y-79199999D02*
X104352819Y-78961904D01*
X104352819Y-78961904D02*
X104400438Y-78866666D01*
X104400438Y-78866666D02*
X104448057Y-78819047D01*
X104448057Y-78819047D02*
X104543295Y-78771428D01*
X104543295Y-78771428D02*
X104638533Y-78771428D01*
X104638533Y-78771428D02*
X104781390Y-78819047D01*
X104781390Y-78819047D02*
X105352819Y-79390475D01*
X105352819Y-79390475D02*
X105352819Y-78771428D01*
X105352819Y-78342856D02*
X104352819Y-78342856D01*
X104352819Y-78342856D02*
X105352819Y-77771428D01*
X105352819Y-77771428D02*
X104352819Y-77771428D01*
X104448057Y-77342856D02*
X104400438Y-77295237D01*
X104400438Y-77295237D02*
X104352819Y-77199999D01*
X104352819Y-77199999D02*
X104352819Y-76961904D01*
X104352819Y-76961904D02*
X104400438Y-76866666D01*
X104400438Y-76866666D02*
X104448057Y-76819047D01*
X104448057Y-76819047D02*
X104543295Y-76771428D01*
X104543295Y-76771428D02*
X104638533Y-76771428D01*
X104638533Y-76771428D02*
X104781390Y-76819047D01*
X104781390Y-76819047D02*
X105352819Y-77390475D01*
X105352819Y-77390475D02*
X105352819Y-76771428D01*
X104448057Y-76390475D02*
X104400438Y-76342856D01*
X104400438Y-76342856D02*
X104352819Y-76247618D01*
X104352819Y-76247618D02*
X104352819Y-76009523D01*
X104352819Y-76009523D02*
X104400438Y-75914285D01*
X104400438Y-75914285D02*
X104448057Y-75866666D01*
X104448057Y-75866666D02*
X104543295Y-75819047D01*
X104543295Y-75819047D02*
X104638533Y-75819047D01*
X104638533Y-75819047D02*
X104781390Y-75866666D01*
X104781390Y-75866666D02*
X105352819Y-76438094D01*
X105352819Y-76438094D02*
X105352819Y-75819047D01*
X104448057Y-75438094D02*
X104400438Y-75390475D01*
X104400438Y-75390475D02*
X104352819Y-75295237D01*
X104352819Y-75295237D02*
X104352819Y-75057142D01*
X104352819Y-75057142D02*
X104400438Y-74961904D01*
X104400438Y-74961904D02*
X104448057Y-74914285D01*
X104448057Y-74914285D02*
X104543295Y-74866666D01*
X104543295Y-74866666D02*
X104638533Y-74866666D01*
X104638533Y-74866666D02*
X104781390Y-74914285D01*
X104781390Y-74914285D02*
X105352819Y-75485713D01*
X105352819Y-75485713D02*
X105352819Y-74866666D01*
X104448057Y-74485713D02*
X104400438Y-74438094D01*
X104400438Y-74438094D02*
X104352819Y-74342856D01*
X104352819Y-74342856D02*
X104352819Y-74104761D01*
X104352819Y-74104761D02*
X104400438Y-74009523D01*
X104400438Y-74009523D02*
X104448057Y-73961904D01*
X104448057Y-73961904D02*
X104543295Y-73914285D01*
X104543295Y-73914285D02*
X104638533Y-73914285D01*
X104638533Y-73914285D02*
X104781390Y-73961904D01*
X104781390Y-73961904D02*
X105352819Y-74533332D01*
X105352819Y-74533332D02*
X105352819Y-73914285D01*
X105067104Y-73533332D02*
X105067104Y-73057142D01*
X105352819Y-73628570D02*
X104352819Y-73295237D01*
X104352819Y-73295237D02*
X105352819Y-72961904D01*
X121070572Y-76162819D02*
X121403905Y-77162819D01*
X121403905Y-77162819D02*
X121737238Y-76162819D01*
X122070572Y-77162819D02*
X122070572Y-76162819D01*
X122880095Y-76639009D02*
X123022952Y-76686628D01*
X123022952Y-76686628D02*
X123070571Y-76734247D01*
X123070571Y-76734247D02*
X123118190Y-76829485D01*
X123118190Y-76829485D02*
X123118190Y-76972342D01*
X123118190Y-76972342D02*
X123070571Y-77067580D01*
X123070571Y-77067580D02*
X123022952Y-77115200D01*
X123022952Y-77115200D02*
X122927714Y-77162819D01*
X122927714Y-77162819D02*
X122546762Y-77162819D01*
X122546762Y-77162819D02*
X122546762Y-76162819D01*
X122546762Y-76162819D02*
X122880095Y-76162819D01*
X122880095Y-76162819D02*
X122975333Y-76210438D01*
X122975333Y-76210438D02*
X123022952Y-76258057D01*
X123022952Y-76258057D02*
X123070571Y-76353295D01*
X123070571Y-76353295D02*
X123070571Y-76448533D01*
X123070571Y-76448533D02*
X123022952Y-76543771D01*
X123022952Y-76543771D02*
X122975333Y-76591390D01*
X122975333Y-76591390D02*
X122880095Y-76639009D01*
X122880095Y-76639009D02*
X122546762Y-76639009D01*
X124118190Y-77162819D02*
X123784857Y-76686628D01*
X123546762Y-77162819D02*
X123546762Y-76162819D01*
X123546762Y-76162819D02*
X123927714Y-76162819D01*
X123927714Y-76162819D02*
X124022952Y-76210438D01*
X124022952Y-76210438D02*
X124070571Y-76258057D01*
X124070571Y-76258057D02*
X124118190Y-76353295D01*
X124118190Y-76353295D02*
X124118190Y-76496152D01*
X124118190Y-76496152D02*
X124070571Y-76591390D01*
X124070571Y-76591390D02*
X124022952Y-76639009D01*
X124022952Y-76639009D02*
X123927714Y-76686628D01*
X123927714Y-76686628D02*
X123546762Y-76686628D01*
D10*
X83905653Y-74508328D02*
X84834225Y-74508328D01*
X84834225Y-74508328D02*
X84334225Y-75079757D01*
X84334225Y-75079757D02*
X84548510Y-75079757D01*
X84548510Y-75079757D02*
X84691368Y-75151185D01*
X84691368Y-75151185D02*
X84762796Y-75222614D01*
X84762796Y-75222614D02*
X84834225Y-75365471D01*
X84834225Y-75365471D02*
X84834225Y-75722614D01*
X84834225Y-75722614D02*
X84762796Y-75865471D01*
X84762796Y-75865471D02*
X84691368Y-75936900D01*
X84691368Y-75936900D02*
X84548510Y-76008328D01*
X84548510Y-76008328D02*
X84119939Y-76008328D01*
X84119939Y-76008328D02*
X83977082Y-75936900D01*
X83977082Y-75936900D02*
X83905653Y-75865471D01*
X85262796Y-74508328D02*
X85762796Y-76008328D01*
X85762796Y-76008328D02*
X86262796Y-74508328D01*
X86619938Y-74508328D02*
X87548510Y-74508328D01*
X87548510Y-74508328D02*
X87048510Y-75079757D01*
X87048510Y-75079757D02*
X87262795Y-75079757D01*
X87262795Y-75079757D02*
X87405653Y-75151185D01*
X87405653Y-75151185D02*
X87477081Y-75222614D01*
X87477081Y-75222614D02*
X87548510Y-75365471D01*
X87548510Y-75365471D02*
X87548510Y-75722614D01*
X87548510Y-75722614D02*
X87477081Y-75865471D01*
X87477081Y-75865471D02*
X87405653Y-75936900D01*
X87405653Y-75936900D02*
X87262795Y-76008328D01*
X87262795Y-76008328D02*
X86834224Y-76008328D01*
X86834224Y-76008328D02*
X86691367Y-75936900D01*
X86691367Y-75936900D02*
X86619938Y-75865471D01*
X84762796Y-69428328D02*
X84048510Y-69428328D01*
X84048510Y-69428328D02*
X83977082Y-70142614D01*
X83977082Y-70142614D02*
X84048510Y-70071185D01*
X84048510Y-70071185D02*
X84191368Y-69999757D01*
X84191368Y-69999757D02*
X84548510Y-69999757D01*
X84548510Y-69999757D02*
X84691368Y-70071185D01*
X84691368Y-70071185D02*
X84762796Y-70142614D01*
X84762796Y-70142614D02*
X84834225Y-70285471D01*
X84834225Y-70285471D02*
X84834225Y-70642614D01*
X84834225Y-70642614D02*
X84762796Y-70785471D01*
X84762796Y-70785471D02*
X84691368Y-70856900D01*
X84691368Y-70856900D02*
X84548510Y-70928328D01*
X84548510Y-70928328D02*
X84191368Y-70928328D01*
X84191368Y-70928328D02*
X84048510Y-70856900D01*
X84048510Y-70856900D02*
X83977082Y-70785471D01*
X85262796Y-69428328D02*
X85762796Y-70928328D01*
X85762796Y-70928328D02*
X86262796Y-69428328D01*
X84834225Y-72039757D02*
X84691368Y-71968328D01*
X84691368Y-71968328D02*
X84477082Y-71968328D01*
X84477082Y-71968328D02*
X84262796Y-72039757D01*
X84262796Y-72039757D02*
X84119939Y-72182614D01*
X84119939Y-72182614D02*
X84048510Y-72325471D01*
X84048510Y-72325471D02*
X83977082Y-72611185D01*
X83977082Y-72611185D02*
X83977082Y-72825471D01*
X83977082Y-72825471D02*
X84048510Y-73111185D01*
X84048510Y-73111185D02*
X84119939Y-73254042D01*
X84119939Y-73254042D02*
X84262796Y-73396900D01*
X84262796Y-73396900D02*
X84477082Y-73468328D01*
X84477082Y-73468328D02*
X84619939Y-73468328D01*
X84619939Y-73468328D02*
X84834225Y-73396900D01*
X84834225Y-73396900D02*
X84905653Y-73325471D01*
X84905653Y-73325471D02*
X84905653Y-72825471D01*
X84905653Y-72825471D02*
X84619939Y-72825471D01*
X85548510Y-73468328D02*
X85548510Y-71968328D01*
X85548510Y-71968328D02*
X86405653Y-73468328D01*
X86405653Y-73468328D02*
X86405653Y-71968328D01*
X87119939Y-73468328D02*
X87119939Y-71968328D01*
X87119939Y-71968328D02*
X87477082Y-71968328D01*
X87477082Y-71968328D02*
X87691368Y-72039757D01*
X87691368Y-72039757D02*
X87834225Y-72182614D01*
X87834225Y-72182614D02*
X87905654Y-72325471D01*
X87905654Y-72325471D02*
X87977082Y-72611185D01*
X87977082Y-72611185D02*
X87977082Y-72825471D01*
X87977082Y-72825471D02*
X87905654Y-73111185D01*
X87905654Y-73111185D02*
X87834225Y-73254042D01*
X87834225Y-73254042D02*
X87691368Y-73396900D01*
X87691368Y-73396900D02*
X87477082Y-73468328D01*
X87477082Y-73468328D02*
X87119939Y-73468328D01*
D14*
X102970000Y-83090000D02*
X102970000Y-89630000D01*
X102640000Y-83090000D02*
X102970000Y-83090000D01*
X100560000Y-83090000D02*
X100230000Y-83090000D01*
X100230000Y-83090000D02*
X100230000Y-89630000D01*
X102970000Y-89630000D02*
X102640000Y-89630000D01*
X100230000Y-89630000D02*
X100560000Y-89630000D01*
X106220000Y-83090000D02*
X106220000Y-89630000D01*
X105890000Y-83090000D02*
X106220000Y-83090000D01*
X103810000Y-83090000D02*
X103480000Y-83090000D01*
X103480000Y-83090000D02*
X103480000Y-89630000D01*
X106220000Y-89630000D02*
X105890000Y-89630000D01*
X103480000Y-89630000D02*
X103810000Y-89630000D01*
X129064000Y-76354000D02*
X135604000Y-76354000D01*
X129064000Y-76684000D02*
X129064000Y-76354000D01*
X129064000Y-78764000D02*
X129064000Y-79094000D01*
X129064000Y-79094000D02*
X135604000Y-79094000D01*
X135604000Y-76354000D02*
X135604000Y-76684000D01*
X135604000Y-79094000D02*
X135604000Y-78764000D01*
X129064000Y-71528000D02*
X135604000Y-71528000D01*
X129064000Y-71858000D02*
X129064000Y-71528000D01*
X129064000Y-73938000D02*
X129064000Y-74268000D01*
X129064000Y-74268000D02*
X135604000Y-74268000D01*
X135604000Y-71528000D02*
X135604000Y-71858000D01*
X135604000Y-74268000D02*
X135604000Y-73938000D01*
X57690000Y-77370000D02*
X64230000Y-77370000D01*
X57690000Y-77700000D02*
X57690000Y-77370000D01*
X57690000Y-79780000D02*
X57690000Y-80110000D01*
X57690000Y-80110000D02*
X64230000Y-80110000D01*
X64230000Y-77370000D02*
X64230000Y-77700000D01*
X64230000Y-80110000D02*
X64230000Y-79780000D01*
X54420000Y-68370000D02*
X54420000Y-69620000D01*
X54710000Y-68660000D02*
X54710000Y-74630000D01*
X54710000Y-74630000D02*
X67330000Y-74630000D01*
X54720000Y-68670000D02*
X54720000Y-69420000D01*
X54720000Y-69420000D02*
X56520000Y-69420000D01*
X54720000Y-70920000D02*
X55470000Y-70920000D01*
X55470000Y-70920000D02*
X55470000Y-73870000D01*
X55470000Y-73870000D02*
X61020000Y-73870000D01*
X55670000Y-68370000D02*
X54420000Y-68370000D01*
X56520000Y-68670000D02*
X54720000Y-68670000D01*
X56520000Y-69420000D02*
X56520000Y-68670000D01*
X58020000Y-68670000D02*
X58020000Y-69420000D01*
X58020000Y-69420000D02*
X64020000Y-69420000D01*
X64020000Y-68670000D02*
X58020000Y-68670000D01*
X64020000Y-69420000D02*
X64020000Y-68670000D01*
X65520000Y-68670000D02*
X65520000Y-69420000D01*
X65520000Y-69420000D02*
X67320000Y-69420000D01*
X66570000Y-70920000D02*
X66570000Y-73870000D01*
X66570000Y-73870000D02*
X61020000Y-73870000D01*
X67320000Y-68670000D02*
X65520000Y-68670000D01*
X67320000Y-69420000D02*
X67320000Y-68670000D01*
X67320000Y-70920000D02*
X66570000Y-70920000D01*
X67330000Y-68660000D02*
X54710000Y-68660000D01*
X67330000Y-74630000D02*
X67330000Y-68660000D01*
X54420000Y-82340000D02*
X54420000Y-83590000D01*
X54710000Y-82630000D02*
X54710000Y-88600000D01*
X54710000Y-88600000D02*
X67330000Y-88600000D01*
X54720000Y-82640000D02*
X54720000Y-83390000D01*
X54720000Y-83390000D02*
X56520000Y-83390000D01*
X54720000Y-84890000D02*
X55470000Y-84890000D01*
X55470000Y-84890000D02*
X55470000Y-87840000D01*
X55470000Y-87840000D02*
X61020000Y-87840000D01*
X55670000Y-82340000D02*
X54420000Y-82340000D01*
X56520000Y-82640000D02*
X54720000Y-82640000D01*
X56520000Y-83390000D02*
X56520000Y-82640000D01*
X58020000Y-82640000D02*
X58020000Y-83390000D01*
X58020000Y-83390000D02*
X64020000Y-83390000D01*
X64020000Y-82640000D02*
X58020000Y-82640000D01*
X64020000Y-83390000D02*
X64020000Y-82640000D01*
X65520000Y-82640000D02*
X65520000Y-83390000D01*
X65520000Y-83390000D02*
X67320000Y-83390000D01*
X66570000Y-84890000D02*
X66570000Y-87840000D01*
X66570000Y-87840000D02*
X61020000Y-87840000D01*
X67320000Y-82640000D02*
X65520000Y-82640000D01*
X67320000Y-83390000D02*
X67320000Y-82640000D01*
X67320000Y-84890000D02*
X66570000Y-84890000D01*
X67330000Y-82630000D02*
X54710000Y-82630000D01*
X67330000Y-88600000D02*
X67330000Y-82630000D01*
X55610000Y-94024000D02*
X55610000Y-95274000D01*
X55900000Y-94314000D02*
X55900000Y-100284000D01*
X55900000Y-100284000D02*
X66020000Y-100284000D01*
X55910000Y-94324000D02*
X55910000Y-95074000D01*
X55910000Y-95074000D02*
X57710000Y-95074000D01*
X55910000Y-96574000D02*
X56660000Y-96574000D01*
X56660000Y-96574000D02*
X56660000Y-99524000D01*
X56660000Y-99524000D02*
X60960000Y-99524000D01*
X56860000Y-94024000D02*
X55610000Y-94024000D01*
X57710000Y-94324000D02*
X55910000Y-94324000D01*
X57710000Y-95074000D02*
X57710000Y-94324000D01*
X59210000Y-94324000D02*
X59210000Y-95074000D01*
X59210000Y-95074000D02*
X62710000Y-95074000D01*
X62710000Y-94324000D02*
X59210000Y-94324000D01*
X62710000Y-95074000D02*
X62710000Y-94324000D01*
X64210000Y-94324000D02*
X64210000Y-95074000D01*
X64210000Y-95074000D02*
X66010000Y-95074000D01*
X65260000Y-96574000D02*
X65260000Y-99524000D01*
X65260000Y-99524000D02*
X60960000Y-99524000D01*
X66010000Y-94324000D02*
X64210000Y-94324000D01*
X66010000Y-95074000D02*
X66010000Y-94324000D01*
X66010000Y-96574000D02*
X65260000Y-96574000D01*
X66020000Y-94314000D02*
X55900000Y-94314000D01*
X66020000Y-100284000D02*
X66020000Y-94314000D01*
X112600000Y-71158000D02*
X113831000Y-71158000D01*
X112600000Y-71118000D02*
X113827000Y-71118000D01*
X112600000Y-71078000D02*
X113822000Y-71078000D01*
X112600000Y-71038000D02*
X113816000Y-71038000D01*
X112600000Y-70998000D02*
X113810000Y-70998000D01*
X112600000Y-70958000D02*
X113802000Y-70958000D01*
X112600000Y-70918000D02*
X113794000Y-70918000D01*
X112600000Y-70878000D02*
X113785000Y-70878000D01*
X112600000Y-70838000D02*
X113776000Y-70838000D01*
X112600000Y-70798000D02*
X113765000Y-70798000D01*
X112600000Y-70758000D02*
X113754000Y-70758000D01*
X112600000Y-70718000D02*
X113742000Y-70718000D01*
X112600000Y-70678000D02*
X113728000Y-70678000D01*
X112600000Y-70637000D02*
X113714000Y-70637000D01*
X112600000Y-70597000D02*
X113700000Y-70597000D01*
X112600000Y-70557000D02*
X113684000Y-70557000D01*
X112600000Y-70517000D02*
X113667000Y-70517000D01*
X112600000Y-70477000D02*
X113649000Y-70477000D01*
X112600000Y-70437000D02*
X113630000Y-70437000D01*
X112600000Y-70397000D02*
X113611000Y-70397000D01*
X112600000Y-70357000D02*
X113590000Y-70357000D01*
X112600000Y-70317000D02*
X113568000Y-70317000D01*
X112600000Y-70277000D02*
X113545000Y-70277000D01*
X112600000Y-70237000D02*
X113520000Y-70237000D01*
X112600000Y-70197000D02*
X113495000Y-70197000D01*
X112600000Y-70157000D02*
X113468000Y-70157000D01*
X112600000Y-70117000D02*
X113440000Y-70117000D01*
X112600000Y-70077000D02*
X113410000Y-70077000D01*
X112600000Y-70037000D02*
X113379000Y-70037000D01*
X112600000Y-69997000D02*
X113347000Y-69997000D01*
X112600000Y-69957000D02*
X113312000Y-69957000D01*
X112600000Y-69917000D02*
X113276000Y-69917000D01*
X112600000Y-69877000D02*
X113238000Y-69877000D01*
X112600000Y-69837000D02*
X113198000Y-69837000D01*
X112600000Y-69797000D02*
X113156000Y-69797000D01*
X112600000Y-69757000D02*
X113111000Y-69757000D01*
X112600000Y-69717000D02*
X113064000Y-69717000D01*
X112600000Y-69677000D02*
X113014000Y-69677000D01*
X112600000Y-69637000D02*
X112960000Y-69637000D01*
X112600000Y-69597000D02*
X112902000Y-69597000D01*
X112600000Y-69557000D02*
X112840000Y-69557000D01*
X111390000Y-69277000D02*
X112130000Y-69277000D01*
X111223000Y-69317000D02*
X112297000Y-69317000D01*
X111096000Y-69357000D02*
X112424000Y-69357000D01*
X110992000Y-69397000D02*
X112528000Y-69397000D01*
X110901000Y-69437000D02*
X112619000Y-69437000D01*
X110820000Y-69477000D02*
X112700000Y-69477000D01*
X110747000Y-69517000D02*
X112773000Y-69517000D01*
X110680000Y-69557000D02*
X110920000Y-69557000D01*
X110618000Y-69597000D02*
X110920000Y-69597000D01*
X110565000Y-73627801D02*
X110565000Y-73227801D01*
X110560000Y-69637000D02*
X110920000Y-69637000D01*
X110506000Y-69677000D02*
X110920000Y-69677000D01*
X110456000Y-69717000D02*
X110920000Y-69717000D01*
X110409000Y-69757000D02*
X110920000Y-69757000D01*
X110365000Y-73427801D02*
X110765000Y-73427801D01*
X110364000Y-69797000D02*
X110920000Y-69797000D01*
X110322000Y-69837000D02*
X110920000Y-69837000D01*
X110282000Y-69877000D02*
X110920000Y-69877000D01*
X110244000Y-69917000D02*
X110920000Y-69917000D01*
X110208000Y-69957000D02*
X110920000Y-69957000D01*
X110173000Y-69997000D02*
X110920000Y-69997000D01*
X110141000Y-70037000D02*
X110920000Y-70037000D01*
X110110000Y-70077000D02*
X110920000Y-70077000D01*
X110080000Y-70117000D02*
X110920000Y-70117000D01*
X110052000Y-70157000D02*
X110920000Y-70157000D01*
X110025000Y-70197000D02*
X110920000Y-70197000D01*
X110000000Y-70237000D02*
X110920000Y-70237000D01*
X109975000Y-70277000D02*
X110920000Y-70277000D01*
X109952000Y-70317000D02*
X110920000Y-70317000D01*
X109930000Y-70357000D02*
X110920000Y-70357000D01*
X109909000Y-70397000D02*
X110920000Y-70397000D01*
X109890000Y-70437000D02*
X110920000Y-70437000D01*
X109871000Y-70477000D02*
X110920000Y-70477000D01*
X109853000Y-70517000D02*
X110920000Y-70517000D01*
X109836000Y-70557000D02*
X110920000Y-70557000D01*
X109820000Y-70597000D02*
X110920000Y-70597000D01*
X109806000Y-70637000D02*
X110920000Y-70637000D01*
X109792000Y-70678000D02*
X110920000Y-70678000D01*
X109778000Y-70718000D02*
X110920000Y-70718000D01*
X109766000Y-70758000D02*
X110920000Y-70758000D01*
X109755000Y-70798000D02*
X110920000Y-70798000D01*
X109744000Y-70838000D02*
X110920000Y-70838000D01*
X109735000Y-70878000D02*
X110920000Y-70878000D01*
X109726000Y-70918000D02*
X110920000Y-70918000D01*
X109718000Y-70958000D02*
X110920000Y-70958000D01*
X109710000Y-70998000D02*
X110920000Y-70998000D01*
X109704000Y-71038000D02*
X110920000Y-71038000D01*
X109698000Y-71078000D02*
X110920000Y-71078000D01*
X109693000Y-71118000D02*
X110920000Y-71118000D01*
X109689000Y-71158000D02*
X110920000Y-71158000D01*
X109686000Y-71198000D02*
X113834000Y-71198000D01*
X109683000Y-71238000D02*
X113837000Y-71238000D01*
X109681000Y-71278000D02*
X113839000Y-71278000D01*
X109680000Y-71358000D02*
X113840000Y-71358000D01*
X109680000Y-71318000D02*
X113840000Y-71318000D01*
X113880000Y-71358000D02*
G75*
G02*
X109640000Y-71358000I-2120000J0D01*
G01*
X109640000Y-71358000D02*
G75*
G02*
X113880000Y-71358000I2120000J0D01*
G01*
X84078000Y-94024000D02*
X82828000Y-94024000D01*
X82828000Y-94024000D02*
X82828000Y-95274000D01*
X93238000Y-94314000D02*
X83118000Y-94314000D01*
X83118000Y-94314000D02*
X83118000Y-100284000D01*
X93228000Y-94324000D02*
X91428000Y-94324000D01*
X91428000Y-94324000D02*
X91428000Y-95074000D01*
X89928000Y-94324000D02*
X86428000Y-94324000D01*
X86428000Y-94324000D02*
X86428000Y-95074000D01*
X84928000Y-94324000D02*
X83128000Y-94324000D01*
X83128000Y-94324000D02*
X83128000Y-95074000D01*
X93228000Y-95074000D02*
X93228000Y-94324000D01*
X91428000Y-95074000D02*
X93228000Y-95074000D01*
X89928000Y-95074000D02*
X89928000Y-94324000D01*
X86428000Y-95074000D02*
X89928000Y-95074000D01*
X84928000Y-95074000D02*
X84928000Y-94324000D01*
X83128000Y-95074000D02*
X84928000Y-95074000D01*
X93228000Y-96574000D02*
X92478000Y-96574000D01*
X92478000Y-96574000D02*
X92478000Y-99524000D01*
X83878000Y-96574000D02*
X83878000Y-99524000D01*
X83128000Y-96574000D02*
X83878000Y-96574000D01*
X92478000Y-99524000D02*
X88178000Y-99524000D01*
X83878000Y-99524000D02*
X88178000Y-99524000D01*
X93238000Y-100284000D02*
X93238000Y-94314000D01*
X83118000Y-100284000D02*
X93238000Y-100284000D01*
X108274000Y-77724000D02*
X109294000Y-77724000D01*
X109294000Y-76254000D02*
X109294000Y-79194000D01*
X109294000Y-79194000D02*
X114734000Y-79194000D01*
X113714000Y-79194000D02*
X113714000Y-76254000D01*
X113834000Y-79194000D02*
X113834000Y-76254000D01*
X113954000Y-79194000D02*
X113954000Y-76254000D01*
X114734000Y-76254000D02*
X109294000Y-76254000D01*
X114734000Y-79194000D02*
X114734000Y-76254000D01*
X115754000Y-77724000D02*
X114734000Y-77724000D01*
X92532000Y-116332000D02*
G75*
G02*
X89172000Y-116332000I-1680000J0D01*
G01*
X89172000Y-116332000D02*
G75*
G02*
X92532000Y-116332000I1680000J0D01*
G01*
X87387427Y-115648958D02*
G75*
G02*
X87387000Y-117016000I-1535427J-683042D01*
G01*
X86535318Y-117866756D02*
G75*
G02*
X85852000Y-118012000I-683318J1534756D01*
G01*
X85880805Y-118012253D02*
G75*
G02*
X85168000Y-117867000I-28806J1680254D01*
G01*
X85168958Y-114796573D02*
G75*
G02*
X86536000Y-114797000I683041J-1535420D01*
G01*
X84316573Y-117015042D02*
G75*
G02*
X84317000Y-115648000I1535420J683041D01*
G01*
X93412000Y-111071000D02*
X93412000Y-120992000D01*
X92127000Y-115263000D02*
X92080000Y-115309000D01*
X91922000Y-115057000D02*
X91887000Y-115093000D01*
X89818000Y-117571000D02*
X89783000Y-117606000D01*
X89625000Y-117355000D02*
X89578000Y-117401000D01*
X83292000Y-120992000D02*
X93412000Y-120992000D01*
X83292000Y-120432000D02*
X93412000Y-120432000D01*
X83292000Y-118932000D02*
X93412000Y-118932000D01*
X83292000Y-114031000D02*
X93412000Y-114031000D01*
X83292000Y-111071000D02*
X93412000Y-111071000D01*
X83292000Y-111071000D02*
X83292000Y-120992000D01*
X83052000Y-121232000D02*
X83552000Y-121232000D01*
X83052000Y-120492000D02*
X83052000Y-121232000D01*
X116820000Y-100284000D02*
X129440000Y-100284000D01*
X129440000Y-100284000D02*
X129440000Y-94314000D01*
X117580000Y-99524000D02*
X123130000Y-99524000D01*
X128680000Y-99524000D02*
X123130000Y-99524000D01*
X116830000Y-96574000D02*
X117580000Y-96574000D01*
X117580000Y-96574000D02*
X117580000Y-99524000D01*
X128680000Y-96574000D02*
X128680000Y-99524000D01*
X129430000Y-96574000D02*
X128680000Y-96574000D01*
X116830000Y-95074000D02*
X118630000Y-95074000D01*
X118630000Y-95074000D02*
X118630000Y-94324000D01*
X120130000Y-95074000D02*
X126130000Y-95074000D01*
X126130000Y-95074000D02*
X126130000Y-94324000D01*
X127630000Y-95074000D02*
X129430000Y-95074000D01*
X129430000Y-95074000D02*
X129430000Y-94324000D01*
X116830000Y-94324000D02*
X116830000Y-95074000D01*
X118630000Y-94324000D02*
X116830000Y-94324000D01*
X120130000Y-94324000D02*
X120130000Y-95074000D01*
X126130000Y-94324000D02*
X120130000Y-94324000D01*
X127630000Y-94324000D02*
X127630000Y-95074000D01*
X129430000Y-94324000D02*
X127630000Y-94324000D01*
X116820000Y-94314000D02*
X116820000Y-100284000D01*
X129440000Y-94314000D02*
X116820000Y-94314000D01*
X116530000Y-94024000D02*
X116530000Y-95274000D01*
X117780000Y-94024000D02*
X116530000Y-94024000D01*
X96540000Y-110190000D02*
X104160000Y-110190000D01*
X104160000Y-110190000D02*
X104160000Y-104220000D01*
X97300000Y-109430000D02*
X100350000Y-109430000D01*
X103400000Y-109430000D02*
X100350000Y-109430000D01*
X96550000Y-106480000D02*
X97300000Y-106480000D01*
X97300000Y-106480000D02*
X97300000Y-109430000D01*
X103400000Y-106480000D02*
X103400000Y-109430000D01*
X104150000Y-106480000D02*
X103400000Y-106480000D01*
X96550000Y-104980000D02*
X98350000Y-104980000D01*
X98350000Y-104980000D02*
X98350000Y-104230000D01*
X99850000Y-104980000D02*
X100850000Y-104980000D01*
X100850000Y-104980000D02*
X100850000Y-104230000D01*
X102350000Y-104980000D02*
X104150000Y-104980000D01*
X104150000Y-104980000D02*
X104150000Y-104230000D01*
X96550000Y-104230000D02*
X96550000Y-104980000D01*
X98350000Y-104230000D02*
X96550000Y-104230000D01*
X99850000Y-104230000D02*
X99850000Y-104980000D01*
X100850000Y-104230000D02*
X99850000Y-104230000D01*
X102350000Y-104230000D02*
X102350000Y-104980000D01*
X104150000Y-104230000D02*
X102350000Y-104230000D01*
X96540000Y-104220000D02*
X96540000Y-110190000D01*
X104160000Y-104220000D02*
X96540000Y-104220000D01*
X96250000Y-103930000D02*
X96250000Y-105180000D01*
X97500000Y-103930000D02*
X96250000Y-103930000D01*
X76240000Y-90254888D02*
X74700000Y-90254888D01*
X76240000Y-90214888D02*
X74700000Y-90214888D01*
X76239000Y-90294888D02*
X74700000Y-90294888D01*
X76238000Y-90334888D02*
X74700000Y-90334888D01*
X76236000Y-90374888D02*
X74700000Y-90374888D01*
X76233000Y-90414888D02*
X74700000Y-90414888D01*
X76229000Y-90454888D02*
X74700000Y-90454888D01*
X76225000Y-90494888D02*
X74700000Y-90494888D01*
X76221000Y-90534888D02*
X74700000Y-90534888D01*
X76216000Y-90574888D02*
X74700000Y-90574888D01*
X76210000Y-90614888D02*
X74700000Y-90614888D01*
X76203000Y-90654888D02*
X74700000Y-90654888D01*
X76196000Y-90694888D02*
X74700000Y-90694888D01*
X76188000Y-90734888D02*
X74700000Y-90734888D01*
X76180000Y-90774888D02*
X74700000Y-90774888D01*
X76171000Y-90814888D02*
X74700000Y-90814888D01*
X76161000Y-90854888D02*
X74700000Y-90854888D01*
X76151000Y-90894888D02*
X74700000Y-90894888D01*
X76140000Y-90935888D02*
X74700000Y-90935888D01*
X76128000Y-90975888D02*
X74700000Y-90975888D01*
X76115000Y-91015888D02*
X74700000Y-91015888D01*
X76102000Y-91055888D02*
X74700000Y-91055888D01*
X76088000Y-91095888D02*
X74700000Y-91095888D01*
X76074000Y-91135888D02*
X74700000Y-91135888D01*
X76058000Y-91175888D02*
X74700000Y-91175888D01*
X76042000Y-91215888D02*
X74700000Y-91215888D01*
X76025000Y-91255888D02*
X74700000Y-91255888D01*
X76008000Y-91295888D02*
X74700000Y-91295888D01*
X75989000Y-91335888D02*
X74700000Y-91335888D01*
X75970000Y-91375888D02*
X74700000Y-91375888D01*
X75950000Y-91415888D02*
X74700000Y-91415888D01*
X75928000Y-91455888D02*
X74700000Y-91455888D01*
X75907000Y-91495888D02*
X74700000Y-91495888D01*
X75884000Y-91535888D02*
X74700000Y-91535888D01*
X75860000Y-91575888D02*
X74700000Y-91575888D01*
X75835000Y-91615888D02*
X74700000Y-91615888D01*
X75809000Y-91655888D02*
X74700000Y-91655888D01*
X75782000Y-91695888D02*
X74700000Y-91695888D01*
X75755000Y-91735888D02*
X74700000Y-91735888D01*
X75725000Y-91775888D02*
X74700000Y-91775888D01*
X75695000Y-91815888D02*
X74700000Y-91815888D01*
X75664000Y-91855888D02*
X74700000Y-91855888D01*
X75631000Y-91895888D02*
X74700000Y-91895888D01*
X75597000Y-91935888D02*
X74700000Y-91935888D01*
X75561000Y-91975888D02*
X74700000Y-91975888D01*
X75524000Y-92015888D02*
X74700000Y-92015888D01*
X75486000Y-92055888D02*
X74700000Y-92055888D01*
X75445000Y-92095888D02*
X74700000Y-92095888D01*
X75403000Y-92135888D02*
X74700000Y-92135888D01*
X75385000Y-87660113D02*
X74885000Y-87660113D01*
X75359000Y-92175888D02*
X74700000Y-92175888D01*
X75313000Y-92215888D02*
X74700000Y-92215888D01*
X75265000Y-92255888D02*
X72055000Y-92255888D01*
X75214000Y-92295888D02*
X72106000Y-92295888D01*
X75160000Y-92335888D02*
X72160000Y-92335888D01*
X75135000Y-87410113D02*
X75135000Y-87910113D01*
X75103000Y-92375888D02*
X72217000Y-92375888D01*
X75043000Y-92415888D02*
X72277000Y-92415888D01*
X74979000Y-92455888D02*
X72341000Y-92455888D01*
X74911000Y-92495888D02*
X72409000Y-92495888D01*
X74838000Y-92535888D02*
X72482000Y-92535888D01*
X74758000Y-92575888D02*
X72562000Y-92575888D01*
X74671000Y-92615888D02*
X72649000Y-92615888D01*
X74575000Y-92655888D02*
X72745000Y-92655888D01*
X74465000Y-92695888D02*
X72855000Y-92695888D01*
X74337000Y-92735888D02*
X72983000Y-92735888D01*
X74178000Y-92775888D02*
X73142000Y-92775888D01*
X73944000Y-92815888D02*
X73376000Y-92815888D01*
X72620000Y-92215888D02*
X72007000Y-92215888D01*
X72620000Y-92175888D02*
X71961000Y-92175888D01*
X72620000Y-92135888D02*
X71917000Y-92135888D01*
X72620000Y-92095888D02*
X71875000Y-92095888D01*
X72620000Y-92055888D02*
X71834000Y-92055888D01*
X72620000Y-92015888D02*
X71796000Y-92015888D01*
X72620000Y-91975888D02*
X71759000Y-91975888D01*
X72620000Y-91935888D02*
X71723000Y-91935888D01*
X72620000Y-91895888D02*
X71689000Y-91895888D01*
X72620000Y-91855888D02*
X71656000Y-91855888D01*
X72620000Y-91815888D02*
X71625000Y-91815888D01*
X72620000Y-91775888D02*
X71595000Y-91775888D01*
X72620000Y-91735888D02*
X71565000Y-91735888D01*
X72620000Y-91695888D02*
X71538000Y-91695888D01*
X72620000Y-91655888D02*
X71511000Y-91655888D01*
X72620000Y-91615888D02*
X71485000Y-91615888D01*
X72620000Y-91575888D02*
X71460000Y-91575888D01*
X72620000Y-91535888D02*
X71436000Y-91535888D01*
X72620000Y-91495888D02*
X71413000Y-91495888D01*
X72620000Y-91455888D02*
X71392000Y-91455888D01*
X72620000Y-91415888D02*
X71370000Y-91415888D01*
X72620000Y-91375888D02*
X71350000Y-91375888D01*
X72620000Y-91335888D02*
X71331000Y-91335888D01*
X72620000Y-91295888D02*
X71312000Y-91295888D01*
X72620000Y-91255888D02*
X71295000Y-91255888D01*
X72620000Y-91215888D02*
X71278000Y-91215888D01*
X72620000Y-91175888D02*
X71262000Y-91175888D01*
X72620000Y-91135888D02*
X71246000Y-91135888D01*
X72620000Y-91095888D02*
X71232000Y-91095888D01*
X72620000Y-91055888D02*
X71218000Y-91055888D01*
X72620000Y-91015888D02*
X71205000Y-91015888D01*
X72620000Y-90975888D02*
X71192000Y-90975888D01*
X72620000Y-90935888D02*
X71180000Y-90935888D01*
X72620000Y-90894888D02*
X71169000Y-90894888D01*
X72620000Y-90854888D02*
X71159000Y-90854888D01*
X72620000Y-90814888D02*
X71149000Y-90814888D01*
X72620000Y-90774888D02*
X71140000Y-90774888D01*
X72620000Y-90734888D02*
X71132000Y-90734888D01*
X72620000Y-90694888D02*
X71124000Y-90694888D01*
X72620000Y-90654888D02*
X71117000Y-90654888D01*
X72620000Y-90614888D02*
X71110000Y-90614888D01*
X72620000Y-90574888D02*
X71104000Y-90574888D01*
X72620000Y-90534888D02*
X71099000Y-90534888D01*
X72620000Y-90494888D02*
X71095000Y-90494888D01*
X72620000Y-90454888D02*
X71091000Y-90454888D01*
X72620000Y-90414888D02*
X71087000Y-90414888D01*
X72620000Y-90374888D02*
X71084000Y-90374888D01*
X72620000Y-90334888D02*
X71082000Y-90334888D01*
X72620000Y-90294888D02*
X71081000Y-90294888D01*
X72620000Y-90254888D02*
X71080000Y-90254888D01*
X72620000Y-90214888D02*
X71080000Y-90214888D01*
X76280000Y-90214888D02*
G75*
G02*
X71040000Y-90214888I-2620000J0D01*
G01*
X71040000Y-90214888D02*
G75*
G02*
X76280000Y-90214888I2620000J0D01*
G01*
X96540000Y-100284000D02*
X104160000Y-100284000D01*
X104160000Y-100284000D02*
X104160000Y-94314000D01*
X97300000Y-99524000D02*
X100350000Y-99524000D01*
X103400000Y-99524000D02*
X100350000Y-99524000D01*
X96550000Y-96574000D02*
X97300000Y-96574000D01*
X97300000Y-96574000D02*
X97300000Y-99524000D01*
X103400000Y-96574000D02*
X103400000Y-99524000D01*
X104150000Y-96574000D02*
X103400000Y-96574000D01*
X96550000Y-95074000D02*
X98350000Y-95074000D01*
X98350000Y-95074000D02*
X98350000Y-94324000D01*
X99850000Y-95074000D02*
X100850000Y-95074000D01*
X100850000Y-95074000D02*
X100850000Y-94324000D01*
X102350000Y-95074000D02*
X104150000Y-95074000D01*
X104150000Y-95074000D02*
X104150000Y-94324000D01*
X96550000Y-94324000D02*
X96550000Y-95074000D01*
X98350000Y-94324000D02*
X96550000Y-94324000D01*
X99850000Y-94324000D02*
X99850000Y-95074000D01*
X100850000Y-94324000D02*
X99850000Y-94324000D01*
X102350000Y-94324000D02*
X102350000Y-95074000D01*
X104150000Y-94324000D02*
X102350000Y-94324000D01*
X96540000Y-94314000D02*
X96540000Y-100284000D01*
X104160000Y-94314000D02*
X96540000Y-94314000D01*
X96250000Y-94024000D02*
X96250000Y-95274000D01*
X97500000Y-94024000D02*
X96250000Y-94024000D01*
X82828000Y-103930000D02*
X82828000Y-105180000D01*
X83118000Y-104220000D02*
X83118000Y-110190000D01*
X83118000Y-110190000D02*
X93238000Y-110190000D01*
X83128000Y-104230000D02*
X83128000Y-104980000D01*
X83128000Y-104980000D02*
X84928000Y-104980000D01*
X83128000Y-106480000D02*
X83878000Y-106480000D01*
X83878000Y-106480000D02*
X83878000Y-109430000D01*
X83878000Y-109430000D02*
X88178000Y-109430000D01*
X84078000Y-103930000D02*
X82828000Y-103930000D01*
X84928000Y-104230000D02*
X83128000Y-104230000D01*
X84928000Y-104980000D02*
X84928000Y-104230000D01*
X86428000Y-104230000D02*
X86428000Y-104980000D01*
X86428000Y-104980000D02*
X89928000Y-104980000D01*
X89928000Y-104230000D02*
X86428000Y-104230000D01*
X89928000Y-104980000D02*
X89928000Y-104230000D01*
X91428000Y-104230000D02*
X91428000Y-104980000D01*
X91428000Y-104980000D02*
X93228000Y-104980000D01*
X92478000Y-106480000D02*
X92478000Y-109430000D01*
X92478000Y-109430000D02*
X88178000Y-109430000D01*
X93228000Y-104230000D02*
X91428000Y-104230000D01*
X93228000Y-104980000D02*
X93228000Y-104230000D01*
X93228000Y-106480000D02*
X92478000Y-106480000D01*
X93238000Y-104220000D02*
X83118000Y-104220000D01*
X93238000Y-110190000D02*
X93238000Y-104220000D01*
X119146000Y-92918000D02*
X126766000Y-92918000D01*
X126766000Y-92918000D02*
X126766000Y-86948000D01*
X119906000Y-92158000D02*
X122956000Y-92158000D01*
X126006000Y-92158000D02*
X122956000Y-92158000D01*
X119156000Y-89208000D02*
X119906000Y-89208000D01*
X119906000Y-89208000D02*
X119906000Y-92158000D01*
X126006000Y-89208000D02*
X126006000Y-92158000D01*
X126756000Y-89208000D02*
X126006000Y-89208000D01*
X119156000Y-87708000D02*
X120956000Y-87708000D01*
X120956000Y-87708000D02*
X120956000Y-86958000D01*
X122456000Y-87708000D02*
X123456000Y-87708000D01*
X123456000Y-87708000D02*
X123456000Y-86958000D01*
X124956000Y-87708000D02*
X126756000Y-87708000D01*
X126756000Y-87708000D02*
X126756000Y-86958000D01*
X119156000Y-86958000D02*
X119156000Y-87708000D01*
X120956000Y-86958000D02*
X119156000Y-86958000D01*
X122456000Y-86958000D02*
X122456000Y-87708000D01*
X123456000Y-86958000D02*
X122456000Y-86958000D01*
X124956000Y-86958000D02*
X124956000Y-87708000D01*
X126756000Y-86958000D02*
X124956000Y-86958000D01*
X119146000Y-86948000D02*
X119146000Y-92918000D01*
X126766000Y-86948000D02*
X119146000Y-86948000D01*
X118856000Y-86658000D02*
X118856000Y-87908000D01*
X120106000Y-86658000D02*
X118856000Y-86658000D01*
X131340000Y-86340000D02*
X131340000Y-98960000D01*
X131340000Y-98960000D02*
X137310000Y-98960000D01*
X132100000Y-87100000D02*
X132100000Y-92650000D01*
X132100000Y-98200000D02*
X132100000Y-92650000D01*
X135050000Y-86350000D02*
X135050000Y-87100000D01*
X135050000Y-87100000D02*
X132100000Y-87100000D01*
X135050000Y-98200000D02*
X132100000Y-98200000D01*
X135050000Y-98950000D02*
X135050000Y-98200000D01*
X136550000Y-86350000D02*
X136550000Y-88150000D01*
X136550000Y-88150000D02*
X137300000Y-88150000D01*
X136550000Y-89650000D02*
X136550000Y-95650000D01*
X136550000Y-95650000D02*
X137300000Y-95650000D01*
X136550000Y-97150000D02*
X136550000Y-98950000D01*
X136550000Y-98950000D02*
X137300000Y-98950000D01*
X137300000Y-86350000D02*
X136550000Y-86350000D01*
X137300000Y-88150000D02*
X137300000Y-86350000D01*
X137300000Y-89650000D02*
X136550000Y-89650000D01*
X137300000Y-95650000D02*
X137300000Y-89650000D01*
X137300000Y-97150000D02*
X136550000Y-97150000D01*
X137300000Y-98950000D02*
X137300000Y-97150000D01*
X137310000Y-86340000D02*
X131340000Y-86340000D01*
X137310000Y-98960000D02*
X137310000Y-86340000D01*
X137600000Y-86050000D02*
X136350000Y-86050000D01*
X137600000Y-87300000D02*
X137600000Y-86050000D01*
X119106000Y-85552000D02*
X126726000Y-85552000D01*
X126726000Y-85552000D02*
X126726000Y-79582000D01*
X119866000Y-84792000D02*
X122916000Y-84792000D01*
X125966000Y-84792000D02*
X122916000Y-84792000D01*
X119116000Y-81842000D02*
X119866000Y-81842000D01*
X119866000Y-81842000D02*
X119866000Y-84792000D01*
X125966000Y-81842000D02*
X125966000Y-84792000D01*
X126716000Y-81842000D02*
X125966000Y-81842000D01*
X119116000Y-80342000D02*
X120916000Y-80342000D01*
X120916000Y-80342000D02*
X120916000Y-79592000D01*
X122416000Y-80342000D02*
X123416000Y-80342000D01*
X123416000Y-80342000D02*
X123416000Y-79592000D01*
X124916000Y-80342000D02*
X126716000Y-80342000D01*
X126716000Y-80342000D02*
X126716000Y-79592000D01*
X119116000Y-79592000D02*
X119116000Y-80342000D01*
X120916000Y-79592000D02*
X119116000Y-79592000D01*
X122416000Y-79592000D02*
X122416000Y-80342000D01*
X123416000Y-79592000D02*
X122416000Y-79592000D01*
X124916000Y-79592000D02*
X124916000Y-80342000D01*
X126716000Y-79592000D02*
X124916000Y-79592000D01*
X119106000Y-79582000D02*
X119106000Y-85552000D01*
X126726000Y-79582000D02*
X119106000Y-79582000D01*
X118816000Y-79292000D02*
X118816000Y-80542000D01*
X120066000Y-79292000D02*
X118816000Y-79292000D01*
X78800000Y-86480000D02*
X78800000Y-68460000D01*
X78800000Y-68460000D02*
X68520000Y-68460000D01*
X76310000Y-86420000D02*
X76310000Y-68520000D01*
X76310000Y-68520000D02*
X74660000Y-68520000D01*
X72660000Y-68520000D02*
X71010000Y-68520000D01*
X71010000Y-86420000D02*
X76310000Y-86420000D01*
X71010000Y-68520000D02*
X71010000Y-86420000D01*
X68520000Y-86480000D02*
X78800000Y-86480000D01*
X68520000Y-68460000D02*
X68520000Y-86480000D01*
X74660000Y-68520000D02*
G75*
G02*
X72660000Y-68520000I-1000000J0D01*
G01*
X107874000Y-94024000D02*
X106624000Y-94024000D01*
X106624000Y-94024000D02*
X106624000Y-95274000D01*
X114534000Y-94314000D02*
X106914000Y-94314000D01*
X106914000Y-94314000D02*
X106914000Y-100284000D01*
X114524000Y-94324000D02*
X112724000Y-94324000D01*
X112724000Y-94324000D02*
X112724000Y-95074000D01*
X111224000Y-94324000D02*
X110224000Y-94324000D01*
X110224000Y-94324000D02*
X110224000Y-95074000D01*
X108724000Y-94324000D02*
X106924000Y-94324000D01*
X106924000Y-94324000D02*
X106924000Y-95074000D01*
X114524000Y-95074000D02*
X114524000Y-94324000D01*
X112724000Y-95074000D02*
X114524000Y-95074000D01*
X111224000Y-95074000D02*
X111224000Y-94324000D01*
X110224000Y-95074000D02*
X111224000Y-95074000D01*
X108724000Y-95074000D02*
X108724000Y-94324000D01*
X106924000Y-95074000D02*
X108724000Y-95074000D01*
X114524000Y-96574000D02*
X113774000Y-96574000D01*
X113774000Y-96574000D02*
X113774000Y-99524000D01*
X107674000Y-96574000D02*
X107674000Y-99524000D01*
X106924000Y-96574000D02*
X107674000Y-96574000D01*
X113774000Y-99524000D02*
X110724000Y-99524000D01*
X107674000Y-99524000D02*
X110724000Y-99524000D01*
X114534000Y-100284000D02*
X114534000Y-94314000D01*
X106914000Y-100284000D02*
X114534000Y-100284000D01*
X69580000Y-94024000D02*
X69580000Y-95274000D01*
X69870000Y-94314000D02*
X69870000Y-100284000D01*
X69870000Y-100284000D02*
X77490000Y-100284000D01*
X69880000Y-94324000D02*
X69880000Y-95074000D01*
X69880000Y-95074000D02*
X71680000Y-95074000D01*
X69880000Y-96574000D02*
X70630000Y-96574000D01*
X70630000Y-96574000D02*
X70630000Y-99524000D01*
X70630000Y-99524000D02*
X73680000Y-99524000D01*
X70830000Y-94024000D02*
X69580000Y-94024000D01*
X71680000Y-94324000D02*
X69880000Y-94324000D01*
X71680000Y-95074000D02*
X71680000Y-94324000D01*
X73180000Y-94324000D02*
X73180000Y-95074000D01*
X73180000Y-95074000D02*
X74180000Y-95074000D01*
X74180000Y-94324000D02*
X73180000Y-94324000D01*
X74180000Y-95074000D02*
X74180000Y-94324000D01*
X75680000Y-94324000D02*
X75680000Y-95074000D01*
X75680000Y-95074000D02*
X77480000Y-95074000D01*
X76730000Y-96574000D02*
X76730000Y-99524000D01*
X76730000Y-99524000D02*
X73680000Y-99524000D01*
X77480000Y-94324000D02*
X75680000Y-94324000D01*
X77480000Y-95074000D02*
X77480000Y-94324000D01*
X77480000Y-96574000D02*
X76730000Y-96574000D01*
X77490000Y-94314000D02*
X69870000Y-94314000D01*
X77490000Y-100284000D02*
X77490000Y-94314000D01*
X95244000Y-120492000D02*
X95244000Y-121232000D01*
X95244000Y-121232000D02*
X95744000Y-121232000D01*
X95484000Y-111071000D02*
X95484000Y-120992000D01*
X95484000Y-111071000D02*
X105604000Y-111071000D01*
X95484000Y-114031000D02*
X105604000Y-114031000D01*
X95484000Y-118932000D02*
X105604000Y-118932000D01*
X95484000Y-120432000D02*
X105604000Y-120432000D01*
X95484000Y-120992000D02*
X105604000Y-120992000D01*
X101817000Y-117355000D02*
X101770000Y-117401000D01*
X102010000Y-117571000D02*
X101975000Y-117606000D01*
X104114000Y-115057000D02*
X104079000Y-115093000D01*
X104319000Y-115263000D02*
X104272000Y-115309000D01*
X105604000Y-111071000D02*
X105604000Y-120992000D01*
X96508573Y-117015042D02*
G75*
G02*
X96509000Y-115648000I1535420J683041D01*
G01*
X97360958Y-114796573D02*
G75*
G02*
X98728000Y-114797000I683041J-1535420D01*
G01*
X98072805Y-118012253D02*
G75*
G02*
X97360000Y-117867000I-28806J1680254D01*
G01*
X98727318Y-117866756D02*
G75*
G02*
X98044000Y-118012000I-683318J1534756D01*
G01*
X99579427Y-115648958D02*
G75*
G02*
X99579000Y-117016000I-1535427J-683042D01*
G01*
X104724000Y-116332000D02*
G75*
G02*
X101364000Y-116332000I-1680000J0D01*
G01*
X101364000Y-116332000D02*
G75*
G02*
X104724000Y-116332000I1680000J0D01*
G01*
X103958000Y-78000000D02*
X103958000Y-74400000D01*
X99508000Y-76200000D02*
G75*
G02*
X103946478Y-74361522I2600000J0D01*
G01*
X103946478Y-78038478D02*
G75*
G02*
X99507999Y-76200000I-1838478J1838478D01*
G01*
X118816000Y-69386000D02*
X118816000Y-70636000D01*
X119106000Y-69676000D02*
X119106000Y-75646000D01*
X119106000Y-75646000D02*
X126726000Y-75646000D01*
X119116000Y-69686000D02*
X119116000Y-70436000D01*
X119116000Y-70436000D02*
X120916000Y-70436000D01*
X119116000Y-71936000D02*
X119866000Y-71936000D01*
X119866000Y-71936000D02*
X119866000Y-74886000D01*
X119866000Y-74886000D02*
X122916000Y-74886000D01*
X120066000Y-69386000D02*
X118816000Y-69386000D01*
X120916000Y-69686000D02*
X119116000Y-69686000D01*
X120916000Y-70436000D02*
X120916000Y-69686000D01*
X122416000Y-69686000D02*
X122416000Y-70436000D01*
X122416000Y-70436000D02*
X123416000Y-70436000D01*
X123416000Y-69686000D02*
X122416000Y-69686000D01*
X123416000Y-70436000D02*
X123416000Y-69686000D01*
X124916000Y-69686000D02*
X124916000Y-70436000D01*
X124916000Y-70436000D02*
X126716000Y-70436000D01*
X125966000Y-71936000D02*
X125966000Y-74886000D01*
X125966000Y-74886000D02*
X122916000Y-74886000D01*
X126716000Y-69686000D02*
X124916000Y-69686000D01*
X126716000Y-70436000D02*
X126716000Y-69686000D01*
X126716000Y-71936000D02*
X125966000Y-71936000D01*
X126726000Y-69676000D02*
X119106000Y-69676000D01*
X126726000Y-75646000D02*
X126726000Y-69676000D01*
D13*
X81115000Y-69660000D02*
X81115000Y-91160000D01*
X81225000Y-69660000D02*
X81225000Y-91160000D01*
X82115000Y-92160000D02*
X98115000Y-92160000D01*
X82225000Y-92160000D02*
X98225000Y-92160000D01*
X85785000Y-67660000D02*
X85785000Y-68660000D01*
X85895000Y-67660000D02*
X85895000Y-68660000D01*
X94445000Y-67660000D02*
X85785000Y-67660000D01*
X94445000Y-67660000D02*
X94445000Y-68660000D01*
X94555000Y-67660000D02*
X85895000Y-67660000D01*
X94555000Y-67660000D02*
X94555000Y-68660000D01*
X98115000Y-68660000D02*
X82115000Y-68660000D01*
X98225000Y-68660000D02*
X82225000Y-68660000D01*
X99115000Y-91160000D02*
X99115000Y-69660000D01*
X99225000Y-91160000D02*
X99225000Y-69660000D01*
X81115000Y-69660000D02*
G75*
G02*
X82115000Y-68660000I999999J1D01*
G01*
X81225000Y-69660000D02*
G75*
G02*
X82225000Y-68660000I999999J1D01*
G01*
X82115000Y-92160000D02*
G75*
G02*
X81115000Y-91160000I-1J999999D01*
G01*
X82225000Y-92160000D02*
G75*
G02*
X81225000Y-91160000I-1J999999D01*
G01*
X98115000Y-68660000D02*
G75*
G02*
X99115000Y-69660000I0J-1000000D01*
G01*
X98225000Y-68660000D02*
G75*
G02*
X99225000Y-69660000I0J-1000000D01*
G01*
X99115000Y-91160000D02*
G75*
G02*
X98115000Y-92160000I-1000000J0D01*
G01*
X99225000Y-91160000D02*
G75*
G02*
X98225000Y-92160000I-1000000J0D01*
G01*
%LPC*%
D15*
X101600000Y-82550000D03*
D16*
X101600000Y-90170000D03*
D15*
X104850000Y-82550000D03*
D16*
X104850000Y-90170000D03*
D15*
X128524000Y-77724000D03*
D16*
X136144000Y-77724000D03*
D15*
X128524000Y-72898000D03*
D16*
X136144000Y-72898000D03*
D15*
X57150000Y-78740000D03*
D16*
X64770000Y-78740000D03*
D17*
X57270000Y-71120000D03*
D18*
X59770000Y-71120000D03*
X62270000Y-71120000D03*
X64770000Y-71120000D03*
D17*
X57270000Y-85090000D03*
D18*
X59770000Y-85090000D03*
X62270000Y-85090000D03*
X64770000Y-85090000D03*
D17*
X58460000Y-96774000D03*
D18*
X60960000Y-96774000D03*
X63460000Y-96774000D03*
D19*
X111760000Y-72358000D03*
D20*
X111760000Y-70358000D03*
D18*
X90678000Y-96774000D03*
X88178000Y-96774000D03*
D17*
X85678000Y-96774000D03*
D21*
X117094000Y-77724000D03*
D22*
X106934000Y-77724000D03*
D23*
X90852000Y-116332000D03*
D24*
X85852000Y-116332000D03*
D17*
X119380000Y-96774000D03*
D18*
X121880000Y-96774000D03*
X124380000Y-96774000D03*
X126880000Y-96774000D03*
D25*
X99100000Y-106680000D03*
D26*
X101600000Y-106680000D03*
D27*
X73660000Y-89214888D03*
D15*
X73660000Y-91214888D03*
D25*
X99100000Y-96774000D03*
D26*
X101600000Y-96774000D03*
D17*
X85678000Y-106680000D03*
D18*
X88178000Y-106680000D03*
X90678000Y-106680000D03*
D25*
X121706000Y-89408000D03*
D26*
X124206000Y-89408000D03*
D28*
X134850000Y-88900000D03*
D29*
X134850000Y-91400000D03*
X134850000Y-93900000D03*
X134850000Y-96400000D03*
D25*
X121666000Y-82042000D03*
D26*
X124166000Y-82042000D03*
D27*
X69850000Y-69850000D03*
D16*
X69850000Y-72390000D03*
X69850000Y-74930000D03*
X69850000Y-77470000D03*
X69850000Y-80010000D03*
X69850000Y-82550000D03*
X69850000Y-85090000D03*
X77470000Y-85090000D03*
X77470000Y-82550000D03*
X77470000Y-80010000D03*
X77470000Y-77470000D03*
X77470000Y-74930000D03*
X77470000Y-72390000D03*
X77470000Y-69850000D03*
D26*
X111974000Y-96774000D03*
D25*
X109474000Y-96774000D03*
X72430000Y-96774000D03*
D26*
X74930000Y-96774000D03*
D24*
X98044000Y-116332000D03*
D23*
X103044000Y-116332000D03*
D30*
X102108000Y-77470000D03*
D31*
X102108000Y-76200000D03*
X102108000Y-74930000D03*
D32*
X113500000Y-84625000D03*
D25*
X121666000Y-72136000D03*
D26*
X124166000Y-72136000D03*
D33*
X82605000Y-70250000D03*
X82605000Y-72790000D03*
X82605000Y-75330000D03*
X82605000Y-77870000D03*
X82605000Y-80410000D03*
X82605000Y-82950000D03*
X82605000Y-85490000D03*
X82605000Y-88030000D03*
X82605000Y-90570000D03*
X97845000Y-90570000D03*
X97845000Y-88030000D03*
X97845000Y-85490000D03*
X97845000Y-82950000D03*
X97845000Y-80410000D03*
X97845000Y-77870000D03*
X97845000Y-75330000D03*
X97845000Y-72790000D03*
X97845000Y-70250000D03*
%LPD*%
M02*
