%TF.GenerationSoftware,KiCad,Pcbnew,8.0.3*%
%TF.CreationDate,2024-07-03T22:45:55+01:00*%
%TF.ProjectId,Wand Board ESP32,57616e64-2042-46f6-9172-642045535033,rev?*%
%TF.SameCoordinates,Original*%
%TF.FileFunction,Drillmap*%
%TF.FilePolarity,Positive*%
%FSLAX45Y45*%
G04 Gerber Fmt 4.5, Leading zero omitted, Abs format (unit mm)*
G04 Created by KiCad (PCBNEW 8.0.3) date 2024-07-03 22:45:55*
%MOMM*%
%LPD*%
G01*
G04 APERTURE LIST*
%ADD10C,0.100000*%
%ADD11C,0.200000*%
%ADD12C,0.110000*%
%ADD13C,0.130000*%
%ADD14C,0.320000*%
G04 APERTURE END LIST*
D10*
X5550000Y-6650000D02*
X13750000Y-6650000D01*
X7900000Y-10250000D02*
G75*
G02*
X8100000Y-10450000I0J-200000D01*
G01*
X13950000Y-6850000D02*
X13950000Y-10050000D01*
X5550000Y-10250000D02*
G75*
G02*
X5350000Y-10050000I0J200000D01*
G01*
X5350000Y-10050000D02*
X5350000Y-6850000D01*
X13750000Y-6650000D02*
G75*
G02*
X13950000Y-6850000I0J-200000D01*
G01*
X8100000Y-12050000D02*
X8100000Y-10450000D01*
X10600000Y-12250000D02*
X8300000Y-12250000D01*
X10800000Y-10450000D02*
G75*
G02*
X11000000Y-10250000I200000J0D01*
G01*
X13750000Y-10250000D02*
X11000000Y-10250000D01*
X13950000Y-10050000D02*
G75*
G02*
X13750000Y-10250000I-200000J0D01*
G01*
X7900000Y-10250000D02*
X5550000Y-10250000D01*
X8300000Y-12250000D02*
G75*
G02*
X8100000Y-12050000I0J200000D01*
G01*
X5350000Y-6850000D02*
G75*
G02*
X5550000Y-6650000I200000J0D01*
G01*
X10800000Y-10450000D02*
X10800000Y-12050000D01*
X10800000Y-12050000D02*
G75*
G02*
X10600000Y-12250000I-200000J0D01*
G01*
D11*
D10*
X11146000Y-7005800D02*
X11206000Y-7065800D01*
X11206000Y-7005800D02*
X11146000Y-7065800D01*
X11146000Y-7205800D02*
X11206000Y-7265800D01*
X11206000Y-7205800D02*
X11146000Y-7265800D01*
X10248300Y-7493000D02*
G75*
G02*
X10173300Y-7493000I-37500J0D01*
G01*
X10173300Y-7493000D02*
G75*
G02*
X10248300Y-7493000I37500J0D01*
G01*
X10248300Y-7620000D02*
G75*
G02*
X10173300Y-7620000I-37500J0D01*
G01*
X10173300Y-7620000D02*
G75*
G02*
X10248300Y-7620000I37500J0D01*
G01*
X10248300Y-7747000D02*
G75*
G02*
X10173300Y-7747000I-37500J0D01*
G01*
X10173300Y-7747000D02*
G75*
G02*
X10248300Y-7747000I37500J0D01*
G01*
X8260500Y-6986900D02*
X8260500Y-7063100D01*
X8222400Y-7025000D02*
X8298600Y-7025000D01*
X8260500Y-7240900D02*
X8260500Y-7317100D01*
X8222400Y-7279000D02*
X8298600Y-7279000D01*
X8260500Y-7494900D02*
X8260500Y-7571100D01*
X8222400Y-7533000D02*
X8298600Y-7533000D01*
X8260500Y-7748900D02*
X8260500Y-7825100D01*
X8222400Y-7787000D02*
X8298600Y-7787000D01*
X8260500Y-8002900D02*
X8260500Y-8079100D01*
X8222400Y-8041000D02*
X8298600Y-8041000D01*
X8260500Y-8256900D02*
X8260500Y-8333100D01*
X8222400Y-8295000D02*
X8298600Y-8295000D01*
X8260500Y-8510900D02*
X8260500Y-8587100D01*
X8222400Y-8549000D02*
X8298600Y-8549000D01*
X8260500Y-8764900D02*
X8260500Y-8841100D01*
X8222400Y-8803000D02*
X8298600Y-8803000D01*
X8260500Y-9018900D02*
X8260500Y-9095100D01*
X8222400Y-9057000D02*
X8298600Y-9057000D01*
X9784500Y-6986900D02*
X9784500Y-7063100D01*
X9746400Y-7025000D02*
X9822600Y-7025000D01*
X9784500Y-7240900D02*
X9784500Y-7317100D01*
X9746400Y-7279000D02*
X9822600Y-7279000D01*
X9784500Y-7494900D02*
X9784500Y-7571100D01*
X9746400Y-7533000D02*
X9822600Y-7533000D01*
X9784500Y-7748900D02*
X9784500Y-7825100D01*
X9746400Y-7787000D02*
X9822600Y-7787000D01*
X9784500Y-8002900D02*
X9784500Y-8079100D01*
X9746400Y-8041000D02*
X9822600Y-8041000D01*
X9784500Y-8256900D02*
X9784500Y-8333100D01*
X9746400Y-8295000D02*
X9822600Y-8295000D01*
X9784500Y-8510900D02*
X9784500Y-8587100D01*
X9746400Y-8549000D02*
X9822600Y-8549000D01*
X9784500Y-8764900D02*
X9784500Y-8841100D01*
X9746400Y-8803000D02*
X9822600Y-8803000D01*
X9784500Y-9018900D02*
X9784500Y-9095100D01*
X9746400Y-9057000D02*
X9822600Y-9057000D01*
X5743284Y-7902284D02*
X5743284Y-7845715D01*
X5686715Y-7845715D01*
X5686715Y-7902284D01*
X5743284Y-7902284D01*
X6505284Y-7902284D02*
X6505284Y-7845715D01*
X6448715Y-7845715D01*
X6448715Y-7902284D01*
X6505284Y-7902284D01*
X7013284Y-7013284D02*
X7013284Y-6956715D01*
X6956715Y-6956715D01*
X6956715Y-7013284D01*
X7013284Y-7013284D01*
X7013284Y-7267284D02*
X7013284Y-7210715D01*
X6956715Y-7210715D01*
X6956715Y-7267284D01*
X7013284Y-7267284D01*
X7013284Y-7521284D02*
X7013284Y-7464715D01*
X6956715Y-7464715D01*
X6956715Y-7521284D01*
X7013284Y-7521284D01*
X7013284Y-7775284D02*
X7013284Y-7718715D01*
X6956715Y-7718715D01*
X6956715Y-7775284D01*
X7013284Y-7775284D01*
X7013284Y-8029284D02*
X7013284Y-7972715D01*
X6956715Y-7972715D01*
X6956715Y-8029284D01*
X7013284Y-8029284D01*
X7013284Y-8283284D02*
X7013284Y-8226715D01*
X6956715Y-8226715D01*
X6956715Y-8283284D01*
X7013284Y-8283284D01*
X7013284Y-8537285D02*
X7013284Y-8480716D01*
X6956715Y-8480716D01*
X6956715Y-8537285D01*
X7013284Y-8537285D01*
X7394284Y-8949773D02*
X7394284Y-8893204D01*
X7337715Y-8893204D01*
X7337715Y-8949773D01*
X7394284Y-8949773D01*
X7394284Y-9149773D02*
X7394284Y-9093204D01*
X7337715Y-9093204D01*
X7337715Y-9149773D01*
X7394284Y-9149773D01*
X7775284Y-7013284D02*
X7775284Y-6956715D01*
X7718715Y-6956715D01*
X7718715Y-7013284D01*
X7775284Y-7013284D01*
X7775284Y-7267284D02*
X7775284Y-7210715D01*
X7718715Y-7210715D01*
X7718715Y-7267284D01*
X7775284Y-7267284D01*
X7775284Y-7521284D02*
X7775284Y-7464715D01*
X7718715Y-7464715D01*
X7718715Y-7521284D01*
X7775284Y-7521284D01*
X7775284Y-7775284D02*
X7775284Y-7718715D01*
X7718715Y-7718715D01*
X7718715Y-7775284D01*
X7775284Y-7775284D01*
X7775284Y-8029284D02*
X7775284Y-7972715D01*
X7718715Y-7972715D01*
X7718715Y-8029284D01*
X7775284Y-8029284D01*
X7775284Y-8283284D02*
X7775284Y-8226715D01*
X7718715Y-8226715D01*
X7718715Y-8283284D01*
X7775284Y-8283284D01*
X7775284Y-8537285D02*
X7775284Y-8480716D01*
X7718715Y-8480716D01*
X7718715Y-8537285D01*
X7775284Y-8537285D01*
X10188285Y-8283284D02*
X10188285Y-8226715D01*
X10131716Y-8226715D01*
X10131716Y-8283284D01*
X10188285Y-8283284D01*
X10188285Y-9045285D02*
X10188285Y-8988716D01*
X10131716Y-8988716D01*
X10131716Y-9045285D01*
X10188285Y-9045285D01*
X10513285Y-8283284D02*
X10513285Y-8226715D01*
X10456716Y-8226715D01*
X10456716Y-8283284D01*
X10513285Y-8283284D01*
X10513285Y-9045285D02*
X10513285Y-8988716D01*
X10456716Y-8988716D01*
X10456716Y-9045285D01*
X10513285Y-9045285D01*
X12880684Y-7318084D02*
X12880684Y-7261515D01*
X12824115Y-7261515D01*
X12824115Y-7318084D01*
X12880684Y-7318084D01*
X12880684Y-7800684D02*
X12880684Y-7744115D01*
X12824115Y-7744115D01*
X12824115Y-7800684D01*
X12880684Y-7800684D01*
X13642684Y-7318084D02*
X13642684Y-7261515D01*
X13586115Y-7261515D01*
X13586115Y-7318084D01*
X13642684Y-7318084D01*
X13642684Y-7800684D02*
X13642684Y-7744115D01*
X13586115Y-7744115D01*
X13586115Y-7800684D01*
X13642684Y-7800684D01*
X5727000Y-7159500D02*
X5774500Y-7112000D01*
X5727000Y-7064500D01*
X5679500Y-7112000D01*
X5727000Y-7159500D01*
X5727000Y-8556500D02*
X5774500Y-8509000D01*
X5727000Y-8461500D01*
X5679500Y-8509000D01*
X5727000Y-8556500D01*
X5846000Y-9724900D02*
X5893500Y-9677400D01*
X5846000Y-9629900D01*
X5798500Y-9677400D01*
X5846000Y-9724900D01*
X5977000Y-7159500D02*
X6024500Y-7112000D01*
X5977000Y-7064500D01*
X5929500Y-7112000D01*
X5977000Y-7159500D01*
X5977000Y-8556500D02*
X6024500Y-8509000D01*
X5977000Y-8461500D01*
X5929500Y-8509000D01*
X5977000Y-8556500D01*
X6096000Y-9724900D02*
X6143500Y-9677400D01*
X6096000Y-9629900D01*
X6048500Y-9677400D01*
X6096000Y-9724900D01*
X6227000Y-7159500D02*
X6274500Y-7112000D01*
X6227000Y-7064500D01*
X6179500Y-7112000D01*
X6227000Y-7159500D01*
X6227000Y-8556500D02*
X6274500Y-8509000D01*
X6227000Y-8461500D01*
X6179500Y-8509000D01*
X6227000Y-8556500D01*
X6346000Y-9724900D02*
X6393500Y-9677400D01*
X6346000Y-9629900D01*
X6298500Y-9677400D01*
X6346000Y-9724900D01*
X6477000Y-7159500D02*
X6524500Y-7112000D01*
X6477000Y-7064500D01*
X6429500Y-7112000D01*
X6477000Y-7159500D01*
X6477000Y-8556500D02*
X6524500Y-8509000D01*
X6477000Y-8461500D01*
X6429500Y-8509000D01*
X6477000Y-8556500D01*
X8567800Y-9724900D02*
X8615300Y-9677400D01*
X8567800Y-9629900D01*
X8520300Y-9677400D01*
X8567800Y-9724900D01*
X8567800Y-10715500D02*
X8615300Y-10668000D01*
X8567800Y-10620500D01*
X8520300Y-10668000D01*
X8567800Y-10715500D01*
X8817800Y-9724900D02*
X8865300Y-9677400D01*
X8817800Y-9629900D01*
X8770300Y-9677400D01*
X8817800Y-9724900D01*
X8817800Y-10715500D02*
X8865300Y-10668000D01*
X8817800Y-10620500D01*
X8770300Y-10668000D01*
X8817800Y-10715500D01*
X9067800Y-9724900D02*
X9115300Y-9677400D01*
X9067800Y-9629900D01*
X9020300Y-9677400D01*
X9067800Y-9724900D01*
X9067800Y-10715500D02*
X9115300Y-10668000D01*
X9067800Y-10620500D01*
X9020300Y-10668000D01*
X9067800Y-10715500D01*
X11938000Y-9724900D02*
X11985500Y-9677400D01*
X11938000Y-9629900D01*
X11890500Y-9677400D01*
X11938000Y-9724900D01*
X12188000Y-9724900D02*
X12235500Y-9677400D01*
X12188000Y-9629900D01*
X12140500Y-9677400D01*
X12188000Y-9724900D01*
X12438000Y-9724900D02*
X12485500Y-9677400D01*
X12438000Y-9629900D01*
X12390500Y-9677400D01*
X12438000Y-9724900D01*
X12688000Y-9724900D02*
X12735500Y-9677400D01*
X12688000Y-9629900D01*
X12640500Y-9677400D01*
X12688000Y-9724900D01*
X13485000Y-8937500D02*
X13532500Y-8890000D01*
X13485000Y-8842500D01*
X13437500Y-8890000D01*
X13485000Y-8937500D01*
X13485000Y-9187500D02*
X13532500Y-9140000D01*
X13485000Y-9092500D01*
X13437500Y-9140000D01*
X13485000Y-9187500D01*
X13485000Y-9437500D02*
X13532500Y-9390000D01*
X13485000Y-9342500D01*
X13437500Y-9390000D01*
X13485000Y-9437500D01*
X13485000Y-9687500D02*
X13532500Y-9640000D01*
X13485000Y-9592500D01*
X13437500Y-9640000D01*
X13485000Y-9687500D01*
X7193000Y-9627400D02*
X7293000Y-9727400D01*
X7293000Y-9627400D02*
X7193000Y-9727400D01*
X7293000Y-9677400D02*
G75*
G02*
X7193000Y-9677400I-50000J0D01*
G01*
X7193000Y-9677400D02*
G75*
G02*
X7293000Y-9677400I50000J0D01*
G01*
X7443000Y-9627400D02*
X7543000Y-9727400D01*
X7543000Y-9627400D02*
X7443000Y-9727400D01*
X7543000Y-9677400D02*
G75*
G02*
X7443000Y-9677400I-50000J0D01*
G01*
X7443000Y-9677400D02*
G75*
G02*
X7543000Y-9677400I50000J0D01*
G01*
X9860000Y-9627400D02*
X9960000Y-9727400D01*
X9960000Y-9627400D02*
X9860000Y-9727400D01*
X9960000Y-9677400D02*
G75*
G02*
X9860000Y-9677400I-50000J0D01*
G01*
X9860000Y-9677400D02*
G75*
G02*
X9960000Y-9677400I50000J0D01*
G01*
X9860000Y-10618000D02*
X9960000Y-10718000D01*
X9960000Y-10618000D02*
X9860000Y-10718000D01*
X9960000Y-10668000D02*
G75*
G02*
X9860000Y-10668000I-50000J0D01*
G01*
X9860000Y-10668000D02*
G75*
G02*
X9960000Y-10668000I50000J0D01*
G01*
X10110000Y-9627400D02*
X10210000Y-9727400D01*
X10210000Y-9627400D02*
X10110000Y-9727400D01*
X10210000Y-9677400D02*
G75*
G02*
X10110000Y-9677400I-50000J0D01*
G01*
X10110000Y-9677400D02*
G75*
G02*
X10210000Y-9677400I50000J0D01*
G01*
X10110000Y-10618000D02*
X10210000Y-10718000D01*
X10210000Y-10618000D02*
X10110000Y-10718000D01*
X10210000Y-10668000D02*
G75*
G02*
X10110000Y-10668000I-50000J0D01*
G01*
X10110000Y-10668000D02*
G75*
G02*
X10210000Y-10668000I50000J0D01*
G01*
X10897400Y-9627400D02*
X10997400Y-9727400D01*
X10997400Y-9627400D02*
X10897400Y-9727400D01*
X10997400Y-9677400D02*
G75*
G02*
X10897400Y-9677400I-50000J0D01*
G01*
X10897400Y-9677400D02*
G75*
G02*
X10997400Y-9677400I50000J0D01*
G01*
X11147400Y-9627400D02*
X11247400Y-9727400D01*
X11247400Y-9627400D02*
X11147400Y-9727400D01*
X11247400Y-9677400D02*
G75*
G02*
X11147400Y-9677400I-50000J0D01*
G01*
X11147400Y-9677400D02*
G75*
G02*
X11247400Y-9677400I50000J0D01*
G01*
X12116600Y-7163600D02*
X12216600Y-7263600D01*
X12216600Y-7163600D02*
X12116600Y-7263600D01*
X12216600Y-7213600D02*
G75*
G02*
X12116600Y-7213600I-50000J0D01*
G01*
X12116600Y-7213600D02*
G75*
G02*
X12216600Y-7213600I50000J0D01*
G01*
X12116600Y-8154200D02*
X12216600Y-8254200D01*
X12216600Y-8154200D02*
X12116600Y-8254200D01*
X12216600Y-8204200D02*
G75*
G02*
X12116600Y-8204200I-50000J0D01*
G01*
X12116600Y-8204200D02*
G75*
G02*
X12216600Y-8204200I50000J0D01*
G01*
X12120600Y-8890800D02*
X12220600Y-8990800D01*
X12220600Y-8890800D02*
X12120600Y-8990800D01*
X12220600Y-8940800D02*
G75*
G02*
X12120600Y-8940800I-50000J0D01*
G01*
X12120600Y-8940800D02*
G75*
G02*
X12220600Y-8940800I50000J0D01*
G01*
X12366600Y-7163600D02*
X12466600Y-7263600D01*
X12466600Y-7163600D02*
X12366600Y-7263600D01*
X12466600Y-7213600D02*
G75*
G02*
X12366600Y-7213600I-50000J0D01*
G01*
X12366600Y-7213600D02*
G75*
G02*
X12466600Y-7213600I50000J0D01*
G01*
X12366600Y-8154200D02*
X12466600Y-8254200D01*
X12466600Y-8154200D02*
X12366600Y-8254200D01*
X12466600Y-8204200D02*
G75*
G02*
X12366600Y-8204200I-50000J0D01*
G01*
X12366600Y-8204200D02*
G75*
G02*
X12466600Y-8204200I50000J0D01*
G01*
X12370600Y-8890800D02*
X12470600Y-8990800D01*
X12470600Y-8890800D02*
X12370600Y-8990800D01*
X12470600Y-8940800D02*
G75*
G02*
X12370600Y-8940800I-50000J0D01*
G01*
X12370600Y-8940800D02*
G75*
G02*
X12470600Y-8940800I50000J0D01*
G01*
D12*
X10638400Y-7717400D02*
X10748400Y-7827400D01*
X10748400Y-7717400D02*
X10638400Y-7827400D01*
X10693400Y-7717400D02*
X10693400Y-7827400D01*
X10638400Y-7772400D02*
X10748400Y-7772400D01*
X11654400Y-7717400D02*
X11764400Y-7827400D01*
X11764400Y-7717400D02*
X11654400Y-7827400D01*
X11709400Y-7717400D02*
X11709400Y-7827400D01*
X11654400Y-7772400D02*
X11764400Y-7772400D01*
D13*
X8520200Y-11568200D02*
X8650200Y-11698200D01*
X8650200Y-11568200D02*
X8520200Y-11698200D01*
X8631162Y-11679162D02*
X8631162Y-11587238D01*
X8539238Y-11587238D01*
X8539238Y-11679162D01*
X8631162Y-11679162D01*
X9020200Y-11568200D02*
X9150200Y-11698200D01*
X9150200Y-11568200D02*
X9020200Y-11698200D01*
X9131162Y-11679162D02*
X9131162Y-11587238D01*
X9039238Y-11587238D01*
X9039238Y-11679162D01*
X9131162Y-11679162D01*
X9739400Y-11568200D02*
X9869400Y-11698200D01*
X9869400Y-11568200D02*
X9739400Y-11698200D01*
X9850362Y-11679162D02*
X9850362Y-11587238D01*
X9758438Y-11587238D01*
X9758438Y-11679162D01*
X9850362Y-11679162D01*
X10239400Y-11568200D02*
X10369400Y-11698200D01*
X10369400Y-11568200D02*
X10239400Y-11698200D01*
X10350362Y-11679162D02*
X10350362Y-11587238D01*
X10258438Y-11587238D01*
X10258438Y-11679162D01*
X10350362Y-11679162D01*
D14*
X11190000Y-8302500D02*
X11510000Y-8622500D01*
X11510000Y-8302500D02*
X11190000Y-8622500D01*
X11350000Y-8622500D02*
X11510000Y-8462500D01*
X11350000Y-8302500D01*
X11190000Y-8462500D01*
X11350000Y-8622500D01*
D11*
X5605777Y-12566484D02*
X5605777Y-12366484D01*
X5605777Y-12366484D02*
X5653396Y-12366484D01*
X5653396Y-12366484D02*
X5681967Y-12376008D01*
X5681967Y-12376008D02*
X5701015Y-12395055D01*
X5701015Y-12395055D02*
X5710539Y-12414103D01*
X5710539Y-12414103D02*
X5720062Y-12452198D01*
X5720062Y-12452198D02*
X5720062Y-12480769D01*
X5720062Y-12480769D02*
X5710539Y-12518865D01*
X5710539Y-12518865D02*
X5701015Y-12537912D01*
X5701015Y-12537912D02*
X5681967Y-12556960D01*
X5681967Y-12556960D02*
X5653396Y-12566484D01*
X5653396Y-12566484D02*
X5605777Y-12566484D01*
X5805777Y-12566484D02*
X5805777Y-12433150D01*
X5805777Y-12471246D02*
X5815301Y-12452198D01*
X5815301Y-12452198D02*
X5824824Y-12442674D01*
X5824824Y-12442674D02*
X5843872Y-12433150D01*
X5843872Y-12433150D02*
X5862920Y-12433150D01*
X5929586Y-12566484D02*
X5929586Y-12433150D01*
X5929586Y-12366484D02*
X5920062Y-12376008D01*
X5920062Y-12376008D02*
X5929586Y-12385531D01*
X5929586Y-12385531D02*
X5939110Y-12376008D01*
X5939110Y-12376008D02*
X5929586Y-12366484D01*
X5929586Y-12366484D02*
X5929586Y-12385531D01*
X6053396Y-12566484D02*
X6034348Y-12556960D01*
X6034348Y-12556960D02*
X6024824Y-12537912D01*
X6024824Y-12537912D02*
X6024824Y-12366484D01*
X6158158Y-12566484D02*
X6139110Y-12556960D01*
X6139110Y-12556960D02*
X6129586Y-12537912D01*
X6129586Y-12537912D02*
X6129586Y-12366484D01*
X6386729Y-12566484D02*
X6386729Y-12366484D01*
X6386729Y-12366484D02*
X6453396Y-12509341D01*
X6453396Y-12509341D02*
X6520062Y-12366484D01*
X6520062Y-12366484D02*
X6520062Y-12566484D01*
X6701015Y-12566484D02*
X6701015Y-12461722D01*
X6701015Y-12461722D02*
X6691491Y-12442674D01*
X6691491Y-12442674D02*
X6672443Y-12433150D01*
X6672443Y-12433150D02*
X6634348Y-12433150D01*
X6634348Y-12433150D02*
X6615301Y-12442674D01*
X6701015Y-12556960D02*
X6681967Y-12566484D01*
X6681967Y-12566484D02*
X6634348Y-12566484D01*
X6634348Y-12566484D02*
X6615301Y-12556960D01*
X6615301Y-12556960D02*
X6605777Y-12537912D01*
X6605777Y-12537912D02*
X6605777Y-12518865D01*
X6605777Y-12518865D02*
X6615301Y-12499817D01*
X6615301Y-12499817D02*
X6634348Y-12490293D01*
X6634348Y-12490293D02*
X6681967Y-12490293D01*
X6681967Y-12490293D02*
X6701015Y-12480769D01*
X6796253Y-12433150D02*
X6796253Y-12633150D01*
X6796253Y-12442674D02*
X6815301Y-12433150D01*
X6815301Y-12433150D02*
X6853396Y-12433150D01*
X6853396Y-12433150D02*
X6872443Y-12442674D01*
X6872443Y-12442674D02*
X6881967Y-12452198D01*
X6881967Y-12452198D02*
X6891491Y-12471246D01*
X6891491Y-12471246D02*
X6891491Y-12528388D01*
X6891491Y-12528388D02*
X6881967Y-12547436D01*
X6881967Y-12547436D02*
X6872443Y-12556960D01*
X6872443Y-12556960D02*
X6853396Y-12566484D01*
X6853396Y-12566484D02*
X6815301Y-12566484D01*
X6815301Y-12566484D02*
X6796253Y-12556960D01*
X6977205Y-12547436D02*
X6986729Y-12556960D01*
X6986729Y-12556960D02*
X6977205Y-12566484D01*
X6977205Y-12566484D02*
X6967682Y-12556960D01*
X6967682Y-12556960D02*
X6977205Y-12547436D01*
X6977205Y-12547436D02*
X6977205Y-12566484D01*
X6977205Y-12442674D02*
X6986729Y-12452198D01*
X6986729Y-12452198D02*
X6977205Y-12461722D01*
X6977205Y-12461722D02*
X6967682Y-12452198D01*
X6967682Y-12452198D02*
X6977205Y-12442674D01*
X6977205Y-12442674D02*
X6977205Y-12461722D01*
D10*
X5285000Y-12865000D02*
X5345000Y-12925000D01*
X5345000Y-12865000D02*
X5285000Y-12925000D01*
D11*
X5643872Y-12786484D02*
X5662920Y-12786484D01*
X5662920Y-12786484D02*
X5681967Y-12796008D01*
X5681967Y-12796008D02*
X5691491Y-12805531D01*
X5691491Y-12805531D02*
X5701015Y-12824579D01*
X5701015Y-12824579D02*
X5710539Y-12862674D01*
X5710539Y-12862674D02*
X5710539Y-12910293D01*
X5710539Y-12910293D02*
X5701015Y-12948388D01*
X5701015Y-12948388D02*
X5691491Y-12967436D01*
X5691491Y-12967436D02*
X5681967Y-12976960D01*
X5681967Y-12976960D02*
X5662920Y-12986484D01*
X5662920Y-12986484D02*
X5643872Y-12986484D01*
X5643872Y-12986484D02*
X5624824Y-12976960D01*
X5624824Y-12976960D02*
X5615301Y-12967436D01*
X5615301Y-12967436D02*
X5605777Y-12948388D01*
X5605777Y-12948388D02*
X5596253Y-12910293D01*
X5596253Y-12910293D02*
X5596253Y-12862674D01*
X5596253Y-12862674D02*
X5605777Y-12824579D01*
X5605777Y-12824579D02*
X5615301Y-12805531D01*
X5615301Y-12805531D02*
X5624824Y-12796008D01*
X5624824Y-12796008D02*
X5643872Y-12786484D01*
X5796253Y-12967436D02*
X5805777Y-12976960D01*
X5805777Y-12976960D02*
X5796253Y-12986484D01*
X5796253Y-12986484D02*
X5786729Y-12976960D01*
X5786729Y-12976960D02*
X5796253Y-12967436D01*
X5796253Y-12967436D02*
X5796253Y-12986484D01*
X5977205Y-12786484D02*
X5939110Y-12786484D01*
X5939110Y-12786484D02*
X5920062Y-12796008D01*
X5920062Y-12796008D02*
X5910539Y-12805531D01*
X5910539Y-12805531D02*
X5891491Y-12834103D01*
X5891491Y-12834103D02*
X5881967Y-12872198D01*
X5881967Y-12872198D02*
X5881967Y-12948388D01*
X5881967Y-12948388D02*
X5891491Y-12967436D01*
X5891491Y-12967436D02*
X5901015Y-12976960D01*
X5901015Y-12976960D02*
X5920062Y-12986484D01*
X5920062Y-12986484D02*
X5958158Y-12986484D01*
X5958158Y-12986484D02*
X5977205Y-12976960D01*
X5977205Y-12976960D02*
X5986729Y-12967436D01*
X5986729Y-12967436D02*
X5996253Y-12948388D01*
X5996253Y-12948388D02*
X5996253Y-12900769D01*
X5996253Y-12900769D02*
X5986729Y-12881722D01*
X5986729Y-12881722D02*
X5977205Y-12872198D01*
X5977205Y-12872198D02*
X5958158Y-12862674D01*
X5958158Y-12862674D02*
X5920062Y-12862674D01*
X5920062Y-12862674D02*
X5901015Y-12872198D01*
X5901015Y-12872198D02*
X5891491Y-12881722D01*
X5891491Y-12881722D02*
X5881967Y-12900769D01*
X6120062Y-12786484D02*
X6139110Y-12786484D01*
X6139110Y-12786484D02*
X6158158Y-12796008D01*
X6158158Y-12796008D02*
X6167682Y-12805531D01*
X6167682Y-12805531D02*
X6177205Y-12824579D01*
X6177205Y-12824579D02*
X6186729Y-12862674D01*
X6186729Y-12862674D02*
X6186729Y-12910293D01*
X6186729Y-12910293D02*
X6177205Y-12948388D01*
X6177205Y-12948388D02*
X6167682Y-12967436D01*
X6167682Y-12967436D02*
X6158158Y-12976960D01*
X6158158Y-12976960D02*
X6139110Y-12986484D01*
X6139110Y-12986484D02*
X6120062Y-12986484D01*
X6120062Y-12986484D02*
X6101015Y-12976960D01*
X6101015Y-12976960D02*
X6091491Y-12967436D01*
X6091491Y-12967436D02*
X6081967Y-12948388D01*
X6081967Y-12948388D02*
X6072443Y-12910293D01*
X6072443Y-12910293D02*
X6072443Y-12862674D01*
X6072443Y-12862674D02*
X6081967Y-12824579D01*
X6081967Y-12824579D02*
X6091491Y-12805531D01*
X6091491Y-12805531D02*
X6101015Y-12796008D01*
X6101015Y-12796008D02*
X6120062Y-12786484D01*
X6310539Y-12786484D02*
X6329586Y-12786484D01*
X6329586Y-12786484D02*
X6348634Y-12796008D01*
X6348634Y-12796008D02*
X6358158Y-12805531D01*
X6358158Y-12805531D02*
X6367682Y-12824579D01*
X6367682Y-12824579D02*
X6377205Y-12862674D01*
X6377205Y-12862674D02*
X6377205Y-12910293D01*
X6377205Y-12910293D02*
X6367682Y-12948388D01*
X6367682Y-12948388D02*
X6358158Y-12967436D01*
X6358158Y-12967436D02*
X6348634Y-12976960D01*
X6348634Y-12976960D02*
X6329586Y-12986484D01*
X6329586Y-12986484D02*
X6310539Y-12986484D01*
X6310539Y-12986484D02*
X6291491Y-12976960D01*
X6291491Y-12976960D02*
X6281967Y-12967436D01*
X6281967Y-12967436D02*
X6272443Y-12948388D01*
X6272443Y-12948388D02*
X6262920Y-12910293D01*
X6262920Y-12910293D02*
X6262920Y-12862674D01*
X6262920Y-12862674D02*
X6272443Y-12824579D01*
X6272443Y-12824579D02*
X6281967Y-12805531D01*
X6281967Y-12805531D02*
X6291491Y-12796008D01*
X6291491Y-12796008D02*
X6310539Y-12786484D01*
X6462920Y-12986484D02*
X6462920Y-12853150D01*
X6462920Y-12872198D02*
X6472443Y-12862674D01*
X6472443Y-12862674D02*
X6491491Y-12853150D01*
X6491491Y-12853150D02*
X6520063Y-12853150D01*
X6520063Y-12853150D02*
X6539110Y-12862674D01*
X6539110Y-12862674D02*
X6548634Y-12881722D01*
X6548634Y-12881722D02*
X6548634Y-12986484D01*
X6548634Y-12881722D02*
X6558158Y-12862674D01*
X6558158Y-12862674D02*
X6577205Y-12853150D01*
X6577205Y-12853150D02*
X6605777Y-12853150D01*
X6605777Y-12853150D02*
X6624824Y-12862674D01*
X6624824Y-12862674D02*
X6634348Y-12881722D01*
X6634348Y-12881722D02*
X6634348Y-12986484D01*
X6729586Y-12986484D02*
X6729586Y-12853150D01*
X6729586Y-12872198D02*
X6739110Y-12862674D01*
X6739110Y-12862674D02*
X6758158Y-12853150D01*
X6758158Y-12853150D02*
X6786729Y-12853150D01*
X6786729Y-12853150D02*
X6805777Y-12862674D01*
X6805777Y-12862674D02*
X6815301Y-12881722D01*
X6815301Y-12881722D02*
X6815301Y-12986484D01*
X6815301Y-12881722D02*
X6824824Y-12862674D01*
X6824824Y-12862674D02*
X6843872Y-12853150D01*
X6843872Y-12853150D02*
X6872443Y-12853150D01*
X6872443Y-12853150D02*
X6891491Y-12862674D01*
X6891491Y-12862674D02*
X6901015Y-12881722D01*
X6901015Y-12881722D02*
X6901015Y-12986484D01*
X7291491Y-12776960D02*
X7120063Y-13034103D01*
X7548634Y-12786484D02*
X7567682Y-12786484D01*
X7567682Y-12786484D02*
X7586729Y-12796008D01*
X7586729Y-12796008D02*
X7596253Y-12805531D01*
X7596253Y-12805531D02*
X7605777Y-12824579D01*
X7605777Y-12824579D02*
X7615301Y-12862674D01*
X7615301Y-12862674D02*
X7615301Y-12910293D01*
X7615301Y-12910293D02*
X7605777Y-12948388D01*
X7605777Y-12948388D02*
X7596253Y-12967436D01*
X7596253Y-12967436D02*
X7586729Y-12976960D01*
X7586729Y-12976960D02*
X7567682Y-12986484D01*
X7567682Y-12986484D02*
X7548634Y-12986484D01*
X7548634Y-12986484D02*
X7529586Y-12976960D01*
X7529586Y-12976960D02*
X7520063Y-12967436D01*
X7520063Y-12967436D02*
X7510539Y-12948388D01*
X7510539Y-12948388D02*
X7501015Y-12910293D01*
X7501015Y-12910293D02*
X7501015Y-12862674D01*
X7501015Y-12862674D02*
X7510539Y-12824579D01*
X7510539Y-12824579D02*
X7520063Y-12805531D01*
X7520063Y-12805531D02*
X7529586Y-12796008D01*
X7529586Y-12796008D02*
X7548634Y-12786484D01*
X7701015Y-12967436D02*
X7710539Y-12976960D01*
X7710539Y-12976960D02*
X7701015Y-12986484D01*
X7701015Y-12986484D02*
X7691491Y-12976960D01*
X7691491Y-12976960D02*
X7701015Y-12967436D01*
X7701015Y-12967436D02*
X7701015Y-12986484D01*
X7834348Y-12786484D02*
X7853396Y-12786484D01*
X7853396Y-12786484D02*
X7872444Y-12796008D01*
X7872444Y-12796008D02*
X7881967Y-12805531D01*
X7881967Y-12805531D02*
X7891491Y-12824579D01*
X7891491Y-12824579D02*
X7901015Y-12862674D01*
X7901015Y-12862674D02*
X7901015Y-12910293D01*
X7901015Y-12910293D02*
X7891491Y-12948388D01*
X7891491Y-12948388D02*
X7881967Y-12967436D01*
X7881967Y-12967436D02*
X7872444Y-12976960D01*
X7872444Y-12976960D02*
X7853396Y-12986484D01*
X7853396Y-12986484D02*
X7834348Y-12986484D01*
X7834348Y-12986484D02*
X7815301Y-12976960D01*
X7815301Y-12976960D02*
X7805777Y-12967436D01*
X7805777Y-12967436D02*
X7796253Y-12948388D01*
X7796253Y-12948388D02*
X7786729Y-12910293D01*
X7786729Y-12910293D02*
X7786729Y-12862674D01*
X7786729Y-12862674D02*
X7796253Y-12824579D01*
X7796253Y-12824579D02*
X7805777Y-12805531D01*
X7805777Y-12805531D02*
X7815301Y-12796008D01*
X7815301Y-12796008D02*
X7834348Y-12786484D01*
X7977206Y-12805531D02*
X7986729Y-12796008D01*
X7986729Y-12796008D02*
X8005777Y-12786484D01*
X8005777Y-12786484D02*
X8053396Y-12786484D01*
X8053396Y-12786484D02*
X8072444Y-12796008D01*
X8072444Y-12796008D02*
X8081967Y-12805531D01*
X8081967Y-12805531D02*
X8091491Y-12824579D01*
X8091491Y-12824579D02*
X8091491Y-12843627D01*
X8091491Y-12843627D02*
X8081967Y-12872198D01*
X8081967Y-12872198D02*
X7967682Y-12986484D01*
X7967682Y-12986484D02*
X8091491Y-12986484D01*
X8158158Y-12786484D02*
X8281967Y-12786484D01*
X8281967Y-12786484D02*
X8215301Y-12862674D01*
X8215301Y-12862674D02*
X8243872Y-12862674D01*
X8243872Y-12862674D02*
X8262920Y-12872198D01*
X8262920Y-12872198D02*
X8272444Y-12881722D01*
X8272444Y-12881722D02*
X8281967Y-12900769D01*
X8281967Y-12900769D02*
X8281967Y-12948388D01*
X8281967Y-12948388D02*
X8272444Y-12967436D01*
X8272444Y-12967436D02*
X8262920Y-12976960D01*
X8262920Y-12976960D02*
X8243872Y-12986484D01*
X8243872Y-12986484D02*
X8186729Y-12986484D01*
X8186729Y-12986484D02*
X8167682Y-12976960D01*
X8167682Y-12976960D02*
X8158158Y-12967436D01*
X8453396Y-12786484D02*
X8415301Y-12786484D01*
X8415301Y-12786484D02*
X8396253Y-12796008D01*
X8396253Y-12796008D02*
X8386729Y-12805531D01*
X8386729Y-12805531D02*
X8367682Y-12834103D01*
X8367682Y-12834103D02*
X8358158Y-12872198D01*
X8358158Y-12872198D02*
X8358158Y-12948388D01*
X8358158Y-12948388D02*
X8367682Y-12967436D01*
X8367682Y-12967436D02*
X8377206Y-12976960D01*
X8377206Y-12976960D02*
X8396253Y-12986484D01*
X8396253Y-12986484D02*
X8434349Y-12986484D01*
X8434349Y-12986484D02*
X8453396Y-12976960D01*
X8453396Y-12976960D02*
X8462920Y-12967436D01*
X8462920Y-12967436D02*
X8472444Y-12948388D01*
X8472444Y-12948388D02*
X8472444Y-12900769D01*
X8472444Y-12900769D02*
X8462920Y-12881722D01*
X8462920Y-12881722D02*
X8453396Y-12872198D01*
X8453396Y-12872198D02*
X8434349Y-12862674D01*
X8434349Y-12862674D02*
X8396253Y-12862674D01*
X8396253Y-12862674D02*
X8377206Y-12872198D01*
X8377206Y-12872198D02*
X8367682Y-12881722D01*
X8367682Y-12881722D02*
X8358158Y-12900769D01*
X8548634Y-12786484D02*
X8548634Y-12824579D01*
X8624825Y-12786484D02*
X8624825Y-12824579D01*
X8920063Y-13062674D02*
X8910539Y-13053150D01*
X8910539Y-13053150D02*
X8891491Y-13024579D01*
X8891491Y-13024579D02*
X8881968Y-13005531D01*
X8881968Y-13005531D02*
X8872444Y-12976960D01*
X8872444Y-12976960D02*
X8862920Y-12929341D01*
X8862920Y-12929341D02*
X8862920Y-12891246D01*
X8862920Y-12891246D02*
X8872444Y-12843627D01*
X8872444Y-12843627D02*
X8881968Y-12815055D01*
X8881968Y-12815055D02*
X8891491Y-12796008D01*
X8891491Y-12796008D02*
X8910539Y-12767436D01*
X8910539Y-12767436D02*
X8920063Y-12757912D01*
X8986730Y-12805531D02*
X8996253Y-12796008D01*
X8996253Y-12796008D02*
X9015301Y-12786484D01*
X9015301Y-12786484D02*
X9062920Y-12786484D01*
X9062920Y-12786484D02*
X9081968Y-12796008D01*
X9081968Y-12796008D02*
X9091491Y-12805531D01*
X9091491Y-12805531D02*
X9101015Y-12824579D01*
X9101015Y-12824579D02*
X9101015Y-12843627D01*
X9101015Y-12843627D02*
X9091491Y-12872198D01*
X9091491Y-12872198D02*
X8977206Y-12986484D01*
X8977206Y-12986484D02*
X9101015Y-12986484D01*
X9339111Y-12986484D02*
X9339111Y-12786484D01*
X9424825Y-12986484D02*
X9424825Y-12881722D01*
X9424825Y-12881722D02*
X9415301Y-12862674D01*
X9415301Y-12862674D02*
X9396253Y-12853150D01*
X9396253Y-12853150D02*
X9367682Y-12853150D01*
X9367682Y-12853150D02*
X9348634Y-12862674D01*
X9348634Y-12862674D02*
X9339111Y-12872198D01*
X9548634Y-12986484D02*
X9529587Y-12976960D01*
X9529587Y-12976960D02*
X9520063Y-12967436D01*
X9520063Y-12967436D02*
X9510539Y-12948388D01*
X9510539Y-12948388D02*
X9510539Y-12891246D01*
X9510539Y-12891246D02*
X9520063Y-12872198D01*
X9520063Y-12872198D02*
X9529587Y-12862674D01*
X9529587Y-12862674D02*
X9548634Y-12853150D01*
X9548634Y-12853150D02*
X9577206Y-12853150D01*
X9577206Y-12853150D02*
X9596253Y-12862674D01*
X9596253Y-12862674D02*
X9605777Y-12872198D01*
X9605777Y-12872198D02*
X9615301Y-12891246D01*
X9615301Y-12891246D02*
X9615301Y-12948388D01*
X9615301Y-12948388D02*
X9605777Y-12967436D01*
X9605777Y-12967436D02*
X9596253Y-12976960D01*
X9596253Y-12976960D02*
X9577206Y-12986484D01*
X9577206Y-12986484D02*
X9548634Y-12986484D01*
X9729587Y-12986484D02*
X9710539Y-12976960D01*
X9710539Y-12976960D02*
X9701015Y-12957912D01*
X9701015Y-12957912D02*
X9701015Y-12786484D01*
X9881968Y-12976960D02*
X9862920Y-12986484D01*
X9862920Y-12986484D02*
X9824825Y-12986484D01*
X9824825Y-12986484D02*
X9805777Y-12976960D01*
X9805777Y-12976960D02*
X9796253Y-12957912D01*
X9796253Y-12957912D02*
X9796253Y-12881722D01*
X9796253Y-12881722D02*
X9805777Y-12862674D01*
X9805777Y-12862674D02*
X9824825Y-12853150D01*
X9824825Y-12853150D02*
X9862920Y-12853150D01*
X9862920Y-12853150D02*
X9881968Y-12862674D01*
X9881968Y-12862674D02*
X9891492Y-12881722D01*
X9891492Y-12881722D02*
X9891492Y-12900769D01*
X9891492Y-12900769D02*
X9796253Y-12919817D01*
X9967682Y-12976960D02*
X9986730Y-12986484D01*
X9986730Y-12986484D02*
X10024825Y-12986484D01*
X10024825Y-12986484D02*
X10043873Y-12976960D01*
X10043873Y-12976960D02*
X10053396Y-12957912D01*
X10053396Y-12957912D02*
X10053396Y-12948388D01*
X10053396Y-12948388D02*
X10043873Y-12929341D01*
X10043873Y-12929341D02*
X10024825Y-12919817D01*
X10024825Y-12919817D02*
X9996253Y-12919817D01*
X9996253Y-12919817D02*
X9977206Y-12910293D01*
X9977206Y-12910293D02*
X9967682Y-12891246D01*
X9967682Y-12891246D02*
X9967682Y-12881722D01*
X9967682Y-12881722D02*
X9977206Y-12862674D01*
X9977206Y-12862674D02*
X9996253Y-12853150D01*
X9996253Y-12853150D02*
X10024825Y-12853150D01*
X10024825Y-12853150D02*
X10043873Y-12862674D01*
X10120063Y-13062674D02*
X10129587Y-13053150D01*
X10129587Y-13053150D02*
X10148634Y-13024579D01*
X10148634Y-13024579D02*
X10158158Y-13005531D01*
X10158158Y-13005531D02*
X10167682Y-12976960D01*
X10167682Y-12976960D02*
X10177206Y-12929341D01*
X10177206Y-12929341D02*
X10177206Y-12891246D01*
X10177206Y-12891246D02*
X10167682Y-12843627D01*
X10167682Y-12843627D02*
X10158158Y-12815055D01*
X10158158Y-12815055D02*
X10148634Y-12796008D01*
X10148634Y-12796008D02*
X10129587Y-12767436D01*
X10129587Y-12767436D02*
X10120063Y-12757912D01*
D10*
X5345000Y-13159000D02*
G75*
G02*
X5270000Y-13159000I-37500J0D01*
G01*
X5270000Y-13159000D02*
G75*
G02*
X5345000Y-13159000I37500J0D01*
G01*
D11*
X5643872Y-13050484D02*
X5662920Y-13050484D01*
X5662920Y-13050484D02*
X5681967Y-13060008D01*
X5681967Y-13060008D02*
X5691491Y-13069531D01*
X5691491Y-13069531D02*
X5701015Y-13088579D01*
X5701015Y-13088579D02*
X5710539Y-13126674D01*
X5710539Y-13126674D02*
X5710539Y-13174293D01*
X5710539Y-13174293D02*
X5701015Y-13212388D01*
X5701015Y-13212388D02*
X5691491Y-13231436D01*
X5691491Y-13231436D02*
X5681967Y-13240960D01*
X5681967Y-13240960D02*
X5662920Y-13250484D01*
X5662920Y-13250484D02*
X5643872Y-13250484D01*
X5643872Y-13250484D02*
X5624824Y-13240960D01*
X5624824Y-13240960D02*
X5615301Y-13231436D01*
X5615301Y-13231436D02*
X5605777Y-13212388D01*
X5605777Y-13212388D02*
X5596253Y-13174293D01*
X5596253Y-13174293D02*
X5596253Y-13126674D01*
X5596253Y-13126674D02*
X5605777Y-13088579D01*
X5605777Y-13088579D02*
X5615301Y-13069531D01*
X5615301Y-13069531D02*
X5624824Y-13060008D01*
X5624824Y-13060008D02*
X5643872Y-13050484D01*
X5796253Y-13231436D02*
X5805777Y-13240960D01*
X5805777Y-13240960D02*
X5796253Y-13250484D01*
X5796253Y-13250484D02*
X5786729Y-13240960D01*
X5786729Y-13240960D02*
X5796253Y-13231436D01*
X5796253Y-13231436D02*
X5796253Y-13250484D01*
X5872443Y-13050484D02*
X6005777Y-13050484D01*
X6005777Y-13050484D02*
X5920062Y-13250484D01*
X6177205Y-13050484D02*
X6081967Y-13050484D01*
X6081967Y-13050484D02*
X6072443Y-13145722D01*
X6072443Y-13145722D02*
X6081967Y-13136198D01*
X6081967Y-13136198D02*
X6101015Y-13126674D01*
X6101015Y-13126674D02*
X6148634Y-13126674D01*
X6148634Y-13126674D02*
X6167682Y-13136198D01*
X6167682Y-13136198D02*
X6177205Y-13145722D01*
X6177205Y-13145722D02*
X6186729Y-13164769D01*
X6186729Y-13164769D02*
X6186729Y-13212388D01*
X6186729Y-13212388D02*
X6177205Y-13231436D01*
X6177205Y-13231436D02*
X6167682Y-13240960D01*
X6167682Y-13240960D02*
X6148634Y-13250484D01*
X6148634Y-13250484D02*
X6101015Y-13250484D01*
X6101015Y-13250484D02*
X6081967Y-13240960D01*
X6081967Y-13240960D02*
X6072443Y-13231436D01*
X6310539Y-13050484D02*
X6329586Y-13050484D01*
X6329586Y-13050484D02*
X6348634Y-13060008D01*
X6348634Y-13060008D02*
X6358158Y-13069531D01*
X6358158Y-13069531D02*
X6367682Y-13088579D01*
X6367682Y-13088579D02*
X6377205Y-13126674D01*
X6377205Y-13126674D02*
X6377205Y-13174293D01*
X6377205Y-13174293D02*
X6367682Y-13212388D01*
X6367682Y-13212388D02*
X6358158Y-13231436D01*
X6358158Y-13231436D02*
X6348634Y-13240960D01*
X6348634Y-13240960D02*
X6329586Y-13250484D01*
X6329586Y-13250484D02*
X6310539Y-13250484D01*
X6310539Y-13250484D02*
X6291491Y-13240960D01*
X6291491Y-13240960D02*
X6281967Y-13231436D01*
X6281967Y-13231436D02*
X6272443Y-13212388D01*
X6272443Y-13212388D02*
X6262920Y-13174293D01*
X6262920Y-13174293D02*
X6262920Y-13126674D01*
X6262920Y-13126674D02*
X6272443Y-13088579D01*
X6272443Y-13088579D02*
X6281967Y-13069531D01*
X6281967Y-13069531D02*
X6291491Y-13060008D01*
X6291491Y-13060008D02*
X6310539Y-13050484D01*
X6462920Y-13250484D02*
X6462920Y-13117150D01*
X6462920Y-13136198D02*
X6472443Y-13126674D01*
X6472443Y-13126674D02*
X6491491Y-13117150D01*
X6491491Y-13117150D02*
X6520063Y-13117150D01*
X6520063Y-13117150D02*
X6539110Y-13126674D01*
X6539110Y-13126674D02*
X6548634Y-13145722D01*
X6548634Y-13145722D02*
X6548634Y-13250484D01*
X6548634Y-13145722D02*
X6558158Y-13126674D01*
X6558158Y-13126674D02*
X6577205Y-13117150D01*
X6577205Y-13117150D02*
X6605777Y-13117150D01*
X6605777Y-13117150D02*
X6624824Y-13126674D01*
X6624824Y-13126674D02*
X6634348Y-13145722D01*
X6634348Y-13145722D02*
X6634348Y-13250484D01*
X6729586Y-13250484D02*
X6729586Y-13117150D01*
X6729586Y-13136198D02*
X6739110Y-13126674D01*
X6739110Y-13126674D02*
X6758158Y-13117150D01*
X6758158Y-13117150D02*
X6786729Y-13117150D01*
X6786729Y-13117150D02*
X6805777Y-13126674D01*
X6805777Y-13126674D02*
X6815301Y-13145722D01*
X6815301Y-13145722D02*
X6815301Y-13250484D01*
X6815301Y-13145722D02*
X6824824Y-13126674D01*
X6824824Y-13126674D02*
X6843872Y-13117150D01*
X6843872Y-13117150D02*
X6872443Y-13117150D01*
X6872443Y-13117150D02*
X6891491Y-13126674D01*
X6891491Y-13126674D02*
X6901015Y-13145722D01*
X6901015Y-13145722D02*
X6901015Y-13250484D01*
X7291491Y-13040960D02*
X7120063Y-13298103D01*
X7548634Y-13050484D02*
X7567682Y-13050484D01*
X7567682Y-13050484D02*
X7586729Y-13060008D01*
X7586729Y-13060008D02*
X7596253Y-13069531D01*
X7596253Y-13069531D02*
X7605777Y-13088579D01*
X7605777Y-13088579D02*
X7615301Y-13126674D01*
X7615301Y-13126674D02*
X7615301Y-13174293D01*
X7615301Y-13174293D02*
X7605777Y-13212388D01*
X7605777Y-13212388D02*
X7596253Y-13231436D01*
X7596253Y-13231436D02*
X7586729Y-13240960D01*
X7586729Y-13240960D02*
X7567682Y-13250484D01*
X7567682Y-13250484D02*
X7548634Y-13250484D01*
X7548634Y-13250484D02*
X7529586Y-13240960D01*
X7529586Y-13240960D02*
X7520063Y-13231436D01*
X7520063Y-13231436D02*
X7510539Y-13212388D01*
X7510539Y-13212388D02*
X7501015Y-13174293D01*
X7501015Y-13174293D02*
X7501015Y-13126674D01*
X7501015Y-13126674D02*
X7510539Y-13088579D01*
X7510539Y-13088579D02*
X7520063Y-13069531D01*
X7520063Y-13069531D02*
X7529586Y-13060008D01*
X7529586Y-13060008D02*
X7548634Y-13050484D01*
X7701015Y-13231436D02*
X7710539Y-13240960D01*
X7710539Y-13240960D02*
X7701015Y-13250484D01*
X7701015Y-13250484D02*
X7691491Y-13240960D01*
X7691491Y-13240960D02*
X7701015Y-13231436D01*
X7701015Y-13231436D02*
X7701015Y-13250484D01*
X7834348Y-13050484D02*
X7853396Y-13050484D01*
X7853396Y-13050484D02*
X7872444Y-13060008D01*
X7872444Y-13060008D02*
X7881967Y-13069531D01*
X7881967Y-13069531D02*
X7891491Y-13088579D01*
X7891491Y-13088579D02*
X7901015Y-13126674D01*
X7901015Y-13126674D02*
X7901015Y-13174293D01*
X7901015Y-13174293D02*
X7891491Y-13212388D01*
X7891491Y-13212388D02*
X7881967Y-13231436D01*
X7881967Y-13231436D02*
X7872444Y-13240960D01*
X7872444Y-13240960D02*
X7853396Y-13250484D01*
X7853396Y-13250484D02*
X7834348Y-13250484D01*
X7834348Y-13250484D02*
X7815301Y-13240960D01*
X7815301Y-13240960D02*
X7805777Y-13231436D01*
X7805777Y-13231436D02*
X7796253Y-13212388D01*
X7796253Y-13212388D02*
X7786729Y-13174293D01*
X7786729Y-13174293D02*
X7786729Y-13126674D01*
X7786729Y-13126674D02*
X7796253Y-13088579D01*
X7796253Y-13088579D02*
X7805777Y-13069531D01*
X7805777Y-13069531D02*
X7815301Y-13060008D01*
X7815301Y-13060008D02*
X7834348Y-13050484D01*
X7977206Y-13069531D02*
X7986729Y-13060008D01*
X7986729Y-13060008D02*
X8005777Y-13050484D01*
X8005777Y-13050484D02*
X8053396Y-13050484D01*
X8053396Y-13050484D02*
X8072444Y-13060008D01*
X8072444Y-13060008D02*
X8081967Y-13069531D01*
X8081967Y-13069531D02*
X8091491Y-13088579D01*
X8091491Y-13088579D02*
X8091491Y-13107627D01*
X8091491Y-13107627D02*
X8081967Y-13136198D01*
X8081967Y-13136198D02*
X7967682Y-13250484D01*
X7967682Y-13250484D02*
X8091491Y-13250484D01*
X8186729Y-13250484D02*
X8224825Y-13250484D01*
X8224825Y-13250484D02*
X8243872Y-13240960D01*
X8243872Y-13240960D02*
X8253396Y-13231436D01*
X8253396Y-13231436D02*
X8272444Y-13202865D01*
X8272444Y-13202865D02*
X8281967Y-13164769D01*
X8281967Y-13164769D02*
X8281967Y-13088579D01*
X8281967Y-13088579D02*
X8272444Y-13069531D01*
X8272444Y-13069531D02*
X8262920Y-13060008D01*
X8262920Y-13060008D02*
X8243872Y-13050484D01*
X8243872Y-13050484D02*
X8205777Y-13050484D01*
X8205777Y-13050484D02*
X8186729Y-13060008D01*
X8186729Y-13060008D02*
X8177206Y-13069531D01*
X8177206Y-13069531D02*
X8167682Y-13088579D01*
X8167682Y-13088579D02*
X8167682Y-13136198D01*
X8167682Y-13136198D02*
X8177206Y-13155246D01*
X8177206Y-13155246D02*
X8186729Y-13164769D01*
X8186729Y-13164769D02*
X8205777Y-13174293D01*
X8205777Y-13174293D02*
X8243872Y-13174293D01*
X8243872Y-13174293D02*
X8262920Y-13164769D01*
X8262920Y-13164769D02*
X8272444Y-13155246D01*
X8272444Y-13155246D02*
X8281967Y-13136198D01*
X8462920Y-13050484D02*
X8367682Y-13050484D01*
X8367682Y-13050484D02*
X8358158Y-13145722D01*
X8358158Y-13145722D02*
X8367682Y-13136198D01*
X8367682Y-13136198D02*
X8386729Y-13126674D01*
X8386729Y-13126674D02*
X8434349Y-13126674D01*
X8434349Y-13126674D02*
X8453396Y-13136198D01*
X8453396Y-13136198D02*
X8462920Y-13145722D01*
X8462920Y-13145722D02*
X8472444Y-13164769D01*
X8472444Y-13164769D02*
X8472444Y-13212388D01*
X8472444Y-13212388D02*
X8462920Y-13231436D01*
X8462920Y-13231436D02*
X8453396Y-13240960D01*
X8453396Y-13240960D02*
X8434349Y-13250484D01*
X8434349Y-13250484D02*
X8386729Y-13250484D01*
X8386729Y-13250484D02*
X8367682Y-13240960D01*
X8367682Y-13240960D02*
X8358158Y-13231436D01*
X8548634Y-13050484D02*
X8548634Y-13088579D01*
X8624825Y-13050484D02*
X8624825Y-13088579D01*
X8920063Y-13326674D02*
X8910539Y-13317150D01*
X8910539Y-13317150D02*
X8891491Y-13288579D01*
X8891491Y-13288579D02*
X8881968Y-13269531D01*
X8881968Y-13269531D02*
X8872444Y-13240960D01*
X8872444Y-13240960D02*
X8862920Y-13193341D01*
X8862920Y-13193341D02*
X8862920Y-13155246D01*
X8862920Y-13155246D02*
X8872444Y-13107627D01*
X8872444Y-13107627D02*
X8881968Y-13079055D01*
X8881968Y-13079055D02*
X8891491Y-13060008D01*
X8891491Y-13060008D02*
X8910539Y-13031436D01*
X8910539Y-13031436D02*
X8920063Y-13021912D01*
X8977206Y-13050484D02*
X9101015Y-13050484D01*
X9101015Y-13050484D02*
X9034349Y-13126674D01*
X9034349Y-13126674D02*
X9062920Y-13126674D01*
X9062920Y-13126674D02*
X9081968Y-13136198D01*
X9081968Y-13136198D02*
X9091491Y-13145722D01*
X9091491Y-13145722D02*
X9101015Y-13164769D01*
X9101015Y-13164769D02*
X9101015Y-13212388D01*
X9101015Y-13212388D02*
X9091491Y-13231436D01*
X9091491Y-13231436D02*
X9081968Y-13240960D01*
X9081968Y-13240960D02*
X9062920Y-13250484D01*
X9062920Y-13250484D02*
X9005777Y-13250484D01*
X9005777Y-13250484D02*
X8986730Y-13240960D01*
X8986730Y-13240960D02*
X8977206Y-13231436D01*
X9339111Y-13250484D02*
X9339111Y-13050484D01*
X9424825Y-13250484D02*
X9424825Y-13145722D01*
X9424825Y-13145722D02*
X9415301Y-13126674D01*
X9415301Y-13126674D02*
X9396253Y-13117150D01*
X9396253Y-13117150D02*
X9367682Y-13117150D01*
X9367682Y-13117150D02*
X9348634Y-13126674D01*
X9348634Y-13126674D02*
X9339111Y-13136198D01*
X9548634Y-13250484D02*
X9529587Y-13240960D01*
X9529587Y-13240960D02*
X9520063Y-13231436D01*
X9520063Y-13231436D02*
X9510539Y-13212388D01*
X9510539Y-13212388D02*
X9510539Y-13155246D01*
X9510539Y-13155246D02*
X9520063Y-13136198D01*
X9520063Y-13136198D02*
X9529587Y-13126674D01*
X9529587Y-13126674D02*
X9548634Y-13117150D01*
X9548634Y-13117150D02*
X9577206Y-13117150D01*
X9577206Y-13117150D02*
X9596253Y-13126674D01*
X9596253Y-13126674D02*
X9605777Y-13136198D01*
X9605777Y-13136198D02*
X9615301Y-13155246D01*
X9615301Y-13155246D02*
X9615301Y-13212388D01*
X9615301Y-13212388D02*
X9605777Y-13231436D01*
X9605777Y-13231436D02*
X9596253Y-13240960D01*
X9596253Y-13240960D02*
X9577206Y-13250484D01*
X9577206Y-13250484D02*
X9548634Y-13250484D01*
X9729587Y-13250484D02*
X9710539Y-13240960D01*
X9710539Y-13240960D02*
X9701015Y-13221912D01*
X9701015Y-13221912D02*
X9701015Y-13050484D01*
X9881968Y-13240960D02*
X9862920Y-13250484D01*
X9862920Y-13250484D02*
X9824825Y-13250484D01*
X9824825Y-13250484D02*
X9805777Y-13240960D01*
X9805777Y-13240960D02*
X9796253Y-13221912D01*
X9796253Y-13221912D02*
X9796253Y-13145722D01*
X9796253Y-13145722D02*
X9805777Y-13126674D01*
X9805777Y-13126674D02*
X9824825Y-13117150D01*
X9824825Y-13117150D02*
X9862920Y-13117150D01*
X9862920Y-13117150D02*
X9881968Y-13126674D01*
X9881968Y-13126674D02*
X9891492Y-13145722D01*
X9891492Y-13145722D02*
X9891492Y-13164769D01*
X9891492Y-13164769D02*
X9796253Y-13183817D01*
X9967682Y-13240960D02*
X9986730Y-13250484D01*
X9986730Y-13250484D02*
X10024825Y-13250484D01*
X10024825Y-13250484D02*
X10043873Y-13240960D01*
X10043873Y-13240960D02*
X10053396Y-13221912D01*
X10053396Y-13221912D02*
X10053396Y-13212388D01*
X10053396Y-13212388D02*
X10043873Y-13193341D01*
X10043873Y-13193341D02*
X10024825Y-13183817D01*
X10024825Y-13183817D02*
X9996253Y-13183817D01*
X9996253Y-13183817D02*
X9977206Y-13174293D01*
X9977206Y-13174293D02*
X9967682Y-13155246D01*
X9967682Y-13155246D02*
X9967682Y-13145722D01*
X9967682Y-13145722D02*
X9977206Y-13126674D01*
X9977206Y-13126674D02*
X9996253Y-13117150D01*
X9996253Y-13117150D02*
X10024825Y-13117150D01*
X10024825Y-13117150D02*
X10043873Y-13126674D01*
X10120063Y-13326674D02*
X10129587Y-13317150D01*
X10129587Y-13317150D02*
X10148634Y-13288579D01*
X10148634Y-13288579D02*
X10158158Y-13269531D01*
X10158158Y-13269531D02*
X10167682Y-13240960D01*
X10167682Y-13240960D02*
X10177206Y-13193341D01*
X10177206Y-13193341D02*
X10177206Y-13155246D01*
X10177206Y-13155246D02*
X10167682Y-13107627D01*
X10167682Y-13107627D02*
X10158158Y-13079055D01*
X10158158Y-13079055D02*
X10148634Y-13060008D01*
X10148634Y-13060008D02*
X10129587Y-13031436D01*
X10129587Y-13031436D02*
X10120063Y-13021912D01*
D10*
X5306900Y-13384900D02*
X5306900Y-13461100D01*
X5268800Y-13423000D02*
X5345000Y-13423000D01*
D11*
X5643872Y-13314484D02*
X5662920Y-13314484D01*
X5662920Y-13314484D02*
X5681967Y-13324008D01*
X5681967Y-13324008D02*
X5691491Y-13333531D01*
X5691491Y-13333531D02*
X5701015Y-13352579D01*
X5701015Y-13352579D02*
X5710539Y-13390674D01*
X5710539Y-13390674D02*
X5710539Y-13438293D01*
X5710539Y-13438293D02*
X5701015Y-13476388D01*
X5701015Y-13476388D02*
X5691491Y-13495436D01*
X5691491Y-13495436D02*
X5681967Y-13504960D01*
X5681967Y-13504960D02*
X5662920Y-13514484D01*
X5662920Y-13514484D02*
X5643872Y-13514484D01*
X5643872Y-13514484D02*
X5624824Y-13504960D01*
X5624824Y-13504960D02*
X5615301Y-13495436D01*
X5615301Y-13495436D02*
X5605777Y-13476388D01*
X5605777Y-13476388D02*
X5596253Y-13438293D01*
X5596253Y-13438293D02*
X5596253Y-13390674D01*
X5596253Y-13390674D02*
X5605777Y-13352579D01*
X5605777Y-13352579D02*
X5615301Y-13333531D01*
X5615301Y-13333531D02*
X5624824Y-13324008D01*
X5624824Y-13324008D02*
X5643872Y-13314484D01*
X5796253Y-13495436D02*
X5805777Y-13504960D01*
X5805777Y-13504960D02*
X5796253Y-13514484D01*
X5796253Y-13514484D02*
X5786729Y-13504960D01*
X5786729Y-13504960D02*
X5796253Y-13495436D01*
X5796253Y-13495436D02*
X5796253Y-13514484D01*
X5872443Y-13314484D02*
X6005777Y-13314484D01*
X6005777Y-13314484D02*
X5920062Y-13514484D01*
X6167682Y-13314484D02*
X6129586Y-13314484D01*
X6129586Y-13314484D02*
X6110539Y-13324008D01*
X6110539Y-13324008D02*
X6101015Y-13333531D01*
X6101015Y-13333531D02*
X6081967Y-13362103D01*
X6081967Y-13362103D02*
X6072443Y-13400198D01*
X6072443Y-13400198D02*
X6072443Y-13476388D01*
X6072443Y-13476388D02*
X6081967Y-13495436D01*
X6081967Y-13495436D02*
X6091491Y-13504960D01*
X6091491Y-13504960D02*
X6110539Y-13514484D01*
X6110539Y-13514484D02*
X6148634Y-13514484D01*
X6148634Y-13514484D02*
X6167682Y-13504960D01*
X6167682Y-13504960D02*
X6177205Y-13495436D01*
X6177205Y-13495436D02*
X6186729Y-13476388D01*
X6186729Y-13476388D02*
X6186729Y-13428769D01*
X6186729Y-13428769D02*
X6177205Y-13409722D01*
X6177205Y-13409722D02*
X6167682Y-13400198D01*
X6167682Y-13400198D02*
X6148634Y-13390674D01*
X6148634Y-13390674D02*
X6110539Y-13390674D01*
X6110539Y-13390674D02*
X6091491Y-13400198D01*
X6091491Y-13400198D02*
X6081967Y-13409722D01*
X6081967Y-13409722D02*
X6072443Y-13428769D01*
X6262920Y-13333531D02*
X6272443Y-13324008D01*
X6272443Y-13324008D02*
X6291491Y-13314484D01*
X6291491Y-13314484D02*
X6339110Y-13314484D01*
X6339110Y-13314484D02*
X6358158Y-13324008D01*
X6358158Y-13324008D02*
X6367682Y-13333531D01*
X6367682Y-13333531D02*
X6377205Y-13352579D01*
X6377205Y-13352579D02*
X6377205Y-13371627D01*
X6377205Y-13371627D02*
X6367682Y-13400198D01*
X6367682Y-13400198D02*
X6253396Y-13514484D01*
X6253396Y-13514484D02*
X6377205Y-13514484D01*
X6462920Y-13514484D02*
X6462920Y-13381150D01*
X6462920Y-13400198D02*
X6472443Y-13390674D01*
X6472443Y-13390674D02*
X6491491Y-13381150D01*
X6491491Y-13381150D02*
X6520063Y-13381150D01*
X6520063Y-13381150D02*
X6539110Y-13390674D01*
X6539110Y-13390674D02*
X6548634Y-13409722D01*
X6548634Y-13409722D02*
X6548634Y-13514484D01*
X6548634Y-13409722D02*
X6558158Y-13390674D01*
X6558158Y-13390674D02*
X6577205Y-13381150D01*
X6577205Y-13381150D02*
X6605777Y-13381150D01*
X6605777Y-13381150D02*
X6624824Y-13390674D01*
X6624824Y-13390674D02*
X6634348Y-13409722D01*
X6634348Y-13409722D02*
X6634348Y-13514484D01*
X6729586Y-13514484D02*
X6729586Y-13381150D01*
X6729586Y-13400198D02*
X6739110Y-13390674D01*
X6739110Y-13390674D02*
X6758158Y-13381150D01*
X6758158Y-13381150D02*
X6786729Y-13381150D01*
X6786729Y-13381150D02*
X6805777Y-13390674D01*
X6805777Y-13390674D02*
X6815301Y-13409722D01*
X6815301Y-13409722D02*
X6815301Y-13514484D01*
X6815301Y-13409722D02*
X6824824Y-13390674D01*
X6824824Y-13390674D02*
X6843872Y-13381150D01*
X6843872Y-13381150D02*
X6872443Y-13381150D01*
X6872443Y-13381150D02*
X6891491Y-13390674D01*
X6891491Y-13390674D02*
X6901015Y-13409722D01*
X6901015Y-13409722D02*
X6901015Y-13514484D01*
X7291491Y-13304960D02*
X7120063Y-13562103D01*
X7548634Y-13314484D02*
X7567682Y-13314484D01*
X7567682Y-13314484D02*
X7586729Y-13324008D01*
X7586729Y-13324008D02*
X7596253Y-13333531D01*
X7596253Y-13333531D02*
X7605777Y-13352579D01*
X7605777Y-13352579D02*
X7615301Y-13390674D01*
X7615301Y-13390674D02*
X7615301Y-13438293D01*
X7615301Y-13438293D02*
X7605777Y-13476388D01*
X7605777Y-13476388D02*
X7596253Y-13495436D01*
X7596253Y-13495436D02*
X7586729Y-13504960D01*
X7586729Y-13504960D02*
X7567682Y-13514484D01*
X7567682Y-13514484D02*
X7548634Y-13514484D01*
X7548634Y-13514484D02*
X7529586Y-13504960D01*
X7529586Y-13504960D02*
X7520063Y-13495436D01*
X7520063Y-13495436D02*
X7510539Y-13476388D01*
X7510539Y-13476388D02*
X7501015Y-13438293D01*
X7501015Y-13438293D02*
X7501015Y-13390674D01*
X7501015Y-13390674D02*
X7510539Y-13352579D01*
X7510539Y-13352579D02*
X7520063Y-13333531D01*
X7520063Y-13333531D02*
X7529586Y-13324008D01*
X7529586Y-13324008D02*
X7548634Y-13314484D01*
X7701015Y-13495436D02*
X7710539Y-13504960D01*
X7710539Y-13504960D02*
X7701015Y-13514484D01*
X7701015Y-13514484D02*
X7691491Y-13504960D01*
X7691491Y-13504960D02*
X7701015Y-13495436D01*
X7701015Y-13495436D02*
X7701015Y-13514484D01*
X7834348Y-13314484D02*
X7853396Y-13314484D01*
X7853396Y-13314484D02*
X7872444Y-13324008D01*
X7872444Y-13324008D02*
X7881967Y-13333531D01*
X7881967Y-13333531D02*
X7891491Y-13352579D01*
X7891491Y-13352579D02*
X7901015Y-13390674D01*
X7901015Y-13390674D02*
X7901015Y-13438293D01*
X7901015Y-13438293D02*
X7891491Y-13476388D01*
X7891491Y-13476388D02*
X7881967Y-13495436D01*
X7881967Y-13495436D02*
X7872444Y-13504960D01*
X7872444Y-13504960D02*
X7853396Y-13514484D01*
X7853396Y-13514484D02*
X7834348Y-13514484D01*
X7834348Y-13514484D02*
X7815301Y-13504960D01*
X7815301Y-13504960D02*
X7805777Y-13495436D01*
X7805777Y-13495436D02*
X7796253Y-13476388D01*
X7796253Y-13476388D02*
X7786729Y-13438293D01*
X7786729Y-13438293D02*
X7786729Y-13390674D01*
X7786729Y-13390674D02*
X7796253Y-13352579D01*
X7796253Y-13352579D02*
X7805777Y-13333531D01*
X7805777Y-13333531D02*
X7815301Y-13324008D01*
X7815301Y-13324008D02*
X7834348Y-13314484D01*
X7967682Y-13314484D02*
X8091491Y-13314484D01*
X8091491Y-13314484D02*
X8024825Y-13390674D01*
X8024825Y-13390674D02*
X8053396Y-13390674D01*
X8053396Y-13390674D02*
X8072444Y-13400198D01*
X8072444Y-13400198D02*
X8081967Y-13409722D01*
X8081967Y-13409722D02*
X8091491Y-13428769D01*
X8091491Y-13428769D02*
X8091491Y-13476388D01*
X8091491Y-13476388D02*
X8081967Y-13495436D01*
X8081967Y-13495436D02*
X8072444Y-13504960D01*
X8072444Y-13504960D02*
X8053396Y-13514484D01*
X8053396Y-13514484D02*
X7996253Y-13514484D01*
X7996253Y-13514484D02*
X7977206Y-13504960D01*
X7977206Y-13504960D02*
X7967682Y-13495436D01*
X8215301Y-13314484D02*
X8234348Y-13314484D01*
X8234348Y-13314484D02*
X8253396Y-13324008D01*
X8253396Y-13324008D02*
X8262920Y-13333531D01*
X8262920Y-13333531D02*
X8272444Y-13352579D01*
X8272444Y-13352579D02*
X8281967Y-13390674D01*
X8281967Y-13390674D02*
X8281967Y-13438293D01*
X8281967Y-13438293D02*
X8272444Y-13476388D01*
X8272444Y-13476388D02*
X8262920Y-13495436D01*
X8262920Y-13495436D02*
X8253396Y-13504960D01*
X8253396Y-13504960D02*
X8234348Y-13514484D01*
X8234348Y-13514484D02*
X8215301Y-13514484D01*
X8215301Y-13514484D02*
X8196253Y-13504960D01*
X8196253Y-13504960D02*
X8186729Y-13495436D01*
X8186729Y-13495436D02*
X8177206Y-13476388D01*
X8177206Y-13476388D02*
X8167682Y-13438293D01*
X8167682Y-13438293D02*
X8167682Y-13390674D01*
X8167682Y-13390674D02*
X8177206Y-13352579D01*
X8177206Y-13352579D02*
X8186729Y-13333531D01*
X8186729Y-13333531D02*
X8196253Y-13324008D01*
X8196253Y-13324008D02*
X8215301Y-13314484D01*
X8405777Y-13314484D02*
X8424825Y-13314484D01*
X8424825Y-13314484D02*
X8443872Y-13324008D01*
X8443872Y-13324008D02*
X8453396Y-13333531D01*
X8453396Y-13333531D02*
X8462920Y-13352579D01*
X8462920Y-13352579D02*
X8472444Y-13390674D01*
X8472444Y-13390674D02*
X8472444Y-13438293D01*
X8472444Y-13438293D02*
X8462920Y-13476388D01*
X8462920Y-13476388D02*
X8453396Y-13495436D01*
X8453396Y-13495436D02*
X8443872Y-13504960D01*
X8443872Y-13504960D02*
X8424825Y-13514484D01*
X8424825Y-13514484D02*
X8405777Y-13514484D01*
X8405777Y-13514484D02*
X8386729Y-13504960D01*
X8386729Y-13504960D02*
X8377206Y-13495436D01*
X8377206Y-13495436D02*
X8367682Y-13476388D01*
X8367682Y-13476388D02*
X8358158Y-13438293D01*
X8358158Y-13438293D02*
X8358158Y-13390674D01*
X8358158Y-13390674D02*
X8367682Y-13352579D01*
X8367682Y-13352579D02*
X8377206Y-13333531D01*
X8377206Y-13333531D02*
X8386729Y-13324008D01*
X8386729Y-13324008D02*
X8405777Y-13314484D01*
X8548634Y-13314484D02*
X8548634Y-13352579D01*
X8624825Y-13314484D02*
X8624825Y-13352579D01*
X8920063Y-13590674D02*
X8910539Y-13581150D01*
X8910539Y-13581150D02*
X8891491Y-13552579D01*
X8891491Y-13552579D02*
X8881968Y-13533531D01*
X8881968Y-13533531D02*
X8872444Y-13504960D01*
X8872444Y-13504960D02*
X8862920Y-13457341D01*
X8862920Y-13457341D02*
X8862920Y-13419246D01*
X8862920Y-13419246D02*
X8872444Y-13371627D01*
X8872444Y-13371627D02*
X8881968Y-13343055D01*
X8881968Y-13343055D02*
X8891491Y-13324008D01*
X8891491Y-13324008D02*
X8910539Y-13295436D01*
X8910539Y-13295436D02*
X8920063Y-13285912D01*
X9101015Y-13514484D02*
X8986730Y-13514484D01*
X9043872Y-13514484D02*
X9043872Y-13314484D01*
X9043872Y-13314484D02*
X9024825Y-13343055D01*
X9024825Y-13343055D02*
X9005777Y-13362103D01*
X9005777Y-13362103D02*
X8986730Y-13371627D01*
X9215301Y-13400198D02*
X9196253Y-13390674D01*
X9196253Y-13390674D02*
X9186730Y-13381150D01*
X9186730Y-13381150D02*
X9177206Y-13362103D01*
X9177206Y-13362103D02*
X9177206Y-13352579D01*
X9177206Y-13352579D02*
X9186730Y-13333531D01*
X9186730Y-13333531D02*
X9196253Y-13324008D01*
X9196253Y-13324008D02*
X9215301Y-13314484D01*
X9215301Y-13314484D02*
X9253396Y-13314484D01*
X9253396Y-13314484D02*
X9272444Y-13324008D01*
X9272444Y-13324008D02*
X9281968Y-13333531D01*
X9281968Y-13333531D02*
X9291491Y-13352579D01*
X9291491Y-13352579D02*
X9291491Y-13362103D01*
X9291491Y-13362103D02*
X9281968Y-13381150D01*
X9281968Y-13381150D02*
X9272444Y-13390674D01*
X9272444Y-13390674D02*
X9253396Y-13400198D01*
X9253396Y-13400198D02*
X9215301Y-13400198D01*
X9215301Y-13400198D02*
X9196253Y-13409722D01*
X9196253Y-13409722D02*
X9186730Y-13419246D01*
X9186730Y-13419246D02*
X9177206Y-13438293D01*
X9177206Y-13438293D02*
X9177206Y-13476388D01*
X9177206Y-13476388D02*
X9186730Y-13495436D01*
X9186730Y-13495436D02*
X9196253Y-13504960D01*
X9196253Y-13504960D02*
X9215301Y-13514484D01*
X9215301Y-13514484D02*
X9253396Y-13514484D01*
X9253396Y-13514484D02*
X9272444Y-13504960D01*
X9272444Y-13504960D02*
X9281968Y-13495436D01*
X9281968Y-13495436D02*
X9291491Y-13476388D01*
X9291491Y-13476388D02*
X9291491Y-13438293D01*
X9291491Y-13438293D02*
X9281968Y-13419246D01*
X9281968Y-13419246D02*
X9272444Y-13409722D01*
X9272444Y-13409722D02*
X9253396Y-13400198D01*
X9529587Y-13514484D02*
X9529587Y-13314484D01*
X9615301Y-13514484D02*
X9615301Y-13409722D01*
X9615301Y-13409722D02*
X9605777Y-13390674D01*
X9605777Y-13390674D02*
X9586730Y-13381150D01*
X9586730Y-13381150D02*
X9558158Y-13381150D01*
X9558158Y-13381150D02*
X9539111Y-13390674D01*
X9539111Y-13390674D02*
X9529587Y-13400198D01*
X9739111Y-13514484D02*
X9720063Y-13504960D01*
X9720063Y-13504960D02*
X9710539Y-13495436D01*
X9710539Y-13495436D02*
X9701015Y-13476388D01*
X9701015Y-13476388D02*
X9701015Y-13419246D01*
X9701015Y-13419246D02*
X9710539Y-13400198D01*
X9710539Y-13400198D02*
X9720063Y-13390674D01*
X9720063Y-13390674D02*
X9739111Y-13381150D01*
X9739111Y-13381150D02*
X9767682Y-13381150D01*
X9767682Y-13381150D02*
X9786730Y-13390674D01*
X9786730Y-13390674D02*
X9796253Y-13400198D01*
X9796253Y-13400198D02*
X9805777Y-13419246D01*
X9805777Y-13419246D02*
X9805777Y-13476388D01*
X9805777Y-13476388D02*
X9796253Y-13495436D01*
X9796253Y-13495436D02*
X9786730Y-13504960D01*
X9786730Y-13504960D02*
X9767682Y-13514484D01*
X9767682Y-13514484D02*
X9739111Y-13514484D01*
X9920063Y-13514484D02*
X9901015Y-13504960D01*
X9901015Y-13504960D02*
X9891492Y-13485912D01*
X9891492Y-13485912D02*
X9891492Y-13314484D01*
X10072444Y-13504960D02*
X10053396Y-13514484D01*
X10053396Y-13514484D02*
X10015301Y-13514484D01*
X10015301Y-13514484D02*
X9996253Y-13504960D01*
X9996253Y-13504960D02*
X9986730Y-13485912D01*
X9986730Y-13485912D02*
X9986730Y-13409722D01*
X9986730Y-13409722D02*
X9996253Y-13390674D01*
X9996253Y-13390674D02*
X10015301Y-13381150D01*
X10015301Y-13381150D02*
X10053396Y-13381150D01*
X10053396Y-13381150D02*
X10072444Y-13390674D01*
X10072444Y-13390674D02*
X10081968Y-13409722D01*
X10081968Y-13409722D02*
X10081968Y-13428769D01*
X10081968Y-13428769D02*
X9986730Y-13447817D01*
X10158158Y-13504960D02*
X10177206Y-13514484D01*
X10177206Y-13514484D02*
X10215301Y-13514484D01*
X10215301Y-13514484D02*
X10234349Y-13504960D01*
X10234349Y-13504960D02*
X10243873Y-13485912D01*
X10243873Y-13485912D02*
X10243873Y-13476388D01*
X10243873Y-13476388D02*
X10234349Y-13457341D01*
X10234349Y-13457341D02*
X10215301Y-13447817D01*
X10215301Y-13447817D02*
X10186730Y-13447817D01*
X10186730Y-13447817D02*
X10167682Y-13438293D01*
X10167682Y-13438293D02*
X10158158Y-13419246D01*
X10158158Y-13419246D02*
X10158158Y-13409722D01*
X10158158Y-13409722D02*
X10167682Y-13390674D01*
X10167682Y-13390674D02*
X10186730Y-13381150D01*
X10186730Y-13381150D02*
X10215301Y-13381150D01*
X10215301Y-13381150D02*
X10234349Y-13390674D01*
X10310539Y-13590674D02*
X10320063Y-13581150D01*
X10320063Y-13581150D02*
X10339111Y-13552579D01*
X10339111Y-13552579D02*
X10348634Y-13533531D01*
X10348634Y-13533531D02*
X10358158Y-13504960D01*
X10358158Y-13504960D02*
X10367682Y-13457341D01*
X10367682Y-13457341D02*
X10367682Y-13419246D01*
X10367682Y-13419246D02*
X10358158Y-13371627D01*
X10358158Y-13371627D02*
X10348634Y-13343055D01*
X10348634Y-13343055D02*
X10339111Y-13324008D01*
X10339111Y-13324008D02*
X10320063Y-13295436D01*
X10320063Y-13295436D02*
X10310539Y-13285912D01*
D10*
X5333285Y-13715284D02*
X5333285Y-13658715D01*
X5276716Y-13658715D01*
X5276716Y-13715284D01*
X5333285Y-13715284D01*
D11*
X5643872Y-13578484D02*
X5662920Y-13578484D01*
X5662920Y-13578484D02*
X5681967Y-13588008D01*
X5681967Y-13588008D02*
X5691491Y-13597531D01*
X5691491Y-13597531D02*
X5701015Y-13616579D01*
X5701015Y-13616579D02*
X5710539Y-13654674D01*
X5710539Y-13654674D02*
X5710539Y-13702293D01*
X5710539Y-13702293D02*
X5701015Y-13740388D01*
X5701015Y-13740388D02*
X5691491Y-13759436D01*
X5691491Y-13759436D02*
X5681967Y-13768960D01*
X5681967Y-13768960D02*
X5662920Y-13778484D01*
X5662920Y-13778484D02*
X5643872Y-13778484D01*
X5643872Y-13778484D02*
X5624824Y-13768960D01*
X5624824Y-13768960D02*
X5615301Y-13759436D01*
X5615301Y-13759436D02*
X5605777Y-13740388D01*
X5605777Y-13740388D02*
X5596253Y-13702293D01*
X5596253Y-13702293D02*
X5596253Y-13654674D01*
X5596253Y-13654674D02*
X5605777Y-13616579D01*
X5605777Y-13616579D02*
X5615301Y-13597531D01*
X5615301Y-13597531D02*
X5624824Y-13588008D01*
X5624824Y-13588008D02*
X5643872Y-13578484D01*
X5796253Y-13759436D02*
X5805777Y-13768960D01*
X5805777Y-13768960D02*
X5796253Y-13778484D01*
X5796253Y-13778484D02*
X5786729Y-13768960D01*
X5786729Y-13768960D02*
X5796253Y-13759436D01*
X5796253Y-13759436D02*
X5796253Y-13778484D01*
X5920062Y-13664198D02*
X5901015Y-13654674D01*
X5901015Y-13654674D02*
X5891491Y-13645150D01*
X5891491Y-13645150D02*
X5881967Y-13626103D01*
X5881967Y-13626103D02*
X5881967Y-13616579D01*
X5881967Y-13616579D02*
X5891491Y-13597531D01*
X5891491Y-13597531D02*
X5901015Y-13588008D01*
X5901015Y-13588008D02*
X5920062Y-13578484D01*
X5920062Y-13578484D02*
X5958158Y-13578484D01*
X5958158Y-13578484D02*
X5977205Y-13588008D01*
X5977205Y-13588008D02*
X5986729Y-13597531D01*
X5986729Y-13597531D02*
X5996253Y-13616579D01*
X5996253Y-13616579D02*
X5996253Y-13626103D01*
X5996253Y-13626103D02*
X5986729Y-13645150D01*
X5986729Y-13645150D02*
X5977205Y-13654674D01*
X5977205Y-13654674D02*
X5958158Y-13664198D01*
X5958158Y-13664198D02*
X5920062Y-13664198D01*
X5920062Y-13664198D02*
X5901015Y-13673722D01*
X5901015Y-13673722D02*
X5891491Y-13683246D01*
X5891491Y-13683246D02*
X5881967Y-13702293D01*
X5881967Y-13702293D02*
X5881967Y-13740388D01*
X5881967Y-13740388D02*
X5891491Y-13759436D01*
X5891491Y-13759436D02*
X5901015Y-13768960D01*
X5901015Y-13768960D02*
X5920062Y-13778484D01*
X5920062Y-13778484D02*
X5958158Y-13778484D01*
X5958158Y-13778484D02*
X5977205Y-13768960D01*
X5977205Y-13768960D02*
X5986729Y-13759436D01*
X5986729Y-13759436D02*
X5996253Y-13740388D01*
X5996253Y-13740388D02*
X5996253Y-13702293D01*
X5996253Y-13702293D02*
X5986729Y-13683246D01*
X5986729Y-13683246D02*
X5977205Y-13673722D01*
X5977205Y-13673722D02*
X5958158Y-13664198D01*
X6120062Y-13578484D02*
X6139110Y-13578484D01*
X6139110Y-13578484D02*
X6158158Y-13588008D01*
X6158158Y-13588008D02*
X6167682Y-13597531D01*
X6167682Y-13597531D02*
X6177205Y-13616579D01*
X6177205Y-13616579D02*
X6186729Y-13654674D01*
X6186729Y-13654674D02*
X6186729Y-13702293D01*
X6186729Y-13702293D02*
X6177205Y-13740388D01*
X6177205Y-13740388D02*
X6167682Y-13759436D01*
X6167682Y-13759436D02*
X6158158Y-13768960D01*
X6158158Y-13768960D02*
X6139110Y-13778484D01*
X6139110Y-13778484D02*
X6120062Y-13778484D01*
X6120062Y-13778484D02*
X6101015Y-13768960D01*
X6101015Y-13768960D02*
X6091491Y-13759436D01*
X6091491Y-13759436D02*
X6081967Y-13740388D01*
X6081967Y-13740388D02*
X6072443Y-13702293D01*
X6072443Y-13702293D02*
X6072443Y-13654674D01*
X6072443Y-13654674D02*
X6081967Y-13616579D01*
X6081967Y-13616579D02*
X6091491Y-13597531D01*
X6091491Y-13597531D02*
X6101015Y-13588008D01*
X6101015Y-13588008D02*
X6120062Y-13578484D01*
X6310539Y-13578484D02*
X6329586Y-13578484D01*
X6329586Y-13578484D02*
X6348634Y-13588008D01*
X6348634Y-13588008D02*
X6358158Y-13597531D01*
X6358158Y-13597531D02*
X6367682Y-13616579D01*
X6367682Y-13616579D02*
X6377205Y-13654674D01*
X6377205Y-13654674D02*
X6377205Y-13702293D01*
X6377205Y-13702293D02*
X6367682Y-13740388D01*
X6367682Y-13740388D02*
X6358158Y-13759436D01*
X6358158Y-13759436D02*
X6348634Y-13768960D01*
X6348634Y-13768960D02*
X6329586Y-13778484D01*
X6329586Y-13778484D02*
X6310539Y-13778484D01*
X6310539Y-13778484D02*
X6291491Y-13768960D01*
X6291491Y-13768960D02*
X6281967Y-13759436D01*
X6281967Y-13759436D02*
X6272443Y-13740388D01*
X6272443Y-13740388D02*
X6262920Y-13702293D01*
X6262920Y-13702293D02*
X6262920Y-13654674D01*
X6262920Y-13654674D02*
X6272443Y-13616579D01*
X6272443Y-13616579D02*
X6281967Y-13597531D01*
X6281967Y-13597531D02*
X6291491Y-13588008D01*
X6291491Y-13588008D02*
X6310539Y-13578484D01*
X6462920Y-13778484D02*
X6462920Y-13645150D01*
X6462920Y-13664198D02*
X6472443Y-13654674D01*
X6472443Y-13654674D02*
X6491491Y-13645150D01*
X6491491Y-13645150D02*
X6520063Y-13645150D01*
X6520063Y-13645150D02*
X6539110Y-13654674D01*
X6539110Y-13654674D02*
X6548634Y-13673722D01*
X6548634Y-13673722D02*
X6548634Y-13778484D01*
X6548634Y-13673722D02*
X6558158Y-13654674D01*
X6558158Y-13654674D02*
X6577205Y-13645150D01*
X6577205Y-13645150D02*
X6605777Y-13645150D01*
X6605777Y-13645150D02*
X6624824Y-13654674D01*
X6624824Y-13654674D02*
X6634348Y-13673722D01*
X6634348Y-13673722D02*
X6634348Y-13778484D01*
X6729586Y-13778484D02*
X6729586Y-13645150D01*
X6729586Y-13664198D02*
X6739110Y-13654674D01*
X6739110Y-13654674D02*
X6758158Y-13645150D01*
X6758158Y-13645150D02*
X6786729Y-13645150D01*
X6786729Y-13645150D02*
X6805777Y-13654674D01*
X6805777Y-13654674D02*
X6815301Y-13673722D01*
X6815301Y-13673722D02*
X6815301Y-13778484D01*
X6815301Y-13673722D02*
X6824824Y-13654674D01*
X6824824Y-13654674D02*
X6843872Y-13645150D01*
X6843872Y-13645150D02*
X6872443Y-13645150D01*
X6872443Y-13645150D02*
X6891491Y-13654674D01*
X6891491Y-13654674D02*
X6901015Y-13673722D01*
X6901015Y-13673722D02*
X6901015Y-13778484D01*
X7291491Y-13568960D02*
X7120063Y-13826103D01*
X7548634Y-13578484D02*
X7567682Y-13578484D01*
X7567682Y-13578484D02*
X7586729Y-13588008D01*
X7586729Y-13588008D02*
X7596253Y-13597531D01*
X7596253Y-13597531D02*
X7605777Y-13616579D01*
X7605777Y-13616579D02*
X7615301Y-13654674D01*
X7615301Y-13654674D02*
X7615301Y-13702293D01*
X7615301Y-13702293D02*
X7605777Y-13740388D01*
X7605777Y-13740388D02*
X7596253Y-13759436D01*
X7596253Y-13759436D02*
X7586729Y-13768960D01*
X7586729Y-13768960D02*
X7567682Y-13778484D01*
X7567682Y-13778484D02*
X7548634Y-13778484D01*
X7548634Y-13778484D02*
X7529586Y-13768960D01*
X7529586Y-13768960D02*
X7520063Y-13759436D01*
X7520063Y-13759436D02*
X7510539Y-13740388D01*
X7510539Y-13740388D02*
X7501015Y-13702293D01*
X7501015Y-13702293D02*
X7501015Y-13654674D01*
X7501015Y-13654674D02*
X7510539Y-13616579D01*
X7510539Y-13616579D02*
X7520063Y-13597531D01*
X7520063Y-13597531D02*
X7529586Y-13588008D01*
X7529586Y-13588008D02*
X7548634Y-13578484D01*
X7701015Y-13759436D02*
X7710539Y-13768960D01*
X7710539Y-13768960D02*
X7701015Y-13778484D01*
X7701015Y-13778484D02*
X7691491Y-13768960D01*
X7691491Y-13768960D02*
X7701015Y-13759436D01*
X7701015Y-13759436D02*
X7701015Y-13778484D01*
X7834348Y-13578484D02*
X7853396Y-13578484D01*
X7853396Y-13578484D02*
X7872444Y-13588008D01*
X7872444Y-13588008D02*
X7881967Y-13597531D01*
X7881967Y-13597531D02*
X7891491Y-13616579D01*
X7891491Y-13616579D02*
X7901015Y-13654674D01*
X7901015Y-13654674D02*
X7901015Y-13702293D01*
X7901015Y-13702293D02*
X7891491Y-13740388D01*
X7891491Y-13740388D02*
X7881967Y-13759436D01*
X7881967Y-13759436D02*
X7872444Y-13768960D01*
X7872444Y-13768960D02*
X7853396Y-13778484D01*
X7853396Y-13778484D02*
X7834348Y-13778484D01*
X7834348Y-13778484D02*
X7815301Y-13768960D01*
X7815301Y-13768960D02*
X7805777Y-13759436D01*
X7805777Y-13759436D02*
X7796253Y-13740388D01*
X7796253Y-13740388D02*
X7786729Y-13702293D01*
X7786729Y-13702293D02*
X7786729Y-13654674D01*
X7786729Y-13654674D02*
X7796253Y-13616579D01*
X7796253Y-13616579D02*
X7805777Y-13597531D01*
X7805777Y-13597531D02*
X7815301Y-13588008D01*
X7815301Y-13588008D02*
X7834348Y-13578484D01*
X7967682Y-13578484D02*
X8091491Y-13578484D01*
X8091491Y-13578484D02*
X8024825Y-13654674D01*
X8024825Y-13654674D02*
X8053396Y-13654674D01*
X8053396Y-13654674D02*
X8072444Y-13664198D01*
X8072444Y-13664198D02*
X8081967Y-13673722D01*
X8081967Y-13673722D02*
X8091491Y-13692769D01*
X8091491Y-13692769D02*
X8091491Y-13740388D01*
X8091491Y-13740388D02*
X8081967Y-13759436D01*
X8081967Y-13759436D02*
X8072444Y-13768960D01*
X8072444Y-13768960D02*
X8053396Y-13778484D01*
X8053396Y-13778484D02*
X7996253Y-13778484D01*
X7996253Y-13778484D02*
X7977206Y-13768960D01*
X7977206Y-13768960D02*
X7967682Y-13759436D01*
X8281967Y-13778484D02*
X8167682Y-13778484D01*
X8224825Y-13778484D02*
X8224825Y-13578484D01*
X8224825Y-13578484D02*
X8205777Y-13607055D01*
X8205777Y-13607055D02*
X8186729Y-13626103D01*
X8186729Y-13626103D02*
X8167682Y-13635627D01*
X8462920Y-13578484D02*
X8367682Y-13578484D01*
X8367682Y-13578484D02*
X8358158Y-13673722D01*
X8358158Y-13673722D02*
X8367682Y-13664198D01*
X8367682Y-13664198D02*
X8386729Y-13654674D01*
X8386729Y-13654674D02*
X8434349Y-13654674D01*
X8434349Y-13654674D02*
X8453396Y-13664198D01*
X8453396Y-13664198D02*
X8462920Y-13673722D01*
X8462920Y-13673722D02*
X8472444Y-13692769D01*
X8472444Y-13692769D02*
X8472444Y-13740388D01*
X8472444Y-13740388D02*
X8462920Y-13759436D01*
X8462920Y-13759436D02*
X8453396Y-13768960D01*
X8453396Y-13768960D02*
X8434349Y-13778484D01*
X8434349Y-13778484D02*
X8386729Y-13778484D01*
X8386729Y-13778484D02*
X8367682Y-13768960D01*
X8367682Y-13768960D02*
X8358158Y-13759436D01*
X8548634Y-13578484D02*
X8548634Y-13616579D01*
X8624825Y-13578484D02*
X8624825Y-13616579D01*
X8920063Y-13854674D02*
X8910539Y-13845150D01*
X8910539Y-13845150D02*
X8891491Y-13816579D01*
X8891491Y-13816579D02*
X8881968Y-13797531D01*
X8881968Y-13797531D02*
X8872444Y-13768960D01*
X8872444Y-13768960D02*
X8862920Y-13721341D01*
X8862920Y-13721341D02*
X8862920Y-13683246D01*
X8862920Y-13683246D02*
X8872444Y-13635627D01*
X8872444Y-13635627D02*
X8881968Y-13607055D01*
X8881968Y-13607055D02*
X8891491Y-13588008D01*
X8891491Y-13588008D02*
X8910539Y-13559436D01*
X8910539Y-13559436D02*
X8920063Y-13549912D01*
X8986730Y-13597531D02*
X8996253Y-13588008D01*
X8996253Y-13588008D02*
X9015301Y-13578484D01*
X9015301Y-13578484D02*
X9062920Y-13578484D01*
X9062920Y-13578484D02*
X9081968Y-13588008D01*
X9081968Y-13588008D02*
X9091491Y-13597531D01*
X9091491Y-13597531D02*
X9101015Y-13616579D01*
X9101015Y-13616579D02*
X9101015Y-13635627D01*
X9101015Y-13635627D02*
X9091491Y-13664198D01*
X9091491Y-13664198D02*
X8977206Y-13778484D01*
X8977206Y-13778484D02*
X9101015Y-13778484D01*
X9272444Y-13578484D02*
X9234349Y-13578484D01*
X9234349Y-13578484D02*
X9215301Y-13588008D01*
X9215301Y-13588008D02*
X9205777Y-13597531D01*
X9205777Y-13597531D02*
X9186730Y-13626103D01*
X9186730Y-13626103D02*
X9177206Y-13664198D01*
X9177206Y-13664198D02*
X9177206Y-13740388D01*
X9177206Y-13740388D02*
X9186730Y-13759436D01*
X9186730Y-13759436D02*
X9196253Y-13768960D01*
X9196253Y-13768960D02*
X9215301Y-13778484D01*
X9215301Y-13778484D02*
X9253396Y-13778484D01*
X9253396Y-13778484D02*
X9272444Y-13768960D01*
X9272444Y-13768960D02*
X9281968Y-13759436D01*
X9281968Y-13759436D02*
X9291491Y-13740388D01*
X9291491Y-13740388D02*
X9291491Y-13692769D01*
X9291491Y-13692769D02*
X9281968Y-13673722D01*
X9281968Y-13673722D02*
X9272444Y-13664198D01*
X9272444Y-13664198D02*
X9253396Y-13654674D01*
X9253396Y-13654674D02*
X9215301Y-13654674D01*
X9215301Y-13654674D02*
X9196253Y-13664198D01*
X9196253Y-13664198D02*
X9186730Y-13673722D01*
X9186730Y-13673722D02*
X9177206Y-13692769D01*
X9529587Y-13778484D02*
X9529587Y-13578484D01*
X9615301Y-13778484D02*
X9615301Y-13673722D01*
X9615301Y-13673722D02*
X9605777Y-13654674D01*
X9605777Y-13654674D02*
X9586730Y-13645150D01*
X9586730Y-13645150D02*
X9558158Y-13645150D01*
X9558158Y-13645150D02*
X9539111Y-13654674D01*
X9539111Y-13654674D02*
X9529587Y-13664198D01*
X9739111Y-13778484D02*
X9720063Y-13768960D01*
X9720063Y-13768960D02*
X9710539Y-13759436D01*
X9710539Y-13759436D02*
X9701015Y-13740388D01*
X9701015Y-13740388D02*
X9701015Y-13683246D01*
X9701015Y-13683246D02*
X9710539Y-13664198D01*
X9710539Y-13664198D02*
X9720063Y-13654674D01*
X9720063Y-13654674D02*
X9739111Y-13645150D01*
X9739111Y-13645150D02*
X9767682Y-13645150D01*
X9767682Y-13645150D02*
X9786730Y-13654674D01*
X9786730Y-13654674D02*
X9796253Y-13664198D01*
X9796253Y-13664198D02*
X9805777Y-13683246D01*
X9805777Y-13683246D02*
X9805777Y-13740388D01*
X9805777Y-13740388D02*
X9796253Y-13759436D01*
X9796253Y-13759436D02*
X9786730Y-13768960D01*
X9786730Y-13768960D02*
X9767682Y-13778484D01*
X9767682Y-13778484D02*
X9739111Y-13778484D01*
X9920063Y-13778484D02*
X9901015Y-13768960D01*
X9901015Y-13768960D02*
X9891492Y-13749912D01*
X9891492Y-13749912D02*
X9891492Y-13578484D01*
X10072444Y-13768960D02*
X10053396Y-13778484D01*
X10053396Y-13778484D02*
X10015301Y-13778484D01*
X10015301Y-13778484D02*
X9996253Y-13768960D01*
X9996253Y-13768960D02*
X9986730Y-13749912D01*
X9986730Y-13749912D02*
X9986730Y-13673722D01*
X9986730Y-13673722D02*
X9996253Y-13654674D01*
X9996253Y-13654674D02*
X10015301Y-13645150D01*
X10015301Y-13645150D02*
X10053396Y-13645150D01*
X10053396Y-13645150D02*
X10072444Y-13654674D01*
X10072444Y-13654674D02*
X10081968Y-13673722D01*
X10081968Y-13673722D02*
X10081968Y-13692769D01*
X10081968Y-13692769D02*
X9986730Y-13711817D01*
X10158158Y-13768960D02*
X10177206Y-13778484D01*
X10177206Y-13778484D02*
X10215301Y-13778484D01*
X10215301Y-13778484D02*
X10234349Y-13768960D01*
X10234349Y-13768960D02*
X10243873Y-13749912D01*
X10243873Y-13749912D02*
X10243873Y-13740388D01*
X10243873Y-13740388D02*
X10234349Y-13721341D01*
X10234349Y-13721341D02*
X10215301Y-13711817D01*
X10215301Y-13711817D02*
X10186730Y-13711817D01*
X10186730Y-13711817D02*
X10167682Y-13702293D01*
X10167682Y-13702293D02*
X10158158Y-13683246D01*
X10158158Y-13683246D02*
X10158158Y-13673722D01*
X10158158Y-13673722D02*
X10167682Y-13654674D01*
X10167682Y-13654674D02*
X10186730Y-13645150D01*
X10186730Y-13645150D02*
X10215301Y-13645150D01*
X10215301Y-13645150D02*
X10234349Y-13654674D01*
X10310539Y-13854674D02*
X10320063Y-13845150D01*
X10320063Y-13845150D02*
X10339111Y-13816579D01*
X10339111Y-13816579D02*
X10348634Y-13797531D01*
X10348634Y-13797531D02*
X10358158Y-13768960D01*
X10358158Y-13768960D02*
X10367682Y-13721341D01*
X10367682Y-13721341D02*
X10367682Y-13683246D01*
X10367682Y-13683246D02*
X10358158Y-13635627D01*
X10358158Y-13635627D02*
X10348634Y-13607055D01*
X10348634Y-13607055D02*
X10339111Y-13588008D01*
X10339111Y-13588008D02*
X10320063Y-13559436D01*
X10320063Y-13559436D02*
X10310539Y-13549912D01*
D10*
X5297500Y-13998500D02*
X5345000Y-13951000D01*
X5297500Y-13903500D01*
X5250000Y-13951000D01*
X5297500Y-13998500D01*
D11*
X5643872Y-13842484D02*
X5662920Y-13842484D01*
X5662920Y-13842484D02*
X5681967Y-13852008D01*
X5681967Y-13852008D02*
X5691491Y-13861531D01*
X5691491Y-13861531D02*
X5701015Y-13880579D01*
X5701015Y-13880579D02*
X5710539Y-13918674D01*
X5710539Y-13918674D02*
X5710539Y-13966293D01*
X5710539Y-13966293D02*
X5701015Y-14004388D01*
X5701015Y-14004388D02*
X5691491Y-14023436D01*
X5691491Y-14023436D02*
X5681967Y-14032960D01*
X5681967Y-14032960D02*
X5662920Y-14042484D01*
X5662920Y-14042484D02*
X5643872Y-14042484D01*
X5643872Y-14042484D02*
X5624824Y-14032960D01*
X5624824Y-14032960D02*
X5615301Y-14023436D01*
X5615301Y-14023436D02*
X5605777Y-14004388D01*
X5605777Y-14004388D02*
X5596253Y-13966293D01*
X5596253Y-13966293D02*
X5596253Y-13918674D01*
X5596253Y-13918674D02*
X5605777Y-13880579D01*
X5605777Y-13880579D02*
X5615301Y-13861531D01*
X5615301Y-13861531D02*
X5624824Y-13852008D01*
X5624824Y-13852008D02*
X5643872Y-13842484D01*
X5796253Y-14023436D02*
X5805777Y-14032960D01*
X5805777Y-14032960D02*
X5796253Y-14042484D01*
X5796253Y-14042484D02*
X5786729Y-14032960D01*
X5786729Y-14032960D02*
X5796253Y-14023436D01*
X5796253Y-14023436D02*
X5796253Y-14042484D01*
X5901015Y-14042484D02*
X5939110Y-14042484D01*
X5939110Y-14042484D02*
X5958158Y-14032960D01*
X5958158Y-14032960D02*
X5967682Y-14023436D01*
X5967682Y-14023436D02*
X5986729Y-13994865D01*
X5986729Y-13994865D02*
X5996253Y-13956769D01*
X5996253Y-13956769D02*
X5996253Y-13880579D01*
X5996253Y-13880579D02*
X5986729Y-13861531D01*
X5986729Y-13861531D02*
X5977205Y-13852008D01*
X5977205Y-13852008D02*
X5958158Y-13842484D01*
X5958158Y-13842484D02*
X5920062Y-13842484D01*
X5920062Y-13842484D02*
X5901015Y-13852008D01*
X5901015Y-13852008D02*
X5891491Y-13861531D01*
X5891491Y-13861531D02*
X5881967Y-13880579D01*
X5881967Y-13880579D02*
X5881967Y-13928198D01*
X5881967Y-13928198D02*
X5891491Y-13947246D01*
X5891491Y-13947246D02*
X5901015Y-13956769D01*
X5901015Y-13956769D02*
X5920062Y-13966293D01*
X5920062Y-13966293D02*
X5958158Y-13966293D01*
X5958158Y-13966293D02*
X5977205Y-13956769D01*
X5977205Y-13956769D02*
X5986729Y-13947246D01*
X5986729Y-13947246D02*
X5996253Y-13928198D01*
X6177205Y-13842484D02*
X6081967Y-13842484D01*
X6081967Y-13842484D02*
X6072443Y-13937722D01*
X6072443Y-13937722D02*
X6081967Y-13928198D01*
X6081967Y-13928198D02*
X6101015Y-13918674D01*
X6101015Y-13918674D02*
X6148634Y-13918674D01*
X6148634Y-13918674D02*
X6167682Y-13928198D01*
X6167682Y-13928198D02*
X6177205Y-13937722D01*
X6177205Y-13937722D02*
X6186729Y-13956769D01*
X6186729Y-13956769D02*
X6186729Y-14004388D01*
X6186729Y-14004388D02*
X6177205Y-14023436D01*
X6177205Y-14023436D02*
X6167682Y-14032960D01*
X6167682Y-14032960D02*
X6148634Y-14042484D01*
X6148634Y-14042484D02*
X6101015Y-14042484D01*
X6101015Y-14042484D02*
X6081967Y-14032960D01*
X6081967Y-14032960D02*
X6072443Y-14023436D01*
X6310539Y-13842484D02*
X6329586Y-13842484D01*
X6329586Y-13842484D02*
X6348634Y-13852008D01*
X6348634Y-13852008D02*
X6358158Y-13861531D01*
X6358158Y-13861531D02*
X6367682Y-13880579D01*
X6367682Y-13880579D02*
X6377205Y-13918674D01*
X6377205Y-13918674D02*
X6377205Y-13966293D01*
X6377205Y-13966293D02*
X6367682Y-14004388D01*
X6367682Y-14004388D02*
X6358158Y-14023436D01*
X6358158Y-14023436D02*
X6348634Y-14032960D01*
X6348634Y-14032960D02*
X6329586Y-14042484D01*
X6329586Y-14042484D02*
X6310539Y-14042484D01*
X6310539Y-14042484D02*
X6291491Y-14032960D01*
X6291491Y-14032960D02*
X6281967Y-14023436D01*
X6281967Y-14023436D02*
X6272443Y-14004388D01*
X6272443Y-14004388D02*
X6262920Y-13966293D01*
X6262920Y-13966293D02*
X6262920Y-13918674D01*
X6262920Y-13918674D02*
X6272443Y-13880579D01*
X6272443Y-13880579D02*
X6281967Y-13861531D01*
X6281967Y-13861531D02*
X6291491Y-13852008D01*
X6291491Y-13852008D02*
X6310539Y-13842484D01*
X6462920Y-14042484D02*
X6462920Y-13909150D01*
X6462920Y-13928198D02*
X6472443Y-13918674D01*
X6472443Y-13918674D02*
X6491491Y-13909150D01*
X6491491Y-13909150D02*
X6520063Y-13909150D01*
X6520063Y-13909150D02*
X6539110Y-13918674D01*
X6539110Y-13918674D02*
X6548634Y-13937722D01*
X6548634Y-13937722D02*
X6548634Y-14042484D01*
X6548634Y-13937722D02*
X6558158Y-13918674D01*
X6558158Y-13918674D02*
X6577205Y-13909150D01*
X6577205Y-13909150D02*
X6605777Y-13909150D01*
X6605777Y-13909150D02*
X6624824Y-13918674D01*
X6624824Y-13918674D02*
X6634348Y-13937722D01*
X6634348Y-13937722D02*
X6634348Y-14042484D01*
X6729586Y-14042484D02*
X6729586Y-13909150D01*
X6729586Y-13928198D02*
X6739110Y-13918674D01*
X6739110Y-13918674D02*
X6758158Y-13909150D01*
X6758158Y-13909150D02*
X6786729Y-13909150D01*
X6786729Y-13909150D02*
X6805777Y-13918674D01*
X6805777Y-13918674D02*
X6815301Y-13937722D01*
X6815301Y-13937722D02*
X6815301Y-14042484D01*
X6815301Y-13937722D02*
X6824824Y-13918674D01*
X6824824Y-13918674D02*
X6843872Y-13909150D01*
X6843872Y-13909150D02*
X6872443Y-13909150D01*
X6872443Y-13909150D02*
X6891491Y-13918674D01*
X6891491Y-13918674D02*
X6901015Y-13937722D01*
X6901015Y-13937722D02*
X6901015Y-14042484D01*
X7291491Y-13832960D02*
X7120063Y-14090103D01*
X7548634Y-13842484D02*
X7567682Y-13842484D01*
X7567682Y-13842484D02*
X7586729Y-13852008D01*
X7586729Y-13852008D02*
X7596253Y-13861531D01*
X7596253Y-13861531D02*
X7605777Y-13880579D01*
X7605777Y-13880579D02*
X7615301Y-13918674D01*
X7615301Y-13918674D02*
X7615301Y-13966293D01*
X7615301Y-13966293D02*
X7605777Y-14004388D01*
X7605777Y-14004388D02*
X7596253Y-14023436D01*
X7596253Y-14023436D02*
X7586729Y-14032960D01*
X7586729Y-14032960D02*
X7567682Y-14042484D01*
X7567682Y-14042484D02*
X7548634Y-14042484D01*
X7548634Y-14042484D02*
X7529586Y-14032960D01*
X7529586Y-14032960D02*
X7520063Y-14023436D01*
X7520063Y-14023436D02*
X7510539Y-14004388D01*
X7510539Y-14004388D02*
X7501015Y-13966293D01*
X7501015Y-13966293D02*
X7501015Y-13918674D01*
X7501015Y-13918674D02*
X7510539Y-13880579D01*
X7510539Y-13880579D02*
X7520063Y-13861531D01*
X7520063Y-13861531D02*
X7529586Y-13852008D01*
X7529586Y-13852008D02*
X7548634Y-13842484D01*
X7701015Y-14023436D02*
X7710539Y-14032960D01*
X7710539Y-14032960D02*
X7701015Y-14042484D01*
X7701015Y-14042484D02*
X7691491Y-14032960D01*
X7691491Y-14032960D02*
X7701015Y-14023436D01*
X7701015Y-14023436D02*
X7701015Y-14042484D01*
X7834348Y-13842484D02*
X7853396Y-13842484D01*
X7853396Y-13842484D02*
X7872444Y-13852008D01*
X7872444Y-13852008D02*
X7881967Y-13861531D01*
X7881967Y-13861531D02*
X7891491Y-13880579D01*
X7891491Y-13880579D02*
X7901015Y-13918674D01*
X7901015Y-13918674D02*
X7901015Y-13966293D01*
X7901015Y-13966293D02*
X7891491Y-14004388D01*
X7891491Y-14004388D02*
X7881967Y-14023436D01*
X7881967Y-14023436D02*
X7872444Y-14032960D01*
X7872444Y-14032960D02*
X7853396Y-14042484D01*
X7853396Y-14042484D02*
X7834348Y-14042484D01*
X7834348Y-14042484D02*
X7815301Y-14032960D01*
X7815301Y-14032960D02*
X7805777Y-14023436D01*
X7805777Y-14023436D02*
X7796253Y-14004388D01*
X7796253Y-14004388D02*
X7786729Y-13966293D01*
X7786729Y-13966293D02*
X7786729Y-13918674D01*
X7786729Y-13918674D02*
X7796253Y-13880579D01*
X7796253Y-13880579D02*
X7805777Y-13861531D01*
X7805777Y-13861531D02*
X7815301Y-13852008D01*
X7815301Y-13852008D02*
X7834348Y-13842484D01*
X7967682Y-13842484D02*
X8091491Y-13842484D01*
X8091491Y-13842484D02*
X8024825Y-13918674D01*
X8024825Y-13918674D02*
X8053396Y-13918674D01*
X8053396Y-13918674D02*
X8072444Y-13928198D01*
X8072444Y-13928198D02*
X8081967Y-13937722D01*
X8081967Y-13937722D02*
X8091491Y-13956769D01*
X8091491Y-13956769D02*
X8091491Y-14004388D01*
X8091491Y-14004388D02*
X8081967Y-14023436D01*
X8081967Y-14023436D02*
X8072444Y-14032960D01*
X8072444Y-14032960D02*
X8053396Y-14042484D01*
X8053396Y-14042484D02*
X7996253Y-14042484D01*
X7996253Y-14042484D02*
X7977206Y-14032960D01*
X7977206Y-14032960D02*
X7967682Y-14023436D01*
X8158158Y-13842484D02*
X8291491Y-13842484D01*
X8291491Y-13842484D02*
X8205777Y-14042484D01*
X8453396Y-13909150D02*
X8453396Y-14042484D01*
X8405777Y-13832960D02*
X8358158Y-13975817D01*
X8358158Y-13975817D02*
X8481968Y-13975817D01*
X8548634Y-13842484D02*
X8548634Y-13880579D01*
X8624825Y-13842484D02*
X8624825Y-13880579D01*
X8920063Y-14118674D02*
X8910539Y-14109150D01*
X8910539Y-14109150D02*
X8891491Y-14080579D01*
X8891491Y-14080579D02*
X8881968Y-14061531D01*
X8881968Y-14061531D02*
X8872444Y-14032960D01*
X8872444Y-14032960D02*
X8862920Y-13985341D01*
X8862920Y-13985341D02*
X8862920Y-13947246D01*
X8862920Y-13947246D02*
X8872444Y-13899627D01*
X8872444Y-13899627D02*
X8881968Y-13871055D01*
X8881968Y-13871055D02*
X8891491Y-13852008D01*
X8891491Y-13852008D02*
X8910539Y-13823436D01*
X8910539Y-13823436D02*
X8920063Y-13813912D01*
X8986730Y-13861531D02*
X8996253Y-13852008D01*
X8996253Y-13852008D02*
X9015301Y-13842484D01*
X9015301Y-13842484D02*
X9062920Y-13842484D01*
X9062920Y-13842484D02*
X9081968Y-13852008D01*
X9081968Y-13852008D02*
X9091491Y-13861531D01*
X9091491Y-13861531D02*
X9101015Y-13880579D01*
X9101015Y-13880579D02*
X9101015Y-13899627D01*
X9101015Y-13899627D02*
X9091491Y-13928198D01*
X9091491Y-13928198D02*
X8977206Y-14042484D01*
X8977206Y-14042484D02*
X9101015Y-14042484D01*
X9281968Y-13842484D02*
X9186730Y-13842484D01*
X9186730Y-13842484D02*
X9177206Y-13937722D01*
X9177206Y-13937722D02*
X9186730Y-13928198D01*
X9186730Y-13928198D02*
X9205777Y-13918674D01*
X9205777Y-13918674D02*
X9253396Y-13918674D01*
X9253396Y-13918674D02*
X9272444Y-13928198D01*
X9272444Y-13928198D02*
X9281968Y-13937722D01*
X9281968Y-13937722D02*
X9291491Y-13956769D01*
X9291491Y-13956769D02*
X9291491Y-14004388D01*
X9291491Y-14004388D02*
X9281968Y-14023436D01*
X9281968Y-14023436D02*
X9272444Y-14032960D01*
X9272444Y-14032960D02*
X9253396Y-14042484D01*
X9253396Y-14042484D02*
X9205777Y-14042484D01*
X9205777Y-14042484D02*
X9186730Y-14032960D01*
X9186730Y-14032960D02*
X9177206Y-14023436D01*
X9529587Y-14042484D02*
X9529587Y-13842484D01*
X9615301Y-14042484D02*
X9615301Y-13937722D01*
X9615301Y-13937722D02*
X9605777Y-13918674D01*
X9605777Y-13918674D02*
X9586730Y-13909150D01*
X9586730Y-13909150D02*
X9558158Y-13909150D01*
X9558158Y-13909150D02*
X9539111Y-13918674D01*
X9539111Y-13918674D02*
X9529587Y-13928198D01*
X9739111Y-14042484D02*
X9720063Y-14032960D01*
X9720063Y-14032960D02*
X9710539Y-14023436D01*
X9710539Y-14023436D02*
X9701015Y-14004388D01*
X9701015Y-14004388D02*
X9701015Y-13947246D01*
X9701015Y-13947246D02*
X9710539Y-13928198D01*
X9710539Y-13928198D02*
X9720063Y-13918674D01*
X9720063Y-13918674D02*
X9739111Y-13909150D01*
X9739111Y-13909150D02*
X9767682Y-13909150D01*
X9767682Y-13909150D02*
X9786730Y-13918674D01*
X9786730Y-13918674D02*
X9796253Y-13928198D01*
X9796253Y-13928198D02*
X9805777Y-13947246D01*
X9805777Y-13947246D02*
X9805777Y-14004388D01*
X9805777Y-14004388D02*
X9796253Y-14023436D01*
X9796253Y-14023436D02*
X9786730Y-14032960D01*
X9786730Y-14032960D02*
X9767682Y-14042484D01*
X9767682Y-14042484D02*
X9739111Y-14042484D01*
X9920063Y-14042484D02*
X9901015Y-14032960D01*
X9901015Y-14032960D02*
X9891492Y-14013912D01*
X9891492Y-14013912D02*
X9891492Y-13842484D01*
X10072444Y-14032960D02*
X10053396Y-14042484D01*
X10053396Y-14042484D02*
X10015301Y-14042484D01*
X10015301Y-14042484D02*
X9996253Y-14032960D01*
X9996253Y-14032960D02*
X9986730Y-14013912D01*
X9986730Y-14013912D02*
X9986730Y-13937722D01*
X9986730Y-13937722D02*
X9996253Y-13918674D01*
X9996253Y-13918674D02*
X10015301Y-13909150D01*
X10015301Y-13909150D02*
X10053396Y-13909150D01*
X10053396Y-13909150D02*
X10072444Y-13918674D01*
X10072444Y-13918674D02*
X10081968Y-13937722D01*
X10081968Y-13937722D02*
X10081968Y-13956769D01*
X10081968Y-13956769D02*
X9986730Y-13975817D01*
X10158158Y-14032960D02*
X10177206Y-14042484D01*
X10177206Y-14042484D02*
X10215301Y-14042484D01*
X10215301Y-14042484D02*
X10234349Y-14032960D01*
X10234349Y-14032960D02*
X10243873Y-14013912D01*
X10243873Y-14013912D02*
X10243873Y-14004388D01*
X10243873Y-14004388D02*
X10234349Y-13985341D01*
X10234349Y-13985341D02*
X10215301Y-13975817D01*
X10215301Y-13975817D02*
X10186730Y-13975817D01*
X10186730Y-13975817D02*
X10167682Y-13966293D01*
X10167682Y-13966293D02*
X10158158Y-13947246D01*
X10158158Y-13947246D02*
X10158158Y-13937722D01*
X10158158Y-13937722D02*
X10167682Y-13918674D01*
X10167682Y-13918674D02*
X10186730Y-13909150D01*
X10186730Y-13909150D02*
X10215301Y-13909150D01*
X10215301Y-13909150D02*
X10234349Y-13918674D01*
X10310539Y-14118674D02*
X10320063Y-14109150D01*
X10320063Y-14109150D02*
X10339111Y-14080579D01*
X10339111Y-14080579D02*
X10348634Y-14061531D01*
X10348634Y-14061531D02*
X10358158Y-14032960D01*
X10358158Y-14032960D02*
X10367682Y-13985341D01*
X10367682Y-13985341D02*
X10367682Y-13947246D01*
X10367682Y-13947246D02*
X10358158Y-13899627D01*
X10358158Y-13899627D02*
X10348634Y-13871055D01*
X10348634Y-13871055D02*
X10339111Y-13852008D01*
X10339111Y-13852008D02*
X10320063Y-13823436D01*
X10320063Y-13823436D02*
X10310539Y-13813912D01*
D10*
X5245000Y-14165000D02*
X5345000Y-14265000D01*
X5345000Y-14165000D02*
X5245000Y-14265000D01*
X5345000Y-14215000D02*
G75*
G02*
X5245000Y-14215000I-50000J0D01*
G01*
X5245000Y-14215000D02*
G75*
G02*
X5345000Y-14215000I50000J0D01*
G01*
D11*
X5710539Y-14306484D02*
X5596253Y-14306484D01*
X5653396Y-14306484D02*
X5653396Y-14106484D01*
X5653396Y-14106484D02*
X5634348Y-14135055D01*
X5634348Y-14135055D02*
X5615301Y-14154103D01*
X5615301Y-14154103D02*
X5596253Y-14163627D01*
X5796253Y-14287436D02*
X5805777Y-14296960D01*
X5805777Y-14296960D02*
X5796253Y-14306484D01*
X5796253Y-14306484D02*
X5786729Y-14296960D01*
X5786729Y-14296960D02*
X5796253Y-14287436D01*
X5796253Y-14287436D02*
X5796253Y-14306484D01*
X5929586Y-14106484D02*
X5948634Y-14106484D01*
X5948634Y-14106484D02*
X5967682Y-14116008D01*
X5967682Y-14116008D02*
X5977205Y-14125531D01*
X5977205Y-14125531D02*
X5986729Y-14144579D01*
X5986729Y-14144579D02*
X5996253Y-14182674D01*
X5996253Y-14182674D02*
X5996253Y-14230293D01*
X5996253Y-14230293D02*
X5986729Y-14268388D01*
X5986729Y-14268388D02*
X5977205Y-14287436D01*
X5977205Y-14287436D02*
X5967682Y-14296960D01*
X5967682Y-14296960D02*
X5948634Y-14306484D01*
X5948634Y-14306484D02*
X5929586Y-14306484D01*
X5929586Y-14306484D02*
X5910539Y-14296960D01*
X5910539Y-14296960D02*
X5901015Y-14287436D01*
X5901015Y-14287436D02*
X5891491Y-14268388D01*
X5891491Y-14268388D02*
X5881967Y-14230293D01*
X5881967Y-14230293D02*
X5881967Y-14182674D01*
X5881967Y-14182674D02*
X5891491Y-14144579D01*
X5891491Y-14144579D02*
X5901015Y-14125531D01*
X5901015Y-14125531D02*
X5910539Y-14116008D01*
X5910539Y-14116008D02*
X5929586Y-14106484D01*
X6120062Y-14106484D02*
X6139110Y-14106484D01*
X6139110Y-14106484D02*
X6158158Y-14116008D01*
X6158158Y-14116008D02*
X6167682Y-14125531D01*
X6167682Y-14125531D02*
X6177205Y-14144579D01*
X6177205Y-14144579D02*
X6186729Y-14182674D01*
X6186729Y-14182674D02*
X6186729Y-14230293D01*
X6186729Y-14230293D02*
X6177205Y-14268388D01*
X6177205Y-14268388D02*
X6167682Y-14287436D01*
X6167682Y-14287436D02*
X6158158Y-14296960D01*
X6158158Y-14296960D02*
X6139110Y-14306484D01*
X6139110Y-14306484D02*
X6120062Y-14306484D01*
X6120062Y-14306484D02*
X6101015Y-14296960D01*
X6101015Y-14296960D02*
X6091491Y-14287436D01*
X6091491Y-14287436D02*
X6081967Y-14268388D01*
X6081967Y-14268388D02*
X6072443Y-14230293D01*
X6072443Y-14230293D02*
X6072443Y-14182674D01*
X6072443Y-14182674D02*
X6081967Y-14144579D01*
X6081967Y-14144579D02*
X6091491Y-14125531D01*
X6091491Y-14125531D02*
X6101015Y-14116008D01*
X6101015Y-14116008D02*
X6120062Y-14106484D01*
X6310539Y-14106484D02*
X6329586Y-14106484D01*
X6329586Y-14106484D02*
X6348634Y-14116008D01*
X6348634Y-14116008D02*
X6358158Y-14125531D01*
X6358158Y-14125531D02*
X6367682Y-14144579D01*
X6367682Y-14144579D02*
X6377205Y-14182674D01*
X6377205Y-14182674D02*
X6377205Y-14230293D01*
X6377205Y-14230293D02*
X6367682Y-14268388D01*
X6367682Y-14268388D02*
X6358158Y-14287436D01*
X6358158Y-14287436D02*
X6348634Y-14296960D01*
X6348634Y-14296960D02*
X6329586Y-14306484D01*
X6329586Y-14306484D02*
X6310539Y-14306484D01*
X6310539Y-14306484D02*
X6291491Y-14296960D01*
X6291491Y-14296960D02*
X6281967Y-14287436D01*
X6281967Y-14287436D02*
X6272443Y-14268388D01*
X6272443Y-14268388D02*
X6262920Y-14230293D01*
X6262920Y-14230293D02*
X6262920Y-14182674D01*
X6262920Y-14182674D02*
X6272443Y-14144579D01*
X6272443Y-14144579D02*
X6281967Y-14125531D01*
X6281967Y-14125531D02*
X6291491Y-14116008D01*
X6291491Y-14116008D02*
X6310539Y-14106484D01*
X6462920Y-14306484D02*
X6462920Y-14173150D01*
X6462920Y-14192198D02*
X6472443Y-14182674D01*
X6472443Y-14182674D02*
X6491491Y-14173150D01*
X6491491Y-14173150D02*
X6520063Y-14173150D01*
X6520063Y-14173150D02*
X6539110Y-14182674D01*
X6539110Y-14182674D02*
X6548634Y-14201722D01*
X6548634Y-14201722D02*
X6548634Y-14306484D01*
X6548634Y-14201722D02*
X6558158Y-14182674D01*
X6558158Y-14182674D02*
X6577205Y-14173150D01*
X6577205Y-14173150D02*
X6605777Y-14173150D01*
X6605777Y-14173150D02*
X6624824Y-14182674D01*
X6624824Y-14182674D02*
X6634348Y-14201722D01*
X6634348Y-14201722D02*
X6634348Y-14306484D01*
X6729586Y-14306484D02*
X6729586Y-14173150D01*
X6729586Y-14192198D02*
X6739110Y-14182674D01*
X6739110Y-14182674D02*
X6758158Y-14173150D01*
X6758158Y-14173150D02*
X6786729Y-14173150D01*
X6786729Y-14173150D02*
X6805777Y-14182674D01*
X6805777Y-14182674D02*
X6815301Y-14201722D01*
X6815301Y-14201722D02*
X6815301Y-14306484D01*
X6815301Y-14201722D02*
X6824824Y-14182674D01*
X6824824Y-14182674D02*
X6843872Y-14173150D01*
X6843872Y-14173150D02*
X6872443Y-14173150D01*
X6872443Y-14173150D02*
X6891491Y-14182674D01*
X6891491Y-14182674D02*
X6901015Y-14201722D01*
X6901015Y-14201722D02*
X6901015Y-14306484D01*
X7291491Y-14096960D02*
X7120063Y-14354103D01*
X7548634Y-14106484D02*
X7567682Y-14106484D01*
X7567682Y-14106484D02*
X7586729Y-14116008D01*
X7586729Y-14116008D02*
X7596253Y-14125531D01*
X7596253Y-14125531D02*
X7605777Y-14144579D01*
X7605777Y-14144579D02*
X7615301Y-14182674D01*
X7615301Y-14182674D02*
X7615301Y-14230293D01*
X7615301Y-14230293D02*
X7605777Y-14268388D01*
X7605777Y-14268388D02*
X7596253Y-14287436D01*
X7596253Y-14287436D02*
X7586729Y-14296960D01*
X7586729Y-14296960D02*
X7567682Y-14306484D01*
X7567682Y-14306484D02*
X7548634Y-14306484D01*
X7548634Y-14306484D02*
X7529586Y-14296960D01*
X7529586Y-14296960D02*
X7520063Y-14287436D01*
X7520063Y-14287436D02*
X7510539Y-14268388D01*
X7510539Y-14268388D02*
X7501015Y-14230293D01*
X7501015Y-14230293D02*
X7501015Y-14182674D01*
X7501015Y-14182674D02*
X7510539Y-14144579D01*
X7510539Y-14144579D02*
X7520063Y-14125531D01*
X7520063Y-14125531D02*
X7529586Y-14116008D01*
X7529586Y-14116008D02*
X7548634Y-14106484D01*
X7701015Y-14287436D02*
X7710539Y-14296960D01*
X7710539Y-14296960D02*
X7701015Y-14306484D01*
X7701015Y-14306484D02*
X7691491Y-14296960D01*
X7691491Y-14296960D02*
X7701015Y-14287436D01*
X7701015Y-14287436D02*
X7701015Y-14306484D01*
X7834348Y-14106484D02*
X7853396Y-14106484D01*
X7853396Y-14106484D02*
X7872444Y-14116008D01*
X7872444Y-14116008D02*
X7881967Y-14125531D01*
X7881967Y-14125531D02*
X7891491Y-14144579D01*
X7891491Y-14144579D02*
X7901015Y-14182674D01*
X7901015Y-14182674D02*
X7901015Y-14230293D01*
X7901015Y-14230293D02*
X7891491Y-14268388D01*
X7891491Y-14268388D02*
X7881967Y-14287436D01*
X7881967Y-14287436D02*
X7872444Y-14296960D01*
X7872444Y-14296960D02*
X7853396Y-14306484D01*
X7853396Y-14306484D02*
X7834348Y-14306484D01*
X7834348Y-14306484D02*
X7815301Y-14296960D01*
X7815301Y-14296960D02*
X7805777Y-14287436D01*
X7805777Y-14287436D02*
X7796253Y-14268388D01*
X7796253Y-14268388D02*
X7786729Y-14230293D01*
X7786729Y-14230293D02*
X7786729Y-14182674D01*
X7786729Y-14182674D02*
X7796253Y-14144579D01*
X7796253Y-14144579D02*
X7805777Y-14125531D01*
X7805777Y-14125531D02*
X7815301Y-14116008D01*
X7815301Y-14116008D02*
X7834348Y-14106484D01*
X7967682Y-14106484D02*
X8091491Y-14106484D01*
X8091491Y-14106484D02*
X8024825Y-14182674D01*
X8024825Y-14182674D02*
X8053396Y-14182674D01*
X8053396Y-14182674D02*
X8072444Y-14192198D01*
X8072444Y-14192198D02*
X8081967Y-14201722D01*
X8081967Y-14201722D02*
X8091491Y-14220769D01*
X8091491Y-14220769D02*
X8091491Y-14268388D01*
X8091491Y-14268388D02*
X8081967Y-14287436D01*
X8081967Y-14287436D02*
X8072444Y-14296960D01*
X8072444Y-14296960D02*
X8053396Y-14306484D01*
X8053396Y-14306484D02*
X7996253Y-14306484D01*
X7996253Y-14306484D02*
X7977206Y-14296960D01*
X7977206Y-14296960D02*
X7967682Y-14287436D01*
X8186729Y-14306484D02*
X8224825Y-14306484D01*
X8224825Y-14306484D02*
X8243872Y-14296960D01*
X8243872Y-14296960D02*
X8253396Y-14287436D01*
X8253396Y-14287436D02*
X8272444Y-14258865D01*
X8272444Y-14258865D02*
X8281967Y-14220769D01*
X8281967Y-14220769D02*
X8281967Y-14144579D01*
X8281967Y-14144579D02*
X8272444Y-14125531D01*
X8272444Y-14125531D02*
X8262920Y-14116008D01*
X8262920Y-14116008D02*
X8243872Y-14106484D01*
X8243872Y-14106484D02*
X8205777Y-14106484D01*
X8205777Y-14106484D02*
X8186729Y-14116008D01*
X8186729Y-14116008D02*
X8177206Y-14125531D01*
X8177206Y-14125531D02*
X8167682Y-14144579D01*
X8167682Y-14144579D02*
X8167682Y-14192198D01*
X8167682Y-14192198D02*
X8177206Y-14211246D01*
X8177206Y-14211246D02*
X8186729Y-14220769D01*
X8186729Y-14220769D02*
X8205777Y-14230293D01*
X8205777Y-14230293D02*
X8243872Y-14230293D01*
X8243872Y-14230293D02*
X8262920Y-14220769D01*
X8262920Y-14220769D02*
X8272444Y-14211246D01*
X8272444Y-14211246D02*
X8281967Y-14192198D01*
X8453396Y-14173150D02*
X8453396Y-14306484D01*
X8405777Y-14096960D02*
X8358158Y-14239817D01*
X8358158Y-14239817D02*
X8481968Y-14239817D01*
X8548634Y-14106484D02*
X8548634Y-14144579D01*
X8624825Y-14106484D02*
X8624825Y-14144579D01*
X8920063Y-14382674D02*
X8910539Y-14373150D01*
X8910539Y-14373150D02*
X8891491Y-14344579D01*
X8891491Y-14344579D02*
X8881968Y-14325531D01*
X8881968Y-14325531D02*
X8872444Y-14296960D01*
X8872444Y-14296960D02*
X8862920Y-14249341D01*
X8862920Y-14249341D02*
X8862920Y-14211246D01*
X8862920Y-14211246D02*
X8872444Y-14163627D01*
X8872444Y-14163627D02*
X8881968Y-14135055D01*
X8881968Y-14135055D02*
X8891491Y-14116008D01*
X8891491Y-14116008D02*
X8910539Y-14087436D01*
X8910539Y-14087436D02*
X8920063Y-14077912D01*
X9101015Y-14306484D02*
X8986730Y-14306484D01*
X9043872Y-14306484D02*
X9043872Y-14106484D01*
X9043872Y-14106484D02*
X9024825Y-14135055D01*
X9024825Y-14135055D02*
X9005777Y-14154103D01*
X9005777Y-14154103D02*
X8986730Y-14163627D01*
X9272444Y-14173150D02*
X9272444Y-14306484D01*
X9224825Y-14096960D02*
X9177206Y-14239817D01*
X9177206Y-14239817D02*
X9301015Y-14239817D01*
X9529587Y-14306484D02*
X9529587Y-14106484D01*
X9615301Y-14306484D02*
X9615301Y-14201722D01*
X9615301Y-14201722D02*
X9605777Y-14182674D01*
X9605777Y-14182674D02*
X9586730Y-14173150D01*
X9586730Y-14173150D02*
X9558158Y-14173150D01*
X9558158Y-14173150D02*
X9539111Y-14182674D01*
X9539111Y-14182674D02*
X9529587Y-14192198D01*
X9739111Y-14306484D02*
X9720063Y-14296960D01*
X9720063Y-14296960D02*
X9710539Y-14287436D01*
X9710539Y-14287436D02*
X9701015Y-14268388D01*
X9701015Y-14268388D02*
X9701015Y-14211246D01*
X9701015Y-14211246D02*
X9710539Y-14192198D01*
X9710539Y-14192198D02*
X9720063Y-14182674D01*
X9720063Y-14182674D02*
X9739111Y-14173150D01*
X9739111Y-14173150D02*
X9767682Y-14173150D01*
X9767682Y-14173150D02*
X9786730Y-14182674D01*
X9786730Y-14182674D02*
X9796253Y-14192198D01*
X9796253Y-14192198D02*
X9805777Y-14211246D01*
X9805777Y-14211246D02*
X9805777Y-14268388D01*
X9805777Y-14268388D02*
X9796253Y-14287436D01*
X9796253Y-14287436D02*
X9786730Y-14296960D01*
X9786730Y-14296960D02*
X9767682Y-14306484D01*
X9767682Y-14306484D02*
X9739111Y-14306484D01*
X9920063Y-14306484D02*
X9901015Y-14296960D01*
X9901015Y-14296960D02*
X9891492Y-14277912D01*
X9891492Y-14277912D02*
X9891492Y-14106484D01*
X10072444Y-14296960D02*
X10053396Y-14306484D01*
X10053396Y-14306484D02*
X10015301Y-14306484D01*
X10015301Y-14306484D02*
X9996253Y-14296960D01*
X9996253Y-14296960D02*
X9986730Y-14277912D01*
X9986730Y-14277912D02*
X9986730Y-14201722D01*
X9986730Y-14201722D02*
X9996253Y-14182674D01*
X9996253Y-14182674D02*
X10015301Y-14173150D01*
X10015301Y-14173150D02*
X10053396Y-14173150D01*
X10053396Y-14173150D02*
X10072444Y-14182674D01*
X10072444Y-14182674D02*
X10081968Y-14201722D01*
X10081968Y-14201722D02*
X10081968Y-14220769D01*
X10081968Y-14220769D02*
X9986730Y-14239817D01*
X10158158Y-14296960D02*
X10177206Y-14306484D01*
X10177206Y-14306484D02*
X10215301Y-14306484D01*
X10215301Y-14306484D02*
X10234349Y-14296960D01*
X10234349Y-14296960D02*
X10243873Y-14277912D01*
X10243873Y-14277912D02*
X10243873Y-14268388D01*
X10243873Y-14268388D02*
X10234349Y-14249341D01*
X10234349Y-14249341D02*
X10215301Y-14239817D01*
X10215301Y-14239817D02*
X10186730Y-14239817D01*
X10186730Y-14239817D02*
X10167682Y-14230293D01*
X10167682Y-14230293D02*
X10158158Y-14211246D01*
X10158158Y-14211246D02*
X10158158Y-14201722D01*
X10158158Y-14201722D02*
X10167682Y-14182674D01*
X10167682Y-14182674D02*
X10186730Y-14173150D01*
X10186730Y-14173150D02*
X10215301Y-14173150D01*
X10215301Y-14173150D02*
X10234349Y-14182674D01*
X10310539Y-14382674D02*
X10320063Y-14373150D01*
X10320063Y-14373150D02*
X10339111Y-14344579D01*
X10339111Y-14344579D02*
X10348634Y-14325531D01*
X10348634Y-14325531D02*
X10358158Y-14296960D01*
X10358158Y-14296960D02*
X10367682Y-14249341D01*
X10367682Y-14249341D02*
X10367682Y-14211246D01*
X10367682Y-14211246D02*
X10358158Y-14163627D01*
X10358158Y-14163627D02*
X10348634Y-14135055D01*
X10348634Y-14135055D02*
X10339111Y-14116008D01*
X10339111Y-14116008D02*
X10320063Y-14087436D01*
X10320063Y-14087436D02*
X10310539Y-14077912D01*
D12*
X5235000Y-14424000D02*
X5345000Y-14534000D01*
X5345000Y-14424000D02*
X5235000Y-14534000D01*
X5290000Y-14424000D02*
X5290000Y-14534000D01*
X5235000Y-14479000D02*
X5345000Y-14479000D01*
D11*
X5710539Y-14570484D02*
X5596253Y-14570484D01*
X5653396Y-14570484D02*
X5653396Y-14370484D01*
X5653396Y-14370484D02*
X5634348Y-14399055D01*
X5634348Y-14399055D02*
X5615301Y-14418103D01*
X5615301Y-14418103D02*
X5596253Y-14427627D01*
X5796253Y-14551436D02*
X5805777Y-14560960D01*
X5805777Y-14560960D02*
X5796253Y-14570484D01*
X5796253Y-14570484D02*
X5786729Y-14560960D01*
X5786729Y-14560960D02*
X5796253Y-14551436D01*
X5796253Y-14551436D02*
X5796253Y-14570484D01*
X5996253Y-14570484D02*
X5881967Y-14570484D01*
X5939110Y-14570484D02*
X5939110Y-14370484D01*
X5939110Y-14370484D02*
X5920062Y-14399055D01*
X5920062Y-14399055D02*
X5901015Y-14418103D01*
X5901015Y-14418103D02*
X5881967Y-14427627D01*
X6120062Y-14370484D02*
X6139110Y-14370484D01*
X6139110Y-14370484D02*
X6158158Y-14380008D01*
X6158158Y-14380008D02*
X6167682Y-14389531D01*
X6167682Y-14389531D02*
X6177205Y-14408579D01*
X6177205Y-14408579D02*
X6186729Y-14446674D01*
X6186729Y-14446674D02*
X6186729Y-14494293D01*
X6186729Y-14494293D02*
X6177205Y-14532388D01*
X6177205Y-14532388D02*
X6167682Y-14551436D01*
X6167682Y-14551436D02*
X6158158Y-14560960D01*
X6158158Y-14560960D02*
X6139110Y-14570484D01*
X6139110Y-14570484D02*
X6120062Y-14570484D01*
X6120062Y-14570484D02*
X6101015Y-14560960D01*
X6101015Y-14560960D02*
X6091491Y-14551436D01*
X6091491Y-14551436D02*
X6081967Y-14532388D01*
X6081967Y-14532388D02*
X6072443Y-14494293D01*
X6072443Y-14494293D02*
X6072443Y-14446674D01*
X6072443Y-14446674D02*
X6081967Y-14408579D01*
X6081967Y-14408579D02*
X6091491Y-14389531D01*
X6091491Y-14389531D02*
X6101015Y-14380008D01*
X6101015Y-14380008D02*
X6120062Y-14370484D01*
X6310539Y-14370484D02*
X6329586Y-14370484D01*
X6329586Y-14370484D02*
X6348634Y-14380008D01*
X6348634Y-14380008D02*
X6358158Y-14389531D01*
X6358158Y-14389531D02*
X6367682Y-14408579D01*
X6367682Y-14408579D02*
X6377205Y-14446674D01*
X6377205Y-14446674D02*
X6377205Y-14494293D01*
X6377205Y-14494293D02*
X6367682Y-14532388D01*
X6367682Y-14532388D02*
X6358158Y-14551436D01*
X6358158Y-14551436D02*
X6348634Y-14560960D01*
X6348634Y-14560960D02*
X6329586Y-14570484D01*
X6329586Y-14570484D02*
X6310539Y-14570484D01*
X6310539Y-14570484D02*
X6291491Y-14560960D01*
X6291491Y-14560960D02*
X6281967Y-14551436D01*
X6281967Y-14551436D02*
X6272443Y-14532388D01*
X6272443Y-14532388D02*
X6262920Y-14494293D01*
X6262920Y-14494293D02*
X6262920Y-14446674D01*
X6262920Y-14446674D02*
X6272443Y-14408579D01*
X6272443Y-14408579D02*
X6281967Y-14389531D01*
X6281967Y-14389531D02*
X6291491Y-14380008D01*
X6291491Y-14380008D02*
X6310539Y-14370484D01*
X6462920Y-14570484D02*
X6462920Y-14437150D01*
X6462920Y-14456198D02*
X6472443Y-14446674D01*
X6472443Y-14446674D02*
X6491491Y-14437150D01*
X6491491Y-14437150D02*
X6520063Y-14437150D01*
X6520063Y-14437150D02*
X6539110Y-14446674D01*
X6539110Y-14446674D02*
X6548634Y-14465722D01*
X6548634Y-14465722D02*
X6548634Y-14570484D01*
X6548634Y-14465722D02*
X6558158Y-14446674D01*
X6558158Y-14446674D02*
X6577205Y-14437150D01*
X6577205Y-14437150D02*
X6605777Y-14437150D01*
X6605777Y-14437150D02*
X6624824Y-14446674D01*
X6624824Y-14446674D02*
X6634348Y-14465722D01*
X6634348Y-14465722D02*
X6634348Y-14570484D01*
X6729586Y-14570484D02*
X6729586Y-14437150D01*
X6729586Y-14456198D02*
X6739110Y-14446674D01*
X6739110Y-14446674D02*
X6758158Y-14437150D01*
X6758158Y-14437150D02*
X6786729Y-14437150D01*
X6786729Y-14437150D02*
X6805777Y-14446674D01*
X6805777Y-14446674D02*
X6815301Y-14465722D01*
X6815301Y-14465722D02*
X6815301Y-14570484D01*
X6815301Y-14465722D02*
X6824824Y-14446674D01*
X6824824Y-14446674D02*
X6843872Y-14437150D01*
X6843872Y-14437150D02*
X6872443Y-14437150D01*
X6872443Y-14437150D02*
X6891491Y-14446674D01*
X6891491Y-14446674D02*
X6901015Y-14465722D01*
X6901015Y-14465722D02*
X6901015Y-14570484D01*
X7291491Y-14360960D02*
X7120063Y-14618103D01*
X7548634Y-14370484D02*
X7567682Y-14370484D01*
X7567682Y-14370484D02*
X7586729Y-14380008D01*
X7586729Y-14380008D02*
X7596253Y-14389531D01*
X7596253Y-14389531D02*
X7605777Y-14408579D01*
X7605777Y-14408579D02*
X7615301Y-14446674D01*
X7615301Y-14446674D02*
X7615301Y-14494293D01*
X7615301Y-14494293D02*
X7605777Y-14532388D01*
X7605777Y-14532388D02*
X7596253Y-14551436D01*
X7596253Y-14551436D02*
X7586729Y-14560960D01*
X7586729Y-14560960D02*
X7567682Y-14570484D01*
X7567682Y-14570484D02*
X7548634Y-14570484D01*
X7548634Y-14570484D02*
X7529586Y-14560960D01*
X7529586Y-14560960D02*
X7520063Y-14551436D01*
X7520063Y-14551436D02*
X7510539Y-14532388D01*
X7510539Y-14532388D02*
X7501015Y-14494293D01*
X7501015Y-14494293D02*
X7501015Y-14446674D01*
X7501015Y-14446674D02*
X7510539Y-14408579D01*
X7510539Y-14408579D02*
X7520063Y-14389531D01*
X7520063Y-14389531D02*
X7529586Y-14380008D01*
X7529586Y-14380008D02*
X7548634Y-14370484D01*
X7701015Y-14551436D02*
X7710539Y-14560960D01*
X7710539Y-14560960D02*
X7701015Y-14570484D01*
X7701015Y-14570484D02*
X7691491Y-14560960D01*
X7691491Y-14560960D02*
X7701015Y-14551436D01*
X7701015Y-14551436D02*
X7701015Y-14570484D01*
X7834348Y-14370484D02*
X7853396Y-14370484D01*
X7853396Y-14370484D02*
X7872444Y-14380008D01*
X7872444Y-14380008D02*
X7881967Y-14389531D01*
X7881967Y-14389531D02*
X7891491Y-14408579D01*
X7891491Y-14408579D02*
X7901015Y-14446674D01*
X7901015Y-14446674D02*
X7901015Y-14494293D01*
X7901015Y-14494293D02*
X7891491Y-14532388D01*
X7891491Y-14532388D02*
X7881967Y-14551436D01*
X7881967Y-14551436D02*
X7872444Y-14560960D01*
X7872444Y-14560960D02*
X7853396Y-14570484D01*
X7853396Y-14570484D02*
X7834348Y-14570484D01*
X7834348Y-14570484D02*
X7815301Y-14560960D01*
X7815301Y-14560960D02*
X7805777Y-14551436D01*
X7805777Y-14551436D02*
X7796253Y-14532388D01*
X7796253Y-14532388D02*
X7786729Y-14494293D01*
X7786729Y-14494293D02*
X7786729Y-14446674D01*
X7786729Y-14446674D02*
X7796253Y-14408579D01*
X7796253Y-14408579D02*
X7805777Y-14389531D01*
X7805777Y-14389531D02*
X7815301Y-14380008D01*
X7815301Y-14380008D02*
X7834348Y-14370484D01*
X8072444Y-14437150D02*
X8072444Y-14570484D01*
X8024825Y-14360960D02*
X7977206Y-14503817D01*
X7977206Y-14503817D02*
X8101015Y-14503817D01*
X8158158Y-14370484D02*
X8281967Y-14370484D01*
X8281967Y-14370484D02*
X8215301Y-14446674D01*
X8215301Y-14446674D02*
X8243872Y-14446674D01*
X8243872Y-14446674D02*
X8262920Y-14456198D01*
X8262920Y-14456198D02*
X8272444Y-14465722D01*
X8272444Y-14465722D02*
X8281967Y-14484769D01*
X8281967Y-14484769D02*
X8281967Y-14532388D01*
X8281967Y-14532388D02*
X8272444Y-14551436D01*
X8272444Y-14551436D02*
X8262920Y-14560960D01*
X8262920Y-14560960D02*
X8243872Y-14570484D01*
X8243872Y-14570484D02*
X8186729Y-14570484D01*
X8186729Y-14570484D02*
X8167682Y-14560960D01*
X8167682Y-14560960D02*
X8158158Y-14551436D01*
X8348634Y-14370484D02*
X8472444Y-14370484D01*
X8472444Y-14370484D02*
X8405777Y-14446674D01*
X8405777Y-14446674D02*
X8434349Y-14446674D01*
X8434349Y-14446674D02*
X8453396Y-14456198D01*
X8453396Y-14456198D02*
X8462920Y-14465722D01*
X8462920Y-14465722D02*
X8472444Y-14484769D01*
X8472444Y-14484769D02*
X8472444Y-14532388D01*
X8472444Y-14532388D02*
X8462920Y-14551436D01*
X8462920Y-14551436D02*
X8453396Y-14560960D01*
X8453396Y-14560960D02*
X8434349Y-14570484D01*
X8434349Y-14570484D02*
X8377206Y-14570484D01*
X8377206Y-14570484D02*
X8358158Y-14560960D01*
X8358158Y-14560960D02*
X8348634Y-14551436D01*
X8548634Y-14370484D02*
X8548634Y-14408579D01*
X8624825Y-14370484D02*
X8624825Y-14408579D01*
X8920063Y-14646674D02*
X8910539Y-14637150D01*
X8910539Y-14637150D02*
X8891491Y-14608579D01*
X8891491Y-14608579D02*
X8881968Y-14589531D01*
X8881968Y-14589531D02*
X8872444Y-14560960D01*
X8872444Y-14560960D02*
X8862920Y-14513341D01*
X8862920Y-14513341D02*
X8862920Y-14475246D01*
X8862920Y-14475246D02*
X8872444Y-14427627D01*
X8872444Y-14427627D02*
X8881968Y-14399055D01*
X8881968Y-14399055D02*
X8891491Y-14380008D01*
X8891491Y-14380008D02*
X8910539Y-14351436D01*
X8910539Y-14351436D02*
X8920063Y-14341912D01*
X8986730Y-14389531D02*
X8996253Y-14380008D01*
X8996253Y-14380008D02*
X9015301Y-14370484D01*
X9015301Y-14370484D02*
X9062920Y-14370484D01*
X9062920Y-14370484D02*
X9081968Y-14380008D01*
X9081968Y-14380008D02*
X9091491Y-14389531D01*
X9091491Y-14389531D02*
X9101015Y-14408579D01*
X9101015Y-14408579D02*
X9101015Y-14427627D01*
X9101015Y-14427627D02*
X9091491Y-14456198D01*
X9091491Y-14456198D02*
X8977206Y-14570484D01*
X8977206Y-14570484D02*
X9101015Y-14570484D01*
X9339111Y-14570484D02*
X9339111Y-14370484D01*
X9424825Y-14570484D02*
X9424825Y-14465722D01*
X9424825Y-14465722D02*
X9415301Y-14446674D01*
X9415301Y-14446674D02*
X9396253Y-14437150D01*
X9396253Y-14437150D02*
X9367682Y-14437150D01*
X9367682Y-14437150D02*
X9348634Y-14446674D01*
X9348634Y-14446674D02*
X9339111Y-14456198D01*
X9548634Y-14570484D02*
X9529587Y-14560960D01*
X9529587Y-14560960D02*
X9520063Y-14551436D01*
X9520063Y-14551436D02*
X9510539Y-14532388D01*
X9510539Y-14532388D02*
X9510539Y-14475246D01*
X9510539Y-14475246D02*
X9520063Y-14456198D01*
X9520063Y-14456198D02*
X9529587Y-14446674D01*
X9529587Y-14446674D02*
X9548634Y-14437150D01*
X9548634Y-14437150D02*
X9577206Y-14437150D01*
X9577206Y-14437150D02*
X9596253Y-14446674D01*
X9596253Y-14446674D02*
X9605777Y-14456198D01*
X9605777Y-14456198D02*
X9615301Y-14475246D01*
X9615301Y-14475246D02*
X9615301Y-14532388D01*
X9615301Y-14532388D02*
X9605777Y-14551436D01*
X9605777Y-14551436D02*
X9596253Y-14560960D01*
X9596253Y-14560960D02*
X9577206Y-14570484D01*
X9577206Y-14570484D02*
X9548634Y-14570484D01*
X9729587Y-14570484D02*
X9710539Y-14560960D01*
X9710539Y-14560960D02*
X9701015Y-14541912D01*
X9701015Y-14541912D02*
X9701015Y-14370484D01*
X9881968Y-14560960D02*
X9862920Y-14570484D01*
X9862920Y-14570484D02*
X9824825Y-14570484D01*
X9824825Y-14570484D02*
X9805777Y-14560960D01*
X9805777Y-14560960D02*
X9796253Y-14541912D01*
X9796253Y-14541912D02*
X9796253Y-14465722D01*
X9796253Y-14465722D02*
X9805777Y-14446674D01*
X9805777Y-14446674D02*
X9824825Y-14437150D01*
X9824825Y-14437150D02*
X9862920Y-14437150D01*
X9862920Y-14437150D02*
X9881968Y-14446674D01*
X9881968Y-14446674D02*
X9891492Y-14465722D01*
X9891492Y-14465722D02*
X9891492Y-14484769D01*
X9891492Y-14484769D02*
X9796253Y-14503817D01*
X9967682Y-14560960D02*
X9986730Y-14570484D01*
X9986730Y-14570484D02*
X10024825Y-14570484D01*
X10024825Y-14570484D02*
X10043873Y-14560960D01*
X10043873Y-14560960D02*
X10053396Y-14541912D01*
X10053396Y-14541912D02*
X10053396Y-14532388D01*
X10053396Y-14532388D02*
X10043873Y-14513341D01*
X10043873Y-14513341D02*
X10024825Y-14503817D01*
X10024825Y-14503817D02*
X9996253Y-14503817D01*
X9996253Y-14503817D02*
X9977206Y-14494293D01*
X9977206Y-14494293D02*
X9967682Y-14475246D01*
X9967682Y-14475246D02*
X9967682Y-14465722D01*
X9967682Y-14465722D02*
X9977206Y-14446674D01*
X9977206Y-14446674D02*
X9996253Y-14437150D01*
X9996253Y-14437150D02*
X10024825Y-14437150D01*
X10024825Y-14437150D02*
X10043873Y-14446674D01*
X10120063Y-14646674D02*
X10129587Y-14637150D01*
X10129587Y-14637150D02*
X10148634Y-14608579D01*
X10148634Y-14608579D02*
X10158158Y-14589531D01*
X10158158Y-14589531D02*
X10167682Y-14560960D01*
X10167682Y-14560960D02*
X10177206Y-14513341D01*
X10177206Y-14513341D02*
X10177206Y-14475246D01*
X10177206Y-14475246D02*
X10167682Y-14427627D01*
X10167682Y-14427627D02*
X10158158Y-14399055D01*
X10158158Y-14399055D02*
X10148634Y-14380008D01*
X10148634Y-14380008D02*
X10129587Y-14351436D01*
X10129587Y-14351436D02*
X10120063Y-14341912D01*
D13*
X5215000Y-14678000D02*
X5345000Y-14808000D01*
X5345000Y-14678000D02*
X5215000Y-14808000D01*
X5325962Y-14788962D02*
X5325962Y-14697038D01*
X5234038Y-14697038D01*
X5234038Y-14788962D01*
X5325962Y-14788962D01*
D11*
X5710539Y-14834484D02*
X5596253Y-14834484D01*
X5653396Y-14834484D02*
X5653396Y-14634484D01*
X5653396Y-14634484D02*
X5634348Y-14663055D01*
X5634348Y-14663055D02*
X5615301Y-14682103D01*
X5615301Y-14682103D02*
X5596253Y-14691627D01*
X5796253Y-14815436D02*
X5805777Y-14824960D01*
X5805777Y-14824960D02*
X5796253Y-14834484D01*
X5796253Y-14834484D02*
X5786729Y-14824960D01*
X5786729Y-14824960D02*
X5796253Y-14815436D01*
X5796253Y-14815436D02*
X5796253Y-14834484D01*
X5872443Y-14634484D02*
X5996253Y-14634484D01*
X5996253Y-14634484D02*
X5929586Y-14710674D01*
X5929586Y-14710674D02*
X5958158Y-14710674D01*
X5958158Y-14710674D02*
X5977205Y-14720198D01*
X5977205Y-14720198D02*
X5986729Y-14729722D01*
X5986729Y-14729722D02*
X5996253Y-14748769D01*
X5996253Y-14748769D02*
X5996253Y-14796388D01*
X5996253Y-14796388D02*
X5986729Y-14815436D01*
X5986729Y-14815436D02*
X5977205Y-14824960D01*
X5977205Y-14824960D02*
X5958158Y-14834484D01*
X5958158Y-14834484D02*
X5901015Y-14834484D01*
X5901015Y-14834484D02*
X5881967Y-14824960D01*
X5881967Y-14824960D02*
X5872443Y-14815436D01*
X6120062Y-14634484D02*
X6139110Y-14634484D01*
X6139110Y-14634484D02*
X6158158Y-14644008D01*
X6158158Y-14644008D02*
X6167682Y-14653531D01*
X6167682Y-14653531D02*
X6177205Y-14672579D01*
X6177205Y-14672579D02*
X6186729Y-14710674D01*
X6186729Y-14710674D02*
X6186729Y-14758293D01*
X6186729Y-14758293D02*
X6177205Y-14796388D01*
X6177205Y-14796388D02*
X6167682Y-14815436D01*
X6167682Y-14815436D02*
X6158158Y-14824960D01*
X6158158Y-14824960D02*
X6139110Y-14834484D01*
X6139110Y-14834484D02*
X6120062Y-14834484D01*
X6120062Y-14834484D02*
X6101015Y-14824960D01*
X6101015Y-14824960D02*
X6091491Y-14815436D01*
X6091491Y-14815436D02*
X6081967Y-14796388D01*
X6081967Y-14796388D02*
X6072443Y-14758293D01*
X6072443Y-14758293D02*
X6072443Y-14710674D01*
X6072443Y-14710674D02*
X6081967Y-14672579D01*
X6081967Y-14672579D02*
X6091491Y-14653531D01*
X6091491Y-14653531D02*
X6101015Y-14644008D01*
X6101015Y-14644008D02*
X6120062Y-14634484D01*
X6310539Y-14634484D02*
X6329586Y-14634484D01*
X6329586Y-14634484D02*
X6348634Y-14644008D01*
X6348634Y-14644008D02*
X6358158Y-14653531D01*
X6358158Y-14653531D02*
X6367682Y-14672579D01*
X6367682Y-14672579D02*
X6377205Y-14710674D01*
X6377205Y-14710674D02*
X6377205Y-14758293D01*
X6377205Y-14758293D02*
X6367682Y-14796388D01*
X6367682Y-14796388D02*
X6358158Y-14815436D01*
X6358158Y-14815436D02*
X6348634Y-14824960D01*
X6348634Y-14824960D02*
X6329586Y-14834484D01*
X6329586Y-14834484D02*
X6310539Y-14834484D01*
X6310539Y-14834484D02*
X6291491Y-14824960D01*
X6291491Y-14824960D02*
X6281967Y-14815436D01*
X6281967Y-14815436D02*
X6272443Y-14796388D01*
X6272443Y-14796388D02*
X6262920Y-14758293D01*
X6262920Y-14758293D02*
X6262920Y-14710674D01*
X6262920Y-14710674D02*
X6272443Y-14672579D01*
X6272443Y-14672579D02*
X6281967Y-14653531D01*
X6281967Y-14653531D02*
X6291491Y-14644008D01*
X6291491Y-14644008D02*
X6310539Y-14634484D01*
X6462920Y-14834484D02*
X6462920Y-14701150D01*
X6462920Y-14720198D02*
X6472443Y-14710674D01*
X6472443Y-14710674D02*
X6491491Y-14701150D01*
X6491491Y-14701150D02*
X6520063Y-14701150D01*
X6520063Y-14701150D02*
X6539110Y-14710674D01*
X6539110Y-14710674D02*
X6548634Y-14729722D01*
X6548634Y-14729722D02*
X6548634Y-14834484D01*
X6548634Y-14729722D02*
X6558158Y-14710674D01*
X6558158Y-14710674D02*
X6577205Y-14701150D01*
X6577205Y-14701150D02*
X6605777Y-14701150D01*
X6605777Y-14701150D02*
X6624824Y-14710674D01*
X6624824Y-14710674D02*
X6634348Y-14729722D01*
X6634348Y-14729722D02*
X6634348Y-14834484D01*
X6729586Y-14834484D02*
X6729586Y-14701150D01*
X6729586Y-14720198D02*
X6739110Y-14710674D01*
X6739110Y-14710674D02*
X6758158Y-14701150D01*
X6758158Y-14701150D02*
X6786729Y-14701150D01*
X6786729Y-14701150D02*
X6805777Y-14710674D01*
X6805777Y-14710674D02*
X6815301Y-14729722D01*
X6815301Y-14729722D02*
X6815301Y-14834484D01*
X6815301Y-14729722D02*
X6824824Y-14710674D01*
X6824824Y-14710674D02*
X6843872Y-14701150D01*
X6843872Y-14701150D02*
X6872443Y-14701150D01*
X6872443Y-14701150D02*
X6891491Y-14710674D01*
X6891491Y-14710674D02*
X6901015Y-14729722D01*
X6901015Y-14729722D02*
X6901015Y-14834484D01*
X7291491Y-14624960D02*
X7120063Y-14882103D01*
X7548634Y-14634484D02*
X7567682Y-14634484D01*
X7567682Y-14634484D02*
X7586729Y-14644008D01*
X7586729Y-14644008D02*
X7596253Y-14653531D01*
X7596253Y-14653531D02*
X7605777Y-14672579D01*
X7605777Y-14672579D02*
X7615301Y-14710674D01*
X7615301Y-14710674D02*
X7615301Y-14758293D01*
X7615301Y-14758293D02*
X7605777Y-14796388D01*
X7605777Y-14796388D02*
X7596253Y-14815436D01*
X7596253Y-14815436D02*
X7586729Y-14824960D01*
X7586729Y-14824960D02*
X7567682Y-14834484D01*
X7567682Y-14834484D02*
X7548634Y-14834484D01*
X7548634Y-14834484D02*
X7529586Y-14824960D01*
X7529586Y-14824960D02*
X7520063Y-14815436D01*
X7520063Y-14815436D02*
X7510539Y-14796388D01*
X7510539Y-14796388D02*
X7501015Y-14758293D01*
X7501015Y-14758293D02*
X7501015Y-14710674D01*
X7501015Y-14710674D02*
X7510539Y-14672579D01*
X7510539Y-14672579D02*
X7520063Y-14653531D01*
X7520063Y-14653531D02*
X7529586Y-14644008D01*
X7529586Y-14644008D02*
X7548634Y-14634484D01*
X7701015Y-14815436D02*
X7710539Y-14824960D01*
X7710539Y-14824960D02*
X7701015Y-14834484D01*
X7701015Y-14834484D02*
X7691491Y-14824960D01*
X7691491Y-14824960D02*
X7701015Y-14815436D01*
X7701015Y-14815436D02*
X7701015Y-14834484D01*
X7834348Y-14634484D02*
X7853396Y-14634484D01*
X7853396Y-14634484D02*
X7872444Y-14644008D01*
X7872444Y-14644008D02*
X7881967Y-14653531D01*
X7881967Y-14653531D02*
X7891491Y-14672579D01*
X7891491Y-14672579D02*
X7901015Y-14710674D01*
X7901015Y-14710674D02*
X7901015Y-14758293D01*
X7901015Y-14758293D02*
X7891491Y-14796388D01*
X7891491Y-14796388D02*
X7881967Y-14815436D01*
X7881967Y-14815436D02*
X7872444Y-14824960D01*
X7872444Y-14824960D02*
X7853396Y-14834484D01*
X7853396Y-14834484D02*
X7834348Y-14834484D01*
X7834348Y-14834484D02*
X7815301Y-14824960D01*
X7815301Y-14824960D02*
X7805777Y-14815436D01*
X7805777Y-14815436D02*
X7796253Y-14796388D01*
X7796253Y-14796388D02*
X7786729Y-14758293D01*
X7786729Y-14758293D02*
X7786729Y-14710674D01*
X7786729Y-14710674D02*
X7796253Y-14672579D01*
X7796253Y-14672579D02*
X7805777Y-14653531D01*
X7805777Y-14653531D02*
X7815301Y-14644008D01*
X7815301Y-14644008D02*
X7834348Y-14634484D01*
X8081967Y-14634484D02*
X7986729Y-14634484D01*
X7986729Y-14634484D02*
X7977206Y-14729722D01*
X7977206Y-14729722D02*
X7986729Y-14720198D01*
X7986729Y-14720198D02*
X8005777Y-14710674D01*
X8005777Y-14710674D02*
X8053396Y-14710674D01*
X8053396Y-14710674D02*
X8072444Y-14720198D01*
X8072444Y-14720198D02*
X8081967Y-14729722D01*
X8081967Y-14729722D02*
X8091491Y-14748769D01*
X8091491Y-14748769D02*
X8091491Y-14796388D01*
X8091491Y-14796388D02*
X8081967Y-14815436D01*
X8081967Y-14815436D02*
X8072444Y-14824960D01*
X8072444Y-14824960D02*
X8053396Y-14834484D01*
X8053396Y-14834484D02*
X8005777Y-14834484D01*
X8005777Y-14834484D02*
X7986729Y-14824960D01*
X7986729Y-14824960D02*
X7977206Y-14815436D01*
X8281967Y-14834484D02*
X8167682Y-14834484D01*
X8224825Y-14834484D02*
X8224825Y-14634484D01*
X8224825Y-14634484D02*
X8205777Y-14663055D01*
X8205777Y-14663055D02*
X8186729Y-14682103D01*
X8186729Y-14682103D02*
X8167682Y-14691627D01*
X8358158Y-14653531D02*
X8367682Y-14644008D01*
X8367682Y-14644008D02*
X8386729Y-14634484D01*
X8386729Y-14634484D02*
X8434349Y-14634484D01*
X8434349Y-14634484D02*
X8453396Y-14644008D01*
X8453396Y-14644008D02*
X8462920Y-14653531D01*
X8462920Y-14653531D02*
X8472444Y-14672579D01*
X8472444Y-14672579D02*
X8472444Y-14691627D01*
X8472444Y-14691627D02*
X8462920Y-14720198D01*
X8462920Y-14720198D02*
X8348634Y-14834484D01*
X8348634Y-14834484D02*
X8472444Y-14834484D01*
X8548634Y-14634484D02*
X8548634Y-14672579D01*
X8624825Y-14634484D02*
X8624825Y-14672579D01*
X8920063Y-14910674D02*
X8910539Y-14901150D01*
X8910539Y-14901150D02*
X8891491Y-14872579D01*
X8891491Y-14872579D02*
X8881968Y-14853531D01*
X8881968Y-14853531D02*
X8872444Y-14824960D01*
X8872444Y-14824960D02*
X8862920Y-14777341D01*
X8862920Y-14777341D02*
X8862920Y-14739246D01*
X8862920Y-14739246D02*
X8872444Y-14691627D01*
X8872444Y-14691627D02*
X8881968Y-14663055D01*
X8881968Y-14663055D02*
X8891491Y-14644008D01*
X8891491Y-14644008D02*
X8910539Y-14615436D01*
X8910539Y-14615436D02*
X8920063Y-14605912D01*
X9081968Y-14701150D02*
X9081968Y-14834484D01*
X9034349Y-14624960D02*
X8986730Y-14767817D01*
X8986730Y-14767817D02*
X9110539Y-14767817D01*
X9339111Y-14834484D02*
X9339111Y-14634484D01*
X9424825Y-14834484D02*
X9424825Y-14729722D01*
X9424825Y-14729722D02*
X9415301Y-14710674D01*
X9415301Y-14710674D02*
X9396253Y-14701150D01*
X9396253Y-14701150D02*
X9367682Y-14701150D01*
X9367682Y-14701150D02*
X9348634Y-14710674D01*
X9348634Y-14710674D02*
X9339111Y-14720198D01*
X9548634Y-14834484D02*
X9529587Y-14824960D01*
X9529587Y-14824960D02*
X9520063Y-14815436D01*
X9520063Y-14815436D02*
X9510539Y-14796388D01*
X9510539Y-14796388D02*
X9510539Y-14739246D01*
X9510539Y-14739246D02*
X9520063Y-14720198D01*
X9520063Y-14720198D02*
X9529587Y-14710674D01*
X9529587Y-14710674D02*
X9548634Y-14701150D01*
X9548634Y-14701150D02*
X9577206Y-14701150D01*
X9577206Y-14701150D02*
X9596253Y-14710674D01*
X9596253Y-14710674D02*
X9605777Y-14720198D01*
X9605777Y-14720198D02*
X9615301Y-14739246D01*
X9615301Y-14739246D02*
X9615301Y-14796388D01*
X9615301Y-14796388D02*
X9605777Y-14815436D01*
X9605777Y-14815436D02*
X9596253Y-14824960D01*
X9596253Y-14824960D02*
X9577206Y-14834484D01*
X9577206Y-14834484D02*
X9548634Y-14834484D01*
X9729587Y-14834484D02*
X9710539Y-14824960D01*
X9710539Y-14824960D02*
X9701015Y-14805912D01*
X9701015Y-14805912D02*
X9701015Y-14634484D01*
X9881968Y-14824960D02*
X9862920Y-14834484D01*
X9862920Y-14834484D02*
X9824825Y-14834484D01*
X9824825Y-14834484D02*
X9805777Y-14824960D01*
X9805777Y-14824960D02*
X9796253Y-14805912D01*
X9796253Y-14805912D02*
X9796253Y-14729722D01*
X9796253Y-14729722D02*
X9805777Y-14710674D01*
X9805777Y-14710674D02*
X9824825Y-14701150D01*
X9824825Y-14701150D02*
X9862920Y-14701150D01*
X9862920Y-14701150D02*
X9881968Y-14710674D01*
X9881968Y-14710674D02*
X9891492Y-14729722D01*
X9891492Y-14729722D02*
X9891492Y-14748769D01*
X9891492Y-14748769D02*
X9796253Y-14767817D01*
X9967682Y-14824960D02*
X9986730Y-14834484D01*
X9986730Y-14834484D02*
X10024825Y-14834484D01*
X10024825Y-14834484D02*
X10043873Y-14824960D01*
X10043873Y-14824960D02*
X10053396Y-14805912D01*
X10053396Y-14805912D02*
X10053396Y-14796388D01*
X10053396Y-14796388D02*
X10043873Y-14777341D01*
X10043873Y-14777341D02*
X10024825Y-14767817D01*
X10024825Y-14767817D02*
X9996253Y-14767817D01*
X9996253Y-14767817D02*
X9977206Y-14758293D01*
X9977206Y-14758293D02*
X9967682Y-14739246D01*
X9967682Y-14739246D02*
X9967682Y-14729722D01*
X9967682Y-14729722D02*
X9977206Y-14710674D01*
X9977206Y-14710674D02*
X9996253Y-14701150D01*
X9996253Y-14701150D02*
X10024825Y-14701150D01*
X10024825Y-14701150D02*
X10043873Y-14710674D01*
X10120063Y-14910674D02*
X10129587Y-14901150D01*
X10129587Y-14901150D02*
X10148634Y-14872579D01*
X10148634Y-14872579D02*
X10158158Y-14853531D01*
X10158158Y-14853531D02*
X10167682Y-14824960D01*
X10167682Y-14824960D02*
X10177206Y-14777341D01*
X10177206Y-14777341D02*
X10177206Y-14739246D01*
X10177206Y-14739246D02*
X10167682Y-14691627D01*
X10167682Y-14691627D02*
X10158158Y-14663055D01*
X10158158Y-14663055D02*
X10148634Y-14644008D01*
X10148634Y-14644008D02*
X10129587Y-14615436D01*
X10129587Y-14615436D02*
X10120063Y-14605912D01*
X5145000Y-14907000D02*
X5345000Y-15107000D01*
X5345000Y-14907000D02*
X5145000Y-15107000D01*
X5245000Y-15107000D02*
X5345000Y-15007000D01*
X5245000Y-14907000D01*
X5145000Y-15007000D01*
X5245000Y-15107000D01*
X5586729Y-14898484D02*
X5710539Y-14898484D01*
X5710539Y-14898484D02*
X5643872Y-14974674D01*
X5643872Y-14974674D02*
X5672443Y-14974674D01*
X5672443Y-14974674D02*
X5691491Y-14984198D01*
X5691491Y-14984198D02*
X5701015Y-14993722D01*
X5701015Y-14993722D02*
X5710539Y-15012769D01*
X5710539Y-15012769D02*
X5710539Y-15060388D01*
X5710539Y-15060388D02*
X5701015Y-15079436D01*
X5701015Y-15079436D02*
X5691491Y-15088960D01*
X5691491Y-15088960D02*
X5672443Y-15098484D01*
X5672443Y-15098484D02*
X5615301Y-15098484D01*
X5615301Y-15098484D02*
X5596253Y-15088960D01*
X5596253Y-15088960D02*
X5586729Y-15079436D01*
X5796253Y-15079436D02*
X5805777Y-15088960D01*
X5805777Y-15088960D02*
X5796253Y-15098484D01*
X5796253Y-15098484D02*
X5786729Y-15088960D01*
X5786729Y-15088960D02*
X5796253Y-15079436D01*
X5796253Y-15079436D02*
X5796253Y-15098484D01*
X5881967Y-14917531D02*
X5891491Y-14908008D01*
X5891491Y-14908008D02*
X5910539Y-14898484D01*
X5910539Y-14898484D02*
X5958158Y-14898484D01*
X5958158Y-14898484D02*
X5977205Y-14908008D01*
X5977205Y-14908008D02*
X5986729Y-14917531D01*
X5986729Y-14917531D02*
X5996253Y-14936579D01*
X5996253Y-14936579D02*
X5996253Y-14955627D01*
X5996253Y-14955627D02*
X5986729Y-14984198D01*
X5986729Y-14984198D02*
X5872443Y-15098484D01*
X5872443Y-15098484D02*
X5996253Y-15098484D01*
X6120062Y-14898484D02*
X6139110Y-14898484D01*
X6139110Y-14898484D02*
X6158158Y-14908008D01*
X6158158Y-14908008D02*
X6167682Y-14917531D01*
X6167682Y-14917531D02*
X6177205Y-14936579D01*
X6177205Y-14936579D02*
X6186729Y-14974674D01*
X6186729Y-14974674D02*
X6186729Y-15022293D01*
X6186729Y-15022293D02*
X6177205Y-15060388D01*
X6177205Y-15060388D02*
X6167682Y-15079436D01*
X6167682Y-15079436D02*
X6158158Y-15088960D01*
X6158158Y-15088960D02*
X6139110Y-15098484D01*
X6139110Y-15098484D02*
X6120062Y-15098484D01*
X6120062Y-15098484D02*
X6101015Y-15088960D01*
X6101015Y-15088960D02*
X6091491Y-15079436D01*
X6091491Y-15079436D02*
X6081967Y-15060388D01*
X6081967Y-15060388D02*
X6072443Y-15022293D01*
X6072443Y-15022293D02*
X6072443Y-14974674D01*
X6072443Y-14974674D02*
X6081967Y-14936579D01*
X6081967Y-14936579D02*
X6091491Y-14917531D01*
X6091491Y-14917531D02*
X6101015Y-14908008D01*
X6101015Y-14908008D02*
X6120062Y-14898484D01*
X6310539Y-14898484D02*
X6329586Y-14898484D01*
X6329586Y-14898484D02*
X6348634Y-14908008D01*
X6348634Y-14908008D02*
X6358158Y-14917531D01*
X6358158Y-14917531D02*
X6367682Y-14936579D01*
X6367682Y-14936579D02*
X6377205Y-14974674D01*
X6377205Y-14974674D02*
X6377205Y-15022293D01*
X6377205Y-15022293D02*
X6367682Y-15060388D01*
X6367682Y-15060388D02*
X6358158Y-15079436D01*
X6358158Y-15079436D02*
X6348634Y-15088960D01*
X6348634Y-15088960D02*
X6329586Y-15098484D01*
X6329586Y-15098484D02*
X6310539Y-15098484D01*
X6310539Y-15098484D02*
X6291491Y-15088960D01*
X6291491Y-15088960D02*
X6281967Y-15079436D01*
X6281967Y-15079436D02*
X6272443Y-15060388D01*
X6272443Y-15060388D02*
X6262920Y-15022293D01*
X6262920Y-15022293D02*
X6262920Y-14974674D01*
X6262920Y-14974674D02*
X6272443Y-14936579D01*
X6272443Y-14936579D02*
X6281967Y-14917531D01*
X6281967Y-14917531D02*
X6291491Y-14908008D01*
X6291491Y-14908008D02*
X6310539Y-14898484D01*
X6462920Y-15098484D02*
X6462920Y-14965150D01*
X6462920Y-14984198D02*
X6472443Y-14974674D01*
X6472443Y-14974674D02*
X6491491Y-14965150D01*
X6491491Y-14965150D02*
X6520063Y-14965150D01*
X6520063Y-14965150D02*
X6539110Y-14974674D01*
X6539110Y-14974674D02*
X6548634Y-14993722D01*
X6548634Y-14993722D02*
X6548634Y-15098484D01*
X6548634Y-14993722D02*
X6558158Y-14974674D01*
X6558158Y-14974674D02*
X6577205Y-14965150D01*
X6577205Y-14965150D02*
X6605777Y-14965150D01*
X6605777Y-14965150D02*
X6624824Y-14974674D01*
X6624824Y-14974674D02*
X6634348Y-14993722D01*
X6634348Y-14993722D02*
X6634348Y-15098484D01*
X6729586Y-15098484D02*
X6729586Y-14965150D01*
X6729586Y-14984198D02*
X6739110Y-14974674D01*
X6739110Y-14974674D02*
X6758158Y-14965150D01*
X6758158Y-14965150D02*
X6786729Y-14965150D01*
X6786729Y-14965150D02*
X6805777Y-14974674D01*
X6805777Y-14974674D02*
X6815301Y-14993722D01*
X6815301Y-14993722D02*
X6815301Y-15098484D01*
X6815301Y-14993722D02*
X6824824Y-14974674D01*
X6824824Y-14974674D02*
X6843872Y-14965150D01*
X6843872Y-14965150D02*
X6872443Y-14965150D01*
X6872443Y-14965150D02*
X6891491Y-14974674D01*
X6891491Y-14974674D02*
X6901015Y-14993722D01*
X6901015Y-14993722D02*
X6901015Y-15098484D01*
X7291491Y-14888960D02*
X7120063Y-15146103D01*
X7548634Y-14898484D02*
X7567682Y-14898484D01*
X7567682Y-14898484D02*
X7586729Y-14908008D01*
X7586729Y-14908008D02*
X7596253Y-14917531D01*
X7596253Y-14917531D02*
X7605777Y-14936579D01*
X7605777Y-14936579D02*
X7615301Y-14974674D01*
X7615301Y-14974674D02*
X7615301Y-15022293D01*
X7615301Y-15022293D02*
X7605777Y-15060388D01*
X7605777Y-15060388D02*
X7596253Y-15079436D01*
X7596253Y-15079436D02*
X7586729Y-15088960D01*
X7586729Y-15088960D02*
X7567682Y-15098484D01*
X7567682Y-15098484D02*
X7548634Y-15098484D01*
X7548634Y-15098484D02*
X7529586Y-15088960D01*
X7529586Y-15088960D02*
X7520063Y-15079436D01*
X7520063Y-15079436D02*
X7510539Y-15060388D01*
X7510539Y-15060388D02*
X7501015Y-15022293D01*
X7501015Y-15022293D02*
X7501015Y-14974674D01*
X7501015Y-14974674D02*
X7510539Y-14936579D01*
X7510539Y-14936579D02*
X7520063Y-14917531D01*
X7520063Y-14917531D02*
X7529586Y-14908008D01*
X7529586Y-14908008D02*
X7548634Y-14898484D01*
X7701015Y-15079436D02*
X7710539Y-15088960D01*
X7710539Y-15088960D02*
X7701015Y-15098484D01*
X7701015Y-15098484D02*
X7691491Y-15088960D01*
X7691491Y-15088960D02*
X7701015Y-15079436D01*
X7701015Y-15079436D02*
X7701015Y-15098484D01*
X7901015Y-15098484D02*
X7786729Y-15098484D01*
X7843872Y-15098484D02*
X7843872Y-14898484D01*
X7843872Y-14898484D02*
X7824825Y-14927055D01*
X7824825Y-14927055D02*
X7805777Y-14946103D01*
X7805777Y-14946103D02*
X7786729Y-14955627D01*
X7977206Y-14917531D02*
X7986729Y-14908008D01*
X7986729Y-14908008D02*
X8005777Y-14898484D01*
X8005777Y-14898484D02*
X8053396Y-14898484D01*
X8053396Y-14898484D02*
X8072444Y-14908008D01*
X8072444Y-14908008D02*
X8081967Y-14917531D01*
X8081967Y-14917531D02*
X8091491Y-14936579D01*
X8091491Y-14936579D02*
X8091491Y-14955627D01*
X8091491Y-14955627D02*
X8081967Y-14984198D01*
X8081967Y-14984198D02*
X7967682Y-15098484D01*
X7967682Y-15098484D02*
X8091491Y-15098484D01*
X8262920Y-14898484D02*
X8224825Y-14898484D01*
X8224825Y-14898484D02*
X8205777Y-14908008D01*
X8205777Y-14908008D02*
X8196253Y-14917531D01*
X8196253Y-14917531D02*
X8177206Y-14946103D01*
X8177206Y-14946103D02*
X8167682Y-14984198D01*
X8167682Y-14984198D02*
X8167682Y-15060388D01*
X8167682Y-15060388D02*
X8177206Y-15079436D01*
X8177206Y-15079436D02*
X8186729Y-15088960D01*
X8186729Y-15088960D02*
X8205777Y-15098484D01*
X8205777Y-15098484D02*
X8243872Y-15098484D01*
X8243872Y-15098484D02*
X8262920Y-15088960D01*
X8262920Y-15088960D02*
X8272444Y-15079436D01*
X8272444Y-15079436D02*
X8281967Y-15060388D01*
X8281967Y-15060388D02*
X8281967Y-15012769D01*
X8281967Y-15012769D02*
X8272444Y-14993722D01*
X8272444Y-14993722D02*
X8262920Y-14984198D01*
X8262920Y-14984198D02*
X8243872Y-14974674D01*
X8243872Y-14974674D02*
X8205777Y-14974674D01*
X8205777Y-14974674D02*
X8186729Y-14984198D01*
X8186729Y-14984198D02*
X8177206Y-14993722D01*
X8177206Y-14993722D02*
X8167682Y-15012769D01*
X8405777Y-14898484D02*
X8424825Y-14898484D01*
X8424825Y-14898484D02*
X8443872Y-14908008D01*
X8443872Y-14908008D02*
X8453396Y-14917531D01*
X8453396Y-14917531D02*
X8462920Y-14936579D01*
X8462920Y-14936579D02*
X8472444Y-14974674D01*
X8472444Y-14974674D02*
X8472444Y-15022293D01*
X8472444Y-15022293D02*
X8462920Y-15060388D01*
X8462920Y-15060388D02*
X8453396Y-15079436D01*
X8453396Y-15079436D02*
X8443872Y-15088960D01*
X8443872Y-15088960D02*
X8424825Y-15098484D01*
X8424825Y-15098484D02*
X8405777Y-15098484D01*
X8405777Y-15098484D02*
X8386729Y-15088960D01*
X8386729Y-15088960D02*
X8377206Y-15079436D01*
X8377206Y-15079436D02*
X8367682Y-15060388D01*
X8367682Y-15060388D02*
X8358158Y-15022293D01*
X8358158Y-15022293D02*
X8358158Y-14974674D01*
X8358158Y-14974674D02*
X8367682Y-14936579D01*
X8367682Y-14936579D02*
X8377206Y-14917531D01*
X8377206Y-14917531D02*
X8386729Y-14908008D01*
X8386729Y-14908008D02*
X8405777Y-14898484D01*
X8548634Y-14898484D02*
X8548634Y-14936579D01*
X8624825Y-14898484D02*
X8624825Y-14936579D01*
X8920063Y-15174674D02*
X8910539Y-15165150D01*
X8910539Y-15165150D02*
X8891491Y-15136579D01*
X8891491Y-15136579D02*
X8881968Y-15117531D01*
X8881968Y-15117531D02*
X8872444Y-15088960D01*
X8872444Y-15088960D02*
X8862920Y-15041341D01*
X8862920Y-15041341D02*
X8862920Y-15003246D01*
X8862920Y-15003246D02*
X8872444Y-14955627D01*
X8872444Y-14955627D02*
X8881968Y-14927055D01*
X8881968Y-14927055D02*
X8891491Y-14908008D01*
X8891491Y-14908008D02*
X8910539Y-14879436D01*
X8910539Y-14879436D02*
X8920063Y-14869912D01*
X9101015Y-15098484D02*
X8986730Y-15098484D01*
X9043872Y-15098484D02*
X9043872Y-14898484D01*
X9043872Y-14898484D02*
X9024825Y-14927055D01*
X9024825Y-14927055D02*
X9005777Y-14946103D01*
X9005777Y-14946103D02*
X8986730Y-14955627D01*
X9339111Y-15098484D02*
X9339111Y-14898484D01*
X9424825Y-15098484D02*
X9424825Y-14993722D01*
X9424825Y-14993722D02*
X9415301Y-14974674D01*
X9415301Y-14974674D02*
X9396253Y-14965150D01*
X9396253Y-14965150D02*
X9367682Y-14965150D01*
X9367682Y-14965150D02*
X9348634Y-14974674D01*
X9348634Y-14974674D02*
X9339111Y-14984198D01*
X9548634Y-15098484D02*
X9529587Y-15088960D01*
X9529587Y-15088960D02*
X9520063Y-15079436D01*
X9520063Y-15079436D02*
X9510539Y-15060388D01*
X9510539Y-15060388D02*
X9510539Y-15003246D01*
X9510539Y-15003246D02*
X9520063Y-14984198D01*
X9520063Y-14984198D02*
X9529587Y-14974674D01*
X9529587Y-14974674D02*
X9548634Y-14965150D01*
X9548634Y-14965150D02*
X9577206Y-14965150D01*
X9577206Y-14965150D02*
X9596253Y-14974674D01*
X9596253Y-14974674D02*
X9605777Y-14984198D01*
X9605777Y-14984198D02*
X9615301Y-15003246D01*
X9615301Y-15003246D02*
X9615301Y-15060388D01*
X9615301Y-15060388D02*
X9605777Y-15079436D01*
X9605777Y-15079436D02*
X9596253Y-15088960D01*
X9596253Y-15088960D02*
X9577206Y-15098484D01*
X9577206Y-15098484D02*
X9548634Y-15098484D01*
X9729587Y-15098484D02*
X9710539Y-15088960D01*
X9710539Y-15088960D02*
X9701015Y-15069912D01*
X9701015Y-15069912D02*
X9701015Y-14898484D01*
X9881968Y-15088960D02*
X9862920Y-15098484D01*
X9862920Y-15098484D02*
X9824825Y-15098484D01*
X9824825Y-15098484D02*
X9805777Y-15088960D01*
X9805777Y-15088960D02*
X9796253Y-15069912D01*
X9796253Y-15069912D02*
X9796253Y-14993722D01*
X9796253Y-14993722D02*
X9805777Y-14974674D01*
X9805777Y-14974674D02*
X9824825Y-14965150D01*
X9824825Y-14965150D02*
X9862920Y-14965150D01*
X9862920Y-14965150D02*
X9881968Y-14974674D01*
X9881968Y-14974674D02*
X9891492Y-14993722D01*
X9891492Y-14993722D02*
X9891492Y-15012769D01*
X9891492Y-15012769D02*
X9796253Y-15031817D01*
X9958158Y-15174674D02*
X9967682Y-15165150D01*
X9967682Y-15165150D02*
X9986730Y-15136579D01*
X9986730Y-15136579D02*
X9996253Y-15117531D01*
X9996253Y-15117531D02*
X10005777Y-15088960D01*
X10005777Y-15088960D02*
X10015301Y-15041341D01*
X10015301Y-15041341D02*
X10015301Y-15003246D01*
X10015301Y-15003246D02*
X10005777Y-14955627D01*
X10005777Y-14955627D02*
X9996253Y-14927055D01*
X9996253Y-14927055D02*
X9986730Y-14908008D01*
X9986730Y-14908008D02*
X9967682Y-14879436D01*
X9967682Y-14879436D02*
X9958158Y-14869912D01*
M02*
