M48
; DRILL file {KiCad 8.0.3} date 2024-07-03T22:45:54+0100
; FORMAT={-:-/ absolute / metric / decimal}
; #@! TF.CreationDate,2024-07-03T22:45:54+01:00
; #@! TF.GenerationSoftware,Kicad,Pcbnew,8.0.3
; #@! TF.FileFunction,Plated,1,2,PTH
FMAT,2
METRIC
; #@! TA.AperFunction,Plated,PTH,ComponentDrill
T1C0.600
; #@! TA.AperFunction,Plated,PTH,ComponentDrill
T2C0.750
; #@! TA.AperFunction,Plated,PTH,ComponentDrill
T3C0.762
; #@! TA.AperFunction,Plated,PTH,ComponentDrill
T4C0.800
; #@! TA.AperFunction,Plated,PTH,ComponentDrill
T5C0.950
; #@! TA.AperFunction,Plated,PTH,ComponentDrill
T6C1.000
; #@! TA.AperFunction,Plated,PTH,ComponentDrill
T7C1.100
; #@! TA.AperFunction,Plated,PTH,ComponentDrill
T8C1.300
; #@! TA.AperFunction,Plated,PTH,ComponentDrill
T9C3.200
%
G90
G05
T1
X111.76Y-70.358
X111.76Y-72.358
T2
X102.108Y-74.93
X102.108Y-76.2
X102.108Y-77.47
T3
X82.605Y-70.25
X82.605Y-72.79
X82.605Y-75.33
X82.605Y-77.87
X82.605Y-80.41
X82.605Y-82.95
X82.605Y-85.49
X82.605Y-88.03
X82.605Y-90.57
X97.845Y-70.25
X97.845Y-72.79
X97.845Y-75.33
X97.845Y-77.87
X97.845Y-80.41
X97.845Y-82.95
X97.845Y-85.49
X97.845Y-88.03
X97.845Y-90.57
T4
X57.15Y-78.74
X64.77Y-78.74
X69.85Y-69.85
X69.85Y-72.39
X69.85Y-74.93
X69.85Y-77.47
X69.85Y-80.01
X69.85Y-82.55
X69.85Y-85.09
X73.66Y-89.215
X73.66Y-91.215
X77.47Y-69.85
X77.47Y-72.39
X77.47Y-74.93
X77.47Y-77.47
X77.47Y-80.01
X77.47Y-82.55
X77.47Y-85.09
X101.6Y-82.55
X101.6Y-90.17
X104.85Y-82.55
X104.85Y-90.17
X128.524Y-72.898
X128.524Y-77.724
X136.144Y-72.898
X136.144Y-77.724
T5
X57.27Y-71.12
X57.27Y-85.09
X58.46Y-96.774
X59.77Y-71.12
X59.77Y-85.09
X60.96Y-96.774
X62.27Y-71.12
X62.27Y-85.09
X63.46Y-96.774
X64.77Y-71.12
X64.77Y-85.09
X85.678Y-96.774
X85.678Y-106.68
X88.178Y-96.774
X88.178Y-106.68
X90.678Y-96.774
X90.678Y-106.68
X119.38Y-96.774
X121.88Y-96.774
X124.38Y-96.774
X126.88Y-96.774
X134.85Y-88.9
X134.85Y-91.4
X134.85Y-93.9
X134.85Y-96.4
T6
X72.43Y-96.774
X74.93Y-96.774
X99.1Y-96.774
X99.1Y-106.68
X101.6Y-96.774
X101.6Y-106.68
X109.474Y-96.774
X111.974Y-96.774
X121.666Y-72.136
X121.666Y-82.042
X121.706Y-89.408
X124.166Y-72.136
X124.166Y-82.042
X124.206Y-89.408
T7
X106.934Y-77.724
X117.094Y-77.724
T8
X85.852Y-116.332
X90.852Y-116.332
X98.044Y-116.332
X103.044Y-116.332
T9
X113.5Y-84.625
M30
