%TF.GenerationSoftware,KiCad,Pcbnew,7.0.7*%
%TF.CreationDate,2023-10-18T20:08:27+01:00*%
%TF.ProjectId,Wand Board,57616e64-2042-46f6-9172-642e6b696361,rev?*%
%TF.SameCoordinates,Original*%
%TF.FileFunction,Copper,L1,Top*%
%TF.FilePolarity,Positive*%
%FSLAX46Y46*%
G04 Gerber Fmt 4.6, Leading zero omitted, Abs format (unit mm)*
G04 Created by KiCad (PCBNEW 7.0.7) date 2023-10-18 20:08:27*
%MOMM*%
%LPD*%
G01*
G04 APERTURE LIST*
G04 Aperture macros list*
%AMRoundRect*
0 Rectangle with rounded corners*
0 $1 Rounding radius*
0 $2 $3 $4 $5 $6 $7 $8 $9 X,Y pos of 4 corners*
0 Add a 4 corners polygon primitive as box body*
4,1,4,$2,$3,$4,$5,$6,$7,$8,$9,$2,$3,0*
0 Add four circle primitives for the rounded corners*
1,1,$1+$1,$2,$3*
1,1,$1+$1,$4,$5*
1,1,$1+$1,$6,$7*
1,1,$1+$1,$8,$9*
0 Add four rect primitives between the rounded corners*
20,1,$1+$1,$2,$3,$4,$5,0*
20,1,$1+$1,$4,$5,$6,$7,0*
20,1,$1+$1,$6,$7,$8,$9,0*
20,1,$1+$1,$8,$9,$2,$3,0*%
G04 Aperture macros list end*
%TA.AperFunction,ComponentPad*%
%ADD10C,1.600000*%
%TD*%
%TA.AperFunction,ComponentPad*%
%ADD11RoundRect,0.250000X-0.600000X-0.725000X0.600000X-0.725000X0.600000X0.725000X-0.600000X0.725000X0*%
%TD*%
%TA.AperFunction,ComponentPad*%
%ADD12O,1.700000X1.950000*%
%TD*%
%TA.AperFunction,ComponentPad*%
%ADD13O,1.600000X1.600000*%
%TD*%
%TA.AperFunction,ComponentPad*%
%ADD14R,2.600000X2.600000*%
%TD*%
%TA.AperFunction,ComponentPad*%
%ADD15C,2.600000*%
%TD*%
%TA.AperFunction,ComponentPad*%
%ADD16RoundRect,0.250000X-0.725000X0.600000X-0.725000X-0.600000X0.725000X-0.600000X0.725000X0.600000X0*%
%TD*%
%TA.AperFunction,ComponentPad*%
%ADD17O,1.950000X1.700000*%
%TD*%
%TA.AperFunction,ComponentPad*%
%ADD18RoundRect,0.250000X-0.750000X0.600000X-0.750000X-0.600000X0.750000X-0.600000X0.750000X0.600000X0*%
%TD*%
%TA.AperFunction,ComponentPad*%
%ADD19O,2.000000X1.700000*%
%TD*%
%TA.AperFunction,ComponentPad*%
%ADD20R,1.600000X1.600000*%
%TD*%
%TA.AperFunction,ComponentPad*%
%ADD21RoundRect,0.250000X-0.600000X-0.750000X0.600000X-0.750000X0.600000X0.750000X-0.600000X0.750000X0*%
%TD*%
%TA.AperFunction,ComponentPad*%
%ADD22O,1.700000X2.000000*%
%TD*%
%TA.AperFunction,ComponentPad*%
%ADD23C,6.400000*%
%TD*%
%TA.AperFunction,Conductor*%
%ADD24C,0.600000*%
%TD*%
%TA.AperFunction,Conductor*%
%ADD25C,0.250000*%
%TD*%
G04 APERTURE END LIST*
D10*
X82880000Y-76180000D03*
X82880000Y-78720000D03*
X82880000Y-81260000D03*
X82880000Y-83800000D03*
X82880000Y-86340000D03*
X82880000Y-88880000D03*
X82880000Y-91420000D03*
X82880000Y-93960000D03*
X82880000Y-96500000D03*
X82880000Y-99040000D03*
X82880000Y-101580000D03*
X82880000Y-104120000D03*
X82880000Y-106660000D03*
X82880000Y-109200000D03*
X98120000Y-109200000D03*
X98120000Y-106660000D03*
X98120000Y-104120000D03*
X98120000Y-101580000D03*
X98120000Y-99040000D03*
X98120000Y-96500000D03*
X98120000Y-93960000D03*
X98120000Y-91420000D03*
X98120000Y-88880000D03*
X98120000Y-86340000D03*
X98120000Y-83800000D03*
X98120000Y-81260000D03*
X98120000Y-78720000D03*
X98120000Y-76180000D03*
X91645000Y-76820000D03*
X89355000Y-76820000D03*
D11*
X57230000Y-96503000D03*
D12*
X59730000Y-96503000D03*
X62230000Y-96503000D03*
D11*
X57230000Y-72644000D03*
D12*
X59730000Y-72644000D03*
X62230000Y-72644000D03*
D10*
X67056000Y-77216000D03*
D13*
X67056000Y-69596000D03*
D11*
X102696000Y-77724000D03*
D12*
X105196000Y-77724000D03*
X107696000Y-77724000D03*
D10*
X67056000Y-88900000D03*
D13*
X67056000Y-81280000D03*
D10*
X127508000Y-73000000D03*
D13*
X127508000Y-80620000D03*
D14*
X98500000Y-116500000D03*
D15*
X103500000Y-116500000D03*
D16*
X134770000Y-73054000D03*
D17*
X134770000Y-75554000D03*
X134770000Y-78054000D03*
X134770000Y-80554000D03*
D18*
X103632000Y-105000000D03*
D19*
X103632000Y-107500000D03*
D10*
X67056000Y-100584000D03*
D13*
X67056000Y-92964000D03*
D11*
X57230000Y-84582000D03*
D12*
X59730000Y-84582000D03*
X62230000Y-84582000D03*
D20*
X74676000Y-91408000D03*
D10*
X74676000Y-89408000D03*
D18*
X122500000Y-87500000D03*
D19*
X122500000Y-90000000D03*
D11*
X102656000Y-98044000D03*
D12*
X105156000Y-98044000D03*
X107656000Y-98044000D03*
D10*
X127508000Y-96620000D03*
D13*
X127508000Y-89000000D03*
D18*
X122500000Y-79000000D03*
D19*
X122500000Y-81500000D03*
D21*
X86868000Y-69596000D03*
D22*
X89368000Y-69596000D03*
D16*
X134620000Y-88900000D03*
D17*
X134620000Y-91400000D03*
X134620000Y-93900000D03*
X134620000Y-96400000D03*
D18*
X122500000Y-70500000D03*
D19*
X122500000Y-73000000D03*
D20*
X78740000Y-85344000D03*
D13*
X78740000Y-82804000D03*
X78740000Y-80264000D03*
X78740000Y-77724000D03*
X78740000Y-75184000D03*
X78740000Y-72644000D03*
X78740000Y-70104000D03*
X71120000Y-70104000D03*
X71120000Y-72644000D03*
X71120000Y-75184000D03*
X71120000Y-77724000D03*
X71120000Y-80264000D03*
X71120000Y-82804000D03*
X71120000Y-85344000D03*
D18*
X122500000Y-96000000D03*
D19*
X122500000Y-98500000D03*
D21*
X73192000Y-96520000D03*
D22*
X75692000Y-96520000D03*
D14*
X85500000Y-116500000D03*
D15*
X90500000Y-116500000D03*
D23*
X113500000Y-84625000D03*
D24*
X90195200Y-70423200D02*
X89368000Y-69596000D01*
X91645000Y-76820000D02*
X90195200Y-75370200D01*
X90195200Y-75370200D02*
X90195200Y-70423200D01*
X88214000Y-70942000D02*
X88214000Y-75679000D01*
X88214000Y-75679000D02*
X89355000Y-76820000D01*
X86868000Y-69596000D02*
X88214000Y-70942000D01*
X59730000Y-84582000D02*
X59730000Y-72644000D01*
X59730000Y-86313000D02*
X59730000Y-84582000D01*
X81000000Y-71000000D02*
X84500000Y-67500000D01*
X64825000Y-91408000D02*
X59730000Y-96503000D01*
X91500000Y-67500000D02*
X98120000Y-74120000D01*
X64825000Y-91408000D02*
X59730000Y-86313000D01*
X98044000Y-76180000D02*
X95500000Y-78724000D01*
X102500000Y-116500000D02*
X103500000Y-116500000D01*
X77092000Y-91408000D02*
X81000000Y-87500000D01*
X95500000Y-109500000D02*
X102500000Y-116500000D01*
X74676000Y-91408000D02*
X64825000Y-91408000D01*
X84500000Y-67500000D02*
X91500000Y-67500000D01*
X74676000Y-91408000D02*
X74408000Y-91408000D01*
X71120000Y-88120000D02*
X71120000Y-85344000D01*
X95500000Y-78724000D02*
X95500000Y-109500000D01*
X74676000Y-91408000D02*
X77092000Y-91408000D01*
X98120000Y-74120000D02*
X98120000Y-76180000D01*
X74408000Y-91408000D02*
X71120000Y-88120000D01*
X81000000Y-87500000D02*
X81000000Y-71000000D01*
X103000000Y-75000000D02*
X105196000Y-77196000D01*
X78740000Y-77724000D02*
X76200000Y-77724000D01*
X74676000Y-86360000D02*
X74676000Y-89408000D01*
X76200000Y-75184000D02*
X71120000Y-75184000D01*
X112420000Y-70500000D02*
X122500000Y-70500000D01*
X76200000Y-77724000D02*
X71120000Y-82804000D01*
X98120000Y-78720000D02*
X101840000Y-75000000D01*
X105196000Y-77196000D02*
X105196000Y-77724000D01*
X71120000Y-82804000D02*
X74676000Y-86360000D01*
X78740000Y-77724000D02*
X76200000Y-75184000D01*
X101840000Y-75000000D02*
X103000000Y-75000000D01*
X105196000Y-77724000D02*
X112420000Y-70500000D01*
D25*
X67056000Y-77216000D02*
X62484000Y-72644000D01*
X62484000Y-72644000D02*
X62230000Y-72644000D01*
X62738000Y-84582000D02*
X62230000Y-84582000D01*
X67056000Y-88900000D02*
X62738000Y-84582000D01*
X62975000Y-96503000D02*
X62230000Y-96503000D01*
X67056000Y-100584000D02*
X62975000Y-96503000D01*
X121080000Y-91420000D02*
X122500000Y-90000000D01*
X98120000Y-91420000D02*
X121080000Y-91420000D01*
D24*
X98044000Y-81260000D02*
X101580000Y-77724000D01*
X101580000Y-77724000D02*
X102696000Y-77724000D01*
X134770000Y-75738000D02*
X127508000Y-83000000D01*
X127508000Y-83000000D02*
X127508000Y-85500000D01*
X134620000Y-91400000D02*
X133408000Y-91400000D01*
X105000000Y-80000000D02*
X102724000Y-77724000D01*
X127508000Y-85500000D02*
X126008000Y-84000000D01*
X126008000Y-84000000D02*
X119500000Y-84000000D01*
X133408000Y-91400000D02*
X127508000Y-85500000D01*
X134770000Y-75554000D02*
X134770000Y-75738000D01*
X102724000Y-77724000D02*
X102696000Y-77724000D01*
X127508000Y-85500000D02*
X127508000Y-89000000D01*
X119500000Y-84000000D02*
X115500000Y-80000000D01*
X115500000Y-80000000D02*
X105000000Y-80000000D01*
X127508000Y-80620000D02*
X127508000Y-83000000D01*
D25*
X133000000Y-79824000D02*
X134770000Y-78054000D01*
X136500000Y-87000000D02*
X133000000Y-83500000D01*
X136500000Y-92020000D02*
X136500000Y-87000000D01*
X124000000Y-93000000D02*
X101620000Y-93000000D01*
X134620000Y-93900000D02*
X136500000Y-92020000D01*
X131900000Y-96620000D02*
X134620000Y-93900000D01*
X133000000Y-83500000D02*
X133000000Y-79824000D01*
X124000000Y-93112000D02*
X124000000Y-93000000D01*
X127508000Y-96620000D02*
X124000000Y-93112000D01*
X127508000Y-96620000D02*
X131900000Y-96620000D01*
X101620000Y-93000000D02*
X98120000Y-96500000D01*
X138000000Y-83500000D02*
X137000000Y-82500000D01*
X135588543Y-70500000D02*
X138000000Y-72911457D01*
X130008000Y-70500000D02*
X135588543Y-70500000D01*
X138000000Y-72911457D02*
X138000000Y-83500000D01*
X127508000Y-73000000D02*
X130008000Y-70500000D01*
X135054000Y-80554000D02*
X134770000Y-80554000D01*
X134620000Y-96400000D02*
X138000000Y-93020000D01*
X138000000Y-93020000D02*
X138000000Y-83500000D01*
X137000000Y-82500000D02*
X135054000Y-80554000D01*
%TA.AperFunction,Conductor*%
G36*
X84254592Y-66520185D02*
G01*
X84300347Y-66572989D01*
X84310291Y-66642147D01*
X84281266Y-66705703D01*
X84239112Y-66734339D01*
X84240211Y-66736621D01*
X84196326Y-66757753D01*
X84189901Y-66760414D01*
X84150482Y-66774209D01*
X84150474Y-66774213D01*
X84115117Y-66796428D01*
X84109032Y-66799791D01*
X84071413Y-66817908D01*
X84071411Y-66817909D01*
X84038769Y-66843941D01*
X84033096Y-66847966D01*
X83997739Y-66870183D01*
X83948307Y-66919614D01*
X80480296Y-70387625D01*
X80370183Y-70497739D01*
X80347966Y-70533096D01*
X80343941Y-70538769D01*
X80317910Y-70571410D01*
X80299791Y-70609033D01*
X80296427Y-70615120D01*
X80274212Y-70650476D01*
X80274208Y-70650483D01*
X80260416Y-70689895D01*
X80257755Y-70696320D01*
X80239639Y-70733939D01*
X80230344Y-70774659D01*
X80228419Y-70781341D01*
X80214632Y-70820744D01*
X80209955Y-70862235D01*
X80208791Y-70869089D01*
X80199500Y-70909806D01*
X80199500Y-72137334D01*
X80179815Y-72204373D01*
X80127011Y-72250128D01*
X80057853Y-72260072D01*
X79994297Y-72231047D01*
X79963118Y-72189739D01*
X79961037Y-72185277D01*
X79870568Y-71991266D01*
X79740047Y-71804861D01*
X79740045Y-71804858D01*
X79579141Y-71643954D01*
X79392734Y-71513432D01*
X79392732Y-71513431D01*
X79334725Y-71486382D01*
X79334132Y-71486105D01*
X79281694Y-71439934D01*
X79262542Y-71372740D01*
X79282758Y-71305859D01*
X79334134Y-71261341D01*
X79392484Y-71234132D01*
X79578820Y-71103657D01*
X79739657Y-70942820D01*
X79870134Y-70756482D01*
X79966265Y-70550326D01*
X79966268Y-70550320D01*
X80005475Y-70404000D01*
X79238423Y-70404000D01*
X79171384Y-70384315D01*
X79125629Y-70331511D01*
X79115685Y-70262353D01*
X79123165Y-70238755D01*
X79122150Y-70238426D01*
X79125163Y-70229151D01*
X79125165Y-70229148D01*
X79126664Y-70219685D01*
X79144986Y-70104003D01*
X79144986Y-70103996D01*
X79125166Y-69978856D01*
X79122150Y-69969574D01*
X79124997Y-69968648D01*
X79115043Y-69915611D01*
X79141328Y-69850874D01*
X79198439Y-69810623D01*
X79238423Y-69804000D01*
X80005475Y-69804000D01*
X80005474Y-69803999D01*
X79966268Y-69657679D01*
X79966265Y-69657673D01*
X79870134Y-69451517D01*
X79739657Y-69265179D01*
X79578820Y-69104342D01*
X79392482Y-68973865D01*
X79186326Y-68877734D01*
X79186320Y-68877731D01*
X79040000Y-68838525D01*
X79040000Y-69605577D01*
X79020315Y-69672616D01*
X78967511Y-69718371D01*
X78898353Y-69728315D01*
X78874755Y-69720834D01*
X78874426Y-69721850D01*
X78865144Y-69718833D01*
X78771486Y-69704000D01*
X78771481Y-69704000D01*
X78708519Y-69704000D01*
X78708514Y-69704000D01*
X78614855Y-69718833D01*
X78605574Y-69721850D01*
X78604648Y-69719002D01*
X78551611Y-69728957D01*
X78486874Y-69702672D01*
X78446623Y-69645561D01*
X78440000Y-69605577D01*
X78440000Y-68838525D01*
X78439999Y-68838525D01*
X78293679Y-68877731D01*
X78293673Y-68877734D01*
X78087517Y-68973865D01*
X77901179Y-69104342D01*
X77740342Y-69265179D01*
X77609865Y-69451517D01*
X77513734Y-69657673D01*
X77513731Y-69657679D01*
X77474525Y-69803999D01*
X77474525Y-69804000D01*
X78241577Y-69804000D01*
X78308616Y-69823685D01*
X78354371Y-69876489D01*
X78364315Y-69945647D01*
X78356834Y-69969244D01*
X78357850Y-69969574D01*
X78354833Y-69978856D01*
X78335014Y-70103996D01*
X78335014Y-70104003D01*
X78354833Y-70229143D01*
X78357850Y-70238426D01*
X78355002Y-70239351D01*
X78364957Y-70292389D01*
X78338672Y-70357126D01*
X78281561Y-70397377D01*
X78241577Y-70404000D01*
X77474525Y-70404000D01*
X77513731Y-70550320D01*
X77513734Y-70550326D01*
X77609865Y-70756482D01*
X77740342Y-70942820D01*
X77901179Y-71103657D01*
X78087518Y-71234134D01*
X78087520Y-71234135D01*
X78145865Y-71261342D01*
X78198305Y-71307514D01*
X78217457Y-71374707D01*
X78197242Y-71441589D01*
X78145867Y-71486105D01*
X78087268Y-71513431D01*
X78087264Y-71513433D01*
X77900858Y-71643954D01*
X77739954Y-71804858D01*
X77609432Y-71991265D01*
X77609431Y-71991267D01*
X77513261Y-72197502D01*
X77513258Y-72197511D01*
X77454366Y-72417302D01*
X77454364Y-72417313D01*
X77434532Y-72643998D01*
X77434532Y-72644001D01*
X77454364Y-72870686D01*
X77454366Y-72870697D01*
X77513258Y-73090488D01*
X77513261Y-73090497D01*
X77609431Y-73296732D01*
X77609432Y-73296734D01*
X77739954Y-73483141D01*
X77900858Y-73644045D01*
X77913267Y-73652734D01*
X78087266Y-73774568D01*
X78145275Y-73801618D01*
X78197714Y-73847791D01*
X78216866Y-73914984D01*
X78196650Y-73981865D01*
X78145275Y-74026382D01*
X78087267Y-74053431D01*
X78087265Y-74053432D01*
X77900858Y-74183954D01*
X77739954Y-74344858D01*
X77609432Y-74531265D01*
X77609431Y-74531267D01*
X77513261Y-74737502D01*
X77513258Y-74737511D01*
X77454366Y-74957302D01*
X77454364Y-74957313D01*
X77434532Y-75183998D01*
X77434532Y-75184001D01*
X77454364Y-75410686D01*
X77454366Y-75410697D01*
X77513258Y-75630488D01*
X77513261Y-75630497D01*
X77609431Y-75836732D01*
X77609432Y-75836734D01*
X77739954Y-76023141D01*
X77900858Y-76184045D01*
X77900861Y-76184047D01*
X78087266Y-76314568D01*
X78145865Y-76341893D01*
X78198305Y-76388065D01*
X78217457Y-76455258D01*
X78197242Y-76522139D01*
X78145867Y-76566657D01*
X78087515Y-76593867D01*
X77901179Y-76724342D01*
X77740342Y-76885179D01*
X77609865Y-77071517D01*
X77513734Y-77277673D01*
X77513731Y-77277679D01*
X77474525Y-77423999D01*
X77474525Y-77424000D01*
X78241577Y-77424000D01*
X78308616Y-77443685D01*
X78354371Y-77496489D01*
X78364315Y-77565647D01*
X78356834Y-77589244D01*
X78357850Y-77589574D01*
X78354833Y-77598856D01*
X78335014Y-77723996D01*
X78335014Y-77724003D01*
X78354833Y-77849143D01*
X78357850Y-77858426D01*
X78355002Y-77859351D01*
X78364957Y-77912389D01*
X78338672Y-77977126D01*
X78281561Y-78017377D01*
X78241577Y-78024000D01*
X77474525Y-78024000D01*
X77513731Y-78170320D01*
X77513734Y-78170326D01*
X77609865Y-78376482D01*
X77740342Y-78562820D01*
X77901179Y-78723657D01*
X78087518Y-78854134D01*
X78087520Y-78854135D01*
X78145865Y-78881342D01*
X78198305Y-78927514D01*
X78217457Y-78994707D01*
X78197242Y-79061589D01*
X78145867Y-79106105D01*
X78087268Y-79133431D01*
X78087264Y-79133433D01*
X77900858Y-79263954D01*
X77739954Y-79424858D01*
X77609432Y-79611265D01*
X77609431Y-79611267D01*
X77513261Y-79817502D01*
X77513258Y-79817511D01*
X77454366Y-80037302D01*
X77454364Y-80037313D01*
X77434532Y-80263998D01*
X77434532Y-80264001D01*
X77454364Y-80490686D01*
X77454366Y-80490697D01*
X77513258Y-80710488D01*
X77513261Y-80710497D01*
X77609431Y-80916732D01*
X77609432Y-80916734D01*
X77739954Y-81103141D01*
X77900858Y-81264045D01*
X77913267Y-81272734D01*
X78087266Y-81394568D01*
X78145275Y-81421618D01*
X78197714Y-81467791D01*
X78216866Y-81534984D01*
X78196650Y-81601865D01*
X78145275Y-81646381D01*
X78128272Y-81654310D01*
X78087267Y-81673431D01*
X78087265Y-81673432D01*
X77900858Y-81803954D01*
X77739954Y-81964858D01*
X77609432Y-82151265D01*
X77609431Y-82151267D01*
X77513261Y-82357502D01*
X77513258Y-82357511D01*
X77454366Y-82577302D01*
X77454364Y-82577313D01*
X77434532Y-82803998D01*
X77434532Y-82804001D01*
X77454364Y-83030686D01*
X77454366Y-83030697D01*
X77513258Y-83250488D01*
X77513261Y-83250497D01*
X77609431Y-83456732D01*
X77609432Y-83456734D01*
X77739954Y-83643141D01*
X77900858Y-83804045D01*
X77925462Y-83821273D01*
X77969087Y-83875849D01*
X77976281Y-83945348D01*
X77944758Y-84007703D01*
X77884529Y-84043117D01*
X77867593Y-84046138D01*
X77832516Y-84049908D01*
X77697671Y-84100202D01*
X77697664Y-84100206D01*
X77582455Y-84186452D01*
X77582452Y-84186455D01*
X77496206Y-84301664D01*
X77496202Y-84301671D01*
X77445908Y-84436517D01*
X77439501Y-84496116D01*
X77439500Y-84496135D01*
X77439500Y-86191870D01*
X77439501Y-86191876D01*
X77445908Y-86251483D01*
X77496202Y-86386328D01*
X77496206Y-86386335D01*
X77582452Y-86501544D01*
X77582455Y-86501547D01*
X77697664Y-86587793D01*
X77697671Y-86587797D01*
X77832517Y-86638091D01*
X77832516Y-86638091D01*
X77839444Y-86638835D01*
X77892127Y-86644500D01*
X79587872Y-86644499D01*
X79647483Y-86638091D01*
X79782331Y-86587796D01*
X79897546Y-86501546D01*
X79976234Y-86396431D01*
X80032167Y-86354562D01*
X80101859Y-86349578D01*
X80163182Y-86383063D01*
X80196666Y-86444387D01*
X80199500Y-86470744D01*
X80199500Y-87117059D01*
X80179815Y-87184098D01*
X80163181Y-87204740D01*
X76796741Y-90571181D01*
X76735418Y-90604666D01*
X76709060Y-90607500D01*
X76092977Y-90607500D01*
X76025938Y-90587815D01*
X75980183Y-90535011D01*
X75972733Y-90507865D01*
X75971876Y-90508068D01*
X75970092Y-90500520D01*
X75919797Y-90365671D01*
X75919793Y-90365664D01*
X75862723Y-90289429D01*
X75833546Y-90250454D01*
X75824449Y-90243644D01*
X75782581Y-90187710D01*
X75777599Y-90118018D01*
X75797191Y-90073253D01*
X75806134Y-90060481D01*
X75902265Y-89854326D01*
X75902269Y-89854317D01*
X75961139Y-89634610D01*
X75961141Y-89634599D01*
X75980966Y-89408002D01*
X75980966Y-89407997D01*
X75961141Y-89181400D01*
X75961139Y-89181389D01*
X75902269Y-88961682D01*
X75902265Y-88961673D01*
X75806134Y-88755518D01*
X75806133Y-88755516D01*
X75784146Y-88724116D01*
X75784145Y-88724115D01*
X75237286Y-89270975D01*
X75175963Y-89304460D01*
X75106271Y-89299476D01*
X75050338Y-89257604D01*
X75039122Y-89239591D01*
X75003641Y-89169955D01*
X75003638Y-89169952D01*
X75003636Y-89169949D01*
X74914050Y-89080363D01*
X74914047Y-89080361D01*
X74914045Y-89080359D01*
X74844408Y-89044877D01*
X74793613Y-88996903D01*
X74776818Y-88929082D01*
X74799356Y-88862947D01*
X74813023Y-88846712D01*
X75359883Y-88299851D01*
X75328485Y-88277867D01*
X75122326Y-88181734D01*
X75122317Y-88181730D01*
X74902610Y-88122860D01*
X74902599Y-88122858D01*
X74676002Y-88103034D01*
X74675998Y-88103034D01*
X74449400Y-88122858D01*
X74449389Y-88122860D01*
X74229682Y-88181730D01*
X74229673Y-88181734D01*
X74023514Y-88277867D01*
X73992115Y-88299851D01*
X74538976Y-88846712D01*
X74572461Y-88908035D01*
X74567477Y-88977727D01*
X74525605Y-89033660D01*
X74507591Y-89044877D01*
X74437956Y-89080358D01*
X74437949Y-89080363D01*
X74348363Y-89169949D01*
X74348358Y-89169956D01*
X74312877Y-89239591D01*
X74264903Y-89290386D01*
X74197081Y-89307181D01*
X74130947Y-89284643D01*
X74114712Y-89270976D01*
X73567851Y-88724115D01*
X73545867Y-88755514D01*
X73449734Y-88961673D01*
X73449731Y-88961679D01*
X73430093Y-89034972D01*
X73393728Y-89094632D01*
X73330881Y-89125161D01*
X73261505Y-89116866D01*
X73222637Y-89090559D01*
X71956819Y-87824741D01*
X71923334Y-87763418D01*
X71920500Y-87737060D01*
X71920500Y-86434048D01*
X71940185Y-86367009D01*
X71956819Y-86346366D01*
X71959135Y-86344049D01*
X71959139Y-86344047D01*
X72120047Y-86183139D01*
X72250568Y-85996734D01*
X72346739Y-85790496D01*
X72405635Y-85570692D01*
X72425468Y-85344000D01*
X72405635Y-85117308D01*
X72346739Y-84897504D01*
X72250568Y-84691266D01*
X72120047Y-84504861D01*
X72120045Y-84504858D01*
X71959141Y-84343954D01*
X71772734Y-84213432D01*
X71772732Y-84213431D01*
X71761275Y-84208088D01*
X71714132Y-84186105D01*
X71661694Y-84139934D01*
X71642542Y-84072740D01*
X71662758Y-84005859D01*
X71714134Y-83961341D01*
X71772484Y-83934132D01*
X71958820Y-83803657D01*
X72119657Y-83642820D01*
X72250134Y-83456482D01*
X72346265Y-83250326D01*
X72346268Y-83250320D01*
X72385475Y-83104000D01*
X71618423Y-83104000D01*
X71551384Y-83084315D01*
X71505629Y-83031511D01*
X71495685Y-82962353D01*
X71503165Y-82938755D01*
X71502150Y-82938426D01*
X71505163Y-82929151D01*
X71505165Y-82929148D01*
X71505166Y-82929143D01*
X71524986Y-82804003D01*
X71524986Y-82803996D01*
X71505166Y-82678856D01*
X71502150Y-82669574D01*
X71504997Y-82668648D01*
X71495043Y-82615611D01*
X71521328Y-82550874D01*
X71578439Y-82510623D01*
X71618423Y-82504000D01*
X72385475Y-82504000D01*
X72385474Y-82503999D01*
X72346268Y-82357679D01*
X72346265Y-82357673D01*
X72250134Y-82151517D01*
X72119657Y-81965179D01*
X71958820Y-81804342D01*
X71772482Y-81673865D01*
X71714133Y-81646657D01*
X71661694Y-81600484D01*
X71642542Y-81533291D01*
X71662758Y-81466410D01*
X71714129Y-81421895D01*
X71772734Y-81394568D01*
X71959139Y-81264047D01*
X72120047Y-81103139D01*
X72250568Y-80916734D01*
X72346739Y-80710496D01*
X72405635Y-80490692D01*
X72425468Y-80264000D01*
X72405635Y-80037308D01*
X72346739Y-79817504D01*
X72250568Y-79611266D01*
X72120047Y-79424861D01*
X72120045Y-79424858D01*
X71959141Y-79263954D01*
X71772734Y-79133432D01*
X71772728Y-79133429D01*
X71714725Y-79106382D01*
X71662285Y-79060210D01*
X71643133Y-78993017D01*
X71663348Y-78926135D01*
X71714725Y-78881618D01*
X71715319Y-78881341D01*
X71772734Y-78854568D01*
X71959139Y-78724047D01*
X72120047Y-78563139D01*
X72250568Y-78376734D01*
X72346739Y-78170496D01*
X72405635Y-77950692D01*
X72425468Y-77724000D01*
X72405635Y-77497308D01*
X72346739Y-77277504D01*
X72250568Y-77071266D01*
X72120047Y-76884861D01*
X72120045Y-76884858D01*
X71959141Y-76723954D01*
X71772734Y-76593432D01*
X71772732Y-76593431D01*
X71715315Y-76566657D01*
X71714132Y-76566105D01*
X71661694Y-76519934D01*
X71642542Y-76452740D01*
X71662758Y-76385859D01*
X71714134Y-76341341D01*
X71772484Y-76314132D01*
X71958820Y-76183657D01*
X72119657Y-76022820D01*
X72250134Y-75836482D01*
X72346265Y-75630326D01*
X72346268Y-75630320D01*
X72385475Y-75484000D01*
X71618423Y-75484000D01*
X71551384Y-75464315D01*
X71505629Y-75411511D01*
X71495685Y-75342353D01*
X71503165Y-75318755D01*
X71502150Y-75318426D01*
X71505163Y-75309151D01*
X71505165Y-75309148D01*
X71524986Y-75184000D01*
X71524986Y-75183998D01*
X71524986Y-75183996D01*
X71505166Y-75058856D01*
X71502150Y-75049574D01*
X71504997Y-75048648D01*
X71495043Y-74995611D01*
X71521328Y-74930874D01*
X71578439Y-74890623D01*
X71618423Y-74884000D01*
X72385475Y-74884000D01*
X72385474Y-74883999D01*
X72346268Y-74737679D01*
X72346265Y-74737673D01*
X72250134Y-74531517D01*
X72119657Y-74345179D01*
X71958820Y-74184342D01*
X71772482Y-74053865D01*
X71714133Y-74026657D01*
X71661694Y-73980484D01*
X71642542Y-73913291D01*
X71662758Y-73846410D01*
X71714129Y-73801895D01*
X71772734Y-73774568D01*
X71959139Y-73644047D01*
X72120047Y-73483139D01*
X72250568Y-73296734D01*
X72346739Y-73090496D01*
X72405635Y-72870692D01*
X72425468Y-72644000D01*
X72405635Y-72417308D01*
X72346739Y-72197504D01*
X72250568Y-71991266D01*
X72120047Y-71804861D01*
X72120045Y-71804858D01*
X71959141Y-71643954D01*
X71772734Y-71513432D01*
X71772728Y-71513429D01*
X71714725Y-71486382D01*
X71662285Y-71440210D01*
X71643133Y-71373017D01*
X71663348Y-71306135D01*
X71714725Y-71261618D01*
X71733856Y-71252697D01*
X71772734Y-71234568D01*
X71959139Y-71104047D01*
X72120047Y-70943139D01*
X72250568Y-70756734D01*
X72346739Y-70550496D01*
X72405635Y-70330692D01*
X72425468Y-70104000D01*
X72423423Y-70080631D01*
X72417820Y-70016582D01*
X72405635Y-69877308D01*
X72346739Y-69657504D01*
X72250568Y-69451266D01*
X72120047Y-69264861D01*
X72120045Y-69264858D01*
X71959141Y-69103954D01*
X71772734Y-68973432D01*
X71772732Y-68973431D01*
X71566497Y-68877261D01*
X71566488Y-68877258D01*
X71346697Y-68818366D01*
X71346693Y-68818365D01*
X71346692Y-68818365D01*
X71346691Y-68818364D01*
X71346686Y-68818364D01*
X71120002Y-68798532D01*
X71119998Y-68798532D01*
X70893313Y-68818364D01*
X70893302Y-68818366D01*
X70673511Y-68877258D01*
X70673502Y-68877261D01*
X70467267Y-68973431D01*
X70467265Y-68973432D01*
X70280858Y-69103954D01*
X70119954Y-69264858D01*
X69989432Y-69451265D01*
X69989431Y-69451267D01*
X69893261Y-69657502D01*
X69893258Y-69657511D01*
X69834366Y-69877302D01*
X69834364Y-69877313D01*
X69814532Y-70103998D01*
X69814532Y-70104001D01*
X69834364Y-70330686D01*
X69834366Y-70330697D01*
X69893258Y-70550488D01*
X69893261Y-70550497D01*
X69989431Y-70756732D01*
X69989432Y-70756734D01*
X70119954Y-70943141D01*
X70280858Y-71104045D01*
X70280861Y-71104047D01*
X70467266Y-71234568D01*
X70506144Y-71252697D01*
X70525275Y-71261618D01*
X70577714Y-71307791D01*
X70596866Y-71374984D01*
X70576650Y-71441865D01*
X70525275Y-71486382D01*
X70467267Y-71513431D01*
X70467265Y-71513432D01*
X70280858Y-71643954D01*
X70119954Y-71804858D01*
X69989432Y-71991265D01*
X69989431Y-71991267D01*
X69893261Y-72197502D01*
X69893258Y-72197511D01*
X69834366Y-72417302D01*
X69834364Y-72417313D01*
X69814532Y-72643998D01*
X69814532Y-72644001D01*
X69834364Y-72870686D01*
X69834366Y-72870697D01*
X69893258Y-73090488D01*
X69893261Y-73090497D01*
X69989431Y-73296732D01*
X69989432Y-73296734D01*
X70119954Y-73483141D01*
X70280858Y-73644045D01*
X70293267Y-73652734D01*
X70467266Y-73774568D01*
X70525865Y-73801893D01*
X70578305Y-73848065D01*
X70597457Y-73915258D01*
X70577242Y-73982139D01*
X70525867Y-74026657D01*
X70467515Y-74053867D01*
X70281179Y-74184342D01*
X70120342Y-74345179D01*
X69989865Y-74531517D01*
X69893734Y-74737673D01*
X69893731Y-74737679D01*
X69854525Y-74883999D01*
X69854525Y-74884000D01*
X70621577Y-74884000D01*
X70688616Y-74903685D01*
X70734371Y-74956489D01*
X70744315Y-75025647D01*
X70736834Y-75049244D01*
X70737850Y-75049574D01*
X70734833Y-75058856D01*
X70715014Y-75183996D01*
X70715014Y-75184003D01*
X70734833Y-75309143D01*
X70737850Y-75318426D01*
X70735002Y-75319351D01*
X70744957Y-75372389D01*
X70718672Y-75437126D01*
X70661561Y-75477377D01*
X70621577Y-75484000D01*
X69854525Y-75484000D01*
X69893731Y-75630320D01*
X69893734Y-75630326D01*
X69989865Y-75836482D01*
X70120342Y-76022820D01*
X70281179Y-76183657D01*
X70467518Y-76314134D01*
X70467520Y-76314135D01*
X70525865Y-76341342D01*
X70578305Y-76387514D01*
X70597457Y-76454707D01*
X70577242Y-76521589D01*
X70525867Y-76566105D01*
X70467545Y-76593302D01*
X70467264Y-76593433D01*
X70280858Y-76723954D01*
X70119954Y-76884858D01*
X69989432Y-77071265D01*
X69989431Y-77071267D01*
X69893261Y-77277502D01*
X69893258Y-77277511D01*
X69834366Y-77497302D01*
X69834364Y-77497313D01*
X69814532Y-77723998D01*
X69814532Y-77724001D01*
X69834364Y-77950686D01*
X69834366Y-77950697D01*
X69893258Y-78170488D01*
X69893261Y-78170497D01*
X69989431Y-78376732D01*
X69989432Y-78376734D01*
X70119954Y-78563141D01*
X70280858Y-78724045D01*
X70280861Y-78724047D01*
X70467266Y-78854568D01*
X70524681Y-78881341D01*
X70525275Y-78881618D01*
X70577714Y-78927791D01*
X70596866Y-78994984D01*
X70576650Y-79061865D01*
X70525275Y-79106382D01*
X70467267Y-79133431D01*
X70467265Y-79133432D01*
X70280858Y-79263954D01*
X70119954Y-79424858D01*
X69989432Y-79611265D01*
X69989431Y-79611267D01*
X69893261Y-79817502D01*
X69893258Y-79817511D01*
X69834366Y-80037302D01*
X69834364Y-80037313D01*
X69814532Y-80263998D01*
X69814532Y-80264001D01*
X69834364Y-80490686D01*
X69834366Y-80490697D01*
X69893258Y-80710488D01*
X69893261Y-80710497D01*
X69989431Y-80916732D01*
X69989432Y-80916734D01*
X70119954Y-81103141D01*
X70280858Y-81264045D01*
X70293267Y-81272734D01*
X70467266Y-81394568D01*
X70525865Y-81421893D01*
X70578305Y-81468065D01*
X70597457Y-81535258D01*
X70577242Y-81602139D01*
X70525867Y-81646657D01*
X70467515Y-81673867D01*
X70281179Y-81804342D01*
X70120342Y-81965179D01*
X69989865Y-82151517D01*
X69893734Y-82357673D01*
X69893731Y-82357679D01*
X69854525Y-82503999D01*
X69854525Y-82504000D01*
X70621577Y-82504000D01*
X70688616Y-82523685D01*
X70734371Y-82576489D01*
X70744315Y-82645647D01*
X70736834Y-82669244D01*
X70737850Y-82669574D01*
X70734833Y-82678856D01*
X70715014Y-82803996D01*
X70715014Y-82804003D01*
X70734833Y-82929143D01*
X70737850Y-82938426D01*
X70735002Y-82939351D01*
X70744957Y-82992389D01*
X70718672Y-83057126D01*
X70661561Y-83097377D01*
X70621577Y-83104000D01*
X69854525Y-83104000D01*
X69893731Y-83250320D01*
X69893734Y-83250326D01*
X69989865Y-83456482D01*
X70120342Y-83642820D01*
X70281179Y-83803657D01*
X70467518Y-83934134D01*
X70467520Y-83934135D01*
X70525865Y-83961342D01*
X70578305Y-84007514D01*
X70597457Y-84074707D01*
X70577242Y-84141589D01*
X70525867Y-84186105D01*
X70467268Y-84213431D01*
X70467264Y-84213433D01*
X70280858Y-84343954D01*
X70119954Y-84504858D01*
X69989432Y-84691265D01*
X69989431Y-84691267D01*
X69893261Y-84897502D01*
X69893258Y-84897511D01*
X69834366Y-85117302D01*
X69834364Y-85117313D01*
X69814532Y-85343998D01*
X69814532Y-85344001D01*
X69834364Y-85570686D01*
X69834366Y-85570697D01*
X69893258Y-85790488D01*
X69893261Y-85790497D01*
X69989431Y-85996732D01*
X69989432Y-85996734D01*
X70119954Y-86183141D01*
X70283181Y-86346368D01*
X70316666Y-86407691D01*
X70319500Y-86434049D01*
X70319500Y-88210191D01*
X70319501Y-88210200D01*
X70328791Y-88250908D01*
X70329955Y-88257763D01*
X70334632Y-88299259D01*
X70348420Y-88338662D01*
X70350345Y-88345345D01*
X70359639Y-88386061D01*
X70377759Y-88423688D01*
X70380421Y-88430114D01*
X70394212Y-88469525D01*
X70416422Y-88504872D01*
X70419787Y-88510959D01*
X70437910Y-88548589D01*
X70463940Y-88581229D01*
X70467966Y-88586904D01*
X70490182Y-88622259D01*
X70490184Y-88622262D01*
X72263741Y-90395819D01*
X72297226Y-90457142D01*
X72292242Y-90526834D01*
X72250370Y-90582767D01*
X72184906Y-90607184D01*
X72176060Y-90607500D01*
X65207940Y-90607500D01*
X65140901Y-90587815D01*
X65120259Y-90571181D01*
X60566819Y-86017741D01*
X60533334Y-85956418D01*
X60530500Y-85930062D01*
X60530500Y-85899315D01*
X60530500Y-85859688D01*
X60550183Y-85792652D01*
X60583379Y-85758113D01*
X60601401Y-85745495D01*
X60768495Y-85578401D01*
X60878427Y-85421400D01*
X60933000Y-85377778D01*
X61002498Y-85370584D01*
X61064853Y-85402106D01*
X61081574Y-85421403D01*
X61191505Y-85578402D01*
X61300369Y-85687265D01*
X61358599Y-85745495D01*
X61429668Y-85795258D01*
X61552165Y-85881032D01*
X61552167Y-85881033D01*
X61552170Y-85881035D01*
X61766337Y-85980903D01*
X61766343Y-85980904D01*
X61766344Y-85980905D01*
X61805356Y-85991358D01*
X61994592Y-86042063D01*
X62182918Y-86058539D01*
X62229999Y-86062659D01*
X62230000Y-86062659D01*
X62230001Y-86062659D01*
X62269234Y-86059226D01*
X62465408Y-86042063D01*
X62693663Y-85980903D01*
X62907829Y-85881035D01*
X62966472Y-85839972D01*
X63032676Y-85817645D01*
X63100444Y-85834654D01*
X63125275Y-85853865D01*
X64450548Y-87179139D01*
X65756586Y-88485177D01*
X65790071Y-88546500D01*
X65788680Y-88604949D01*
X65770367Y-88673296D01*
X65770364Y-88673313D01*
X65750532Y-88899999D01*
X65750532Y-88900001D01*
X65770364Y-89126686D01*
X65770366Y-89126697D01*
X65829258Y-89346488D01*
X65829261Y-89346497D01*
X65925431Y-89552732D01*
X65925432Y-89552734D01*
X66055954Y-89739141D01*
X66216858Y-89900045D01*
X66216861Y-89900047D01*
X66403266Y-90030568D01*
X66609504Y-90126739D01*
X66829308Y-90185635D01*
X66991230Y-90199801D01*
X67055998Y-90205468D01*
X67056000Y-90205468D01*
X67056002Y-90205468D01*
X67112673Y-90200509D01*
X67282692Y-90185635D01*
X67502496Y-90126739D01*
X67708734Y-90030568D01*
X67895139Y-89900047D01*
X68056047Y-89739139D01*
X68186568Y-89552734D01*
X68282739Y-89346496D01*
X68341635Y-89126692D01*
X68361468Y-88900000D01*
X68341635Y-88673308D01*
X68282739Y-88453504D01*
X68186568Y-88247266D01*
X68056047Y-88060861D01*
X68056045Y-88060858D01*
X67895141Y-87899954D01*
X67708734Y-87769432D01*
X67708732Y-87769431D01*
X67502497Y-87673261D01*
X67502488Y-87673258D01*
X67282697Y-87614366D01*
X67282693Y-87614365D01*
X67282692Y-87614365D01*
X67282691Y-87614364D01*
X67282686Y-87614364D01*
X67056002Y-87594532D01*
X67055999Y-87594532D01*
X66829313Y-87614364D01*
X66829296Y-87614367D01*
X66760949Y-87632680D01*
X66691099Y-87631016D01*
X66641177Y-87600586D01*
X63616819Y-84576228D01*
X63583334Y-84514905D01*
X63580500Y-84488547D01*
X63580500Y-84398034D01*
X63576690Y-84354489D01*
X63565063Y-84221592D01*
X63503903Y-83993337D01*
X63404035Y-83779171D01*
X63391936Y-83761891D01*
X63268494Y-83585597D01*
X63101402Y-83418506D01*
X63101395Y-83418501D01*
X62907834Y-83282967D01*
X62907830Y-83282965D01*
X62854850Y-83258260D01*
X62693663Y-83183097D01*
X62693659Y-83183096D01*
X62693655Y-83183094D01*
X62465413Y-83121938D01*
X62465403Y-83121936D01*
X62230001Y-83101341D01*
X62229999Y-83101341D01*
X61994596Y-83121936D01*
X61994586Y-83121938D01*
X61766344Y-83183094D01*
X61766335Y-83183098D01*
X61552171Y-83282964D01*
X61552169Y-83282965D01*
X61358597Y-83418505D01*
X61191505Y-83585597D01*
X61081575Y-83742595D01*
X61026998Y-83786220D01*
X60957500Y-83793414D01*
X60895145Y-83761891D01*
X60878425Y-83742595D01*
X60768494Y-83585597D01*
X60601404Y-83418508D01*
X60601402Y-83418506D01*
X60601401Y-83418505D01*
X60583374Y-83405882D01*
X60539751Y-83351306D01*
X60530500Y-83304309D01*
X60530500Y-81280001D01*
X65750532Y-81280001D01*
X65770364Y-81506686D01*
X65770366Y-81506697D01*
X65829258Y-81726488D01*
X65829261Y-81726497D01*
X65925431Y-81932732D01*
X65925432Y-81932734D01*
X66055954Y-82119141D01*
X66216858Y-82280045D01*
X66216861Y-82280047D01*
X66403266Y-82410568D01*
X66609504Y-82506739D01*
X66829308Y-82565635D01*
X66991230Y-82579801D01*
X67055998Y-82585468D01*
X67056000Y-82585468D01*
X67056002Y-82585468D01*
X67112673Y-82580509D01*
X67282692Y-82565635D01*
X67502496Y-82506739D01*
X67708734Y-82410568D01*
X67895139Y-82280047D01*
X68056047Y-82119139D01*
X68186568Y-81932734D01*
X68282739Y-81726496D01*
X68341635Y-81506692D01*
X68361468Y-81280000D01*
X68360119Y-81264586D01*
X68345995Y-81103141D01*
X68341635Y-81053308D01*
X68282739Y-80833504D01*
X68186568Y-80627266D01*
X68056047Y-80440861D01*
X68056045Y-80440858D01*
X67895141Y-80279954D01*
X67708734Y-80149432D01*
X67708732Y-80149431D01*
X67502497Y-80053261D01*
X67502488Y-80053258D01*
X67282697Y-79994366D01*
X67282693Y-79994365D01*
X67282692Y-79994365D01*
X67282691Y-79994364D01*
X67282686Y-79994364D01*
X67056002Y-79974532D01*
X67055998Y-79974532D01*
X66829313Y-79994364D01*
X66829302Y-79994366D01*
X66609511Y-80053258D01*
X66609502Y-80053261D01*
X66403267Y-80149431D01*
X66403265Y-80149432D01*
X66216858Y-80279954D01*
X66055954Y-80440858D01*
X65925432Y-80627265D01*
X65925431Y-80627267D01*
X65829261Y-80833502D01*
X65829258Y-80833511D01*
X65770366Y-81053302D01*
X65770364Y-81053313D01*
X65750532Y-81279998D01*
X65750532Y-81280001D01*
X60530500Y-81280001D01*
X60530500Y-73921690D01*
X60550185Y-73854651D01*
X60583375Y-73820116D01*
X60601401Y-73807495D01*
X60768495Y-73640401D01*
X60878426Y-73483401D01*
X60933001Y-73439778D01*
X61002500Y-73432584D01*
X61064855Y-73464106D01*
X61081571Y-73483398D01*
X61098533Y-73507622D01*
X61191506Y-73640403D01*
X61280137Y-73729033D01*
X61358599Y-73807495D01*
X61448921Y-73870739D01*
X61552165Y-73943032D01*
X61552167Y-73943033D01*
X61552170Y-73943035D01*
X61766337Y-74042903D01*
X61766343Y-74042904D01*
X61766344Y-74042905D01*
X61805632Y-74053432D01*
X61994592Y-74104063D01*
X62182918Y-74120539D01*
X62229999Y-74124659D01*
X62230000Y-74124659D01*
X62230001Y-74124659D01*
X62269234Y-74121226D01*
X62465408Y-74104063D01*
X62693663Y-74042903D01*
X62822740Y-73982712D01*
X62891815Y-73972221D01*
X62955599Y-74000740D01*
X62962824Y-74007414D01*
X65756586Y-76801177D01*
X65790071Y-76862500D01*
X65788680Y-76920949D01*
X65770367Y-76989296D01*
X65770364Y-76989313D01*
X65750532Y-77215999D01*
X65750532Y-77216001D01*
X65770364Y-77442686D01*
X65770366Y-77442697D01*
X65829258Y-77662488D01*
X65829261Y-77662497D01*
X65925431Y-77868732D01*
X65925432Y-77868734D01*
X66055954Y-78055141D01*
X66216858Y-78216045D01*
X66216861Y-78216047D01*
X66403266Y-78346568D01*
X66609504Y-78442739D01*
X66829308Y-78501635D01*
X66985728Y-78515320D01*
X67055998Y-78521468D01*
X67056000Y-78521468D01*
X67056002Y-78521468D01*
X67124157Y-78515505D01*
X67282692Y-78501635D01*
X67502496Y-78442739D01*
X67708734Y-78346568D01*
X67895139Y-78216047D01*
X68056047Y-78055139D01*
X68186568Y-77868734D01*
X68282739Y-77662496D01*
X68341635Y-77442692D01*
X68361468Y-77216000D01*
X68341635Y-76989308D01*
X68285953Y-76781500D01*
X68282741Y-76769511D01*
X68282738Y-76769502D01*
X68264318Y-76730000D01*
X68186568Y-76563266D01*
X68056047Y-76376861D01*
X68056045Y-76376858D01*
X67895141Y-76215954D01*
X67708734Y-76085432D01*
X67708732Y-76085431D01*
X67502497Y-75989261D01*
X67502488Y-75989258D01*
X67282697Y-75930366D01*
X67282693Y-75930365D01*
X67282692Y-75930365D01*
X67282691Y-75930364D01*
X67282686Y-75930364D01*
X67056002Y-75910532D01*
X67055999Y-75910532D01*
X66829313Y-75930364D01*
X66829296Y-75930367D01*
X66760949Y-75948680D01*
X66691099Y-75947016D01*
X66641177Y-75916586D01*
X63616819Y-72892228D01*
X63583334Y-72830905D01*
X63580500Y-72804547D01*
X63580500Y-72460034D01*
X63570348Y-72344000D01*
X63565063Y-72283592D01*
X63503903Y-72055337D01*
X63404035Y-71841171D01*
X63403050Y-71839763D01*
X63268494Y-71647597D01*
X63101402Y-71480506D01*
X63101395Y-71480501D01*
X62907834Y-71344967D01*
X62907830Y-71344965D01*
X62894034Y-71338532D01*
X62693663Y-71245097D01*
X62693659Y-71245096D01*
X62693655Y-71245094D01*
X62465413Y-71183938D01*
X62465403Y-71183936D01*
X62230001Y-71163341D01*
X62229999Y-71163341D01*
X61994596Y-71183936D01*
X61994586Y-71183938D01*
X61766344Y-71245094D01*
X61766335Y-71245098D01*
X61552171Y-71344964D01*
X61552169Y-71344965D01*
X61358597Y-71480505D01*
X61191505Y-71647597D01*
X61081575Y-71804595D01*
X61026998Y-71848220D01*
X60957500Y-71855414D01*
X60895145Y-71823891D01*
X60878425Y-71804595D01*
X60768494Y-71647597D01*
X60601402Y-71480506D01*
X60601395Y-71480501D01*
X60407834Y-71344967D01*
X60407830Y-71344965D01*
X60394034Y-71338532D01*
X60193663Y-71245097D01*
X60193659Y-71245096D01*
X60193655Y-71245094D01*
X59965413Y-71183938D01*
X59965403Y-71183936D01*
X59730001Y-71163341D01*
X59729999Y-71163341D01*
X59494596Y-71183936D01*
X59494586Y-71183938D01*
X59266344Y-71245094D01*
X59266335Y-71245098D01*
X59052171Y-71344964D01*
X59052169Y-71344965D01*
X58858597Y-71480505D01*
X58711035Y-71628068D01*
X58649712Y-71661553D01*
X58580020Y-71656569D01*
X58524087Y-71614697D01*
X58517815Y-71605484D01*
X58422315Y-71450654D01*
X58298345Y-71326684D01*
X58149124Y-71234643D01*
X58149119Y-71234641D01*
X57982697Y-71179494D01*
X57982690Y-71179493D01*
X57879986Y-71169000D01*
X57530000Y-71169000D01*
X57530000Y-72066298D01*
X57510315Y-72133337D01*
X57457511Y-72179092D01*
X57388353Y-72189036D01*
X57371072Y-72185277D01*
X57365204Y-72183554D01*
X57280845Y-72171425D01*
X57263975Y-72169000D01*
X57196025Y-72169000D01*
X57094795Y-72183554D01*
X57088928Y-72185277D01*
X57019058Y-72185273D01*
X56960282Y-72147495D01*
X56931261Y-72083938D01*
X56930000Y-72066298D01*
X56930000Y-71169000D01*
X56580028Y-71169000D01*
X56580012Y-71169001D01*
X56477302Y-71179494D01*
X56310880Y-71234641D01*
X56310875Y-71234643D01*
X56161654Y-71326684D01*
X56037684Y-71450654D01*
X55945643Y-71599875D01*
X55945641Y-71599880D01*
X55890494Y-71766302D01*
X55890493Y-71766309D01*
X55880000Y-71869013D01*
X55880000Y-72344000D01*
X56657390Y-72344000D01*
X56724429Y-72363685D01*
X56770184Y-72416489D01*
X56780128Y-72485647D01*
X56776367Y-72502935D01*
X56761517Y-72553511D01*
X56755000Y-72575705D01*
X56755000Y-72712295D01*
X56776138Y-72784287D01*
X56776367Y-72785065D01*
X56776367Y-72854935D01*
X56738593Y-72913713D01*
X56675037Y-72942738D01*
X56657390Y-72944000D01*
X55880001Y-72944000D01*
X55880001Y-73418986D01*
X55890494Y-73521697D01*
X55945641Y-73688119D01*
X55945643Y-73688124D01*
X56037684Y-73837345D01*
X56161654Y-73961315D01*
X56310875Y-74053356D01*
X56310880Y-74053358D01*
X56477302Y-74108505D01*
X56477309Y-74108506D01*
X56580019Y-74118999D01*
X56929999Y-74118999D01*
X56930000Y-74118998D01*
X56930000Y-73221701D01*
X56949685Y-73154662D01*
X57002489Y-73108907D01*
X57071647Y-73098963D01*
X57088936Y-73102724D01*
X57094800Y-73104446D01*
X57094801Y-73104446D01*
X57196025Y-73119000D01*
X57196026Y-73119000D01*
X57263974Y-73119000D01*
X57263975Y-73119000D01*
X57365199Y-73104446D01*
X57365200Y-73104445D01*
X57371064Y-73102724D01*
X57440934Y-73102724D01*
X57499712Y-73140498D01*
X57528738Y-73204053D01*
X57530000Y-73221701D01*
X57530000Y-74118999D01*
X57879972Y-74118999D01*
X57879986Y-74118998D01*
X57982697Y-74108505D01*
X58149119Y-74053358D01*
X58149124Y-74053356D01*
X58298345Y-73961315D01*
X58422315Y-73837345D01*
X58517815Y-73682516D01*
X58569763Y-73635792D01*
X58638726Y-73624569D01*
X58702808Y-73652413D01*
X58711035Y-73659932D01*
X58858594Y-73807491D01*
X58858597Y-73807493D01*
X58858599Y-73807495D01*
X58876622Y-73820115D01*
X58920247Y-73874689D01*
X58929500Y-73921690D01*
X58929500Y-83304309D01*
X58909815Y-83371348D01*
X58876625Y-83405883D01*
X58858601Y-83418503D01*
X58711035Y-83566069D01*
X58649712Y-83599553D01*
X58580020Y-83594569D01*
X58524087Y-83552697D01*
X58517815Y-83543484D01*
X58422315Y-83388654D01*
X58298345Y-83264684D01*
X58149124Y-83172643D01*
X58149119Y-83172641D01*
X57982697Y-83117494D01*
X57982690Y-83117493D01*
X57879986Y-83107000D01*
X57530000Y-83107000D01*
X57530000Y-84004298D01*
X57510315Y-84071337D01*
X57457511Y-84117092D01*
X57388353Y-84127036D01*
X57371072Y-84123277D01*
X57365204Y-84121554D01*
X57280845Y-84109425D01*
X57263975Y-84107000D01*
X57196025Y-84107000D01*
X57094795Y-84121554D01*
X57088928Y-84123277D01*
X57019058Y-84123273D01*
X56960282Y-84085495D01*
X56931261Y-84021938D01*
X56930000Y-84004298D01*
X56930000Y-83107000D01*
X56580028Y-83107000D01*
X56580012Y-83107001D01*
X56477302Y-83117494D01*
X56310880Y-83172641D01*
X56310875Y-83172643D01*
X56161654Y-83264684D01*
X56037684Y-83388654D01*
X55945643Y-83537875D01*
X55945641Y-83537880D01*
X55890494Y-83704302D01*
X55890493Y-83704309D01*
X55880000Y-83807013D01*
X55880000Y-84282000D01*
X56657390Y-84282000D01*
X56724429Y-84301685D01*
X56770184Y-84354489D01*
X56780128Y-84423647D01*
X56776367Y-84440935D01*
X56755000Y-84513704D01*
X56755000Y-84650295D01*
X56776367Y-84723065D01*
X56776367Y-84792935D01*
X56738593Y-84851713D01*
X56675037Y-84880738D01*
X56657390Y-84882000D01*
X55880001Y-84882000D01*
X55880001Y-85356986D01*
X55890494Y-85459697D01*
X55945641Y-85626119D01*
X55945643Y-85626124D01*
X56037684Y-85775345D01*
X56161654Y-85899315D01*
X56310875Y-85991356D01*
X56310880Y-85991358D01*
X56477302Y-86046505D01*
X56477309Y-86046506D01*
X56580019Y-86056999D01*
X56929999Y-86056999D01*
X56930000Y-86056998D01*
X56930000Y-85159701D01*
X56949685Y-85092662D01*
X57002489Y-85046907D01*
X57071647Y-85036963D01*
X57088936Y-85040724D01*
X57094800Y-85042446D01*
X57094801Y-85042446D01*
X57196025Y-85057000D01*
X57196026Y-85057000D01*
X57263974Y-85057000D01*
X57263975Y-85057000D01*
X57365199Y-85042446D01*
X57365200Y-85042445D01*
X57371064Y-85040724D01*
X57440934Y-85040724D01*
X57499712Y-85078498D01*
X57528738Y-85142053D01*
X57530000Y-85159701D01*
X57530000Y-86056999D01*
X57879972Y-86056999D01*
X57879986Y-86056998D01*
X57982697Y-86046505D01*
X58149119Y-85991358D01*
X58149124Y-85991356D01*
X58298345Y-85899315D01*
X58422315Y-85775345D01*
X58517815Y-85620516D01*
X58569763Y-85573792D01*
X58638726Y-85562569D01*
X58702808Y-85590413D01*
X58711035Y-85597932D01*
X58858594Y-85745491D01*
X58858597Y-85745493D01*
X58858599Y-85745495D01*
X58876622Y-85758115D01*
X58920247Y-85812689D01*
X58929500Y-85859690D01*
X58929500Y-86403191D01*
X58929501Y-86403200D01*
X58938791Y-86443908D01*
X58939955Y-86450763D01*
X58944632Y-86492259D01*
X58958420Y-86531662D01*
X58960345Y-86538345D01*
X58969639Y-86579061D01*
X58987759Y-86616688D01*
X58990421Y-86623114D01*
X59004212Y-86662525D01*
X59026422Y-86697872D01*
X59029787Y-86703959D01*
X59047910Y-86741589D01*
X59073940Y-86774229D01*
X59077966Y-86779904D01*
X59100182Y-86815259D01*
X59100184Y-86815262D01*
X63605240Y-91320318D01*
X63638725Y-91381641D01*
X63633741Y-91451333D01*
X63605240Y-91495680D01*
X60089043Y-95011877D01*
X60027720Y-95045362D01*
X59969280Y-95043974D01*
X59965409Y-95042937D01*
X59730001Y-95022341D01*
X59729999Y-95022341D01*
X59494596Y-95042936D01*
X59494586Y-95042938D01*
X59266344Y-95104094D01*
X59266335Y-95104098D01*
X59052171Y-95203964D01*
X59052169Y-95203965D01*
X58858597Y-95339505D01*
X58711035Y-95487068D01*
X58649712Y-95520553D01*
X58580020Y-95515569D01*
X58524087Y-95473697D01*
X58517815Y-95464484D01*
X58422315Y-95309654D01*
X58298345Y-95185684D01*
X58149124Y-95093643D01*
X58149119Y-95093641D01*
X57982697Y-95038494D01*
X57982690Y-95038493D01*
X57879986Y-95028000D01*
X57530000Y-95028000D01*
X57530000Y-95925298D01*
X57510315Y-95992337D01*
X57457511Y-96038092D01*
X57388353Y-96048036D01*
X57371072Y-96044277D01*
X57365204Y-96042554D01*
X57269323Y-96028769D01*
X57263975Y-96028000D01*
X57196025Y-96028000D01*
X57094795Y-96042554D01*
X57088928Y-96044277D01*
X57019058Y-96044273D01*
X56960282Y-96006495D01*
X56931261Y-95942938D01*
X56930000Y-95925298D01*
X56930000Y-95028000D01*
X56580028Y-95028000D01*
X56580012Y-95028001D01*
X56477302Y-95038494D01*
X56310880Y-95093641D01*
X56310875Y-95093643D01*
X56161654Y-95185684D01*
X56037684Y-95309654D01*
X55945643Y-95458875D01*
X55945641Y-95458880D01*
X55890494Y-95625302D01*
X55890493Y-95625309D01*
X55880000Y-95728013D01*
X55880000Y-96203000D01*
X56657390Y-96203000D01*
X56724429Y-96222685D01*
X56770184Y-96275489D01*
X56780128Y-96344647D01*
X56776367Y-96361935D01*
X56756195Y-96430636D01*
X56755000Y-96434705D01*
X56755000Y-96571295D01*
X56773826Y-96635413D01*
X56776367Y-96644065D01*
X56776367Y-96713935D01*
X56738593Y-96772713D01*
X56675037Y-96801738D01*
X56657390Y-96803000D01*
X55880001Y-96803000D01*
X55880001Y-97277986D01*
X55890494Y-97380697D01*
X55945641Y-97547119D01*
X55945643Y-97547124D01*
X56037684Y-97696345D01*
X56161654Y-97820315D01*
X56310875Y-97912356D01*
X56310880Y-97912358D01*
X56477302Y-97967505D01*
X56477309Y-97967506D01*
X56580019Y-97977999D01*
X56929999Y-97977999D01*
X56930000Y-97977998D01*
X56930000Y-97080701D01*
X56949685Y-97013662D01*
X57002489Y-96967907D01*
X57071647Y-96957963D01*
X57088936Y-96961724D01*
X57094800Y-96963446D01*
X57094801Y-96963446D01*
X57196025Y-96978000D01*
X57196026Y-96978000D01*
X57263974Y-96978000D01*
X57263975Y-96978000D01*
X57365199Y-96963446D01*
X57365200Y-96963445D01*
X57371064Y-96961724D01*
X57440934Y-96961724D01*
X57499712Y-96999498D01*
X57528738Y-97063053D01*
X57530000Y-97080701D01*
X57530000Y-97977999D01*
X57879972Y-97977999D01*
X57879986Y-97977998D01*
X57982697Y-97967505D01*
X58149119Y-97912358D01*
X58149124Y-97912356D01*
X58298345Y-97820315D01*
X58422315Y-97696345D01*
X58517815Y-97541516D01*
X58569763Y-97494792D01*
X58638726Y-97483569D01*
X58702808Y-97511413D01*
X58711034Y-97518930D01*
X58858599Y-97666495D01*
X58858602Y-97666497D01*
X58858603Y-97666498D01*
X59052165Y-97802032D01*
X59052167Y-97802033D01*
X59052170Y-97802035D01*
X59266337Y-97901903D01*
X59266343Y-97901904D01*
X59266344Y-97901905D01*
X59305356Y-97912358D01*
X59494592Y-97963063D01*
X59682918Y-97979539D01*
X59729999Y-97983659D01*
X59730000Y-97983659D01*
X59730001Y-97983659D01*
X59769234Y-97980226D01*
X59965408Y-97963063D01*
X60193663Y-97901903D01*
X60407829Y-97802035D01*
X60601401Y-97666495D01*
X60768495Y-97499401D01*
X60878426Y-97342401D01*
X60933001Y-97298778D01*
X61002500Y-97291584D01*
X61064855Y-97323106D01*
X61081571Y-97342398D01*
X61137797Y-97422697D01*
X61191506Y-97499403D01*
X61275620Y-97583516D01*
X61358599Y-97666495D01*
X61444636Y-97726739D01*
X61552165Y-97802032D01*
X61552167Y-97802033D01*
X61552170Y-97802035D01*
X61766337Y-97901903D01*
X61766343Y-97901904D01*
X61766344Y-97901905D01*
X61805356Y-97912358D01*
X61994592Y-97963063D01*
X62182918Y-97979539D01*
X62229999Y-97983659D01*
X62230000Y-97983659D01*
X62230001Y-97983659D01*
X62269234Y-97980226D01*
X62465408Y-97963063D01*
X62693663Y-97901903D01*
X62907829Y-97802035D01*
X63058771Y-97696345D01*
X63105836Y-97663390D01*
X63107525Y-97665803D01*
X63159653Y-97642158D01*
X63228786Y-97652277D01*
X63264669Y-97677259D01*
X65756586Y-100169176D01*
X65790071Y-100230499D01*
X65788681Y-100288948D01*
X65770365Y-100357307D01*
X65770364Y-100357313D01*
X65750532Y-100583999D01*
X65750532Y-100584001D01*
X65770364Y-100810686D01*
X65770366Y-100810697D01*
X65829258Y-101030488D01*
X65829261Y-101030497D01*
X65925431Y-101236732D01*
X65925432Y-101236734D01*
X66055954Y-101423141D01*
X66216858Y-101584045D01*
X66216861Y-101584047D01*
X66403266Y-101714568D01*
X66609504Y-101810739D01*
X66829308Y-101869635D01*
X66991230Y-101883801D01*
X67055998Y-101889468D01*
X67056000Y-101889468D01*
X67056002Y-101889468D01*
X67112672Y-101884509D01*
X67282692Y-101869635D01*
X67502496Y-101810739D01*
X67708734Y-101714568D01*
X67895139Y-101584047D01*
X68056047Y-101423139D01*
X68186568Y-101236734D01*
X68282739Y-101030496D01*
X68341635Y-100810692D01*
X68361468Y-100584000D01*
X68361437Y-100583650D01*
X68349695Y-100449431D01*
X68341635Y-100357308D01*
X68282739Y-100137504D01*
X68186568Y-99931266D01*
X68056047Y-99744861D01*
X68056045Y-99744858D01*
X67895141Y-99583954D01*
X67708734Y-99453432D01*
X67708732Y-99453431D01*
X67502497Y-99357261D01*
X67502488Y-99357258D01*
X67282697Y-99298366D01*
X67282693Y-99298365D01*
X67282692Y-99298365D01*
X67282691Y-99298364D01*
X67282686Y-99298364D01*
X67056002Y-99278532D01*
X67055999Y-99278532D01*
X66829313Y-99298364D01*
X66829296Y-99298367D01*
X66760949Y-99316680D01*
X66691099Y-99315016D01*
X66641177Y-99284586D01*
X63603292Y-96246701D01*
X63588712Y-96220000D01*
X71842000Y-96220000D01*
X72593334Y-96220000D01*
X72660373Y-96239685D01*
X72706128Y-96292489D01*
X72716072Y-96361647D01*
X72712311Y-96378934D01*
X72692000Y-96448107D01*
X72692000Y-96591892D01*
X72712311Y-96661066D01*
X72712311Y-96730936D01*
X72674536Y-96789714D01*
X72610980Y-96818738D01*
X72593334Y-96820000D01*
X71842001Y-96820000D01*
X71842001Y-97319986D01*
X71852494Y-97422697D01*
X71907641Y-97589119D01*
X71907643Y-97589124D01*
X71999684Y-97738345D01*
X72123654Y-97862315D01*
X72272875Y-97954356D01*
X72272880Y-97954358D01*
X72439302Y-98009505D01*
X72439309Y-98009506D01*
X72542019Y-98019999D01*
X72891999Y-98019999D01*
X72892000Y-98019998D01*
X72892000Y-97124024D01*
X72911685Y-97056985D01*
X72964489Y-97011230D01*
X73033647Y-97001286D01*
X73048396Y-97004494D01*
X73049682Y-97004679D01*
X73049685Y-97004680D01*
X73156237Y-97020000D01*
X73156238Y-97020000D01*
X73227762Y-97020000D01*
X73227763Y-97020000D01*
X73323037Y-97006301D01*
X73343094Y-97003418D01*
X73343328Y-97005048D01*
X73402926Y-97005044D01*
X73461707Y-97042815D01*
X73490737Y-97106368D01*
X73492000Y-97124024D01*
X73492000Y-98019999D01*
X73841972Y-98019999D01*
X73841986Y-98019998D01*
X73944697Y-98009505D01*
X74111119Y-97954358D01*
X74111124Y-97954356D01*
X74260345Y-97862315D01*
X74384315Y-97738345D01*
X74479815Y-97583516D01*
X74531763Y-97536792D01*
X74600726Y-97525569D01*
X74664808Y-97553413D01*
X74673034Y-97560930D01*
X74820599Y-97708495D01*
X74820602Y-97708497D01*
X74820603Y-97708498D01*
X75014165Y-97844032D01*
X75014167Y-97844033D01*
X75014170Y-97844035D01*
X75228337Y-97943903D01*
X75228343Y-97943904D01*
X75228344Y-97943905D01*
X75267356Y-97954358D01*
X75456592Y-98005063D01*
X75644918Y-98021539D01*
X75691999Y-98025659D01*
X75692000Y-98025659D01*
X75692001Y-98025659D01*
X75731234Y-98022226D01*
X75927408Y-98005063D01*
X76155663Y-97943903D01*
X76369829Y-97844035D01*
X76563401Y-97708495D01*
X76730495Y-97541401D01*
X76866035Y-97347829D01*
X76965903Y-97133663D01*
X77027063Y-96905408D01*
X77042500Y-96728966D01*
X77042500Y-96311034D01*
X77027063Y-96134592D01*
X76970984Y-95925298D01*
X76965905Y-95906344D01*
X76965904Y-95906343D01*
X76965903Y-95906337D01*
X76866035Y-95692171D01*
X76844110Y-95660858D01*
X76730494Y-95498597D01*
X76563402Y-95331506D01*
X76563395Y-95331501D01*
X76369834Y-95195967D01*
X76369830Y-95195965D01*
X76330626Y-95177684D01*
X76155663Y-95096097D01*
X76155659Y-95096096D01*
X76155655Y-95096094D01*
X75927413Y-95034938D01*
X75927403Y-95034936D01*
X75692001Y-95014341D01*
X75691999Y-95014341D01*
X75456596Y-95034936D01*
X75456586Y-95034938D01*
X75228344Y-95096094D01*
X75228335Y-95096098D01*
X75014171Y-95195964D01*
X75014169Y-95195965D01*
X74820597Y-95331505D01*
X74673035Y-95479068D01*
X74611712Y-95512553D01*
X74542020Y-95507569D01*
X74486087Y-95465697D01*
X74479815Y-95456484D01*
X74384315Y-95301654D01*
X74260345Y-95177684D01*
X74111124Y-95085643D01*
X74111119Y-95085641D01*
X73944697Y-95030494D01*
X73944690Y-95030493D01*
X73841986Y-95020000D01*
X73492000Y-95020000D01*
X73492000Y-95915975D01*
X73472315Y-95983014D01*
X73419511Y-96028769D01*
X73350353Y-96038713D01*
X73335608Y-96035505D01*
X73242519Y-96022121D01*
X73227763Y-96020000D01*
X73156237Y-96020000D01*
X73040906Y-96036582D01*
X73040671Y-96034953D01*
X72981059Y-96034950D01*
X72922283Y-95997173D01*
X72893261Y-95933615D01*
X72892000Y-95915975D01*
X72892000Y-95020000D01*
X72542028Y-95020000D01*
X72542012Y-95020001D01*
X72439302Y-95030494D01*
X72272880Y-95085641D01*
X72272875Y-95085643D01*
X72123654Y-95177684D01*
X71999684Y-95301654D01*
X71907643Y-95450875D01*
X71907641Y-95450880D01*
X71852494Y-95617302D01*
X71852493Y-95617309D01*
X71842000Y-95720013D01*
X71842000Y-96220000D01*
X63588712Y-96220000D01*
X63569807Y-96185378D01*
X63567445Y-96169825D01*
X63566987Y-96164592D01*
X63565063Y-96142592D01*
X63509798Y-95936337D01*
X63503905Y-95914344D01*
X63503904Y-95914343D01*
X63503903Y-95914337D01*
X63404035Y-95700171D01*
X63403916Y-95700000D01*
X63268494Y-95506597D01*
X63101402Y-95339506D01*
X63101395Y-95339501D01*
X62907834Y-95203967D01*
X62907830Y-95203965D01*
X62890672Y-95195964D01*
X62693663Y-95104097D01*
X62693659Y-95104096D01*
X62693655Y-95104094D01*
X62559872Y-95068248D01*
X62500211Y-95031883D01*
X62469682Y-94969036D01*
X62477977Y-94899661D01*
X62504281Y-94860795D01*
X65120258Y-92244819D01*
X65181582Y-92211334D01*
X65207940Y-92208500D01*
X65778712Y-92208500D01*
X65845751Y-92228185D01*
X65891506Y-92280989D01*
X65901450Y-92350147D01*
X65891095Y-92384901D01*
X65871613Y-92426680D01*
X65829261Y-92517502D01*
X65829258Y-92517511D01*
X65770366Y-92737302D01*
X65770364Y-92737313D01*
X65750532Y-92963998D01*
X65750532Y-92964001D01*
X65770364Y-93190686D01*
X65770366Y-93190697D01*
X65829258Y-93410488D01*
X65829261Y-93410497D01*
X65925431Y-93616732D01*
X65925432Y-93616734D01*
X66055954Y-93803141D01*
X66216858Y-93964045D01*
X66216861Y-93964047D01*
X66403266Y-94094568D01*
X66609504Y-94190739D01*
X66829308Y-94249635D01*
X66991230Y-94263801D01*
X67055998Y-94269468D01*
X67056000Y-94269468D01*
X67056002Y-94269468D01*
X67112673Y-94264509D01*
X67282692Y-94249635D01*
X67502496Y-94190739D01*
X67708734Y-94094568D01*
X67895139Y-93964047D01*
X68056047Y-93803139D01*
X68186568Y-93616734D01*
X68282739Y-93410496D01*
X68341635Y-93190692D01*
X68361468Y-92964000D01*
X68341635Y-92737308D01*
X68286241Y-92530575D01*
X68282741Y-92517511D01*
X68282738Y-92517502D01*
X68282038Y-92516000D01*
X68220905Y-92384902D01*
X68210414Y-92315828D01*
X68238933Y-92252044D01*
X68297410Y-92213804D01*
X68333288Y-92208500D01*
X73259023Y-92208500D01*
X73326062Y-92228185D01*
X73371817Y-92280989D01*
X73379266Y-92308134D01*
X73380124Y-92307932D01*
X73381907Y-92315479D01*
X73432202Y-92450328D01*
X73432206Y-92450335D01*
X73518452Y-92565544D01*
X73518455Y-92565547D01*
X73633664Y-92651793D01*
X73633671Y-92651797D01*
X73768517Y-92702091D01*
X73768516Y-92702091D01*
X73775444Y-92702835D01*
X73828127Y-92708500D01*
X75523872Y-92708499D01*
X75583483Y-92702091D01*
X75718331Y-92651796D01*
X75833546Y-92565546D01*
X75919796Y-92450331D01*
X75970091Y-92315483D01*
X75970091Y-92315481D01*
X75971874Y-92307938D01*
X75974146Y-92308474D01*
X75996429Y-92254688D01*
X76053823Y-92214843D01*
X76092976Y-92208500D01*
X77182194Y-92208500D01*
X77222903Y-92199208D01*
X77229760Y-92198043D01*
X77271255Y-92193368D01*
X77310680Y-92179571D01*
X77317321Y-92177658D01*
X77358061Y-92168360D01*
X77395693Y-92150236D01*
X77402105Y-92147580D01*
X77441522Y-92133789D01*
X77476889Y-92111565D01*
X77482961Y-92108209D01*
X77520587Y-92090091D01*
X77553236Y-92064052D01*
X77558895Y-92060037D01*
X77594262Y-92037816D01*
X77721816Y-91910262D01*
X77721816Y-91910261D01*
X81554190Y-88077887D01*
X81615511Y-88044404D01*
X81685203Y-88049388D01*
X81741136Y-88091260D01*
X81765553Y-88156724D01*
X81751315Y-88222171D01*
X81751720Y-88222360D01*
X81750885Y-88224150D01*
X81750701Y-88224997D01*
X81749460Y-88227205D01*
X81653261Y-88433502D01*
X81653258Y-88433511D01*
X81594366Y-88653302D01*
X81594364Y-88653313D01*
X81574532Y-88879998D01*
X81574532Y-88880001D01*
X81594364Y-89106686D01*
X81594366Y-89106697D01*
X81653258Y-89326488D01*
X81653261Y-89326497D01*
X81749431Y-89532732D01*
X81749432Y-89532734D01*
X81879954Y-89719141D01*
X82040858Y-89880045D01*
X82040861Y-89880047D01*
X82227266Y-90010568D01*
X82270154Y-90030567D01*
X82285275Y-90037618D01*
X82337714Y-90083791D01*
X82356866Y-90150984D01*
X82336650Y-90217865D01*
X82285275Y-90262382D01*
X82227267Y-90289431D01*
X82227265Y-90289432D01*
X82040858Y-90419954D01*
X81879954Y-90580858D01*
X81749432Y-90767265D01*
X81749431Y-90767267D01*
X81653261Y-90973502D01*
X81653258Y-90973511D01*
X81594366Y-91193302D01*
X81594364Y-91193313D01*
X81574532Y-91419998D01*
X81574532Y-91420001D01*
X81594364Y-91646686D01*
X81594366Y-91646697D01*
X81653258Y-91866488D01*
X81653261Y-91866497D01*
X81749431Y-92072732D01*
X81749432Y-92072734D01*
X81879954Y-92259141D01*
X82040858Y-92420045D01*
X82073973Y-92443232D01*
X82227266Y-92550568D01*
X82282470Y-92576310D01*
X82285275Y-92577618D01*
X82337714Y-92623791D01*
X82356866Y-92690984D01*
X82336650Y-92757865D01*
X82285275Y-92802382D01*
X82227267Y-92829431D01*
X82227265Y-92829432D01*
X82040858Y-92959954D01*
X81879954Y-93120858D01*
X81749432Y-93307265D01*
X81749431Y-93307267D01*
X81653261Y-93513502D01*
X81653258Y-93513511D01*
X81594366Y-93733302D01*
X81594364Y-93733313D01*
X81574532Y-93959998D01*
X81574532Y-93960001D01*
X81594364Y-94186686D01*
X81594366Y-94186697D01*
X81653258Y-94406488D01*
X81653261Y-94406497D01*
X81749431Y-94612732D01*
X81749432Y-94612734D01*
X81879954Y-94799141D01*
X82040858Y-94960045D01*
X82040861Y-94960047D01*
X82227266Y-95090568D01*
X82285275Y-95117618D01*
X82337714Y-95163791D01*
X82356866Y-95230984D01*
X82336650Y-95297865D01*
X82285275Y-95342382D01*
X82227267Y-95369431D01*
X82227265Y-95369432D01*
X82040858Y-95499954D01*
X81879954Y-95660858D01*
X81749432Y-95847265D01*
X81749431Y-95847267D01*
X81653261Y-96053502D01*
X81653258Y-96053511D01*
X81594366Y-96273302D01*
X81594364Y-96273313D01*
X81574532Y-96499998D01*
X81574532Y-96500001D01*
X81594364Y-96726686D01*
X81594366Y-96726697D01*
X81653258Y-96946488D01*
X81653261Y-96946497D01*
X81749431Y-97152732D01*
X81749432Y-97152734D01*
X81879954Y-97339141D01*
X82040858Y-97500045D01*
X82087693Y-97532839D01*
X82227266Y-97630568D01*
X82252121Y-97642158D01*
X82285275Y-97657618D01*
X82337714Y-97703791D01*
X82356866Y-97770984D01*
X82336650Y-97837865D01*
X82285275Y-97882382D01*
X82227267Y-97909431D01*
X82227265Y-97909432D01*
X82040858Y-98039954D01*
X81879954Y-98200858D01*
X81749432Y-98387265D01*
X81749431Y-98387267D01*
X81653261Y-98593502D01*
X81653258Y-98593511D01*
X81594366Y-98813302D01*
X81594364Y-98813313D01*
X81574532Y-99039998D01*
X81574532Y-99040001D01*
X81594364Y-99266686D01*
X81594366Y-99266697D01*
X81653258Y-99486488D01*
X81653261Y-99486497D01*
X81749431Y-99692732D01*
X81749432Y-99692734D01*
X81879954Y-99879141D01*
X82040858Y-100040045D01*
X82040861Y-100040047D01*
X82227266Y-100170568D01*
X82285275Y-100197618D01*
X82337714Y-100243791D01*
X82356866Y-100310984D01*
X82336650Y-100377865D01*
X82285275Y-100422382D01*
X82227267Y-100449431D01*
X82227265Y-100449432D01*
X82040858Y-100579954D01*
X81879954Y-100740858D01*
X81749432Y-100927265D01*
X81749431Y-100927267D01*
X81653261Y-101133502D01*
X81653258Y-101133511D01*
X81594366Y-101353302D01*
X81594364Y-101353313D01*
X81574532Y-101579998D01*
X81574532Y-101580001D01*
X81594364Y-101806686D01*
X81594366Y-101806697D01*
X81653258Y-102026488D01*
X81653261Y-102026497D01*
X81749431Y-102232732D01*
X81749432Y-102232734D01*
X81879954Y-102419141D01*
X82040858Y-102580045D01*
X82040861Y-102580047D01*
X82227266Y-102710568D01*
X82285275Y-102737618D01*
X82337714Y-102783791D01*
X82356866Y-102850984D01*
X82336650Y-102917865D01*
X82285275Y-102962382D01*
X82227267Y-102989431D01*
X82227265Y-102989432D01*
X82040858Y-103119954D01*
X81879954Y-103280858D01*
X81749432Y-103467265D01*
X81749431Y-103467267D01*
X81653261Y-103673502D01*
X81653258Y-103673511D01*
X81594366Y-103893302D01*
X81594364Y-103893313D01*
X81574532Y-104119998D01*
X81574532Y-104120001D01*
X81594364Y-104346686D01*
X81594366Y-104346697D01*
X81653258Y-104566488D01*
X81653261Y-104566497D01*
X81749431Y-104772732D01*
X81749432Y-104772734D01*
X81879954Y-104959141D01*
X82040858Y-105120045D01*
X82087693Y-105152839D01*
X82227266Y-105250568D01*
X82285275Y-105277618D01*
X82337714Y-105323791D01*
X82356866Y-105390984D01*
X82336650Y-105457865D01*
X82285275Y-105502382D01*
X82227267Y-105529431D01*
X82227265Y-105529432D01*
X82040858Y-105659954D01*
X81879954Y-105820858D01*
X81749432Y-106007265D01*
X81749431Y-106007267D01*
X81653261Y-106213502D01*
X81653258Y-106213511D01*
X81594366Y-106433302D01*
X81594364Y-106433313D01*
X81574532Y-106659998D01*
X81574532Y-106660001D01*
X81594364Y-106886686D01*
X81594366Y-106886697D01*
X81653258Y-107106488D01*
X81653261Y-107106497D01*
X81749431Y-107312732D01*
X81749432Y-107312734D01*
X81879954Y-107499141D01*
X82040858Y-107660045D01*
X82040861Y-107660047D01*
X82227266Y-107790568D01*
X82285275Y-107817618D01*
X82337714Y-107863791D01*
X82356866Y-107930984D01*
X82336650Y-107997865D01*
X82285275Y-108042382D01*
X82227267Y-108069431D01*
X82227265Y-108069432D01*
X82040858Y-108199954D01*
X81879954Y-108360858D01*
X81749432Y-108547265D01*
X81749431Y-108547267D01*
X81653261Y-108753502D01*
X81653258Y-108753511D01*
X81594366Y-108973302D01*
X81594364Y-108973313D01*
X81574532Y-109199998D01*
X81574532Y-109200001D01*
X81594364Y-109426686D01*
X81594366Y-109426697D01*
X81653258Y-109646488D01*
X81653261Y-109646497D01*
X81749431Y-109852732D01*
X81749432Y-109852734D01*
X81879954Y-110039141D01*
X82040858Y-110200045D01*
X82040861Y-110200047D01*
X82227266Y-110330568D01*
X82433504Y-110426739D01*
X82653308Y-110485635D01*
X82815230Y-110499801D01*
X82879998Y-110505468D01*
X82880000Y-110505468D01*
X82880002Y-110505468D01*
X82936673Y-110500509D01*
X83106692Y-110485635D01*
X83326496Y-110426739D01*
X83532734Y-110330568D01*
X83719139Y-110200047D01*
X83880047Y-110039139D01*
X84010568Y-109852734D01*
X84106739Y-109646496D01*
X84165635Y-109426692D01*
X84185468Y-109200000D01*
X84165635Y-108973308D01*
X84106739Y-108753504D01*
X84010568Y-108547266D01*
X83880047Y-108360861D01*
X83880045Y-108360858D01*
X83719141Y-108199954D01*
X83532734Y-108069432D01*
X83532728Y-108069429D01*
X83474725Y-108042382D01*
X83422285Y-107996210D01*
X83403133Y-107929017D01*
X83423348Y-107862135D01*
X83474725Y-107817618D01*
X83532734Y-107790568D01*
X83719139Y-107660047D01*
X83880047Y-107499139D01*
X84010568Y-107312734D01*
X84106739Y-107106496D01*
X84165635Y-106886692D01*
X84185468Y-106660000D01*
X84165635Y-106433308D01*
X84106739Y-106213504D01*
X84010568Y-106007266D01*
X83880047Y-105820861D01*
X83880045Y-105820858D01*
X83719141Y-105659954D01*
X83532735Y-105529433D01*
X83532736Y-105529433D01*
X83532734Y-105529432D01*
X83474722Y-105502380D01*
X83422284Y-105456208D01*
X83403133Y-105389014D01*
X83423349Y-105322133D01*
X83474721Y-105277619D01*
X83532734Y-105250568D01*
X83719139Y-105120047D01*
X83880047Y-104959139D01*
X84010568Y-104772734D01*
X84106739Y-104566496D01*
X84165635Y-104346692D01*
X84185468Y-104120000D01*
X84184495Y-104108884D01*
X84179801Y-104055230D01*
X84165635Y-103893308D01*
X84106739Y-103673504D01*
X84010568Y-103467266D01*
X83905408Y-103317080D01*
X83880045Y-103280858D01*
X83719141Y-103119954D01*
X83532734Y-102989432D01*
X83532728Y-102989429D01*
X83474725Y-102962382D01*
X83422285Y-102916210D01*
X83403133Y-102849017D01*
X83423348Y-102782135D01*
X83474725Y-102737618D01*
X83532734Y-102710568D01*
X83719139Y-102580047D01*
X83880047Y-102419139D01*
X84010568Y-102232734D01*
X84106739Y-102026496D01*
X84165635Y-101806692D01*
X84185468Y-101580000D01*
X84165635Y-101353308D01*
X84106739Y-101133504D01*
X84010568Y-100927266D01*
X83880047Y-100740861D01*
X83880045Y-100740858D01*
X83719141Y-100579954D01*
X83532734Y-100449432D01*
X83532728Y-100449429D01*
X83474725Y-100422382D01*
X83422285Y-100376210D01*
X83403133Y-100309017D01*
X83423348Y-100242135D01*
X83474725Y-100197618D01*
X83532734Y-100170568D01*
X83719139Y-100040047D01*
X83880047Y-99879139D01*
X84010568Y-99692734D01*
X84106739Y-99486496D01*
X84165635Y-99266692D01*
X84185468Y-99040000D01*
X84184111Y-99024494D01*
X84175127Y-98921799D01*
X84165635Y-98813308D01*
X84106739Y-98593504D01*
X84010568Y-98387266D01*
X83880047Y-98200861D01*
X83880045Y-98200858D01*
X83719141Y-98039954D01*
X83532734Y-97909432D01*
X83532728Y-97909429D01*
X83474725Y-97882382D01*
X83422285Y-97836210D01*
X83403133Y-97769017D01*
X83423348Y-97702135D01*
X83474725Y-97657618D01*
X83532734Y-97630568D01*
X83719139Y-97500047D01*
X83880047Y-97339139D01*
X84010568Y-97152734D01*
X84106739Y-96946496D01*
X84165635Y-96726692D01*
X84185468Y-96500000D01*
X84165635Y-96273308D01*
X84106739Y-96053504D01*
X84010568Y-95847266D01*
X83880047Y-95660861D01*
X83880045Y-95660858D01*
X83719141Y-95499954D01*
X83532734Y-95369432D01*
X83532728Y-95369429D01*
X83474725Y-95342382D01*
X83422285Y-95296210D01*
X83403133Y-95229017D01*
X83423348Y-95162135D01*
X83474725Y-95117618D01*
X83532734Y-95090568D01*
X83719139Y-94960047D01*
X83880047Y-94799139D01*
X84010568Y-94612734D01*
X84106739Y-94406496D01*
X84165635Y-94186692D01*
X84185468Y-93960000D01*
X84165635Y-93733308D01*
X84106739Y-93513504D01*
X84010568Y-93307266D01*
X83880047Y-93120861D01*
X83880045Y-93120858D01*
X83719141Y-92959954D01*
X83532734Y-92829432D01*
X83532728Y-92829429D01*
X83505038Y-92816517D01*
X83474724Y-92802381D01*
X83422285Y-92756210D01*
X83403133Y-92689017D01*
X83423348Y-92622135D01*
X83474725Y-92577618D01*
X83477530Y-92576310D01*
X83532734Y-92550568D01*
X83719139Y-92420047D01*
X83880047Y-92259139D01*
X84010568Y-92072734D01*
X84106739Y-91866496D01*
X84165635Y-91646692D01*
X84185468Y-91420000D01*
X84165635Y-91193308D01*
X84106739Y-90973504D01*
X84010568Y-90767266D01*
X83880047Y-90580861D01*
X83880045Y-90580858D01*
X83719141Y-90419954D01*
X83532734Y-90289432D01*
X83532728Y-90289429D01*
X83474725Y-90262382D01*
X83422285Y-90216210D01*
X83403133Y-90149017D01*
X83423348Y-90082135D01*
X83474725Y-90037618D01*
X83532734Y-90010568D01*
X83719139Y-89880047D01*
X83880047Y-89719139D01*
X84010568Y-89532734D01*
X84106739Y-89326496D01*
X84165635Y-89106692D01*
X84185468Y-88880000D01*
X84165635Y-88653308D01*
X84106739Y-88433504D01*
X84010568Y-88227266D01*
X83880047Y-88040861D01*
X83880045Y-88040858D01*
X83719141Y-87879954D01*
X83532734Y-87749432D01*
X83532728Y-87749429D01*
X83495220Y-87731939D01*
X83474724Y-87722381D01*
X83422285Y-87676210D01*
X83403133Y-87609017D01*
X83423348Y-87542135D01*
X83474725Y-87497618D01*
X83532734Y-87470568D01*
X83719139Y-87340047D01*
X83880047Y-87179139D01*
X84010568Y-86992734D01*
X84106739Y-86786496D01*
X84165635Y-86566692D01*
X84185468Y-86340000D01*
X84165635Y-86113308D01*
X84106739Y-85893504D01*
X84010568Y-85687266D01*
X83880047Y-85500861D01*
X83880045Y-85500858D01*
X83719141Y-85339954D01*
X83612546Y-85265317D01*
X83532734Y-85209432D01*
X83474722Y-85182380D01*
X83422284Y-85136208D01*
X83403133Y-85069014D01*
X83423349Y-85002133D01*
X83474721Y-84957619D01*
X83532734Y-84930568D01*
X83719139Y-84800047D01*
X83880047Y-84639139D01*
X84010568Y-84452734D01*
X84106739Y-84246496D01*
X84165635Y-84026692D01*
X84184554Y-83810452D01*
X84185468Y-83800001D01*
X84185468Y-83799998D01*
X84177096Y-83704309D01*
X84165635Y-83573308D01*
X84106739Y-83353504D01*
X84010568Y-83147266D01*
X83880047Y-82960861D01*
X83880045Y-82960858D01*
X83719141Y-82799954D01*
X83532734Y-82669432D01*
X83532728Y-82669429D01*
X83474725Y-82642382D01*
X83422285Y-82596210D01*
X83403133Y-82529017D01*
X83423348Y-82462135D01*
X83474725Y-82417618D01*
X83532734Y-82390568D01*
X83719139Y-82260047D01*
X83880047Y-82099139D01*
X84010568Y-81912734D01*
X84106739Y-81706496D01*
X84165635Y-81486692D01*
X84185468Y-81260000D01*
X84165635Y-81033308D01*
X84106739Y-80813504D01*
X84010568Y-80607266D01*
X83880047Y-80420861D01*
X83880045Y-80420858D01*
X83719141Y-80259954D01*
X83532734Y-80129432D01*
X83532728Y-80129429D01*
X83474725Y-80102382D01*
X83422285Y-80056210D01*
X83403133Y-79989017D01*
X83423348Y-79922135D01*
X83474725Y-79877618D01*
X83475317Y-79877342D01*
X83532734Y-79850568D01*
X83719139Y-79720047D01*
X83880047Y-79559139D01*
X84010568Y-79372734D01*
X84106739Y-79166496D01*
X84165635Y-78946692D01*
X84185468Y-78720000D01*
X84185440Y-78719685D01*
X84172786Y-78575048D01*
X84165635Y-78493308D01*
X84117229Y-78312655D01*
X84106741Y-78273511D01*
X84106738Y-78273502D01*
X84082600Y-78221738D01*
X84010568Y-78067266D01*
X83880047Y-77880861D01*
X83880045Y-77880858D01*
X83719141Y-77719954D01*
X83534026Y-77590337D01*
X83532734Y-77589432D01*
X83474132Y-77562105D01*
X83421694Y-77515933D01*
X83402543Y-77448739D01*
X83422759Y-77381858D01*
X83474135Y-77337341D01*
X83532483Y-77310133D01*
X83563882Y-77288146D01*
X83131099Y-76855363D01*
X83097614Y-76794040D01*
X83102598Y-76724348D01*
X83144470Y-76668415D01*
X83163503Y-76657361D01*
X83168451Y-76654352D01*
X83168458Y-76654349D01*
X83285739Y-76558934D01*
X83365312Y-76446204D01*
X83420052Y-76402788D01*
X83489577Y-76395858D01*
X83551812Y-76427616D01*
X83554296Y-76430032D01*
X83988146Y-76863882D01*
X84010135Y-76832480D01*
X84010136Y-76832478D01*
X84106264Y-76626331D01*
X84106269Y-76626317D01*
X84165139Y-76406610D01*
X84165141Y-76406599D01*
X84184966Y-76180002D01*
X84184966Y-76179997D01*
X84165141Y-75953400D01*
X84165139Y-75953389D01*
X84106269Y-75733682D01*
X84106265Y-75733673D01*
X84010134Y-75527518D01*
X84010133Y-75527516D01*
X83988146Y-75496116D01*
X83988146Y-75496115D01*
X83552651Y-75931611D01*
X83491328Y-75965096D01*
X83421636Y-75960112D01*
X83365703Y-75918240D01*
X83354872Y-75900978D01*
X83333557Y-75859843D01*
X83230360Y-75749346D01*
X83230356Y-75749343D01*
X83151329Y-75701285D01*
X83104277Y-75649634D01*
X83092620Y-75580743D01*
X83120058Y-75516487D01*
X83128077Y-75507657D01*
X83563883Y-75071852D01*
X83563882Y-75071851D01*
X83532485Y-75049867D01*
X83326326Y-74953734D01*
X83326317Y-74953730D01*
X83106610Y-74894860D01*
X83106599Y-74894858D01*
X82880002Y-74875034D01*
X82879998Y-74875034D01*
X82653400Y-74894858D01*
X82653389Y-74894860D01*
X82433682Y-74953730D01*
X82433673Y-74953734D01*
X82227514Y-75049867D01*
X82196115Y-75071851D01*
X82628900Y-75504636D01*
X82662385Y-75565959D01*
X82657401Y-75635651D01*
X82615529Y-75691584D01*
X82596480Y-75702647D01*
X82591543Y-75705650D01*
X82474261Y-75801066D01*
X82474255Y-75801072D01*
X82394688Y-75913794D01*
X82339946Y-75957212D01*
X82270421Y-75964141D01*
X82208186Y-75932382D01*
X82205703Y-75929967D01*
X81836819Y-75561083D01*
X81803334Y-75499760D01*
X81800500Y-75473402D01*
X81800500Y-71382940D01*
X81820185Y-71315901D01*
X81836819Y-71295259D01*
X84795259Y-68336819D01*
X84856582Y-68303334D01*
X84882940Y-68300500D01*
X85500512Y-68300500D01*
X85567551Y-68320185D01*
X85613306Y-68372989D01*
X85623250Y-68442147D01*
X85606050Y-68489597D01*
X85583190Y-68526657D01*
X85583185Y-68526668D01*
X85560226Y-68595954D01*
X85528001Y-68693203D01*
X85528001Y-68693204D01*
X85528000Y-68693204D01*
X85517500Y-68795983D01*
X85517500Y-70396001D01*
X85517501Y-70396018D01*
X85528000Y-70498796D01*
X85528001Y-70498799D01*
X85583185Y-70665331D01*
X85583187Y-70665336D01*
X85602298Y-70696320D01*
X85675288Y-70814656D01*
X85799344Y-70938712D01*
X85948666Y-71030814D01*
X86115203Y-71085999D01*
X86217991Y-71096500D01*
X87185058Y-71096499D01*
X87252097Y-71116183D01*
X87272737Y-71132816D01*
X87377182Y-71237260D01*
X87410665Y-71298580D01*
X87413499Y-71324939D01*
X87413500Y-75588806D01*
X87413500Y-75769191D01*
X87413501Y-75769200D01*
X87422791Y-75809908D01*
X87423955Y-75816763D01*
X87428632Y-75858259D01*
X87442420Y-75897662D01*
X87444345Y-75904345D01*
X87453639Y-75945060D01*
X87471757Y-75982682D01*
X87474419Y-75989110D01*
X87488209Y-76028519D01*
X87510422Y-76063871D01*
X87513787Y-76069959D01*
X87531909Y-76107588D01*
X87557940Y-76140229D01*
X87561966Y-76145904D01*
X87575390Y-76167267D01*
X87584184Y-76181262D01*
X87616173Y-76213251D01*
X87616174Y-76213252D01*
X87838337Y-76435415D01*
X88022594Y-76619671D01*
X88056079Y-76680994D01*
X88058441Y-76718158D01*
X88049532Y-76819996D01*
X88049532Y-76820001D01*
X88069364Y-77046686D01*
X88069366Y-77046697D01*
X88128258Y-77266488D01*
X88128261Y-77266497D01*
X88224431Y-77472732D01*
X88224432Y-77472734D01*
X88354954Y-77659141D01*
X88515858Y-77820045D01*
X88515861Y-77820047D01*
X88702266Y-77950568D01*
X88908504Y-78046739D01*
X88908509Y-78046740D01*
X88908511Y-78046741D01*
X88939853Y-78055139D01*
X89128308Y-78105635D01*
X89290230Y-78119801D01*
X89354998Y-78125468D01*
X89355000Y-78125468D01*
X89355002Y-78125468D01*
X89411672Y-78120509D01*
X89581692Y-78105635D01*
X89801496Y-78046739D01*
X90007734Y-77950568D01*
X90194139Y-77820047D01*
X90355047Y-77659139D01*
X90398425Y-77597188D01*
X90453001Y-77553563D01*
X90522499Y-77546369D01*
X90584854Y-77577891D01*
X90601576Y-77597189D01*
X90644955Y-77659142D01*
X90805858Y-77820045D01*
X90805861Y-77820047D01*
X90992266Y-77950568D01*
X91198504Y-78046739D01*
X91198509Y-78046740D01*
X91198511Y-78046741D01*
X91229853Y-78055139D01*
X91418308Y-78105635D01*
X91580230Y-78119801D01*
X91644998Y-78125468D01*
X91645000Y-78125468D01*
X91645002Y-78125468D01*
X91701673Y-78120509D01*
X91871692Y-78105635D01*
X92091496Y-78046739D01*
X92297734Y-77950568D01*
X92484139Y-77820047D01*
X92645047Y-77659139D01*
X92775568Y-77472734D01*
X92871739Y-77266496D01*
X92930635Y-77046692D01*
X92950468Y-76820000D01*
X92930635Y-76593308D01*
X92875197Y-76386410D01*
X92871741Y-76373511D01*
X92871738Y-76373502D01*
X92856998Y-76341892D01*
X92775568Y-76167266D01*
X92663726Y-76007537D01*
X92645045Y-75980858D01*
X92484141Y-75819954D01*
X92297734Y-75689432D01*
X92297732Y-75689431D01*
X92091497Y-75593261D01*
X92091488Y-75593258D01*
X91871697Y-75534366D01*
X91871693Y-75534365D01*
X91871692Y-75534365D01*
X91871691Y-75534364D01*
X91871686Y-75534364D01*
X91645002Y-75514532D01*
X91644998Y-75514532D01*
X91543160Y-75523441D01*
X91474660Y-75509674D01*
X91444672Y-75487594D01*
X91032019Y-75074941D01*
X90998534Y-75013618D01*
X90995700Y-74987260D01*
X90995700Y-70333005D01*
X90995699Y-70333002D01*
X90995172Y-70330692D01*
X90986403Y-70292276D01*
X90985244Y-70285451D01*
X90980568Y-70243945D01*
X90966774Y-70204524D01*
X90964852Y-70197855D01*
X90955559Y-70157139D01*
X90937445Y-70119526D01*
X90934783Y-70113098D01*
X90920989Y-70073678D01*
X90920988Y-70073678D01*
X90898763Y-70038306D01*
X90895413Y-70032244D01*
X90877291Y-69994613D01*
X90851249Y-69961957D01*
X90847238Y-69956304D01*
X90831702Y-69931579D01*
X90825018Y-69920940D01*
X90754819Y-69850741D01*
X90721334Y-69789418D01*
X90718500Y-69763060D01*
X90718500Y-69387034D01*
X90716949Y-69369302D01*
X90703063Y-69210592D01*
X90641903Y-68982337D01*
X90542035Y-68768171D01*
X90523105Y-68741135D01*
X90406494Y-68574597D01*
X90344078Y-68512181D01*
X90310593Y-68450858D01*
X90315577Y-68381166D01*
X90357449Y-68325233D01*
X90422913Y-68300816D01*
X90431759Y-68300500D01*
X91117060Y-68300500D01*
X91184099Y-68320185D01*
X91204741Y-68336819D01*
X97283180Y-74415258D01*
X97316665Y-74476581D01*
X97319499Y-74502939D01*
X97319499Y-75089951D01*
X97299814Y-75156990D01*
X97283181Y-75177632D01*
X97119951Y-75340862D01*
X96989432Y-75527265D01*
X96989431Y-75527267D01*
X96893261Y-75733502D01*
X96893258Y-75733511D01*
X96834366Y-75953302D01*
X96834364Y-75953313D01*
X96814532Y-76179998D01*
X96814532Y-76180003D01*
X96817327Y-76211953D01*
X96803560Y-76280452D01*
X96781480Y-76310440D01*
X94997738Y-78094184D01*
X94870186Y-78221735D01*
X94870183Y-78221739D01*
X94847966Y-78257096D01*
X94843941Y-78262769D01*
X94817910Y-78295410D01*
X94799791Y-78333033D01*
X94796427Y-78339120D01*
X94774212Y-78374476D01*
X94774208Y-78374483D01*
X94760416Y-78413895D01*
X94757755Y-78420320D01*
X94739639Y-78457939D01*
X94730344Y-78498659D01*
X94728419Y-78505341D01*
X94714632Y-78544744D01*
X94709955Y-78586235D01*
X94708791Y-78593089D01*
X94699500Y-78633806D01*
X94699500Y-109590191D01*
X94699501Y-109590200D01*
X94708791Y-109630908D01*
X94709955Y-109637763D01*
X94714632Y-109679259D01*
X94728420Y-109718662D01*
X94730345Y-109725345D01*
X94739639Y-109766061D01*
X94757759Y-109803688D01*
X94760421Y-109810114D01*
X94774212Y-109849525D01*
X94796422Y-109884872D01*
X94799787Y-109890959D01*
X94817910Y-109928589D01*
X94843940Y-109961229D01*
X94847966Y-109966904D01*
X94870182Y-110002259D01*
X94870184Y-110002262D01*
X99356241Y-114488319D01*
X99389726Y-114549642D01*
X99384742Y-114619334D01*
X99342870Y-114675267D01*
X99277406Y-114699684D01*
X99268560Y-114700000D01*
X98800000Y-114700000D01*
X98800000Y-115746084D01*
X98780315Y-115813123D01*
X98727511Y-115858878D01*
X98658353Y-115868822D01*
X98645163Y-115866188D01*
X98582117Y-115850000D01*
X98582114Y-115850000D01*
X98459106Y-115850000D01*
X98459094Y-115850000D01*
X98339541Y-115865104D01*
X98270563Y-115853977D01*
X98218551Y-115807324D01*
X98200000Y-115742082D01*
X98200000Y-114700000D01*
X97152155Y-114700000D01*
X97092627Y-114706401D01*
X97092620Y-114706403D01*
X96957913Y-114756645D01*
X96957906Y-114756649D01*
X96842812Y-114842809D01*
X96842809Y-114842812D01*
X96756649Y-114957906D01*
X96756645Y-114957913D01*
X96706403Y-115092620D01*
X96706401Y-115092627D01*
X96700000Y-115152155D01*
X96700000Y-116200000D01*
X97745617Y-116200000D01*
X97812656Y-116219685D01*
X97858411Y-116272489D01*
X97868355Y-116341647D01*
X97867422Y-116347227D01*
X97846127Y-116458862D01*
X97846127Y-116458864D01*
X97846127Y-116458865D01*
X97856439Y-116622766D01*
X97861286Y-116637684D01*
X97863280Y-116707525D01*
X97827198Y-116767357D01*
X97764497Y-116798184D01*
X97743354Y-116800000D01*
X96700000Y-116800000D01*
X96700000Y-117847844D01*
X96706401Y-117907372D01*
X96706403Y-117907379D01*
X96756645Y-118042086D01*
X96756649Y-118042093D01*
X96842809Y-118157187D01*
X96842812Y-118157190D01*
X96957906Y-118243350D01*
X96957913Y-118243354D01*
X97092620Y-118293596D01*
X97092627Y-118293598D01*
X97152155Y-118299999D01*
X97152172Y-118300000D01*
X98200000Y-118300000D01*
X98200000Y-117253915D01*
X98219685Y-117186876D01*
X98272489Y-117141121D01*
X98341647Y-117131177D01*
X98354816Y-117133806D01*
X98417886Y-117150000D01*
X98417890Y-117150000D01*
X98540892Y-117150000D01*
X98540894Y-117150000D01*
X98540899Y-117149999D01*
X98540903Y-117149999D01*
X98572391Y-117146021D01*
X98660460Y-117134895D01*
X98729436Y-117146021D01*
X98781448Y-117192674D01*
X98800000Y-117257917D01*
X98800000Y-118300000D01*
X99847828Y-118300000D01*
X99847844Y-118299999D01*
X99907372Y-118293598D01*
X99907379Y-118293596D01*
X100042086Y-118243354D01*
X100042093Y-118243350D01*
X100157187Y-118157190D01*
X100157190Y-118157187D01*
X100243350Y-118042093D01*
X100243354Y-118042086D01*
X100293596Y-117907379D01*
X100293598Y-117907372D01*
X100299999Y-117847844D01*
X100300000Y-117847827D01*
X100300000Y-116800000D01*
X99254383Y-116800000D01*
X99187344Y-116780315D01*
X99141589Y-116727511D01*
X99131645Y-116658353D01*
X99132579Y-116652765D01*
X99135456Y-116637684D01*
X99153873Y-116541138D01*
X99143561Y-116377234D01*
X99138714Y-116362316D01*
X99136720Y-116292475D01*
X99172802Y-116232643D01*
X99235503Y-116201816D01*
X99256646Y-116200000D01*
X100300000Y-116200000D01*
X100300000Y-115731439D01*
X100319685Y-115664400D01*
X100372489Y-115618645D01*
X100441647Y-115608701D01*
X100505203Y-115637726D01*
X100511666Y-115643744D01*
X101140411Y-116272489D01*
X101712303Y-116844381D01*
X101745513Y-116904469D01*
X101774664Y-117032188D01*
X101774666Y-117032195D01*
X101861685Y-117253915D01*
X101873257Y-117283398D01*
X102008185Y-117517102D01*
X102144080Y-117687509D01*
X102176442Y-117728089D01*
X102363183Y-117901358D01*
X102374259Y-117911635D01*
X102597226Y-118063651D01*
X102840359Y-118180738D01*
X103098228Y-118260280D01*
X103098229Y-118260280D01*
X103098232Y-118260281D01*
X103365063Y-118300499D01*
X103365068Y-118300499D01*
X103365071Y-118300500D01*
X103365072Y-118300500D01*
X103634928Y-118300500D01*
X103634929Y-118300500D01*
X103634936Y-118300499D01*
X103901767Y-118260281D01*
X103901768Y-118260280D01*
X103901772Y-118260280D01*
X104159641Y-118180738D01*
X104402775Y-118063651D01*
X104625741Y-117911635D01*
X104823561Y-117728085D01*
X104991815Y-117517102D01*
X105126743Y-117283398D01*
X105225334Y-117032195D01*
X105285383Y-116769103D01*
X105305549Y-116500000D01*
X105302466Y-116458865D01*
X105285383Y-116230898D01*
X105237796Y-116022405D01*
X105225334Y-115967805D01*
X105126743Y-115716602D01*
X104991815Y-115482898D01*
X104823561Y-115271915D01*
X104823560Y-115271914D01*
X104823557Y-115271910D01*
X104625741Y-115088365D01*
X104610905Y-115078250D01*
X104402775Y-114936349D01*
X104402769Y-114936346D01*
X104402768Y-114936345D01*
X104402767Y-114936344D01*
X104159643Y-114819263D01*
X104159645Y-114819263D01*
X103901773Y-114739720D01*
X103901767Y-114739718D01*
X103634936Y-114699500D01*
X103634929Y-114699500D01*
X103365071Y-114699500D01*
X103365063Y-114699500D01*
X103098232Y-114739718D01*
X103098226Y-114739720D01*
X102840358Y-114819262D01*
X102597230Y-114936346D01*
X102565597Y-114957913D01*
X102374259Y-115088365D01*
X102374256Y-115088367D01*
X102370426Y-115090979D01*
X102369651Y-115089842D01*
X102310590Y-115113929D01*
X102241900Y-115101148D01*
X102210328Y-115078250D01*
X97832191Y-110700113D01*
X97798706Y-110638790D01*
X97803690Y-110569098D01*
X97845562Y-110513165D01*
X97911026Y-110488748D01*
X97930672Y-110488903D01*
X98096901Y-110503447D01*
X98119999Y-110505468D01*
X98120000Y-110505468D01*
X98120002Y-110505468D01*
X98176672Y-110500509D01*
X98346692Y-110485635D01*
X98566496Y-110426739D01*
X98772734Y-110330568D01*
X98959139Y-110200047D01*
X99120047Y-110039139D01*
X99250568Y-109852734D01*
X99346739Y-109646496D01*
X99405635Y-109426692D01*
X99425468Y-109200000D01*
X99405635Y-108973308D01*
X99346739Y-108753504D01*
X99250568Y-108547266D01*
X99120047Y-108360861D01*
X99120045Y-108360858D01*
X98959141Y-108199954D01*
X98772734Y-108069432D01*
X98772728Y-108069429D01*
X98714725Y-108042382D01*
X98662285Y-107996210D01*
X98643133Y-107929017D01*
X98663348Y-107862135D01*
X98714725Y-107817618D01*
X98772734Y-107790568D01*
X98959139Y-107660047D01*
X99119186Y-107500000D01*
X102126341Y-107500000D01*
X102146936Y-107735403D01*
X102146938Y-107735413D01*
X102208094Y-107963655D01*
X102208096Y-107963659D01*
X102208097Y-107963663D01*
X102212573Y-107973261D01*
X102307964Y-108177828D01*
X102307965Y-108177830D01*
X102443505Y-108371402D01*
X102610597Y-108538494D01*
X102804169Y-108674034D01*
X102804171Y-108674035D01*
X103018337Y-108773903D01*
X103246592Y-108835063D01*
X103423034Y-108850500D01*
X103840966Y-108850500D01*
X104017408Y-108835063D01*
X104245663Y-108773903D01*
X104459829Y-108674035D01*
X104653401Y-108538495D01*
X104820495Y-108371401D01*
X104956035Y-108177830D01*
X105055903Y-107963663D01*
X105117063Y-107735408D01*
X105137659Y-107500000D01*
X105117063Y-107264592D01*
X105055903Y-107036337D01*
X104956035Y-106822171D01*
X104956034Y-106822169D01*
X104820494Y-106628597D01*
X104672932Y-106481035D01*
X104639447Y-106419712D01*
X104644431Y-106350020D01*
X104686303Y-106294087D01*
X104695516Y-106287815D01*
X104850345Y-106192315D01*
X104974315Y-106068345D01*
X105066356Y-105919124D01*
X105066358Y-105919119D01*
X105121505Y-105752697D01*
X105121506Y-105752690D01*
X105131999Y-105649986D01*
X105132000Y-105649973D01*
X105132000Y-105300000D01*
X104230666Y-105300000D01*
X104163627Y-105280315D01*
X104117872Y-105227511D01*
X104107928Y-105158353D01*
X104111689Y-105141066D01*
X104131999Y-105071892D01*
X104132000Y-105071889D01*
X104132000Y-104928110D01*
X104131999Y-104928107D01*
X104111689Y-104858934D01*
X104111689Y-104789064D01*
X104149464Y-104730286D01*
X104213020Y-104701262D01*
X104230666Y-104700000D01*
X105131999Y-104700000D01*
X105131999Y-104350028D01*
X105131998Y-104350013D01*
X105121505Y-104247302D01*
X105066358Y-104080880D01*
X105066356Y-104080875D01*
X104974315Y-103931654D01*
X104850345Y-103807684D01*
X104701124Y-103715643D01*
X104701119Y-103715641D01*
X104534697Y-103660494D01*
X104534690Y-103660493D01*
X104431986Y-103650000D01*
X103932000Y-103650000D01*
X103932000Y-104395975D01*
X103912315Y-104463014D01*
X103859511Y-104508769D01*
X103790353Y-104518713D01*
X103775608Y-104515505D01*
X103682519Y-104502121D01*
X103667763Y-104500000D01*
X103596237Y-104500000D01*
X103480906Y-104516582D01*
X103480671Y-104514953D01*
X103421059Y-104514950D01*
X103362283Y-104477173D01*
X103333261Y-104413615D01*
X103332000Y-104395975D01*
X103332000Y-103650000D01*
X102832028Y-103650000D01*
X102832012Y-103650001D01*
X102729302Y-103660494D01*
X102562880Y-103715641D01*
X102562875Y-103715643D01*
X102413654Y-103807684D01*
X102289684Y-103931654D01*
X102197643Y-104080875D01*
X102197641Y-104080880D01*
X102142494Y-104247302D01*
X102142493Y-104247309D01*
X102132000Y-104350013D01*
X102132000Y-104700000D01*
X103033334Y-104700000D01*
X103100373Y-104719685D01*
X103146128Y-104772489D01*
X103156072Y-104841647D01*
X103152311Y-104858934D01*
X103132000Y-104928107D01*
X103132000Y-105071892D01*
X103152311Y-105141066D01*
X103152311Y-105210936D01*
X103114536Y-105269714D01*
X103050980Y-105298738D01*
X103033334Y-105300000D01*
X102132001Y-105300000D01*
X102132001Y-105649986D01*
X102142494Y-105752697D01*
X102197641Y-105919119D01*
X102197643Y-105919124D01*
X102289684Y-106068345D01*
X102413654Y-106192315D01*
X102568484Y-106287815D01*
X102615208Y-106339763D01*
X102626431Y-106408726D01*
X102598587Y-106472808D01*
X102591069Y-106481035D01*
X102443501Y-106628603D01*
X102443501Y-106628604D01*
X102307967Y-106822165D01*
X102307965Y-106822169D01*
X102208098Y-107036335D01*
X102208094Y-107036344D01*
X102146938Y-107264586D01*
X102146936Y-107264596D01*
X102126341Y-107499999D01*
X102126341Y-107500000D01*
X99119186Y-107500000D01*
X99120047Y-107499139D01*
X99250568Y-107312734D01*
X99346739Y-107106496D01*
X99405635Y-106886692D01*
X99425468Y-106660000D01*
X99405635Y-106433308D01*
X99346739Y-106213504D01*
X99250568Y-106007266D01*
X99120047Y-105820861D01*
X99120045Y-105820858D01*
X98959141Y-105659954D01*
X98772734Y-105529432D01*
X98772728Y-105529429D01*
X98714725Y-105502382D01*
X98662285Y-105456210D01*
X98643133Y-105389017D01*
X98663348Y-105322135D01*
X98714725Y-105277618D01*
X98772734Y-105250568D01*
X98959139Y-105120047D01*
X99120047Y-104959139D01*
X99250568Y-104772734D01*
X99346739Y-104566496D01*
X99405635Y-104346692D01*
X99425468Y-104120000D01*
X99424495Y-104108884D01*
X99419801Y-104055230D01*
X99405635Y-103893308D01*
X99346739Y-103673504D01*
X99250568Y-103467266D01*
X99145408Y-103317080D01*
X99120045Y-103280858D01*
X98959141Y-103119954D01*
X98772734Y-102989432D01*
X98772728Y-102989429D01*
X98714725Y-102962382D01*
X98662285Y-102916210D01*
X98643133Y-102849017D01*
X98663348Y-102782135D01*
X98714725Y-102737618D01*
X98772734Y-102710568D01*
X98959139Y-102580047D01*
X99120047Y-102419139D01*
X99250568Y-102232734D01*
X99346739Y-102026496D01*
X99405635Y-101806692D01*
X99425468Y-101580000D01*
X99405635Y-101353308D01*
X99346739Y-101133504D01*
X99250568Y-100927266D01*
X99120047Y-100740861D01*
X99120045Y-100740858D01*
X98959141Y-100579954D01*
X98772734Y-100449432D01*
X98772728Y-100449429D01*
X98714725Y-100422382D01*
X98662285Y-100376210D01*
X98643133Y-100309017D01*
X98663348Y-100242135D01*
X98714725Y-100197618D01*
X98772734Y-100170568D01*
X98959139Y-100040047D01*
X99120047Y-99879139D01*
X99250568Y-99692734D01*
X99346739Y-99486496D01*
X99405635Y-99266692D01*
X99425468Y-99040000D01*
X99424111Y-99024494D01*
X99415127Y-98921799D01*
X99406133Y-98819001D01*
X101305500Y-98819001D01*
X101305501Y-98819018D01*
X101316000Y-98921796D01*
X101316001Y-98921799D01*
X101355303Y-99040402D01*
X101371186Y-99088334D01*
X101463288Y-99237656D01*
X101587344Y-99361712D01*
X101736666Y-99453814D01*
X101903203Y-99508999D01*
X102005991Y-99519500D01*
X103306008Y-99519499D01*
X103408797Y-99508999D01*
X103575334Y-99453814D01*
X103724656Y-99361712D01*
X103848712Y-99237656D01*
X103940814Y-99088334D01*
X103940814Y-99088333D01*
X103944448Y-99082442D01*
X103996396Y-99035717D01*
X104065358Y-99024494D01*
X104129441Y-99052337D01*
X104137668Y-99059856D01*
X104284921Y-99207108D01*
X104478421Y-99342600D01*
X104692507Y-99442429D01*
X104692516Y-99442433D01*
X104855999Y-99486238D01*
X104856000Y-99486237D01*
X104856000Y-98621701D01*
X104875685Y-98554662D01*
X104928489Y-98508907D01*
X104997647Y-98498963D01*
X105014936Y-98502724D01*
X105020800Y-98504446D01*
X105020801Y-98504446D01*
X105122025Y-98519000D01*
X105122026Y-98519000D01*
X105189974Y-98519000D01*
X105189975Y-98519000D01*
X105291199Y-98504446D01*
X105291200Y-98504445D01*
X105297064Y-98502724D01*
X105366934Y-98502724D01*
X105425712Y-98540498D01*
X105454738Y-98604053D01*
X105456000Y-98621701D01*
X105456000Y-99486238D01*
X105619483Y-99442433D01*
X105619492Y-99442429D01*
X105833577Y-99342600D01*
X105833579Y-99342599D01*
X106027073Y-99207113D01*
X106027079Y-99207108D01*
X106194108Y-99040079D01*
X106194113Y-99040073D01*
X106304119Y-98882967D01*
X106358695Y-98839342D01*
X106428194Y-98832148D01*
X106490549Y-98863670D01*
X106507269Y-98882967D01*
X106617505Y-99040402D01*
X106754932Y-99177828D01*
X106784599Y-99207495D01*
X106869141Y-99266692D01*
X106978165Y-99343032D01*
X106978167Y-99343033D01*
X106978170Y-99343035D01*
X107192337Y-99442903D01*
X107192343Y-99442904D01*
X107192344Y-99442905D01*
X107231632Y-99453432D01*
X107420592Y-99504063D01*
X107597034Y-99519500D01*
X107655999Y-99524659D01*
X107656000Y-99524659D01*
X107656001Y-99524659D01*
X107714966Y-99519500D01*
X107891408Y-99504063D01*
X108119663Y-99442903D01*
X108333829Y-99343035D01*
X108527401Y-99207495D01*
X108694495Y-99040401D01*
X108830035Y-98846829D01*
X108929903Y-98632663D01*
X108965450Y-98500000D01*
X120994341Y-98500000D01*
X121014936Y-98735403D01*
X121014938Y-98735413D01*
X121076094Y-98963655D01*
X121076096Y-98963659D01*
X121076097Y-98963663D01*
X121104463Y-99024494D01*
X121175964Y-99177828D01*
X121175965Y-99177830D01*
X121311505Y-99371402D01*
X121478597Y-99538494D01*
X121672169Y-99674034D01*
X121672171Y-99674035D01*
X121886337Y-99773903D01*
X122114592Y-99835063D01*
X122291034Y-99850500D01*
X122708966Y-99850500D01*
X122885408Y-99835063D01*
X123113663Y-99773903D01*
X123327829Y-99674035D01*
X123521401Y-99538495D01*
X123688495Y-99371401D01*
X123824035Y-99177830D01*
X123923903Y-98963663D01*
X123985063Y-98735408D01*
X124005659Y-98500000D01*
X123985063Y-98264592D01*
X123923903Y-98036337D01*
X123824035Y-97822171D01*
X123824034Y-97822169D01*
X123688494Y-97628597D01*
X123540932Y-97481035D01*
X123507447Y-97419712D01*
X123512431Y-97350020D01*
X123554303Y-97294087D01*
X123563516Y-97287815D01*
X123718345Y-97192315D01*
X123842315Y-97068345D01*
X123934356Y-96919124D01*
X123934358Y-96919119D01*
X123989505Y-96752697D01*
X123989506Y-96752690D01*
X123999999Y-96649986D01*
X124000000Y-96649973D01*
X124000000Y-96300000D01*
X123098666Y-96300000D01*
X123031627Y-96280315D01*
X122985872Y-96227511D01*
X122975928Y-96158353D01*
X122979689Y-96141066D01*
X122999999Y-96071892D01*
X123000000Y-96071889D01*
X123000000Y-95928110D01*
X122999999Y-95928107D01*
X122979689Y-95858934D01*
X122979689Y-95789064D01*
X123017464Y-95730286D01*
X123081020Y-95701262D01*
X123098666Y-95700000D01*
X123999999Y-95700000D01*
X123999999Y-95350028D01*
X123999998Y-95350013D01*
X123989505Y-95247302D01*
X123934358Y-95080880D01*
X123934356Y-95080875D01*
X123842315Y-94931654D01*
X123718345Y-94807684D01*
X123569124Y-94715643D01*
X123569119Y-94715641D01*
X123402697Y-94660494D01*
X123402690Y-94660493D01*
X123299986Y-94650000D01*
X122800000Y-94650000D01*
X122800000Y-95395975D01*
X122780315Y-95463014D01*
X122727511Y-95508769D01*
X122658353Y-95518713D01*
X122643608Y-95515505D01*
X122550519Y-95502121D01*
X122535763Y-95500000D01*
X122464237Y-95500000D01*
X122348906Y-95516582D01*
X122348671Y-95514953D01*
X122289059Y-95514950D01*
X122230283Y-95477173D01*
X122201261Y-95413615D01*
X122200000Y-95395975D01*
X122200000Y-94650000D01*
X121700028Y-94650000D01*
X121700012Y-94650001D01*
X121597302Y-94660494D01*
X121430880Y-94715641D01*
X121430875Y-94715643D01*
X121281654Y-94807684D01*
X121157684Y-94931654D01*
X121065643Y-95080875D01*
X121065641Y-95080880D01*
X121010494Y-95247302D01*
X121010493Y-95247309D01*
X121000000Y-95350013D01*
X121000000Y-95700000D01*
X121901334Y-95700000D01*
X121968373Y-95719685D01*
X122014128Y-95772489D01*
X122024072Y-95841647D01*
X122020311Y-95858934D01*
X122000000Y-95928107D01*
X122000000Y-96071892D01*
X122020311Y-96141066D01*
X122020311Y-96210936D01*
X121982536Y-96269714D01*
X121918980Y-96298738D01*
X121901334Y-96300000D01*
X121000001Y-96300000D01*
X121000001Y-96649986D01*
X121010494Y-96752697D01*
X121065641Y-96919119D01*
X121065643Y-96919124D01*
X121157684Y-97068345D01*
X121281654Y-97192315D01*
X121436484Y-97287815D01*
X121483208Y-97339763D01*
X121494431Y-97408726D01*
X121466587Y-97472808D01*
X121459069Y-97481035D01*
X121311501Y-97628603D01*
X121311501Y-97628604D01*
X121175967Y-97822165D01*
X121175965Y-97822169D01*
X121076098Y-98036335D01*
X121076094Y-98036344D01*
X121014938Y-98264586D01*
X121014936Y-98264596D01*
X120994341Y-98499999D01*
X120994341Y-98500000D01*
X108965450Y-98500000D01*
X108991063Y-98404408D01*
X109006500Y-98227966D01*
X109006500Y-97860034D01*
X108991063Y-97683592D01*
X108929903Y-97455337D01*
X108830035Y-97241171D01*
X108819481Y-97226097D01*
X108694494Y-97047597D01*
X108527402Y-96880506D01*
X108527395Y-96880501D01*
X108503349Y-96863664D01*
X108437075Y-96817258D01*
X108333834Y-96744967D01*
X108333830Y-96744965D01*
X108294654Y-96726697D01*
X108119663Y-96645097D01*
X108119659Y-96645096D01*
X108119655Y-96645094D01*
X107891413Y-96583938D01*
X107891403Y-96583936D01*
X107656001Y-96563341D01*
X107655999Y-96563341D01*
X107420596Y-96583936D01*
X107420586Y-96583938D01*
X107192344Y-96645094D01*
X107192335Y-96645098D01*
X106978171Y-96744964D01*
X106978169Y-96744965D01*
X106784597Y-96880505D01*
X106617508Y-97047594D01*
X106507269Y-97205032D01*
X106452692Y-97248656D01*
X106383193Y-97255849D01*
X106320839Y-97224327D01*
X106304119Y-97205031D01*
X106194113Y-97047926D01*
X106194108Y-97047920D01*
X106027082Y-96880894D01*
X105833578Y-96745399D01*
X105619495Y-96645571D01*
X105456000Y-96601761D01*
X105456000Y-97466298D01*
X105436315Y-97533337D01*
X105383511Y-97579092D01*
X105314353Y-97589036D01*
X105297072Y-97585277D01*
X105291204Y-97583554D01*
X105206845Y-97571425D01*
X105189975Y-97569000D01*
X105122025Y-97569000D01*
X105020795Y-97583554D01*
X105014928Y-97585277D01*
X104945058Y-97585273D01*
X104886282Y-97547495D01*
X104857261Y-97483938D01*
X104856000Y-97466298D01*
X104856000Y-96601761D01*
X104692504Y-96645571D01*
X104478422Y-96745399D01*
X104478420Y-96745400D01*
X104284926Y-96880886D01*
X104137668Y-97028144D01*
X104076345Y-97061628D01*
X104006653Y-97056644D01*
X103950720Y-97014772D01*
X103944448Y-97005558D01*
X103915091Y-96957963D01*
X103848712Y-96850344D01*
X103724656Y-96726288D01*
X103593792Y-96645571D01*
X103575336Y-96634187D01*
X103575331Y-96634185D01*
X103573862Y-96633698D01*
X103408797Y-96579001D01*
X103408795Y-96579000D01*
X103306010Y-96568500D01*
X102005998Y-96568500D01*
X102005981Y-96568501D01*
X101903203Y-96579000D01*
X101903200Y-96579001D01*
X101736668Y-96634185D01*
X101736663Y-96634187D01*
X101587342Y-96726289D01*
X101463289Y-96850342D01*
X101371187Y-96999663D01*
X101371185Y-96999668D01*
X101355196Y-97047920D01*
X101316001Y-97166203D01*
X101316001Y-97166204D01*
X101316000Y-97166204D01*
X101305500Y-97268983D01*
X101305500Y-98819001D01*
X99406133Y-98819001D01*
X99405635Y-98813308D01*
X99346739Y-98593504D01*
X99250568Y-98387266D01*
X99120047Y-98200861D01*
X99120045Y-98200858D01*
X98959141Y-98039954D01*
X98772734Y-97909432D01*
X98772728Y-97909429D01*
X98714725Y-97882382D01*
X98662285Y-97836210D01*
X98643133Y-97769017D01*
X98663348Y-97702135D01*
X98714725Y-97657618D01*
X98772734Y-97630568D01*
X98959139Y-97500047D01*
X99120047Y-97339139D01*
X99250568Y-97152734D01*
X99346739Y-96946496D01*
X99405635Y-96726692D01*
X99425468Y-96500000D01*
X99405635Y-96273308D01*
X99387318Y-96204948D01*
X99388981Y-96135103D01*
X99419410Y-96085179D01*
X101842771Y-93661819D01*
X101904095Y-93628334D01*
X101930453Y-93625500D01*
X123577548Y-93625500D01*
X123644587Y-93645185D01*
X123665229Y-93661819D01*
X126208586Y-96205177D01*
X126242071Y-96266500D01*
X126240680Y-96324949D01*
X126222367Y-96393296D01*
X126222364Y-96393313D01*
X126202532Y-96619999D01*
X126202532Y-96620001D01*
X126222364Y-96846686D01*
X126222366Y-96846697D01*
X126281258Y-97066488D01*
X126281261Y-97066497D01*
X126377431Y-97272732D01*
X126377432Y-97272734D01*
X126507954Y-97459141D01*
X126668858Y-97620045D01*
X126697778Y-97640295D01*
X126855266Y-97750568D01*
X127061504Y-97846739D01*
X127281308Y-97905635D01*
X127443230Y-97919801D01*
X127507998Y-97925468D01*
X127508000Y-97925468D01*
X127508002Y-97925468D01*
X127564673Y-97920509D01*
X127734692Y-97905635D01*
X127954496Y-97846739D01*
X128160734Y-97750568D01*
X128347139Y-97620047D01*
X128508047Y-97459139D01*
X128601296Y-97325965D01*
X128620613Y-97298377D01*
X128675189Y-97254752D01*
X128722188Y-97245500D01*
X131817257Y-97245500D01*
X131832877Y-97247224D01*
X131832904Y-97246939D01*
X131840660Y-97247671D01*
X131840667Y-97247673D01*
X131909814Y-97245500D01*
X131939350Y-97245500D01*
X131946228Y-97244630D01*
X131952041Y-97244172D01*
X131998627Y-97242709D01*
X132017869Y-97237117D01*
X132036912Y-97233174D01*
X132056792Y-97230664D01*
X132100122Y-97213507D01*
X132105646Y-97211617D01*
X132109396Y-97210527D01*
X132150390Y-97198618D01*
X132167629Y-97188422D01*
X132185103Y-97179862D01*
X132203727Y-97172488D01*
X132203727Y-97172487D01*
X132203732Y-97172486D01*
X132241449Y-97145082D01*
X132246305Y-97141892D01*
X132286420Y-97118170D01*
X132300589Y-97103999D01*
X132315379Y-97091368D01*
X132331587Y-97079594D01*
X132361299Y-97043676D01*
X132365212Y-97039376D01*
X132940469Y-96464119D01*
X133001790Y-96430636D01*
X133071482Y-96435620D01*
X133127415Y-96477492D01*
X133151676Y-96540993D01*
X133159936Y-96635404D01*
X133159938Y-96635413D01*
X133221094Y-96863655D01*
X133221096Y-96863659D01*
X133221097Y-96863663D01*
X133265070Y-96957963D01*
X133320964Y-97077828D01*
X133320965Y-97077830D01*
X133456505Y-97271402D01*
X133623597Y-97438494D01*
X133817169Y-97574034D01*
X133817171Y-97574035D01*
X134031337Y-97673903D01*
X134259592Y-97735063D01*
X134436034Y-97750500D01*
X134803966Y-97750500D01*
X134980408Y-97735063D01*
X135208663Y-97673903D01*
X135422829Y-97574035D01*
X135616401Y-97438495D01*
X135783495Y-97271401D01*
X135919035Y-97077830D01*
X136018903Y-96863663D01*
X136080063Y-96635408D01*
X136100659Y-96400000D01*
X136100072Y-96393296D01*
X136091910Y-96300000D01*
X136080063Y-96164592D01*
X136026727Y-95965540D01*
X136028391Y-95895690D01*
X136058820Y-95845768D01*
X138383788Y-93520801D01*
X138396042Y-93510986D01*
X138395859Y-93510764D01*
X138401866Y-93505792D01*
X138401877Y-93505786D01*
X138432775Y-93472882D01*
X138449227Y-93455364D01*
X138459671Y-93444918D01*
X138470120Y-93434471D01*
X138474379Y-93428978D01*
X138478152Y-93424561D01*
X138510062Y-93390582D01*
X138519715Y-93373020D01*
X138530389Y-93356770D01*
X138542673Y-93340936D01*
X138561180Y-93298167D01*
X138563749Y-93292924D01*
X138586196Y-93252093D01*
X138586197Y-93252092D01*
X138591177Y-93232691D01*
X138597478Y-93214288D01*
X138605438Y-93195896D01*
X138612730Y-93149849D01*
X138613911Y-93144152D01*
X138625500Y-93099019D01*
X138625500Y-93078982D01*
X138627027Y-93059582D01*
X138630160Y-93039804D01*
X138625775Y-92993415D01*
X138625500Y-92987577D01*
X138625500Y-83582742D01*
X138627224Y-83567122D01*
X138626939Y-83567095D01*
X138627673Y-83559333D01*
X138625500Y-83490172D01*
X138625500Y-72994194D01*
X138627224Y-72978580D01*
X138626938Y-72978553D01*
X138627672Y-72970790D01*
X138625500Y-72901660D01*
X138625500Y-72872108D01*
X138625500Y-72872107D01*
X138624629Y-72865216D01*
X138624172Y-72859402D01*
X138623184Y-72827966D01*
X138622709Y-72812830D01*
X138620302Y-72804547D01*
X138617122Y-72793601D01*
X138613174Y-72774541D01*
X138613019Y-72773313D01*
X138610664Y-72754665D01*
X138593507Y-72711332D01*
X138591619Y-72705816D01*
X138578619Y-72661069D01*
X138568418Y-72643820D01*
X138559860Y-72626351D01*
X138552486Y-72607725D01*
X138552483Y-72607721D01*
X138552483Y-72607720D01*
X138525098Y-72570028D01*
X138521890Y-72565144D01*
X138498172Y-72525039D01*
X138498163Y-72525028D01*
X138484005Y-72510870D01*
X138471370Y-72496077D01*
X138459593Y-72479869D01*
X138423693Y-72450170D01*
X138419381Y-72446247D01*
X136089346Y-70116212D01*
X136079523Y-70103950D01*
X136079302Y-70104134D01*
X136074329Y-70098123D01*
X136055702Y-70080631D01*
X136023907Y-70050773D01*
X136008503Y-70035369D01*
X136003018Y-70029883D01*
X135997529Y-70025625D01*
X135993104Y-70021847D01*
X135959125Y-69989938D01*
X135959123Y-69989936D01*
X135959120Y-69989935D01*
X135941572Y-69980288D01*
X135925306Y-69969604D01*
X135909479Y-69957327D01*
X135909478Y-69957326D01*
X135909476Y-69957325D01*
X135866711Y-69938818D01*
X135861465Y-69936248D01*
X135820636Y-69913803D01*
X135820635Y-69913802D01*
X135801236Y-69908822D01*
X135782824Y-69902518D01*
X135764441Y-69894562D01*
X135764435Y-69894560D01*
X135718417Y-69887272D01*
X135712695Y-69886087D01*
X135667564Y-69874500D01*
X135667562Y-69874500D01*
X135647527Y-69874500D01*
X135628129Y-69872973D01*
X135620705Y-69871797D01*
X135608348Y-69869840D01*
X135608347Y-69869840D01*
X135561959Y-69874225D01*
X135556121Y-69874500D01*
X130090743Y-69874500D01*
X130075122Y-69872775D01*
X130075096Y-69873061D01*
X130067334Y-69872327D01*
X130067333Y-69872327D01*
X129998186Y-69874500D01*
X129968649Y-69874500D01*
X129961766Y-69875369D01*
X129955949Y-69875826D01*
X129909373Y-69877290D01*
X129890129Y-69882881D01*
X129871079Y-69886825D01*
X129851211Y-69889334D01*
X129807884Y-69906488D01*
X129802358Y-69908379D01*
X129757614Y-69921379D01*
X129757610Y-69921381D01*
X129740366Y-69931579D01*
X129722905Y-69940133D01*
X129704274Y-69947510D01*
X129704262Y-69947517D01*
X129666570Y-69974902D01*
X129661687Y-69978109D01*
X129621580Y-70001829D01*
X129607414Y-70015995D01*
X129592624Y-70028627D01*
X129576414Y-70040404D01*
X129576411Y-70040407D01*
X129546710Y-70076309D01*
X129542777Y-70080631D01*
X127922821Y-71700586D01*
X127861498Y-71734071D01*
X127803048Y-71732680D01*
X127734697Y-71714366D01*
X127734693Y-71714365D01*
X127734692Y-71714365D01*
X127616220Y-71704000D01*
X127508001Y-71694532D01*
X127507998Y-71694532D01*
X127281313Y-71714364D01*
X127281302Y-71714366D01*
X127061511Y-71773258D01*
X127061502Y-71773261D01*
X126855267Y-71869431D01*
X126855265Y-71869432D01*
X126668858Y-71999954D01*
X126507954Y-72160858D01*
X126377432Y-72347265D01*
X126377431Y-72347267D01*
X126281261Y-72553502D01*
X126281258Y-72553511D01*
X126222366Y-72773302D01*
X126222364Y-72773313D01*
X126202532Y-72999998D01*
X126202532Y-73000001D01*
X126222364Y-73226686D01*
X126222366Y-73226697D01*
X126281258Y-73446488D01*
X126281261Y-73446497D01*
X126377431Y-73652732D01*
X126377432Y-73652734D01*
X126507954Y-73839141D01*
X126668858Y-74000045D01*
X126668861Y-74000047D01*
X126855266Y-74130568D01*
X127061504Y-74226739D01*
X127281308Y-74285635D01*
X127443230Y-74299801D01*
X127507998Y-74305468D01*
X127508000Y-74305468D01*
X127508002Y-74305468D01*
X127564673Y-74300509D01*
X127734692Y-74285635D01*
X127954496Y-74226739D01*
X128160734Y-74130568D01*
X128347139Y-74000047D01*
X128508047Y-73839139D01*
X128638568Y-73652734D01*
X128734739Y-73446496D01*
X128793635Y-73226692D01*
X128813468Y-73000000D01*
X128811762Y-72980505D01*
X128802154Y-72870686D01*
X128793635Y-72773308D01*
X128775318Y-72704948D01*
X128776981Y-72635103D01*
X128807410Y-72585179D01*
X130230771Y-71161819D01*
X130292095Y-71128334D01*
X130318453Y-71125500D01*
X135278091Y-71125500D01*
X135345130Y-71145185D01*
X135365772Y-71161819D01*
X135702791Y-71498838D01*
X135736276Y-71560161D01*
X135731292Y-71629853D01*
X135689420Y-71685786D01*
X135623956Y-71710203D01*
X135602508Y-71709877D01*
X135544988Y-71704000D01*
X135070000Y-71704000D01*
X135070000Y-72476298D01*
X135050315Y-72543337D01*
X134997511Y-72589092D01*
X134928353Y-72599036D01*
X134911072Y-72595277D01*
X134905204Y-72593554D01*
X134820845Y-72581425D01*
X134803975Y-72579000D01*
X134736025Y-72579000D01*
X134634795Y-72593554D01*
X134628928Y-72595277D01*
X134559058Y-72595273D01*
X134500282Y-72557495D01*
X134471261Y-72493938D01*
X134470000Y-72476298D01*
X134470000Y-71704000D01*
X133995028Y-71704000D01*
X133995012Y-71704001D01*
X133892302Y-71714494D01*
X133725880Y-71769641D01*
X133725875Y-71769643D01*
X133576654Y-71861684D01*
X133452684Y-71985654D01*
X133360643Y-72134875D01*
X133360641Y-72134880D01*
X133305494Y-72301302D01*
X133305493Y-72301309D01*
X133295000Y-72404013D01*
X133295000Y-72754000D01*
X134197390Y-72754000D01*
X134264429Y-72773685D01*
X134310184Y-72826489D01*
X134320128Y-72895647D01*
X134316367Y-72912933D01*
X134311556Y-72929319D01*
X134295000Y-72985704D01*
X134295000Y-73122295D01*
X134316367Y-73195065D01*
X134316367Y-73264935D01*
X134278593Y-73323713D01*
X134215037Y-73352738D01*
X134197390Y-73354000D01*
X133295001Y-73354000D01*
X133295001Y-73703986D01*
X133305494Y-73806697D01*
X133360641Y-73973119D01*
X133360643Y-73973124D01*
X133452684Y-74122345D01*
X133576654Y-74246315D01*
X133731484Y-74341815D01*
X133778208Y-74393763D01*
X133789431Y-74462726D01*
X133761587Y-74526808D01*
X133754069Y-74535035D01*
X133606501Y-74682603D01*
X133606501Y-74682604D01*
X133470967Y-74876165D01*
X133470965Y-74876169D01*
X133371098Y-75090335D01*
X133371094Y-75090344D01*
X133309938Y-75318586D01*
X133309936Y-75318596D01*
X133289341Y-75553999D01*
X133289341Y-75554000D01*
X133309936Y-75789403D01*
X133309938Y-75789413D01*
X133349855Y-75938385D01*
X133348192Y-76008235D01*
X133317761Y-76058159D01*
X128985439Y-80390481D01*
X128924116Y-80423966D01*
X128854424Y-80418982D01*
X128798491Y-80377110D01*
X128777983Y-80334893D01*
X128734741Y-80173511D01*
X128734738Y-80173502D01*
X128723514Y-80149432D01*
X128638568Y-79967266D01*
X128524386Y-79804196D01*
X128508045Y-79780858D01*
X128347141Y-79619954D01*
X128160734Y-79489432D01*
X128160732Y-79489431D01*
X127954497Y-79393261D01*
X127954488Y-79393258D01*
X127734697Y-79334366D01*
X127734693Y-79334365D01*
X127734692Y-79334365D01*
X127734691Y-79334364D01*
X127734686Y-79334364D01*
X127508002Y-79314532D01*
X127507998Y-79314532D01*
X127281313Y-79334364D01*
X127281302Y-79334366D01*
X127061511Y-79393258D01*
X127061502Y-79393261D01*
X126855267Y-79489431D01*
X126855265Y-79489432D01*
X126668858Y-79619954D01*
X126507954Y-79780858D01*
X126377432Y-79967265D01*
X126377431Y-79967267D01*
X126281261Y-80173502D01*
X126281258Y-80173511D01*
X126222366Y-80393302D01*
X126222364Y-80393313D01*
X126202532Y-80619998D01*
X126202532Y-80620001D01*
X126222364Y-80846686D01*
X126222366Y-80846697D01*
X126281258Y-81066488D01*
X126281261Y-81066497D01*
X126377431Y-81272732D01*
X126377432Y-81272734D01*
X126507954Y-81459141D01*
X126671181Y-81622368D01*
X126704666Y-81683691D01*
X126707500Y-81710049D01*
X126707500Y-83269987D01*
X126687815Y-83337026D01*
X126635011Y-83382781D01*
X126565853Y-83392725D01*
X126517460Y-83371813D01*
X126516157Y-83373888D01*
X126474904Y-83347966D01*
X126469229Y-83343940D01*
X126436589Y-83317910D01*
X126398959Y-83299787D01*
X126392872Y-83296422D01*
X126357525Y-83274212D01*
X126318114Y-83260421D01*
X126311688Y-83257759D01*
X126274061Y-83239639D01*
X126233345Y-83230345D01*
X126226662Y-83228420D01*
X126187259Y-83214632D01*
X126145763Y-83209955D01*
X126138908Y-83208791D01*
X126098200Y-83199501D01*
X126098196Y-83199500D01*
X126098194Y-83199500D01*
X126098191Y-83199500D01*
X119882940Y-83199500D01*
X119815901Y-83179815D01*
X119795259Y-83163181D01*
X118132078Y-81500000D01*
X120994341Y-81500000D01*
X121014936Y-81735403D01*
X121014938Y-81735413D01*
X121076094Y-81963655D01*
X121076096Y-81963659D01*
X121076097Y-81963663D01*
X121076656Y-81964861D01*
X121175964Y-82177828D01*
X121175965Y-82177830D01*
X121311505Y-82371402D01*
X121478597Y-82538494D01*
X121672169Y-82674034D01*
X121672171Y-82674035D01*
X121886337Y-82773903D01*
X122114592Y-82835063D01*
X122291034Y-82850500D01*
X122708966Y-82850500D01*
X122885408Y-82835063D01*
X123113663Y-82773903D01*
X123327829Y-82674035D01*
X123521401Y-82538495D01*
X123688495Y-82371401D01*
X123824035Y-82177830D01*
X123923903Y-81963663D01*
X123985063Y-81735408D01*
X124005659Y-81500000D01*
X123985063Y-81264592D01*
X123923903Y-81036337D01*
X123824035Y-80822171D01*
X123824034Y-80822169D01*
X123688494Y-80628597D01*
X123540932Y-80481035D01*
X123507447Y-80419712D01*
X123512431Y-80350020D01*
X123554303Y-80294087D01*
X123563516Y-80287815D01*
X123718345Y-80192315D01*
X123842315Y-80068345D01*
X123934356Y-79919124D01*
X123934358Y-79919119D01*
X123989505Y-79752697D01*
X123989506Y-79752690D01*
X123999999Y-79649986D01*
X124000000Y-79649973D01*
X124000000Y-79300000D01*
X123098666Y-79300000D01*
X123031627Y-79280315D01*
X122985872Y-79227511D01*
X122975928Y-79158353D01*
X122979689Y-79141066D01*
X122999999Y-79071892D01*
X123000000Y-79071889D01*
X123000000Y-78928110D01*
X122999999Y-78928107D01*
X122979689Y-78858934D01*
X122979689Y-78789064D01*
X123017464Y-78730286D01*
X123081020Y-78701262D01*
X123098666Y-78700000D01*
X123999999Y-78700000D01*
X123999999Y-78350028D01*
X123999998Y-78350013D01*
X123989505Y-78247302D01*
X123934358Y-78080880D01*
X123934356Y-78080875D01*
X123842315Y-77931654D01*
X123718345Y-77807684D01*
X123569124Y-77715643D01*
X123569119Y-77715641D01*
X123402697Y-77660494D01*
X123402690Y-77660493D01*
X123299986Y-77650000D01*
X122800000Y-77650000D01*
X122800000Y-78395975D01*
X122780315Y-78463014D01*
X122727511Y-78508769D01*
X122658353Y-78518713D01*
X122643608Y-78515505D01*
X122549993Y-78502046D01*
X122535763Y-78500000D01*
X122464237Y-78500000D01*
X122348906Y-78516582D01*
X122348671Y-78514953D01*
X122289059Y-78514950D01*
X122230283Y-78477173D01*
X122201261Y-78413615D01*
X122200000Y-78395975D01*
X122200000Y-77650000D01*
X121700028Y-77650000D01*
X121700012Y-77650001D01*
X121597302Y-77660494D01*
X121430880Y-77715641D01*
X121430875Y-77715643D01*
X121281654Y-77807684D01*
X121157684Y-77931654D01*
X121065643Y-78080875D01*
X121065641Y-78080880D01*
X121010494Y-78247302D01*
X121010493Y-78247309D01*
X121000000Y-78350013D01*
X121000000Y-78700000D01*
X121901334Y-78700000D01*
X121968373Y-78719685D01*
X122014128Y-78772489D01*
X122024072Y-78841647D01*
X122020311Y-78858934D01*
X122000000Y-78928107D01*
X122000000Y-79071892D01*
X122020311Y-79141066D01*
X122020311Y-79210936D01*
X121982536Y-79269714D01*
X121918980Y-79298738D01*
X121901334Y-79300000D01*
X121000001Y-79300000D01*
X121000001Y-79649986D01*
X121010494Y-79752697D01*
X121065641Y-79919119D01*
X121065643Y-79919124D01*
X121157684Y-80068345D01*
X121281654Y-80192315D01*
X121436484Y-80287815D01*
X121483208Y-80339763D01*
X121494431Y-80408726D01*
X121466587Y-80472808D01*
X121459069Y-80481035D01*
X121311501Y-80628603D01*
X121311501Y-80628604D01*
X121175967Y-80822165D01*
X121175965Y-80822169D01*
X121118659Y-80945063D01*
X121077510Y-81033308D01*
X121076098Y-81036335D01*
X121076094Y-81036344D01*
X121014938Y-81264586D01*
X121014936Y-81264596D01*
X120994341Y-81499999D01*
X120994341Y-81500000D01*
X118132078Y-81500000D01*
X116002261Y-79370183D01*
X115966904Y-79347967D01*
X115961230Y-79343941D01*
X115928589Y-79317910D01*
X115890959Y-79299787D01*
X115884872Y-79296422D01*
X115849525Y-79274212D01*
X115810114Y-79260421D01*
X115803688Y-79257759D01*
X115766061Y-79239639D01*
X115725345Y-79230345D01*
X115718662Y-79228420D01*
X115679259Y-79214632D01*
X115637763Y-79209955D01*
X115630908Y-79208791D01*
X115590200Y-79199501D01*
X115590196Y-79199500D01*
X115590194Y-79199500D01*
X115590191Y-79199500D01*
X108515089Y-79199500D01*
X108448050Y-79179815D01*
X108402295Y-79127011D01*
X108392351Y-79057853D01*
X108421376Y-78994297D01*
X108443966Y-78973925D01*
X108509395Y-78928111D01*
X108567401Y-78887495D01*
X108734495Y-78720401D01*
X108870035Y-78526829D01*
X108969903Y-78312663D01*
X109031063Y-78084408D01*
X109046500Y-77907966D01*
X109046500Y-77540034D01*
X109031063Y-77363592D01*
X108969903Y-77135337D01*
X108870035Y-76921171D01*
X108845826Y-76886596D01*
X108734494Y-76727597D01*
X108567402Y-76560506D01*
X108567395Y-76560501D01*
X108373834Y-76424967D01*
X108373830Y-76424965D01*
X108334654Y-76406697D01*
X108159663Y-76325097D01*
X108159659Y-76325096D01*
X108159655Y-76325094D01*
X107931413Y-76263938D01*
X107931403Y-76263936D01*
X107696001Y-76243341D01*
X107695999Y-76243341D01*
X107460596Y-76263936D01*
X107460586Y-76263938D01*
X107232344Y-76325094D01*
X107232335Y-76325098D01*
X107018171Y-76424964D01*
X107018169Y-76424965D01*
X106824597Y-76560505D01*
X106657508Y-76727594D01*
X106547269Y-76885032D01*
X106492692Y-76928656D01*
X106423193Y-76935849D01*
X106360839Y-76904327D01*
X106344119Y-76885031D01*
X106234113Y-76727926D01*
X106234108Y-76727920D01*
X106067082Y-76560894D01*
X105873578Y-76425399D01*
X105659495Y-76325571D01*
X105496000Y-76281761D01*
X105496000Y-77146298D01*
X105476315Y-77213337D01*
X105423511Y-77259092D01*
X105354353Y-77269036D01*
X105337072Y-77265277D01*
X105331204Y-77263554D01*
X105246845Y-77251425D01*
X105229975Y-77249000D01*
X105162025Y-77249000D01*
X105060795Y-77263554D01*
X105054928Y-77265277D01*
X104985058Y-77265273D01*
X104926282Y-77227495D01*
X104897261Y-77163938D01*
X104896000Y-77146298D01*
X104896000Y-76281761D01*
X104732504Y-76325571D01*
X104518422Y-76425399D01*
X104518420Y-76425400D01*
X104324926Y-76560886D01*
X104177668Y-76708144D01*
X104116345Y-76741628D01*
X104046653Y-76736644D01*
X103990720Y-76694772D01*
X103984448Y-76685558D01*
X103967889Y-76658712D01*
X103888712Y-76530344D01*
X103764656Y-76406288D01*
X103671888Y-76349068D01*
X103615336Y-76314187D01*
X103615331Y-76314185D01*
X103604029Y-76310440D01*
X103448797Y-76259001D01*
X103448795Y-76259000D01*
X103346010Y-76248500D01*
X102045998Y-76248500D01*
X102045981Y-76248501D01*
X101943203Y-76259000D01*
X101943200Y-76259001D01*
X101776668Y-76314185D01*
X101776663Y-76314187D01*
X101627342Y-76406289D01*
X101503289Y-76530342D01*
X101411187Y-76679663D01*
X101411185Y-76679668D01*
X101395196Y-76727920D01*
X101356001Y-76846203D01*
X101356001Y-76846204D01*
X101356000Y-76846204D01*
X101352609Y-76879398D01*
X101326211Y-76944090D01*
X101283047Y-76978516D01*
X101276318Y-76981756D01*
X101269894Y-76984417D01*
X101230483Y-76998208D01*
X101230476Y-76998212D01*
X101195120Y-77020427D01*
X101189033Y-77023791D01*
X101151410Y-77041910D01*
X101118769Y-77067941D01*
X101113096Y-77071966D01*
X101077739Y-77094183D01*
X101077735Y-77094186D01*
X101045748Y-77126174D01*
X99614554Y-78557366D01*
X99553231Y-78590851D01*
X99483539Y-78585867D01*
X99427606Y-78543995D01*
X99407816Y-78498282D01*
X99406542Y-78498624D01*
X99346269Y-78273682D01*
X99346265Y-78273673D01*
X99250134Y-78067518D01*
X99250133Y-78067516D01*
X99228146Y-78036116D01*
X99228146Y-78036115D01*
X98792651Y-78471611D01*
X98731328Y-78505096D01*
X98661636Y-78500112D01*
X98605703Y-78458240D01*
X98594872Y-78440978D01*
X98582539Y-78417177D01*
X98573558Y-78399844D01*
X98470362Y-78289348D01*
X98470361Y-78289347D01*
X98470360Y-78289346D01*
X98470356Y-78289343D01*
X98391329Y-78241285D01*
X98344277Y-78189634D01*
X98332620Y-78120743D01*
X98360058Y-78056487D01*
X98368077Y-78047657D01*
X98803883Y-77611852D01*
X98803882Y-77611851D01*
X98772485Y-77589867D01*
X98714133Y-77562657D01*
X98661694Y-77516484D01*
X98642542Y-77449291D01*
X98662758Y-77382410D01*
X98714129Y-77337895D01*
X98772734Y-77310568D01*
X98959139Y-77180047D01*
X99120047Y-77019139D01*
X99250568Y-76832734D01*
X99346739Y-76626496D01*
X99405635Y-76406692D01*
X99425468Y-76180000D01*
X99421988Y-76140229D01*
X99412215Y-76028519D01*
X99405635Y-75953308D01*
X99346739Y-75733504D01*
X99250568Y-75527266D01*
X99120047Y-75340861D01*
X98959139Y-75179953D01*
X98959135Y-75179950D01*
X98956818Y-75177633D01*
X98923333Y-75116309D01*
X98920499Y-75089951D01*
X98920500Y-74075046D01*
X98920500Y-74029807D01*
X98920500Y-74029806D01*
X98911207Y-73989093D01*
X98910042Y-73982233D01*
X98905368Y-73940745D01*
X98905367Y-73940742D01*
X98891576Y-73901328D01*
X98889650Y-73894641D01*
X98880360Y-73853939D01*
X98862238Y-73816307D01*
X98859583Y-73809899D01*
X98845789Y-73770478D01*
X98845785Y-73770471D01*
X98823574Y-73735122D01*
X98820209Y-73729033D01*
X98808140Y-73703973D01*
X98802092Y-73691414D01*
X98794996Y-73682516D01*
X98776055Y-73658763D01*
X98772029Y-73653089D01*
X98749819Y-73617742D01*
X98749817Y-73617739D01*
X98639703Y-73507625D01*
X98639701Y-73507622D01*
X98132079Y-73000000D01*
X120994341Y-73000000D01*
X121014936Y-73235403D01*
X121014938Y-73235413D01*
X121076094Y-73463655D01*
X121076096Y-73463659D01*
X121076097Y-73463663D01*
X121126030Y-73570746D01*
X121175964Y-73677828D01*
X121175965Y-73677830D01*
X121311505Y-73871402D01*
X121478597Y-74038494D01*
X121672169Y-74174034D01*
X121672171Y-74174035D01*
X121886337Y-74273903D01*
X121886343Y-74273904D01*
X121886344Y-74273905D01*
X121930114Y-74285633D01*
X122114592Y-74335063D01*
X122291034Y-74350500D01*
X122708966Y-74350500D01*
X122885408Y-74335063D01*
X123113663Y-74273903D01*
X123327829Y-74174035D01*
X123521401Y-74038495D01*
X123688495Y-73871401D01*
X123824035Y-73677830D01*
X123923903Y-73463663D01*
X123985063Y-73235408D01*
X124005659Y-73000000D01*
X123985063Y-72764592D01*
X123935334Y-72579000D01*
X123923905Y-72536344D01*
X123923904Y-72536343D01*
X123923903Y-72536337D01*
X123824035Y-72322171D01*
X123824034Y-72322169D01*
X123688494Y-72128597D01*
X123540932Y-71981035D01*
X123507447Y-71919712D01*
X123512431Y-71850020D01*
X123554303Y-71794087D01*
X123563516Y-71787815D01*
X123718345Y-71692315D01*
X123842315Y-71568345D01*
X123934356Y-71419124D01*
X123934358Y-71419119D01*
X123989505Y-71252697D01*
X123989506Y-71252690D01*
X123999999Y-71149986D01*
X124000000Y-71149973D01*
X124000000Y-70800000D01*
X123098666Y-70800000D01*
X123031627Y-70780315D01*
X122985872Y-70727511D01*
X122975928Y-70658353D01*
X122979689Y-70641066D01*
X122999999Y-70571892D01*
X123000000Y-70571889D01*
X123000000Y-70428110D01*
X122999999Y-70428107D01*
X122979689Y-70358934D01*
X122979689Y-70289064D01*
X123017464Y-70230286D01*
X123081020Y-70201262D01*
X123098666Y-70200000D01*
X123999999Y-70200000D01*
X123999999Y-69850028D01*
X123999998Y-69850013D01*
X123989505Y-69747302D01*
X123934358Y-69580880D01*
X123934356Y-69580875D01*
X123842315Y-69431654D01*
X123718345Y-69307684D01*
X123569124Y-69215643D01*
X123569119Y-69215641D01*
X123402697Y-69160494D01*
X123402690Y-69160493D01*
X123299986Y-69150000D01*
X122800000Y-69150000D01*
X122800000Y-69895975D01*
X122780315Y-69963014D01*
X122727511Y-70008769D01*
X122658353Y-70018713D01*
X122643608Y-70015505D01*
X122548484Y-70001829D01*
X122535763Y-70000000D01*
X122464237Y-70000000D01*
X122348906Y-70016582D01*
X122348671Y-70014953D01*
X122289059Y-70014950D01*
X122230283Y-69977173D01*
X122201261Y-69913615D01*
X122200000Y-69895975D01*
X122200000Y-69150000D01*
X121700028Y-69150000D01*
X121700012Y-69150001D01*
X121597302Y-69160494D01*
X121430880Y-69215641D01*
X121430875Y-69215643D01*
X121281654Y-69307684D01*
X121157684Y-69431654D01*
X121065643Y-69580875D01*
X121065641Y-69580880D01*
X121010494Y-69747302D01*
X121010493Y-69747309D01*
X121000000Y-69850013D01*
X121000000Y-70200000D01*
X121901334Y-70200000D01*
X121968373Y-70219685D01*
X122014128Y-70272489D01*
X122024072Y-70341647D01*
X122020311Y-70358934D01*
X122000000Y-70428107D01*
X122000000Y-70571892D01*
X122020311Y-70641066D01*
X122020311Y-70710936D01*
X121982536Y-70769714D01*
X121918980Y-70798738D01*
X121901334Y-70800000D01*
X121000001Y-70800000D01*
X121000001Y-71149986D01*
X121010494Y-71252697D01*
X121065641Y-71419119D01*
X121065643Y-71419124D01*
X121157684Y-71568345D01*
X121281654Y-71692315D01*
X121436484Y-71787815D01*
X121483208Y-71839763D01*
X121494431Y-71908726D01*
X121466587Y-71972808D01*
X121459069Y-71981035D01*
X121311501Y-72128603D01*
X121311501Y-72128604D01*
X121175967Y-72322165D01*
X121175965Y-72322169D01*
X121102428Y-72479870D01*
X121081371Y-72525028D01*
X121076098Y-72536335D01*
X121076094Y-72536344D01*
X121014938Y-72764586D01*
X121014936Y-72764596D01*
X120994341Y-72999999D01*
X120994341Y-73000000D01*
X98132079Y-73000000D01*
X92016811Y-66884733D01*
X92002261Y-66870183D01*
X91966904Y-66847967D01*
X91961230Y-66843941D01*
X91928589Y-66817910D01*
X91890959Y-66799787D01*
X91884872Y-66796422D01*
X91849525Y-66774212D01*
X91810114Y-66760421D01*
X91803688Y-66757759D01*
X91759788Y-66736619D01*
X91761030Y-66734038D01*
X91714712Y-66700809D01*
X91688972Y-66635853D01*
X91702436Y-66567293D01*
X91750829Y-66516896D01*
X91812451Y-66500500D01*
X137497964Y-66500500D01*
X137502018Y-66500633D01*
X137530219Y-66502480D01*
X137583816Y-66505993D01*
X137638735Y-66509921D01*
X137746798Y-66517651D01*
X137751197Y-66518124D01*
X137770628Y-66520917D01*
X137794283Y-66524318D01*
X137797513Y-66524871D01*
X137848218Y-66534957D01*
X137889455Y-66543160D01*
X138026409Y-66572952D01*
X138030661Y-66574036D01*
X138051186Y-66580063D01*
X138159456Y-66616815D01*
X138291739Y-66666156D01*
X138297497Y-66668642D01*
X138412960Y-66725582D01*
X138534910Y-66792171D01*
X138539616Y-66795019D01*
X138646665Y-66866548D01*
X138649358Y-66868453D01*
X138758654Y-66950272D01*
X138762337Y-66953258D01*
X138859502Y-67038469D01*
X138862448Y-67041228D01*
X138958769Y-67137549D01*
X138961522Y-67140488D01*
X139046731Y-67237651D01*
X139049733Y-67241353D01*
X139049746Y-67241370D01*
X139131542Y-67350637D01*
X139133460Y-67353347D01*
X139204962Y-67460359D01*
X139207828Y-67465092D01*
X139274426Y-67587057D01*
X139331356Y-67702499D01*
X139333843Y-67708258D01*
X139383193Y-67840572D01*
X139419932Y-67948799D01*
X139425955Y-67969313D01*
X139427050Y-67973603D01*
X139456848Y-68110586D01*
X139475117Y-68202435D01*
X139475677Y-68205706D01*
X139481875Y-68248804D01*
X139482348Y-68253207D01*
X139494020Y-68416399D01*
X139499367Y-68497967D01*
X139499500Y-68502024D01*
X139499500Y-100497975D01*
X139499367Y-100502032D01*
X139494020Y-100583595D01*
X139482347Y-100746795D01*
X139481874Y-100751195D01*
X139475680Y-100794283D01*
X139475119Y-100797557D01*
X139456850Y-100889402D01*
X139427049Y-101026398D01*
X139425954Y-101030687D01*
X139419930Y-101051206D01*
X139383197Y-101159417D01*
X139333838Y-101291747D01*
X139331352Y-101297505D01*
X139274431Y-101412932D01*
X139207825Y-101534911D01*
X139204958Y-101539645D01*
X139133466Y-101646641D01*
X139131548Y-101649351D01*
X139049740Y-101758635D01*
X139046719Y-101762361D01*
X138961536Y-101859494D01*
X138958762Y-101862455D01*
X138862455Y-101958762D01*
X138859494Y-101961536D01*
X138762361Y-102046719D01*
X138758635Y-102049740D01*
X138649351Y-102131548D01*
X138646641Y-102133466D01*
X138539645Y-102204958D01*
X138534911Y-102207825D01*
X138412932Y-102274431D01*
X138297505Y-102331352D01*
X138291747Y-102333838D01*
X138159417Y-102383197D01*
X138051206Y-102419930D01*
X138030687Y-102425954D01*
X138026398Y-102427049D01*
X137889402Y-102456850D01*
X137797557Y-102475119D01*
X137794283Y-102475680D01*
X137751195Y-102481874D01*
X137746795Y-102482347D01*
X137583595Y-102494020D01*
X137519890Y-102498196D01*
X137502025Y-102499367D01*
X137497977Y-102499500D01*
X109873613Y-102499500D01*
X109872788Y-102499258D01*
X109869407Y-102499500D01*
X109868872Y-102499500D01*
X109706456Y-102520884D01*
X109702785Y-102521256D01*
X109627423Y-102526646D01*
X109623008Y-102528240D01*
X109623190Y-102528858D01*
X109613097Y-102531821D01*
X109611721Y-102532318D01*
X109611876Y-102533131D01*
X109611813Y-102533143D01*
X109609944Y-102532960D01*
X109607203Y-102533951D01*
X109604882Y-102534257D01*
X109604879Y-102534234D01*
X109582766Y-102540728D01*
X109416172Y-102585366D01*
X109413301Y-102586062D01*
X109354708Y-102598805D01*
X109302323Y-102622728D01*
X109302310Y-102622734D01*
X109280319Y-102632776D01*
X109113309Y-102701953D01*
X109113301Y-102701957D01*
X109057067Y-102734423D01*
X109051828Y-102737124D01*
X109040279Y-102742399D01*
X109040275Y-102742401D01*
X109015210Y-102758509D01*
X109012692Y-102760044D01*
X108886206Y-102833069D01*
X108886191Y-102833080D01*
X108821298Y-102882873D01*
X108817077Y-102885841D01*
X108799916Y-102896870D01*
X108776992Y-102916734D01*
X108774135Y-102919064D01*
X108678141Y-102992724D01*
X108607319Y-103063546D01*
X108604082Y-103066559D01*
X108583981Y-103083978D01*
X108583978Y-103083981D01*
X108566559Y-103104082D01*
X108563546Y-103107319D01*
X108492724Y-103178141D01*
X108419064Y-103274135D01*
X108416734Y-103276992D01*
X108396870Y-103299916D01*
X108385841Y-103317077D01*
X108382873Y-103321298D01*
X108333080Y-103386191D01*
X108333069Y-103386206D01*
X108260044Y-103512692D01*
X108258509Y-103515210D01*
X108242401Y-103540275D01*
X108242399Y-103540279D01*
X108237124Y-103551828D01*
X108234423Y-103557067D01*
X108201957Y-103613301D01*
X108201953Y-103613309D01*
X108132776Y-103780319D01*
X108122734Y-103802310D01*
X108122728Y-103802323D01*
X108098805Y-103854708D01*
X108086062Y-103913301D01*
X108085366Y-103916172D01*
X108040728Y-104082766D01*
X108034234Y-104104879D01*
X108034257Y-104104882D01*
X108033951Y-104107203D01*
X108033143Y-104109027D01*
X108033143Y-104111813D01*
X108033131Y-104111876D01*
X108032230Y-104111704D01*
X108028858Y-104123190D01*
X108027103Y-104122674D01*
X108026963Y-104122991D01*
X108021256Y-104202785D01*
X108020884Y-104206456D01*
X107999500Y-104368872D01*
X107999500Y-104369407D01*
X107999290Y-104372334D01*
X107999500Y-104373613D01*
X107999500Y-120497975D01*
X107999367Y-120502032D01*
X107994020Y-120583595D01*
X107982347Y-120746795D01*
X107981874Y-120751195D01*
X107975680Y-120794283D01*
X107975119Y-120797557D01*
X107956850Y-120889402D01*
X107927049Y-121026398D01*
X107925954Y-121030687D01*
X107919930Y-121051206D01*
X107883197Y-121159417D01*
X107833838Y-121291747D01*
X107831352Y-121297505D01*
X107774431Y-121412932D01*
X107707825Y-121534911D01*
X107704958Y-121539645D01*
X107633466Y-121646641D01*
X107631548Y-121649351D01*
X107549740Y-121758635D01*
X107546719Y-121762361D01*
X107461536Y-121859494D01*
X107458762Y-121862455D01*
X107362455Y-121958762D01*
X107359494Y-121961536D01*
X107262361Y-122046719D01*
X107258635Y-122049740D01*
X107149351Y-122131548D01*
X107146641Y-122133466D01*
X107039645Y-122204958D01*
X107034911Y-122207825D01*
X106912932Y-122274431D01*
X106797505Y-122331352D01*
X106791747Y-122333838D01*
X106659417Y-122383197D01*
X106551206Y-122419930D01*
X106530687Y-122425954D01*
X106526398Y-122427049D01*
X106389402Y-122456850D01*
X106297557Y-122475119D01*
X106294283Y-122475680D01*
X106251195Y-122481874D01*
X106246795Y-122482347D01*
X106083595Y-122494020D01*
X106019890Y-122498196D01*
X106002025Y-122499367D01*
X105997977Y-122499500D01*
X83002024Y-122499500D01*
X82997974Y-122499367D01*
X82970721Y-122497581D01*
X82916399Y-122494020D01*
X82753207Y-122482348D01*
X82748804Y-122481875D01*
X82705706Y-122475677D01*
X82702435Y-122475117D01*
X82610586Y-122456848D01*
X82525763Y-122438396D01*
X82473595Y-122427048D01*
X82469313Y-122425955D01*
X82459406Y-122423046D01*
X82448790Y-122419929D01*
X82340572Y-122383193D01*
X82288722Y-122363854D01*
X82208253Y-122333841D01*
X82202499Y-122331356D01*
X82087057Y-122274426D01*
X81965092Y-122207828D01*
X81960359Y-122204962D01*
X81853347Y-122133460D01*
X81850637Y-122131542D01*
X81843212Y-122125983D01*
X81741353Y-122049733D01*
X81737651Y-122046731D01*
X81640492Y-121961526D01*
X81637549Y-121958769D01*
X81541228Y-121862448D01*
X81538469Y-121859502D01*
X81505450Y-121821851D01*
X81453258Y-121762337D01*
X81450272Y-121758654D01*
X81368449Y-121649351D01*
X81366540Y-121646654D01*
X81295019Y-121539616D01*
X81292171Y-121534910D01*
X81225577Y-121412950D01*
X81168642Y-121297497D01*
X81166156Y-121291739D01*
X81116812Y-121159446D01*
X81080069Y-121051206D01*
X81080062Y-121051185D01*
X81074036Y-121030661D01*
X81072952Y-121026409D01*
X81043160Y-120889455D01*
X81024874Y-120797528D01*
X81024318Y-120794283D01*
X81020917Y-120770628D01*
X81018124Y-120751197D01*
X81017651Y-120746798D01*
X81005990Y-120583769D01*
X81003344Y-120543395D01*
X81000633Y-120502018D01*
X81000500Y-120497964D01*
X81000500Y-117847870D01*
X83699500Y-117847870D01*
X83699501Y-117847876D01*
X83705908Y-117907483D01*
X83756202Y-118042328D01*
X83756206Y-118042335D01*
X83842452Y-118157544D01*
X83842455Y-118157547D01*
X83957664Y-118243793D01*
X83957671Y-118243797D01*
X84092517Y-118294091D01*
X84092516Y-118294091D01*
X84099444Y-118294835D01*
X84152127Y-118300500D01*
X86847872Y-118300499D01*
X86907483Y-118294091D01*
X87042331Y-118243796D01*
X87157546Y-118157546D01*
X87243796Y-118042331D01*
X87294091Y-117907483D01*
X87300500Y-117847873D01*
X87300500Y-116500004D01*
X88694451Y-116500004D01*
X88714616Y-116769101D01*
X88774664Y-117032188D01*
X88774666Y-117032195D01*
X88861685Y-117253915D01*
X88873257Y-117283398D01*
X89008185Y-117517102D01*
X89144080Y-117687509D01*
X89176442Y-117728089D01*
X89363183Y-117901358D01*
X89374259Y-117911635D01*
X89597226Y-118063651D01*
X89840359Y-118180738D01*
X90098228Y-118260280D01*
X90098229Y-118260280D01*
X90098232Y-118260281D01*
X90365063Y-118300499D01*
X90365068Y-118300499D01*
X90365071Y-118300500D01*
X90365072Y-118300500D01*
X90634928Y-118300500D01*
X90634929Y-118300500D01*
X90634936Y-118300499D01*
X90901767Y-118260281D01*
X90901768Y-118260280D01*
X90901772Y-118260280D01*
X91159641Y-118180738D01*
X91402775Y-118063651D01*
X91625741Y-117911635D01*
X91823561Y-117728085D01*
X91991815Y-117517102D01*
X92126743Y-117283398D01*
X92225334Y-117032195D01*
X92285383Y-116769103D01*
X92305549Y-116500000D01*
X92302466Y-116458865D01*
X92285383Y-116230898D01*
X92237796Y-116022405D01*
X92225334Y-115967805D01*
X92126743Y-115716602D01*
X91991815Y-115482898D01*
X91823561Y-115271915D01*
X91823560Y-115271914D01*
X91823557Y-115271910D01*
X91625741Y-115088365D01*
X91610905Y-115078250D01*
X91402775Y-114936349D01*
X91402769Y-114936346D01*
X91402768Y-114936345D01*
X91402767Y-114936344D01*
X91159643Y-114819263D01*
X91159645Y-114819263D01*
X90901773Y-114739720D01*
X90901767Y-114739718D01*
X90634936Y-114699500D01*
X90634929Y-114699500D01*
X90365071Y-114699500D01*
X90365063Y-114699500D01*
X90098232Y-114739718D01*
X90098226Y-114739720D01*
X89840358Y-114819262D01*
X89597230Y-114936346D01*
X89374258Y-115088365D01*
X89176442Y-115271910D01*
X89008185Y-115482898D01*
X88873258Y-115716599D01*
X88873256Y-115716603D01*
X88774666Y-115967804D01*
X88774664Y-115967811D01*
X88714616Y-116230898D01*
X88694451Y-116499995D01*
X88694451Y-116500004D01*
X87300500Y-116500004D01*
X87300499Y-115152128D01*
X87294091Y-115092517D01*
X87293517Y-115090979D01*
X87243797Y-114957671D01*
X87243793Y-114957664D01*
X87157547Y-114842455D01*
X87157544Y-114842452D01*
X87042335Y-114756206D01*
X87042328Y-114756202D01*
X86907482Y-114705908D01*
X86907483Y-114705908D01*
X86847883Y-114699501D01*
X86847881Y-114699500D01*
X86847873Y-114699500D01*
X86847864Y-114699500D01*
X84152129Y-114699500D01*
X84152123Y-114699501D01*
X84092516Y-114705908D01*
X83957671Y-114756202D01*
X83957664Y-114756206D01*
X83842455Y-114842452D01*
X83842452Y-114842455D01*
X83756206Y-114957664D01*
X83756202Y-114957671D01*
X83705908Y-115092517D01*
X83699501Y-115152116D01*
X83699501Y-115152123D01*
X83699500Y-115152135D01*
X83699500Y-117847870D01*
X81000500Y-117847870D01*
X81000500Y-104373628D01*
X81000739Y-104372810D01*
X81000500Y-104369456D01*
X81000500Y-104368886D01*
X81000499Y-104368872D01*
X80984494Y-104247309D01*
X80979112Y-104206432D01*
X80978741Y-104202773D01*
X80973351Y-104127391D01*
X80971773Y-104123018D01*
X80971138Y-104123205D01*
X80968659Y-104114764D01*
X80967509Y-104115015D01*
X80967499Y-104114969D01*
X80967725Y-104111804D01*
X80966038Y-104107128D01*
X80965734Y-104104812D01*
X80965737Y-104104811D01*
X80959337Y-104083011D01*
X80914602Y-103916056D01*
X80913911Y-103913207D01*
X80901178Y-103854672D01*
X80878132Y-103804207D01*
X80878131Y-103804204D01*
X80876293Y-103800179D01*
X80867223Y-103780319D01*
X80799772Y-103617478D01*
X80798041Y-103613298D01*
X80798039Y-103613296D01*
X80795991Y-103609750D01*
X80765571Y-103557061D01*
X80762871Y-103551820D01*
X80757607Y-103540291D01*
X80757600Y-103540279D01*
X80757600Y-103540278D01*
X80741476Y-103515188D01*
X80739983Y-103512741D01*
X80666924Y-103386197D01*
X80617125Y-103321298D01*
X80614159Y-103317080D01*
X80603127Y-103299914D01*
X80603126Y-103299913D01*
X80583267Y-103276994D01*
X80580953Y-103274159D01*
X80507282Y-103178149D01*
X80436452Y-103107319D01*
X80433438Y-103104082D01*
X80416020Y-103083980D01*
X80408062Y-103077084D01*
X80395911Y-103066555D01*
X80392679Y-103063546D01*
X80321851Y-102992718D01*
X80317569Y-102989432D01*
X80225860Y-102919060D01*
X80223001Y-102916729D01*
X80200096Y-102896881D01*
X80200082Y-102896870D01*
X80192363Y-102891910D01*
X80182918Y-102885839D01*
X80178702Y-102882875D01*
X80113802Y-102833075D01*
X79987307Y-102760044D01*
X79984788Y-102758509D01*
X79959722Y-102742400D01*
X79959721Y-102742400D01*
X79959714Y-102742396D01*
X79948177Y-102737127D01*
X79942932Y-102734423D01*
X79886696Y-102701956D01*
X79886690Y-102701953D01*
X79719678Y-102632775D01*
X79697161Y-102622492D01*
X79697129Y-102622479D01*
X79645329Y-102598823D01*
X79586785Y-102586086D01*
X79583918Y-102585391D01*
X79417101Y-102540692D01*
X79395120Y-102534238D01*
X79395118Y-102534257D01*
X79392797Y-102533951D01*
X79391054Y-102533179D01*
X79388388Y-102533181D01*
X79388335Y-102533171D01*
X79388500Y-102532295D01*
X79376803Y-102528861D01*
X79377319Y-102527100D01*
X79377011Y-102526964D01*
X79297220Y-102521257D01*
X79293557Y-102520885D01*
X79256912Y-102516061D01*
X79131127Y-102499500D01*
X79131120Y-102499500D01*
X79130567Y-102499500D01*
X79127655Y-102499291D01*
X79126382Y-102499500D01*
X55502024Y-102499500D01*
X55497974Y-102499367D01*
X55470721Y-102497581D01*
X55416399Y-102494020D01*
X55253207Y-102482348D01*
X55248804Y-102481875D01*
X55205706Y-102475677D01*
X55202435Y-102475117D01*
X55110586Y-102456848D01*
X55025763Y-102438396D01*
X54973595Y-102427048D01*
X54969313Y-102425955D01*
X54959406Y-102423046D01*
X54948790Y-102419929D01*
X54840572Y-102383193D01*
X54788722Y-102363854D01*
X54708253Y-102333841D01*
X54702499Y-102331356D01*
X54587057Y-102274426D01*
X54465092Y-102207828D01*
X54460359Y-102204962D01*
X54353347Y-102133460D01*
X54350637Y-102131542D01*
X54343212Y-102125983D01*
X54241353Y-102049733D01*
X54237651Y-102046731D01*
X54140492Y-101961526D01*
X54137549Y-101958769D01*
X54041228Y-101862448D01*
X54038469Y-101859502D01*
X53995707Y-101810741D01*
X53953258Y-101762337D01*
X53950272Y-101758654D01*
X53868449Y-101649351D01*
X53866540Y-101646654D01*
X53795019Y-101539616D01*
X53792171Y-101534910D01*
X53725577Y-101412950D01*
X53668642Y-101297497D01*
X53666156Y-101291739D01*
X53616812Y-101159446D01*
X53608008Y-101133511D01*
X53580062Y-101051185D01*
X53574036Y-101030661D01*
X53572952Y-101026409D01*
X53543160Y-100889455D01*
X53527493Y-100810692D01*
X53524871Y-100797513D01*
X53524318Y-100794283D01*
X53520917Y-100770628D01*
X53518124Y-100751197D01*
X53517651Y-100746798D01*
X53505990Y-100583769D01*
X53503344Y-100543395D01*
X53500633Y-100502018D01*
X53500500Y-100497964D01*
X53500500Y-69596001D01*
X65750532Y-69596001D01*
X65770364Y-69822686D01*
X65770366Y-69822697D01*
X65829258Y-70042488D01*
X65829261Y-70042497D01*
X65925431Y-70248732D01*
X65925432Y-70248734D01*
X66055954Y-70435141D01*
X66216858Y-70596045D01*
X66216861Y-70596047D01*
X66403266Y-70726568D01*
X66609504Y-70822739D01*
X66829308Y-70881635D01*
X66991230Y-70895801D01*
X67055998Y-70901468D01*
X67056000Y-70901468D01*
X67056002Y-70901468D01*
X67112673Y-70896509D01*
X67282692Y-70881635D01*
X67502496Y-70822739D01*
X67708734Y-70726568D01*
X67895139Y-70596047D01*
X68056047Y-70435139D01*
X68186568Y-70248734D01*
X68282739Y-70042496D01*
X68341635Y-69822692D01*
X68361468Y-69596000D01*
X68341635Y-69369308D01*
X68285684Y-69160494D01*
X68282741Y-69149511D01*
X68282738Y-69149502D01*
X68261679Y-69104342D01*
X68186568Y-68943266D01*
X68056047Y-68756861D01*
X68056045Y-68756858D01*
X67895141Y-68595954D01*
X67708734Y-68465432D01*
X67708732Y-68465431D01*
X67502497Y-68369261D01*
X67502488Y-68369258D01*
X67282697Y-68310366D01*
X67282693Y-68310365D01*
X67282692Y-68310365D01*
X67282691Y-68310364D01*
X67282686Y-68310364D01*
X67056002Y-68290532D01*
X67055998Y-68290532D01*
X66829313Y-68310364D01*
X66829302Y-68310366D01*
X66609511Y-68369258D01*
X66609502Y-68369261D01*
X66403267Y-68465431D01*
X66403265Y-68465432D01*
X66216858Y-68595954D01*
X66055954Y-68756858D01*
X65925432Y-68943265D01*
X65925431Y-68943267D01*
X65829261Y-69149502D01*
X65829258Y-69149511D01*
X65770366Y-69369302D01*
X65770364Y-69369313D01*
X65750532Y-69595998D01*
X65750532Y-69596001D01*
X53500500Y-69596001D01*
X53500500Y-68502034D01*
X53500633Y-68497979D01*
X53505979Y-68416399D01*
X53517652Y-68253187D01*
X53518121Y-68248821D01*
X53524323Y-68205683D01*
X53524870Y-68202493D01*
X53543165Y-68110518D01*
X53572951Y-67973591D01*
X53574043Y-67969313D01*
X53580063Y-67948814D01*
X53583528Y-67938603D01*
X53616830Y-67840499D01*
X53666159Y-67708245D01*
X53668620Y-67702546D01*
X53725591Y-67587020D01*
X53735451Y-67568962D01*
X53792173Y-67465083D01*
X53795007Y-67460402D01*
X53866572Y-67353298D01*
X53868458Y-67350634D01*
X53950264Y-67241353D01*
X53953236Y-67237687D01*
X54038510Y-67140450D01*
X54041220Y-67137557D01*
X54137557Y-67041220D01*
X54140450Y-67038510D01*
X54237687Y-66953236D01*
X54241353Y-66950264D01*
X54350645Y-66868450D01*
X54353298Y-66866572D01*
X54460402Y-66795007D01*
X54465081Y-66792174D01*
X54587010Y-66725596D01*
X54702546Y-66668620D01*
X54708245Y-66666159D01*
X54840495Y-66616832D01*
X54948810Y-66580063D01*
X54953380Y-66578721D01*
X54969333Y-66574037D01*
X54973591Y-66572951D01*
X55110518Y-66543165D01*
X55202494Y-66524870D01*
X55205693Y-66524321D01*
X55248802Y-66518123D01*
X55253198Y-66517651D01*
X55416338Y-66505983D01*
X55420671Y-66505699D01*
X55497982Y-66500633D01*
X55502037Y-66500500D01*
X84187553Y-66500500D01*
X84254592Y-66520185D01*
G37*
%TD.AperFunction*%
%TA.AperFunction,Conductor*%
G36*
X96743619Y-78714972D02*
G01*
X96799552Y-78756844D01*
X96823813Y-78820347D01*
X96834858Y-78946599D01*
X96834860Y-78946610D01*
X96893730Y-79166317D01*
X96893734Y-79166326D01*
X96989867Y-79372485D01*
X97011851Y-79403882D01*
X97011852Y-79403883D01*
X97447348Y-78968387D01*
X97508671Y-78934902D01*
X97578362Y-78939886D01*
X97634296Y-78981757D01*
X97645127Y-78999020D01*
X97666442Y-79040156D01*
X97769638Y-79150652D01*
X97848076Y-79198351D01*
X97848669Y-79198712D01*
X97895721Y-79250364D01*
X97907378Y-79319254D01*
X97879940Y-79383511D01*
X97871921Y-79392341D01*
X97436115Y-79828146D01*
X97467516Y-79850133D01*
X97467522Y-79850136D01*
X97525865Y-79877342D01*
X97578305Y-79923514D01*
X97597457Y-79990707D01*
X97577242Y-80057589D01*
X97525867Y-80102105D01*
X97467268Y-80129431D01*
X97467264Y-80129433D01*
X97280858Y-80259954D01*
X97119954Y-80420858D01*
X96989432Y-80607265D01*
X96989431Y-80607267D01*
X96893261Y-80813502D01*
X96893258Y-80813511D01*
X96834366Y-81033302D01*
X96834364Y-81033313D01*
X96814532Y-81259998D01*
X96814532Y-81260001D01*
X96834364Y-81486686D01*
X96834366Y-81486697D01*
X96893258Y-81706488D01*
X96893261Y-81706497D01*
X96989431Y-81912732D01*
X96989432Y-81912734D01*
X97119954Y-82099141D01*
X97280858Y-82260045D01*
X97280861Y-82260047D01*
X97467266Y-82390568D01*
X97510154Y-82410567D01*
X97525275Y-82417618D01*
X97577714Y-82463791D01*
X97596866Y-82530984D01*
X97576650Y-82597865D01*
X97525275Y-82642382D01*
X97467267Y-82669431D01*
X97467265Y-82669432D01*
X97280858Y-82799954D01*
X97119954Y-82960858D01*
X96989432Y-83147265D01*
X96989431Y-83147267D01*
X96893261Y-83353502D01*
X96893258Y-83353511D01*
X96834366Y-83573302D01*
X96834364Y-83573313D01*
X96814532Y-83799998D01*
X96814532Y-83800001D01*
X96834364Y-84026686D01*
X96834366Y-84026697D01*
X96893258Y-84246488D01*
X96893261Y-84246497D01*
X96989431Y-84452732D01*
X96989432Y-84452734D01*
X97119954Y-84639141D01*
X97280858Y-84800045D01*
X97281508Y-84800500D01*
X97467266Y-84930568D01*
X97525275Y-84957618D01*
X97577714Y-85003791D01*
X97596866Y-85070984D01*
X97576650Y-85137865D01*
X97525275Y-85182382D01*
X97467267Y-85209431D01*
X97467265Y-85209432D01*
X97280858Y-85339954D01*
X97119954Y-85500858D01*
X96989432Y-85687265D01*
X96989431Y-85687267D01*
X96893261Y-85893502D01*
X96893258Y-85893511D01*
X96834366Y-86113302D01*
X96834364Y-86113313D01*
X96814532Y-86339998D01*
X96814532Y-86340001D01*
X96834364Y-86566686D01*
X96834366Y-86566697D01*
X96893258Y-86786488D01*
X96893261Y-86786497D01*
X96989431Y-86992732D01*
X96989432Y-86992734D01*
X97119954Y-87179141D01*
X97280858Y-87340045D01*
X97280861Y-87340047D01*
X97467266Y-87470568D01*
X97525275Y-87497618D01*
X97577714Y-87543791D01*
X97596866Y-87610984D01*
X97576650Y-87677865D01*
X97525275Y-87722381D01*
X97508272Y-87730310D01*
X97467267Y-87749431D01*
X97467265Y-87749432D01*
X97280858Y-87879954D01*
X97119954Y-88040858D01*
X96989432Y-88227265D01*
X96989431Y-88227267D01*
X96893261Y-88433502D01*
X96893258Y-88433511D01*
X96834366Y-88653302D01*
X96834364Y-88653313D01*
X96814532Y-88879998D01*
X96814532Y-88880001D01*
X96834364Y-89106686D01*
X96834366Y-89106697D01*
X96893258Y-89326488D01*
X96893261Y-89326497D01*
X96989431Y-89532732D01*
X96989432Y-89532734D01*
X97119954Y-89719141D01*
X97280858Y-89880045D01*
X97280861Y-89880047D01*
X97467266Y-90010568D01*
X97510154Y-90030567D01*
X97525275Y-90037618D01*
X97577714Y-90083791D01*
X97596866Y-90150984D01*
X97576650Y-90217865D01*
X97525275Y-90262382D01*
X97467267Y-90289431D01*
X97467265Y-90289432D01*
X97280858Y-90419954D01*
X97119954Y-90580858D01*
X96989432Y-90767265D01*
X96989431Y-90767267D01*
X96893261Y-90973502D01*
X96893258Y-90973511D01*
X96834366Y-91193302D01*
X96834364Y-91193313D01*
X96814532Y-91419998D01*
X96814532Y-91420001D01*
X96834364Y-91646686D01*
X96834366Y-91646697D01*
X96893258Y-91866488D01*
X96893261Y-91866497D01*
X96989431Y-92072732D01*
X96989432Y-92072734D01*
X97119954Y-92259141D01*
X97280858Y-92420045D01*
X97313973Y-92443232D01*
X97467266Y-92550568D01*
X97522470Y-92576310D01*
X97525275Y-92577618D01*
X97577714Y-92623791D01*
X97596866Y-92690984D01*
X97576650Y-92757865D01*
X97525275Y-92802382D01*
X97467267Y-92829431D01*
X97467265Y-92829432D01*
X97280858Y-92959954D01*
X97119954Y-93120858D01*
X96989432Y-93307265D01*
X96989431Y-93307267D01*
X96893261Y-93513502D01*
X96893258Y-93513511D01*
X96834366Y-93733302D01*
X96834364Y-93733313D01*
X96814532Y-93959998D01*
X96814532Y-93960001D01*
X96834364Y-94186686D01*
X96834366Y-94186697D01*
X96893258Y-94406488D01*
X96893261Y-94406497D01*
X96989431Y-94612732D01*
X96989432Y-94612734D01*
X97119954Y-94799141D01*
X97280858Y-94960045D01*
X97280861Y-94960047D01*
X97467266Y-95090568D01*
X97525275Y-95117618D01*
X97577714Y-95163791D01*
X97596866Y-95230984D01*
X97576650Y-95297865D01*
X97525275Y-95342382D01*
X97467267Y-95369431D01*
X97467265Y-95369432D01*
X97280858Y-95499954D01*
X97119954Y-95660858D01*
X96989432Y-95847265D01*
X96989431Y-95847267D01*
X96893261Y-96053502D01*
X96893258Y-96053511D01*
X96834366Y-96273302D01*
X96834364Y-96273313D01*
X96814532Y-96499998D01*
X96814532Y-96500001D01*
X96834364Y-96726686D01*
X96834366Y-96726697D01*
X96893258Y-96946488D01*
X96893261Y-96946497D01*
X96989431Y-97152732D01*
X96989432Y-97152734D01*
X97119954Y-97339141D01*
X97280858Y-97500045D01*
X97327693Y-97532839D01*
X97467266Y-97630568D01*
X97492121Y-97642158D01*
X97525275Y-97657618D01*
X97577714Y-97703791D01*
X97596866Y-97770984D01*
X97576650Y-97837865D01*
X97525275Y-97882382D01*
X97467267Y-97909431D01*
X97467265Y-97909432D01*
X97280858Y-98039954D01*
X97119954Y-98200858D01*
X96989432Y-98387265D01*
X96989431Y-98387267D01*
X96893261Y-98593502D01*
X96893258Y-98593511D01*
X96834366Y-98813302D01*
X96834364Y-98813313D01*
X96814532Y-99039998D01*
X96814532Y-99040001D01*
X96834364Y-99266686D01*
X96834366Y-99266697D01*
X96893258Y-99486488D01*
X96893261Y-99486497D01*
X96989431Y-99692732D01*
X96989432Y-99692734D01*
X97119954Y-99879141D01*
X97280858Y-100040045D01*
X97280861Y-100040047D01*
X97467266Y-100170568D01*
X97525278Y-100197619D01*
X97577713Y-100243788D01*
X97596866Y-100310982D01*
X97576651Y-100377863D01*
X97525277Y-100422380D01*
X97467268Y-100449430D01*
X97467265Y-100449432D01*
X97280858Y-100579954D01*
X97119954Y-100740858D01*
X96989432Y-100927265D01*
X96989431Y-100927267D01*
X96893261Y-101133502D01*
X96893258Y-101133511D01*
X96834366Y-101353302D01*
X96834364Y-101353313D01*
X96814532Y-101579998D01*
X96814532Y-101580001D01*
X96834364Y-101806686D01*
X96834366Y-101806697D01*
X96893258Y-102026488D01*
X96893261Y-102026497D01*
X96989431Y-102232732D01*
X96989432Y-102232734D01*
X97119954Y-102419141D01*
X97280858Y-102580045D01*
X97356167Y-102632776D01*
X97467266Y-102710568D01*
X97525278Y-102737619D01*
X97577713Y-102783788D01*
X97596866Y-102850982D01*
X97576651Y-102917863D01*
X97525277Y-102962380D01*
X97467268Y-102989430D01*
X97467265Y-102989432D01*
X97280858Y-103119954D01*
X97119954Y-103280858D01*
X96989432Y-103467265D01*
X96989431Y-103467267D01*
X96893261Y-103673502D01*
X96893258Y-103673511D01*
X96834366Y-103893302D01*
X96834364Y-103893313D01*
X96814532Y-104119998D01*
X96814532Y-104120001D01*
X96834364Y-104346686D01*
X96834366Y-104346697D01*
X96893258Y-104566488D01*
X96893261Y-104566497D01*
X96989431Y-104772732D01*
X96989432Y-104772734D01*
X97119954Y-104959141D01*
X97280858Y-105120045D01*
X97409106Y-105209844D01*
X97467266Y-105250568D01*
X97525278Y-105277619D01*
X97577713Y-105323788D01*
X97596866Y-105390982D01*
X97576651Y-105457863D01*
X97525277Y-105502380D01*
X97467268Y-105529430D01*
X97467265Y-105529432D01*
X97280858Y-105659954D01*
X97119954Y-105820858D01*
X96989432Y-106007265D01*
X96989431Y-106007267D01*
X96893261Y-106213502D01*
X96893258Y-106213511D01*
X96834366Y-106433302D01*
X96834364Y-106433313D01*
X96814532Y-106659998D01*
X96814532Y-106660001D01*
X96834364Y-106886686D01*
X96834366Y-106886697D01*
X96893258Y-107106488D01*
X96893261Y-107106497D01*
X96989431Y-107312732D01*
X96989432Y-107312734D01*
X97119954Y-107499141D01*
X97280858Y-107660045D01*
X97280861Y-107660047D01*
X97467266Y-107790568D01*
X97525275Y-107817618D01*
X97577714Y-107863791D01*
X97596866Y-107930984D01*
X97576650Y-107997865D01*
X97525275Y-108042382D01*
X97467267Y-108069431D01*
X97467265Y-108069432D01*
X97280858Y-108199954D01*
X97119954Y-108360858D01*
X96989432Y-108547265D01*
X96989431Y-108547267D01*
X96893261Y-108753502D01*
X96893258Y-108753511D01*
X96834366Y-108973302D01*
X96834364Y-108973313D01*
X96814532Y-109199998D01*
X96814532Y-109200002D01*
X96831095Y-109389320D01*
X96817328Y-109457820D01*
X96768713Y-109508003D01*
X96700684Y-109523936D01*
X96634841Y-109500561D01*
X96619886Y-109487808D01*
X96336818Y-109204740D01*
X96303333Y-109143417D01*
X96300499Y-109117059D01*
X96300499Y-94131090D01*
X96300499Y-79106935D01*
X96320184Y-79039900D01*
X96336809Y-79019268D01*
X96612605Y-78743472D01*
X96673927Y-78709988D01*
X96743619Y-78714972D01*
G37*
%TD.AperFunction*%
%TA.AperFunction,Conductor*%
G36*
X101554188Y-78984402D02*
G01*
X101598535Y-79012903D01*
X101627344Y-79041712D01*
X101776666Y-79133814D01*
X101943203Y-79188999D01*
X102045991Y-79199500D01*
X103016059Y-79199499D01*
X103083098Y-79219183D01*
X103103740Y-79235818D01*
X104370184Y-80502262D01*
X104497738Y-80629816D01*
X104524560Y-80646669D01*
X104533089Y-80652028D01*
X104538765Y-80656055D01*
X104571411Y-80682090D01*
X104571412Y-80682091D01*
X104592548Y-80692269D01*
X104609035Y-80700208D01*
X104615112Y-80703567D01*
X104626141Y-80710497D01*
X104650477Y-80725789D01*
X104689891Y-80739581D01*
X104696320Y-80742244D01*
X104733941Y-80760361D01*
X104774641Y-80769650D01*
X104781328Y-80771576D01*
X104820742Y-80785367D01*
X104820745Y-80785368D01*
X104862241Y-80790043D01*
X104869093Y-80791207D01*
X104909806Y-80800500D01*
X104955046Y-80800500D01*
X112533724Y-80800500D01*
X112600763Y-80820185D01*
X112646518Y-80872989D01*
X112656462Y-80942147D01*
X112627437Y-81005703D01*
X112568659Y-81043477D01*
X112565871Y-81044259D01*
X112401612Y-81088273D01*
X112354905Y-81100788D01*
X111992802Y-81239787D01*
X111647206Y-81415877D01*
X111321917Y-81627122D01*
X111020488Y-81871215D01*
X111020480Y-81871222D01*
X110746222Y-82145480D01*
X110746215Y-82145488D01*
X110502122Y-82446917D01*
X110290877Y-82772206D01*
X110114787Y-83117802D01*
X109975788Y-83479905D01*
X109875397Y-83854570D01*
X109875397Y-83854572D01*
X109814722Y-84237660D01*
X109794422Y-84624999D01*
X109794422Y-84625000D01*
X109814722Y-85012339D01*
X109867252Y-85344000D01*
X109875398Y-85395433D01*
X109969197Y-85745498D01*
X109975788Y-85770094D01*
X110114787Y-86132197D01*
X110290877Y-86477793D01*
X110502122Y-86803082D01*
X110703459Y-87051712D01*
X110746219Y-87104516D01*
X111020484Y-87378781D01*
X111133834Y-87470570D01*
X111321917Y-87622877D01*
X111643406Y-87831654D01*
X111647211Y-87834125D01*
X111992806Y-88010214D01*
X112354913Y-88149214D01*
X112729567Y-88249602D01*
X113112662Y-88310278D01*
X113478576Y-88329455D01*
X113499999Y-88330578D01*
X113500000Y-88330578D01*
X113500001Y-88330578D01*
X113520301Y-88329514D01*
X113887338Y-88310278D01*
X114270433Y-88249602D01*
X114645087Y-88149214D01*
X115007194Y-88010214D01*
X115352789Y-87834125D01*
X115678084Y-87622876D01*
X115979516Y-87378781D01*
X116253781Y-87104516D01*
X116497876Y-86803084D01*
X116709125Y-86477789D01*
X116885214Y-86132194D01*
X117024214Y-85770087D01*
X117124602Y-85395433D01*
X117185278Y-85012338D01*
X117205578Y-84625000D01*
X117185278Y-84237662D01*
X117124602Y-83854567D01*
X117024214Y-83479913D01*
X116885214Y-83117806D01*
X116709125Y-82772211D01*
X116642257Y-82669244D01*
X116553316Y-82532286D01*
X116533312Y-82465341D01*
X116552678Y-82398209D01*
X116605263Y-82352203D01*
X116674373Y-82341931D01*
X116738067Y-82370652D01*
X116744991Y-82377069D01*
X118870184Y-84502262D01*
X118997738Y-84629816D01*
X119033089Y-84652028D01*
X119038765Y-84656055D01*
X119071411Y-84682090D01*
X119071412Y-84682091D01*
X119090463Y-84691265D01*
X119109035Y-84700208D01*
X119115112Y-84703567D01*
X119132635Y-84714577D01*
X119150477Y-84725789D01*
X119189891Y-84739581D01*
X119196320Y-84742244D01*
X119233941Y-84760361D01*
X119274641Y-84769650D01*
X119281328Y-84771576D01*
X119320742Y-84785367D01*
X119320745Y-84785368D01*
X119362241Y-84790043D01*
X119369093Y-84791207D01*
X119409806Y-84800500D01*
X119455046Y-84800500D01*
X125625060Y-84800500D01*
X125692099Y-84820185D01*
X125712741Y-84836819D01*
X126671180Y-85795258D01*
X126704665Y-85856581D01*
X126707499Y-85882939D01*
X126707499Y-87909952D01*
X126687814Y-87976991D01*
X126671180Y-87997633D01*
X126507954Y-88160858D01*
X126377432Y-88347265D01*
X126377431Y-88347267D01*
X126281261Y-88553502D01*
X126281258Y-88553511D01*
X126222366Y-88773302D01*
X126222364Y-88773313D01*
X126202532Y-88999998D01*
X126202532Y-89000001D01*
X126222364Y-89226686D01*
X126222366Y-89226697D01*
X126281258Y-89446488D01*
X126281261Y-89446497D01*
X126377431Y-89652732D01*
X126377432Y-89652734D01*
X126507954Y-89839141D01*
X126668858Y-90000045D01*
X126712448Y-90030567D01*
X126855266Y-90130568D01*
X127061504Y-90226739D01*
X127061509Y-90226740D01*
X127061511Y-90226741D01*
X127093857Y-90235408D01*
X127281308Y-90285635D01*
X127443230Y-90299801D01*
X127507998Y-90305468D01*
X127508000Y-90305468D01*
X127508002Y-90305468D01*
X127564673Y-90300509D01*
X127734692Y-90285635D01*
X127954496Y-90226739D01*
X128160734Y-90130568D01*
X128347139Y-90000047D01*
X128508047Y-89839139D01*
X128638568Y-89652734D01*
X128734739Y-89446496D01*
X128793635Y-89226692D01*
X128813468Y-89000000D01*
X128793635Y-88773308D01*
X128747198Y-88600000D01*
X128734741Y-88553511D01*
X128734738Y-88553502D01*
X128702877Y-88485177D01*
X128638568Y-88347266D01*
X128542588Y-88210191D01*
X128508048Y-88160862D01*
X128438446Y-88091260D01*
X128347139Y-87999953D01*
X128347135Y-87999950D01*
X128344818Y-87997633D01*
X128311333Y-87936309D01*
X128308499Y-87909959D01*
X128308499Y-87731937D01*
X128328184Y-87664900D01*
X128380988Y-87619145D01*
X128450146Y-87609201D01*
X128513702Y-87638226D01*
X128520180Y-87644258D01*
X132778184Y-91902262D01*
X132905738Y-92029816D01*
X132934158Y-92047673D01*
X132941089Y-92052028D01*
X132946765Y-92056055D01*
X132979411Y-92082090D01*
X132979412Y-92082091D01*
X132996025Y-92090091D01*
X133017035Y-92100208D01*
X133023112Y-92103567D01*
X133030497Y-92108207D01*
X133058477Y-92125789D01*
X133097891Y-92139581D01*
X133104320Y-92142244D01*
X133141941Y-92160361D01*
X133182641Y-92169650D01*
X133189328Y-92171576D01*
X133228742Y-92185367D01*
X133228745Y-92185368D01*
X133270241Y-92190043D01*
X133277093Y-92191207D01*
X133317806Y-92200500D01*
X133342309Y-92200500D01*
X133409348Y-92220185D01*
X133443884Y-92253376D01*
X133456508Y-92271405D01*
X133623597Y-92438494D01*
X133780595Y-92548425D01*
X133824220Y-92603002D01*
X133831414Y-92672500D01*
X133799891Y-92734855D01*
X133780595Y-92751575D01*
X133623597Y-92861505D01*
X133456506Y-93028597D01*
X133456501Y-93028604D01*
X133320967Y-93222165D01*
X133320965Y-93222169D01*
X133221098Y-93436335D01*
X133221094Y-93436344D01*
X133159938Y-93664586D01*
X133159936Y-93664596D01*
X133139341Y-93899999D01*
X133139341Y-93900000D01*
X133159936Y-94135403D01*
X133159938Y-94135413D01*
X133213271Y-94334457D01*
X133211608Y-94404307D01*
X133181177Y-94454231D01*
X131677228Y-95958181D01*
X131615905Y-95991666D01*
X131589547Y-95994500D01*
X128722188Y-95994500D01*
X128655149Y-95974815D01*
X128620613Y-95941623D01*
X128508045Y-95780858D01*
X128347141Y-95619954D01*
X128160734Y-95489432D01*
X128160732Y-95489431D01*
X127954497Y-95393261D01*
X127954488Y-95393258D01*
X127734697Y-95334366D01*
X127734693Y-95334365D01*
X127734692Y-95334365D01*
X127734691Y-95334364D01*
X127734686Y-95334364D01*
X127508002Y-95314532D01*
X127507999Y-95314532D01*
X127281313Y-95334364D01*
X127281296Y-95334367D01*
X127212949Y-95352680D01*
X127143099Y-95351016D01*
X127093177Y-95320586D01*
X124625456Y-92852865D01*
X124597846Y-92810833D01*
X124594830Y-92803219D01*
X124589516Y-92789797D01*
X124588211Y-92786170D01*
X124570467Y-92731559D01*
X124566089Y-92724661D01*
X124555495Y-92703868D01*
X124552486Y-92696268D01*
X124518736Y-92649815D01*
X124516545Y-92646592D01*
X124485785Y-92598122D01*
X124479834Y-92592534D01*
X124464398Y-92575025D01*
X124459594Y-92568413D01*
X124459591Y-92568411D01*
X124459591Y-92568410D01*
X124415361Y-92531820D01*
X124412438Y-92529243D01*
X124370585Y-92489940D01*
X124370577Y-92489934D01*
X124363415Y-92485997D01*
X124344114Y-92472880D01*
X124337824Y-92467676D01*
X124285878Y-92443232D01*
X124282417Y-92441469D01*
X124232092Y-92413803D01*
X124232089Y-92413802D01*
X124232085Y-92413800D01*
X124224174Y-92411769D01*
X124202222Y-92403866D01*
X124194825Y-92400385D01*
X124194821Y-92400384D01*
X124138444Y-92389630D01*
X124134644Y-92388780D01*
X124079023Y-92374500D01*
X124079019Y-92374500D01*
X124070847Y-92374500D01*
X124047615Y-92372304D01*
X124039588Y-92370773D01*
X124039586Y-92370773D01*
X124030633Y-92371336D01*
X123982275Y-92374378D01*
X123978403Y-92374500D01*
X101702737Y-92374500D01*
X101687120Y-92372776D01*
X101687093Y-92373062D01*
X101679331Y-92372327D01*
X101610203Y-92374500D01*
X101580650Y-92374500D01*
X101579929Y-92374590D01*
X101573757Y-92375369D01*
X101567945Y-92375826D01*
X101521372Y-92377290D01*
X101521369Y-92377291D01*
X101502126Y-92382881D01*
X101483083Y-92386825D01*
X101463204Y-92389336D01*
X101463203Y-92389337D01*
X101419878Y-92406490D01*
X101414352Y-92408382D01*
X101369608Y-92421383D01*
X101369604Y-92421385D01*
X101352365Y-92431580D01*
X101334898Y-92440137D01*
X101316269Y-92447512D01*
X101316267Y-92447513D01*
X101278564Y-92474906D01*
X101273682Y-92478112D01*
X101233580Y-92501828D01*
X101219408Y-92516000D01*
X101204623Y-92528628D01*
X101188412Y-92540407D01*
X101158709Y-92576310D01*
X101154777Y-92580631D01*
X99632818Y-94102589D01*
X99571495Y-94136074D01*
X99501803Y-94131090D01*
X99445870Y-94089218D01*
X99421453Y-94023754D01*
X99421608Y-94004109D01*
X99425468Y-93960000D01*
X99405635Y-93733308D01*
X99346739Y-93513504D01*
X99250568Y-93307266D01*
X99120047Y-93120861D01*
X99120045Y-93120858D01*
X98959141Y-92959954D01*
X98772734Y-92829432D01*
X98772728Y-92829429D01*
X98745038Y-92816517D01*
X98714724Y-92802381D01*
X98662285Y-92756210D01*
X98643133Y-92689017D01*
X98663348Y-92622135D01*
X98714725Y-92577618D01*
X98717530Y-92576310D01*
X98772734Y-92550568D01*
X98959139Y-92420047D01*
X99120047Y-92259139D01*
X99232164Y-92099018D01*
X99232613Y-92098377D01*
X99287189Y-92054752D01*
X99334188Y-92045500D01*
X120997257Y-92045500D01*
X121012877Y-92047224D01*
X121012904Y-92046939D01*
X121020660Y-92047671D01*
X121020667Y-92047673D01*
X121089814Y-92045500D01*
X121119350Y-92045500D01*
X121126228Y-92044630D01*
X121132041Y-92044172D01*
X121178627Y-92042709D01*
X121197869Y-92037117D01*
X121216912Y-92033174D01*
X121236792Y-92030664D01*
X121280122Y-92013507D01*
X121285646Y-92011617D01*
X121289396Y-92010527D01*
X121330390Y-91998618D01*
X121347629Y-91988422D01*
X121365103Y-91979862D01*
X121383727Y-91972488D01*
X121383727Y-91972487D01*
X121383732Y-91972486D01*
X121421449Y-91945082D01*
X121426305Y-91941892D01*
X121466420Y-91918170D01*
X121480589Y-91903999D01*
X121495379Y-91891368D01*
X121511587Y-91879594D01*
X121541299Y-91843676D01*
X121545212Y-91839376D01*
X122013878Y-91370711D01*
X122075197Y-91337229D01*
X122112363Y-91334867D01*
X122114586Y-91335061D01*
X122114592Y-91335063D01*
X122291034Y-91350500D01*
X122708966Y-91350500D01*
X122885408Y-91335063D01*
X123113663Y-91273903D01*
X123327829Y-91174035D01*
X123521401Y-91038495D01*
X123688495Y-90871401D01*
X123824035Y-90677830D01*
X123923903Y-90463663D01*
X123985063Y-90235408D01*
X124005659Y-90000000D01*
X123985063Y-89764592D01*
X123923903Y-89536337D01*
X123824035Y-89322171D01*
X123824034Y-89322169D01*
X123688494Y-89128597D01*
X123540932Y-88981035D01*
X123507447Y-88919712D01*
X123512431Y-88850020D01*
X123554303Y-88794087D01*
X123563516Y-88787815D01*
X123718345Y-88692315D01*
X123842315Y-88568345D01*
X123934356Y-88419124D01*
X123934358Y-88419119D01*
X123989505Y-88252697D01*
X123989506Y-88252690D01*
X123999999Y-88149986D01*
X124000000Y-88149973D01*
X124000000Y-87800000D01*
X123098666Y-87800000D01*
X123031627Y-87780315D01*
X122985872Y-87727511D01*
X122975928Y-87658353D01*
X122979689Y-87641066D01*
X122999999Y-87571892D01*
X123000000Y-87571889D01*
X123000000Y-87428110D01*
X122999999Y-87428107D01*
X122979689Y-87358934D01*
X122979689Y-87289064D01*
X123017464Y-87230286D01*
X123081020Y-87201262D01*
X123098666Y-87200000D01*
X123999999Y-87200000D01*
X123999999Y-86850028D01*
X123999998Y-86850013D01*
X123989505Y-86747302D01*
X123934358Y-86580880D01*
X123934356Y-86580875D01*
X123842315Y-86431654D01*
X123718345Y-86307684D01*
X123569124Y-86215643D01*
X123569119Y-86215641D01*
X123402697Y-86160494D01*
X123402690Y-86160493D01*
X123299986Y-86150000D01*
X122800000Y-86150000D01*
X122800000Y-86895975D01*
X122780315Y-86963014D01*
X122727511Y-87008769D01*
X122658353Y-87018713D01*
X122643608Y-87015505D01*
X122550519Y-87002121D01*
X122535763Y-87000000D01*
X122464237Y-87000000D01*
X122348906Y-87016582D01*
X122348671Y-87014953D01*
X122289059Y-87014950D01*
X122230283Y-86977173D01*
X122201261Y-86913615D01*
X122200000Y-86895975D01*
X122200000Y-86150000D01*
X121700028Y-86150000D01*
X121700012Y-86150001D01*
X121597302Y-86160494D01*
X121430880Y-86215641D01*
X121430875Y-86215643D01*
X121281654Y-86307684D01*
X121157684Y-86431654D01*
X121065643Y-86580875D01*
X121065641Y-86580880D01*
X121010494Y-86747302D01*
X121010493Y-86747309D01*
X121000000Y-86850013D01*
X121000000Y-87200000D01*
X121901334Y-87200000D01*
X121968373Y-87219685D01*
X122014128Y-87272489D01*
X122024072Y-87341647D01*
X122020311Y-87358934D01*
X122000000Y-87428107D01*
X122000000Y-87571892D01*
X122020311Y-87641066D01*
X122020311Y-87710936D01*
X121982536Y-87769714D01*
X121918980Y-87798738D01*
X121901334Y-87800000D01*
X121000001Y-87800000D01*
X121000001Y-88149986D01*
X121010494Y-88252697D01*
X121065641Y-88419119D01*
X121065643Y-88419124D01*
X121157684Y-88568345D01*
X121281654Y-88692315D01*
X121436484Y-88787815D01*
X121483208Y-88839763D01*
X121494431Y-88908726D01*
X121466587Y-88972808D01*
X121459069Y-88981035D01*
X121311501Y-89128603D01*
X121311501Y-89128604D01*
X121175967Y-89322165D01*
X121175965Y-89322169D01*
X121076098Y-89536335D01*
X121076094Y-89536344D01*
X121014938Y-89764586D01*
X121014936Y-89764596D01*
X120994341Y-89999999D01*
X120994341Y-90000000D01*
X121014936Y-90235403D01*
X121014938Y-90235413D01*
X121073554Y-90454174D01*
X121071891Y-90524024D01*
X121041460Y-90573948D01*
X120857228Y-90758181D01*
X120795905Y-90791666D01*
X120769547Y-90794500D01*
X99334188Y-90794500D01*
X99267149Y-90774815D01*
X99232613Y-90741623D01*
X99120045Y-90580858D01*
X98959141Y-90419954D01*
X98772734Y-90289432D01*
X98772728Y-90289429D01*
X98714725Y-90262382D01*
X98662285Y-90216210D01*
X98643133Y-90149017D01*
X98663348Y-90082135D01*
X98714725Y-90037618D01*
X98772734Y-90010568D01*
X98959139Y-89880047D01*
X99120047Y-89719139D01*
X99250568Y-89532734D01*
X99346739Y-89326496D01*
X99405635Y-89106692D01*
X99425468Y-88880000D01*
X99405635Y-88653308D01*
X99346739Y-88433504D01*
X99250568Y-88227266D01*
X99120047Y-88040861D01*
X99120045Y-88040858D01*
X98959141Y-87879954D01*
X98772734Y-87749432D01*
X98772728Y-87749429D01*
X98735220Y-87731939D01*
X98714724Y-87722381D01*
X98662285Y-87676210D01*
X98643133Y-87609017D01*
X98663348Y-87542135D01*
X98714725Y-87497618D01*
X98772734Y-87470568D01*
X98959139Y-87340047D01*
X99120047Y-87179139D01*
X99250568Y-86992734D01*
X99346739Y-86786496D01*
X99405635Y-86566692D01*
X99425468Y-86340000D01*
X99405635Y-86113308D01*
X99346739Y-85893504D01*
X99250568Y-85687266D01*
X99120047Y-85500861D01*
X99120045Y-85500858D01*
X98959141Y-85339954D01*
X98772734Y-85209432D01*
X98772728Y-85209429D01*
X98714725Y-85182382D01*
X98662285Y-85136210D01*
X98643133Y-85069017D01*
X98663348Y-85002135D01*
X98714725Y-84957618D01*
X98772734Y-84930568D01*
X98959139Y-84800047D01*
X99120047Y-84639139D01*
X99250568Y-84452734D01*
X99346739Y-84246496D01*
X99405635Y-84026692D01*
X99424554Y-83810452D01*
X99425468Y-83800001D01*
X99425468Y-83799998D01*
X99417096Y-83704309D01*
X99405635Y-83573308D01*
X99346739Y-83353504D01*
X99250568Y-83147266D01*
X99120047Y-82960861D01*
X99120045Y-82960858D01*
X98959141Y-82799954D01*
X98772734Y-82669432D01*
X98772728Y-82669429D01*
X98714725Y-82642382D01*
X98662285Y-82596210D01*
X98643133Y-82529017D01*
X98663348Y-82462135D01*
X98714725Y-82417618D01*
X98772734Y-82390568D01*
X98959139Y-82260047D01*
X99120047Y-82099139D01*
X99250568Y-81912734D01*
X99346739Y-81706496D01*
X99405635Y-81486692D01*
X99425468Y-81260000D01*
X99411745Y-81103141D01*
X99410444Y-81088273D01*
X99424211Y-81019773D01*
X99446288Y-80989788D01*
X101423177Y-79012900D01*
X101484496Y-78979418D01*
X101554188Y-78984402D01*
G37*
%TD.AperFunction*%
%TA.AperFunction,Conductor*%
G36*
X132373052Y-79369538D02*
G01*
X132428985Y-79411410D01*
X132453402Y-79476874D01*
X132443521Y-79534963D01*
X132438817Y-79545833D01*
X132436246Y-79551083D01*
X132413803Y-79591907D01*
X132413802Y-79591908D01*
X132413803Y-79591908D01*
X132408833Y-79611266D01*
X132408822Y-79611307D01*
X132402521Y-79629710D01*
X132394562Y-79648102D01*
X132394561Y-79648105D01*
X132387271Y-79694127D01*
X132386087Y-79699846D01*
X132374501Y-79744972D01*
X132374500Y-79744982D01*
X132374500Y-79765016D01*
X132372973Y-79784415D01*
X132369840Y-79804194D01*
X132369840Y-79804195D01*
X132374225Y-79850583D01*
X132374500Y-79856421D01*
X132374500Y-83417255D01*
X132372775Y-83432872D01*
X132373061Y-83432899D01*
X132372326Y-83440665D01*
X132374500Y-83509814D01*
X132374500Y-83539343D01*
X132374501Y-83539360D01*
X132375368Y-83546231D01*
X132375826Y-83552050D01*
X132377290Y-83598624D01*
X132377291Y-83598627D01*
X132382880Y-83617867D01*
X132386824Y-83636911D01*
X132387612Y-83643141D01*
X132389336Y-83656791D01*
X132406490Y-83700119D01*
X132408382Y-83705647D01*
X132413357Y-83722771D01*
X132421382Y-83750390D01*
X132428183Y-83761891D01*
X132431580Y-83767634D01*
X132440136Y-83785100D01*
X132447514Y-83803732D01*
X132460257Y-83821272D01*
X132474898Y-83841423D01*
X132478106Y-83846307D01*
X132501827Y-83886416D01*
X132501833Y-83886424D01*
X132515990Y-83900580D01*
X132528628Y-83915376D01*
X132540405Y-83931586D01*
X132540406Y-83931587D01*
X132576309Y-83961288D01*
X132580620Y-83965210D01*
X134213342Y-85597932D01*
X135838181Y-87222771D01*
X135871666Y-87284094D01*
X135874500Y-87310452D01*
X135874500Y-87523229D01*
X135854815Y-87590268D01*
X135802011Y-87636023D01*
X135732853Y-87645967D01*
X135685405Y-87628769D01*
X135664126Y-87615645D01*
X135664119Y-87615641D01*
X135497697Y-87560494D01*
X135497690Y-87560493D01*
X135394986Y-87550000D01*
X134920000Y-87550000D01*
X134920000Y-88322298D01*
X134900315Y-88389337D01*
X134847511Y-88435092D01*
X134778353Y-88445036D01*
X134761072Y-88441277D01*
X134755204Y-88439554D01*
X134666647Y-88426822D01*
X134653975Y-88425000D01*
X134586025Y-88425000D01*
X134484795Y-88439554D01*
X134478928Y-88441277D01*
X134409058Y-88441273D01*
X134350282Y-88403495D01*
X134321261Y-88339938D01*
X134320000Y-88322298D01*
X134320000Y-87550000D01*
X133845028Y-87550000D01*
X133845012Y-87550001D01*
X133742302Y-87560494D01*
X133575880Y-87615641D01*
X133575875Y-87615643D01*
X133426654Y-87707684D01*
X133302684Y-87831654D01*
X133210643Y-87980875D01*
X133210641Y-87980880D01*
X133155494Y-88147302D01*
X133155493Y-88147309D01*
X133145000Y-88250013D01*
X133145000Y-88600000D01*
X134047390Y-88600000D01*
X134114429Y-88619685D01*
X134160184Y-88672489D01*
X134170128Y-88741647D01*
X134166367Y-88758935D01*
X134145000Y-88831704D01*
X134145000Y-88968295D01*
X134166367Y-89041065D01*
X134166367Y-89110935D01*
X134128593Y-89169713D01*
X134065037Y-89198738D01*
X134047390Y-89200000D01*
X133145001Y-89200000D01*
X133145001Y-89549986D01*
X133155493Y-89652695D01*
X133170683Y-89698532D01*
X133173085Y-89768361D01*
X133137354Y-89828403D01*
X133074833Y-89859596D01*
X133005374Y-89852036D01*
X132965296Y-89825218D01*
X128344819Y-85204741D01*
X128311334Y-85143418D01*
X128308500Y-85117060D01*
X128308500Y-83382939D01*
X128328185Y-83315900D01*
X128344814Y-83295263D01*
X132242039Y-79398037D01*
X132303360Y-79364554D01*
X132373052Y-79369538D01*
G37*
%TD.AperFunction*%
%TA.AperFunction,Conductor*%
G36*
X136433739Y-72232409D02*
G01*
X136450161Y-72246208D01*
X137338181Y-73134228D01*
X137371666Y-73195551D01*
X137374500Y-73221909D01*
X137374500Y-81690547D01*
X137354815Y-81757586D01*
X137302011Y-81803341D01*
X137232853Y-81813285D01*
X137169297Y-81784260D01*
X137162819Y-81778228D01*
X136266439Y-80881848D01*
X136232954Y-80820525D01*
X136230592Y-80783359D01*
X136231724Y-80770427D01*
X136250659Y-80554000D01*
X136230063Y-80318592D01*
X136179378Y-80129429D01*
X136168905Y-80090344D01*
X136168904Y-80090343D01*
X136168903Y-80090337D01*
X136069035Y-79876171D01*
X136051119Y-79850583D01*
X135933494Y-79682597D01*
X135766403Y-79515506D01*
X135677731Y-79453418D01*
X135609401Y-79405573D01*
X135565778Y-79350999D01*
X135558584Y-79281500D01*
X135590106Y-79219145D01*
X135609398Y-79202428D01*
X135766401Y-79092495D01*
X135933495Y-78925401D01*
X136069035Y-78731830D01*
X136168903Y-78517663D01*
X136230063Y-78289408D01*
X136250659Y-78054000D01*
X136230063Y-77818592D01*
X136168903Y-77590337D01*
X136069035Y-77376171D01*
X136060228Y-77363592D01*
X135933494Y-77182597D01*
X135766403Y-77015506D01*
X135671410Y-76948992D01*
X135609401Y-76905573D01*
X135565778Y-76850999D01*
X135558584Y-76781500D01*
X135590106Y-76719145D01*
X135609398Y-76702428D01*
X135766401Y-76592495D01*
X135933495Y-76425401D01*
X136069035Y-76231830D01*
X136168903Y-76017663D01*
X136230063Y-75789408D01*
X136250659Y-75554000D01*
X136230063Y-75318592D01*
X136168903Y-75090337D01*
X136069035Y-74876171D01*
X136069034Y-74876169D01*
X135933494Y-74682597D01*
X135785932Y-74535035D01*
X135752447Y-74473712D01*
X135757431Y-74404020D01*
X135799303Y-74348087D01*
X135808516Y-74341815D01*
X135963345Y-74246315D01*
X136087315Y-74122345D01*
X136179356Y-73973124D01*
X136179358Y-73973119D01*
X136234505Y-73806697D01*
X136234506Y-73806690D01*
X136244999Y-73703986D01*
X136245000Y-73703973D01*
X136245000Y-73354000D01*
X135342610Y-73354000D01*
X135275571Y-73334315D01*
X135229816Y-73281511D01*
X135219872Y-73212353D01*
X135223633Y-73195065D01*
X135245000Y-73122295D01*
X135245000Y-72985704D01*
X135228443Y-72929319D01*
X135223633Y-72912934D01*
X135223633Y-72843065D01*
X135261407Y-72784287D01*
X135324963Y-72755262D01*
X135342610Y-72754000D01*
X136244999Y-72754000D01*
X136244999Y-72404028D01*
X136244998Y-72404013D01*
X136239122Y-72346491D01*
X136251892Y-72277798D01*
X136299772Y-72226914D01*
X136367562Y-72209993D01*
X136433739Y-72232409D01*
G37*
%TD.AperFunction*%
%TA.AperFunction,Conductor*%
G36*
X82338362Y-76399886D02*
G01*
X82394295Y-76441758D01*
X82405125Y-76459019D01*
X82426440Y-76500153D01*
X82426441Y-76500156D01*
X82478040Y-76555404D01*
X82529638Y-76610652D01*
X82601494Y-76654349D01*
X82608669Y-76658712D01*
X82655721Y-76710364D01*
X82667378Y-76779254D01*
X82639940Y-76843511D01*
X82631921Y-76852341D01*
X82196115Y-77288146D01*
X82227516Y-77310133D01*
X82227522Y-77310136D01*
X82285865Y-77337342D01*
X82338305Y-77383514D01*
X82357457Y-77450707D01*
X82337242Y-77517589D01*
X82285867Y-77562105D01*
X82284685Y-77562657D01*
X82227264Y-77589433D01*
X82040858Y-77719954D01*
X82012181Y-77748632D01*
X81950858Y-77782117D01*
X81881166Y-77777133D01*
X81825233Y-77735261D01*
X81800816Y-77669797D01*
X81800500Y-77660951D01*
X81800500Y-76886596D01*
X81820185Y-76819557D01*
X81836819Y-76798915D01*
X82207347Y-76428387D01*
X82268670Y-76394902D01*
X82338362Y-76399886D01*
G37*
%TD.AperFunction*%
M02*
