%TF.GenerationSoftware,KiCad,Pcbnew,7.0.7*%
%TF.CreationDate,2023-12-09T14:49:58+00:00*%
%TF.ProjectId,Wand Board,57616e64-2042-46f6-9172-642e6b696361,rev?*%
%TF.SameCoordinates,Original*%
%TF.FileFunction,Copper,L1,Top*%
%TF.FilePolarity,Positive*%
%FSLAX46Y46*%
G04 Gerber Fmt 4.6, Leading zero omitted, Abs format (unit mm)*
G04 Created by KiCad (PCBNEW 7.0.7) date 2023-12-09 14:49:58*
%MOMM*%
%LPD*%
G01*
G04 APERTURE LIST*
G04 Aperture macros list*
%AMRoundRect*
0 Rectangle with rounded corners*
0 $1 Rounding radius*
0 $2 $3 $4 $5 $6 $7 $8 $9 X,Y pos of 4 corners*
0 Add a 4 corners polygon primitive as box body*
4,1,4,$2,$3,$4,$5,$6,$7,$8,$9,$2,$3,0*
0 Add four circle primitives for the rounded corners*
1,1,$1+$1,$2,$3*
1,1,$1+$1,$4,$5*
1,1,$1+$1,$6,$7*
1,1,$1+$1,$8,$9*
0 Add four rect primitives between the rounded corners*
20,1,$1+$1,$2,$3,$4,$5,0*
20,1,$1+$1,$4,$5,$6,$7,0*
20,1,$1+$1,$6,$7,$8,$9,0*
20,1,$1+$1,$8,$9,$2,$3,0*%
G04 Aperture macros list end*
%TA.AperFunction,ComponentPad*%
%ADD10O,1.700000X1.950000*%
%TD*%
%TA.AperFunction,ComponentPad*%
%ADD11RoundRect,0.250000X-0.600000X-0.725000X0.600000X-0.725000X0.600000X0.725000X-0.600000X0.725000X0*%
%TD*%
%TA.AperFunction,ComponentPad*%
%ADD12O,1.950000X1.700000*%
%TD*%
%TA.AperFunction,ComponentPad*%
%ADD13RoundRect,0.250000X-0.725000X0.600000X-0.725000X-0.600000X0.725000X-0.600000X0.725000X0.600000X0*%
%TD*%
%TA.AperFunction,ComponentPad*%
%ADD14R,1.200000X1.200000*%
%TD*%
%TA.AperFunction,ComponentPad*%
%ADD15C,1.200000*%
%TD*%
%TA.AperFunction,ComponentPad*%
%ADD16C,1.600000*%
%TD*%
%TA.AperFunction,ComponentPad*%
%ADD17O,1.600000X1.600000*%
%TD*%
%TA.AperFunction,ComponentPad*%
%ADD18R,2.200000X2.200000*%
%TD*%
%TA.AperFunction,ComponentPad*%
%ADD19O,2.200000X2.200000*%
%TD*%
%TA.AperFunction,ComponentPad*%
%ADD20R,2.600000X2.600000*%
%TD*%
%TA.AperFunction,ComponentPad*%
%ADD21C,2.600000*%
%TD*%
%TA.AperFunction,ComponentPad*%
%ADD22O,2.000000X1.700000*%
%TD*%
%TA.AperFunction,ComponentPad*%
%ADD23RoundRect,0.250000X-0.750000X0.600000X-0.750000X-0.600000X0.750000X-0.600000X0.750000X0.600000X0*%
%TD*%
%TA.AperFunction,ComponentPad*%
%ADD24RoundRect,0.250000X-0.600000X-0.750000X0.600000X-0.750000X0.600000X0.750000X-0.600000X0.750000X0*%
%TD*%
%TA.AperFunction,ComponentPad*%
%ADD25O,1.700000X2.000000*%
%TD*%
%TA.AperFunction,ComponentPad*%
%ADD26R,1.600000X1.600000*%
%TD*%
%TA.AperFunction,ComponentPad*%
%ADD27R,1.500000X1.050000*%
%TD*%
%TA.AperFunction,ComponentPad*%
%ADD28O,1.500000X1.050000*%
%TD*%
%TA.AperFunction,ComponentPad*%
%ADD29C,6.400000*%
%TD*%
%TA.AperFunction,ViaPad*%
%ADD30C,0.800000*%
%TD*%
%TA.AperFunction,Conductor*%
%ADD31C,0.250000*%
%TD*%
%TA.AperFunction,Conductor*%
%ADD32C,0.600000*%
%TD*%
G04 APERTURE END LIST*
D10*
X128000000Y-96000000D03*
X125500000Y-96000000D03*
X123000000Y-96000000D03*
D11*
X120500000Y-96000000D03*
D12*
X134850000Y-96400000D03*
X134850000Y-93900000D03*
X134850000Y-91400000D03*
D13*
X134850000Y-88900000D03*
D11*
X57230000Y-96503000D03*
D10*
X59730000Y-96503000D03*
X62230000Y-96503000D03*
D14*
X116250000Y-69527401D03*
D15*
X116250000Y-71527401D03*
D16*
X82880000Y-76180000D03*
X82880000Y-78720000D03*
X82880000Y-81260000D03*
X82880000Y-83800000D03*
X82880000Y-86340000D03*
X82880000Y-88880000D03*
X82880000Y-91420000D03*
X82880000Y-93960000D03*
X82880000Y-96500000D03*
X82880000Y-99040000D03*
X82880000Y-101580000D03*
X82880000Y-104120000D03*
X82880000Y-106660000D03*
X82880000Y-109200000D03*
X98120000Y-109200000D03*
X98120000Y-106660000D03*
X98120000Y-104120000D03*
X98120000Y-101580000D03*
X98120000Y-99040000D03*
X98120000Y-96500000D03*
X98120000Y-93960000D03*
X98120000Y-91420000D03*
X98120000Y-88880000D03*
X98120000Y-86340000D03*
X98120000Y-83800000D03*
X98120000Y-81260000D03*
X98120000Y-78720000D03*
X98120000Y-76180000D03*
X91645000Y-76820000D03*
X89355000Y-76820000D03*
X104370000Y-71750000D03*
D17*
X96750000Y-71750000D03*
D11*
X57230000Y-72644000D03*
D10*
X59730000Y-72644000D03*
X62230000Y-72644000D03*
D16*
X67056000Y-77216000D03*
D17*
X67056000Y-69596000D03*
D13*
X105000000Y-85000000D03*
D12*
X105000000Y-87500000D03*
X105000000Y-90000000D03*
D16*
X67056000Y-88900000D03*
D17*
X67056000Y-81280000D03*
D16*
X127500000Y-70940000D03*
D17*
X127500000Y-78560000D03*
D18*
X116330000Y-76500000D03*
D19*
X106170000Y-76500000D03*
D20*
X98500000Y-116500000D03*
D21*
X103500000Y-116500000D03*
D12*
X135000000Y-80554000D03*
X135000000Y-78054000D03*
X135000000Y-75554000D03*
D13*
X135000000Y-73054000D03*
D22*
X103632000Y-107500000D03*
D23*
X103632000Y-105000000D03*
D24*
X108500000Y-69750000D03*
D25*
X111000000Y-69750000D03*
D16*
X67056000Y-100584000D03*
D17*
X67056000Y-92964000D03*
D11*
X57230000Y-84582000D03*
D10*
X59730000Y-84582000D03*
X62230000Y-84582000D03*
D26*
X74676000Y-91408000D03*
D16*
X74676000Y-89408000D03*
D23*
X122500000Y-87500000D03*
D22*
X122500000Y-90000000D03*
D11*
X102656000Y-98044000D03*
D10*
X105156000Y-98044000D03*
X107656000Y-98044000D03*
D16*
X127500000Y-91620000D03*
D17*
X127500000Y-84000000D03*
D23*
X122500000Y-79000000D03*
D22*
X122500000Y-81500000D03*
D24*
X86868000Y-69596000D03*
D25*
X89368000Y-69596000D03*
D23*
X122500000Y-70500000D03*
D22*
X122500000Y-73000000D03*
D26*
X78740000Y-85344000D03*
D17*
X78740000Y-82804000D03*
X78740000Y-80264000D03*
X78740000Y-77724000D03*
X78740000Y-75184000D03*
X78740000Y-72644000D03*
X78740000Y-70104000D03*
X71120000Y-70104000D03*
X71120000Y-72644000D03*
X71120000Y-75184000D03*
X71120000Y-77724000D03*
X71120000Y-80264000D03*
X71120000Y-82804000D03*
X71120000Y-85344000D03*
D22*
X114700000Y-98300000D03*
D23*
X114700000Y-95800000D03*
D24*
X73192000Y-96520000D03*
D25*
X75692000Y-96520000D03*
D20*
X85500000Y-116500000D03*
D21*
X90500000Y-116500000D03*
D16*
X104310000Y-68500000D03*
D17*
X96690000Y-68500000D03*
D27*
X102500000Y-78040000D03*
D28*
X102500000Y-76770000D03*
X102500000Y-75500000D03*
D29*
X113500000Y-84625000D03*
D30*
X92000000Y-81750000D03*
D31*
X134450000Y-96000000D02*
X134850000Y-96400000D01*
X128000000Y-96000000D02*
X134450000Y-96000000D01*
X125500000Y-93620000D02*
X127500000Y-91620000D01*
X125500000Y-96000000D02*
X125500000Y-93620000D01*
D32*
X134770000Y-75554000D02*
X135000000Y-75554000D01*
X127500000Y-82824000D02*
X134770000Y-75554000D01*
X127500000Y-84000000D02*
X127500000Y-82824000D01*
D31*
X135054000Y-80554000D02*
X134770000Y-80554000D01*
X138000000Y-83500000D02*
X135054000Y-80554000D01*
X133000000Y-83500000D02*
X133000000Y-79824000D01*
X136500000Y-87000000D02*
X133000000Y-83500000D01*
X136500000Y-92250000D02*
X136500000Y-87000000D01*
X133000000Y-79824000D02*
X134770000Y-78054000D01*
X134850000Y-93900000D02*
X136500000Y-92250000D01*
X133900000Y-93900000D02*
X134850000Y-93900000D01*
X131620000Y-91620000D02*
X133900000Y-93900000D01*
X127500000Y-91620000D02*
X131620000Y-91620000D01*
X138000000Y-93250000D02*
X138000000Y-83500000D01*
X134850000Y-96400000D02*
X138000000Y-93250000D01*
X134620000Y-96400000D02*
X134850000Y-96400000D01*
X135838543Y-70750000D02*
X138000000Y-72911457D01*
X138000000Y-72911457D02*
X138000000Y-83500000D01*
X127690000Y-70750000D02*
X135838543Y-70750000D01*
X127500000Y-70940000D02*
X127690000Y-70750000D01*
D32*
X132900000Y-91400000D02*
X134620000Y-91400000D01*
X127500000Y-86000000D02*
X132900000Y-91400000D01*
X127500000Y-84000000D02*
X127500000Y-86000000D01*
X127508000Y-83992000D02*
X127500000Y-84000000D01*
X127508000Y-78568000D02*
X127508000Y-83992000D01*
X127500000Y-78560000D02*
X127508000Y-78568000D01*
X122500000Y-84000000D02*
X127500000Y-84000000D01*
X118750000Y-80250000D02*
X122500000Y-84000000D01*
X105000000Y-85000000D02*
X109750000Y-80250000D01*
X109750000Y-80250000D02*
X118750000Y-80250000D01*
D31*
X126120000Y-93000000D02*
X127500000Y-91620000D01*
X101620000Y-93000000D02*
X126120000Y-93000000D01*
X101620000Y-93000000D02*
X98120000Y-96500000D01*
D32*
X59730000Y-84582000D02*
X59730000Y-72644000D01*
X81000000Y-87500000D02*
X81000000Y-71000000D01*
X59730000Y-86313000D02*
X59730000Y-84582000D01*
X90250000Y-67500000D02*
X91125000Y-68375000D01*
X64825000Y-91408000D02*
X59730000Y-96503000D01*
X111000000Y-69750000D02*
X116027401Y-69750000D01*
X109200000Y-67200000D02*
X92300000Y-67200000D01*
X116250000Y-69527401D02*
X118250000Y-71527401D01*
X64825000Y-91408000D02*
X59730000Y-86313000D01*
X98120000Y-75370000D02*
X98120000Y-76180000D01*
X98044000Y-76180000D02*
X95500000Y-78724000D01*
X111000000Y-69750000D02*
X111000000Y-69000000D01*
X91125000Y-68375000D02*
X98120000Y-75370000D01*
X74676000Y-91408000D02*
X77092000Y-91408000D01*
X102500000Y-116500000D02*
X103500000Y-116500000D01*
X111000000Y-69000000D02*
X109200000Y-67200000D01*
X84500000Y-67500000D02*
X90250000Y-67500000D01*
X95500000Y-109500000D02*
X102500000Y-116500000D01*
X74676000Y-91408000D02*
X64825000Y-91408000D01*
X74676000Y-91408000D02*
X74408000Y-91408000D01*
X116027401Y-69750000D02*
X116250000Y-69527401D01*
X71120000Y-88120000D02*
X71120000Y-85344000D01*
X81000000Y-71000000D02*
X84500000Y-67500000D01*
X77092000Y-91408000D02*
X81000000Y-87500000D01*
X95500000Y-78724000D02*
X95500000Y-109500000D01*
X92300000Y-67200000D02*
X91125000Y-68375000D01*
X118250000Y-74580000D02*
X116330000Y-76500000D01*
X74408000Y-91408000D02*
X71120000Y-88120000D01*
X118250000Y-71527401D02*
X118250000Y-74580000D01*
X78740000Y-77724000D02*
X76200000Y-77724000D01*
X74676000Y-86360000D02*
X74676000Y-89408000D01*
X76200000Y-75184000D02*
X71120000Y-75184000D01*
X120750000Y-89250000D02*
X122500000Y-87500000D01*
X76200000Y-77724000D02*
X71120000Y-82804000D01*
X105000000Y-87500000D02*
X106750000Y-89250000D01*
X106750000Y-89250000D02*
X120750000Y-89250000D01*
X71120000Y-82804000D02*
X74676000Y-86360000D01*
X78740000Y-77724000D02*
X76200000Y-75184000D01*
D31*
X67056000Y-77216000D02*
X62484000Y-72644000D01*
X62484000Y-72644000D02*
X62230000Y-72644000D01*
X62738000Y-84582000D02*
X62230000Y-84582000D01*
X67056000Y-88900000D02*
X62738000Y-84582000D01*
X62975000Y-96503000D02*
X62230000Y-96503000D01*
X67056000Y-100584000D02*
X62975000Y-96503000D01*
X121080000Y-91420000D02*
X122500000Y-90000000D01*
X98120000Y-91420000D02*
X121080000Y-91420000D01*
D32*
X101860000Y-85000000D02*
X98120000Y-81260000D01*
X105000000Y-85000000D02*
X101860000Y-85000000D01*
X86868000Y-69596000D02*
X88214000Y-70942000D01*
X88214000Y-75679000D02*
X89355000Y-76820000D01*
X88214000Y-70942000D02*
X88214000Y-75679000D01*
X91645000Y-76820000D02*
X90195200Y-75370200D01*
X90195200Y-75370200D02*
X90195200Y-70423200D01*
X90195200Y-70423200D02*
X89368000Y-69596000D01*
D31*
X106170000Y-76500000D02*
X106170000Y-72080000D01*
X116250000Y-71527401D02*
X110277401Y-71527401D01*
X106170000Y-72080000D02*
X108500000Y-69750000D01*
X110277401Y-71527401D02*
X108500000Y-69750000D01*
X104310000Y-71690000D02*
X104370000Y-71750000D01*
X104370000Y-71750000D02*
X104370000Y-75125000D01*
X104310000Y-68500000D02*
X104310000Y-71690000D01*
X104370000Y-75125000D02*
X102725000Y-76770000D01*
X102725000Y-76770000D02*
X102500000Y-76770000D01*
X82880000Y-109200000D02*
X86800000Y-109200000D01*
X92000000Y-104000000D02*
X92000000Y-81750000D01*
X86800000Y-109200000D02*
X92000000Y-104000000D01*
%TA.AperFunction,Conductor*%
G36*
X84254592Y-66520185D02*
G01*
X84300347Y-66572989D01*
X84310291Y-66642147D01*
X84281266Y-66705703D01*
X84239112Y-66734339D01*
X84240211Y-66736621D01*
X84196326Y-66757753D01*
X84189901Y-66760414D01*
X84150482Y-66774209D01*
X84150474Y-66774213D01*
X84115117Y-66796428D01*
X84109032Y-66799791D01*
X84071413Y-66817908D01*
X84071411Y-66817909D01*
X84038769Y-66843941D01*
X84033096Y-66847966D01*
X83997739Y-66870183D01*
X83948307Y-66919614D01*
X80480296Y-70387625D01*
X80370183Y-70497739D01*
X80347966Y-70533096D01*
X80343941Y-70538769D01*
X80317910Y-70571410D01*
X80299791Y-70609033D01*
X80296427Y-70615120D01*
X80274212Y-70650476D01*
X80274208Y-70650483D01*
X80260416Y-70689895D01*
X80257755Y-70696320D01*
X80239639Y-70733939D01*
X80230344Y-70774659D01*
X80228419Y-70781341D01*
X80214632Y-70820744D01*
X80209955Y-70862235D01*
X80208791Y-70869089D01*
X80199500Y-70909806D01*
X80199500Y-72137334D01*
X80179815Y-72204373D01*
X80127011Y-72250128D01*
X80057853Y-72260072D01*
X79994297Y-72231047D01*
X79963118Y-72189739D01*
X79961037Y-72185277D01*
X79870568Y-71991266D01*
X79740047Y-71804861D01*
X79740045Y-71804858D01*
X79579141Y-71643954D01*
X79392734Y-71513432D01*
X79392732Y-71513431D01*
X79334725Y-71486382D01*
X79334132Y-71486105D01*
X79281694Y-71439934D01*
X79262542Y-71372740D01*
X79282758Y-71305859D01*
X79334134Y-71261341D01*
X79392484Y-71234132D01*
X79578820Y-71103657D01*
X79739657Y-70942820D01*
X79870134Y-70756482D01*
X79966265Y-70550326D01*
X79966268Y-70550320D01*
X80005475Y-70404000D01*
X79238423Y-70404000D01*
X79171384Y-70384315D01*
X79125629Y-70331511D01*
X79115685Y-70262353D01*
X79123165Y-70238755D01*
X79122150Y-70238426D01*
X79125163Y-70229151D01*
X79125165Y-70229148D01*
X79125166Y-70229143D01*
X79144986Y-70104003D01*
X79144986Y-70103996D01*
X79125166Y-69978856D01*
X79122150Y-69969574D01*
X79124997Y-69968648D01*
X79115043Y-69915611D01*
X79141328Y-69850874D01*
X79198439Y-69810623D01*
X79238423Y-69804000D01*
X80005475Y-69804000D01*
X80005474Y-69803999D01*
X79966268Y-69657679D01*
X79966265Y-69657673D01*
X79870134Y-69451517D01*
X79739657Y-69265179D01*
X79578820Y-69104342D01*
X79392482Y-68973865D01*
X79186326Y-68877734D01*
X79186320Y-68877731D01*
X79040000Y-68838525D01*
X79040000Y-69605577D01*
X79020315Y-69672616D01*
X78967511Y-69718371D01*
X78898353Y-69728315D01*
X78874755Y-69720834D01*
X78874426Y-69721850D01*
X78865144Y-69718833D01*
X78771486Y-69704000D01*
X78771481Y-69704000D01*
X78708519Y-69704000D01*
X78708514Y-69704000D01*
X78614855Y-69718833D01*
X78605574Y-69721850D01*
X78604648Y-69719002D01*
X78551611Y-69728957D01*
X78486874Y-69702672D01*
X78446623Y-69645561D01*
X78440000Y-69605577D01*
X78440000Y-68838525D01*
X78439999Y-68838525D01*
X78293679Y-68877731D01*
X78293673Y-68877734D01*
X78087517Y-68973865D01*
X77901179Y-69104342D01*
X77740342Y-69265179D01*
X77609865Y-69451517D01*
X77513734Y-69657673D01*
X77513731Y-69657679D01*
X77474525Y-69803999D01*
X77474525Y-69804000D01*
X78241577Y-69804000D01*
X78308616Y-69823685D01*
X78354371Y-69876489D01*
X78364315Y-69945647D01*
X78356834Y-69969244D01*
X78357850Y-69969574D01*
X78354833Y-69978856D01*
X78335014Y-70103996D01*
X78335014Y-70104003D01*
X78354833Y-70229143D01*
X78357850Y-70238426D01*
X78355002Y-70239351D01*
X78364957Y-70292389D01*
X78338672Y-70357126D01*
X78281561Y-70397377D01*
X78241577Y-70404000D01*
X77474525Y-70404000D01*
X77513731Y-70550320D01*
X77513734Y-70550326D01*
X77609865Y-70756482D01*
X77740342Y-70942820D01*
X77901179Y-71103657D01*
X78087518Y-71234134D01*
X78087520Y-71234135D01*
X78145865Y-71261342D01*
X78198305Y-71307514D01*
X78217457Y-71374707D01*
X78197242Y-71441589D01*
X78145867Y-71486105D01*
X78087268Y-71513431D01*
X78087264Y-71513433D01*
X77900858Y-71643954D01*
X77739954Y-71804858D01*
X77609432Y-71991265D01*
X77609431Y-71991267D01*
X77513261Y-72197502D01*
X77513258Y-72197511D01*
X77454366Y-72417302D01*
X77454364Y-72417313D01*
X77434532Y-72643998D01*
X77434532Y-72644001D01*
X77454364Y-72870686D01*
X77454366Y-72870697D01*
X77513258Y-73090488D01*
X77513261Y-73090497D01*
X77609431Y-73296732D01*
X77609432Y-73296734D01*
X77739954Y-73483141D01*
X77900858Y-73644045D01*
X77900861Y-73644047D01*
X78087266Y-73774568D01*
X78145275Y-73801618D01*
X78197714Y-73847791D01*
X78216866Y-73914984D01*
X78196650Y-73981865D01*
X78145275Y-74026382D01*
X78087267Y-74053431D01*
X78087265Y-74053432D01*
X77900858Y-74183954D01*
X77739954Y-74344858D01*
X77609432Y-74531265D01*
X77609431Y-74531267D01*
X77513261Y-74737502D01*
X77513258Y-74737511D01*
X77454366Y-74957302D01*
X77454364Y-74957313D01*
X77434532Y-75183998D01*
X77434532Y-75184001D01*
X77454364Y-75410686D01*
X77454366Y-75410697D01*
X77513258Y-75630488D01*
X77513261Y-75630497D01*
X77609431Y-75836732D01*
X77609432Y-75836734D01*
X77739954Y-76023141D01*
X77900858Y-76184045D01*
X77900861Y-76184047D01*
X78087266Y-76314568D01*
X78145865Y-76341893D01*
X78198305Y-76388065D01*
X78217457Y-76455258D01*
X78197242Y-76522139D01*
X78145867Y-76566657D01*
X78087515Y-76593867D01*
X77901179Y-76724342D01*
X77740342Y-76885179D01*
X77609865Y-77071517D01*
X77513734Y-77277673D01*
X77513731Y-77277679D01*
X77474525Y-77423999D01*
X77474525Y-77424000D01*
X78241577Y-77424000D01*
X78308616Y-77443685D01*
X78354371Y-77496489D01*
X78364315Y-77565647D01*
X78356834Y-77589244D01*
X78357850Y-77589574D01*
X78354833Y-77598856D01*
X78335014Y-77723996D01*
X78335014Y-77724003D01*
X78354833Y-77849143D01*
X78357850Y-77858426D01*
X78355002Y-77859351D01*
X78364957Y-77912389D01*
X78338672Y-77977126D01*
X78281561Y-78017377D01*
X78241577Y-78024000D01*
X77474525Y-78024000D01*
X77513731Y-78170320D01*
X77513734Y-78170326D01*
X77609865Y-78376482D01*
X77740342Y-78562820D01*
X77901179Y-78723657D01*
X78087518Y-78854134D01*
X78087520Y-78854135D01*
X78145865Y-78881342D01*
X78198305Y-78927514D01*
X78217457Y-78994707D01*
X78197242Y-79061589D01*
X78145867Y-79106105D01*
X78087268Y-79133431D01*
X78087264Y-79133433D01*
X77900858Y-79263954D01*
X77739954Y-79424858D01*
X77609432Y-79611265D01*
X77609431Y-79611267D01*
X77513261Y-79817502D01*
X77513258Y-79817511D01*
X77454366Y-80037302D01*
X77454364Y-80037313D01*
X77434532Y-80263998D01*
X77434532Y-80264001D01*
X77454364Y-80490686D01*
X77454366Y-80490697D01*
X77513258Y-80710488D01*
X77513261Y-80710497D01*
X77609431Y-80916732D01*
X77609432Y-80916734D01*
X77739954Y-81103141D01*
X77900858Y-81264045D01*
X77900861Y-81264047D01*
X78087266Y-81394568D01*
X78145275Y-81421618D01*
X78197714Y-81467791D01*
X78216866Y-81534984D01*
X78196650Y-81601865D01*
X78145275Y-81646382D01*
X78087267Y-81673431D01*
X78087265Y-81673432D01*
X77900858Y-81803954D01*
X77739954Y-81964858D01*
X77609432Y-82151265D01*
X77609431Y-82151267D01*
X77513261Y-82357502D01*
X77513258Y-82357511D01*
X77454366Y-82577302D01*
X77454364Y-82577313D01*
X77434532Y-82803998D01*
X77434532Y-82804001D01*
X77454364Y-83030686D01*
X77454366Y-83030697D01*
X77513258Y-83250488D01*
X77513261Y-83250497D01*
X77609431Y-83456732D01*
X77609432Y-83456734D01*
X77739954Y-83643141D01*
X77900858Y-83804045D01*
X77925462Y-83821273D01*
X77969087Y-83875849D01*
X77976281Y-83945348D01*
X77944758Y-84007703D01*
X77884529Y-84043117D01*
X77867593Y-84046138D01*
X77832516Y-84049908D01*
X77697671Y-84100202D01*
X77697664Y-84100206D01*
X77582455Y-84186452D01*
X77582452Y-84186455D01*
X77496206Y-84301664D01*
X77496202Y-84301671D01*
X77445908Y-84436517D01*
X77439501Y-84496116D01*
X77439500Y-84496135D01*
X77439500Y-86191870D01*
X77439501Y-86191876D01*
X77445908Y-86251483D01*
X77496202Y-86386328D01*
X77496206Y-86386335D01*
X77582452Y-86501544D01*
X77582455Y-86501547D01*
X77697664Y-86587793D01*
X77697671Y-86587797D01*
X77832517Y-86638091D01*
X77832516Y-86638091D01*
X77839444Y-86638835D01*
X77892127Y-86644500D01*
X79587872Y-86644499D01*
X79647483Y-86638091D01*
X79782331Y-86587796D01*
X79897546Y-86501546D01*
X79976234Y-86396431D01*
X80032167Y-86354562D01*
X80101859Y-86349578D01*
X80163182Y-86383063D01*
X80196666Y-86444387D01*
X80199500Y-86470744D01*
X80199500Y-87117059D01*
X80179815Y-87184098D01*
X80163181Y-87204740D01*
X76796741Y-90571181D01*
X76735418Y-90604666D01*
X76709060Y-90607500D01*
X76092977Y-90607500D01*
X76025938Y-90587815D01*
X75980183Y-90535011D01*
X75972733Y-90507865D01*
X75971876Y-90508068D01*
X75970092Y-90500520D01*
X75965956Y-90489432D01*
X75919796Y-90365669D01*
X75919795Y-90365668D01*
X75919793Y-90365664D01*
X75833547Y-90250456D01*
X75833548Y-90250456D01*
X75833546Y-90250454D01*
X75824449Y-90243644D01*
X75782581Y-90187710D01*
X75777599Y-90118018D01*
X75797191Y-90073253D01*
X75806134Y-90060481D01*
X75902265Y-89854326D01*
X75902269Y-89854317D01*
X75961139Y-89634610D01*
X75961141Y-89634599D01*
X75980966Y-89408002D01*
X75980966Y-89407997D01*
X75961141Y-89181400D01*
X75961139Y-89181389D01*
X75902269Y-88961682D01*
X75902265Y-88961673D01*
X75806134Y-88755518D01*
X75806133Y-88755516D01*
X75784146Y-88724116D01*
X75784145Y-88724115D01*
X75237286Y-89270975D01*
X75175963Y-89304460D01*
X75106271Y-89299476D01*
X75050338Y-89257604D01*
X75039122Y-89239591D01*
X75003641Y-89169955D01*
X75003638Y-89169952D01*
X75003636Y-89169949D01*
X74914050Y-89080363D01*
X74914047Y-89080361D01*
X74914045Y-89080359D01*
X74844408Y-89044877D01*
X74793613Y-88996903D01*
X74776818Y-88929082D01*
X74799356Y-88862947D01*
X74813023Y-88846712D01*
X75359883Y-88299851D01*
X75328485Y-88277867D01*
X75122326Y-88181734D01*
X75122317Y-88181730D01*
X74902610Y-88122860D01*
X74902599Y-88122858D01*
X74676002Y-88103034D01*
X74675998Y-88103034D01*
X74449400Y-88122858D01*
X74449389Y-88122860D01*
X74229682Y-88181730D01*
X74229673Y-88181734D01*
X74023514Y-88277867D01*
X73992115Y-88299851D01*
X74538976Y-88846712D01*
X74572461Y-88908035D01*
X74567477Y-88977727D01*
X74525605Y-89033660D01*
X74507591Y-89044877D01*
X74437956Y-89080358D01*
X74437949Y-89080363D01*
X74348363Y-89169949D01*
X74348358Y-89169956D01*
X74312877Y-89239591D01*
X74264903Y-89290386D01*
X74197081Y-89307181D01*
X74130947Y-89284643D01*
X74114712Y-89270976D01*
X73567851Y-88724115D01*
X73545867Y-88755514D01*
X73449734Y-88961673D01*
X73449731Y-88961679D01*
X73430093Y-89034972D01*
X73393728Y-89094632D01*
X73330881Y-89125161D01*
X73261505Y-89116866D01*
X73222637Y-89090559D01*
X71956819Y-87824741D01*
X71923334Y-87763418D01*
X71920500Y-87737060D01*
X71920500Y-86434048D01*
X71940185Y-86367009D01*
X71956819Y-86346366D01*
X71959135Y-86344049D01*
X71959139Y-86344047D01*
X72120047Y-86183139D01*
X72250568Y-85996734D01*
X72346739Y-85790496D01*
X72405635Y-85570692D01*
X72425468Y-85344000D01*
X72405635Y-85117308D01*
X72346739Y-84897504D01*
X72250568Y-84691266D01*
X72120047Y-84504861D01*
X72120045Y-84504858D01*
X71959141Y-84343954D01*
X71772734Y-84213432D01*
X71772732Y-84213431D01*
X71742857Y-84199500D01*
X71714132Y-84186105D01*
X71661694Y-84139934D01*
X71642542Y-84072740D01*
X71662758Y-84005859D01*
X71714134Y-83961341D01*
X71772484Y-83934132D01*
X71958820Y-83803657D01*
X72119657Y-83642820D01*
X72250134Y-83456482D01*
X72346265Y-83250326D01*
X72346268Y-83250320D01*
X72385475Y-83104000D01*
X71618423Y-83104000D01*
X71551384Y-83084315D01*
X71505629Y-83031511D01*
X71495685Y-82962353D01*
X71503165Y-82938755D01*
X71502150Y-82938426D01*
X71505163Y-82929151D01*
X71505165Y-82929148D01*
X71505166Y-82929143D01*
X71524986Y-82804003D01*
X71524986Y-82803996D01*
X71505166Y-82678856D01*
X71502150Y-82669574D01*
X71504997Y-82668648D01*
X71495043Y-82615611D01*
X71521328Y-82550874D01*
X71578439Y-82510623D01*
X71618423Y-82504000D01*
X72385475Y-82504000D01*
X72385474Y-82503999D01*
X72346268Y-82357679D01*
X72346265Y-82357673D01*
X72250134Y-82151517D01*
X72119657Y-81965179D01*
X71958820Y-81804342D01*
X71772482Y-81673865D01*
X71714133Y-81646657D01*
X71661694Y-81600484D01*
X71642542Y-81533291D01*
X71662758Y-81466410D01*
X71714129Y-81421895D01*
X71772734Y-81394568D01*
X71959139Y-81264047D01*
X72120047Y-81103139D01*
X72250568Y-80916734D01*
X72346739Y-80710496D01*
X72405635Y-80490692D01*
X72425468Y-80264000D01*
X72405635Y-80037308D01*
X72346739Y-79817504D01*
X72250568Y-79611266D01*
X72144620Y-79459955D01*
X72120045Y-79424858D01*
X71959141Y-79263954D01*
X71772734Y-79133432D01*
X71772728Y-79133429D01*
X71714725Y-79106382D01*
X71662285Y-79060210D01*
X71643133Y-78993017D01*
X71663348Y-78926135D01*
X71714725Y-78881618D01*
X71715319Y-78881341D01*
X71772734Y-78854568D01*
X71959139Y-78724047D01*
X72120047Y-78563139D01*
X72250568Y-78376734D01*
X72346739Y-78170496D01*
X72405635Y-77950692D01*
X72425468Y-77724000D01*
X72425193Y-77720861D01*
X72414373Y-77597189D01*
X72405635Y-77497308D01*
X72346739Y-77277504D01*
X72250568Y-77071266D01*
X72120047Y-76884861D01*
X72120045Y-76884858D01*
X71959141Y-76723954D01*
X71772734Y-76593432D01*
X71772732Y-76593431D01*
X71720271Y-76568968D01*
X71714132Y-76566105D01*
X71661694Y-76519934D01*
X71642542Y-76452740D01*
X71662758Y-76385859D01*
X71714134Y-76341341D01*
X71772484Y-76314132D01*
X71958820Y-76183657D01*
X72119657Y-76022820D01*
X72250134Y-75836482D01*
X72346265Y-75630326D01*
X72346268Y-75630320D01*
X72385475Y-75484000D01*
X71618423Y-75484000D01*
X71551384Y-75464315D01*
X71505629Y-75411511D01*
X71495685Y-75342353D01*
X71503165Y-75318755D01*
X71502150Y-75318426D01*
X71505163Y-75309151D01*
X71505165Y-75309148D01*
X71506472Y-75300896D01*
X71524986Y-75184003D01*
X71524986Y-75183996D01*
X71505166Y-75058856D01*
X71502150Y-75049574D01*
X71504997Y-75048648D01*
X71495043Y-74995611D01*
X71521328Y-74930874D01*
X71578439Y-74890623D01*
X71618423Y-74884000D01*
X72385475Y-74884000D01*
X72385474Y-74883999D01*
X72346268Y-74737679D01*
X72346265Y-74737673D01*
X72250134Y-74531517D01*
X72119657Y-74345179D01*
X71958820Y-74184342D01*
X71772482Y-74053865D01*
X71714133Y-74026657D01*
X71661694Y-73980484D01*
X71642542Y-73913291D01*
X71662758Y-73846410D01*
X71714129Y-73801895D01*
X71772734Y-73774568D01*
X71959139Y-73644047D01*
X72120047Y-73483139D01*
X72250568Y-73296734D01*
X72346739Y-73090496D01*
X72405635Y-72870692D01*
X72425468Y-72644000D01*
X72423925Y-72626368D01*
X72416049Y-72536337D01*
X72405635Y-72417308D01*
X72346739Y-72197504D01*
X72250568Y-71991266D01*
X72120047Y-71804861D01*
X72120045Y-71804858D01*
X71959141Y-71643954D01*
X71772734Y-71513432D01*
X71772728Y-71513429D01*
X71714725Y-71486382D01*
X71662285Y-71440210D01*
X71643133Y-71373017D01*
X71663348Y-71306135D01*
X71714725Y-71261618D01*
X71715319Y-71261341D01*
X71772734Y-71234568D01*
X71959139Y-71104047D01*
X72120047Y-70943139D01*
X72250568Y-70756734D01*
X72346739Y-70550496D01*
X72405635Y-70330692D01*
X72422661Y-70136087D01*
X72425468Y-70104001D01*
X72425468Y-70103998D01*
X72413133Y-69963014D01*
X72405635Y-69877308D01*
X72346739Y-69657504D01*
X72250568Y-69451266D01*
X72120047Y-69264861D01*
X72120045Y-69264858D01*
X71959141Y-69103954D01*
X71772734Y-68973432D01*
X71772732Y-68973431D01*
X71566497Y-68877261D01*
X71566488Y-68877258D01*
X71346697Y-68818366D01*
X71346693Y-68818365D01*
X71346692Y-68818365D01*
X71346691Y-68818364D01*
X71346686Y-68818364D01*
X71120002Y-68798532D01*
X71119998Y-68798532D01*
X70893313Y-68818364D01*
X70893302Y-68818366D01*
X70673511Y-68877258D01*
X70673502Y-68877261D01*
X70467267Y-68973431D01*
X70467265Y-68973432D01*
X70280858Y-69103954D01*
X70119954Y-69264858D01*
X69989432Y-69451265D01*
X69989431Y-69451267D01*
X69893261Y-69657502D01*
X69893258Y-69657511D01*
X69834366Y-69877302D01*
X69834364Y-69877313D01*
X69814532Y-70103998D01*
X69814532Y-70104001D01*
X69834364Y-70330686D01*
X69834366Y-70330697D01*
X69893258Y-70550488D01*
X69893261Y-70550497D01*
X69989431Y-70756732D01*
X69989432Y-70756734D01*
X70119954Y-70943141D01*
X70280858Y-71104045D01*
X70280861Y-71104047D01*
X70467266Y-71234568D01*
X70524681Y-71261341D01*
X70525275Y-71261618D01*
X70577714Y-71307791D01*
X70596866Y-71374984D01*
X70576650Y-71441865D01*
X70525275Y-71486382D01*
X70467267Y-71513431D01*
X70467265Y-71513432D01*
X70280858Y-71643954D01*
X70119954Y-71804858D01*
X69989432Y-71991265D01*
X69989431Y-71991267D01*
X69893261Y-72197502D01*
X69893258Y-72197511D01*
X69834366Y-72417302D01*
X69834364Y-72417313D01*
X69814532Y-72643998D01*
X69814532Y-72644001D01*
X69834364Y-72870686D01*
X69834366Y-72870697D01*
X69893258Y-73090488D01*
X69893261Y-73090497D01*
X69989431Y-73296732D01*
X69989432Y-73296734D01*
X70119954Y-73483141D01*
X70280858Y-73644045D01*
X70280861Y-73644047D01*
X70467266Y-73774568D01*
X70525865Y-73801893D01*
X70578305Y-73848065D01*
X70597457Y-73915258D01*
X70577242Y-73982139D01*
X70525867Y-74026657D01*
X70467515Y-74053867D01*
X70281179Y-74184342D01*
X70120342Y-74345179D01*
X69989865Y-74531517D01*
X69893734Y-74737673D01*
X69893731Y-74737679D01*
X69854525Y-74883999D01*
X69854525Y-74884000D01*
X70621577Y-74884000D01*
X70688616Y-74903685D01*
X70734371Y-74956489D01*
X70744315Y-75025647D01*
X70736834Y-75049244D01*
X70737850Y-75049574D01*
X70734833Y-75058856D01*
X70715014Y-75183996D01*
X70715014Y-75184003D01*
X70734833Y-75309143D01*
X70737850Y-75318426D01*
X70735002Y-75319351D01*
X70744957Y-75372389D01*
X70718672Y-75437126D01*
X70661561Y-75477377D01*
X70621577Y-75484000D01*
X69854525Y-75484000D01*
X69893731Y-75630320D01*
X69893734Y-75630326D01*
X69989865Y-75836482D01*
X70120342Y-76022820D01*
X70281179Y-76183657D01*
X70467518Y-76314134D01*
X70467520Y-76314135D01*
X70525865Y-76341342D01*
X70578305Y-76387514D01*
X70597457Y-76454707D01*
X70577242Y-76521589D01*
X70525867Y-76566105D01*
X70467545Y-76593302D01*
X70467264Y-76593433D01*
X70280858Y-76723954D01*
X70119954Y-76884858D01*
X69989432Y-77071265D01*
X69989431Y-77071267D01*
X69893261Y-77277502D01*
X69893258Y-77277511D01*
X69834366Y-77497302D01*
X69834364Y-77497313D01*
X69814532Y-77723998D01*
X69814532Y-77724001D01*
X69834364Y-77950686D01*
X69834366Y-77950697D01*
X69893258Y-78170488D01*
X69893261Y-78170497D01*
X69989431Y-78376732D01*
X69989432Y-78376734D01*
X70119954Y-78563141D01*
X70280858Y-78724045D01*
X70280861Y-78724047D01*
X70467266Y-78854568D01*
X70524681Y-78881341D01*
X70525275Y-78881618D01*
X70577714Y-78927791D01*
X70596866Y-78994984D01*
X70576650Y-79061865D01*
X70525275Y-79106382D01*
X70467267Y-79133431D01*
X70467265Y-79133432D01*
X70280858Y-79263954D01*
X70119954Y-79424858D01*
X69989432Y-79611265D01*
X69989431Y-79611267D01*
X69893261Y-79817502D01*
X69893258Y-79817511D01*
X69834366Y-80037302D01*
X69834364Y-80037313D01*
X69814532Y-80263998D01*
X69814532Y-80264001D01*
X69834364Y-80490686D01*
X69834366Y-80490697D01*
X69893258Y-80710488D01*
X69893261Y-80710497D01*
X69989431Y-80916732D01*
X69989432Y-80916734D01*
X70119954Y-81103141D01*
X70280858Y-81264045D01*
X70280861Y-81264047D01*
X70467266Y-81394568D01*
X70525865Y-81421893D01*
X70578305Y-81468065D01*
X70597457Y-81535258D01*
X70577242Y-81602139D01*
X70525867Y-81646657D01*
X70467515Y-81673867D01*
X70281179Y-81804342D01*
X70120342Y-81965179D01*
X69989865Y-82151517D01*
X69893734Y-82357673D01*
X69893731Y-82357679D01*
X69854525Y-82503999D01*
X69854525Y-82504000D01*
X70621577Y-82504000D01*
X70688616Y-82523685D01*
X70734371Y-82576489D01*
X70744315Y-82645647D01*
X70736834Y-82669244D01*
X70737850Y-82669574D01*
X70734833Y-82678856D01*
X70715014Y-82803996D01*
X70715014Y-82804003D01*
X70734833Y-82929143D01*
X70737850Y-82938426D01*
X70735002Y-82939351D01*
X70744957Y-82992389D01*
X70718672Y-83057126D01*
X70661561Y-83097377D01*
X70621577Y-83104000D01*
X69854525Y-83104000D01*
X69893731Y-83250320D01*
X69893734Y-83250326D01*
X69989865Y-83456482D01*
X70120342Y-83642820D01*
X70281179Y-83803657D01*
X70467518Y-83934134D01*
X70467520Y-83934135D01*
X70525865Y-83961342D01*
X70578305Y-84007514D01*
X70597457Y-84074707D01*
X70577242Y-84141589D01*
X70525867Y-84186105D01*
X70497143Y-84199500D01*
X70467264Y-84213433D01*
X70280858Y-84343954D01*
X70119954Y-84504858D01*
X69989432Y-84691265D01*
X69989431Y-84691267D01*
X69893261Y-84897502D01*
X69893258Y-84897511D01*
X69834366Y-85117302D01*
X69834364Y-85117313D01*
X69814532Y-85343998D01*
X69814532Y-85344001D01*
X69834364Y-85570686D01*
X69834366Y-85570697D01*
X69893258Y-85790488D01*
X69893261Y-85790497D01*
X69989431Y-85996732D01*
X69989432Y-85996734D01*
X70119954Y-86183141D01*
X70283181Y-86346368D01*
X70316666Y-86407691D01*
X70319500Y-86434049D01*
X70319500Y-88210191D01*
X70319501Y-88210200D01*
X70328791Y-88250908D01*
X70329955Y-88257763D01*
X70334632Y-88299259D01*
X70348420Y-88338662D01*
X70350345Y-88345345D01*
X70359639Y-88386061D01*
X70377759Y-88423688D01*
X70380421Y-88430114D01*
X70394212Y-88469525D01*
X70416422Y-88504872D01*
X70419787Y-88510959D01*
X70437910Y-88548589D01*
X70463940Y-88581229D01*
X70467966Y-88586904D01*
X70490182Y-88622259D01*
X70490184Y-88622262D01*
X72263741Y-90395819D01*
X72297226Y-90457142D01*
X72292242Y-90526834D01*
X72250370Y-90582767D01*
X72184906Y-90607184D01*
X72176060Y-90607500D01*
X65207940Y-90607500D01*
X65140901Y-90587815D01*
X65120259Y-90571181D01*
X60566819Y-86017741D01*
X60533334Y-85956418D01*
X60530500Y-85930062D01*
X60530500Y-85899315D01*
X60530500Y-85859688D01*
X60550183Y-85792652D01*
X60583379Y-85758113D01*
X60601401Y-85745495D01*
X60768495Y-85578401D01*
X60878427Y-85421400D01*
X60933000Y-85377778D01*
X61002498Y-85370584D01*
X61064853Y-85402106D01*
X61081574Y-85421403D01*
X61191505Y-85578402D01*
X61281526Y-85668422D01*
X61358599Y-85745495D01*
X61437153Y-85800499D01*
X61552165Y-85881032D01*
X61552167Y-85881033D01*
X61552170Y-85881035D01*
X61766337Y-85980903D01*
X61766343Y-85980904D01*
X61766344Y-85980905D01*
X61805356Y-85991358D01*
X61994592Y-86042063D01*
X62182918Y-86058539D01*
X62229999Y-86062659D01*
X62230000Y-86062659D01*
X62230001Y-86062659D01*
X62269234Y-86059226D01*
X62465408Y-86042063D01*
X62693663Y-85980903D01*
X62907829Y-85881035D01*
X62966472Y-85839972D01*
X63032676Y-85817645D01*
X63100444Y-85834654D01*
X63125275Y-85853865D01*
X64450548Y-87179139D01*
X65756586Y-88485177D01*
X65790071Y-88546500D01*
X65788680Y-88604949D01*
X65770367Y-88673296D01*
X65770364Y-88673313D01*
X65750532Y-88899999D01*
X65750532Y-88900001D01*
X65770364Y-89126686D01*
X65770366Y-89126697D01*
X65829258Y-89346488D01*
X65829261Y-89346497D01*
X65925431Y-89552732D01*
X65925432Y-89552734D01*
X66055954Y-89739141D01*
X66216858Y-89900045D01*
X66216861Y-89900047D01*
X66403266Y-90030568D01*
X66609504Y-90126739D01*
X66829308Y-90185635D01*
X66991230Y-90199801D01*
X67055998Y-90205468D01*
X67056000Y-90205468D01*
X67056002Y-90205468D01*
X67112673Y-90200509D01*
X67282692Y-90185635D01*
X67502496Y-90126739D01*
X67708734Y-90030568D01*
X67895139Y-89900047D01*
X68056047Y-89739139D01*
X68186568Y-89552734D01*
X68282739Y-89346496D01*
X68341635Y-89126692D01*
X68361468Y-88900000D01*
X68341635Y-88673308D01*
X68282739Y-88453504D01*
X68186568Y-88247266D01*
X68056047Y-88060861D01*
X68056045Y-88060858D01*
X67895141Y-87899954D01*
X67708734Y-87769432D01*
X67708732Y-87769431D01*
X67502497Y-87673261D01*
X67502488Y-87673258D01*
X67282697Y-87614366D01*
X67282693Y-87614365D01*
X67282692Y-87614365D01*
X67282691Y-87614364D01*
X67282686Y-87614364D01*
X67056002Y-87594532D01*
X67055999Y-87594532D01*
X66829313Y-87614364D01*
X66829296Y-87614367D01*
X66760949Y-87632680D01*
X66691099Y-87631016D01*
X66641177Y-87600586D01*
X63616819Y-84576228D01*
X63583334Y-84514905D01*
X63580500Y-84488547D01*
X63580500Y-84398034D01*
X63576690Y-84354489D01*
X63565063Y-84221592D01*
X63503903Y-83993337D01*
X63404035Y-83779171D01*
X63399934Y-83773313D01*
X63268494Y-83585597D01*
X63101402Y-83418506D01*
X63101395Y-83418501D01*
X62907834Y-83282967D01*
X62907830Y-83282965D01*
X62838183Y-83250488D01*
X62693663Y-83183097D01*
X62693659Y-83183096D01*
X62693655Y-83183094D01*
X62465413Y-83121938D01*
X62465403Y-83121936D01*
X62230001Y-83101341D01*
X62229999Y-83101341D01*
X61994596Y-83121936D01*
X61994586Y-83121938D01*
X61766344Y-83183094D01*
X61766335Y-83183098D01*
X61552171Y-83282964D01*
X61552169Y-83282965D01*
X61358597Y-83418505D01*
X61191505Y-83585597D01*
X61081575Y-83742595D01*
X61026998Y-83786220D01*
X60957500Y-83793414D01*
X60895145Y-83761891D01*
X60878425Y-83742595D01*
X60768494Y-83585597D01*
X60601404Y-83418508D01*
X60601402Y-83418506D01*
X60601401Y-83418505D01*
X60583374Y-83405882D01*
X60539751Y-83351306D01*
X60530500Y-83304309D01*
X60530500Y-81280001D01*
X65750532Y-81280001D01*
X65770364Y-81506686D01*
X65770366Y-81506697D01*
X65829258Y-81726488D01*
X65829261Y-81726497D01*
X65925431Y-81932732D01*
X65925432Y-81932734D01*
X66055954Y-82119141D01*
X66216858Y-82280045D01*
X66216861Y-82280047D01*
X66403266Y-82410568D01*
X66609504Y-82506739D01*
X66829308Y-82565635D01*
X66991230Y-82579801D01*
X67055998Y-82585468D01*
X67056000Y-82585468D01*
X67056002Y-82585468D01*
X67112673Y-82580509D01*
X67282692Y-82565635D01*
X67502496Y-82506739D01*
X67708734Y-82410568D01*
X67895139Y-82280047D01*
X68056047Y-82119139D01*
X68186568Y-81932734D01*
X68282739Y-81726496D01*
X68341635Y-81506692D01*
X68361468Y-81280000D01*
X68360119Y-81264586D01*
X68345995Y-81103141D01*
X68341635Y-81053308D01*
X68282739Y-80833504D01*
X68186568Y-80627266D01*
X68056047Y-80440861D01*
X68056045Y-80440858D01*
X67895141Y-80279954D01*
X67708734Y-80149432D01*
X67708732Y-80149431D01*
X67502497Y-80053261D01*
X67502488Y-80053258D01*
X67282697Y-79994366D01*
X67282693Y-79994365D01*
X67282692Y-79994365D01*
X67282691Y-79994364D01*
X67282686Y-79994364D01*
X67056002Y-79974532D01*
X67055998Y-79974532D01*
X66829313Y-79994364D01*
X66829302Y-79994366D01*
X66609511Y-80053258D01*
X66609502Y-80053261D01*
X66403267Y-80149431D01*
X66403265Y-80149432D01*
X66216858Y-80279954D01*
X66055954Y-80440858D01*
X65925432Y-80627265D01*
X65925431Y-80627267D01*
X65829261Y-80833502D01*
X65829258Y-80833511D01*
X65770366Y-81053302D01*
X65770364Y-81053313D01*
X65750532Y-81279998D01*
X65750532Y-81280001D01*
X60530500Y-81280001D01*
X60530500Y-73921690D01*
X60550185Y-73854651D01*
X60583375Y-73820116D01*
X60601401Y-73807495D01*
X60768495Y-73640401D01*
X60878426Y-73483401D01*
X60933001Y-73439778D01*
X61002500Y-73432584D01*
X61064855Y-73464106D01*
X61081571Y-73483398D01*
X61103311Y-73514446D01*
X61191506Y-73640403D01*
X61325670Y-73774566D01*
X61358599Y-73807495D01*
X61448921Y-73870739D01*
X61552165Y-73943032D01*
X61552167Y-73943033D01*
X61552170Y-73943035D01*
X61766337Y-74042903D01*
X61766343Y-74042904D01*
X61766344Y-74042905D01*
X61805632Y-74053432D01*
X61994592Y-74104063D01*
X62182918Y-74120539D01*
X62229999Y-74124659D01*
X62230000Y-74124659D01*
X62230001Y-74124659D01*
X62269234Y-74121226D01*
X62465408Y-74104063D01*
X62693663Y-74042903D01*
X62822740Y-73982712D01*
X62891815Y-73972221D01*
X62955599Y-74000740D01*
X62962823Y-74007413D01*
X64366095Y-75410686D01*
X65756586Y-76801177D01*
X65790071Y-76862500D01*
X65788680Y-76920949D01*
X65770367Y-76989296D01*
X65770364Y-76989313D01*
X65750532Y-77215999D01*
X65750532Y-77216001D01*
X65770364Y-77442686D01*
X65770366Y-77442697D01*
X65829258Y-77662488D01*
X65829261Y-77662497D01*
X65925431Y-77868732D01*
X65925432Y-77868734D01*
X66055954Y-78055141D01*
X66216858Y-78216045D01*
X66216861Y-78216047D01*
X66403266Y-78346568D01*
X66609504Y-78442739D01*
X66829308Y-78501635D01*
X66985728Y-78515320D01*
X67055998Y-78521468D01*
X67056000Y-78521468D01*
X67056002Y-78521468D01*
X67124157Y-78515505D01*
X67282692Y-78501635D01*
X67502496Y-78442739D01*
X67708734Y-78346568D01*
X67895139Y-78216047D01*
X68056047Y-78055139D01*
X68186568Y-77868734D01*
X68282739Y-77662496D01*
X68341635Y-77442692D01*
X68361468Y-77216000D01*
X68361018Y-77210862D01*
X68341635Y-76989313D01*
X68341635Y-76989308D01*
X68285953Y-76781500D01*
X68282741Y-76769511D01*
X68282738Y-76769502D01*
X68264318Y-76730000D01*
X68186568Y-76563266D01*
X68056047Y-76376861D01*
X68056045Y-76376858D01*
X67895141Y-76215954D01*
X67708734Y-76085432D01*
X67708732Y-76085431D01*
X67502497Y-75989261D01*
X67502488Y-75989258D01*
X67282697Y-75930366D01*
X67282693Y-75930365D01*
X67282692Y-75930365D01*
X67282691Y-75930364D01*
X67282686Y-75930364D01*
X67056002Y-75910532D01*
X67055999Y-75910532D01*
X66829313Y-75930364D01*
X66829296Y-75930367D01*
X66760949Y-75948680D01*
X66691099Y-75947016D01*
X66641177Y-75916586D01*
X63616819Y-72892228D01*
X63583334Y-72830905D01*
X63580500Y-72804547D01*
X63580500Y-72460034D01*
X63576690Y-72416489D01*
X63565063Y-72283592D01*
X63503903Y-72055337D01*
X63404035Y-71841171D01*
X63403050Y-71839763D01*
X63268494Y-71647597D01*
X63101402Y-71480506D01*
X63101395Y-71480501D01*
X62907834Y-71344967D01*
X62907830Y-71344965D01*
X62894034Y-71338532D01*
X62693663Y-71245097D01*
X62693659Y-71245096D01*
X62693655Y-71245094D01*
X62465413Y-71183938D01*
X62465403Y-71183936D01*
X62230001Y-71163341D01*
X62229999Y-71163341D01*
X61994596Y-71183936D01*
X61994586Y-71183938D01*
X61766344Y-71245094D01*
X61766335Y-71245098D01*
X61552171Y-71344964D01*
X61552169Y-71344965D01*
X61358597Y-71480505D01*
X61191505Y-71647597D01*
X61081575Y-71804595D01*
X61026998Y-71848220D01*
X60957500Y-71855414D01*
X60895145Y-71823891D01*
X60878425Y-71804595D01*
X60768494Y-71647597D01*
X60601402Y-71480506D01*
X60601395Y-71480501D01*
X60407834Y-71344967D01*
X60407830Y-71344965D01*
X60394034Y-71338532D01*
X60193663Y-71245097D01*
X60193659Y-71245096D01*
X60193655Y-71245094D01*
X59965413Y-71183938D01*
X59965403Y-71183936D01*
X59730001Y-71163341D01*
X59729999Y-71163341D01*
X59494596Y-71183936D01*
X59494586Y-71183938D01*
X59266344Y-71245094D01*
X59266335Y-71245098D01*
X59052171Y-71344964D01*
X59052169Y-71344965D01*
X58858597Y-71480505D01*
X58711035Y-71628068D01*
X58649712Y-71661553D01*
X58580020Y-71656569D01*
X58524087Y-71614697D01*
X58517815Y-71605484D01*
X58422315Y-71450654D01*
X58298345Y-71326684D01*
X58149124Y-71234643D01*
X58149119Y-71234641D01*
X57982697Y-71179494D01*
X57982690Y-71179493D01*
X57879986Y-71169000D01*
X57530000Y-71169000D01*
X57530000Y-72066298D01*
X57510315Y-72133337D01*
X57457511Y-72179092D01*
X57388353Y-72189036D01*
X57371072Y-72185277D01*
X57365204Y-72183554D01*
X57280845Y-72171425D01*
X57263975Y-72169000D01*
X57196025Y-72169000D01*
X57094795Y-72183554D01*
X57088928Y-72185277D01*
X57019058Y-72185273D01*
X56960282Y-72147495D01*
X56931261Y-72083938D01*
X56930000Y-72066298D01*
X56930000Y-71169000D01*
X56580028Y-71169000D01*
X56580012Y-71169001D01*
X56477302Y-71179494D01*
X56310880Y-71234641D01*
X56310875Y-71234643D01*
X56161654Y-71326684D01*
X56037684Y-71450654D01*
X55945643Y-71599875D01*
X55945641Y-71599880D01*
X55890494Y-71766302D01*
X55890493Y-71766309D01*
X55880000Y-71869013D01*
X55880000Y-72344000D01*
X56657390Y-72344000D01*
X56724429Y-72363685D01*
X56770184Y-72416489D01*
X56780128Y-72485647D01*
X56776367Y-72502933D01*
X56755000Y-72575705D01*
X56755000Y-72712295D01*
X56776138Y-72784287D01*
X56776367Y-72785065D01*
X56776367Y-72854935D01*
X56738593Y-72913713D01*
X56675037Y-72942738D01*
X56657390Y-72944000D01*
X55880001Y-72944000D01*
X55880001Y-73418986D01*
X55890494Y-73521697D01*
X55945641Y-73688119D01*
X55945643Y-73688124D01*
X56037684Y-73837345D01*
X56161654Y-73961315D01*
X56310875Y-74053356D01*
X56310880Y-74053358D01*
X56477302Y-74108505D01*
X56477309Y-74108506D01*
X56580019Y-74118999D01*
X56929999Y-74118999D01*
X56930000Y-74118998D01*
X56930000Y-73221701D01*
X56949685Y-73154662D01*
X57002489Y-73108907D01*
X57071647Y-73098963D01*
X57088936Y-73102724D01*
X57094800Y-73104446D01*
X57094801Y-73104446D01*
X57196025Y-73119000D01*
X57196026Y-73119000D01*
X57263974Y-73119000D01*
X57263975Y-73119000D01*
X57365199Y-73104446D01*
X57365200Y-73104445D01*
X57371064Y-73102724D01*
X57440934Y-73102724D01*
X57499712Y-73140498D01*
X57528738Y-73204053D01*
X57530000Y-73221701D01*
X57530000Y-74118999D01*
X57879972Y-74118999D01*
X57879986Y-74118998D01*
X57982697Y-74108505D01*
X58149119Y-74053358D01*
X58149124Y-74053356D01*
X58298345Y-73961315D01*
X58422315Y-73837345D01*
X58517815Y-73682516D01*
X58569763Y-73635792D01*
X58638726Y-73624569D01*
X58702808Y-73652413D01*
X58711035Y-73659932D01*
X58858594Y-73807491D01*
X58858597Y-73807493D01*
X58858599Y-73807495D01*
X58876622Y-73820115D01*
X58920247Y-73874689D01*
X58929500Y-73921690D01*
X58929500Y-83304309D01*
X58909815Y-83371348D01*
X58876625Y-83405883D01*
X58858601Y-83418503D01*
X58711035Y-83566069D01*
X58649712Y-83599553D01*
X58580020Y-83594569D01*
X58524087Y-83552697D01*
X58517815Y-83543484D01*
X58422315Y-83388654D01*
X58298345Y-83264684D01*
X58149124Y-83172643D01*
X58149119Y-83172641D01*
X57982697Y-83117494D01*
X57982690Y-83117493D01*
X57879986Y-83107000D01*
X57530000Y-83107000D01*
X57530000Y-84004298D01*
X57510315Y-84071337D01*
X57457511Y-84117092D01*
X57388353Y-84127036D01*
X57371072Y-84123277D01*
X57365204Y-84121554D01*
X57280845Y-84109425D01*
X57263975Y-84107000D01*
X57196025Y-84107000D01*
X57094795Y-84121554D01*
X57088928Y-84123277D01*
X57019058Y-84123273D01*
X56960282Y-84085495D01*
X56931261Y-84021938D01*
X56930000Y-84004298D01*
X56930000Y-83107000D01*
X56580028Y-83107000D01*
X56580012Y-83107001D01*
X56477302Y-83117494D01*
X56310880Y-83172641D01*
X56310875Y-83172643D01*
X56161654Y-83264684D01*
X56037684Y-83388654D01*
X55945643Y-83537875D01*
X55945641Y-83537880D01*
X55890494Y-83704302D01*
X55890493Y-83704309D01*
X55880000Y-83807013D01*
X55880000Y-84282000D01*
X56657390Y-84282000D01*
X56724429Y-84301685D01*
X56770184Y-84354489D01*
X56780128Y-84423647D01*
X56776367Y-84440935D01*
X56755000Y-84513704D01*
X56755000Y-84650295D01*
X56776367Y-84723065D01*
X56776367Y-84792935D01*
X56738593Y-84851713D01*
X56675037Y-84880738D01*
X56657390Y-84882000D01*
X55880001Y-84882000D01*
X55880001Y-85356986D01*
X55890494Y-85459697D01*
X55945641Y-85626119D01*
X55945643Y-85626124D01*
X56037684Y-85775345D01*
X56161654Y-85899315D01*
X56310875Y-85991356D01*
X56310880Y-85991358D01*
X56477302Y-86046505D01*
X56477309Y-86046506D01*
X56580019Y-86056999D01*
X56929999Y-86056999D01*
X56930000Y-86056998D01*
X56930000Y-85159701D01*
X56949685Y-85092662D01*
X57002489Y-85046907D01*
X57071647Y-85036963D01*
X57088936Y-85040724D01*
X57094800Y-85042446D01*
X57094801Y-85042446D01*
X57196025Y-85057000D01*
X57196026Y-85057000D01*
X57263974Y-85057000D01*
X57263975Y-85057000D01*
X57365199Y-85042446D01*
X57365200Y-85042445D01*
X57371064Y-85040724D01*
X57440934Y-85040724D01*
X57499712Y-85078498D01*
X57528738Y-85142053D01*
X57530000Y-85159701D01*
X57530000Y-86056999D01*
X57879972Y-86056999D01*
X57879986Y-86056998D01*
X57982697Y-86046505D01*
X58149119Y-85991358D01*
X58149124Y-85991356D01*
X58298345Y-85899315D01*
X58422315Y-85775345D01*
X58517815Y-85620516D01*
X58569763Y-85573792D01*
X58638726Y-85562569D01*
X58702808Y-85590413D01*
X58711035Y-85597932D01*
X58858594Y-85745491D01*
X58858597Y-85745493D01*
X58858599Y-85745495D01*
X58876622Y-85758115D01*
X58920247Y-85812689D01*
X58929500Y-85859690D01*
X58929500Y-86403191D01*
X58929501Y-86403200D01*
X58938791Y-86443908D01*
X58939955Y-86450763D01*
X58944632Y-86492259D01*
X58958420Y-86531662D01*
X58960345Y-86538345D01*
X58969639Y-86579061D01*
X58987759Y-86616688D01*
X58990421Y-86623114D01*
X59004212Y-86662525D01*
X59026422Y-86697872D01*
X59029787Y-86703959D01*
X59047910Y-86741589D01*
X59073940Y-86774229D01*
X59077966Y-86779904D01*
X59100182Y-86815259D01*
X59100184Y-86815262D01*
X63605240Y-91320318D01*
X63638725Y-91381641D01*
X63633741Y-91451333D01*
X63605240Y-91495680D01*
X60089043Y-95011877D01*
X60027720Y-95045362D01*
X59969280Y-95043974D01*
X59965409Y-95042937D01*
X59730001Y-95022341D01*
X59729999Y-95022341D01*
X59494596Y-95042936D01*
X59494586Y-95042938D01*
X59266344Y-95104094D01*
X59266335Y-95104098D01*
X59052171Y-95203964D01*
X59052169Y-95203965D01*
X58858597Y-95339505D01*
X58711035Y-95487068D01*
X58649712Y-95520553D01*
X58580020Y-95515569D01*
X58524087Y-95473697D01*
X58517815Y-95464484D01*
X58422315Y-95309654D01*
X58298345Y-95185684D01*
X58149124Y-95093643D01*
X58149119Y-95093641D01*
X57982697Y-95038494D01*
X57982690Y-95038493D01*
X57879986Y-95028000D01*
X57530000Y-95028000D01*
X57530000Y-95925298D01*
X57510315Y-95992337D01*
X57457511Y-96038092D01*
X57388353Y-96048036D01*
X57371072Y-96044277D01*
X57365204Y-96042554D01*
X57269323Y-96028769D01*
X57263975Y-96028000D01*
X57196025Y-96028000D01*
X57094795Y-96042554D01*
X57088928Y-96044277D01*
X57019058Y-96044273D01*
X56960282Y-96006495D01*
X56931261Y-95942938D01*
X56930000Y-95925298D01*
X56930000Y-95028000D01*
X56580028Y-95028000D01*
X56580012Y-95028001D01*
X56477302Y-95038494D01*
X56310880Y-95093641D01*
X56310875Y-95093643D01*
X56161654Y-95185684D01*
X56037684Y-95309654D01*
X55945643Y-95458875D01*
X55945641Y-95458880D01*
X55890494Y-95625302D01*
X55890493Y-95625309D01*
X55880000Y-95728013D01*
X55880000Y-96203000D01*
X56657390Y-96203000D01*
X56724429Y-96222685D01*
X56770184Y-96275489D01*
X56780128Y-96344647D01*
X56776367Y-96361933D01*
X56755000Y-96434705D01*
X56755000Y-96571295D01*
X56775150Y-96639922D01*
X56776367Y-96644065D01*
X56776367Y-96713935D01*
X56738593Y-96772713D01*
X56675037Y-96801738D01*
X56657390Y-96803000D01*
X55880001Y-96803000D01*
X55880001Y-97277986D01*
X55890494Y-97380697D01*
X55945641Y-97547119D01*
X55945643Y-97547124D01*
X56037684Y-97696345D01*
X56161654Y-97820315D01*
X56310875Y-97912356D01*
X56310880Y-97912358D01*
X56477302Y-97967505D01*
X56477309Y-97967506D01*
X56580019Y-97977999D01*
X56929999Y-97977999D01*
X56930000Y-97977998D01*
X56930000Y-97080701D01*
X56949685Y-97013662D01*
X57002489Y-96967907D01*
X57071647Y-96957963D01*
X57088936Y-96961724D01*
X57094800Y-96963446D01*
X57094801Y-96963446D01*
X57196025Y-96978000D01*
X57196026Y-96978000D01*
X57263974Y-96978000D01*
X57263975Y-96978000D01*
X57365199Y-96963446D01*
X57365200Y-96963445D01*
X57371064Y-96961724D01*
X57440934Y-96961724D01*
X57499712Y-96999498D01*
X57528738Y-97063053D01*
X57530000Y-97080701D01*
X57530000Y-97977999D01*
X57879972Y-97977999D01*
X57879986Y-97977998D01*
X57982697Y-97967505D01*
X58149119Y-97912358D01*
X58149124Y-97912356D01*
X58298345Y-97820315D01*
X58422315Y-97696345D01*
X58517815Y-97541516D01*
X58569763Y-97494792D01*
X58638726Y-97483569D01*
X58702808Y-97511413D01*
X58711034Y-97518930D01*
X58858599Y-97666495D01*
X58858602Y-97666497D01*
X58858603Y-97666498D01*
X59052165Y-97802032D01*
X59052167Y-97802033D01*
X59052170Y-97802035D01*
X59266337Y-97901903D01*
X59266343Y-97901904D01*
X59266344Y-97901905D01*
X59305356Y-97912358D01*
X59494592Y-97963063D01*
X59682918Y-97979539D01*
X59729999Y-97983659D01*
X59730000Y-97983659D01*
X59730001Y-97983659D01*
X59769234Y-97980226D01*
X59965408Y-97963063D01*
X60193663Y-97901903D01*
X60407829Y-97802035D01*
X60601401Y-97666495D01*
X60768495Y-97499401D01*
X60878426Y-97342401D01*
X60933001Y-97298778D01*
X61002500Y-97291584D01*
X61064855Y-97323106D01*
X61081571Y-97342398D01*
X61137797Y-97422697D01*
X61191506Y-97499403D01*
X61275620Y-97583516D01*
X61358599Y-97666495D01*
X61444636Y-97726739D01*
X61552165Y-97802032D01*
X61552167Y-97802033D01*
X61552170Y-97802035D01*
X61766337Y-97901903D01*
X61766343Y-97901904D01*
X61766344Y-97901905D01*
X61805356Y-97912358D01*
X61994592Y-97963063D01*
X62182918Y-97979539D01*
X62229999Y-97983659D01*
X62230000Y-97983659D01*
X62230001Y-97983659D01*
X62269234Y-97980226D01*
X62465408Y-97963063D01*
X62693663Y-97901903D01*
X62907829Y-97802035D01*
X63058771Y-97696345D01*
X63105836Y-97663390D01*
X63107525Y-97665803D01*
X63159653Y-97642158D01*
X63228786Y-97652277D01*
X63264669Y-97677259D01*
X65756586Y-100169176D01*
X65790071Y-100230499D01*
X65788681Y-100288948D01*
X65770365Y-100357307D01*
X65770364Y-100357313D01*
X65750532Y-100583999D01*
X65750532Y-100584001D01*
X65770364Y-100810686D01*
X65770366Y-100810697D01*
X65829258Y-101030488D01*
X65829261Y-101030497D01*
X65925431Y-101236732D01*
X65925432Y-101236734D01*
X66055954Y-101423141D01*
X66216858Y-101584045D01*
X66216861Y-101584047D01*
X66403266Y-101714568D01*
X66609504Y-101810739D01*
X66829308Y-101869635D01*
X66991230Y-101883801D01*
X67055998Y-101889468D01*
X67056000Y-101889468D01*
X67056002Y-101889468D01*
X67112672Y-101884509D01*
X67282692Y-101869635D01*
X67502496Y-101810739D01*
X67708734Y-101714568D01*
X67895139Y-101584047D01*
X68056047Y-101423139D01*
X68186568Y-101236734D01*
X68282739Y-101030496D01*
X68341635Y-100810692D01*
X68361468Y-100584000D01*
X68361437Y-100583650D01*
X68349695Y-100449431D01*
X68341635Y-100357308D01*
X68282739Y-100137504D01*
X68186568Y-99931266D01*
X68056047Y-99744861D01*
X68056045Y-99744858D01*
X67895141Y-99583954D01*
X67708734Y-99453432D01*
X67708732Y-99453431D01*
X67502497Y-99357261D01*
X67502488Y-99357258D01*
X67282697Y-99298366D01*
X67282693Y-99298365D01*
X67282692Y-99298365D01*
X67282691Y-99298364D01*
X67282686Y-99298364D01*
X67056002Y-99278532D01*
X67055999Y-99278532D01*
X66829313Y-99298364D01*
X66829296Y-99298367D01*
X66760949Y-99316680D01*
X66691099Y-99315016D01*
X66641177Y-99284586D01*
X63603292Y-96246701D01*
X63588712Y-96220000D01*
X71842000Y-96220000D01*
X72593334Y-96220000D01*
X72660373Y-96239685D01*
X72706128Y-96292489D01*
X72716072Y-96361647D01*
X72712311Y-96378934D01*
X72692000Y-96448107D01*
X72692000Y-96591892D01*
X72712311Y-96661066D01*
X72712311Y-96730936D01*
X72674536Y-96789714D01*
X72610980Y-96818738D01*
X72593334Y-96820000D01*
X71842001Y-96820000D01*
X71842001Y-97319986D01*
X71852494Y-97422697D01*
X71907641Y-97589119D01*
X71907643Y-97589124D01*
X71999684Y-97738345D01*
X72123654Y-97862315D01*
X72272875Y-97954356D01*
X72272880Y-97954358D01*
X72439302Y-98009505D01*
X72439309Y-98009506D01*
X72542019Y-98019999D01*
X72891999Y-98019999D01*
X72892000Y-98019998D01*
X72892000Y-97124024D01*
X72911685Y-97056985D01*
X72964489Y-97011230D01*
X73033647Y-97001286D01*
X73048396Y-97004494D01*
X73049682Y-97004679D01*
X73049685Y-97004680D01*
X73156237Y-97020000D01*
X73156238Y-97020000D01*
X73227762Y-97020000D01*
X73227763Y-97020000D01*
X73323037Y-97006301D01*
X73343094Y-97003418D01*
X73343328Y-97005048D01*
X73402926Y-97005044D01*
X73461707Y-97042815D01*
X73490737Y-97106368D01*
X73492000Y-97124024D01*
X73492000Y-98019999D01*
X73841972Y-98019999D01*
X73841986Y-98019998D01*
X73944697Y-98009505D01*
X74111119Y-97954358D01*
X74111124Y-97954356D01*
X74260345Y-97862315D01*
X74384315Y-97738345D01*
X74479815Y-97583516D01*
X74531763Y-97536792D01*
X74600726Y-97525569D01*
X74664808Y-97553413D01*
X74673034Y-97560930D01*
X74820599Y-97708495D01*
X74820602Y-97708497D01*
X74820603Y-97708498D01*
X75014165Y-97844032D01*
X75014167Y-97844033D01*
X75014170Y-97844035D01*
X75228337Y-97943903D01*
X75228343Y-97943904D01*
X75228344Y-97943905D01*
X75267356Y-97954358D01*
X75456592Y-98005063D01*
X75644918Y-98021539D01*
X75691999Y-98025659D01*
X75692000Y-98025659D01*
X75692001Y-98025659D01*
X75731234Y-98022226D01*
X75927408Y-98005063D01*
X76155663Y-97943903D01*
X76369829Y-97844035D01*
X76563401Y-97708495D01*
X76730495Y-97541401D01*
X76866035Y-97347829D01*
X76965903Y-97133663D01*
X77027063Y-96905408D01*
X77042500Y-96728966D01*
X77042500Y-96311034D01*
X77027063Y-96134592D01*
X76975710Y-95942938D01*
X76965905Y-95906344D01*
X76965904Y-95906343D01*
X76965903Y-95906337D01*
X76866035Y-95692171D01*
X76861534Y-95685742D01*
X76730494Y-95498597D01*
X76563402Y-95331506D01*
X76563395Y-95331501D01*
X76369834Y-95195967D01*
X76369830Y-95195965D01*
X76319509Y-95172500D01*
X76155663Y-95096097D01*
X76155659Y-95096096D01*
X76155655Y-95096094D01*
X75927413Y-95034938D01*
X75927403Y-95034936D01*
X75692001Y-95014341D01*
X75691999Y-95014341D01*
X75456596Y-95034936D01*
X75456586Y-95034938D01*
X75228344Y-95096094D01*
X75228335Y-95096098D01*
X75014171Y-95195964D01*
X75014169Y-95195965D01*
X74820597Y-95331505D01*
X74673035Y-95479068D01*
X74611712Y-95512553D01*
X74542020Y-95507569D01*
X74486087Y-95465697D01*
X74479815Y-95456484D01*
X74384315Y-95301654D01*
X74260345Y-95177684D01*
X74111124Y-95085643D01*
X74111119Y-95085641D01*
X73944697Y-95030494D01*
X73944690Y-95030493D01*
X73841986Y-95020000D01*
X73492000Y-95020000D01*
X73492000Y-95915975D01*
X73472315Y-95983014D01*
X73419511Y-96028769D01*
X73350353Y-96038713D01*
X73335608Y-96035505D01*
X73242519Y-96022121D01*
X73227763Y-96020000D01*
X73156237Y-96020000D01*
X73040906Y-96036582D01*
X73040671Y-96034953D01*
X72981059Y-96034950D01*
X72922283Y-95997173D01*
X72893261Y-95933615D01*
X72892000Y-95915975D01*
X72892000Y-95020000D01*
X72542028Y-95020000D01*
X72542012Y-95020001D01*
X72439302Y-95030494D01*
X72272880Y-95085641D01*
X72272875Y-95085643D01*
X72123654Y-95177684D01*
X71999684Y-95301654D01*
X71907643Y-95450875D01*
X71907641Y-95450880D01*
X71852494Y-95617302D01*
X71852493Y-95617309D01*
X71842000Y-95720013D01*
X71842000Y-96220000D01*
X63588712Y-96220000D01*
X63569807Y-96185378D01*
X63567445Y-96169825D01*
X63566987Y-96164592D01*
X63565063Y-96142592D01*
X63509798Y-95936337D01*
X63503905Y-95914344D01*
X63503904Y-95914343D01*
X63503903Y-95914337D01*
X63404035Y-95700171D01*
X63403916Y-95700000D01*
X63268494Y-95506597D01*
X63101402Y-95339506D01*
X63101395Y-95339501D01*
X62907834Y-95203967D01*
X62907830Y-95203965D01*
X62890672Y-95195964D01*
X62693663Y-95104097D01*
X62693659Y-95104096D01*
X62693655Y-95104094D01*
X62559872Y-95068248D01*
X62500211Y-95031883D01*
X62469682Y-94969036D01*
X62477977Y-94899661D01*
X62504281Y-94860795D01*
X65120258Y-92244819D01*
X65181582Y-92211334D01*
X65207940Y-92208500D01*
X65778712Y-92208500D01*
X65845751Y-92228185D01*
X65891506Y-92280989D01*
X65901450Y-92350147D01*
X65891095Y-92384901D01*
X65871979Y-92425896D01*
X65829261Y-92517502D01*
X65829258Y-92517511D01*
X65770366Y-92737302D01*
X65770364Y-92737313D01*
X65750532Y-92963998D01*
X65750532Y-92964001D01*
X65770364Y-93190686D01*
X65770366Y-93190697D01*
X65829258Y-93410488D01*
X65829261Y-93410497D01*
X65925431Y-93616732D01*
X65925432Y-93616734D01*
X66055954Y-93803141D01*
X66216858Y-93964045D01*
X66216861Y-93964047D01*
X66403266Y-94094568D01*
X66609504Y-94190739D01*
X66829308Y-94249635D01*
X66991230Y-94263801D01*
X67055998Y-94269468D01*
X67056000Y-94269468D01*
X67056002Y-94269468D01*
X67112673Y-94264509D01*
X67282692Y-94249635D01*
X67502496Y-94190739D01*
X67708734Y-94094568D01*
X67895139Y-93964047D01*
X68056047Y-93803139D01*
X68186568Y-93616734D01*
X68282739Y-93410496D01*
X68341635Y-93190692D01*
X68361468Y-92964000D01*
X68341635Y-92737308D01*
X68284878Y-92525488D01*
X68282741Y-92517511D01*
X68282738Y-92517502D01*
X68257178Y-92462689D01*
X68220905Y-92384902D01*
X68210414Y-92315828D01*
X68238933Y-92252044D01*
X68297410Y-92213804D01*
X68333288Y-92208500D01*
X73259023Y-92208500D01*
X73326062Y-92228185D01*
X73371817Y-92280989D01*
X73379266Y-92308134D01*
X73380124Y-92307932D01*
X73381907Y-92315479D01*
X73432202Y-92450328D01*
X73432206Y-92450335D01*
X73518452Y-92565544D01*
X73518455Y-92565547D01*
X73633664Y-92651793D01*
X73633671Y-92651797D01*
X73768517Y-92702091D01*
X73768516Y-92702091D01*
X73775444Y-92702835D01*
X73828127Y-92708500D01*
X75523872Y-92708499D01*
X75583483Y-92702091D01*
X75718331Y-92651796D01*
X75833546Y-92565546D01*
X75919796Y-92450331D01*
X75970091Y-92315483D01*
X75970091Y-92315481D01*
X75971874Y-92307938D01*
X75974146Y-92308474D01*
X75996429Y-92254688D01*
X76053823Y-92214843D01*
X76092976Y-92208500D01*
X77182194Y-92208500D01*
X77222903Y-92199208D01*
X77229760Y-92198043D01*
X77271255Y-92193368D01*
X77310680Y-92179571D01*
X77317321Y-92177658D01*
X77358061Y-92168360D01*
X77395693Y-92150236D01*
X77402105Y-92147580D01*
X77441522Y-92133789D01*
X77476889Y-92111565D01*
X77482961Y-92108209D01*
X77520587Y-92090091D01*
X77553236Y-92064052D01*
X77558895Y-92060037D01*
X77594262Y-92037816D01*
X77721816Y-91910262D01*
X77721816Y-91910261D01*
X81554190Y-88077887D01*
X81615511Y-88044404D01*
X81685203Y-88049388D01*
X81741136Y-88091260D01*
X81765553Y-88156724D01*
X81751315Y-88222171D01*
X81751720Y-88222360D01*
X81750885Y-88224150D01*
X81750701Y-88224997D01*
X81749460Y-88227205D01*
X81653261Y-88433502D01*
X81653258Y-88433511D01*
X81594366Y-88653302D01*
X81594364Y-88653313D01*
X81574532Y-88879998D01*
X81574532Y-88880001D01*
X81594364Y-89106686D01*
X81594366Y-89106697D01*
X81653258Y-89326488D01*
X81653261Y-89326497D01*
X81749431Y-89532732D01*
X81749432Y-89532734D01*
X81879954Y-89719141D01*
X82040858Y-89880045D01*
X82040861Y-89880047D01*
X82227266Y-90010568D01*
X82270154Y-90030567D01*
X82285275Y-90037618D01*
X82337714Y-90083791D01*
X82356866Y-90150984D01*
X82336650Y-90217865D01*
X82285275Y-90262382D01*
X82227267Y-90289431D01*
X82227265Y-90289432D01*
X82040858Y-90419954D01*
X81879954Y-90580858D01*
X81749432Y-90767265D01*
X81749431Y-90767267D01*
X81653261Y-90973502D01*
X81653258Y-90973511D01*
X81594366Y-91193302D01*
X81594364Y-91193313D01*
X81574532Y-91419998D01*
X81574532Y-91420001D01*
X81594364Y-91646686D01*
X81594366Y-91646697D01*
X81653258Y-91866488D01*
X81653261Y-91866497D01*
X81749431Y-92072732D01*
X81749432Y-92072734D01*
X81879954Y-92259141D01*
X82040858Y-92420045D01*
X82040861Y-92420047D01*
X82227266Y-92550568D01*
X82277591Y-92574035D01*
X82285275Y-92577618D01*
X82337714Y-92623791D01*
X82356866Y-92690984D01*
X82336650Y-92757865D01*
X82285275Y-92802382D01*
X82227267Y-92829431D01*
X82227265Y-92829432D01*
X82040858Y-92959954D01*
X81879954Y-93120858D01*
X81749432Y-93307265D01*
X81749431Y-93307267D01*
X81653261Y-93513502D01*
X81653258Y-93513511D01*
X81594366Y-93733302D01*
X81594364Y-93733313D01*
X81574532Y-93959998D01*
X81574532Y-93960001D01*
X81594364Y-94186686D01*
X81594366Y-94186697D01*
X81653258Y-94406488D01*
X81653261Y-94406497D01*
X81749431Y-94612732D01*
X81749432Y-94612734D01*
X81879954Y-94799141D01*
X82040858Y-94960045D01*
X82040861Y-94960047D01*
X82227266Y-95090568D01*
X82285275Y-95117618D01*
X82337714Y-95163791D01*
X82356866Y-95230984D01*
X82336650Y-95297865D01*
X82285275Y-95342382D01*
X82227267Y-95369431D01*
X82227265Y-95369432D01*
X82040858Y-95499954D01*
X81879954Y-95660858D01*
X81749432Y-95847265D01*
X81749431Y-95847267D01*
X81653261Y-96053502D01*
X81653258Y-96053511D01*
X81594366Y-96273302D01*
X81594364Y-96273313D01*
X81574532Y-96499998D01*
X81574532Y-96500001D01*
X81594364Y-96726686D01*
X81594366Y-96726697D01*
X81653258Y-96946488D01*
X81653261Y-96946497D01*
X81749431Y-97152732D01*
X81749432Y-97152734D01*
X81879954Y-97339141D01*
X82040858Y-97500045D01*
X82087693Y-97532839D01*
X82227266Y-97630568D01*
X82252121Y-97642158D01*
X82285275Y-97657618D01*
X82337714Y-97703791D01*
X82356866Y-97770984D01*
X82336650Y-97837865D01*
X82285275Y-97882382D01*
X82227267Y-97909431D01*
X82227265Y-97909432D01*
X82040858Y-98039954D01*
X81879954Y-98200858D01*
X81749432Y-98387265D01*
X81749431Y-98387267D01*
X81653261Y-98593502D01*
X81653258Y-98593511D01*
X81594366Y-98813302D01*
X81594364Y-98813313D01*
X81574532Y-99039998D01*
X81574532Y-99040001D01*
X81594364Y-99266686D01*
X81594366Y-99266697D01*
X81653258Y-99486488D01*
X81653261Y-99486497D01*
X81749431Y-99692732D01*
X81749432Y-99692734D01*
X81879954Y-99879141D01*
X82040858Y-100040045D01*
X82040861Y-100040047D01*
X82227266Y-100170568D01*
X82285275Y-100197618D01*
X82337714Y-100243791D01*
X82356866Y-100310984D01*
X82336650Y-100377865D01*
X82285275Y-100422382D01*
X82227267Y-100449431D01*
X82227265Y-100449432D01*
X82040858Y-100579954D01*
X81879954Y-100740858D01*
X81749432Y-100927265D01*
X81749431Y-100927267D01*
X81653261Y-101133502D01*
X81653258Y-101133511D01*
X81594366Y-101353302D01*
X81594364Y-101353313D01*
X81574532Y-101579998D01*
X81574532Y-101580001D01*
X81594364Y-101806686D01*
X81594366Y-101806697D01*
X81653258Y-102026488D01*
X81653261Y-102026497D01*
X81749431Y-102232732D01*
X81749432Y-102232734D01*
X81879954Y-102419141D01*
X82040858Y-102580045D01*
X82040861Y-102580047D01*
X82227266Y-102710568D01*
X82285275Y-102737618D01*
X82337714Y-102783791D01*
X82356866Y-102850984D01*
X82336650Y-102917865D01*
X82285275Y-102962382D01*
X82227267Y-102989431D01*
X82227265Y-102989432D01*
X82040858Y-103119954D01*
X81879954Y-103280858D01*
X81749432Y-103467265D01*
X81749431Y-103467267D01*
X81653261Y-103673502D01*
X81653258Y-103673511D01*
X81594366Y-103893302D01*
X81594364Y-103893313D01*
X81574532Y-104119998D01*
X81574532Y-104120001D01*
X81594364Y-104346686D01*
X81594366Y-104346697D01*
X81653258Y-104566488D01*
X81653261Y-104566497D01*
X81749431Y-104772732D01*
X81749432Y-104772734D01*
X81879954Y-104959141D01*
X82040858Y-105120045D01*
X82087693Y-105152839D01*
X82227266Y-105250568D01*
X82285275Y-105277618D01*
X82337714Y-105323791D01*
X82356866Y-105390984D01*
X82336650Y-105457865D01*
X82285275Y-105502382D01*
X82227267Y-105529431D01*
X82227265Y-105529432D01*
X82040858Y-105659954D01*
X81879954Y-105820858D01*
X81749432Y-106007265D01*
X81749431Y-106007267D01*
X81653261Y-106213502D01*
X81653258Y-106213511D01*
X81594366Y-106433302D01*
X81594364Y-106433313D01*
X81574532Y-106659998D01*
X81574532Y-106660001D01*
X81594364Y-106886686D01*
X81594366Y-106886697D01*
X81653258Y-107106488D01*
X81653261Y-107106497D01*
X81749431Y-107312732D01*
X81749432Y-107312734D01*
X81879954Y-107499141D01*
X82040858Y-107660045D01*
X82040861Y-107660047D01*
X82227266Y-107790568D01*
X82285275Y-107817618D01*
X82337714Y-107863791D01*
X82356866Y-107930984D01*
X82336650Y-107997865D01*
X82285275Y-108042382D01*
X82227267Y-108069431D01*
X82227265Y-108069432D01*
X82040858Y-108199954D01*
X81879954Y-108360858D01*
X81749432Y-108547265D01*
X81749431Y-108547267D01*
X81653261Y-108753502D01*
X81653258Y-108753511D01*
X81594366Y-108973302D01*
X81594364Y-108973313D01*
X81574532Y-109199998D01*
X81574532Y-109200001D01*
X81594364Y-109426686D01*
X81594366Y-109426697D01*
X81653258Y-109646488D01*
X81653261Y-109646497D01*
X81749431Y-109852732D01*
X81749432Y-109852734D01*
X81879954Y-110039141D01*
X82040858Y-110200045D01*
X82040861Y-110200047D01*
X82227266Y-110330568D01*
X82433504Y-110426739D01*
X82653308Y-110485635D01*
X82815230Y-110499801D01*
X82879998Y-110505468D01*
X82880000Y-110505468D01*
X82880002Y-110505468D01*
X82936673Y-110500509D01*
X83106692Y-110485635D01*
X83326496Y-110426739D01*
X83532734Y-110330568D01*
X83719139Y-110200047D01*
X83880047Y-110039139D01*
X83992612Y-109878377D01*
X84047189Y-109834752D01*
X84094188Y-109825500D01*
X86717257Y-109825500D01*
X86732877Y-109827224D01*
X86732904Y-109826939D01*
X86740660Y-109827671D01*
X86740667Y-109827673D01*
X86809814Y-109825500D01*
X86839350Y-109825500D01*
X86846228Y-109824630D01*
X86852041Y-109824172D01*
X86898627Y-109822709D01*
X86917869Y-109817117D01*
X86936912Y-109813174D01*
X86956792Y-109810664D01*
X87000122Y-109793507D01*
X87005646Y-109791617D01*
X87009396Y-109790527D01*
X87050390Y-109778618D01*
X87067629Y-109768422D01*
X87085103Y-109759862D01*
X87103727Y-109752488D01*
X87103727Y-109752487D01*
X87103732Y-109752486D01*
X87141449Y-109725082D01*
X87146305Y-109721892D01*
X87186420Y-109698170D01*
X87200589Y-109683999D01*
X87215379Y-109671368D01*
X87231587Y-109659594D01*
X87261299Y-109623676D01*
X87265212Y-109619376D01*
X92383786Y-104500802D01*
X92396048Y-104490980D01*
X92395865Y-104490759D01*
X92401867Y-104485792D01*
X92401877Y-104485786D01*
X92449241Y-104435348D01*
X92470120Y-104414470D01*
X92474373Y-104408986D01*
X92478150Y-104404563D01*
X92510062Y-104370582D01*
X92519714Y-104353023D01*
X92530389Y-104336772D01*
X92542674Y-104320936D01*
X92561186Y-104278152D01*
X92563742Y-104272935D01*
X92586197Y-104232092D01*
X92591180Y-104212680D01*
X92597477Y-104194291D01*
X92605438Y-104175895D01*
X92612729Y-104129853D01*
X92613908Y-104124162D01*
X92625500Y-104079019D01*
X92625500Y-104058982D01*
X92627027Y-104039582D01*
X92630160Y-104019804D01*
X92625775Y-103973415D01*
X92625500Y-103967577D01*
X92625500Y-82448687D01*
X92645185Y-82381648D01*
X92657350Y-82365715D01*
X92675891Y-82345122D01*
X92732533Y-82282216D01*
X92827179Y-82118284D01*
X92885674Y-81938256D01*
X92905460Y-81750000D01*
X92885674Y-81561744D01*
X92827179Y-81381716D01*
X92732533Y-81217784D01*
X92605871Y-81077112D01*
X92596337Y-81070185D01*
X92452734Y-80965851D01*
X92452729Y-80965848D01*
X92279807Y-80888857D01*
X92279802Y-80888855D01*
X92134000Y-80857865D01*
X92094646Y-80849500D01*
X91905354Y-80849500D01*
X91872897Y-80856398D01*
X91720197Y-80888855D01*
X91720192Y-80888857D01*
X91547270Y-80965848D01*
X91547265Y-80965851D01*
X91394129Y-81077111D01*
X91267466Y-81217785D01*
X91172821Y-81381715D01*
X91172818Y-81381722D01*
X91118260Y-81549635D01*
X91114326Y-81561744D01*
X91094540Y-81750000D01*
X91114326Y-81938256D01*
X91114327Y-81938259D01*
X91172818Y-82118277D01*
X91172821Y-82118284D01*
X91267467Y-82282216D01*
X91300632Y-82319049D01*
X91342650Y-82365715D01*
X91372880Y-82428706D01*
X91374500Y-82448687D01*
X91374500Y-103689547D01*
X91354815Y-103756586D01*
X91338181Y-103777228D01*
X86577228Y-108538181D01*
X86515905Y-108571666D01*
X86489547Y-108574500D01*
X84094188Y-108574500D01*
X84027149Y-108554815D01*
X83992613Y-108521623D01*
X83880045Y-108360858D01*
X83719141Y-108199954D01*
X83532734Y-108069432D01*
X83532728Y-108069429D01*
X83474725Y-108042382D01*
X83422285Y-107996210D01*
X83403133Y-107929017D01*
X83423348Y-107862135D01*
X83474725Y-107817618D01*
X83532734Y-107790568D01*
X83719139Y-107660047D01*
X83880047Y-107499139D01*
X84010568Y-107312734D01*
X84106739Y-107106496D01*
X84165635Y-106886692D01*
X84185468Y-106660000D01*
X84165635Y-106433308D01*
X84106739Y-106213504D01*
X84010568Y-106007266D01*
X83880047Y-105820861D01*
X83880045Y-105820858D01*
X83719141Y-105659954D01*
X83532735Y-105529433D01*
X83532736Y-105529433D01*
X83532734Y-105529432D01*
X83474722Y-105502380D01*
X83422284Y-105456208D01*
X83403133Y-105389014D01*
X83423349Y-105322133D01*
X83474721Y-105277619D01*
X83532734Y-105250568D01*
X83719139Y-105120047D01*
X83880047Y-104959139D01*
X84010568Y-104772734D01*
X84106739Y-104566496D01*
X84165635Y-104346692D01*
X84185468Y-104120000D01*
X84184495Y-104108884D01*
X84176702Y-104019804D01*
X84165635Y-103893308D01*
X84106739Y-103673504D01*
X84010568Y-103467266D01*
X83905408Y-103317080D01*
X83880045Y-103280858D01*
X83719141Y-103119954D01*
X83532734Y-102989432D01*
X83532728Y-102989429D01*
X83474725Y-102962382D01*
X83422285Y-102916210D01*
X83403133Y-102849017D01*
X83423348Y-102782135D01*
X83474725Y-102737618D01*
X83532734Y-102710568D01*
X83719139Y-102580047D01*
X83880047Y-102419139D01*
X84010568Y-102232734D01*
X84106739Y-102026496D01*
X84165635Y-101806692D01*
X84185468Y-101580000D01*
X84165635Y-101353308D01*
X84106739Y-101133504D01*
X84010568Y-100927266D01*
X83880047Y-100740861D01*
X83880045Y-100740858D01*
X83719141Y-100579954D01*
X83532734Y-100449432D01*
X83532728Y-100449429D01*
X83474725Y-100422382D01*
X83422285Y-100376210D01*
X83403133Y-100309017D01*
X83423348Y-100242135D01*
X83474725Y-100197618D01*
X83532734Y-100170568D01*
X83719139Y-100040047D01*
X83880047Y-99879139D01*
X84010568Y-99692734D01*
X84106739Y-99486496D01*
X84165635Y-99266692D01*
X84185468Y-99040000D01*
X84184111Y-99024494D01*
X84175127Y-98921799D01*
X84165635Y-98813308D01*
X84106739Y-98593504D01*
X84010568Y-98387266D01*
X83880047Y-98200861D01*
X83880045Y-98200858D01*
X83719141Y-98039954D01*
X83532734Y-97909432D01*
X83532728Y-97909429D01*
X83474725Y-97882382D01*
X83422285Y-97836210D01*
X83403133Y-97769017D01*
X83423348Y-97702135D01*
X83474725Y-97657618D01*
X83532734Y-97630568D01*
X83719139Y-97500047D01*
X83880047Y-97339139D01*
X84010568Y-97152734D01*
X84106739Y-96946496D01*
X84165635Y-96726692D01*
X84185468Y-96500000D01*
X84182007Y-96460446D01*
X84173389Y-96361935D01*
X84165635Y-96273308D01*
X84113923Y-96080315D01*
X84106741Y-96053511D01*
X84106738Y-96053502D01*
X84054308Y-95941066D01*
X84010568Y-95847266D01*
X83880047Y-95660861D01*
X83880045Y-95660858D01*
X83719141Y-95499954D01*
X83532734Y-95369432D01*
X83532728Y-95369429D01*
X83474725Y-95342382D01*
X83422285Y-95296210D01*
X83403133Y-95229017D01*
X83423348Y-95162135D01*
X83474725Y-95117618D01*
X83532734Y-95090568D01*
X83719139Y-94960047D01*
X83880047Y-94799139D01*
X84010568Y-94612734D01*
X84106739Y-94406496D01*
X84165635Y-94186692D01*
X84185468Y-93960000D01*
X84165635Y-93733308D01*
X84106739Y-93513504D01*
X84010568Y-93307266D01*
X83880047Y-93120861D01*
X83880045Y-93120858D01*
X83719141Y-92959954D01*
X83532734Y-92829432D01*
X83532728Y-92829429D01*
X83474725Y-92802382D01*
X83422285Y-92756210D01*
X83403133Y-92689017D01*
X83423348Y-92622135D01*
X83474725Y-92577618D01*
X83482409Y-92574035D01*
X83532734Y-92550568D01*
X83719139Y-92420047D01*
X83880047Y-92259139D01*
X84010568Y-92072734D01*
X84106739Y-91866496D01*
X84165635Y-91646692D01*
X84185468Y-91420000D01*
X84165635Y-91193308D01*
X84106739Y-90973504D01*
X84010568Y-90767266D01*
X83880047Y-90580861D01*
X83880045Y-90580858D01*
X83719141Y-90419954D01*
X83532734Y-90289432D01*
X83532728Y-90289429D01*
X83474725Y-90262382D01*
X83422285Y-90216210D01*
X83403133Y-90149017D01*
X83423348Y-90082135D01*
X83474725Y-90037618D01*
X83532734Y-90010568D01*
X83719139Y-89880047D01*
X83880047Y-89719139D01*
X84010568Y-89532734D01*
X84106739Y-89326496D01*
X84165635Y-89106692D01*
X84185468Y-88880000D01*
X84165635Y-88653308D01*
X84106739Y-88433504D01*
X84010568Y-88227266D01*
X83880047Y-88040861D01*
X83880045Y-88040858D01*
X83719141Y-87879954D01*
X83532734Y-87749432D01*
X83532728Y-87749429D01*
X83505038Y-87736517D01*
X83474724Y-87722381D01*
X83422285Y-87676210D01*
X83403133Y-87609017D01*
X83423348Y-87542135D01*
X83474725Y-87497618D01*
X83532734Y-87470568D01*
X83719139Y-87340047D01*
X83880047Y-87179139D01*
X84010568Y-86992734D01*
X84106739Y-86786496D01*
X84165635Y-86566692D01*
X84184549Y-86350500D01*
X84185468Y-86340001D01*
X84185468Y-86339998D01*
X84172509Y-86191876D01*
X84165635Y-86113308D01*
X84113659Y-85919331D01*
X84106741Y-85893511D01*
X84106738Y-85893502D01*
X84103004Y-85885494D01*
X84010568Y-85687266D01*
X83880047Y-85500861D01*
X83880045Y-85500858D01*
X83719141Y-85339954D01*
X83612546Y-85265317D01*
X83532734Y-85209432D01*
X83474722Y-85182380D01*
X83422284Y-85136208D01*
X83403133Y-85069014D01*
X83423349Y-85002133D01*
X83474721Y-84957619D01*
X83532734Y-84930568D01*
X83719139Y-84800047D01*
X83880047Y-84639139D01*
X84010568Y-84452734D01*
X84106739Y-84246496D01*
X84165635Y-84026692D01*
X84184830Y-83807288D01*
X84185468Y-83800001D01*
X84185468Y-83799998D01*
X84177096Y-83704309D01*
X84165635Y-83573308D01*
X84106739Y-83353504D01*
X84010568Y-83147266D01*
X83880047Y-82960861D01*
X83880045Y-82960858D01*
X83719141Y-82799954D01*
X83532734Y-82669432D01*
X83532728Y-82669429D01*
X83474725Y-82642382D01*
X83422285Y-82596210D01*
X83403133Y-82529017D01*
X83423348Y-82462135D01*
X83474725Y-82417618D01*
X83532734Y-82390568D01*
X83719139Y-82260047D01*
X83880047Y-82099139D01*
X84010568Y-81912734D01*
X84106739Y-81706496D01*
X84165635Y-81486692D01*
X84185468Y-81260000D01*
X84165635Y-81033308D01*
X84106739Y-80813504D01*
X84010568Y-80607266D01*
X83880047Y-80420861D01*
X83880045Y-80420858D01*
X83719141Y-80259954D01*
X83532734Y-80129432D01*
X83532728Y-80129429D01*
X83474725Y-80102382D01*
X83422285Y-80056210D01*
X83403133Y-79989017D01*
X83423348Y-79922135D01*
X83474725Y-79877618D01*
X83475319Y-79877341D01*
X83532734Y-79850568D01*
X83719139Y-79720047D01*
X83880047Y-79559139D01*
X84010568Y-79372734D01*
X84106739Y-79166496D01*
X84165635Y-78946692D01*
X84185468Y-78720000D01*
X84185440Y-78719685D01*
X84176093Y-78612844D01*
X84165635Y-78493308D01*
X84113167Y-78297492D01*
X84106741Y-78273511D01*
X84106738Y-78273502D01*
X84099088Y-78257096D01*
X84010568Y-78067266D01*
X83880047Y-77880861D01*
X83880045Y-77880858D01*
X83719141Y-77719954D01*
X83534026Y-77590337D01*
X83532734Y-77589432D01*
X83474132Y-77562105D01*
X83421694Y-77515933D01*
X83402543Y-77448739D01*
X83422759Y-77381858D01*
X83474135Y-77337341D01*
X83532483Y-77310133D01*
X83563882Y-77288146D01*
X83131099Y-76855363D01*
X83097614Y-76794040D01*
X83102598Y-76724348D01*
X83144470Y-76668415D01*
X83163503Y-76657361D01*
X83168451Y-76654352D01*
X83168458Y-76654349D01*
X83285739Y-76558934D01*
X83365312Y-76446204D01*
X83420052Y-76402788D01*
X83489577Y-76395858D01*
X83551812Y-76427616D01*
X83554296Y-76430032D01*
X83988146Y-76863882D01*
X84010135Y-76832480D01*
X84010136Y-76832478D01*
X84106264Y-76626331D01*
X84106269Y-76626317D01*
X84165139Y-76406610D01*
X84165141Y-76406599D01*
X84184966Y-76180002D01*
X84184966Y-76179997D01*
X84165141Y-75953400D01*
X84165139Y-75953389D01*
X84106269Y-75733682D01*
X84106265Y-75733673D01*
X84010134Y-75527518D01*
X84010133Y-75527516D01*
X83988146Y-75496116D01*
X83988146Y-75496115D01*
X83552651Y-75931611D01*
X83491328Y-75965096D01*
X83421636Y-75960112D01*
X83365703Y-75918240D01*
X83354872Y-75900978D01*
X83333557Y-75859843D01*
X83230360Y-75749346D01*
X83230356Y-75749343D01*
X83151329Y-75701285D01*
X83104277Y-75649634D01*
X83092620Y-75580743D01*
X83120058Y-75516487D01*
X83128077Y-75507657D01*
X83563883Y-75071852D01*
X83563882Y-75071851D01*
X83532485Y-75049867D01*
X83326326Y-74953734D01*
X83326317Y-74953730D01*
X83106610Y-74894860D01*
X83106599Y-74894858D01*
X82880002Y-74875034D01*
X82879998Y-74875034D01*
X82653400Y-74894858D01*
X82653389Y-74894860D01*
X82433682Y-74953730D01*
X82433673Y-74953734D01*
X82227514Y-75049867D01*
X82196115Y-75071851D01*
X82628900Y-75504636D01*
X82662385Y-75565959D01*
X82657401Y-75635651D01*
X82615529Y-75691584D01*
X82596480Y-75702647D01*
X82591543Y-75705650D01*
X82474261Y-75801066D01*
X82474255Y-75801072D01*
X82394688Y-75913794D01*
X82339946Y-75957212D01*
X82270421Y-75964141D01*
X82208186Y-75932382D01*
X82205703Y-75929967D01*
X81836819Y-75561083D01*
X81803334Y-75499760D01*
X81800500Y-75473402D01*
X81800500Y-71382940D01*
X81820185Y-71315901D01*
X81836819Y-71295259D01*
X84795259Y-68336819D01*
X84856582Y-68303334D01*
X84882940Y-68300500D01*
X85500512Y-68300500D01*
X85567551Y-68320185D01*
X85613306Y-68372989D01*
X85623250Y-68442147D01*
X85606050Y-68489597D01*
X85583190Y-68526657D01*
X85583185Y-68526668D01*
X85560226Y-68595954D01*
X85528001Y-68693203D01*
X85528001Y-68693204D01*
X85528000Y-68693204D01*
X85517500Y-68795983D01*
X85517500Y-70396001D01*
X85517501Y-70396018D01*
X85528000Y-70498796D01*
X85528001Y-70498799D01*
X85583185Y-70665331D01*
X85583187Y-70665336D01*
X85618068Y-70721888D01*
X85675288Y-70814656D01*
X85799344Y-70938712D01*
X85948666Y-71030814D01*
X86115203Y-71085999D01*
X86217991Y-71096500D01*
X87185058Y-71096499D01*
X87252097Y-71116183D01*
X87272737Y-71132816D01*
X87377182Y-71237260D01*
X87410665Y-71298580D01*
X87413499Y-71324939D01*
X87413500Y-75588806D01*
X87413500Y-75769191D01*
X87413501Y-75769200D01*
X87422791Y-75809908D01*
X87423955Y-75816763D01*
X87428632Y-75858259D01*
X87442420Y-75897662D01*
X87444345Y-75904345D01*
X87453639Y-75945060D01*
X87471757Y-75982682D01*
X87474419Y-75989110D01*
X87488209Y-76028519D01*
X87510422Y-76063871D01*
X87513787Y-76069959D01*
X87531909Y-76107588D01*
X87557940Y-76140229D01*
X87561966Y-76145904D01*
X87575390Y-76167267D01*
X87584184Y-76181262D01*
X87616173Y-76213251D01*
X87616174Y-76213252D01*
X87838337Y-76435415D01*
X88022594Y-76619671D01*
X88056079Y-76680994D01*
X88058441Y-76718158D01*
X88049532Y-76819996D01*
X88049532Y-76820001D01*
X88069364Y-77046686D01*
X88069366Y-77046697D01*
X88128258Y-77266488D01*
X88128261Y-77266497D01*
X88224431Y-77472732D01*
X88224432Y-77472734D01*
X88354954Y-77659141D01*
X88515858Y-77820045D01*
X88515861Y-77820047D01*
X88702266Y-77950568D01*
X88908504Y-78046739D01*
X88908509Y-78046740D01*
X88908511Y-78046741D01*
X88939853Y-78055139D01*
X89128308Y-78105635D01*
X89290230Y-78119801D01*
X89354998Y-78125468D01*
X89355000Y-78125468D01*
X89355002Y-78125468D01*
X89411672Y-78120509D01*
X89581692Y-78105635D01*
X89801496Y-78046739D01*
X90007734Y-77950568D01*
X90194139Y-77820047D01*
X90355047Y-77659139D01*
X90398425Y-77597188D01*
X90453001Y-77553563D01*
X90522499Y-77546369D01*
X90584854Y-77577891D01*
X90601576Y-77597189D01*
X90644955Y-77659142D01*
X90805858Y-77820045D01*
X90805861Y-77820047D01*
X90992266Y-77950568D01*
X91198504Y-78046739D01*
X91198509Y-78046740D01*
X91198511Y-78046741D01*
X91229853Y-78055139D01*
X91418308Y-78105635D01*
X91580230Y-78119801D01*
X91644998Y-78125468D01*
X91645000Y-78125468D01*
X91645002Y-78125468D01*
X91701673Y-78120509D01*
X91871692Y-78105635D01*
X92091496Y-78046739D01*
X92297734Y-77950568D01*
X92484139Y-77820047D01*
X92645047Y-77659139D01*
X92775568Y-77472734D01*
X92871739Y-77266496D01*
X92930635Y-77046692D01*
X92950468Y-76820000D01*
X92946093Y-76769999D01*
X92942422Y-76728035D01*
X92930635Y-76593308D01*
X92875197Y-76386410D01*
X92871741Y-76373511D01*
X92871738Y-76373502D01*
X92856998Y-76341892D01*
X92775568Y-76167266D01*
X92661171Y-76003889D01*
X92645045Y-75980858D01*
X92484141Y-75819954D01*
X92297734Y-75689432D01*
X92297732Y-75689431D01*
X92091497Y-75593261D01*
X92091488Y-75593258D01*
X91871697Y-75534366D01*
X91871693Y-75534365D01*
X91871692Y-75534365D01*
X91871691Y-75534364D01*
X91871686Y-75534364D01*
X91645002Y-75514532D01*
X91644998Y-75514532D01*
X91543160Y-75523441D01*
X91474660Y-75509674D01*
X91444672Y-75487594D01*
X91032019Y-75074941D01*
X90998534Y-75013618D01*
X90995700Y-74987260D01*
X90995700Y-70333005D01*
X90995699Y-70333002D01*
X90995172Y-70330692D01*
X90986403Y-70292276D01*
X90985244Y-70285451D01*
X90980568Y-70243945D01*
X90966774Y-70204524D01*
X90964852Y-70197855D01*
X90955559Y-70157139D01*
X90937445Y-70119526D01*
X90934783Y-70113098D01*
X90920989Y-70073678D01*
X90920988Y-70073678D01*
X90898763Y-70038306D01*
X90895413Y-70032244D01*
X90877291Y-69994613D01*
X90851249Y-69961957D01*
X90847238Y-69956304D01*
X90833217Y-69933990D01*
X90825018Y-69920940D01*
X90754819Y-69850741D01*
X90721334Y-69789418D01*
X90718500Y-69763060D01*
X90718500Y-69399940D01*
X90738185Y-69332901D01*
X90790989Y-69287146D01*
X90860147Y-69277202D01*
X90923703Y-69306227D01*
X90930181Y-69312259D01*
X96980004Y-75362082D01*
X97013489Y-75423405D01*
X97008505Y-75493097D01*
X96993901Y-75520882D01*
X96989434Y-75527261D01*
X96893261Y-75733502D01*
X96893258Y-75733511D01*
X96834366Y-75953302D01*
X96834364Y-75953313D01*
X96814532Y-76179998D01*
X96814532Y-76180003D01*
X96817327Y-76211953D01*
X96803560Y-76280452D01*
X96781480Y-76310440D01*
X94997738Y-78094184D01*
X94870186Y-78221735D01*
X94870183Y-78221739D01*
X94847966Y-78257096D01*
X94843941Y-78262769D01*
X94817910Y-78295410D01*
X94799791Y-78333033D01*
X94796427Y-78339120D01*
X94774212Y-78374476D01*
X94774208Y-78374483D01*
X94760416Y-78413895D01*
X94757755Y-78420320D01*
X94739639Y-78457939D01*
X94730344Y-78498659D01*
X94728419Y-78505341D01*
X94714632Y-78544744D01*
X94709955Y-78586235D01*
X94708791Y-78593089D01*
X94699500Y-78633806D01*
X94699500Y-109590191D01*
X94699501Y-109590200D01*
X94708791Y-109630908D01*
X94709955Y-109637763D01*
X94714632Y-109679259D01*
X94728420Y-109718662D01*
X94730345Y-109725345D01*
X94739639Y-109766061D01*
X94757759Y-109803688D01*
X94760421Y-109810114D01*
X94774212Y-109849525D01*
X94796422Y-109884872D01*
X94799787Y-109890959D01*
X94817910Y-109928589D01*
X94843940Y-109961229D01*
X94847966Y-109966904D01*
X94870182Y-110002259D01*
X94870184Y-110002262D01*
X99356241Y-114488319D01*
X99389726Y-114549642D01*
X99384742Y-114619334D01*
X99342870Y-114675267D01*
X99277406Y-114699684D01*
X99268560Y-114700000D01*
X98800000Y-114700000D01*
X98800000Y-115746084D01*
X98780315Y-115813123D01*
X98727511Y-115858878D01*
X98658353Y-115868822D01*
X98645163Y-115866188D01*
X98582117Y-115850000D01*
X98582114Y-115850000D01*
X98459106Y-115850000D01*
X98459094Y-115850000D01*
X98339541Y-115865104D01*
X98270563Y-115853977D01*
X98218551Y-115807324D01*
X98200000Y-115742082D01*
X98200000Y-114700000D01*
X97152155Y-114700000D01*
X97092627Y-114706401D01*
X97092620Y-114706403D01*
X96957913Y-114756645D01*
X96957906Y-114756649D01*
X96842812Y-114842809D01*
X96842809Y-114842812D01*
X96756649Y-114957906D01*
X96756645Y-114957913D01*
X96706403Y-115092620D01*
X96706401Y-115092627D01*
X96700000Y-115152155D01*
X96700000Y-116200000D01*
X97745617Y-116200000D01*
X97812656Y-116219685D01*
X97858411Y-116272489D01*
X97868355Y-116341647D01*
X97867422Y-116347227D01*
X97846127Y-116458862D01*
X97846127Y-116458864D01*
X97846127Y-116458865D01*
X97856439Y-116622766D01*
X97861286Y-116637684D01*
X97863280Y-116707525D01*
X97827198Y-116767357D01*
X97764497Y-116798184D01*
X97743354Y-116800000D01*
X96700000Y-116800000D01*
X96700000Y-117847844D01*
X96706401Y-117907372D01*
X96706403Y-117907379D01*
X96756645Y-118042086D01*
X96756649Y-118042093D01*
X96842809Y-118157187D01*
X96842812Y-118157190D01*
X96957906Y-118243350D01*
X96957913Y-118243354D01*
X97092620Y-118293596D01*
X97092627Y-118293598D01*
X97152155Y-118299999D01*
X97152172Y-118300000D01*
X98200000Y-118300000D01*
X98200000Y-117253915D01*
X98219685Y-117186876D01*
X98272489Y-117141121D01*
X98341647Y-117131177D01*
X98354816Y-117133806D01*
X98417886Y-117150000D01*
X98417890Y-117150000D01*
X98540892Y-117150000D01*
X98540894Y-117150000D01*
X98540899Y-117149999D01*
X98540903Y-117149999D01*
X98572391Y-117146021D01*
X98660460Y-117134895D01*
X98729436Y-117146021D01*
X98781448Y-117192674D01*
X98800000Y-117257917D01*
X98800000Y-118300000D01*
X99847828Y-118300000D01*
X99847844Y-118299999D01*
X99907372Y-118293598D01*
X99907379Y-118293596D01*
X100042086Y-118243354D01*
X100042093Y-118243350D01*
X100157187Y-118157190D01*
X100157190Y-118157187D01*
X100243350Y-118042093D01*
X100243354Y-118042086D01*
X100293596Y-117907379D01*
X100293598Y-117907372D01*
X100299999Y-117847844D01*
X100300000Y-117847827D01*
X100300000Y-116800000D01*
X99254383Y-116800000D01*
X99187344Y-116780315D01*
X99141589Y-116727511D01*
X99131645Y-116658353D01*
X99132579Y-116652765D01*
X99135456Y-116637684D01*
X99153873Y-116541138D01*
X99143561Y-116377234D01*
X99138714Y-116362316D01*
X99136720Y-116292475D01*
X99172802Y-116232643D01*
X99235503Y-116201816D01*
X99256646Y-116200000D01*
X100300000Y-116200000D01*
X100300000Y-115731439D01*
X100319685Y-115664400D01*
X100372489Y-115618645D01*
X100441647Y-115608701D01*
X100505203Y-115637726D01*
X100511666Y-115643744D01*
X101140411Y-116272489D01*
X101712303Y-116844381D01*
X101745513Y-116904469D01*
X101774664Y-117032188D01*
X101774666Y-117032195D01*
X101861685Y-117253915D01*
X101873257Y-117283398D01*
X102008185Y-117517102D01*
X102144080Y-117687509D01*
X102176442Y-117728089D01*
X102363183Y-117901358D01*
X102374259Y-117911635D01*
X102597226Y-118063651D01*
X102840359Y-118180738D01*
X103098228Y-118260280D01*
X103098229Y-118260280D01*
X103098232Y-118260281D01*
X103365063Y-118300499D01*
X103365068Y-118300499D01*
X103365071Y-118300500D01*
X103365072Y-118300500D01*
X103634928Y-118300500D01*
X103634929Y-118300500D01*
X103634936Y-118300499D01*
X103901767Y-118260281D01*
X103901768Y-118260280D01*
X103901772Y-118260280D01*
X104159641Y-118180738D01*
X104402775Y-118063651D01*
X104625741Y-117911635D01*
X104823561Y-117728085D01*
X104991815Y-117517102D01*
X105126743Y-117283398D01*
X105225334Y-117032195D01*
X105285383Y-116769103D01*
X105305549Y-116500000D01*
X105302466Y-116458865D01*
X105285383Y-116230898D01*
X105237796Y-116022405D01*
X105225334Y-115967805D01*
X105126743Y-115716602D01*
X104991815Y-115482898D01*
X104823561Y-115271915D01*
X104823560Y-115271914D01*
X104823557Y-115271910D01*
X104625741Y-115088365D01*
X104610905Y-115078250D01*
X104402775Y-114936349D01*
X104402769Y-114936346D01*
X104402768Y-114936345D01*
X104402767Y-114936344D01*
X104159643Y-114819263D01*
X104159645Y-114819263D01*
X103901773Y-114739720D01*
X103901767Y-114739718D01*
X103634936Y-114699500D01*
X103634929Y-114699500D01*
X103365071Y-114699500D01*
X103365063Y-114699500D01*
X103098232Y-114739718D01*
X103098226Y-114739720D01*
X102840358Y-114819262D01*
X102597230Y-114936346D01*
X102565597Y-114957913D01*
X102374259Y-115088365D01*
X102374256Y-115088367D01*
X102370426Y-115090979D01*
X102369651Y-115089842D01*
X102310590Y-115113929D01*
X102241900Y-115101148D01*
X102210328Y-115078250D01*
X97832191Y-110700113D01*
X97798706Y-110638790D01*
X97803690Y-110569098D01*
X97845562Y-110513165D01*
X97911026Y-110488748D01*
X97930672Y-110488903D01*
X98096901Y-110503447D01*
X98119999Y-110505468D01*
X98120000Y-110505468D01*
X98120002Y-110505468D01*
X98176672Y-110500509D01*
X98346692Y-110485635D01*
X98566496Y-110426739D01*
X98772734Y-110330568D01*
X98959139Y-110200047D01*
X99120047Y-110039139D01*
X99250568Y-109852734D01*
X99346739Y-109646496D01*
X99405635Y-109426692D01*
X99425468Y-109200000D01*
X99405635Y-108973308D01*
X99346739Y-108753504D01*
X99250568Y-108547266D01*
X99120047Y-108360861D01*
X99120045Y-108360858D01*
X98959141Y-108199954D01*
X98772734Y-108069432D01*
X98772728Y-108069429D01*
X98714725Y-108042382D01*
X98662285Y-107996210D01*
X98643133Y-107929017D01*
X98663348Y-107862135D01*
X98714725Y-107817618D01*
X98772734Y-107790568D01*
X98959139Y-107660047D01*
X99119186Y-107500000D01*
X102126341Y-107500000D01*
X102146936Y-107735403D01*
X102146938Y-107735413D01*
X102208094Y-107963655D01*
X102208096Y-107963659D01*
X102208097Y-107963663D01*
X102212573Y-107973261D01*
X102307964Y-108177828D01*
X102307965Y-108177830D01*
X102443505Y-108371402D01*
X102610597Y-108538494D01*
X102804169Y-108674034D01*
X102804171Y-108674035D01*
X103018337Y-108773903D01*
X103246592Y-108835063D01*
X103423034Y-108850500D01*
X103840966Y-108850500D01*
X104017408Y-108835063D01*
X104245663Y-108773903D01*
X104459829Y-108674035D01*
X104653401Y-108538495D01*
X104820495Y-108371401D01*
X104956035Y-108177830D01*
X105055903Y-107963663D01*
X105117063Y-107735408D01*
X105137659Y-107500000D01*
X105117063Y-107264592D01*
X105055903Y-107036337D01*
X104956035Y-106822171D01*
X104956034Y-106822169D01*
X104820494Y-106628597D01*
X104672932Y-106481035D01*
X104639447Y-106419712D01*
X104644431Y-106350020D01*
X104686303Y-106294087D01*
X104695516Y-106287815D01*
X104850345Y-106192315D01*
X104974315Y-106068345D01*
X105066356Y-105919124D01*
X105066358Y-105919119D01*
X105121505Y-105752697D01*
X105121506Y-105752690D01*
X105131999Y-105649986D01*
X105132000Y-105649973D01*
X105132000Y-105300000D01*
X104230666Y-105300000D01*
X104163627Y-105280315D01*
X104117872Y-105227511D01*
X104107928Y-105158353D01*
X104111689Y-105141066D01*
X104131999Y-105071892D01*
X104132000Y-105071889D01*
X104132000Y-104928110D01*
X104131999Y-104928107D01*
X104111689Y-104858934D01*
X104111689Y-104789064D01*
X104149464Y-104730286D01*
X104213020Y-104701262D01*
X104230666Y-104700000D01*
X105131999Y-104700000D01*
X105131999Y-104350028D01*
X105131998Y-104350013D01*
X105121505Y-104247302D01*
X105066358Y-104080880D01*
X105066356Y-104080875D01*
X104974315Y-103931654D01*
X104850345Y-103807684D01*
X104701124Y-103715643D01*
X104701119Y-103715641D01*
X104534697Y-103660494D01*
X104534690Y-103660493D01*
X104431986Y-103650000D01*
X103932000Y-103650000D01*
X103932000Y-104395975D01*
X103912315Y-104463014D01*
X103859511Y-104508769D01*
X103790353Y-104518713D01*
X103775608Y-104515505D01*
X103682519Y-104502121D01*
X103667763Y-104500000D01*
X103596237Y-104500000D01*
X103480906Y-104516582D01*
X103480671Y-104514953D01*
X103421059Y-104514950D01*
X103362283Y-104477173D01*
X103333261Y-104413615D01*
X103332000Y-104395975D01*
X103332000Y-103650000D01*
X102832028Y-103650000D01*
X102832012Y-103650001D01*
X102729302Y-103660494D01*
X102562880Y-103715641D01*
X102562875Y-103715643D01*
X102413654Y-103807684D01*
X102289684Y-103931654D01*
X102197643Y-104080875D01*
X102197641Y-104080880D01*
X102142494Y-104247302D01*
X102142493Y-104247309D01*
X102132000Y-104350013D01*
X102132000Y-104700000D01*
X103033334Y-104700000D01*
X103100373Y-104719685D01*
X103146128Y-104772489D01*
X103156072Y-104841647D01*
X103152311Y-104858934D01*
X103132000Y-104928107D01*
X103132000Y-105071892D01*
X103152311Y-105141066D01*
X103152311Y-105210936D01*
X103114536Y-105269714D01*
X103050980Y-105298738D01*
X103033334Y-105300000D01*
X102132001Y-105300000D01*
X102132001Y-105649986D01*
X102142494Y-105752697D01*
X102197641Y-105919119D01*
X102197643Y-105919124D01*
X102289684Y-106068345D01*
X102413654Y-106192315D01*
X102568484Y-106287815D01*
X102615208Y-106339763D01*
X102626431Y-106408726D01*
X102598587Y-106472808D01*
X102591069Y-106481035D01*
X102443501Y-106628603D01*
X102443501Y-106628604D01*
X102307967Y-106822165D01*
X102307965Y-106822169D01*
X102208098Y-107036335D01*
X102208094Y-107036344D01*
X102146938Y-107264586D01*
X102146936Y-107264596D01*
X102126341Y-107499999D01*
X102126341Y-107500000D01*
X99119186Y-107500000D01*
X99120047Y-107499139D01*
X99250568Y-107312734D01*
X99346739Y-107106496D01*
X99405635Y-106886692D01*
X99425468Y-106660000D01*
X99405635Y-106433308D01*
X99346739Y-106213504D01*
X99250568Y-106007266D01*
X99120047Y-105820861D01*
X99120045Y-105820858D01*
X98959141Y-105659954D01*
X98772734Y-105529432D01*
X98772728Y-105529429D01*
X98714725Y-105502382D01*
X98662285Y-105456210D01*
X98643133Y-105389017D01*
X98663348Y-105322135D01*
X98714725Y-105277618D01*
X98772734Y-105250568D01*
X98959139Y-105120047D01*
X99120047Y-104959139D01*
X99250568Y-104772734D01*
X99346739Y-104566496D01*
X99405635Y-104346692D01*
X99425468Y-104120000D01*
X99424495Y-104108884D01*
X99416702Y-104019804D01*
X99405635Y-103893308D01*
X99346739Y-103673504D01*
X99250568Y-103467266D01*
X99145408Y-103317080D01*
X99120045Y-103280858D01*
X98959141Y-103119954D01*
X98772734Y-102989432D01*
X98772728Y-102989429D01*
X98714725Y-102962382D01*
X98662285Y-102916210D01*
X98643133Y-102849017D01*
X98663348Y-102782135D01*
X98714725Y-102737618D01*
X98772734Y-102710568D01*
X98959139Y-102580047D01*
X99120047Y-102419139D01*
X99250568Y-102232734D01*
X99346739Y-102026496D01*
X99405635Y-101806692D01*
X99425468Y-101580000D01*
X99405635Y-101353308D01*
X99346739Y-101133504D01*
X99250568Y-100927266D01*
X99120047Y-100740861D01*
X99120045Y-100740858D01*
X98959141Y-100579954D01*
X98772734Y-100449432D01*
X98772728Y-100449429D01*
X98714725Y-100422382D01*
X98662285Y-100376210D01*
X98643133Y-100309017D01*
X98663348Y-100242135D01*
X98714725Y-100197618D01*
X98772734Y-100170568D01*
X98959139Y-100040047D01*
X99120047Y-99879139D01*
X99250568Y-99692734D01*
X99346739Y-99486496D01*
X99405635Y-99266692D01*
X99425468Y-99040000D01*
X99424111Y-99024494D01*
X99415127Y-98921799D01*
X99406133Y-98819001D01*
X101305500Y-98819001D01*
X101305501Y-98819018D01*
X101316000Y-98921796D01*
X101316001Y-98921799D01*
X101355303Y-99040402D01*
X101371186Y-99088334D01*
X101463288Y-99237656D01*
X101587344Y-99361712D01*
X101736666Y-99453814D01*
X101903203Y-99508999D01*
X102005991Y-99519500D01*
X103306008Y-99519499D01*
X103408797Y-99508999D01*
X103575334Y-99453814D01*
X103724656Y-99361712D01*
X103848712Y-99237656D01*
X103940814Y-99088334D01*
X103940814Y-99088333D01*
X103944448Y-99082442D01*
X103996396Y-99035717D01*
X104065358Y-99024494D01*
X104129441Y-99052337D01*
X104137668Y-99059856D01*
X104284921Y-99207108D01*
X104478421Y-99342600D01*
X104692507Y-99442429D01*
X104692516Y-99442433D01*
X104855999Y-99486238D01*
X104856000Y-99486237D01*
X104856000Y-98621701D01*
X104875685Y-98554662D01*
X104928489Y-98508907D01*
X104997647Y-98498963D01*
X105014936Y-98502724D01*
X105020800Y-98504446D01*
X105020801Y-98504446D01*
X105122025Y-98519000D01*
X105122026Y-98519000D01*
X105189974Y-98519000D01*
X105189975Y-98519000D01*
X105291199Y-98504446D01*
X105291200Y-98504445D01*
X105297064Y-98502724D01*
X105366934Y-98502724D01*
X105425712Y-98540498D01*
X105454738Y-98604053D01*
X105456000Y-98621701D01*
X105456000Y-99486238D01*
X105619483Y-99442433D01*
X105619492Y-99442429D01*
X105833577Y-99342600D01*
X105833579Y-99342599D01*
X106027073Y-99207113D01*
X106027079Y-99207108D01*
X106194108Y-99040079D01*
X106194113Y-99040073D01*
X106304119Y-98882967D01*
X106358695Y-98839342D01*
X106428194Y-98832148D01*
X106490549Y-98863670D01*
X106507269Y-98882967D01*
X106617505Y-99040402D01*
X106748499Y-99171395D01*
X106784599Y-99207495D01*
X106869141Y-99266692D01*
X106978165Y-99343032D01*
X106978167Y-99343033D01*
X106978170Y-99343035D01*
X107192337Y-99442903D01*
X107192343Y-99442904D01*
X107192344Y-99442905D01*
X107231632Y-99453432D01*
X107420592Y-99504063D01*
X107597034Y-99519500D01*
X107655999Y-99524659D01*
X107656000Y-99524659D01*
X107656001Y-99524659D01*
X107714966Y-99519500D01*
X107891408Y-99504063D01*
X108119663Y-99442903D01*
X108333829Y-99343035D01*
X108527401Y-99207495D01*
X108694495Y-99040401D01*
X108830035Y-98846829D01*
X108929903Y-98632663D01*
X108991063Y-98404408D01*
X109000198Y-98300000D01*
X113194341Y-98300000D01*
X113214936Y-98535403D01*
X113214938Y-98535413D01*
X113276094Y-98763655D01*
X113276096Y-98763659D01*
X113276097Y-98763663D01*
X113311387Y-98839342D01*
X113375964Y-98977828D01*
X113375965Y-98977830D01*
X113511505Y-99171402D01*
X113678597Y-99338494D01*
X113872169Y-99474034D01*
X113872171Y-99474035D01*
X114086337Y-99573903D01*
X114086343Y-99573904D01*
X114086344Y-99573905D01*
X114123848Y-99583954D01*
X114314592Y-99635063D01*
X114491034Y-99650500D01*
X114908966Y-99650500D01*
X115085408Y-99635063D01*
X115313663Y-99573903D01*
X115527829Y-99474035D01*
X115721401Y-99338495D01*
X115888495Y-99171401D01*
X116024035Y-98977830D01*
X116123903Y-98763663D01*
X116185063Y-98535408D01*
X116205659Y-98300000D01*
X116185063Y-98064592D01*
X116125965Y-97844032D01*
X116123905Y-97836344D01*
X116123904Y-97836343D01*
X116123903Y-97836337D01*
X116024035Y-97622171D01*
X116024034Y-97622169D01*
X115888494Y-97428597D01*
X115740932Y-97281035D01*
X115707447Y-97219712D01*
X115712431Y-97150020D01*
X115754303Y-97094087D01*
X115763516Y-97087815D01*
X115918345Y-96992315D01*
X116042315Y-96868345D01*
X116134356Y-96719124D01*
X116134358Y-96719119D01*
X116189505Y-96552697D01*
X116189506Y-96552690D01*
X116199999Y-96449986D01*
X116200000Y-96449973D01*
X116200000Y-96100000D01*
X115298666Y-96100000D01*
X115231627Y-96080315D01*
X115185872Y-96027511D01*
X115175928Y-95958353D01*
X115179689Y-95941066D01*
X115199999Y-95871892D01*
X115200000Y-95871889D01*
X115200000Y-95728110D01*
X115199999Y-95728107D01*
X115179689Y-95658934D01*
X115179689Y-95589064D01*
X115217464Y-95530286D01*
X115281020Y-95501262D01*
X115298666Y-95500000D01*
X116199999Y-95500000D01*
X116199999Y-95150028D01*
X116199998Y-95150013D01*
X116189505Y-95047302D01*
X116134358Y-94880880D01*
X116134356Y-94880875D01*
X116042315Y-94731654D01*
X115918345Y-94607684D01*
X115769124Y-94515643D01*
X115769119Y-94515641D01*
X115602697Y-94460494D01*
X115602690Y-94460493D01*
X115499986Y-94450000D01*
X115000000Y-94450000D01*
X115000000Y-95195975D01*
X114980315Y-95263014D01*
X114927511Y-95308769D01*
X114858353Y-95318713D01*
X114843608Y-95315505D01*
X114747267Y-95301654D01*
X114735763Y-95300000D01*
X114664237Y-95300000D01*
X114548906Y-95316582D01*
X114548671Y-95314953D01*
X114489059Y-95314950D01*
X114430283Y-95277173D01*
X114401261Y-95213615D01*
X114400000Y-95195975D01*
X114400000Y-94450000D01*
X113900028Y-94450000D01*
X113900012Y-94450001D01*
X113797302Y-94460494D01*
X113630880Y-94515641D01*
X113630875Y-94515643D01*
X113481654Y-94607684D01*
X113357684Y-94731654D01*
X113265643Y-94880875D01*
X113265641Y-94880880D01*
X113210494Y-95047302D01*
X113210493Y-95047309D01*
X113200000Y-95150013D01*
X113200000Y-95500000D01*
X114101334Y-95500000D01*
X114168373Y-95519685D01*
X114214128Y-95572489D01*
X114224072Y-95641647D01*
X114220311Y-95658934D01*
X114200000Y-95728107D01*
X114200000Y-95871892D01*
X114220311Y-95941066D01*
X114220311Y-96010936D01*
X114182536Y-96069714D01*
X114118980Y-96098738D01*
X114101334Y-96100000D01*
X113200001Y-96100000D01*
X113200001Y-96449986D01*
X113210494Y-96552697D01*
X113265641Y-96719119D01*
X113265643Y-96719124D01*
X113357684Y-96868345D01*
X113481654Y-96992315D01*
X113636484Y-97087815D01*
X113683208Y-97139763D01*
X113694431Y-97208726D01*
X113666587Y-97272808D01*
X113659069Y-97281035D01*
X113511501Y-97428603D01*
X113511501Y-97428604D01*
X113375967Y-97622165D01*
X113375965Y-97622169D01*
X113276098Y-97836335D01*
X113276094Y-97836344D01*
X113214938Y-98064586D01*
X113214936Y-98064596D01*
X113194341Y-98299999D01*
X113194341Y-98300000D01*
X109000198Y-98300000D01*
X109006500Y-98227966D01*
X109006500Y-97860034D01*
X108991063Y-97683592D01*
X108929903Y-97455337D01*
X108830035Y-97241171D01*
X108815010Y-97219712D01*
X108694494Y-97047597D01*
X108527402Y-96880506D01*
X108527395Y-96880501D01*
X108503349Y-96863664D01*
X108468701Y-96839403D01*
X108333834Y-96744967D01*
X108333830Y-96744965D01*
X108294654Y-96726697D01*
X108119663Y-96645097D01*
X108119659Y-96645096D01*
X108119655Y-96645094D01*
X107891413Y-96583938D01*
X107891403Y-96583936D01*
X107656001Y-96563341D01*
X107655999Y-96563341D01*
X107420596Y-96583936D01*
X107420586Y-96583938D01*
X107192344Y-96645094D01*
X107192335Y-96645098D01*
X106978171Y-96744964D01*
X106978169Y-96744965D01*
X106784597Y-96880505D01*
X106617508Y-97047594D01*
X106507269Y-97205032D01*
X106452692Y-97248656D01*
X106383193Y-97255849D01*
X106320839Y-97224327D01*
X106304119Y-97205031D01*
X106194113Y-97047926D01*
X106194108Y-97047920D01*
X106027082Y-96880894D01*
X105833578Y-96745399D01*
X105619495Y-96645571D01*
X105456000Y-96601761D01*
X105456000Y-97466298D01*
X105436315Y-97533337D01*
X105383511Y-97579092D01*
X105314353Y-97589036D01*
X105297072Y-97585277D01*
X105291204Y-97583554D01*
X105206845Y-97571425D01*
X105189975Y-97569000D01*
X105122025Y-97569000D01*
X105020795Y-97583554D01*
X105014928Y-97585277D01*
X104945058Y-97585273D01*
X104886282Y-97547495D01*
X104857261Y-97483938D01*
X104856000Y-97466298D01*
X104856000Y-96601761D01*
X104692504Y-96645571D01*
X104478422Y-96745399D01*
X104478420Y-96745400D01*
X104284926Y-96880886D01*
X104137668Y-97028144D01*
X104076345Y-97061628D01*
X104006653Y-97056644D01*
X103950720Y-97014772D01*
X103944448Y-97005558D01*
X103915091Y-96957963D01*
X103848712Y-96850344D01*
X103724656Y-96726288D01*
X103593792Y-96645571D01*
X103575336Y-96634187D01*
X103575331Y-96634185D01*
X103549121Y-96625500D01*
X103408797Y-96579001D01*
X103408795Y-96579000D01*
X103306010Y-96568500D01*
X102005998Y-96568500D01*
X102005981Y-96568501D01*
X101903203Y-96579000D01*
X101903200Y-96579001D01*
X101736668Y-96634185D01*
X101736663Y-96634187D01*
X101587342Y-96726289D01*
X101463289Y-96850342D01*
X101371187Y-96999663D01*
X101371185Y-96999668D01*
X101355196Y-97047920D01*
X101316001Y-97166203D01*
X101316001Y-97166204D01*
X101316000Y-97166204D01*
X101305500Y-97268983D01*
X101305500Y-98819001D01*
X99406133Y-98819001D01*
X99405635Y-98813308D01*
X99346739Y-98593504D01*
X99250568Y-98387266D01*
X99120047Y-98200861D01*
X99120045Y-98200858D01*
X98959141Y-98039954D01*
X98772734Y-97909432D01*
X98772728Y-97909429D01*
X98714725Y-97882382D01*
X98662285Y-97836210D01*
X98643133Y-97769017D01*
X98663348Y-97702135D01*
X98714725Y-97657618D01*
X98772734Y-97630568D01*
X98959139Y-97500047D01*
X99120047Y-97339139D01*
X99250568Y-97152734D01*
X99346739Y-96946496D01*
X99405635Y-96726692D01*
X99425468Y-96500000D01*
X99422007Y-96460446D01*
X99413389Y-96361935D01*
X99405635Y-96273308D01*
X99387318Y-96204948D01*
X99388981Y-96135103D01*
X99419410Y-96085179D01*
X101842771Y-93661819D01*
X101904095Y-93628334D01*
X101930453Y-93625500D01*
X124750500Y-93625500D01*
X124817539Y-93645185D01*
X124863294Y-93697989D01*
X124874500Y-93749500D01*
X124874500Y-94599773D01*
X124854815Y-94666812D01*
X124821623Y-94701348D01*
X124628597Y-94836505D01*
X124461505Y-95003597D01*
X124351575Y-95160595D01*
X124296998Y-95204220D01*
X124227500Y-95211414D01*
X124165145Y-95179891D01*
X124148425Y-95160595D01*
X124038494Y-95003597D01*
X123871402Y-94836506D01*
X123871395Y-94836501D01*
X123677834Y-94700967D01*
X123677830Y-94700965D01*
X123625500Y-94676563D01*
X123463663Y-94601097D01*
X123463659Y-94601096D01*
X123463655Y-94601094D01*
X123235413Y-94539938D01*
X123235403Y-94539936D01*
X123000001Y-94519341D01*
X122999999Y-94519341D01*
X122764596Y-94539936D01*
X122764586Y-94539938D01*
X122536344Y-94601094D01*
X122536335Y-94601098D01*
X122322171Y-94700964D01*
X122322169Y-94700965D01*
X122128597Y-94836505D01*
X121981035Y-94984068D01*
X121919712Y-95017553D01*
X121850020Y-95012569D01*
X121794087Y-94970697D01*
X121787815Y-94961484D01*
X121692315Y-94806654D01*
X121568345Y-94682684D01*
X121419124Y-94590643D01*
X121419119Y-94590641D01*
X121252697Y-94535494D01*
X121252690Y-94535493D01*
X121149986Y-94525000D01*
X120800000Y-94525000D01*
X120800000Y-95422298D01*
X120780315Y-95489337D01*
X120727511Y-95535092D01*
X120658353Y-95545036D01*
X120641072Y-95541277D01*
X120635204Y-95539554D01*
X120550845Y-95527425D01*
X120533975Y-95525000D01*
X120466025Y-95525000D01*
X120364802Y-95539553D01*
X120358933Y-95541277D01*
X120289063Y-95541276D01*
X120230285Y-95503501D01*
X120201261Y-95439945D01*
X120199999Y-95422299D01*
X120199999Y-94525000D01*
X119850028Y-94525000D01*
X119850012Y-94525001D01*
X119747302Y-94535494D01*
X119580880Y-94590641D01*
X119580875Y-94590643D01*
X119431654Y-94682684D01*
X119307684Y-94806654D01*
X119215643Y-94955875D01*
X119215641Y-94955880D01*
X119160494Y-95122302D01*
X119160493Y-95122309D01*
X119150000Y-95225013D01*
X119150000Y-95700000D01*
X119927390Y-95700000D01*
X119994429Y-95719685D01*
X120040184Y-95772489D01*
X120050128Y-95841647D01*
X120046367Y-95858935D01*
X120029619Y-95915975D01*
X120025000Y-95931705D01*
X120025000Y-96068295D01*
X120044467Y-96134596D01*
X120046367Y-96141065D01*
X120046367Y-96210935D01*
X120008593Y-96269713D01*
X119945037Y-96298738D01*
X119927390Y-96300000D01*
X119150001Y-96300000D01*
X119150001Y-96774986D01*
X119160494Y-96877697D01*
X119215641Y-97044119D01*
X119215643Y-97044124D01*
X119307684Y-97193345D01*
X119431654Y-97317315D01*
X119580875Y-97409356D01*
X119580880Y-97409358D01*
X119747302Y-97464505D01*
X119747309Y-97464506D01*
X119850019Y-97474999D01*
X120199999Y-97474999D01*
X120199999Y-96577700D01*
X120219683Y-96510661D01*
X120272487Y-96464906D01*
X120341646Y-96454962D01*
X120358940Y-96458725D01*
X120364800Y-96460446D01*
X120377524Y-96462275D01*
X120466025Y-96475000D01*
X120466026Y-96475000D01*
X120533974Y-96475000D01*
X120533975Y-96475000D01*
X120635199Y-96460446D01*
X120635200Y-96460445D01*
X120641064Y-96458724D01*
X120710934Y-96458724D01*
X120769712Y-96496498D01*
X120798738Y-96560053D01*
X120800000Y-96577701D01*
X120800000Y-97474999D01*
X121149972Y-97474999D01*
X121149986Y-97474998D01*
X121252697Y-97464505D01*
X121419119Y-97409358D01*
X121419124Y-97409356D01*
X121568345Y-97317315D01*
X121692315Y-97193345D01*
X121787815Y-97038516D01*
X121839763Y-96991792D01*
X121908726Y-96980569D01*
X121972808Y-97008413D01*
X121981034Y-97015930D01*
X122128599Y-97163495D01*
X122128602Y-97163497D01*
X122128603Y-97163498D01*
X122322165Y-97299032D01*
X122322167Y-97299033D01*
X122322170Y-97299035D01*
X122536337Y-97398903D01*
X122536343Y-97398904D01*
X122536344Y-97398905D01*
X122575356Y-97409358D01*
X122764592Y-97460063D01*
X122952918Y-97476539D01*
X122999999Y-97480659D01*
X123000000Y-97480659D01*
X123000001Y-97480659D01*
X123039234Y-97477226D01*
X123235408Y-97460063D01*
X123463663Y-97398903D01*
X123677829Y-97299035D01*
X123871401Y-97163495D01*
X124038495Y-96996401D01*
X124148426Y-96839401D01*
X124203001Y-96795778D01*
X124272500Y-96788584D01*
X124334855Y-96820106D01*
X124351571Y-96839398D01*
X124422144Y-96940187D01*
X124461506Y-96996403D01*
X124545805Y-97080701D01*
X124628599Y-97163495D01*
X124687919Y-97205031D01*
X124822165Y-97299032D01*
X124822167Y-97299033D01*
X124822170Y-97299035D01*
X125036337Y-97398903D01*
X125036343Y-97398904D01*
X125036344Y-97398905D01*
X125075356Y-97409358D01*
X125264592Y-97460063D01*
X125452918Y-97476539D01*
X125499999Y-97480659D01*
X125500000Y-97480659D01*
X125500001Y-97480659D01*
X125539234Y-97477226D01*
X125735408Y-97460063D01*
X125963663Y-97398903D01*
X126177829Y-97299035D01*
X126371401Y-97163495D01*
X126538495Y-96996401D01*
X126648426Y-96839401D01*
X126703001Y-96795778D01*
X126772500Y-96788584D01*
X126834855Y-96820106D01*
X126851571Y-96839398D01*
X126922144Y-96940187D01*
X126961506Y-96996403D01*
X127045805Y-97080701D01*
X127128599Y-97163495D01*
X127187919Y-97205031D01*
X127322165Y-97299032D01*
X127322167Y-97299033D01*
X127322170Y-97299035D01*
X127536337Y-97398903D01*
X127536343Y-97398904D01*
X127536344Y-97398905D01*
X127575356Y-97409358D01*
X127764592Y-97460063D01*
X127952918Y-97476539D01*
X127999999Y-97480659D01*
X128000000Y-97480659D01*
X128000001Y-97480659D01*
X128039234Y-97477226D01*
X128235408Y-97460063D01*
X128463663Y-97398903D01*
X128677829Y-97299035D01*
X128871401Y-97163495D01*
X129038495Y-96996401D01*
X129174035Y-96802829D01*
X129223339Y-96697095D01*
X129269513Y-96644656D01*
X129335722Y-96625500D01*
X133292133Y-96625500D01*
X133359172Y-96645185D01*
X133404927Y-96697989D01*
X133411908Y-96717407D01*
X133451094Y-96863655D01*
X133451096Y-96863659D01*
X133451097Y-96863663D01*
X133491124Y-96949500D01*
X133550964Y-97077828D01*
X133550965Y-97077830D01*
X133686505Y-97271402D01*
X133853597Y-97438494D01*
X134047169Y-97574034D01*
X134047171Y-97574035D01*
X134261337Y-97673903D01*
X134489592Y-97735063D01*
X134666034Y-97750500D01*
X135033966Y-97750500D01*
X135210408Y-97735063D01*
X135438663Y-97673903D01*
X135652829Y-97574035D01*
X135846401Y-97438495D01*
X136013495Y-97271401D01*
X136149035Y-97077830D01*
X136248903Y-96863663D01*
X136310063Y-96635408D01*
X136330659Y-96400000D01*
X136310063Y-96164592D01*
X136271320Y-96020000D01*
X136256728Y-95965540D01*
X136258391Y-95895690D01*
X136288820Y-95845768D01*
X138383786Y-93750802D01*
X138396048Y-93740980D01*
X138395865Y-93740759D01*
X138401867Y-93735792D01*
X138401877Y-93735786D01*
X138449241Y-93685348D01*
X138470120Y-93664470D01*
X138474373Y-93658986D01*
X138478150Y-93654563D01*
X138510062Y-93620582D01*
X138519714Y-93603023D01*
X138530389Y-93586772D01*
X138542674Y-93570936D01*
X138561186Y-93528152D01*
X138563742Y-93522935D01*
X138586197Y-93482092D01*
X138591180Y-93462680D01*
X138597477Y-93444291D01*
X138605438Y-93425895D01*
X138612729Y-93379853D01*
X138613908Y-93374162D01*
X138625500Y-93329019D01*
X138625500Y-93308982D01*
X138627027Y-93289582D01*
X138630160Y-93269804D01*
X138625775Y-93223415D01*
X138625500Y-93217577D01*
X138625500Y-83582738D01*
X138627224Y-83567124D01*
X138626938Y-83567097D01*
X138627672Y-83559334D01*
X138627463Y-83552697D01*
X138625500Y-83490203D01*
X138625500Y-83460650D01*
X138625500Y-72994199D01*
X138627224Y-72978579D01*
X138626939Y-72978553D01*
X138627671Y-72970797D01*
X138627673Y-72970790D01*
X138625500Y-72901642D01*
X138625500Y-72872107D01*
X138624631Y-72865229D01*
X138624172Y-72859400D01*
X138622709Y-72812829D01*
X138617122Y-72793601D01*
X138613174Y-72774541D01*
X138611918Y-72764596D01*
X138610664Y-72754665D01*
X138610663Y-72754663D01*
X138610663Y-72754661D01*
X138593512Y-72711344D01*
X138591619Y-72705815D01*
X138578618Y-72661066D01*
X138578616Y-72661063D01*
X138568423Y-72643828D01*
X138559861Y-72626351D01*
X138552487Y-72607727D01*
X138552486Y-72607725D01*
X138525079Y-72570002D01*
X138521888Y-72565143D01*
X138508992Y-72543337D01*
X138498170Y-72525037D01*
X138498168Y-72525035D01*
X138498165Y-72525031D01*
X138484006Y-72510872D01*
X138471368Y-72496076D01*
X138463791Y-72485647D01*
X138459594Y-72479870D01*
X138455276Y-72476298D01*
X138423688Y-72450166D01*
X138419376Y-72446243D01*
X136339346Y-70366212D01*
X136329523Y-70353950D01*
X136329302Y-70354134D01*
X136324329Y-70348123D01*
X136305767Y-70330692D01*
X136273907Y-70300773D01*
X136258565Y-70285431D01*
X136253018Y-70279883D01*
X136247529Y-70275625D01*
X136243104Y-70271847D01*
X136209125Y-70239938D01*
X136209123Y-70239936D01*
X136209120Y-70239935D01*
X136191572Y-70230288D01*
X136175306Y-70219604D01*
X136159479Y-70207327D01*
X136159478Y-70207326D01*
X136159476Y-70207325D01*
X136116711Y-70188818D01*
X136111465Y-70186248D01*
X136070636Y-70163803D01*
X136070635Y-70163802D01*
X136051236Y-70158822D01*
X136032824Y-70152518D01*
X136014441Y-70144562D01*
X136014435Y-70144560D01*
X135968417Y-70137272D01*
X135962695Y-70136087D01*
X135917564Y-70124500D01*
X135917562Y-70124500D01*
X135897527Y-70124500D01*
X135878129Y-70122973D01*
X135870705Y-70121797D01*
X135858348Y-70119840D01*
X135858347Y-70119840D01*
X135811959Y-70124225D01*
X135806121Y-70124500D01*
X128575049Y-70124500D01*
X128508010Y-70104815D01*
X128487368Y-70088181D01*
X128339141Y-69939954D01*
X128152734Y-69809432D01*
X128152732Y-69809431D01*
X127946497Y-69713261D01*
X127946488Y-69713258D01*
X127726697Y-69654366D01*
X127726693Y-69654365D01*
X127726692Y-69654365D01*
X127726691Y-69654364D01*
X127726686Y-69654364D01*
X127500002Y-69634532D01*
X127499998Y-69634532D01*
X127273313Y-69654364D01*
X127273302Y-69654366D01*
X127053511Y-69713258D01*
X127053502Y-69713261D01*
X126847267Y-69809431D01*
X126847265Y-69809432D01*
X126660858Y-69939954D01*
X126499954Y-70100858D01*
X126369432Y-70287265D01*
X126369431Y-70287267D01*
X126273261Y-70493502D01*
X126273258Y-70493511D01*
X126214366Y-70713302D01*
X126214364Y-70713313D01*
X126194532Y-70939998D01*
X126194532Y-70940001D01*
X126214364Y-71166686D01*
X126214366Y-71166697D01*
X126273258Y-71386488D01*
X126273261Y-71386497D01*
X126369431Y-71592732D01*
X126369432Y-71592734D01*
X126499954Y-71779141D01*
X126660858Y-71940045D01*
X126660861Y-71940047D01*
X126847266Y-72070568D01*
X127053504Y-72166739D01*
X127273308Y-72225635D01*
X127435230Y-72239801D01*
X127499998Y-72245468D01*
X127500000Y-72245468D01*
X127500002Y-72245468D01*
X127559128Y-72240295D01*
X127726692Y-72225635D01*
X127946496Y-72166739D01*
X128152734Y-72070568D01*
X128339139Y-71940047D01*
X128500047Y-71779139D01*
X128630568Y-71592734D01*
X128698481Y-71447094D01*
X128744654Y-71394656D01*
X128810863Y-71375500D01*
X135528091Y-71375500D01*
X135595130Y-71395185D01*
X135615772Y-71411819D01*
X135696272Y-71492319D01*
X135729757Y-71553642D01*
X135724773Y-71623334D01*
X135682901Y-71679267D01*
X135617437Y-71703684D01*
X135608591Y-71704000D01*
X135300000Y-71704000D01*
X135300000Y-72476298D01*
X135280315Y-72543337D01*
X135227511Y-72589092D01*
X135158353Y-72599036D01*
X135141072Y-72595277D01*
X135135204Y-72593554D01*
X135050845Y-72581425D01*
X135033975Y-72579000D01*
X134966025Y-72579000D01*
X134864795Y-72593554D01*
X134858928Y-72595277D01*
X134789058Y-72595273D01*
X134730282Y-72557495D01*
X134701261Y-72493938D01*
X134700000Y-72476298D01*
X134700000Y-71704000D01*
X134225028Y-71704000D01*
X134225012Y-71704001D01*
X134122302Y-71714494D01*
X133955880Y-71769641D01*
X133955875Y-71769643D01*
X133806654Y-71861684D01*
X133682684Y-71985654D01*
X133590643Y-72134875D01*
X133590641Y-72134880D01*
X133535494Y-72301302D01*
X133535493Y-72301309D01*
X133525000Y-72404013D01*
X133525000Y-72404026D01*
X133524999Y-72754000D01*
X134427390Y-72754000D01*
X134494429Y-72773685D01*
X134540184Y-72826489D01*
X134550128Y-72895647D01*
X134546367Y-72912933D01*
X134545118Y-72917187D01*
X134525000Y-72985704D01*
X134525000Y-73122295D01*
X134546367Y-73195065D01*
X134546367Y-73264935D01*
X134508593Y-73323713D01*
X134445037Y-73352738D01*
X134427390Y-73354000D01*
X133525001Y-73354000D01*
X133525001Y-73703986D01*
X133535494Y-73806697D01*
X133590641Y-73973119D01*
X133590643Y-73973124D01*
X133682684Y-74122345D01*
X133806654Y-74246315D01*
X133961484Y-74341815D01*
X134008208Y-74393763D01*
X134019431Y-74462726D01*
X133991587Y-74526808D01*
X133984069Y-74535035D01*
X133836501Y-74682603D01*
X133836501Y-74682604D01*
X133700967Y-74876165D01*
X133700965Y-74876169D01*
X133601098Y-75090335D01*
X133601094Y-75090344D01*
X133539938Y-75318586D01*
X133539936Y-75318596D01*
X133519341Y-75553999D01*
X133519341Y-75554002D01*
X133523841Y-75605438D01*
X133510074Y-75673938D01*
X133487994Y-75703926D01*
X128520181Y-80671740D01*
X128458858Y-80705225D01*
X128389166Y-80700241D01*
X128333233Y-80658369D01*
X128308816Y-80592905D01*
X128308500Y-80584059D01*
X128308500Y-79642048D01*
X128328185Y-79575009D01*
X128344814Y-79554371D01*
X128500047Y-79399139D01*
X128630568Y-79212734D01*
X128726739Y-79006496D01*
X128785635Y-78786692D01*
X128803173Y-78586235D01*
X128805468Y-78560001D01*
X128805468Y-78559998D01*
X128794980Y-78440126D01*
X128785635Y-78333308D01*
X128732051Y-78133327D01*
X128726741Y-78113511D01*
X128726738Y-78113502D01*
X128717730Y-78094184D01*
X128630568Y-77907266D01*
X128500047Y-77720861D01*
X128500045Y-77720858D01*
X128339141Y-77559954D01*
X128152734Y-77429432D01*
X128152732Y-77429431D01*
X127946497Y-77333261D01*
X127946488Y-77333258D01*
X127726697Y-77274366D01*
X127726693Y-77274365D01*
X127726692Y-77274365D01*
X127726691Y-77274364D01*
X127726686Y-77274364D01*
X127500002Y-77254532D01*
X127499998Y-77254532D01*
X127273313Y-77274364D01*
X127273302Y-77274366D01*
X127053511Y-77333258D01*
X127053502Y-77333261D01*
X126847267Y-77429431D01*
X126847265Y-77429432D01*
X126660858Y-77559954D01*
X126499954Y-77720858D01*
X126369432Y-77907265D01*
X126369431Y-77907267D01*
X126273261Y-78113502D01*
X126273258Y-78113511D01*
X126214366Y-78333302D01*
X126214364Y-78333313D01*
X126194532Y-78559998D01*
X126194532Y-78560001D01*
X126214364Y-78786686D01*
X126214366Y-78786697D01*
X126273258Y-79006488D01*
X126273261Y-79006497D01*
X126369431Y-79212732D01*
X126369432Y-79212734D01*
X126499954Y-79399141D01*
X126660852Y-79560039D01*
X126660858Y-79560044D01*
X126660861Y-79560047D01*
X126660864Y-79560049D01*
X126663200Y-79562009D01*
X126663951Y-79563138D01*
X126664689Y-79563876D01*
X126664540Y-79564024D01*
X126701905Y-79620178D01*
X126707499Y-79657003D01*
X126707499Y-82684785D01*
X126704391Y-82712373D01*
X126699500Y-82733805D01*
X126699500Y-82909951D01*
X126679815Y-82976990D01*
X126663181Y-82997632D01*
X126497632Y-83163181D01*
X126436309Y-83196666D01*
X126409951Y-83199500D01*
X122882940Y-83199500D01*
X122815901Y-83179815D01*
X122795259Y-83163181D01*
X122688823Y-83056745D01*
X122655338Y-82995422D01*
X122660322Y-82925730D01*
X122702194Y-82869797D01*
X122765695Y-82845536D01*
X122885408Y-82835063D01*
X123113663Y-82773903D01*
X123327829Y-82674035D01*
X123521401Y-82538495D01*
X123688495Y-82371401D01*
X123824035Y-82177830D01*
X123923903Y-81963663D01*
X123985063Y-81735408D01*
X124005659Y-81500000D01*
X123985063Y-81264592D01*
X123937429Y-81086819D01*
X123923905Y-81036344D01*
X123923904Y-81036341D01*
X123923903Y-81036337D01*
X123824035Y-80822171D01*
X123824034Y-80822169D01*
X123688494Y-80628597D01*
X123540932Y-80481035D01*
X123507447Y-80419712D01*
X123512431Y-80350020D01*
X123554303Y-80294087D01*
X123563516Y-80287815D01*
X123718345Y-80192315D01*
X123842315Y-80068345D01*
X123934356Y-79919124D01*
X123934358Y-79919119D01*
X123989505Y-79752697D01*
X123989506Y-79752690D01*
X123999999Y-79649986D01*
X124000000Y-79649973D01*
X124000000Y-79300000D01*
X123098666Y-79300000D01*
X123031627Y-79280315D01*
X122985872Y-79227511D01*
X122975928Y-79158353D01*
X122979689Y-79141066D01*
X122999999Y-79071892D01*
X123000000Y-79071889D01*
X123000000Y-78928110D01*
X122999999Y-78928107D01*
X122979689Y-78858934D01*
X122979689Y-78789064D01*
X123017464Y-78730286D01*
X123081020Y-78701262D01*
X123098666Y-78700000D01*
X123999999Y-78700000D01*
X123999999Y-78350028D01*
X123999998Y-78350013D01*
X123989505Y-78247302D01*
X123934358Y-78080880D01*
X123934356Y-78080875D01*
X123842315Y-77931654D01*
X123718345Y-77807684D01*
X123569124Y-77715643D01*
X123569119Y-77715641D01*
X123402697Y-77660494D01*
X123402690Y-77660493D01*
X123299986Y-77650000D01*
X122800000Y-77650000D01*
X122800000Y-78395975D01*
X122780315Y-78463014D01*
X122727511Y-78508769D01*
X122658353Y-78518713D01*
X122643608Y-78515505D01*
X122549993Y-78502046D01*
X122535763Y-78500000D01*
X122464237Y-78500000D01*
X122348906Y-78516582D01*
X122348671Y-78514953D01*
X122289059Y-78514950D01*
X122230283Y-78477173D01*
X122201261Y-78413615D01*
X122200000Y-78395975D01*
X122200000Y-77650000D01*
X121700028Y-77650000D01*
X121700012Y-77650001D01*
X121597302Y-77660494D01*
X121430880Y-77715641D01*
X121430875Y-77715643D01*
X121281654Y-77807684D01*
X121157684Y-77931654D01*
X121065643Y-78080875D01*
X121065641Y-78080880D01*
X121010494Y-78247302D01*
X121010493Y-78247309D01*
X121000000Y-78350013D01*
X121000000Y-78700000D01*
X121901334Y-78700000D01*
X121968373Y-78719685D01*
X122014128Y-78772489D01*
X122024072Y-78841647D01*
X122020311Y-78858934D01*
X122000000Y-78928107D01*
X122000000Y-79071892D01*
X122020311Y-79141066D01*
X122020311Y-79210936D01*
X121982536Y-79269714D01*
X121918980Y-79298738D01*
X121901334Y-79300000D01*
X121000001Y-79300000D01*
X121000001Y-79649986D01*
X121010494Y-79752697D01*
X121065641Y-79919119D01*
X121065643Y-79919124D01*
X121157684Y-80068345D01*
X121281654Y-80192315D01*
X121436484Y-80287815D01*
X121483208Y-80339763D01*
X121494431Y-80408726D01*
X121466587Y-80472808D01*
X121459069Y-80481035D01*
X121311501Y-80628603D01*
X121311501Y-80628604D01*
X121175967Y-80822165D01*
X121175965Y-80822169D01*
X121144868Y-80888857D01*
X121077510Y-81033308D01*
X121076098Y-81036335D01*
X121076095Y-81036341D01*
X121045531Y-81150410D01*
X121009166Y-81210070D01*
X120946319Y-81240599D01*
X120876943Y-81232304D01*
X120838075Y-81205997D01*
X119252261Y-79620183D01*
X119216904Y-79597967D01*
X119211230Y-79593941D01*
X119178589Y-79567910D01*
X119140959Y-79549787D01*
X119134872Y-79546422D01*
X119099525Y-79524212D01*
X119060114Y-79510421D01*
X119053688Y-79507759D01*
X119016061Y-79489639D01*
X118975345Y-79480345D01*
X118968662Y-79478420D01*
X118929259Y-79464632D01*
X118887763Y-79459955D01*
X118880908Y-79458791D01*
X118840200Y-79449501D01*
X118840196Y-79449500D01*
X118840194Y-79449500D01*
X118794954Y-79449500D01*
X109840194Y-79449500D01*
X109659805Y-79449500D01*
X109659803Y-79449500D01*
X109659797Y-79449501D01*
X109619098Y-79458790D01*
X109612242Y-79459955D01*
X109570743Y-79464632D01*
X109531328Y-79478423D01*
X109524646Y-79480348D01*
X109483940Y-79489640D01*
X109446326Y-79507753D01*
X109439901Y-79510414D01*
X109400482Y-79524209D01*
X109400474Y-79524213D01*
X109365117Y-79546428D01*
X109359032Y-79549791D01*
X109321413Y-79567908D01*
X109321411Y-79567909D01*
X109288769Y-79593941D01*
X109283096Y-79597966D01*
X109247739Y-79620183D01*
X109247737Y-79620184D01*
X109247738Y-79620184D01*
X109225874Y-79642048D01*
X109198307Y-79669614D01*
X109198306Y-79669615D01*
X105254739Y-83613181D01*
X105193416Y-83646666D01*
X105167058Y-83649500D01*
X104224998Y-83649500D01*
X104224980Y-83649501D01*
X104122203Y-83660000D01*
X104122200Y-83660001D01*
X103955668Y-83715185D01*
X103955663Y-83715187D01*
X103806342Y-83807289D01*
X103682289Y-83931342D01*
X103590187Y-84080663D01*
X103590184Y-84080671D01*
X103578972Y-84114506D01*
X103539199Y-84171950D01*
X103474683Y-84198772D01*
X103461267Y-84199500D01*
X102242940Y-84199500D01*
X102175901Y-84179815D01*
X102155259Y-84163181D01*
X99452404Y-81460326D01*
X99418919Y-81399003D01*
X99416557Y-81361842D01*
X99425468Y-81260000D01*
X99405635Y-81033308D01*
X99346739Y-80813504D01*
X99250568Y-80607266D01*
X99120047Y-80420861D01*
X99120045Y-80420858D01*
X98959141Y-80259954D01*
X98772735Y-80129433D01*
X98772736Y-80129433D01*
X98772734Y-80129432D01*
X98714132Y-80102105D01*
X98661694Y-80055933D01*
X98642543Y-79988739D01*
X98662759Y-79921858D01*
X98714135Y-79877341D01*
X98772483Y-79850133D01*
X98803882Y-79828146D01*
X98371099Y-79395363D01*
X98337614Y-79334040D01*
X98342598Y-79264348D01*
X98384470Y-79208415D01*
X98403503Y-79197361D01*
X98408451Y-79194352D01*
X98408458Y-79194349D01*
X98525739Y-79098934D01*
X98605312Y-78986204D01*
X98660052Y-78942788D01*
X98729577Y-78935858D01*
X98791812Y-78967616D01*
X98794296Y-78970032D01*
X99228146Y-79403882D01*
X99250135Y-79372480D01*
X99250136Y-79372478D01*
X99346264Y-79166331D01*
X99346269Y-79166317D01*
X99405139Y-78946610D01*
X99405141Y-78946599D01*
X99424966Y-78720002D01*
X99424966Y-78719997D01*
X99405141Y-78493400D01*
X99405139Y-78493389D01*
X99346269Y-78273682D01*
X99346265Y-78273673D01*
X99250134Y-78067518D01*
X99250133Y-78067516D01*
X99228146Y-78036116D01*
X99228146Y-78036115D01*
X98792651Y-78471611D01*
X98731328Y-78505096D01*
X98661636Y-78500112D01*
X98605703Y-78458240D01*
X98594872Y-78440978D01*
X98591101Y-78433701D01*
X98573558Y-78399844D01*
X98470362Y-78289348D01*
X98470361Y-78289347D01*
X98470360Y-78289346D01*
X98470356Y-78289343D01*
X98391329Y-78241285D01*
X98344277Y-78189634D01*
X98332620Y-78120743D01*
X98360058Y-78056487D01*
X98368077Y-78047657D01*
X98803883Y-77611852D01*
X98803882Y-77611851D01*
X98772485Y-77589867D01*
X98714133Y-77562657D01*
X98661694Y-77516484D01*
X98642542Y-77449291D01*
X98662758Y-77382410D01*
X98714129Y-77337895D01*
X98772734Y-77310568D01*
X98959139Y-77180047D01*
X99120047Y-77019139D01*
X99250568Y-76832734D01*
X99346739Y-76626496D01*
X99405635Y-76406692D01*
X99425468Y-76180000D01*
X99421988Y-76140229D01*
X99412215Y-76028519D01*
X99405635Y-75953308D01*
X99356824Y-75771141D01*
X99346741Y-75733511D01*
X99346738Y-75733502D01*
X99313881Y-75663040D01*
X99250568Y-75527266D01*
X99127941Y-75352135D01*
X99120045Y-75340858D01*
X98959142Y-75179955D01*
X98948649Y-75172608D01*
X98922051Y-75153984D01*
X98881454Y-75106212D01*
X98880360Y-75103941D01*
X98880360Y-75103939D01*
X98862236Y-75066305D01*
X98859579Y-75059891D01*
X98845789Y-75020478D01*
X98823569Y-74985116D01*
X98820218Y-74979054D01*
X98802092Y-74941413D01*
X98776048Y-74908755D01*
X98772032Y-74903095D01*
X98755111Y-74876165D01*
X98749817Y-74867739D01*
X97081637Y-73199559D01*
X97048152Y-73138236D01*
X97053136Y-73068544D01*
X97095008Y-73012611D01*
X97137225Y-72992103D01*
X97196317Y-72976269D01*
X97196326Y-72976265D01*
X97402482Y-72880134D01*
X97588820Y-72749657D01*
X97749657Y-72588820D01*
X97880134Y-72402482D01*
X97976265Y-72196326D01*
X97976268Y-72196320D01*
X98015475Y-72050000D01*
X97248423Y-72050000D01*
X97181384Y-72030315D01*
X97135629Y-71977511D01*
X97125685Y-71908353D01*
X97133165Y-71884755D01*
X97132150Y-71884426D01*
X97135163Y-71875151D01*
X97135165Y-71875148D01*
X97136137Y-71869013D01*
X97154986Y-71750003D01*
X97154986Y-71749996D01*
X97135166Y-71624856D01*
X97132150Y-71615574D01*
X97134997Y-71614648D01*
X97125043Y-71561611D01*
X97151328Y-71496874D01*
X97208439Y-71456623D01*
X97248423Y-71450000D01*
X98015475Y-71450000D01*
X98015474Y-71449999D01*
X97976268Y-71303679D01*
X97976265Y-71303673D01*
X97880134Y-71097517D01*
X97749657Y-70911179D01*
X97588820Y-70750342D01*
X97402482Y-70619865D01*
X97196326Y-70523734D01*
X97196320Y-70523731D01*
X97050000Y-70484525D01*
X97050000Y-71251577D01*
X97030315Y-71318616D01*
X96977511Y-71364371D01*
X96908353Y-71374315D01*
X96884755Y-71366834D01*
X96884426Y-71367850D01*
X96875144Y-71364833D01*
X96781486Y-71350000D01*
X96781481Y-71350000D01*
X96718519Y-71350000D01*
X96718514Y-71350000D01*
X96624855Y-71364833D01*
X96615574Y-71367850D01*
X96614648Y-71365002D01*
X96561611Y-71374957D01*
X96496874Y-71348672D01*
X96456623Y-71291561D01*
X96450000Y-71251577D01*
X96450000Y-70484525D01*
X96449999Y-70484525D01*
X96303679Y-70523731D01*
X96303673Y-70523734D01*
X96097517Y-70619865D01*
X95911179Y-70750342D01*
X95750342Y-70911179D01*
X95619865Y-71097517D01*
X95523734Y-71303673D01*
X95523728Y-71303688D01*
X95507895Y-71362776D01*
X95471529Y-71422436D01*
X95408682Y-71452964D01*
X95339307Y-71444669D01*
X95300440Y-71418362D01*
X92344759Y-68462681D01*
X92311274Y-68401358D01*
X92316258Y-68331666D01*
X92344759Y-68287319D01*
X92595259Y-68036819D01*
X92656582Y-68003334D01*
X92682940Y-68000500D01*
X95315863Y-68000500D01*
X95382902Y-68020185D01*
X95428657Y-68072989D01*
X95438601Y-68142147D01*
X95435638Y-68156593D01*
X95404366Y-68273302D01*
X95404364Y-68273313D01*
X95384532Y-68499998D01*
X95384532Y-68500001D01*
X95404364Y-68726686D01*
X95404366Y-68726697D01*
X95463258Y-68946488D01*
X95463261Y-68946497D01*
X95559431Y-69152732D01*
X95559432Y-69152734D01*
X95689954Y-69339141D01*
X95850858Y-69500045D01*
X95850861Y-69500047D01*
X96037266Y-69630568D01*
X96243504Y-69726739D01*
X96243509Y-69726740D01*
X96243511Y-69726741D01*
X96296415Y-69740916D01*
X96463308Y-69785635D01*
X96625230Y-69799801D01*
X96689998Y-69805468D01*
X96690000Y-69805468D01*
X96690002Y-69805468D01*
X96746672Y-69800509D01*
X96916692Y-69785635D01*
X97136496Y-69726739D01*
X97342734Y-69630568D01*
X97529139Y-69500047D01*
X97690047Y-69339139D01*
X97820568Y-69152734D01*
X97916739Y-68946496D01*
X97975635Y-68726692D01*
X97995468Y-68500000D01*
X97995459Y-68499901D01*
X97984030Y-68369261D01*
X97975635Y-68273308D01*
X97956645Y-68202435D01*
X97944362Y-68156593D01*
X97946025Y-68086743D01*
X97985188Y-68028881D01*
X98049417Y-68001377D01*
X98064137Y-68000500D01*
X102935863Y-68000500D01*
X103002902Y-68020185D01*
X103048657Y-68072989D01*
X103058601Y-68142147D01*
X103055638Y-68156593D01*
X103024366Y-68273302D01*
X103024364Y-68273313D01*
X103004532Y-68499998D01*
X103004532Y-68500001D01*
X103024364Y-68726686D01*
X103024366Y-68726697D01*
X103083258Y-68946488D01*
X103083261Y-68946497D01*
X103179431Y-69152732D01*
X103179432Y-69152734D01*
X103309954Y-69339141D01*
X103470858Y-69500045D01*
X103631623Y-69612613D01*
X103675248Y-69667189D01*
X103684500Y-69714188D01*
X103684500Y-70577823D01*
X103664815Y-70644862D01*
X103631624Y-70679398D01*
X103530856Y-70749956D01*
X103369954Y-70910858D01*
X103239432Y-71097265D01*
X103239431Y-71097267D01*
X103143261Y-71303502D01*
X103143258Y-71303511D01*
X103084366Y-71523302D01*
X103084364Y-71523313D01*
X103064532Y-71749998D01*
X103064532Y-71750001D01*
X103084364Y-71976686D01*
X103084366Y-71976697D01*
X103143258Y-72196488D01*
X103143261Y-72196497D01*
X103239431Y-72402732D01*
X103239432Y-72402734D01*
X103369954Y-72589141D01*
X103530857Y-72750044D01*
X103530860Y-72750046D01*
X103530861Y-72750047D01*
X103691623Y-72862613D01*
X103735247Y-72917187D01*
X103744499Y-72964186D01*
X103744499Y-74779201D01*
X103724814Y-74846240D01*
X103672010Y-74891995D01*
X103602852Y-74901939D01*
X103539296Y-74872914D01*
X103524645Y-74857865D01*
X103514954Y-74846057D01*
X103453647Y-74771353D01*
X103438905Y-74759255D01*
X103345504Y-74682603D01*
X103297494Y-74643202D01*
X103297492Y-74643201D01*
X103297488Y-74643198D01*
X103119345Y-74547978D01*
X102926031Y-74489337D01*
X102815900Y-74478490D01*
X102775380Y-74474500D01*
X102224620Y-74474500D01*
X102187433Y-74478162D01*
X102073968Y-74489337D01*
X101880654Y-74547978D01*
X101702511Y-74643198D01*
X101702504Y-74643203D01*
X101546352Y-74771352D01*
X101418203Y-74927504D01*
X101418198Y-74927511D01*
X101322978Y-75105654D01*
X101264337Y-75298968D01*
X101244538Y-75500000D01*
X101264337Y-75701031D01*
X101285605Y-75771141D01*
X101322977Y-75894341D01*
X101418202Y-76072494D01*
X101418203Y-76072496D01*
X101420368Y-76076545D01*
X101434610Y-76144948D01*
X101420368Y-76193452D01*
X101322978Y-76375654D01*
X101264337Y-76568968D01*
X101244538Y-76769999D01*
X101264337Y-76971031D01*
X101323486Y-77166018D01*
X101324109Y-77235885D01*
X101309902Y-77264589D01*
X101310895Y-77265132D01*
X101306645Y-77272913D01*
X101256403Y-77407620D01*
X101256401Y-77407627D01*
X101250000Y-77467155D01*
X101250000Y-77740000D01*
X101921527Y-77740000D01*
X101957522Y-77745339D01*
X102055292Y-77774997D01*
X102113731Y-77813295D01*
X102142187Y-77877107D01*
X102133810Y-77936670D01*
X102133971Y-77936711D01*
X102133596Y-77938188D01*
X102132855Y-77943463D01*
X102131449Y-77946667D01*
X102131448Y-77946672D01*
X102121113Y-78071392D01*
X102123516Y-78080880D01*
X102150024Y-78185563D01*
X102147400Y-78255380D01*
X102107444Y-78312698D01*
X102042842Y-78339314D01*
X102029819Y-78340000D01*
X101250000Y-78340000D01*
X101250000Y-78612844D01*
X101256401Y-78672372D01*
X101256403Y-78672379D01*
X101306645Y-78807086D01*
X101306649Y-78807093D01*
X101392809Y-78922187D01*
X101392812Y-78922190D01*
X101507906Y-79008350D01*
X101507913Y-79008354D01*
X101642620Y-79058596D01*
X101642627Y-79058598D01*
X101702155Y-79064999D01*
X101702172Y-79065000D01*
X102200000Y-79065000D01*
X102200000Y-78507165D01*
X102219685Y-78440126D01*
X102272489Y-78394371D01*
X102341647Y-78384427D01*
X102364263Y-78389884D01*
X102437422Y-78415000D01*
X102437424Y-78415000D01*
X102531073Y-78415000D01*
X102623446Y-78399586D01*
X102623447Y-78399585D01*
X102623449Y-78399585D01*
X102633166Y-78396250D01*
X102634247Y-78399399D01*
X102685286Y-78388487D01*
X102750663Y-78413137D01*
X102792334Y-78469220D01*
X102799999Y-78512139D01*
X102799999Y-79064999D01*
X102800000Y-79065000D01*
X103297828Y-79065000D01*
X103297844Y-79064999D01*
X103357372Y-79058598D01*
X103357379Y-79058596D01*
X103492086Y-79008354D01*
X103492093Y-79008350D01*
X103607187Y-78922190D01*
X103607190Y-78922187D01*
X103693350Y-78807093D01*
X103693354Y-78807086D01*
X103743596Y-78672379D01*
X103743598Y-78672372D01*
X103749999Y-78612844D01*
X103750000Y-78612827D01*
X103750000Y-78340000D01*
X102967693Y-78340000D01*
X102900654Y-78320315D01*
X102854899Y-78267511D01*
X102844955Y-78198353D01*
X102854137Y-78166190D01*
X102862303Y-78147573D01*
X102868551Y-78133330D01*
X102878886Y-78008605D01*
X102857700Y-77924942D01*
X102860325Y-77855126D01*
X102900281Y-77797809D01*
X102941908Y-77775846D01*
X103042478Y-77745338D01*
X103078473Y-77740000D01*
X103750000Y-77740000D01*
X103750000Y-77467172D01*
X103749999Y-77467155D01*
X103743598Y-77407627D01*
X103743596Y-77407620D01*
X103693354Y-77272913D01*
X103689103Y-77265128D01*
X103691287Y-77263935D01*
X103671490Y-77210862D01*
X103676514Y-77166016D01*
X103677020Y-77164344D01*
X103677023Y-77164341D01*
X103735662Y-76971033D01*
X103755462Y-76770000D01*
X103748131Y-76695570D01*
X103761150Y-76626925D01*
X103783850Y-76595739D01*
X104416721Y-75962868D01*
X104478042Y-75929385D01*
X104547734Y-75934369D01*
X104603667Y-75976241D01*
X104628084Y-76041705D01*
X104624974Y-76079497D01*
X104584318Y-76248847D01*
X104584317Y-76248852D01*
X104568227Y-76453291D01*
X104564551Y-76500000D01*
X104584317Y-76751151D01*
X104643126Y-76996110D01*
X104739533Y-77228859D01*
X104871160Y-77443653D01*
X104871161Y-77443656D01*
X104895996Y-77472734D01*
X105034776Y-77635224D01*
X105157431Y-77739981D01*
X105226343Y-77798838D01*
X105226346Y-77798839D01*
X105441140Y-77930466D01*
X105666953Y-78024000D01*
X105673889Y-78026873D01*
X105918852Y-78085683D01*
X106170000Y-78105449D01*
X106421148Y-78085683D01*
X106666111Y-78026873D01*
X106898859Y-77930466D01*
X107113659Y-77798836D01*
X107305224Y-77635224D01*
X107468836Y-77443659D01*
X107600466Y-77228859D01*
X107696873Y-76996111D01*
X107755683Y-76751148D01*
X107775449Y-76500000D01*
X107755683Y-76248852D01*
X107696873Y-76003889D01*
X107681680Y-75967209D01*
X107600466Y-75771140D01*
X107468839Y-75556346D01*
X107468838Y-75556343D01*
X107416943Y-75495582D01*
X107305224Y-75364776D01*
X107169949Y-75249240D01*
X107113656Y-75201161D01*
X107113653Y-75201160D01*
X106898858Y-75069533D01*
X106898857Y-75069532D01*
X106872045Y-75058426D01*
X106817642Y-75014584D01*
X106795579Y-74948289D01*
X106795500Y-74943866D01*
X106795500Y-72390451D01*
X106815185Y-72323412D01*
X106831814Y-72302774D01*
X107847771Y-71286817D01*
X107909094Y-71253333D01*
X107935452Y-71250499D01*
X109064547Y-71250499D01*
X109131586Y-71270184D01*
X109152228Y-71286818D01*
X109776595Y-71911185D01*
X109786420Y-71923449D01*
X109786641Y-71923267D01*
X109791611Y-71929274D01*
X109791614Y-71929277D01*
X109791615Y-71929278D01*
X109842052Y-71976642D01*
X109862931Y-71997521D01*
X109868405Y-72001767D01*
X109872843Y-72005557D01*
X109906819Y-72037463D01*
X109906823Y-72037465D01*
X109924374Y-72047114D01*
X109940632Y-72057793D01*
X109956465Y-72070075D01*
X109973950Y-72077641D01*
X109999238Y-72088584D01*
X110004482Y-72091153D01*
X110045309Y-72113598D01*
X110064713Y-72118580D01*
X110083111Y-72124879D01*
X110101506Y-72132839D01*
X110147530Y-72140127D01*
X110153233Y-72141308D01*
X110198382Y-72152901D01*
X110218417Y-72152901D01*
X110237814Y-72154427D01*
X110257597Y-72157561D01*
X110303984Y-72153176D01*
X110309823Y-72152901D01*
X115281567Y-72152901D01*
X115348606Y-72172586D01*
X115380521Y-72202174D01*
X115433237Y-72271982D01*
X115563193Y-72390451D01*
X115578069Y-72404013D01*
X115583958Y-72409381D01*
X115583960Y-72409383D01*
X115665765Y-72460034D01*
X115757363Y-72516749D01*
X115947544Y-72590425D01*
X116148024Y-72627901D01*
X116148026Y-72627901D01*
X116351974Y-72627901D01*
X116351976Y-72627901D01*
X116552456Y-72590425D01*
X116742637Y-72516749D01*
X116916041Y-72409382D01*
X117066764Y-72271980D01*
X117189673Y-72109222D01*
X117210727Y-72066940D01*
X117214500Y-72059363D01*
X117262002Y-72008126D01*
X117329665Y-71990704D01*
X117396006Y-72012629D01*
X117439961Y-72066940D01*
X117449500Y-72114634D01*
X117449500Y-74197058D01*
X117429815Y-74264097D01*
X117413181Y-74284739D01*
X116834739Y-74863181D01*
X116773416Y-74896666D01*
X116747058Y-74899500D01*
X115182129Y-74899500D01*
X115182123Y-74899501D01*
X115122516Y-74905908D01*
X114987671Y-74956202D01*
X114987664Y-74956206D01*
X114872455Y-75042452D01*
X114872452Y-75042455D01*
X114786206Y-75157664D01*
X114786202Y-75157671D01*
X114735908Y-75292517D01*
X114729501Y-75352116D01*
X114729500Y-75352135D01*
X114729500Y-77647870D01*
X114729501Y-77647876D01*
X114735908Y-77707483D01*
X114786202Y-77842328D01*
X114786206Y-77842335D01*
X114872452Y-77957544D01*
X114872455Y-77957547D01*
X114987664Y-78043793D01*
X114987671Y-78043797D01*
X115122517Y-78094091D01*
X115122516Y-78094091D01*
X115129444Y-78094835D01*
X115182127Y-78100500D01*
X117477872Y-78100499D01*
X117537483Y-78094091D01*
X117672331Y-78043796D01*
X117787546Y-77957546D01*
X117873796Y-77842331D01*
X117924091Y-77707483D01*
X117930500Y-77647873D01*
X117930499Y-76082939D01*
X117950184Y-76015901D01*
X117966818Y-75995259D01*
X118392913Y-75569165D01*
X118847826Y-75114252D01*
X118884077Y-75078001D01*
X118886628Y-75071419D01*
X118902035Y-75046899D01*
X118906052Y-75041236D01*
X118932091Y-75008587D01*
X118950209Y-74970961D01*
X118953565Y-74964889D01*
X118975789Y-74929522D01*
X118989580Y-74890105D01*
X118992236Y-74883693D01*
X119010360Y-74846061D01*
X119019658Y-74805321D01*
X119021571Y-74798680D01*
X119035368Y-74759255D01*
X119040043Y-74717760D01*
X119041208Y-74710905D01*
X119047667Y-74682604D01*
X119050500Y-74670194D01*
X119050500Y-74489806D01*
X119050500Y-74489805D01*
X119050500Y-73000000D01*
X120994341Y-73000000D01*
X121014936Y-73235403D01*
X121014938Y-73235413D01*
X121076094Y-73463655D01*
X121076096Y-73463659D01*
X121076097Y-73463663D01*
X121126030Y-73570746D01*
X121175964Y-73677828D01*
X121175965Y-73677830D01*
X121311505Y-73871402D01*
X121478597Y-74038494D01*
X121672169Y-74174034D01*
X121672171Y-74174035D01*
X121886337Y-74273903D01*
X121886343Y-74273904D01*
X121886344Y-74273905D01*
X121926778Y-74284739D01*
X122114592Y-74335063D01*
X122291034Y-74350500D01*
X122708966Y-74350500D01*
X122885408Y-74335063D01*
X123113663Y-74273903D01*
X123327829Y-74174035D01*
X123521401Y-74038495D01*
X123688495Y-73871401D01*
X123824035Y-73677830D01*
X123923903Y-73463663D01*
X123985063Y-73235408D01*
X124005659Y-73000000D01*
X124005151Y-72994199D01*
X123998042Y-72912935D01*
X123985063Y-72764592D01*
X123935334Y-72579000D01*
X123923905Y-72536344D01*
X123923904Y-72536343D01*
X123923903Y-72536337D01*
X123824035Y-72322171D01*
X123824034Y-72322169D01*
X123688494Y-72128597D01*
X123540932Y-71981035D01*
X123507447Y-71919712D01*
X123512431Y-71850020D01*
X123554303Y-71794087D01*
X123563516Y-71787815D01*
X123718345Y-71692315D01*
X123842315Y-71568345D01*
X123934356Y-71419124D01*
X123934358Y-71419119D01*
X123989505Y-71252697D01*
X123989506Y-71252690D01*
X123999999Y-71149986D01*
X124000000Y-71149973D01*
X124000000Y-70800000D01*
X123098666Y-70800000D01*
X123031627Y-70780315D01*
X122985872Y-70727511D01*
X122975928Y-70658353D01*
X122979689Y-70641066D01*
X122999999Y-70571892D01*
X123000000Y-70571889D01*
X123000000Y-70428110D01*
X122999999Y-70428107D01*
X122979689Y-70358934D01*
X122979689Y-70289064D01*
X123017464Y-70230286D01*
X123081020Y-70201262D01*
X123098666Y-70200000D01*
X123999999Y-70200000D01*
X123999999Y-69850028D01*
X123999998Y-69850013D01*
X123989505Y-69747302D01*
X123934358Y-69580880D01*
X123934356Y-69580875D01*
X123842315Y-69431654D01*
X123718345Y-69307684D01*
X123569124Y-69215643D01*
X123569119Y-69215641D01*
X123402697Y-69160494D01*
X123402690Y-69160493D01*
X123299986Y-69150000D01*
X122800000Y-69150000D01*
X122800000Y-69895975D01*
X122780315Y-69963014D01*
X122727511Y-70008769D01*
X122658353Y-70018713D01*
X122643608Y-70015505D01*
X122550519Y-70002121D01*
X122535763Y-70000000D01*
X122464237Y-70000000D01*
X122348906Y-70016582D01*
X122348671Y-70014953D01*
X122289059Y-70014950D01*
X122230283Y-69977173D01*
X122201261Y-69913615D01*
X122200000Y-69895975D01*
X122200000Y-69150000D01*
X121700028Y-69150000D01*
X121700012Y-69150001D01*
X121597302Y-69160494D01*
X121430880Y-69215641D01*
X121430875Y-69215643D01*
X121281654Y-69307684D01*
X121157684Y-69431654D01*
X121065643Y-69580875D01*
X121065641Y-69580880D01*
X121010494Y-69747302D01*
X121010493Y-69747309D01*
X121000000Y-69850013D01*
X121000000Y-70200000D01*
X121901334Y-70200000D01*
X121968373Y-70219685D01*
X122014128Y-70272489D01*
X122024072Y-70341647D01*
X122020311Y-70358934D01*
X122000000Y-70428107D01*
X122000000Y-70571892D01*
X122020311Y-70641066D01*
X122020311Y-70710936D01*
X121982536Y-70769714D01*
X121918980Y-70798738D01*
X121901334Y-70800000D01*
X121000001Y-70800000D01*
X121000001Y-71149986D01*
X121010494Y-71252697D01*
X121065641Y-71419119D01*
X121065643Y-71419124D01*
X121157684Y-71568345D01*
X121281654Y-71692315D01*
X121436484Y-71787815D01*
X121483208Y-71839763D01*
X121494431Y-71908726D01*
X121466587Y-71972808D01*
X121459069Y-71981035D01*
X121311501Y-72128603D01*
X121311501Y-72128604D01*
X121175967Y-72322165D01*
X121175965Y-72322169D01*
X121076098Y-72536335D01*
X121076094Y-72536344D01*
X121014938Y-72764586D01*
X121014936Y-72764596D01*
X120994341Y-72999999D01*
X120994341Y-73000000D01*
X119050500Y-73000000D01*
X119050500Y-71482447D01*
X119050500Y-71482446D01*
X119050500Y-71437207D01*
X119041207Y-71396494D01*
X119040042Y-71389634D01*
X119039689Y-71386497D01*
X119035368Y-71348146D01*
X119024085Y-71315901D01*
X119021576Y-71308729D01*
X119019650Y-71302042D01*
X119010361Y-71261341D01*
X118992244Y-71223721D01*
X118989581Y-71217292D01*
X118975789Y-71177878D01*
X118964577Y-71160036D01*
X118953567Y-71142513D01*
X118950206Y-71136431D01*
X118932091Y-71098813D01*
X118932090Y-71098812D01*
X118906055Y-71066166D01*
X118902028Y-71060490D01*
X118879816Y-71025139D01*
X118752262Y-70897585D01*
X117386818Y-69532141D01*
X117353333Y-69470818D01*
X117350499Y-69444460D01*
X117350499Y-68879530D01*
X117350498Y-68879524D01*
X117350305Y-68877731D01*
X117344091Y-68819918D01*
X117343512Y-68818366D01*
X117293797Y-68685072D01*
X117293793Y-68685065D01*
X117207547Y-68569856D01*
X117207544Y-68569853D01*
X117092335Y-68483607D01*
X117092328Y-68483603D01*
X116957482Y-68433309D01*
X116957483Y-68433309D01*
X116897883Y-68426902D01*
X116897881Y-68426901D01*
X116897873Y-68426901D01*
X116897864Y-68426901D01*
X115602129Y-68426901D01*
X115602123Y-68426902D01*
X115542516Y-68433309D01*
X115407671Y-68483603D01*
X115407664Y-68483607D01*
X115292455Y-68569853D01*
X115292452Y-68569856D01*
X115206206Y-68685065D01*
X115206202Y-68685072D01*
X115155910Y-68819914D01*
X115155909Y-68819918D01*
X115153883Y-68838756D01*
X115127148Y-68903305D01*
X115069756Y-68943154D01*
X115030595Y-68949500D01*
X112257721Y-68949500D01*
X112190682Y-68929815D01*
X112156146Y-68896623D01*
X112144177Y-68879530D01*
X112101349Y-68818364D01*
X112038494Y-68728597D01*
X111871402Y-68561506D01*
X111871395Y-68561501D01*
X111677834Y-68425967D01*
X111677830Y-68425965D01*
X111473194Y-68330541D01*
X111437918Y-68305840D01*
X109844259Y-66712181D01*
X109810774Y-66650858D01*
X109815758Y-66581166D01*
X109857630Y-66525233D01*
X109923094Y-66500816D01*
X109931940Y-66500500D01*
X137497964Y-66500500D01*
X137502018Y-66500633D01*
X137530219Y-66502480D01*
X137583816Y-66505993D01*
X137638735Y-66509921D01*
X137746798Y-66517651D01*
X137751197Y-66518124D01*
X137770628Y-66520917D01*
X137794283Y-66524318D01*
X137797513Y-66524871D01*
X137848218Y-66534957D01*
X137889455Y-66543160D01*
X138026409Y-66572952D01*
X138030661Y-66574036D01*
X138051186Y-66580063D01*
X138159456Y-66616815D01*
X138291739Y-66666156D01*
X138297497Y-66668642D01*
X138412960Y-66725582D01*
X138534910Y-66792171D01*
X138539616Y-66795019D01*
X138646665Y-66866548D01*
X138649358Y-66868453D01*
X138758654Y-66950272D01*
X138762337Y-66953258D01*
X138859502Y-67038469D01*
X138862448Y-67041228D01*
X138958769Y-67137549D01*
X138961522Y-67140488D01*
X139046731Y-67237651D01*
X139049733Y-67241353D01*
X139049746Y-67241370D01*
X139131542Y-67350637D01*
X139133460Y-67353347D01*
X139204962Y-67460359D01*
X139207828Y-67465092D01*
X139274426Y-67587057D01*
X139331356Y-67702499D01*
X139333843Y-67708258D01*
X139383193Y-67840572D01*
X139419932Y-67948799D01*
X139425955Y-67969313D01*
X139427050Y-67973603D01*
X139456848Y-68110586D01*
X139475117Y-68202435D01*
X139475677Y-68205706D01*
X139481875Y-68248804D01*
X139482348Y-68253207D01*
X139494020Y-68416399D01*
X139495129Y-68433310D01*
X139498425Y-68483605D01*
X139499367Y-68497967D01*
X139499500Y-68502024D01*
X139499500Y-100497975D01*
X139499367Y-100502032D01*
X139494020Y-100583595D01*
X139482347Y-100746795D01*
X139481874Y-100751195D01*
X139475680Y-100794283D01*
X139475119Y-100797557D01*
X139456850Y-100889402D01*
X139427049Y-101026398D01*
X139425954Y-101030687D01*
X139419930Y-101051206D01*
X139383197Y-101159417D01*
X139333838Y-101291747D01*
X139331352Y-101297505D01*
X139274431Y-101412932D01*
X139207825Y-101534911D01*
X139204958Y-101539645D01*
X139133466Y-101646641D01*
X139131548Y-101649351D01*
X139049740Y-101758635D01*
X139046719Y-101762361D01*
X138961536Y-101859494D01*
X138958762Y-101862455D01*
X138862455Y-101958762D01*
X138859494Y-101961536D01*
X138762361Y-102046719D01*
X138758635Y-102049740D01*
X138649351Y-102131548D01*
X138646641Y-102133466D01*
X138539645Y-102204958D01*
X138534911Y-102207825D01*
X138412932Y-102274431D01*
X138297505Y-102331352D01*
X138291747Y-102333838D01*
X138159417Y-102383197D01*
X138051206Y-102419930D01*
X138030687Y-102425954D01*
X138026398Y-102427049D01*
X137889402Y-102456850D01*
X137797557Y-102475119D01*
X137794283Y-102475680D01*
X137751195Y-102481874D01*
X137746795Y-102482347D01*
X137583595Y-102494020D01*
X137519890Y-102498196D01*
X137502025Y-102499367D01*
X137497977Y-102499500D01*
X109873613Y-102499500D01*
X109872788Y-102499258D01*
X109869407Y-102499500D01*
X109868872Y-102499500D01*
X109706456Y-102520884D01*
X109702785Y-102521256D01*
X109627423Y-102526646D01*
X109623008Y-102528240D01*
X109623190Y-102528858D01*
X109613097Y-102531821D01*
X109611721Y-102532318D01*
X109611876Y-102533131D01*
X109611813Y-102533143D01*
X109609944Y-102532960D01*
X109607203Y-102533951D01*
X109604882Y-102534257D01*
X109604879Y-102534234D01*
X109582766Y-102540728D01*
X109416172Y-102585366D01*
X109413301Y-102586062D01*
X109354708Y-102598805D01*
X109302323Y-102622728D01*
X109302310Y-102622734D01*
X109280319Y-102632776D01*
X109113309Y-102701953D01*
X109113301Y-102701957D01*
X109057067Y-102734423D01*
X109051828Y-102737124D01*
X109040279Y-102742399D01*
X109040275Y-102742401D01*
X109015210Y-102758509D01*
X109012692Y-102760044D01*
X108886206Y-102833069D01*
X108886191Y-102833080D01*
X108821298Y-102882873D01*
X108817077Y-102885841D01*
X108799916Y-102896870D01*
X108776992Y-102916734D01*
X108774135Y-102919064D01*
X108678141Y-102992724D01*
X108607319Y-103063546D01*
X108604082Y-103066559D01*
X108583981Y-103083978D01*
X108583978Y-103083981D01*
X108566559Y-103104082D01*
X108563546Y-103107319D01*
X108492724Y-103178141D01*
X108419064Y-103274135D01*
X108416734Y-103276992D01*
X108396870Y-103299916D01*
X108385841Y-103317077D01*
X108382873Y-103321298D01*
X108333080Y-103386191D01*
X108333069Y-103386206D01*
X108260044Y-103512692D01*
X108258509Y-103515210D01*
X108242401Y-103540275D01*
X108242399Y-103540279D01*
X108237124Y-103551828D01*
X108234423Y-103557067D01*
X108201957Y-103613301D01*
X108201953Y-103613309D01*
X108132776Y-103780319D01*
X108122734Y-103802310D01*
X108122728Y-103802323D01*
X108098805Y-103854708D01*
X108086062Y-103913301D01*
X108085366Y-103916172D01*
X108040728Y-104082766D01*
X108034234Y-104104879D01*
X108034257Y-104104882D01*
X108033951Y-104107203D01*
X108033143Y-104109027D01*
X108033143Y-104111813D01*
X108033131Y-104111876D01*
X108032230Y-104111704D01*
X108028858Y-104123190D01*
X108027103Y-104122674D01*
X108026963Y-104122991D01*
X108021256Y-104202785D01*
X108020884Y-104206456D01*
X107999500Y-104368872D01*
X107999500Y-104369407D01*
X107999290Y-104372334D01*
X107999500Y-104373613D01*
X107999500Y-120497975D01*
X107999367Y-120502032D01*
X107994020Y-120583595D01*
X107982347Y-120746795D01*
X107981874Y-120751195D01*
X107975680Y-120794283D01*
X107975119Y-120797557D01*
X107956850Y-120889402D01*
X107927049Y-121026398D01*
X107925954Y-121030687D01*
X107919930Y-121051206D01*
X107883197Y-121159417D01*
X107833838Y-121291747D01*
X107831352Y-121297505D01*
X107774431Y-121412932D01*
X107707825Y-121534911D01*
X107704958Y-121539645D01*
X107633466Y-121646641D01*
X107631548Y-121649351D01*
X107549740Y-121758635D01*
X107546719Y-121762361D01*
X107461536Y-121859494D01*
X107458762Y-121862455D01*
X107362455Y-121958762D01*
X107359494Y-121961536D01*
X107262361Y-122046719D01*
X107258635Y-122049740D01*
X107149351Y-122131548D01*
X107146641Y-122133466D01*
X107039645Y-122204958D01*
X107034911Y-122207825D01*
X106912932Y-122274431D01*
X106797505Y-122331352D01*
X106791747Y-122333838D01*
X106659417Y-122383197D01*
X106551206Y-122419930D01*
X106530687Y-122425954D01*
X106526398Y-122427049D01*
X106389402Y-122456850D01*
X106297557Y-122475119D01*
X106294283Y-122475680D01*
X106251195Y-122481874D01*
X106246795Y-122482347D01*
X106083595Y-122494020D01*
X106019890Y-122498196D01*
X106002025Y-122499367D01*
X105997977Y-122499500D01*
X83002024Y-122499500D01*
X82997974Y-122499367D01*
X82970721Y-122497581D01*
X82916399Y-122494020D01*
X82753207Y-122482348D01*
X82748804Y-122481875D01*
X82705706Y-122475677D01*
X82702435Y-122475117D01*
X82610586Y-122456848D01*
X82525763Y-122438396D01*
X82473595Y-122427048D01*
X82469313Y-122425955D01*
X82459406Y-122423046D01*
X82448790Y-122419929D01*
X82340572Y-122383193D01*
X82288722Y-122363854D01*
X82208253Y-122333841D01*
X82202499Y-122331356D01*
X82087057Y-122274426D01*
X81965092Y-122207828D01*
X81960359Y-122204962D01*
X81853347Y-122133460D01*
X81850637Y-122131542D01*
X81843212Y-122125983D01*
X81741353Y-122049733D01*
X81737651Y-122046731D01*
X81640492Y-121961526D01*
X81637549Y-121958769D01*
X81541228Y-121862448D01*
X81538469Y-121859502D01*
X81505450Y-121821851D01*
X81453258Y-121762337D01*
X81450272Y-121758654D01*
X81368449Y-121649351D01*
X81366540Y-121646654D01*
X81295019Y-121539616D01*
X81292171Y-121534910D01*
X81225577Y-121412950D01*
X81168642Y-121297497D01*
X81166156Y-121291739D01*
X81116812Y-121159446D01*
X81080069Y-121051206D01*
X81080062Y-121051185D01*
X81074036Y-121030661D01*
X81072952Y-121026409D01*
X81043160Y-120889455D01*
X81024874Y-120797528D01*
X81024318Y-120794283D01*
X81020917Y-120770628D01*
X81018124Y-120751197D01*
X81017651Y-120746798D01*
X81005990Y-120583769D01*
X81003344Y-120543395D01*
X81000633Y-120502018D01*
X81000500Y-120497964D01*
X81000500Y-117847870D01*
X83699500Y-117847870D01*
X83699501Y-117847876D01*
X83705908Y-117907483D01*
X83756202Y-118042328D01*
X83756206Y-118042335D01*
X83842452Y-118157544D01*
X83842455Y-118157547D01*
X83957664Y-118243793D01*
X83957671Y-118243797D01*
X84092517Y-118294091D01*
X84092516Y-118294091D01*
X84099444Y-118294835D01*
X84152127Y-118300500D01*
X86847872Y-118300499D01*
X86907483Y-118294091D01*
X87042331Y-118243796D01*
X87157546Y-118157546D01*
X87243796Y-118042331D01*
X87294091Y-117907483D01*
X87300500Y-117847873D01*
X87300500Y-116500004D01*
X88694451Y-116500004D01*
X88714616Y-116769101D01*
X88774664Y-117032188D01*
X88774666Y-117032195D01*
X88861685Y-117253915D01*
X88873257Y-117283398D01*
X89008185Y-117517102D01*
X89144080Y-117687509D01*
X89176442Y-117728089D01*
X89363183Y-117901358D01*
X89374259Y-117911635D01*
X89597226Y-118063651D01*
X89840359Y-118180738D01*
X90098228Y-118260280D01*
X90098229Y-118260280D01*
X90098232Y-118260281D01*
X90365063Y-118300499D01*
X90365068Y-118300499D01*
X90365071Y-118300500D01*
X90365072Y-118300500D01*
X90634928Y-118300500D01*
X90634929Y-118300500D01*
X90634936Y-118300499D01*
X90901767Y-118260281D01*
X90901768Y-118260280D01*
X90901772Y-118260280D01*
X91159641Y-118180738D01*
X91402775Y-118063651D01*
X91625741Y-117911635D01*
X91823561Y-117728085D01*
X91991815Y-117517102D01*
X92126743Y-117283398D01*
X92225334Y-117032195D01*
X92285383Y-116769103D01*
X92305549Y-116500000D01*
X92302466Y-116458865D01*
X92285383Y-116230898D01*
X92237796Y-116022405D01*
X92225334Y-115967805D01*
X92126743Y-115716602D01*
X91991815Y-115482898D01*
X91823561Y-115271915D01*
X91823560Y-115271914D01*
X91823557Y-115271910D01*
X91625741Y-115088365D01*
X91610905Y-115078250D01*
X91402775Y-114936349D01*
X91402769Y-114936346D01*
X91402768Y-114936345D01*
X91402767Y-114936344D01*
X91159643Y-114819263D01*
X91159645Y-114819263D01*
X90901773Y-114739720D01*
X90901767Y-114739718D01*
X90634936Y-114699500D01*
X90634929Y-114699500D01*
X90365071Y-114699500D01*
X90365063Y-114699500D01*
X90098232Y-114739718D01*
X90098226Y-114739720D01*
X89840358Y-114819262D01*
X89597230Y-114936346D01*
X89374258Y-115088365D01*
X89176442Y-115271910D01*
X89008185Y-115482898D01*
X88873258Y-115716599D01*
X88873256Y-115716603D01*
X88774666Y-115967804D01*
X88774664Y-115967811D01*
X88714616Y-116230898D01*
X88694451Y-116499995D01*
X88694451Y-116500004D01*
X87300500Y-116500004D01*
X87300499Y-115152128D01*
X87294091Y-115092517D01*
X87293517Y-115090979D01*
X87243797Y-114957671D01*
X87243793Y-114957664D01*
X87157547Y-114842455D01*
X87157544Y-114842452D01*
X87042335Y-114756206D01*
X87042328Y-114756202D01*
X86907482Y-114705908D01*
X86907483Y-114705908D01*
X86847883Y-114699501D01*
X86847881Y-114699500D01*
X86847873Y-114699500D01*
X86847864Y-114699500D01*
X84152129Y-114699500D01*
X84152123Y-114699501D01*
X84092516Y-114705908D01*
X83957671Y-114756202D01*
X83957664Y-114756206D01*
X83842455Y-114842452D01*
X83842452Y-114842455D01*
X83756206Y-114957664D01*
X83756202Y-114957671D01*
X83705908Y-115092517D01*
X83699501Y-115152116D01*
X83699501Y-115152123D01*
X83699500Y-115152135D01*
X83699500Y-117847870D01*
X81000500Y-117847870D01*
X81000500Y-104373628D01*
X81000739Y-104372810D01*
X81000500Y-104369456D01*
X81000500Y-104368886D01*
X81000499Y-104368872D01*
X80984494Y-104247309D01*
X80979112Y-104206432D01*
X80978741Y-104202773D01*
X80973351Y-104127391D01*
X80971773Y-104123018D01*
X80971138Y-104123205D01*
X80968659Y-104114764D01*
X80967509Y-104115015D01*
X80967499Y-104114969D01*
X80967725Y-104111804D01*
X80966038Y-104107128D01*
X80965734Y-104104812D01*
X80965737Y-104104811D01*
X80959337Y-104083011D01*
X80914602Y-103916056D01*
X80913911Y-103913207D01*
X80901178Y-103854672D01*
X80878132Y-103804207D01*
X80878131Y-103804204D01*
X80876293Y-103800179D01*
X80867223Y-103780319D01*
X80799772Y-103617478D01*
X80798041Y-103613298D01*
X80798039Y-103613296D01*
X80795991Y-103609750D01*
X80765571Y-103557061D01*
X80762871Y-103551820D01*
X80757607Y-103540291D01*
X80757600Y-103540279D01*
X80757600Y-103540278D01*
X80741476Y-103515188D01*
X80739983Y-103512741D01*
X80666924Y-103386197D01*
X80617125Y-103321298D01*
X80614159Y-103317080D01*
X80603127Y-103299914D01*
X80603126Y-103299913D01*
X80583267Y-103276994D01*
X80580953Y-103274159D01*
X80507282Y-103178149D01*
X80436452Y-103107319D01*
X80433438Y-103104082D01*
X80416020Y-103083980D01*
X80408062Y-103077084D01*
X80395911Y-103066555D01*
X80392679Y-103063546D01*
X80321851Y-102992718D01*
X80317569Y-102989432D01*
X80225860Y-102919060D01*
X80223001Y-102916729D01*
X80200096Y-102896881D01*
X80200082Y-102896870D01*
X80192363Y-102891910D01*
X80182918Y-102885839D01*
X80178702Y-102882875D01*
X80113802Y-102833075D01*
X79987307Y-102760044D01*
X79984788Y-102758509D01*
X79959722Y-102742400D01*
X79959721Y-102742400D01*
X79959714Y-102742396D01*
X79948177Y-102737127D01*
X79942932Y-102734423D01*
X79886696Y-102701956D01*
X79886690Y-102701953D01*
X79719678Y-102632775D01*
X79697161Y-102622492D01*
X79697129Y-102622479D01*
X79645329Y-102598823D01*
X79586785Y-102586086D01*
X79583918Y-102585391D01*
X79417101Y-102540692D01*
X79395120Y-102534238D01*
X79395118Y-102534257D01*
X79392797Y-102533951D01*
X79391054Y-102533179D01*
X79388388Y-102533181D01*
X79388335Y-102533171D01*
X79388500Y-102532295D01*
X79376803Y-102528861D01*
X79377319Y-102527100D01*
X79377011Y-102526964D01*
X79297220Y-102521257D01*
X79293557Y-102520885D01*
X79256912Y-102516061D01*
X79131127Y-102499500D01*
X79131120Y-102499500D01*
X79130567Y-102499500D01*
X79127655Y-102499291D01*
X79126382Y-102499500D01*
X55502024Y-102499500D01*
X55497974Y-102499367D01*
X55470721Y-102497581D01*
X55416399Y-102494020D01*
X55253207Y-102482348D01*
X55248804Y-102481875D01*
X55205706Y-102475677D01*
X55202435Y-102475117D01*
X55110586Y-102456848D01*
X55025763Y-102438396D01*
X54973595Y-102427048D01*
X54969313Y-102425955D01*
X54959406Y-102423046D01*
X54948790Y-102419929D01*
X54840572Y-102383193D01*
X54788722Y-102363854D01*
X54708253Y-102333841D01*
X54702499Y-102331356D01*
X54587057Y-102274426D01*
X54465092Y-102207828D01*
X54460359Y-102204962D01*
X54353347Y-102133460D01*
X54350637Y-102131542D01*
X54343212Y-102125983D01*
X54241353Y-102049733D01*
X54237651Y-102046731D01*
X54140492Y-101961526D01*
X54137549Y-101958769D01*
X54041228Y-101862448D01*
X54038469Y-101859502D01*
X53995707Y-101810741D01*
X53953258Y-101762337D01*
X53950272Y-101758654D01*
X53868449Y-101649351D01*
X53866540Y-101646654D01*
X53795019Y-101539616D01*
X53792171Y-101534910D01*
X53725577Y-101412950D01*
X53668642Y-101297497D01*
X53666156Y-101291739D01*
X53616812Y-101159446D01*
X53608008Y-101133511D01*
X53580062Y-101051185D01*
X53574036Y-101030661D01*
X53572952Y-101026409D01*
X53543160Y-100889455D01*
X53527493Y-100810692D01*
X53524871Y-100797513D01*
X53524318Y-100794283D01*
X53520917Y-100770628D01*
X53518124Y-100751197D01*
X53517651Y-100746798D01*
X53505990Y-100583769D01*
X53503344Y-100543395D01*
X53500633Y-100502018D01*
X53500500Y-100497964D01*
X53500500Y-69596001D01*
X65750532Y-69596001D01*
X65770364Y-69822686D01*
X65770366Y-69822697D01*
X65829258Y-70042488D01*
X65829261Y-70042497D01*
X65925431Y-70248732D01*
X65925432Y-70248734D01*
X66055954Y-70435141D01*
X66216858Y-70596045D01*
X66216861Y-70596047D01*
X66403266Y-70726568D01*
X66609504Y-70822739D01*
X66829308Y-70881635D01*
X66991230Y-70895801D01*
X67055998Y-70901468D01*
X67056000Y-70901468D01*
X67056002Y-70901468D01*
X67112673Y-70896509D01*
X67282692Y-70881635D01*
X67502496Y-70822739D01*
X67708734Y-70726568D01*
X67895139Y-70596047D01*
X68056047Y-70435139D01*
X68186568Y-70248734D01*
X68282739Y-70042496D01*
X68341635Y-69822692D01*
X68361468Y-69596000D01*
X68341635Y-69369308D01*
X68285684Y-69160494D01*
X68282741Y-69149511D01*
X68282738Y-69149502D01*
X68261679Y-69104342D01*
X68186568Y-68943266D01*
X68056047Y-68756861D01*
X68056045Y-68756858D01*
X67895141Y-68595954D01*
X67708734Y-68465432D01*
X67708732Y-68465431D01*
X67502497Y-68369261D01*
X67502488Y-68369258D01*
X67282697Y-68310366D01*
X67282693Y-68310365D01*
X67282692Y-68310365D01*
X67282691Y-68310364D01*
X67282686Y-68310364D01*
X67056002Y-68290532D01*
X67055998Y-68290532D01*
X66829313Y-68310364D01*
X66829302Y-68310366D01*
X66609511Y-68369258D01*
X66609502Y-68369261D01*
X66403267Y-68465431D01*
X66403265Y-68465432D01*
X66216858Y-68595954D01*
X66055954Y-68756858D01*
X65925432Y-68943265D01*
X65925431Y-68943267D01*
X65829261Y-69149502D01*
X65829258Y-69149511D01*
X65770366Y-69369302D01*
X65770364Y-69369313D01*
X65750532Y-69595998D01*
X65750532Y-69596001D01*
X53500500Y-69596001D01*
X53500500Y-68502034D01*
X53500633Y-68497979D01*
X53505979Y-68416399D01*
X53517652Y-68253187D01*
X53518121Y-68248821D01*
X53524323Y-68205683D01*
X53524870Y-68202493D01*
X53543165Y-68110518D01*
X53572951Y-67973591D01*
X53574043Y-67969313D01*
X53580063Y-67948814D01*
X53583528Y-67938603D01*
X53616830Y-67840499D01*
X53666159Y-67708245D01*
X53668620Y-67702546D01*
X53725591Y-67587020D01*
X53735451Y-67568962D01*
X53792173Y-67465083D01*
X53795007Y-67460402D01*
X53866572Y-67353298D01*
X53868458Y-67350634D01*
X53950264Y-67241353D01*
X53953236Y-67237687D01*
X54038510Y-67140450D01*
X54041220Y-67137557D01*
X54137557Y-67041220D01*
X54140450Y-67038510D01*
X54237687Y-66953236D01*
X54241353Y-66950264D01*
X54350645Y-66868450D01*
X54353298Y-66866572D01*
X54460402Y-66795007D01*
X54465081Y-66792174D01*
X54587010Y-66725596D01*
X54702546Y-66668620D01*
X54708245Y-66666159D01*
X54840495Y-66616832D01*
X54948810Y-66580063D01*
X54953380Y-66578721D01*
X54969333Y-66574037D01*
X54973591Y-66572951D01*
X55110518Y-66543165D01*
X55202494Y-66524870D01*
X55205693Y-66524321D01*
X55248802Y-66518123D01*
X55253198Y-66517651D01*
X55416338Y-66505983D01*
X55420671Y-66505699D01*
X55497982Y-66500633D01*
X55502037Y-66500500D01*
X84187553Y-66500500D01*
X84254592Y-66520185D01*
G37*
%TD.AperFunction*%
%TA.AperFunction,Conductor*%
G36*
X96743619Y-78714972D02*
G01*
X96799552Y-78756844D01*
X96823813Y-78820347D01*
X96834858Y-78946599D01*
X96834860Y-78946610D01*
X96893730Y-79166317D01*
X96893734Y-79166326D01*
X96989867Y-79372485D01*
X97011851Y-79403882D01*
X97011852Y-79403883D01*
X97447348Y-78968387D01*
X97508671Y-78934902D01*
X97578362Y-78939886D01*
X97634296Y-78981757D01*
X97645127Y-78999020D01*
X97655614Y-79019258D01*
X97666442Y-79040156D01*
X97769638Y-79150652D01*
X97841494Y-79194349D01*
X97848669Y-79198712D01*
X97895721Y-79250364D01*
X97907378Y-79319254D01*
X97879940Y-79383511D01*
X97871921Y-79392341D01*
X97436115Y-79828146D01*
X97467516Y-79850133D01*
X97467522Y-79850136D01*
X97525865Y-79877342D01*
X97578305Y-79923514D01*
X97597457Y-79990707D01*
X97577242Y-80057589D01*
X97525867Y-80102105D01*
X97467268Y-80129431D01*
X97467264Y-80129433D01*
X97280858Y-80259954D01*
X97119954Y-80420858D01*
X96989432Y-80607265D01*
X96989431Y-80607267D01*
X96893261Y-80813502D01*
X96893258Y-80813511D01*
X96834366Y-81033302D01*
X96834364Y-81033313D01*
X96814532Y-81259998D01*
X96814532Y-81260001D01*
X96834364Y-81486686D01*
X96834366Y-81486697D01*
X96893258Y-81706488D01*
X96893261Y-81706497D01*
X96989431Y-81912732D01*
X96989432Y-81912734D01*
X97119954Y-82099141D01*
X97280858Y-82260045D01*
X97280861Y-82260047D01*
X97467266Y-82390568D01*
X97510154Y-82410567D01*
X97525275Y-82417618D01*
X97577714Y-82463791D01*
X97596866Y-82530984D01*
X97576650Y-82597865D01*
X97525275Y-82642382D01*
X97467267Y-82669431D01*
X97467265Y-82669432D01*
X97280858Y-82799954D01*
X97119954Y-82960858D01*
X96989432Y-83147265D01*
X96989431Y-83147267D01*
X96893261Y-83353502D01*
X96893258Y-83353511D01*
X96834366Y-83573302D01*
X96834364Y-83573313D01*
X96814532Y-83799998D01*
X96814532Y-83800001D01*
X96834364Y-84026686D01*
X96834366Y-84026697D01*
X96893258Y-84246488D01*
X96893261Y-84246497D01*
X96989431Y-84452732D01*
X96989432Y-84452734D01*
X97119954Y-84639141D01*
X97280858Y-84800045D01*
X97281508Y-84800500D01*
X97467266Y-84930568D01*
X97525275Y-84957618D01*
X97577714Y-85003791D01*
X97596866Y-85070984D01*
X97576650Y-85137865D01*
X97525275Y-85182382D01*
X97467267Y-85209431D01*
X97467265Y-85209432D01*
X97280858Y-85339954D01*
X97119954Y-85500858D01*
X96989432Y-85687265D01*
X96989431Y-85687267D01*
X96893261Y-85893502D01*
X96893258Y-85893511D01*
X96834366Y-86113302D01*
X96834364Y-86113313D01*
X96814532Y-86339998D01*
X96814532Y-86340001D01*
X96834364Y-86566686D01*
X96834366Y-86566697D01*
X96893258Y-86786488D01*
X96893261Y-86786497D01*
X96989431Y-86992732D01*
X96989432Y-86992734D01*
X97119954Y-87179141D01*
X97280858Y-87340045D01*
X97280861Y-87340047D01*
X97467266Y-87470568D01*
X97525275Y-87497618D01*
X97577714Y-87543791D01*
X97596866Y-87610984D01*
X97576650Y-87677865D01*
X97525275Y-87722381D01*
X97508272Y-87730310D01*
X97467267Y-87749431D01*
X97467265Y-87749432D01*
X97280858Y-87879954D01*
X97119954Y-88040858D01*
X96989432Y-88227265D01*
X96989431Y-88227267D01*
X96893261Y-88433502D01*
X96893258Y-88433511D01*
X96834366Y-88653302D01*
X96834364Y-88653313D01*
X96814532Y-88879998D01*
X96814532Y-88880001D01*
X96834364Y-89106686D01*
X96834366Y-89106697D01*
X96893258Y-89326488D01*
X96893261Y-89326497D01*
X96989431Y-89532732D01*
X96989432Y-89532734D01*
X97119954Y-89719141D01*
X97280858Y-89880045D01*
X97280861Y-89880047D01*
X97467266Y-90010568D01*
X97510154Y-90030567D01*
X97525275Y-90037618D01*
X97577714Y-90083791D01*
X97596866Y-90150984D01*
X97576650Y-90217865D01*
X97525275Y-90262382D01*
X97467267Y-90289431D01*
X97467265Y-90289432D01*
X97280858Y-90419954D01*
X97119954Y-90580858D01*
X96989432Y-90767265D01*
X96989431Y-90767267D01*
X96893261Y-90973502D01*
X96893258Y-90973511D01*
X96834366Y-91193302D01*
X96834364Y-91193313D01*
X96814532Y-91419998D01*
X96814532Y-91420001D01*
X96834364Y-91646686D01*
X96834366Y-91646697D01*
X96893258Y-91866488D01*
X96893261Y-91866497D01*
X96989431Y-92072732D01*
X96989432Y-92072734D01*
X97119954Y-92259141D01*
X97280858Y-92420045D01*
X97280861Y-92420047D01*
X97467266Y-92550568D01*
X97517591Y-92574035D01*
X97525275Y-92577618D01*
X97577714Y-92623791D01*
X97596866Y-92690984D01*
X97576650Y-92757865D01*
X97525275Y-92802382D01*
X97467267Y-92829431D01*
X97467265Y-92829432D01*
X97280858Y-92959954D01*
X97119954Y-93120858D01*
X96989432Y-93307265D01*
X96989431Y-93307267D01*
X96893261Y-93513502D01*
X96893258Y-93513511D01*
X96834366Y-93733302D01*
X96834364Y-93733313D01*
X96814532Y-93959998D01*
X96814532Y-93960001D01*
X96834364Y-94186686D01*
X96834366Y-94186697D01*
X96893258Y-94406488D01*
X96893261Y-94406497D01*
X96989431Y-94612732D01*
X96989432Y-94612734D01*
X97119954Y-94799141D01*
X97280858Y-94960045D01*
X97280861Y-94960047D01*
X97467266Y-95090568D01*
X97525275Y-95117618D01*
X97577714Y-95163791D01*
X97596866Y-95230984D01*
X97576650Y-95297865D01*
X97525275Y-95342382D01*
X97467267Y-95369431D01*
X97467265Y-95369432D01*
X97280858Y-95499954D01*
X97119954Y-95660858D01*
X96989432Y-95847265D01*
X96989431Y-95847267D01*
X96893261Y-96053502D01*
X96893258Y-96053511D01*
X96834366Y-96273302D01*
X96834364Y-96273313D01*
X96814532Y-96499998D01*
X96814532Y-96500001D01*
X96834364Y-96726686D01*
X96834366Y-96726697D01*
X96893258Y-96946488D01*
X96893261Y-96946497D01*
X96989431Y-97152732D01*
X96989432Y-97152734D01*
X97119954Y-97339141D01*
X97280858Y-97500045D01*
X97327693Y-97532839D01*
X97467266Y-97630568D01*
X97492121Y-97642158D01*
X97525275Y-97657618D01*
X97577714Y-97703791D01*
X97596866Y-97770984D01*
X97576650Y-97837865D01*
X97525275Y-97882382D01*
X97467267Y-97909431D01*
X97467265Y-97909432D01*
X97280858Y-98039954D01*
X97119954Y-98200858D01*
X96989432Y-98387265D01*
X96989431Y-98387267D01*
X96893261Y-98593502D01*
X96893258Y-98593511D01*
X96834366Y-98813302D01*
X96834364Y-98813313D01*
X96814532Y-99039998D01*
X96814532Y-99040001D01*
X96834364Y-99266686D01*
X96834366Y-99266697D01*
X96893258Y-99486488D01*
X96893261Y-99486497D01*
X96989431Y-99692732D01*
X96989432Y-99692734D01*
X97119954Y-99879141D01*
X97280858Y-100040045D01*
X97280861Y-100040047D01*
X97467266Y-100170568D01*
X97525278Y-100197619D01*
X97577713Y-100243788D01*
X97596866Y-100310982D01*
X97576651Y-100377863D01*
X97525277Y-100422380D01*
X97467268Y-100449430D01*
X97467265Y-100449432D01*
X97280858Y-100579954D01*
X97119954Y-100740858D01*
X96989432Y-100927265D01*
X96989431Y-100927267D01*
X96893261Y-101133502D01*
X96893258Y-101133511D01*
X96834366Y-101353302D01*
X96834364Y-101353313D01*
X96814532Y-101579998D01*
X96814532Y-101580001D01*
X96834364Y-101806686D01*
X96834366Y-101806697D01*
X96893258Y-102026488D01*
X96893261Y-102026497D01*
X96989431Y-102232732D01*
X96989432Y-102232734D01*
X97119954Y-102419141D01*
X97280858Y-102580045D01*
X97356167Y-102632776D01*
X97467266Y-102710568D01*
X97525278Y-102737619D01*
X97577713Y-102783788D01*
X97596866Y-102850982D01*
X97576651Y-102917863D01*
X97525277Y-102962380D01*
X97467268Y-102989430D01*
X97467265Y-102989432D01*
X97280858Y-103119954D01*
X97119954Y-103280858D01*
X96989432Y-103467265D01*
X96989431Y-103467267D01*
X96893261Y-103673502D01*
X96893258Y-103673511D01*
X96834366Y-103893302D01*
X96834364Y-103893313D01*
X96814532Y-104119998D01*
X96814532Y-104120001D01*
X96834364Y-104346686D01*
X96834366Y-104346697D01*
X96893258Y-104566488D01*
X96893261Y-104566497D01*
X96989431Y-104772732D01*
X96989432Y-104772734D01*
X97119954Y-104959141D01*
X97280858Y-105120045D01*
X97409106Y-105209844D01*
X97467266Y-105250568D01*
X97525278Y-105277619D01*
X97577713Y-105323788D01*
X97596866Y-105390982D01*
X97576651Y-105457863D01*
X97525277Y-105502380D01*
X97467268Y-105529430D01*
X97467265Y-105529432D01*
X97280858Y-105659954D01*
X97119954Y-105820858D01*
X96989432Y-106007265D01*
X96989431Y-106007267D01*
X96893261Y-106213502D01*
X96893258Y-106213511D01*
X96834366Y-106433302D01*
X96834364Y-106433313D01*
X96814532Y-106659998D01*
X96814532Y-106660001D01*
X96834364Y-106886686D01*
X96834366Y-106886697D01*
X96893258Y-107106488D01*
X96893261Y-107106497D01*
X96989431Y-107312732D01*
X96989432Y-107312734D01*
X97119954Y-107499141D01*
X97280858Y-107660045D01*
X97280861Y-107660047D01*
X97467266Y-107790568D01*
X97525275Y-107817618D01*
X97577714Y-107863791D01*
X97596866Y-107930984D01*
X97576650Y-107997865D01*
X97525275Y-108042382D01*
X97467267Y-108069431D01*
X97467265Y-108069432D01*
X97280858Y-108199954D01*
X97119954Y-108360858D01*
X96989432Y-108547265D01*
X96989431Y-108547267D01*
X96893261Y-108753502D01*
X96893258Y-108753511D01*
X96834366Y-108973302D01*
X96834364Y-108973313D01*
X96814532Y-109199998D01*
X96814532Y-109200002D01*
X96831095Y-109389320D01*
X96817328Y-109457820D01*
X96768713Y-109508003D01*
X96700684Y-109523936D01*
X96634841Y-109500561D01*
X96619886Y-109487808D01*
X96336818Y-109204740D01*
X96303333Y-109143417D01*
X96300499Y-109117059D01*
X96300499Y-94131090D01*
X96300499Y-79106935D01*
X96320184Y-79039900D01*
X96336809Y-79019268D01*
X96612605Y-78743472D01*
X96673927Y-78709988D01*
X96743619Y-78714972D01*
G37*
%TD.AperFunction*%
%TA.AperFunction,Conductor*%
G36*
X111914842Y-81070185D02*
G01*
X111960597Y-81122989D01*
X111970541Y-81192147D01*
X111941516Y-81255703D01*
X111904098Y-81284985D01*
X111647206Y-81415877D01*
X111321917Y-81627122D01*
X111020488Y-81871215D01*
X111020480Y-81871222D01*
X110746222Y-82145480D01*
X110746215Y-82145488D01*
X110502122Y-82446917D01*
X110290877Y-82772206D01*
X110114787Y-83117802D01*
X109975788Y-83479905D01*
X109875397Y-83854570D01*
X109875397Y-83854572D01*
X109814722Y-84237660D01*
X109794422Y-84624999D01*
X109794422Y-84625000D01*
X109814722Y-85012339D01*
X109867252Y-85344000D01*
X109875398Y-85395433D01*
X109969197Y-85745498D01*
X109975788Y-85770094D01*
X110114787Y-86132197D01*
X110290877Y-86477793D01*
X110502122Y-86803082D01*
X110703459Y-87051712D01*
X110746219Y-87104516D01*
X111020484Y-87378781D01*
X111188375Y-87514737D01*
X111321917Y-87622877D01*
X111643406Y-87831654D01*
X111647211Y-87834125D01*
X111992806Y-88010214D01*
X112354913Y-88149214D01*
X112729567Y-88249602D01*
X113112662Y-88310278D01*
X113478576Y-88329455D01*
X113499999Y-88330578D01*
X113500000Y-88330578D01*
X113500001Y-88330578D01*
X113520301Y-88329514D01*
X113887338Y-88310278D01*
X114270433Y-88249602D01*
X114645087Y-88149214D01*
X115007194Y-88010214D01*
X115352789Y-87834125D01*
X115678084Y-87622876D01*
X115979516Y-87378781D01*
X116253781Y-87104516D01*
X116497876Y-86803084D01*
X116709125Y-86477789D01*
X116885214Y-86132194D01*
X117024214Y-85770087D01*
X117124602Y-85395433D01*
X117185278Y-85012338D01*
X117205578Y-84625000D01*
X117205329Y-84620258D01*
X117199745Y-84513704D01*
X117185278Y-84237662D01*
X117124602Y-83854567D01*
X117024214Y-83479913D01*
X116885214Y-83117806D01*
X116709125Y-82772211D01*
X116642378Y-82669429D01*
X116497877Y-82446917D01*
X116340044Y-82252010D01*
X116253781Y-82145484D01*
X115979516Y-81871219D01*
X115896451Y-81803954D01*
X115678082Y-81627122D01*
X115352793Y-81415877D01*
X115095902Y-81284985D01*
X115045106Y-81237011D01*
X115028311Y-81169190D01*
X115050848Y-81103055D01*
X115105563Y-81059603D01*
X115152197Y-81050500D01*
X118367060Y-81050500D01*
X118434099Y-81070185D01*
X118454741Y-81086819D01*
X121997739Y-84629817D01*
X122007501Y-84635951D01*
X122033095Y-84652032D01*
X122038755Y-84656048D01*
X122071413Y-84682092D01*
X122109054Y-84700218D01*
X122115116Y-84703569D01*
X122141637Y-84720233D01*
X122150474Y-84725787D01*
X122150475Y-84725787D01*
X122150478Y-84725789D01*
X122180550Y-84736311D01*
X122189881Y-84739576D01*
X122196310Y-84742239D01*
X122212161Y-84749872D01*
X122233939Y-84760360D01*
X122274655Y-84769653D01*
X122281328Y-84771576D01*
X122308862Y-84781210D01*
X122320745Y-84785368D01*
X122362241Y-84790043D01*
X122369093Y-84791207D01*
X122409806Y-84800500D01*
X122455046Y-84800500D01*
X126409951Y-84800500D01*
X126476990Y-84820185D01*
X126497632Y-84836819D01*
X126663179Y-85002366D01*
X126696664Y-85063689D01*
X126699498Y-85090047D01*
X126699498Y-85961159D01*
X126699500Y-85961169D01*
X126699500Y-86090191D01*
X126699501Y-86090200D01*
X126708791Y-86130908D01*
X126709955Y-86137763D01*
X126714632Y-86179259D01*
X126728420Y-86218662D01*
X126730345Y-86225345D01*
X126739639Y-86266061D01*
X126757759Y-86303688D01*
X126760421Y-86310114D01*
X126774212Y-86349525D01*
X126796422Y-86384872D01*
X126799787Y-86390959D01*
X126817910Y-86428589D01*
X126843940Y-86461229D01*
X126847966Y-86466904D01*
X126870182Y-86502259D01*
X126870184Y-86502262D01*
X131150741Y-90782819D01*
X131184226Y-90844142D01*
X131179242Y-90913834D01*
X131137370Y-90969767D01*
X131071906Y-90994184D01*
X131063060Y-90994500D01*
X128714188Y-90994500D01*
X128647149Y-90974815D01*
X128612613Y-90941623D01*
X128500045Y-90780858D01*
X128339141Y-90619954D01*
X128152734Y-90489432D01*
X128152732Y-90489431D01*
X127946497Y-90393261D01*
X127946488Y-90393258D01*
X127726697Y-90334366D01*
X127726693Y-90334365D01*
X127726692Y-90334365D01*
X127726691Y-90334364D01*
X127726686Y-90334364D01*
X127500002Y-90314532D01*
X127499998Y-90314532D01*
X127273313Y-90334364D01*
X127273302Y-90334366D01*
X127053511Y-90393258D01*
X127053502Y-90393261D01*
X126847267Y-90489431D01*
X126847265Y-90489432D01*
X126660858Y-90619954D01*
X126499954Y-90780858D01*
X126369432Y-90967265D01*
X126369431Y-90967267D01*
X126273261Y-91173502D01*
X126273258Y-91173511D01*
X126214366Y-91393302D01*
X126214364Y-91393313D01*
X126194532Y-91619998D01*
X126194532Y-91620000D01*
X126214365Y-91846691D01*
X126214366Y-91846697D01*
X126232680Y-91915048D01*
X126231017Y-91984897D01*
X126200586Y-92034821D01*
X125897226Y-92338182D01*
X125835905Y-92371666D01*
X125809547Y-92374500D01*
X101702737Y-92374500D01*
X101687120Y-92372776D01*
X101687093Y-92373062D01*
X101679331Y-92372327D01*
X101610203Y-92374500D01*
X101580650Y-92374500D01*
X101579929Y-92374590D01*
X101573757Y-92375369D01*
X101567945Y-92375826D01*
X101521372Y-92377290D01*
X101521369Y-92377291D01*
X101502126Y-92382881D01*
X101483083Y-92386825D01*
X101463204Y-92389336D01*
X101463203Y-92389337D01*
X101419878Y-92406490D01*
X101414352Y-92408382D01*
X101369608Y-92421383D01*
X101369604Y-92421385D01*
X101352365Y-92431580D01*
X101334898Y-92440137D01*
X101316269Y-92447512D01*
X101316267Y-92447513D01*
X101278564Y-92474906D01*
X101273682Y-92478112D01*
X101233580Y-92501828D01*
X101219408Y-92516000D01*
X101204623Y-92528628D01*
X101188412Y-92540407D01*
X101158709Y-92576310D01*
X101154777Y-92580631D01*
X99632818Y-94102589D01*
X99571495Y-94136074D01*
X99501803Y-94131090D01*
X99445870Y-94089218D01*
X99421453Y-94023754D01*
X99421608Y-94004109D01*
X99425468Y-93960000D01*
X99405635Y-93733308D01*
X99346739Y-93513504D01*
X99250568Y-93307266D01*
X99120047Y-93120861D01*
X99120045Y-93120858D01*
X98959141Y-92959954D01*
X98772734Y-92829432D01*
X98772728Y-92829429D01*
X98714725Y-92802382D01*
X98662285Y-92756210D01*
X98643133Y-92689017D01*
X98663348Y-92622135D01*
X98714725Y-92577618D01*
X98722409Y-92574035D01*
X98772734Y-92550568D01*
X98959139Y-92420047D01*
X99120047Y-92259139D01*
X99232612Y-92098377D01*
X99287189Y-92054752D01*
X99334188Y-92045500D01*
X120997257Y-92045500D01*
X121012877Y-92047224D01*
X121012904Y-92046939D01*
X121020660Y-92047671D01*
X121020667Y-92047673D01*
X121089814Y-92045500D01*
X121119350Y-92045500D01*
X121126228Y-92044630D01*
X121132041Y-92044172D01*
X121178627Y-92042709D01*
X121197869Y-92037117D01*
X121216912Y-92033174D01*
X121236792Y-92030664D01*
X121280122Y-92013507D01*
X121285646Y-92011617D01*
X121289396Y-92010527D01*
X121330390Y-91998618D01*
X121347629Y-91988422D01*
X121365103Y-91979862D01*
X121383727Y-91972488D01*
X121383727Y-91972487D01*
X121383732Y-91972486D01*
X121421449Y-91945082D01*
X121426305Y-91941892D01*
X121466420Y-91918170D01*
X121480589Y-91903999D01*
X121495379Y-91891368D01*
X121511587Y-91879594D01*
X121541299Y-91843676D01*
X121545212Y-91839376D01*
X122013878Y-91370711D01*
X122075197Y-91337229D01*
X122112363Y-91334867D01*
X122114586Y-91335061D01*
X122114592Y-91335063D01*
X122291034Y-91350500D01*
X122708966Y-91350500D01*
X122885408Y-91335063D01*
X123113663Y-91273903D01*
X123327829Y-91174035D01*
X123521401Y-91038495D01*
X123688495Y-90871401D01*
X123824035Y-90677830D01*
X123923903Y-90463663D01*
X123985063Y-90235408D01*
X124005659Y-90000000D01*
X124002889Y-89968345D01*
X123989834Y-89819124D01*
X123985063Y-89764592D01*
X123923903Y-89536337D01*
X123824035Y-89322171D01*
X123824034Y-89322169D01*
X123688494Y-89128597D01*
X123540932Y-88981035D01*
X123507447Y-88919712D01*
X123512431Y-88850020D01*
X123554303Y-88794087D01*
X123563516Y-88787815D01*
X123718345Y-88692315D01*
X123842315Y-88568345D01*
X123934356Y-88419124D01*
X123934358Y-88419119D01*
X123989505Y-88252697D01*
X123989506Y-88252690D01*
X123999999Y-88149986D01*
X124000000Y-88149973D01*
X124000000Y-87800000D01*
X123098666Y-87800000D01*
X123031627Y-87780315D01*
X122985872Y-87727511D01*
X122975928Y-87658353D01*
X122979689Y-87641066D01*
X122999999Y-87571892D01*
X123000000Y-87571889D01*
X123000000Y-87428110D01*
X122999999Y-87428107D01*
X122979689Y-87358934D01*
X122979689Y-87289064D01*
X123017464Y-87230286D01*
X123081020Y-87201262D01*
X123098666Y-87200000D01*
X123999999Y-87200000D01*
X123999999Y-86850028D01*
X123999998Y-86850013D01*
X123989505Y-86747302D01*
X123934358Y-86580880D01*
X123934356Y-86580875D01*
X123842315Y-86431654D01*
X123718345Y-86307684D01*
X123569124Y-86215643D01*
X123569119Y-86215641D01*
X123402697Y-86160494D01*
X123402690Y-86160493D01*
X123299986Y-86150000D01*
X122800000Y-86150000D01*
X122800000Y-86895975D01*
X122780315Y-86963014D01*
X122727511Y-87008769D01*
X122658353Y-87018713D01*
X122643608Y-87015505D01*
X122550519Y-87002121D01*
X122535763Y-87000000D01*
X122464237Y-87000000D01*
X122348906Y-87016582D01*
X122348671Y-87014953D01*
X122289059Y-87014950D01*
X122230283Y-86977173D01*
X122201261Y-86913615D01*
X122200000Y-86895975D01*
X122200000Y-86150000D01*
X121700028Y-86150000D01*
X121700012Y-86150001D01*
X121597302Y-86160494D01*
X121430880Y-86215641D01*
X121430875Y-86215643D01*
X121281654Y-86307684D01*
X121157684Y-86431654D01*
X121065643Y-86580875D01*
X121065641Y-86580880D01*
X121010494Y-86747302D01*
X121010493Y-86747309D01*
X121000000Y-86850013D01*
X121000000Y-87200000D01*
X121901334Y-87200000D01*
X121968373Y-87219685D01*
X122014128Y-87272489D01*
X122024072Y-87341647D01*
X122020311Y-87358934D01*
X122000000Y-87428107D01*
X122000000Y-87571892D01*
X122020311Y-87641066D01*
X122020311Y-87710936D01*
X121982536Y-87769714D01*
X121918980Y-87798738D01*
X121901334Y-87800000D01*
X121000001Y-87800000D01*
X121000001Y-88149986D01*
X121010494Y-88252697D01*
X121065641Y-88419119D01*
X121065643Y-88419124D01*
X121157684Y-88568345D01*
X121281654Y-88692315D01*
X121436484Y-88787815D01*
X121483208Y-88839763D01*
X121494431Y-88908726D01*
X121466587Y-88972808D01*
X121459069Y-88981035D01*
X121311501Y-89128603D01*
X121311501Y-89128604D01*
X121175967Y-89322165D01*
X121175965Y-89322169D01*
X121076098Y-89536335D01*
X121076094Y-89536344D01*
X121014938Y-89764586D01*
X121014936Y-89764596D01*
X120994341Y-89999999D01*
X120994341Y-90000000D01*
X121014936Y-90235403D01*
X121014938Y-90235413D01*
X121073554Y-90454174D01*
X121071891Y-90524024D01*
X121041460Y-90573948D01*
X120857228Y-90758181D01*
X120795905Y-90791666D01*
X120769547Y-90794500D01*
X106439272Y-90794500D01*
X106372233Y-90774815D01*
X106326478Y-90722011D01*
X106316534Y-90652853D01*
X106326890Y-90618095D01*
X106328351Y-90614960D01*
X106398903Y-90463663D01*
X106460063Y-90235408D01*
X106480659Y-90000000D01*
X106477889Y-89968345D01*
X106464834Y-89819124D01*
X106460063Y-89764592D01*
X106398903Y-89536337D01*
X106299035Y-89322171D01*
X106299034Y-89322169D01*
X106163494Y-89128597D01*
X105996403Y-88961506D01*
X105838967Y-88851269D01*
X105795342Y-88796692D01*
X105788148Y-88727194D01*
X105819671Y-88664839D01*
X105838967Y-88648119D01*
X105996073Y-88538113D01*
X105996079Y-88538108D01*
X106163105Y-88371082D01*
X106298600Y-88177578D01*
X106398429Y-87963492D01*
X106398433Y-87963483D01*
X106442238Y-87800000D01*
X105572610Y-87800000D01*
X105505571Y-87780315D01*
X105459816Y-87727511D01*
X105449872Y-87658353D01*
X105453633Y-87641065D01*
X105461473Y-87614366D01*
X105475000Y-87568295D01*
X105475000Y-87431705D01*
X105473944Y-87428110D01*
X105453633Y-87358935D01*
X105453633Y-87289065D01*
X105491407Y-87230287D01*
X105554963Y-87201262D01*
X105572610Y-87200000D01*
X106442238Y-87200000D01*
X106442238Y-87199999D01*
X106398433Y-87036516D01*
X106398429Y-87036507D01*
X106298600Y-86822422D01*
X106298599Y-86822420D01*
X106163113Y-86628926D01*
X106015856Y-86481668D01*
X105982372Y-86420345D01*
X105987356Y-86350653D01*
X106029228Y-86294720D01*
X106038442Y-86288448D01*
X106044334Y-86284814D01*
X106193656Y-86192712D01*
X106317712Y-86068656D01*
X106409814Y-85919334D01*
X106464999Y-85752797D01*
X106475500Y-85650009D01*
X106475499Y-84707938D01*
X106495183Y-84640900D01*
X106511813Y-84620263D01*
X110045258Y-81086819D01*
X110106582Y-81053334D01*
X110132940Y-81050500D01*
X111847803Y-81050500D01*
X111914842Y-81070185D01*
G37*
%TD.AperFunction*%
%TA.AperFunction,Conductor*%
G36*
X99621743Y-83893821D02*
G01*
X101357739Y-85629817D01*
X101357742Y-85629819D01*
X101393089Y-85652029D01*
X101398763Y-85656055D01*
X101414272Y-85668422D01*
X101431414Y-85682092D01*
X101442156Y-85687265D01*
X101469033Y-85700209D01*
X101475122Y-85703574D01*
X101510471Y-85725785D01*
X101510474Y-85725786D01*
X101510478Y-85725789D01*
X101549899Y-85739583D01*
X101556307Y-85742238D01*
X101593939Y-85760360D01*
X101634641Y-85769650D01*
X101641328Y-85771576D01*
X101666241Y-85780293D01*
X101680745Y-85785368D01*
X101722241Y-85790043D01*
X101729093Y-85791207D01*
X101769806Y-85800500D01*
X101815046Y-85800500D01*
X103461267Y-85800500D01*
X103528306Y-85820185D01*
X103574061Y-85872989D01*
X103578972Y-85885494D01*
X103581629Y-85893511D01*
X103590186Y-85919334D01*
X103682288Y-86068656D01*
X103806344Y-86192712D01*
X103925262Y-86266061D01*
X103961558Y-86288448D01*
X104008283Y-86340396D01*
X104019506Y-86409358D01*
X103991663Y-86473441D01*
X103984144Y-86481668D01*
X103836891Y-86628921D01*
X103701399Y-86822421D01*
X103601570Y-87036507D01*
X103601566Y-87036516D01*
X103557761Y-87199999D01*
X103557762Y-87200000D01*
X104427390Y-87200000D01*
X104494429Y-87219685D01*
X104540184Y-87272489D01*
X104550128Y-87341647D01*
X104546367Y-87358935D01*
X104526056Y-87428110D01*
X104525000Y-87431705D01*
X104525000Y-87568295D01*
X104538527Y-87614366D01*
X104546367Y-87641065D01*
X104546367Y-87710935D01*
X104508593Y-87769713D01*
X104445037Y-87798738D01*
X104427390Y-87800000D01*
X103557762Y-87800000D01*
X103601566Y-87963483D01*
X103601570Y-87963492D01*
X103701399Y-88177577D01*
X103701400Y-88177579D01*
X103836886Y-88371073D01*
X103836891Y-88371079D01*
X104003920Y-88538108D01*
X104003926Y-88538113D01*
X104161031Y-88648119D01*
X104204656Y-88702696D01*
X104211850Y-88772194D01*
X104180327Y-88834549D01*
X104161032Y-88851269D01*
X104003594Y-88961508D01*
X103836506Y-89128597D01*
X103836501Y-89128604D01*
X103700967Y-89322165D01*
X103700965Y-89322169D01*
X103601098Y-89536335D01*
X103601094Y-89536344D01*
X103539938Y-89764586D01*
X103539936Y-89764596D01*
X103519341Y-89999999D01*
X103519341Y-90000000D01*
X103539936Y-90235403D01*
X103539938Y-90235413D01*
X103601094Y-90463655D01*
X103601096Y-90463659D01*
X103601097Y-90463663D01*
X103634367Y-90535011D01*
X103673110Y-90618095D01*
X103683602Y-90687173D01*
X103655082Y-90750957D01*
X103596606Y-90789196D01*
X103560728Y-90794500D01*
X99334188Y-90794500D01*
X99267149Y-90774815D01*
X99232613Y-90741623D01*
X99120045Y-90580858D01*
X98959141Y-90419954D01*
X98772734Y-90289432D01*
X98772728Y-90289429D01*
X98714725Y-90262382D01*
X98662285Y-90216210D01*
X98643133Y-90149017D01*
X98663348Y-90082135D01*
X98714725Y-90037618D01*
X98772734Y-90010568D01*
X98959139Y-89880047D01*
X99120047Y-89719139D01*
X99250568Y-89532734D01*
X99346739Y-89326496D01*
X99405635Y-89106692D01*
X99425468Y-88880000D01*
X99405635Y-88653308D01*
X99346739Y-88433504D01*
X99250568Y-88227266D01*
X99120047Y-88040861D01*
X99120045Y-88040858D01*
X98959141Y-87879954D01*
X98772734Y-87749432D01*
X98772728Y-87749429D01*
X98745038Y-87736517D01*
X98714724Y-87722381D01*
X98662285Y-87676210D01*
X98643133Y-87609017D01*
X98663348Y-87542135D01*
X98714725Y-87497618D01*
X98772734Y-87470568D01*
X98959139Y-87340047D01*
X99120047Y-87179139D01*
X99250568Y-86992734D01*
X99346739Y-86786496D01*
X99405635Y-86566692D01*
X99424549Y-86350500D01*
X99425468Y-86340001D01*
X99425468Y-86339998D01*
X99412509Y-86191876D01*
X99405635Y-86113308D01*
X99353659Y-85919331D01*
X99346741Y-85893511D01*
X99346738Y-85893502D01*
X99343004Y-85885494D01*
X99250568Y-85687266D01*
X99120047Y-85500861D01*
X99120045Y-85500858D01*
X98959141Y-85339954D01*
X98772734Y-85209432D01*
X98772728Y-85209429D01*
X98714725Y-85182382D01*
X98662285Y-85136210D01*
X98643133Y-85069017D01*
X98663348Y-85002135D01*
X98714725Y-84957618D01*
X98772734Y-84930568D01*
X98959139Y-84800047D01*
X99120047Y-84639139D01*
X99250568Y-84452734D01*
X99346739Y-84246496D01*
X99405635Y-84026692D01*
X99410534Y-83970694D01*
X99435986Y-83905626D01*
X99492577Y-83864647D01*
X99562339Y-83860769D01*
X99621743Y-83893821D01*
G37*
%TD.AperFunction*%
%TA.AperFunction,Conductor*%
G36*
X133452889Y-78105701D02*
G01*
X133508822Y-78147573D01*
X133533083Y-78211074D01*
X133539936Y-78289403D01*
X133539938Y-78289413D01*
X133544667Y-78307061D01*
X133543004Y-78376911D01*
X133512573Y-78426835D01*
X132616208Y-79323199D01*
X132603951Y-79333020D01*
X132604134Y-79333241D01*
X132598123Y-79338213D01*
X132550772Y-79388636D01*
X132529889Y-79409519D01*
X132529877Y-79409532D01*
X132525621Y-79415017D01*
X132521837Y-79419447D01*
X132489937Y-79453418D01*
X132489936Y-79453420D01*
X132480284Y-79470976D01*
X132469610Y-79487226D01*
X132457329Y-79503061D01*
X132457324Y-79503068D01*
X132438815Y-79545838D01*
X132436245Y-79551084D01*
X132413803Y-79591906D01*
X132412247Y-79597967D01*
X132408833Y-79611266D01*
X132408822Y-79611307D01*
X132402521Y-79629710D01*
X132394562Y-79648102D01*
X132394561Y-79648105D01*
X132387271Y-79694127D01*
X132386087Y-79699846D01*
X132374501Y-79744972D01*
X132374500Y-79744982D01*
X132374500Y-79765016D01*
X132372973Y-79784415D01*
X132369840Y-79804194D01*
X132369840Y-79804195D01*
X132374225Y-79850583D01*
X132374500Y-79856421D01*
X132374500Y-83417255D01*
X132372775Y-83432872D01*
X132373061Y-83432899D01*
X132372326Y-83440665D01*
X132374500Y-83509814D01*
X132374500Y-83539343D01*
X132374501Y-83539360D01*
X132375368Y-83546231D01*
X132375826Y-83552050D01*
X132377290Y-83598624D01*
X132377291Y-83598627D01*
X132382880Y-83617867D01*
X132386824Y-83636911D01*
X132389336Y-83656792D01*
X132401582Y-83687723D01*
X132406490Y-83700119D01*
X132408382Y-83705647D01*
X132413357Y-83722771D01*
X132421382Y-83750390D01*
X132428183Y-83761891D01*
X132431580Y-83767634D01*
X132440136Y-83785100D01*
X132447514Y-83803732D01*
X132460257Y-83821272D01*
X132474898Y-83841423D01*
X132478106Y-83846307D01*
X132501827Y-83886416D01*
X132501833Y-83886424D01*
X132515990Y-83900580D01*
X132528628Y-83915376D01*
X132540405Y-83931586D01*
X132540406Y-83931587D01*
X132576309Y-83961288D01*
X132580620Y-83965210D01*
X134213342Y-85597932D01*
X135838181Y-87222771D01*
X135871666Y-87284094D01*
X135874500Y-87310452D01*
X135874500Y-87438566D01*
X135854815Y-87505605D01*
X135802011Y-87551360D01*
X135734440Y-87561075D01*
X135734430Y-87561182D01*
X135734004Y-87561138D01*
X135732853Y-87561304D01*
X135729154Y-87560643D01*
X135624986Y-87550000D01*
X135150000Y-87550000D01*
X135150000Y-88322298D01*
X135130315Y-88389337D01*
X135077511Y-88435092D01*
X135008353Y-88445036D01*
X134991072Y-88441277D01*
X134985204Y-88439554D01*
X134896647Y-88426822D01*
X134883975Y-88425000D01*
X134816025Y-88425000D01*
X134714795Y-88439554D01*
X134708928Y-88441277D01*
X134639058Y-88441273D01*
X134580282Y-88403495D01*
X134551261Y-88339938D01*
X134550000Y-88322298D01*
X134550000Y-87550000D01*
X134075028Y-87550000D01*
X134075012Y-87550001D01*
X133972302Y-87560494D01*
X133805880Y-87615641D01*
X133805875Y-87615643D01*
X133656654Y-87707684D01*
X133532684Y-87831654D01*
X133440643Y-87980875D01*
X133440641Y-87980880D01*
X133385494Y-88147302D01*
X133385493Y-88147309D01*
X133375000Y-88250013D01*
X133375000Y-88600000D01*
X134277390Y-88600000D01*
X134344429Y-88619685D01*
X134390184Y-88672489D01*
X134400128Y-88741647D01*
X134396367Y-88758935D01*
X134375000Y-88831704D01*
X134375000Y-88968295D01*
X134396367Y-89041065D01*
X134396367Y-89110935D01*
X134358593Y-89169713D01*
X134295037Y-89198738D01*
X134277390Y-89200000D01*
X133375001Y-89200000D01*
X133375001Y-89549986D01*
X133385494Y-89652697D01*
X133440641Y-89819119D01*
X133440643Y-89819124D01*
X133532684Y-89968345D01*
X133656654Y-90092315D01*
X133811484Y-90187815D01*
X133858208Y-90239763D01*
X133869431Y-90308726D01*
X133841587Y-90372808D01*
X133834068Y-90381035D01*
X133686508Y-90528594D01*
X133673884Y-90546624D01*
X133619307Y-90590248D01*
X133572309Y-90599500D01*
X133282940Y-90599500D01*
X133215901Y-90579815D01*
X133195259Y-90563181D01*
X128336819Y-85704740D01*
X128303334Y-85643417D01*
X128300500Y-85617059D01*
X128300500Y-85090049D01*
X128320185Y-85023010D01*
X128336819Y-85002368D01*
X128500045Y-84839141D01*
X128500047Y-84839139D01*
X128630568Y-84652734D01*
X128726739Y-84446496D01*
X128785635Y-84226692D01*
X128805468Y-84000000D01*
X128785635Y-83773308D01*
X128732047Y-83573313D01*
X128726741Y-83553511D01*
X128726738Y-83553502D01*
X128724699Y-83549130D01*
X128630568Y-83347266D01*
X128520132Y-83189546D01*
X128500045Y-83160858D01*
X128485313Y-83146126D01*
X128451828Y-83084803D01*
X128456812Y-83015111D01*
X128485311Y-82970766D01*
X133321876Y-78134200D01*
X133383197Y-78100717D01*
X133452889Y-78105701D01*
G37*
%TD.AperFunction*%
%TA.AperFunction,Conductor*%
G36*
X136680202Y-72476695D02*
G01*
X136686680Y-72482727D01*
X137338181Y-73134228D01*
X137371666Y-73195551D01*
X137374500Y-73221909D01*
X137374500Y-81690546D01*
X137354815Y-81757585D01*
X137302011Y-81803340D01*
X137232853Y-81813284D01*
X137169297Y-81784259D01*
X137162819Y-81778227D01*
X136450233Y-81065642D01*
X136416748Y-81004319D01*
X136418138Y-80945872D01*
X136460063Y-80789408D01*
X136480659Y-80554000D01*
X136460063Y-80318592D01*
X136409378Y-80129429D01*
X136398905Y-80090344D01*
X136398904Y-80090343D01*
X136398903Y-80090337D01*
X136299035Y-79876171D01*
X136281119Y-79850583D01*
X136163494Y-79682597D01*
X135996403Y-79515506D01*
X135932807Y-79470976D01*
X135839401Y-79405573D01*
X135795778Y-79350999D01*
X135788584Y-79281500D01*
X135820106Y-79219145D01*
X135839398Y-79202428D01*
X135996401Y-79092495D01*
X136163495Y-78925401D01*
X136299035Y-78731830D01*
X136398903Y-78517663D01*
X136460063Y-78289408D01*
X136480659Y-78054000D01*
X136460063Y-77818592D01*
X136398903Y-77590337D01*
X136299035Y-77376171D01*
X136275455Y-77342494D01*
X136163494Y-77182597D01*
X135996403Y-77015506D01*
X135940187Y-76976144D01*
X135839401Y-76905573D01*
X135795778Y-76850999D01*
X135788584Y-76781500D01*
X135820106Y-76719145D01*
X135839398Y-76702428D01*
X135996401Y-76592495D01*
X136163495Y-76425401D01*
X136299035Y-76231830D01*
X136398903Y-76017663D01*
X136460063Y-75789408D01*
X136480659Y-75554000D01*
X136477761Y-75520882D01*
X136476328Y-75504500D01*
X136460063Y-75318592D01*
X136403157Y-75106212D01*
X136398905Y-75090344D01*
X136398904Y-75090343D01*
X136398903Y-75090337D01*
X136299035Y-74876171D01*
X136299034Y-74876169D01*
X136163494Y-74682597D01*
X136015932Y-74535035D01*
X135982447Y-74473712D01*
X135987431Y-74404020D01*
X136029303Y-74348087D01*
X136038516Y-74341815D01*
X136193345Y-74246315D01*
X136317315Y-74122345D01*
X136409356Y-73973124D01*
X136409358Y-73973119D01*
X136464505Y-73806697D01*
X136464506Y-73806690D01*
X136474999Y-73703986D01*
X136475000Y-73703973D01*
X136475000Y-73354000D01*
X135572610Y-73354000D01*
X135505571Y-73334315D01*
X135459816Y-73281511D01*
X135449872Y-73212353D01*
X135453633Y-73195065D01*
X135475000Y-73122295D01*
X135475000Y-72985704D01*
X135454882Y-72917187D01*
X135453633Y-72912934D01*
X135453633Y-72843065D01*
X135491407Y-72784287D01*
X135554963Y-72755262D01*
X135572610Y-72754000D01*
X136474999Y-72754000D01*
X136474999Y-72570408D01*
X136494684Y-72503369D01*
X136547488Y-72457614D01*
X136616646Y-72447670D01*
X136680202Y-72476695D01*
G37*
%TD.AperFunction*%
%TA.AperFunction,Conductor*%
G36*
X82338362Y-76399886D02*
G01*
X82394295Y-76441758D01*
X82405125Y-76459019D01*
X82426440Y-76500153D01*
X82426441Y-76500156D01*
X82478040Y-76555404D01*
X82529638Y-76610652D01*
X82556398Y-76626925D01*
X82608669Y-76658712D01*
X82655721Y-76710364D01*
X82667378Y-76779254D01*
X82639940Y-76843511D01*
X82631921Y-76852341D01*
X82196115Y-77288146D01*
X82227516Y-77310133D01*
X82227522Y-77310136D01*
X82285865Y-77337342D01*
X82338305Y-77383514D01*
X82357457Y-77450707D01*
X82337242Y-77517589D01*
X82285867Y-77562105D01*
X82284685Y-77562657D01*
X82227264Y-77589433D01*
X82040858Y-77719954D01*
X82012181Y-77748632D01*
X81950858Y-77782117D01*
X81881166Y-77777133D01*
X81825233Y-77735261D01*
X81800816Y-77669797D01*
X81800500Y-77660951D01*
X81800500Y-76886596D01*
X81820185Y-76819557D01*
X81836819Y-76798915D01*
X82207347Y-76428387D01*
X82268670Y-76394902D01*
X82338362Y-76399886D01*
G37*
%TD.AperFunction*%
M02*
