M48
; DRILL file {KiCad 7.0.7} date Wed Oct 18 20:08:31 2023
; FORMAT={-:-/ absolute / metric / decimal}
; #@! TF.CreationDate,2023-10-18T20:08:31+01:00
; #@! TF.GenerationSoftware,Kicad,Pcbnew,7.0.7
; #@! TF.FileFunction,Plated,1,2,PTH
FMAT,2
METRIC
; #@! TA.AperFunction,Plated,PTH,ComponentDrill
T1C0.800
; #@! TA.AperFunction,Plated,PTH,ComponentDrill
T2C0.950
; #@! TA.AperFunction,Plated,PTH,ComponentDrill
T3C1.000
; #@! TA.AperFunction,Plated,PTH,ComponentDrill
T4C1.100
; #@! TA.AperFunction,Plated,PTH,ComponentDrill
T5C1.300
; #@! TA.AperFunction,Plated,PTH,ComponentDrill
T6C3.200
%
G90
G05
T1
X67.056Y-69.596
X67.056Y-77.216
X67.056Y-81.28
X67.056Y-88.9
X67.056Y-92.964
X67.056Y-100.584
X71.12Y-70.104
X71.12Y-72.644
X71.12Y-75.184
X71.12Y-77.724
X71.12Y-80.264
X71.12Y-82.804
X71.12Y-85.344
X74.676Y-89.408
X74.676Y-91.408
X78.74Y-70.104
X78.74Y-72.644
X78.74Y-75.184
X78.74Y-77.724
X78.74Y-80.264
X78.74Y-82.804
X78.74Y-85.344
X127.508Y-73.0
X127.508Y-80.62
X127.508Y-89.0
X127.508Y-96.62
T2
X57.23Y-72.644
X57.23Y-84.582
X57.23Y-96.503
X59.73Y-72.644
X59.73Y-84.582
X59.73Y-96.503
X62.23Y-72.644
X62.23Y-84.582
X62.23Y-96.503
X102.656Y-98.044
X102.696Y-77.724
X105.156Y-98.044
X105.196Y-77.724
X107.656Y-98.044
X107.696Y-77.724
X134.62Y-88.9
X134.62Y-91.4
X134.62Y-93.9
X134.62Y-96.4
X134.77Y-73.054
X134.77Y-75.554
X134.77Y-78.054
X134.77Y-80.554
T3
X73.192Y-96.52
X75.692Y-96.52
X86.868Y-69.596
X89.368Y-69.596
X103.632Y-105.0
X103.632Y-107.5
X122.5Y-70.5
X122.5Y-73.0
X122.5Y-79.0
X122.5Y-81.5
X122.5Y-87.5
X122.5Y-90.0
X122.5Y-96.0
X122.5Y-98.5
T4
X82.88Y-76.18
X82.88Y-78.72
X82.88Y-81.26
X82.88Y-83.8
X82.88Y-86.34
X82.88Y-88.88
X82.88Y-91.42
X82.88Y-93.96
X82.88Y-96.5
X82.88Y-99.04
X82.88Y-101.58
X82.88Y-104.12
X82.88Y-106.66
X82.88Y-109.2
X89.355Y-76.82
X91.645Y-76.82
X98.12Y-76.18
X98.12Y-78.72
X98.12Y-81.26
X98.12Y-83.8
X98.12Y-86.34
X98.12Y-88.88
X98.12Y-91.42
X98.12Y-93.96
X98.12Y-96.5
X98.12Y-99.04
X98.12Y-101.58
X98.12Y-104.12
X98.12Y-106.66
X98.12Y-109.2
T5
X85.5Y-116.5
X90.5Y-116.5
X98.5Y-116.5
X103.5Y-116.5
T6
X113.5Y-84.625
T0
M30
