%TF.GenerationSoftware,KiCad,Pcbnew,8.0.3*%
%TF.CreationDate,2024-07-03T22:45:41+01:00*%
%TF.ProjectId,Wand Board ESP32,57616e64-2042-46f6-9172-642045535033,rev?*%
%TF.SameCoordinates,Original*%
%TF.FileFunction,Legend,Bot*%
%TF.FilePolarity,Positive*%
%FSLAX46Y46*%
G04 Gerber Fmt 4.6, Leading zero omitted, Abs format (unit mm)*
G04 Created by KiCad (PCBNEW 8.0.3) date 2024-07-03 22:45:41*
%MOMM*%
%LPD*%
G01*
G04 APERTURE LIST*
G04 Aperture macros list*
%AMRoundRect*
0 Rectangle with rounded corners*
0 $1 Rounding radius*
0 $2 $3 $4 $5 $6 $7 $8 $9 X,Y pos of 4 corners*
0 Add a 4 corners polygon primitive as box body*
4,1,4,$2,$3,$4,$5,$6,$7,$8,$9,$2,$3,0*
0 Add four circle primitives for the rounded corners*
1,1,$1+$1,$2,$3*
1,1,$1+$1,$4,$5*
1,1,$1+$1,$6,$7*
1,1,$1+$1,$8,$9*
0 Add four rect primitives between the rounded corners*
20,1,$1+$1,$2,$3,$4,$5,0*
20,1,$1+$1,$4,$5,$6,$7,0*
20,1,$1+$1,$6,$7,$8,$9,0*
20,1,$1+$1,$8,$9,$2,$3,0*%
G04 Aperture macros list end*
%ADD10C,0.150000*%
%ADD11C,1.600000*%
%ADD12O,1.600000X1.600000*%
%ADD13RoundRect,0.250000X-0.600000X-0.725000X0.600000X-0.725000X0.600000X0.725000X-0.600000X0.725000X0*%
%ADD14O,1.700000X1.950000*%
%ADD15R,1.200000X1.200000*%
%ADD16C,1.200000*%
%ADD17R,2.200000X2.200000*%
%ADD18O,2.200000X2.200000*%
%ADD19C,2.600000*%
%ADD20R,2.600000X2.600000*%
%ADD21RoundRect,0.250000X-0.600000X-0.750000X0.600000X-0.750000X0.600000X0.750000X-0.600000X0.750000X0*%
%ADD22O,1.700000X2.000000*%
%ADD23R,1.600000X1.600000*%
%ADD24RoundRect,0.250000X-0.725000X0.600000X-0.725000X-0.600000X0.725000X-0.600000X0.725000X0.600000X0*%
%ADD25O,1.950000X1.700000*%
%ADD26R,1.500000X1.050000*%
%ADD27O,1.500000X1.050000*%
%ADD28C,6.400000*%
%ADD29C,1.524000*%
G04 APERTURE END LIST*
D10*
X136377506Y-99869819D02*
X136377506Y-100584104D01*
X136377506Y-100584104D02*
X136425125Y-100726961D01*
X136425125Y-100726961D02*
X136520363Y-100822200D01*
X136520363Y-100822200D02*
X136663220Y-100869819D01*
X136663220Y-100869819D02*
X136758458Y-100869819D01*
X135425125Y-100869819D02*
X135901315Y-100869819D01*
X135901315Y-100869819D02*
X135901315Y-99869819D01*
X134520363Y-100774580D02*
X134567982Y-100822200D01*
X134567982Y-100822200D02*
X134710839Y-100869819D01*
X134710839Y-100869819D02*
X134806077Y-100869819D01*
X134806077Y-100869819D02*
X134948934Y-100822200D01*
X134948934Y-100822200D02*
X135044172Y-100726961D01*
X135044172Y-100726961D02*
X135091791Y-100631723D01*
X135091791Y-100631723D02*
X135139410Y-100441247D01*
X135139410Y-100441247D02*
X135139410Y-100298390D01*
X135139410Y-100298390D02*
X135091791Y-100107914D01*
X135091791Y-100107914D02*
X135044172Y-100012676D01*
X135044172Y-100012676D02*
X134948934Y-99917438D01*
X134948934Y-99917438D02*
X134806077Y-99869819D01*
X134806077Y-99869819D02*
X134710839Y-99869819D01*
X134710839Y-99869819D02*
X134567982Y-99917438D01*
X134567982Y-99917438D02*
X134520363Y-99965057D01*
X133806077Y-99869819D02*
X133806077Y-100584104D01*
X133806077Y-100584104D02*
X133853696Y-100726961D01*
X133853696Y-100726961D02*
X133948934Y-100822200D01*
X133948934Y-100822200D02*
X134091791Y-100869819D01*
X134091791Y-100869819D02*
X134187029Y-100869819D01*
X132853696Y-100869819D02*
X133329886Y-100869819D01*
X133329886Y-100869819D02*
X133329886Y-99869819D01*
X131948934Y-100774580D02*
X131996553Y-100822200D01*
X131996553Y-100822200D02*
X132139410Y-100869819D01*
X132139410Y-100869819D02*
X132234648Y-100869819D01*
X132234648Y-100869819D02*
X132377505Y-100822200D01*
X132377505Y-100822200D02*
X132472743Y-100726961D01*
X132472743Y-100726961D02*
X132520362Y-100631723D01*
X132520362Y-100631723D02*
X132567981Y-100441247D01*
X132567981Y-100441247D02*
X132567981Y-100298390D01*
X132567981Y-100298390D02*
X132520362Y-100107914D01*
X132520362Y-100107914D02*
X132472743Y-100012676D01*
X132472743Y-100012676D02*
X132377505Y-99917438D01*
X132377505Y-99917438D02*
X132234648Y-99869819D01*
X132234648Y-99869819D02*
X132139410Y-99869819D01*
X132139410Y-99869819D02*
X131996553Y-99917438D01*
X131996553Y-99917438D02*
X131948934Y-99965057D01*
X131234648Y-99869819D02*
X131234648Y-100584104D01*
X131234648Y-100584104D02*
X131282267Y-100726961D01*
X131282267Y-100726961D02*
X131377505Y-100822200D01*
X131377505Y-100822200D02*
X131520362Y-100869819D01*
X131520362Y-100869819D02*
X131615600Y-100869819D01*
X130282267Y-100869819D02*
X130758457Y-100869819D01*
X130758457Y-100869819D02*
X130758457Y-99869819D01*
X129377505Y-100774580D02*
X129425124Y-100822200D01*
X129425124Y-100822200D02*
X129567981Y-100869819D01*
X129567981Y-100869819D02*
X129663219Y-100869819D01*
X129663219Y-100869819D02*
X129806076Y-100822200D01*
X129806076Y-100822200D02*
X129901314Y-100726961D01*
X129901314Y-100726961D02*
X129948933Y-100631723D01*
X129948933Y-100631723D02*
X129996552Y-100441247D01*
X129996552Y-100441247D02*
X129996552Y-100298390D01*
X129996552Y-100298390D02*
X129948933Y-100107914D01*
X129948933Y-100107914D02*
X129901314Y-100012676D01*
X129901314Y-100012676D02*
X129806076Y-99917438D01*
X129806076Y-99917438D02*
X129663219Y-99869819D01*
X129663219Y-99869819D02*
X129567981Y-99869819D01*
X129567981Y-99869819D02*
X129425124Y-99917438D01*
X129425124Y-99917438D02*
X129377505Y-99965057D01*
X128663219Y-99869819D02*
X128663219Y-100584104D01*
X128663219Y-100584104D02*
X128710838Y-100726961D01*
X128710838Y-100726961D02*
X128806076Y-100822200D01*
X128806076Y-100822200D02*
X128948933Y-100869819D01*
X128948933Y-100869819D02*
X129044171Y-100869819D01*
X127710838Y-100869819D02*
X128187028Y-100869819D01*
X128187028Y-100869819D02*
X128187028Y-99869819D01*
X126806076Y-100774580D02*
X126853695Y-100822200D01*
X126853695Y-100822200D02*
X126996552Y-100869819D01*
X126996552Y-100869819D02*
X127091790Y-100869819D01*
X127091790Y-100869819D02*
X127234647Y-100822200D01*
X127234647Y-100822200D02*
X127329885Y-100726961D01*
X127329885Y-100726961D02*
X127377504Y-100631723D01*
X127377504Y-100631723D02*
X127425123Y-100441247D01*
X127425123Y-100441247D02*
X127425123Y-100298390D01*
X127425123Y-100298390D02*
X127377504Y-100107914D01*
X127377504Y-100107914D02*
X127329885Y-100012676D01*
X127329885Y-100012676D02*
X127234647Y-99917438D01*
X127234647Y-99917438D02*
X127091790Y-99869819D01*
X127091790Y-99869819D02*
X126996552Y-99869819D01*
X126996552Y-99869819D02*
X126853695Y-99917438D01*
X126853695Y-99917438D02*
X126806076Y-99965057D01*
%LPC*%
D11*
X101600000Y-82550000D03*
D12*
X101600000Y-90170000D03*
D11*
X104850000Y-82550000D03*
D12*
X104850000Y-90170000D03*
D11*
X128524000Y-77724000D03*
D12*
X136144000Y-77724000D03*
D11*
X128524000Y-72898000D03*
D12*
X136144000Y-72898000D03*
D11*
X57150000Y-78740000D03*
D12*
X64770000Y-78740000D03*
D13*
X57270000Y-71120000D03*
D14*
X59770000Y-71120000D03*
X62270000Y-71120000D03*
X64770000Y-71120000D03*
D13*
X57270000Y-85090000D03*
D14*
X59770000Y-85090000D03*
X62270000Y-85090000D03*
X64770000Y-85090000D03*
D13*
X58460000Y-96774000D03*
D14*
X60960000Y-96774000D03*
X63460000Y-96774000D03*
D15*
X111760000Y-72358000D03*
D16*
X111760000Y-70358000D03*
D14*
X90678000Y-96774000D03*
X88178000Y-96774000D03*
D13*
X85678000Y-96774000D03*
D17*
X117094000Y-77724000D03*
D18*
X106934000Y-77724000D03*
D19*
X90852000Y-116332000D03*
D20*
X85852000Y-116332000D03*
D13*
X119380000Y-96774000D03*
D14*
X121880000Y-96774000D03*
X124380000Y-96774000D03*
X126880000Y-96774000D03*
D21*
X99100000Y-106680000D03*
D22*
X101600000Y-106680000D03*
D23*
X73660000Y-89214888D03*
D11*
X73660000Y-91214888D03*
D21*
X99100000Y-96774000D03*
D22*
X101600000Y-96774000D03*
D13*
X85678000Y-106680000D03*
D14*
X88178000Y-106680000D03*
X90678000Y-106680000D03*
D21*
X121706000Y-89408000D03*
D22*
X124206000Y-89408000D03*
D24*
X134850000Y-88900000D03*
D25*
X134850000Y-91400000D03*
X134850000Y-93900000D03*
X134850000Y-96400000D03*
D21*
X121666000Y-82042000D03*
D22*
X124166000Y-82042000D03*
D23*
X69850000Y-69850000D03*
D12*
X69850000Y-72390000D03*
X69850000Y-74930000D03*
X69850000Y-77470000D03*
X69850000Y-80010000D03*
X69850000Y-82550000D03*
X69850000Y-85090000D03*
X77470000Y-85090000D03*
X77470000Y-82550000D03*
X77470000Y-80010000D03*
X77470000Y-77470000D03*
X77470000Y-74930000D03*
X77470000Y-72390000D03*
X77470000Y-69850000D03*
D22*
X111974000Y-96774000D03*
D21*
X109474000Y-96774000D03*
X72430000Y-96774000D03*
D22*
X74930000Y-96774000D03*
D20*
X98044000Y-116332000D03*
D19*
X103044000Y-116332000D03*
D26*
X102108000Y-77470000D03*
D27*
X102108000Y-76200000D03*
X102108000Y-74930000D03*
D28*
X113500000Y-84625000D03*
D21*
X121666000Y-72136000D03*
D22*
X124166000Y-72136000D03*
D29*
X82605000Y-70250000D03*
X82605000Y-72790000D03*
X82605000Y-75330000D03*
X82605000Y-77870000D03*
X82605000Y-80410000D03*
X82605000Y-82950000D03*
X82605000Y-85490000D03*
X82605000Y-88030000D03*
X82605000Y-90570000D03*
X97845000Y-90570000D03*
X97845000Y-88030000D03*
X97845000Y-85490000D03*
X97845000Y-82950000D03*
X97845000Y-80410000D03*
X97845000Y-77870000D03*
X97845000Y-75330000D03*
X97845000Y-72790000D03*
X97845000Y-70250000D03*
%LPD*%
M02*
